<?xml version='1.0' encoding='utf-8'?>
<!DOCTYPE svg>
<!-- Generator: Adobe Illustrator 17.1.0, SVG Export Plug-In . SVG Version: 6.00 Build 0)  -->
<svg xmlns="http://www.w3.org/2000/svg" y="0px" height="0.8in" id="Layer_1"  xmlns:xml="http://www.w3.org/XML/1998/namespace" enable-background="new 0 0 136.8 57.6" version="1.1" viewBox="0 0 136.8 57.6" width="1.9in" gorn="0" xml:space="preserve" x="0px">
    <desc >
        <referenceFile >easy-driver.svg</referenceFile>
    </desc>
    <g >
        <g id="breadboard"  gorn="0.1.0">
            <g id="icon"  gorn="0.1.0.0">
                <path  fill="#C62717" d="M0,0h136.8v57.6H0V0z M106.9,18c0,2.6,2.1,4.7,4.7,4.7s4.7-2.1,4.7-4.7s-2.1-4.7-4.7-4.7S106.9,15.4,106.9,18z M38.5,28.8c0,2.6,2.1,4.7,4.7,4.7s4.7-2.1,4.7-4.7l0,0c0-2.6-2.1-4.7-4.7-4.7S38.5,26.2,38.5,28.8z M121,7.2c0,0.8,0.6,1.4,1.4,1.4c0.8,0,1.4-0.6,1.4-1.4c0,0,0,0,0,0c0-0.8-0.6-1.4-1.4-1.4S121,6.4,121,7.2C121,7.2,121,7.2,121,7.2z M128.2,7.2c0,0.8,0.6,1.4,1.4,1.4S131,8,131,7.2s-0.6-1.4-1.4-1.4S128.2,6.4,128.2,7.2z M113.8,50.4c0,0.8,0.6,1.4,1.4,1.4s1.4-0.6,1.4-1.4c0,0,0,0,0,0c0-0.8-0.6-1.4-1.4-1.4S113.8,49.6,113.8,50.4C113.8,50.4,113.8,50.4,113.8,50.4z M121,50.4c0,0.8,0.6,1.4,1.4,1.4s1.4-0.6,1.4-1.4c0,0,0,0,0,0c0-0.8-0.6-1.4-1.4-1.4S121,49.6,121,50.4C121,50.4,121,50.4,121,50.4z M128.2,50.4c0,0.8,0.6,1.4,1.4,1.4s1.4-0.6,1.4-1.4c0-0.8-0.6-1.4-1.4-1.4S128.2,49.6,128.2,50.4L128.2,50.4z M20.2,7.2c0,0.8,0.6,1.4,1.4,1.4S23,8,23,7.2s-0.6-1.4-1.4-1.4S20.2,6.4,20.2,7.2L20.2,7.2z M27.4,7.2c0,0.8,0.6,1.4,1.4,1.4s1.4-0.6,1.4-1.4s-0.6-1.4-1.4-1.4S27.4,6.4,27.4,7.2L27.4,7.2z M34.6,7.2c0,0.8,0.6,1.4,1.4,1.4c0.8,0,1.4-0.6,1.4-1.4S36.8,5.8,36,5.8C35.2,5.8,34.6,6.4,34.6,7.2L34.6,7.2z M41.8,7.2c0,0.8,0.6,1.4,1.4,1.4c0.8,0,1.4-0.6,1.4-1.4S44,5.8,43.2,5.8C42.4,5.8,41.8,6.4,41.8,7.2L41.8,7.2z M27.4,50.4c0,0.8,0.6,1.4,1.4,1.4s1.4-0.6,1.4-1.4c0-0.8-0.6-1.4-1.4-1.4S27.4,49.6,27.4,50.4z M20.2,50.4c0,0.8,0.6,1.4,1.4,1.4s1.4-0.6,1.4-1.4c0-0.8-0.6-1.4-1.4-1.4S20.2,49.6,20.2,50.4z M63.4,50.4c0,0.8,0.6,1.4,1.4,1.4s1.4-0.6,1.4-1.4c0,0,0,0,0,0c0-0.8-0.6-1.4-1.4-1.4C64,49,63.4,49.6,63.4,50.4z M56.2,50.4c0,0.8,0.6,1.4,1.4,1.4c0.8,0,1.4-0.6,1.4-1.4c0-0.8-0.6-1.4-1.4-1.4C56.8,49,56.2,49.6,56.2,50.4z M92.2,7.2c0,0.8,0.6,1.4,1.4,1.4C94.4,8.6,95,8,95,7.2c0,0,0,0,0,0c0-0.8-0.6-1.4-1.4-1.4S92.2,6.4,92.2,7.2C92.2,7.2,92.2,7.2,92.2,7.2z M99.4,7.2c0,0.8,0.6,1.4,1.4,1.4c0.8,0,1.4-0.6,1.4-1.4c0,0,0,0,0,0c0-0.8-0.6-1.4-1.4-1.4S99.4,6.4,99.4,7.2C99.4,7.2,99.4,7.2,99.4,7.2z M56.2,7.2c0,0.8,0.6,1.4,1.4,1.4C58.4,8.6,59,8,59,7.2s-0.6-1.4-1.4-1.4C56.8,5.8,56.2,6.4,56.2,7.2L56.2,7.2z M63.4,7.2c0,0.8,0.6,1.4,1.4,1.4c0.8,0,1.4-0.6,1.4-1.4c0,0,0,0,0,0c0-0.8-0.6-1.4-1.4-1.4C64,5.8,63.4,6.4,63.4,7.2C63.4,7.2,63.4,7.2,63.4,7.2z"/>
                <g >
                    <title >layer 21</title>
                    <line stroke-linecap="round"  fill="none" y1="57.6" y2="57.6" x1="0" x2="136.8" stroke="#FFFFFF" stroke-width="0.72"/>
                    <line stroke-linecap="round"  fill="none" y1="57.6" y2="0" x1="136.8" x2="136.8" stroke="#FFFFFF" stroke-width="0.72"/>
                    <line stroke-linecap="round"  fill="none" y1="0" y2="57.6" x1="0" x2="0" stroke="#FFFFFF" stroke-width="0.72"/>
                    <line stroke-linecap="round"  fill="none" y1="2.2" y2="2.2" x1="21.6" x2="23.4" stroke="#FFFFFF" stroke-width="0.576"/>
                    <line stroke-linecap="round"  fill="none" y1="2.2" y2="4" x1="21.6" x2="21.6" stroke="#FFFFFF" stroke-width="0.576"/>
                    <line stroke-linecap="round"  fill="none" y1="2.2" y2="2.2" x1="28.8" x2="27" stroke="#FFFFFF" stroke-width="0.576"/>
                    <line stroke-linecap="round"  fill="none" y1="2.2" y2="4" x1="28.8" x2="28.8" stroke="#FFFFFF" stroke-width="0.576"/>
                    <line stroke-linecap="round"  fill="none" y1="2.2" y2="2.2" x1="37.8" x2="36" stroke="#FFFFFF" stroke-width="0.576"/>
                    <line stroke-linecap="round"  fill="none" y1="2.2" y2="4" x1="36" x2="36" stroke="#FFFFFF" stroke-width="0.576"/>
                    <line stroke-linecap="round"  fill="none" y1="2.2" y2="2.2" x1="43.2" x2="41.4" stroke="#FFFFFF" stroke-width="0.576"/>
                    <line stroke-linecap="round"  fill="none" y1="2.2" y2="4" x1="43.2" x2="43.2" stroke="#FFFFFF" stroke-width="0.576"/>
                    <line stroke-linecap="round"  fill="none" y1="0" y2="0" x1="136.8" x2="0" stroke="#FFFFFF" stroke-width="0.72"/>
                    <line stroke-linecap="round"  fill="none" y1="10.4" y2="12.2" x1="122.4" x2="122.4" stroke="#FFFFFF" stroke-width="0.576"/>
                    <line stroke-linecap="round"  fill="none" y1="10.4" y2="12.2" x1="129.6" x2="129.6" stroke="#FFFFFF" stroke-width="0.576"/>
                    <line stroke-linecap="round"  fill="none" y1="12.2" y2="12.2" x1="129.6" x2="122.4" stroke="#FFFFFF" stroke-width="0.576"/>
                    <line stroke-linecap="round"  fill="none" y1="37.8" y2="37.8" x1="43.7" x2="41.9" stroke="#FFFFFF" stroke-width="0.5"/>
                    <line stroke-linecap="round"  fill="none" y1="37.8" y2="36" x1="43.7" x2="43.7" stroke="#FFFFFF" stroke-width="0.5"/>
                    <line stroke-linecap="round"  fill="none" y1="10.8" y2="12.2" x1="21.6" x2="21.6" stroke="#FFFFFF" stroke-width="0.72"/>
                    <line stroke-linecap="round"  fill="none" y1="12.2" y2="12.2" x1="21.6" x2="43.2" stroke="#FFFFFF" stroke-width="0.72"/>
                    <line stroke-linecap="round"  fill="none" y1="12.2" y2="10.8" x1="43.2" x2="43.2" stroke="#FFFFFF" stroke-width="0.72"/>
                    <g >
                        <title >text:DIR</title>
                        <g  transform="matrix(1 0 0 1 127.08 56.16)">
                            <g >
                                <text  fill="#FFFFFF" font-size="2.6726" font-family="OCRA">DIR</text>
                            </g>
                        </g>
                    </g>
                    <g >
                        <title >text:GND</title>
                        <g  transform="matrix(1 0 0 1 119.52 3.6)">
                            <g >
                                <text  fill="#FFFFFF" font-size="2.6726" font-family="OCRA">GND</text>
                            </g>
                        </g>
                    </g>
                    <g >
                        <title >text:M+</title>
                        <g  transform="matrix(1 0 0 1 128.16 3.6)">
                            <g >
                                <text  fill="#FFFFFF" font-size="2.6726" font-family="OCRA">M+</text>
                            </g>
                        </g>
                    </g>
                    <g >
                        <title >text:EasyDriver</title>
                        <g  transform="matrix(1 0 0 1 81.36 54.72)">
                            <g >
                                <text  fill="#FFFFFF" font-size="2.6726" font-family="OCRA">EasyDriver</text>
                            </g>
                        </g>
                    </g>
                    <g >
                        <title >text:STEP</title>
                        <g  transform="matrix(1 0 0 1 118.8 46.8)">
                            <g >
                                <text  fill="#FFFFFF" font-size="2.6726" font-family="OCRA">STEP</text>
                            </g>
                        </g>
                    </g>
                    <g >
                        <title >text:MOTOR</title>
                        <g  transform="matrix(1 0 0 1 25.92 16.2)">
                            <g >
                                <text  fill="#FFFFFF" font-size="3.3408" font-family="OCRA">MOTOR</text>
                            </g>
                        </g>
                    </g>
                    <g >
                        <title >text:A</title>
                        <g  transform="matrix(1 0 0 1 24.48 3.6)">
                            <g >
                                <text  fill="#FFFFFF" font-size="2.6726" font-family="OCRA">A</text>
                            </g>
                        </g>
                    </g>
                    <g >
                        <title >text:B</title>
                        <g  transform="matrix(1 0 0 1 38.88 3.6)">
                            <g >
                                <text  fill="#FFFFFF" font-size="2.6726" font-family="OCRA">B</text>
                            </g>
                        </g>
                    </g>
                    <g >
                        <title >text:+5V</title>
                        <g  transform="matrix(1 0 0 1 3.24 3.6)">
                            <g >
                                <text  fill="#FFFFFF" font-size="2.6726" font-family="OCRA">+5V</text>
                            </g>
                        </g>
                    </g>
                    <g >
                        <title >text:GND</title>
                        <g  transform="matrix(1 0 0 1 18.72 56.16)">
                            <g >
                                <text  fill="#FFFFFF" font-size="2.6726" font-family="OCRA">GND</text>
                            </g>
                        </g>
                    </g>
                    <g >
                        <title >text:+5V</title>
                        <g  transform="matrix(1 0 0 1 25.56 56.16)">
                            <g >
                                <text  fill="#FFFFFF" font-size="2.6726" font-family="OCRA">+5V</text>
                            </g>
                        </g>
                    </g>
                    <g >
                        <title >text:GND</title>
                        <g  transform="matrix(1 0 0 1 112.32 56.16)">
                            <g >
                                <text  fill="#FFFFFF" font-size="2.6726" font-family="OCRA">GND</text>
                            </g>
                        </g>
                    </g>
                    <g >
                        <title >text:CUR</title>
                        <g  transform="matrix(1 0 0 1 21.6 28.08)">
                            <g >
                                <text  fill="#FFFFFF" font-size="2.6726" font-family="OCRA">CUR</text>
                            </g>
                        </g>
                    </g>
                    <g >
                        <title >text:MS1</title>
                        <g  transform="matrix(1 0 0 1 61.92 56.16)">
                            <g >
                                <text  fill="#FFFFFF" font-size="2.6726" font-family="OCRA">MS1</text>
                            </g>
                        </g>
                    </g>
                    <g >
                        <title >text:SLP</title>
                        <g  transform="matrix(1 0 0 1 54.72 56.16)">
                            <g >
                                <text  fill="#FFFFFF" font-size="2.6726" font-family="OCRA">SLP</text>
                            </g>
                        </g>
                    </g>
                    <g >
                        <title >text:PFD</title>
                        <g  transform="matrix(1 0 0 1 54.72 3.6)">
                            <g >
                                <text  fill="#FFFFFF" font-size="2.6726" font-family="OCRA">PFD</text>
                            </g>
                        </g>
                    </g>
                    <g >
                        <title >text:RST</title>
                        <g  transform="matrix(1 0 0 1 61.92 3.6)">
                            <g >
                                <text  fill="#FFFFFF" font-size="2.6726" font-family="OCRA">RST</text>
                            </g>
                        </g>
                    </g>
                    <g >
                        <title >text:ENABLE</title>
                        <g  transform="matrix(1 0 0 1 84.24 3.6)">
                            <g >
                                <text  fill="#FFFFFF" font-size="2.6726" font-family="OCRA">ENABLE</text>
                            </g>
                        </g>
                    </g>
                    <g >
                        <title >text:MS2</title>
                        <g  transform="matrix(1 0 0 1 97.92 3.6)">
                            <g >
                                <text  fill="#FFFFFF" font-size="2.6726" font-family="OCRA">MS2</text>
                            </g>
                        </g>
                    </g>
                    <g >
                        <title >text:APWR</title>
                        <g  transform="matrix(1 0 0 1 37.44 56.16)">
                            <g >
                                <text  fill="#FFFFFF" font-size="2.6726" font-family="OCRA">APWR</text>
                            </g>
                        </g>
                    </g>
                    <g >
                        <title >text:PWR IN</title>
                        <g  transform="matrix(1 0 0 1 120.24 15.48)">
                            <g >
                                <text  fill="#FFFFFF" font-size="2.6726" font-family="OCRA">PWR IN</text>
                            </g>
                        </g>
                    </g>
                    <g >
                        <title >text:SchmalzHaus.com/</title>
                        <g  transform="matrix(1 0 0 1 77.4 51.48)">
                            <g >
                                <text  fill="#FFFFFF" font-size="2.6726" font-family="OCRA">SchmalzHaus.com/</text>
                            </g>
                        </g>
                    </g>
                    <g >
                        <title >text:3/5V</title>
                        <g  transform="matrix(1 0 0 1 6.84 56.16)">
                            <g >
                                <text  fill="#FFFFFF" font-size="2.6726" font-family="OCRA">3/5V</text>
                            </g>
                        </g>
                    </g>
                    <g >
                        <title >text:v44</title>
                        <g  transform="matrix(1 0 0 1 100.8 45.36)">
                            <g >
                                <text  fill="#FFFFFF" font-size="2.6726" font-family="OCRA">v45</text>
                            </g>
                        </g>
                    </g>
                    <g >
                        <title >text:TP1</title>
                        <g  transform="matrix(1 0 0 1 21.6 23.04)">
                            <g >
                                <text  fill="#FFFFFF" font-size="3.3408" font-family="OCRA">TP1</text>
                            </g>
                        </g>
                    </g>
                    <g >
                        <title >text:ADJ</title>
                        <g  transform="matrix(1 0 0 1 30.6 28.08)">
                            <g >
                                <text  fill="#FFFFFF" font-size="2.6726" font-family="OCRA">ADJ</text>
                            </g>
                        </g>
                    </g>
                    <g >
                        <title >element:C1</title>
                        <g >
                            <title >package:0603</title>
                        </g>
                    </g>
                    <g >
                        <title >element:C2</title>
                        <g >
                            <title >package:C0603</title>
                        </g>
                    </g>
                    <g >
                        <title >element:C3</title>
                        <g >
                            <title >package:PANASONIC_D</title>
                            <line stroke-linecap="round"  fill="none" y1="38" y2="38" x1="123.3" x2="116.8" stroke="#FFFFFF" stroke-width="0.288"/>
                            <line stroke-linecap="round"  fill="none" y1="38" y2="24.4" x1="116.8" x2="116.8" stroke="#FFFFFF" stroke-width="0.288"/>
                            <line stroke-linecap="round"  fill="none" y1="24.4" y2="19.6" x1="116.8" x2="121.6" stroke="#FFFFFF" stroke-width="0.288"/>
                            <line stroke-linecap="round"  fill="none" y1="19.6" y2="19.6" x1="121.6" x2="123.3" stroke="#FFFFFF" stroke-width="0.288"/>
                            <line stroke-linecap="round"  fill="none" y1="19.6" y2="19.6" x1="128.7" x2="130.4" stroke="#FFFFFF" stroke-width="0.288"/>
                            <line stroke-linecap="round"  fill="none" y1="19.6" y2="24.4" x1="130.4" x2="135.2" stroke="#FFFFFF" stroke-width="0.288"/>
                            <line stroke-linecap="round"  fill="none" y1="24.4" y2="38" x1="135.2" x2="135.2" stroke="#FFFFFF" stroke-width="0.288"/>
                            <line stroke-linecap="round"  fill="none" y1="38" y2="38" x1="135.2" x2="128.7" stroke="#FFFFFF" stroke-width="0.288"/>
                            <path  fill="none" stroke="#FFFFFF" d="M123.3,20.4c-4.6,1.5-7.2,6.4-5.7,11.1c0.9,2.7,3,4.8,5.7,5.7" stroke-width="0.288"/>
                            <path  fill="none" stroke="#FFFFFF" d="M128.7,37.2c4.6-1.5,7.2-6.4,5.7-11.1c-0.9-2.7-3-4.8-5.7-5.7" stroke-width="0.288"/>
                        </g>
                    </g>
                    <g >
                        <title >element:C4</title>
                        <g >
                            <title >package:C0402</title>
                        </g>
                    </g>
                    <g >
                        <title >element:C5</title>
                        <g >
                            <title >package:C0402</title>
                        </g>
                    </g>
                    <g >
                        <title >element:IC1</title>
                        <g >
                            <title >package:SO24W</title>
                        </g>
                    </g>
                    <g >
                        <title >element:IC2</title>
                        <g >
                            <title >package:SOT223</title>
                            <line stroke-linecap="round"  fill="none" y1="20.2" y2="30.2" x1="20.1" x2="20.1" stroke="#FFFFFF" stroke-width="0.576"/>
                            <line stroke-linecap="round"  fill="none" y1="30.2" y2="30.2" x1="20.1" x2="1.5" stroke="#FFFFFF" stroke-width="0.576"/>
                            <line stroke-linecap="round"  fill="none" y1="30.2" y2="20.2" x1="1.5" x2="1.5" stroke="#FFFFFF" stroke-width="0.576"/>
                            <line stroke-linecap="round"  fill="none" y1="20.2" y2="20.2" x1="1.5" x2="20.1" stroke="#FFFFFF" stroke-width="0.576"/>
                        </g>
                    </g>
                    <g >
                        <title >element:JP1</title>
                        <g >
                            <title >package:1X02_NO_SILK</title>
                        </g>
                    </g>
                    <g >
                        <title >element:JP2</title>
                        <g >
                            <title >package:1X03_NO_SILK</title>
                        </g>
                    </g>
                    <g >
                        <title >element:JP3</title>
                        <g >
                            <title >package:1X04_NO_SILK</title>
                        </g>
                    </g>
                    <g >
                        <title >element:JP4</title>
                        <g >
                            <title >package:1X02_NO_SILK</title>
                        </g>
                    </g>
                    <g >
                        <title >element:JP5</title>
                        <g >
                            <title >package:1X02_NO_SILK</title>
                        </g>
                    </g>
                    <g >
                        <title >element:JP6</title>
                        <g >
                            <title >package:1X02_NO_SILK</title>
                        </g>
                    </g>
                    <g >
                        <title >element:JP7</title>
                        <g >
                            <title >package:1X02_NO_SILK</title>
                        </g>
                    </g>
                    <g >
                        <title >element:JP8</title>
                        <g >
                            <title >package:STAND-OFF</title>
                        </g>
                    </g>
                    <g >
                        <title >element:JP9</title>
                        <g >
                            <title >package:STAND-OFF</title>
                        </g>
                    </g>
                    <g >
                        <title >element:PWR_LED</title>
                        <g >
                            <title >package:LED-0603</title>
                            <line stroke-linecap="round"  fill="none" y1="7.7" y2="7.7" x1="5.9" x2="7.2" stroke="#FFFFFF" stroke-width="0.576"/>
                            <line stroke-linecap="round"  fill="none" y1="7.7" y2="7.7" x1="8.5" x2="7.2" stroke="#FFFFFF" stroke-width="0.576"/>
                            <line stroke-linecap="round"  fill="none" y1="7.7" y2="6.8" x1="7.2" x2="6.3" stroke="#FFFFFF" stroke-width="0.576"/>
                            <line stroke-linecap="round"  fill="none" y1="7.7" y2="6.8" x1="7.2" x2="8.1" stroke="#FFFFFF" stroke-width="0.576"/>
                            <line stroke-linecap="round"  fill="none" y1="6.8" y2="6.8" x1="8.1" x2="6.3" stroke="#FFFFFF" stroke-width="0.576"/>
                        </g>
                    </g>
                    <g >
                        <title >element:R1</title>
                        <g >
                            <title >package:R0805</title>
                        </g>
                    </g>
                    <g >
                        <title >element:R2</title>
                        <g >
                            <title >package:R0805</title>
                        </g>
                    </g>
                    <g >
                        <title >element:R3</title>
                        <g >
                            <title >package:C0402</title>
                        </g>
                    </g>
                    <g >
                        <title >element:R4</title>
                        <g >
                            <title >package:C0402</title>
                        </g>
                    </g>
                    <g >
                        <title >element:R5</title>
                        <g >
                            <title >package:C0402</title>
                        </g>
                    </g>
                    <g >
                        <title >element:R6</title>
                        <g >
                            <title >package:C0402</title>
                        </g>
                    </g>
                    <g >
                        <title >element:R7</title>
                        <g >
                            <title >package:C0402</title>
                        </g>
                    </g>
                    <g >
                        <title >element:R8</title>
                        <g >
                            <title >package:C0402</title>
                        </g>
                    </g>
                    <g >
                        <title >element:R9</title>
                        <g >
                            <title >package:C0402</title>
                        </g>
                    </g>
                    <g >
                        <title >element:R10</title>
                        <g >
                            <title >package:C0402</title>
                        </g>
                    </g>
                    <g >
                        <title >element:R11</title>
                        <g >
                            <title >package:C0402</title>
                        </g>
                    </g>
                    <g >
                        <title >element:R12</title>
                        <g >
                            <title >package:C0402</title>
                        </g>
                    </g>
                    <g >
                        <title >element:R13</title>
                        <g >
                            <title >package:C0402</title>
                        </g>
                    </g>
                    <g >
                        <title >element:R14</title>
                        <g >
                            <title >package:C0402</title>
                        </g>
                    </g>
                    <g >
                        <title >element:R15</title>
                        <g >
                            <title >package:C0402</title>
                        </g>
                    </g>
                    <g >
                        <title >element:R16</title>
                        <g >
                            <title >package:TRIMPOT-3MM</title>
                            <line stroke-linecap="round"  fill="none" y1="29.7" y2="29.7" x1="26" x2="24.3" stroke="#FFFFFF" stroke-width="0.576"/>
                            <line stroke-linecap="round"  fill="none" y1="29.7" y2="38.7" x1="24.3" x2="24.3" stroke="#FFFFFF" stroke-width="0.576"/>
                            <line stroke-linecap="round"  fill="none" y1="29.7" y2="29.7" x1="31.6" x2="33.3" stroke="#FFFFFF" stroke-width="0.576"/>
                            <line stroke-linecap="round"  fill="none" y1="29.7" y2="38.7" x1="33.3" x2="33.3" stroke="#FFFFFF" stroke-width="0.576"/>
                        </g>
                    </g>
                    <g >
                        <title >element:R17</title>
                        <g >
                            <title >package:C0402</title>
                        </g>
                    </g>
                    <g >
                        <title >element:SJ1</title>
                        <g >
                            <title >package:SJ_2S-TRACE</title>
                            <line stroke-linecap="round"  fill="none" y1="53.3" y2="53.3" x1="43.7" x2="39.1" stroke="#FFFFFF" stroke-width="0.576"/>
                            <path  fill="none" stroke="#FFFFFF" d="M44.5,48.2c0-0.4-0.3-0.7-0.7-0.7" stroke-width="0.576"/>
                            <path  fill="none" stroke="#FFFFFF" d="M39.1,47.5c-0.4,0-0.7,0.3-0.7,0.7c0,0,0,0,0,0" stroke-width="0.576"/>
                            <path  fill="none" stroke="#FFFFFF" d="M38.3,52.6c0,0.4,0.3,0.7,0.7,0.7" stroke-width="0.576"/>
                            <path  fill="none" stroke="#FFFFFF" d="M43.7,53.3c0.4,0,0.7-0.3,0.7-0.7" stroke-width="0.576"/>
                            <line stroke-linecap="round"  fill="none" y1="47.5" y2="47.5" x1="39.1" x2="43.7" stroke="#FFFFFF" stroke-width="0.576"/>
                        </g>
                    </g>
                    <g >
                        <title >element:SJ2</title>
                        <g >
                            <title >package:SJ_2S-NO</title>
                            <line stroke-linecap="round"  fill="none" y1="57.6" y2="57.6" x1="5.5" x2="1" stroke="#FFFFFF" stroke-width="0.576"/>
                            <path  fill="none" stroke="#FFFFFF" d="M6.1,52.7c0.1-0.4-0.2-0.8-0.6-0.9" stroke-width="0.576"/>
                            <path  fill="none" stroke="#FFFFFF" d="M1,51.9c-0.4,0.1-0.6,0.5-0.6,0.9" stroke-width="0.576"/>
                            <path  fill="none" stroke="#FFFFFF" d="M0.4,56.7c-0.1,0.4,0.2,0.8,0.6,0.9" stroke-width="0.576"/>
                            <path  fill="none" stroke="#FFFFFF" d="M5.5,57.6c0.4-0.1,0.6-0.5,0.6-0.9" stroke-width="0.576"/>
                            <line stroke-linecap="round"  fill="none" y1="51.9" y2="51.9" x1="1" x2="5.5" stroke="#FFFFFF" stroke-width="0.576"/>
                        </g>
                    </g>
                    <g >
                        <title >element:TP1</title>
                        <g >
                            <title >package:P1-13</title>
                        </g>
                    </g>
                    <g >
                        <title >element:U$1</title>
                        <g >
                            <title >package:SCHMALZHAUS_SMALL</title>
                            <line stroke-linecap="round"  fill="none" y1="36.7" y2="33.5" x1="106.6" x2="106.6" stroke="#FFFFFF" stroke-width="0.576"/>
                            <line stroke-linecap="round"  fill="none" y1="33.5" y2="31.3" x1="106.6" x2="106.6" stroke="#FFFFFF" stroke-width="0.576"/>
                            <line stroke-linecap="round"  fill="none" y1="31.3" y2="31.3" x1="106.6" x2="113.4" stroke="#FFFFFF" stroke-width="0.576"/>
                            <line stroke-linecap="round"  fill="none" y1="31.3" y2="30.2" x1="113.4" x2="113.4" stroke="#FFFFFF" stroke-width="0.576"/>
                            <line stroke-linecap="round"  fill="none" y1="30.2" y2="30.2" x1="113.4" x2="113.8" stroke="#FFFFFF" stroke-width="0.576"/>
                            <line stroke-linecap="round"  fill="none" y1="30.2" y2="33.5" x1="113.8" x2="113.8" stroke="#FFFFFF" stroke-width="0.576"/>
                            <line stroke-linecap="round"  fill="none" y1="33.5" y2="36.7" x1="113.8" x2="113.8" stroke="#FFFFFF" stroke-width="0.576"/>
                            <line stroke-linecap="round"  fill="none" y1="36.7" y2="36.7" x1="113.8" x2="110.5" stroke="#FFFFFF" stroke-width="0.576"/>
                            <line stroke-linecap="round"  fill="none" y1="36.7" y2="36.7" x1="110.5" x2="106.6" stroke="#FFFFFF" stroke-width="0.576"/>
                            <line stroke-linecap="round"  fill="none" y1="33.5" y2="31.7" x1="106.6" x2="108.4" stroke="#FFFFFF" stroke-width="0.576"/>
                            <line stroke-linecap="round"  fill="none" y1="31.7" y2="33.5" x1="108.4" x2="110.2" stroke="#FFFFFF" stroke-width="0.576"/>
                            <line stroke-linecap="round"  fill="none" y1="33.5" y2="33.5" x1="110.2" x2="113.8" stroke="#FFFFFF" stroke-width="0.576"/>
                            <line stroke-linecap="round"  fill="none" y1="36.4" y2="34.9" x1="109.8" x2="109.8" stroke="#FFFFFF" stroke-width="0.576"/>
                            <line stroke-linecap="round"  fill="none" y1="34.9" y2="34.9" x1="109.8" x2="110.5" stroke="#FFFFFF" stroke-width="0.576"/>
                            <line stroke-linecap="round"  fill="none" y1="34.9" y2="36.7" x1="110.5" x2="110.5" stroke="#FFFFFF" stroke-width="0.576"/>
                        </g>
                    </g>
                    <g >
                        <title >element:U$2</title>
                        <g >
                            <title >package:SFE-NEW-WEBLOGO</title>
                        </g>
                    </g>
                    <path stroke-linecap="round"  fill="none" stroke="#FFFFFF" d="M43.4,37.6c0,0-2.8-3.6-5.6-1.2c0,0-1.3,1.5-1.4,2.9" stroke-width="0.5" stroke-miterlimit="10"/>
                    <line stroke-linecap="round"  fill="none" y1="38.7" y2="40.3" x1="39.9" x2="39.9" stroke="#FFFFFF" stroke-width="0.5" stroke-miterlimit="10"/>
                    <line stroke-linecap="round"  fill="none" y1="39.5" y2="39.5" x1="40.7" x2="39.1" stroke="#FFFFFF" stroke-width="0.5" stroke-miterlimit="10"/>
                </g>
                <rect y="19.6" fill-opacity="0.15" height="18.4"  fill="#FFFFFF" width="18.4" x="116.8"/>
                <rect y="18" height="21.6"  fill="#333333" width="43.2" x="54"/>
                <rect y="20.2" height="10.1"  fill="#333333" width="18.6" x="1.5"/>
                <rect y="6.8" fill-opacity="0.15" height="0.9"  fill="#FFFFFF" width="2.6" x="5.9"/>
                <rect y="29.7" fill-opacity="0.15" height="9.1"  fill="#FFFFFF" width="9.1" x="24.3"/>
                <rect y="47.5" fill-opacity="0.15" height="5.8"  fill="#FFFFFF" width="6.1" x="38.3"/>
                <rect y="51.9" fill-opacity="0.15" height="5.7"  fill="#FFFFFF" width="5.7" x="0.4"/>
                <circle id="connector38pin"  fill="none" cx="122.4" cy="7.2" r="2.1" stroke="#9A916C" stroke-width="1.224" gorn="0.1.0.0.9"/>
                <circle id="connector39pin"  fill="none" cx="129.6" cy="7.2" r="2.1" stroke="#9A916C" stroke-width="1.224" gorn="0.1.0.0.10"/>
                <circle id="connector40pin"  fill="none" cx="115.2" cy="50.4" r="2.1" stroke="#9A916C" stroke-width="1.224" gorn="0.1.0.0.11"/>
                <circle id="connector41pin"  fill="none" cx="122.4" cy="50.4" r="2.1" stroke="#9A916C" stroke-width="1.224" gorn="0.1.0.0.12"/>
                <circle id="connector42pin"  fill="none" cx="129.6" cy="50.4" r="2.1" stroke="#9A916C" stroke-width="1.224" gorn="0.1.0.0.13"/>
                <circle id="connector43pin"  fill="none" cx="21.6" cy="7.2" r="2.1" stroke="#9A916C" stroke-width="1.224" gorn="0.1.0.0.14"/>
                <rect y="5.1" height="4.1"  fill="none" stroke="#9A916C" stroke-width="1.224" width="4.1" x="19.5"/>
                <circle id="connector44pin"  fill="none" cx="28.8" cy="7.2" r="2.1" stroke="#9A916C" stroke-width="1.224" gorn="0.1.0.0.16"/>
                <circle id="connector45pin"  fill="none" cx="36" cy="7.2" r="2.1" stroke="#9A916C" stroke-width="1.224" gorn="0.1.0.0.17"/>
                <circle id="connector46pin"  fill="none" cx="43.2" cy="7.2" r="2.1" stroke="#9A916C" stroke-width="1.224" gorn="0.1.0.0.18"/>
                <circle id="connector47pin"  fill="none" cx="28.8" cy="50.4" r="2.1" stroke="#9A916C" stroke-width="1.224" gorn="0.1.0.0.19"/>
                <circle id="connector48pin"  fill="none" cx="21.6" cy="50.4" r="2.1" stroke="#9A916C" stroke-width="1.224" gorn="0.1.0.0.20"/>
                <circle id="connector49pin"  fill="none" cx="64.8" cy="50.4" r="2.1" stroke="#9A916C" stroke-width="1.224" gorn="0.1.0.0.21"/>
                <circle id="connector50pin"  fill="none" cx="57.6" cy="50.4" r="2.1" stroke="#9A916C" stroke-width="1.224" gorn="0.1.0.0.22"/>
                <circle id="connector51pin"  fill="none" cx="93.6" cy="7.2" r="2.1" stroke="#9A916C" stroke-width="1.224" gorn="0.1.0.0.23"/>
                <circle id="connector52pin"  fill="none" cx="100.8" cy="7.2" r="2.1" stroke="#9A916C" stroke-width="1.224" gorn="0.1.0.0.24"/>
                <circle id="connector53pin"  fill="none" cx="57.6" cy="7.2" r="2.1" stroke="#9A916C" stroke-width="1.224" gorn="0.1.0.0.25"/>
                <circle id="connector54pin"  fill="none" cx="64.8" cy="7.2" r="2.1" stroke="#9A916C" stroke-width="1.224" gorn="0.1.0.0.26"/>
            </g>
        </g>
    </g>
</svg>
