<?xml version='1.0' encoding='UTF-8' standalone='no'?>
<!-- Created with Inkscape (http://www.inkscape.org/) -->
<svg xmlns="http://www.w3.org/2000/svg" viewBox="0 0 43.391602 13.1586" width="43.391602mm" height="13.1586mm" gorn="0"  id="svg8" version="1.1">
    <desc >
        <referenceFile >hc-sr04red.svg</referenceFile>
    </desc>
    <defs  id="defs2"/>
    <metadata  id="metadata5">
        <rdf:RDF xmlns:rdf="http://www.w3.org/1999/02/22-rdf-syntax-ns#">
            <cc:Work rdf:about="" xmlns:cc="http://creativecommons.org/ns#" xmlns:rdf="http://www.w3.org/1999/02/22-rdf-syntax-ns#">
                <dc:format xmlns:dc="http://purl.org/dc/elements/1.1/">image/svg+xml</dc:format>
                <dc:type xmlns:rdf="http://www.w3.org/1999/02/22-rdf-syntax-ns#" rdf:resource="http://purl.org/dc/dcmitype/StillImage" xmlns:dc="http://purl.org/dc/elements/1.1/"/>
                <dc:title xmlns:dc="http://purl.org/dc/elements/1.1/"/>
            </cc:Work>
        </rdf:RDF>
    </metadata>
    <g transform="translate(0,-283.8414)" >
        <g >
            <g >
                <g gorn="0.3.0.0.0"  id="layer1">
                    <g transform="matrix(0.35277777,0,0,-0.35277777,-1.1191068,14.417831)" >
                        <g >
                            <g >
                                <g gorn="0.3.0.0.0.0.0.0.0"  id="g4493">
                                    <path d="M 3.1722712,-776.32934 H 126.17127 v 3.186 H 3.1722712 Z" stroke="none" gorn="0.3.0.0.0.0.0.0.0.0"  id="path4495" fill="#ec1c24" fill-opacity="1" style="fill-rule:nonzero;"/>
                                    <path d="m 59.590271,-768.34234 h 2.171 v 4.522 h -2.171 z" stroke="none" gorn="0.3.0.0.0.0.0.0.0.1"  id="connector9" fill="#b8af82" fill-opacity="1" style="fill-rule:nonzero;"/>
                                    <path d="m 66.971271,-768.34234 h 2.172 v 4.522 h -2.172 z" stroke="none" gorn="0.3.0.0.0.0.0.0.0.2"  id="connector10" fill="#b8af82" fill-opacity="1" style="fill-rule:nonzero;"/>
                                    <path d="m 74.190271,-768.34234 h 2.171 v 4.522 h -2.171 z" stroke="none" gorn="0.3.0.0.0.0.0.0.0.3"  id="connector11" fill="#b8af82" fill-opacity="1" style="fill-rule:nonzero;"/>
                                    <path d="m 52.530271,-768.34234 h 2.172 v 4.522 h -2.172 z" stroke="none" gorn="0.3.0.0.0.0.0.0.0.4"  id="connector8" fill="#b8af82" fill-opacity="1" style="fill-rule:nonzero;"/>
                                    <path d="m 80.422271,-773.36834 h -31.5 v 7.286 h 31.5 z" stroke="none" gorn="0.3.0.0.0.0.0.0.0.5"  id="path4505" fill="#000000" fill-opacity="1" style="fill-rule:nonzero;"/>
                                    <path d="m 51.804271,-768.17834 h 3.698 v -3.697 h -3.698 z" stroke="none" gorn="0.3.0.0.0.0.0.0.0.6"  id="path4507" fill="#b8af82" fill-opacity="1" style="fill-rule:nonzero;"/>
                                    <path d="m 58.962271,-768.17834 h 3.697 v -3.697 h -3.697 z" stroke="none" gorn="0.3.0.0.0.0.0.0.0.7"  id="path4509" fill="#b8af82" fill-opacity="1" style="fill-rule:nonzero;"/>
                                    <path d="m 66.333271,-768.17834 h 3.696 v -3.697 h -3.696 z" stroke="none" gorn="0.3.0.0.0.0.0.0.0.8"  id="path4511" fill="#b8af82" fill-opacity="1" style="fill-rule:nonzero;"/>
                                    <path d="m 73.487271,-768.17834 h 3.697 v -3.697 h -3.697 z" stroke="none" gorn="0.3.0.0.0.0.0.0.0.9"  id="path4513" fill="#b8af82" fill-opacity="1" style="fill-rule:nonzero;"/>
                                    <path d="M 7.8302713,-801.02034 H 52.607271 v 25.021 H 7.8302713 Z" stroke="none" gorn="0.3.0.0.0.0.0.0.0.10"  id="path4515" fill="#8c8c8c" fill-opacity="1" style="fill-rule:nonzero;"/>
                                    <path d="m 76.224271,-801.02034 h 44.777999 v 24.942 H 76.224271 Z" stroke="none" gorn="0.3.0.0.0.0.0.0.0.11"  id="path4517" fill="#8c8c8c" fill-opacity="1" style="fill-rule:nonzero;"/>
                                    <g transform="translate(3.1722712,-801.02034)" >
                                        <g >
                                            <g >
                                                <g gorn="0.3.0.0.0.0.0.0.0.12.0.0.0"  id="g4519">
                                                    <g gorn="0.3.0.0.0.0.0.0.0.12.0.0.0.0"  id="g4521" clip-path="url(#clipPath4525)">
                                                        <g transform="translate(50.8673,20.813)" >
                                                            <g >
                                                                <g >
                                                                    <g gorn="0.3.0.0.0.0.0.0.0.12.0.0.0.0.0.0.0.0"  id="g4527">
                                                                        <path d="M 0,0 C 0.024,-0.004 0.049,-0.014 0.078,-0.025 0.105,-0.037 0.137,-0.045 0.169,-0.06 0.201,-0.075 0.228,-0.085 0.245,-0.093 L 0.72,-0.277 c 0.083,-0.029 0.154,-0.057 0.219,-0.086 0.065,-0.021 0.108,-0.041 0.135,-0.053 0.024,-0.012 0.047,-0.021 0.067,-0.027 0.02,-0.008 0.04,-0.012 0.06,-0.012 0.005,0 0.018,0 0.035,0.002 0.017,0.002 0.029,0.002 0.038,0.002 h 0.29 c 0.083,0 0.138,-0.008 0.161,-0.021 C 1.775,-0.493 1.799,-0.54 1.799,-0.595 1.799,-0.632 1.788,-0.667 1.768,-0.7 1.748,-0.725 1.718,-0.745 1.683,-0.753 1.673,-0.755 1.64,-0.757 1.581,-0.757 h -0.38 c -0.074,0 -0.116,0.002 -0.127,0.006 -0.012,0.006 -0.122,0.047 -0.33,0.135 l -1.178,0.459 c -0.047,0.014 -0.085,0.035 -0.107,0.061 -0.027,0.021 -0.04,0.057 -0.04,0.098 0,0.029 0.005,0.055 0.016,0.072 0.01,0.016 0.025,0.033 0.043,0.049 0.02,0.016 0.038,0.025 0.053,0.033 0.015,0.006 0.035,0.014 0.061,0.023 0.026,0.008 0.043,0.01 0.051,0.014 L 0.742,0.625 C 0.929,0.701 1.038,0.744 1.071,0.752 1.102,0.766 1.14,0.77 1.185,0.77 1.203,0.77 1.233,0.768 1.27,0.766 1.31,0.764 1.338,0.764 1.355,0.764 H 1.577 C 1.646,0.764 1.689,0.76 1.705,0.752 1.767,0.731 1.799,0.68 1.799,0.611 1.799,0.545 1.772,0.5 1.718,0.472 1.698,0.46 1.649,0.454 1.577,0.454 H 1.321 c -0.009,0 -0.027,0 -0.051,0.002 -0.021,0 -0.041,0.002 -0.054,0.002 C 1.182,0.458 1.152,0.454 1.13,0.444 1.106,0.432 1.068,0.417 1.015,0.397 L 0.744,0.292 0.206,0.077 C 0.083,0.035 0.013,0.004 0,0" stroke="none" gorn="0.3.0.0.0.0.0.0.0.12.0.0.0.0.0.0.0.0.0"  id="path4529" fill="#000000" fill-opacity="1" style="fill-rule:nonzero;"/>
                                                                    </g>
                                                                </g>
                                                            </g>
                                                        </g>
                                                        <g transform="translate(50.6007,18.0362)" >
                                                            <g >
                                                                <g >
                                                                    <g gorn="0.3.0.0.0.0.0.0.0.12.0.0.0.0.1.0.0.0"  id="g4531">
                                                                        <path d="m 0,0 c 0,-0.07 -0.018,-0.123 -0.049,-0.15 -0.033,-0.023 -0.068,-0.037 -0.106,-0.037 -0.071,0 -0.119,0.033 -0.146,0.092 -0.009,0.021 -0.014,0.061 -0.014,0.127 v 0.197 c 0,0.025 0,0.063 -0.001,0.109 -0.002,0.053 -0.003,0.084 -0.003,0.113 0,0.146 0.024,0.254 0.073,0.33 0.049,0.07 0.131,0.139 0.242,0.189 0.112,0.055 0.258,0.127 0.44,0.221 0.174,0.098 0.318,0.141 0.431,0.141 0.068,0 0.14,-0.012 0.212,-0.037 C 1.153,1.277 1.219,1.25 1.278,1.215 1.337,1.182 1.403,1.152 1.471,1.117 L 1.737,0.982 C 1.788,0.959 1.824,0.941 1.846,0.925 1.867,0.909 1.897,0.888 1.935,0.854 1.974,0.824 2.003,0.785 2.023,0.736 2.043,0.691 2.058,0.634 2.068,0.572 V 0.424 0.149 C 2.068,0.135 2.069,0.114 2.069,0.081 2.07,0.056 2.07,0.032 2.07,0.017 c 0,-0.139 -0.052,-0.204 -0.159,-0.204 -0.045,0 -0.083,0.017 -0.114,0.048 -0.01,0.01 -0.019,0.021 -0.024,0.035 -0.006,0.016 -0.009,0.029 -0.012,0.049 -0.002,0.014 -0.003,0.027 -0.004,0.039 -10e-4,0.01 -10e-4,0.027 0,0.051 0.001,0.021 0.002,0.035 0.002,0.039 v 0.33 c 0,0.006 0,0.021 0.001,0.045 C 1.761,0.47 1.761,0.488 1.761,0.5 1.761,0.527 1.759,0.553 1.753,0.574 1.747,0.594 1.74,0.611 1.73,0.627 1.719,0.637 1.705,0.65 1.688,0.66 1.673,0.672 1.653,0.683 1.632,0.691 1.611,0.703 1.586,0.714 1.562,0.727 L 1.187,0.912 C 1.154,0.937 1.106,0.961 1.048,0.984 0.989,1.011 0.934,1.025 0.883,1.025 0.811,1.025 0.706,0.988 0.571,0.918 L 0.23,0.742 C 0.185,0.724 0.145,0.703 0.109,0.689 0.074,0.673 0.045,0.652 0.023,0.623 0.003,0.59 -0.008,0.549 -0.008,0.502 c 0,-0.01 0.001,-0.027 0.001,-0.049 0.001,-0.023 0.001,-0.041 0.001,-0.049 V 0.08 c 0,-0.01 0,-0.018 0.002,-0.035 C -0.001,0.027 0,0.011 0,0" stroke="none" gorn="0.3.0.0.0.0.0.0.0.12.0.0.0.0.1.0.0.0.0"  id="path4533" fill="#000000" fill-opacity="1" style="fill-rule:nonzero;"/>
                                                                    </g>
                                                                </g>
                                                            </g>
                                                        </g>
                                                        <g transform="translate(50.6007,15.8331)" >
                                                            <g >
                                                                <g >
                                                                    <g gorn="0.3.0.0.0.0.0.0.0.12.0.0.0.0.2.0.0.0"  id="g4535">
                                                                        <path d="m 0,0 c 0,-0.073 -0.018,-0.123 -0.049,-0.153 -0.033,-0.024 -0.068,-0.036 -0.106,-0.036 -0.071,0 -0.119,0.026 -0.146,0.092 -0.009,0.021 -0.014,0.062 -0.014,0.126 v 0.199 c 0,0.023 0,0.056 -0.001,0.109 -0.002,0.045 -0.003,0.085 -0.003,0.111 0,0.146 0.024,0.256 0.073,0.328 0.049,0.073 0.131,0.142 0.242,0.193 0.112,0.054 0.258,0.127 0.44,0.221 0.174,0.091 0.318,0.139 0.431,0.139 0.068,0 0.14,-0.011 0.212,-0.035 C 1.153,1.272 1.219,1.247 1.278,1.214 1.337,1.179 1.403,1.151 1.471,1.113 L 1.737,0.981 C 1.788,0.954 1.824,0.936 1.846,0.923 1.867,0.908 1.897,0.885 1.935,0.85 1.974,0.822 2.003,0.782 2.023,0.733 2.043,0.689 2.058,0.633 2.068,0.571 V 0.425 0.147 C 2.068,0.134 2.069,0.111 2.069,0.081 2.07,0.049 2.07,0.03 2.07,0.015 c 0,-0.138 -0.052,-0.204 -0.159,-0.204 -0.045,0 -0.083,0.013 -0.114,0.048 -0.01,0.012 -0.019,0.022 -0.024,0.037 -0.006,0.013 -0.009,0.027 -0.012,0.042 -0.002,0.018 -0.003,0.032 -0.004,0.043 -10e-4,0.013 -10e-4,0.03 0,0.051 0.001,0.018 0.002,0.033 0.002,0.039 v 0.328 c 0,0.011 0,0.025 0.001,0.046 10e-4,0.022 10e-4,0.041 10e-4,0.047 0,0.032 -0.002,0.059 -0.008,0.081 C 1.747,0.591 1.74,0.605 1.73,0.619 1.719,0.636 1.705,0.647 1.688,0.659 1.673,0.672 1.653,0.68 1.632,0.691 1.611,0.7 1.586,0.712 1.562,0.719 L 1.187,0.91 C 1.154,0.933 1.106,0.955 1.048,0.982 0.989,1.008 0.934,1.023 0.883,1.023 0.811,1.023 0.706,0.984 0.571,0.913 L 0.23,0.74 C 0.185,0.715 0.145,0.7 0.109,0.687 0.074,0.672 0.045,0.648 0.023,0.615 0.003,0.588 -0.008,0.546 -0.008,0.495 -0.008,0.488 -0.007,0.473 -0.007,0.448 -0.006,0.427 -0.006,0.412 -0.006,0.4 V 0.079 c 0,-0.011 0,-0.024 0.002,-0.038 C -0.001,0.025 0,0.012 0,0" stroke="none" gorn="0.3.0.0.0.0.0.0.0.12.0.0.0.0.2.0.0.0.0"  id="path4537" fill="#000000" fill-opacity="1" style="fill-rule:nonzero;"/>
                                                                    </g>
                                                                </g>
                                                            </g>
                                                        </g>
                                                        <g transform="translate(70.9147,20.6382)" >
                                                            <g >
                                                                <g >
                                                                    <g gorn="0.3.0.0.0.0.0.0.0.12.0.0.0.0.3.0.0.0"  id="g4539">
                                                                        <path d="M 0,0 C 0.124,0 0.187,-0.082 0.187,-0.23 0.187,-0.238 0.186,-0.253 0.186,-0.279 0.185,-0.308 0.185,-0.326 0.185,-0.33 v -0.488 h -0.481 c -0.076,0 -0.136,0.002 -0.179,0.004 -0.042,0.002 -0.094,0.016 -0.156,0.035 -0.061,0.018 -0.115,0.051 -0.16,0.094 -0.066,0.061 -0.108,0.131 -0.126,0.201 -0.02,0.072 -0.028,0.162 -0.028,0.268 0,0.09 -0.001,0.154 -0.002,0.207 -0.003,0.049 -0.003,0.092 -0.003,0.125 0,0.066 0.003,0.123 0.01,0.178 0.008,0.049 0.023,0.109 0.045,0.162 0.021,0.063 0.056,0.109 0.105,0.156 0.049,0.049 0.105,0.078 0.175,0.104 0.056,0.021 0.128,0.031 0.216,0.031 0.014,0 0.042,0 0.079,-0.002 0.036,-0.002 0.062,-0.002 0.083,-0.002 H 0.221 C 0.396,0.743 0.513,0.729 0.575,0.706 0.637,0.681 0.739,0.612 0.887,0.499 L 1.247,0.222 C 1.295,0.179 1.333,0.142 1.356,0.117 1.383,0.088 1.405,0.039 1.426,-0.028 1.447,-0.098 1.459,-0.176 1.459,-0.264 1.459,-0.276 1.458,-0.309 1.458,-0.36 1.456,-0.415 1.456,-0.45 1.456,-0.471 c 0,-0.018 0,-0.037 0.002,-0.061 0.001,-0.02 0.001,-0.035 0.001,-0.049 0,-0.16 -0.063,-0.236 -0.183,-0.236 -0.046,0 -0.087,0.016 -0.123,0.043 -0.038,0.031 -0.057,0.072 -0.063,0.117 -0.004,0.055 -0.006,0.1 -0.006,0.127 0,0.027 0.002,0.07 0.002,0.121 0.004,0.057 0.004,0.092 0.004,0.119 0,0.012 10e-4,0.025 10e-4,0.041 0.002,0.018 0.002,0.029 0.002,0.033 0,0.045 -0.007,0.078 -0.027,0.1 C 1.052,-0.1 1.025,-0.077 0.995,-0.055 L 0.589,0.261 C 0.555,0.286 0.525,0.308 0.506,0.325 0.485,0.339 0.459,0.348 0.43,0.358 0.398,0.366 0.358,0.372 0.306,0.372 H 0.223 C 0.194,0.37 0.174,0.37 0.16,0.37 h -0.433 c -0.005,0 -0.022,0 -0.055,0.002 h -0.069 c -0.061,0 -0.107,-0.012 -0.137,-0.033 -0.03,-0.021 -0.044,-0.064 -0.044,-0.125 0,-0.02 0,-0.037 0.002,-0.059 0.002,-0.018 0.002,-0.035 0.002,-0.041 v -0.332 c 0,-0.004 0,-0.018 -0.002,-0.037 0,-0.018 -0.002,-0.033 -0.002,-0.041 0,-0.037 0.006,-0.066 0.016,-0.09 0.009,-0.021 0.027,-0.037 0.052,-0.045 0.02,-0.008 0.04,-0.01 0.055,-0.012 0.016,-0.002 0.039,-0.004 0.065,-0.004 h 0.215 v 0.199 c 0,0.072 0.006,0.127 0.022,0.152 C -0.122,-0.031 -0.07,0 0,0" stroke="none" gorn="0.3.0.0.0.0.0.0.0.12.0.0.0.0.3.0.0.0.0"  id="path4541" fill="#000000" fill-opacity="1" style="fill-rule:nonzero;"/>
                                                                    </g>
                                                                </g>
                                                            </g>
                                                        </g>
                                                        <g transform="translate(69.9674,19.0264)" >
                                                            <g >
                                                                <g >
                                                                    <g gorn="0.3.0.0.0.0.0.0.0.12.0.0.0.0.4.0.0.0"  id="g4543">
                                                                        <path d="M 0,0 C 0,0.051 0.019,0.094 0.052,0.133 0.085,0.168 0.138,0.187 0.218,0.187 0.231,0.187 0.247,0.186 0.269,0.186 0.286,0.184 0.3,0.184 0.308,0.184 h 2.091 v -0.329 c 0,-0.003 10e-4,-0.013 0.003,-0.024 0.002,-0.018 0.004,-0.031 0.004,-0.041 0,-0.029 -0.009,-0.054 -0.023,-0.066 L 2.255,-0.333 0.997,-0.889 C 0.969,-0.9 0.925,-0.919 0.867,-0.943 0.81,-0.963 0.758,-0.988 0.713,-1.007 0.664,-1.028 0.63,-1.027 0.608,-1.001 H 2.16 c 0.057,0 0.094,-0.004 0.113,-0.008 0.085,-0.029 0.129,-0.086 0.129,-0.182 0,-0.045 -0.016,-0.088 -0.048,-0.127 -0.031,-0.039 -0.084,-0.063 -0.16,-0.063 -0.003,0 -0.019,0.002 -0.045,0.002 -0.026,0.002 -0.042,0.004 -0.052,0.004 H 0.003 v 0.324 c 0,0.002 0,0.014 -0.003,0.03 -0.001,0.021 -0.003,0.032 -0.003,0.043 0,0.04 0.021,0.069 0.056,0.082 0.01,0.002 0.014,0.004 0.015,0.006 -0.001,-0.002 0.21,0.093 0.638,0.278 0.426,0.191 0.647,0.287 0.66,0.295 l 0.279,0.119 c 0.094,0.043 0.146,0.066 0.154,0.068 V -0.186 H 0.247 c -0.055,0 -0.09,0.002 -0.103,0.007 -0.045,0.012 -0.08,0.031 -0.105,0.064 C 0.015,-0.078 0,-0.043 0,0" stroke="none" gorn="0.3.0.0.0.0.0.0.0.12.0.0.0.0.4.0.0.0.0"  id="path4545" fill="#000000" fill-opacity="1" style="fill-rule:nonzero;"/>
                                                                    </g>
                                                                </g>
                                                            </g>
                                                        </g>
                                                        <g transform="translate(70.3356,16.377)" >
                                                            <g >
                                                                <g >
                                                                    <g gorn="0.3.0.0.0.0.0.0.0.12.0.0.0.0.5.0.0.0"  id="g4547">
                                                                        <path d="m 0,0 c 0,0.021 -0.002,0.021 -0.002,-0.001 -0.001,-0.02 -0.001,-0.034 -0.001,-0.042 0,-0.033 0.003,-0.061 0.009,-0.079 0.006,-0.018 0.022,-0.035 0.051,-0.057 0.025,-0.014 0.058,-0.032 0.088,-0.045 0.034,-0.017 0.089,-0.042 0.168,-0.076 0.083,-0.04 0.155,-0.08 0.228,-0.117 0.131,-0.07 0.228,-0.104 0.292,-0.104 0.062,0 0.153,0.032 0.277,0.1 0.18,0.085 0.308,0.148 0.386,0.192 0.08,0.042 0.124,0.063 0.131,0.069 0.005,0.005 0.013,0.015 0.02,0.027 0.011,0.02 0.016,0.06 0.016,0.131 H 0 Z m -0.186,0.669 c 0.05,0 0.092,-0.018 0.131,-0.055 C -0.017,0.583 0.004,0.524 0.004,0.445 0.004,0.441 0.002,0.422 0.002,0.392 0,0.367 0,0.359 0,0.369 h 1.664 c 0,-0.01 0,-0.005 -10e-4,0.016 0,0.024 -0.001,0.043 -0.001,0.057 0,0.15 0.062,0.228 0.187,0.228 0.079,0 0.132,-0.039 0.167,-0.109 C 2.026,0.537 2.031,0.483 2.031,0.41 V 0.164 c 0,-0.025 0,-0.057 0.002,-0.09 10e-4,-0.035 0.002,-0.057 0.002,-0.081 0,-0.16 -0.028,-0.276 -0.089,-0.347 C 1.888,-0.427 1.783,-0.505 1.633,-0.578 L 1.269,-0.754 c -0.17,-0.098 -0.314,-0.139 -0.432,-0.139 -0.106,0 -0.228,0.032 -0.371,0.093 -0.138,0.062 -0.237,0.113 -0.293,0.154 -0.061,0.019 -0.138,0.057 -0.228,0.106 -0.093,0.047 -0.16,0.101 -0.206,0.156 -0.045,0.063 -0.073,0.12 -0.086,0.188 -0.012,0.06 -0.02,0.136 -0.02,0.23 v 0.273 c 0,0.012 0,0.03 -0.001,0.061 0,0.025 -0.001,0.049 -0.001,0.065 -0.001,0.158 0.061,0.236 0.183,0.236" stroke="none" gorn="0.3.0.0.0.0.0.0.0.12.0.0.0.0.5.0.0.0.0"  id="path4549" fill="#000000" fill-opacity="1" style="fill-rule:nonzero;"/>
                                                                    </g>
                                                                </g>
                                                            </g>
                                                        </g>
                                                        <g transform="translate(65.1979,22.7183)" >
                                                            <g >
                                                                <g >
                                                                    <g gorn="0.3.0.0.0.0.0.0.0.12.0.0.0.0.6.0.0.0"  id="g4551">
                                                                        <path d="m 0,0 c 0,-0.078 -0.021,-0.135 -0.062,-0.168 -0.04,-0.023 -0.084,-0.039 -0.125,-0.039 -0.06,0 -0.105,0.021 -0.139,0.064 -0.018,0.02 -0.028,0.045 -0.035,0.07 -0.008,0.02 -0.008,0.045 -0.008,0.066 v 0.063 0.326 h -0.652 v -0.668 c 0,-0.039 0,-0.08 0.002,-0.125 10e-4,-0.045 0.003,-0.074 0.003,-0.09 l -0.005,-0.131 c -0.001,-0.053 -0.02,-0.098 -0.059,-0.125 -0.036,-0.033 -0.076,-0.049 -0.123,-0.049 -0.022,0 -0.05,0.006 -0.078,0.018 -0.048,0.021 -0.078,0.055 -0.088,0.088 -0.012,0.039 -0.017,0.082 -0.017,0.145 V 0.756 H 1.013 V -0.555 C 1.013,-0.592 1.012,-0.619 1.008,-0.639 1.007,-0.662 0.996,-0.69 0.98,-0.723 0.966,-0.748 0.941,-0.77 0.907,-0.787 0.878,-0.799 0.853,-0.805 0.828,-0.805 c -0.045,0 -0.085,0.016 -0.122,0.049 -0.037,0.027 -0.057,0.072 -0.06,0.125 -0.003,0.02 -0.003,0.063 -0.003,0.117 l 0.003,0.229 V 0.383 H -0.003 V 0.082 c 0,-0.014 0,-0.029 0.001,-0.039 C 0,0.026 0,0.01 0,0" stroke="none" gorn="0.3.0.0.0.0.0.0.0.12.0.0.0.0.6.0.0.0.0"  id="path4553" fill="#000000" fill-opacity="1" style="fill-rule:nonzero;"/>
                                                                    </g>
                                                                </g>
                                                            </g>
                                                        </g>
                                                        <g transform="translate(64.1832,19.9703)" >
                                                            <g >
                                                                <g >
                                                                    <g gorn="0.3.0.0.0.0.0.0.0.12.0.0.0.0.7.0.0.0"  id="g4555">
                                                                        <path d="m 0,0 c 0,-0.15 -0.062,-0.225 -0.188,-0.225 -0.074,0 -0.126,0.031 -0.163,0.102 -0.011,0.025 -0.017,0.08 -0.017,0.156 v 0.256 c 0,0.021 0,0.059 -0.005,0.107 -0.002,0.055 -0.002,0.088 -0.002,0.117 0,0.068 0.005,0.131 0.019,0.176 0.006,0.053 0.023,0.096 0.045,0.127 0.02,0.041 0.049,0.082 0.082,0.119 0.036,0.043 0.076,0.084 0.122,0.137 0.086,0.105 0.162,0.174 0.225,0.213 0.064,0.037 0.162,0.055 0.298,0.055 0.073,0 0.122,0 0.15,0.002 H 0.638 C 0.759,1.342 0.854,1.324 0.914,1.287 0.976,1.248 1.047,1.182 1.138,1.078 1.163,1.043 1.19,1.015 1.215,0.986 1.242,0.957 1.266,0.925 1.286,0.898 1.309,0.863 1.328,0.832 1.346,0.8 1.362,0.773 1.374,0.739 1.386,0.696 1.396,0.661 1.401,0.62 1.401,0.579 1.401,0.573 1.4,0.563 1.4,0.536 1.4,0.507 1.399,0.485 1.399,0.475 V 0.176 C 1.399,0.156 1.4,0.129 1.402,0.102 1.404,0.067 1.406,0.041 1.406,0.02 c 0,-0.162 -0.063,-0.244 -0.189,-0.244 -0.046,0 -0.087,0.014 -0.126,0.051 -0.041,0.031 -0.058,0.088 -0.058,0.174 0,0.012 0,0.027 0.001,0.051 0,0.023 10e-4,0.039 10e-4,0.051 v 0.34 c 0,0.012 0,0.025 0.002,0.055 0,0.027 0.001,0.047 0.001,0.059 0,0.049 -0.012,0.09 -0.035,0.121 C 0.981,0.705 0.936,0.756 0.871,0.821 0.857,0.846 0.834,0.876 0.809,0.905 0.78,0.93 0.759,0.95 0.735,0.958 0.723,0.962 0.686,0.966 0.62,0.966 H 0.402 C 0.339,0.966 0.299,0.96 0.281,0.95 0.266,0.942 0.249,0.927 0.23,0.907 0.212,0.889 0.194,0.864 0.171,0.835 0.15,0.804 0.138,0.79 0.129,0.782 0.091,0.745 0.06,0.706 0.035,0.675 0.012,0.64 -0.001,0.593 -0.001,0.548 c 0,-0.021 0,-0.039 0.002,-0.063 0,-0.02 0.002,-0.031 0.002,-0.043 V 0.106 c 0,-0.018 0,-0.037 0.001,-0.059 C 0.003,0.027 0,0.014 0,0" stroke="none" gorn="0.3.0.0.0.0.0.0.0.12.0.0.0.0.7.0.0.0.0"  id="path4557" fill="#000000" fill-opacity="1" style="fill-rule:nonzero;"/>
                                                                    </g>
                                                                </g>
                                                            </g>
                                                        </g>
                                                        <g transform="translate(65.9987,19.1446)" >
                                                            <g >
                                                                <g >
                                                                    <g gorn="0.3.0.0.0.0.0.0.0.12.0.0.0.0.8.0.0.0"  id="g4559">
                                                                        <path d="M 0,0 C 0.056,0 0.102,-0.017 0.136,-0.043 0.171,-0.066 0.192,-0.095 0.2,-0.121 0.208,-0.145 0.214,-0.167 0.214,-0.194 0.214,-0.27 0.183,-0.317 0.121,-0.355 0.096,-0.373 0.04,-0.379 -0.039,-0.379 h -0.637 l 0.098,-0.105 c 0.074,-0.118 0.116,-0.189 0.132,-0.224 0.014,-0.051 0.025,-0.149 0.025,-0.303 L -0.433,-1.148 C -0.464,-1.3 -0.558,-1.414 -0.708,-1.49 c -0.034,-0.013 -0.085,-0.024 -0.153,-0.031 -0.068,-0.007 -0.147,-0.01 -0.241,-0.011 -0.09,-10e-4 -0.157,-0.004 -0.198,-0.01 -0.236,-0.018 -0.437,-0.023 -0.599,-0.023 -0.015,0 -0.028,0 -0.044,-0.001 -0.015,-10e-4 -0.027,-0.002 -0.036,-0.002 -0.081,0 -0.132,0.021 -0.162,0.063 -0.028,0.036 -0.044,0.077 -0.044,0.118 0,0.127 0.075,0.194 0.229,0.194 0.054,0 0.22,-10e-4 0.497,-0.002 0.276,-10e-4 0.412,-10e-4 0.405,-10e-4 0.014,0.023 0.036,0.032 0.072,0.032 0.036,0 0.062,10e-4 0.081,0.005 0.017,0.002 0.037,0.008 0.058,0.017 0.019,0.008 0.034,0.025 0.042,0.046 0.01,0.02 0.015,0.044 0.015,0.084 0,0.04 0,0.065 0.001,0.074 0,0.015 0.001,0.029 0.001,0.037 0,0.022 -0.003,0.041 -0.008,0.056 -0.004,0.016 -0.013,0.027 -0.022,0.04 -0.009,0.015 -0.022,0.035 -0.039,0.063 l -0.21,0.331 c -0.013,0.02 -0.021,0.026 -0.023,0.026 -0.002,0.003 -0.019,0.004 -0.045,0.004 h -0.792 c -0.01,0 -0.021,0 -0.032,-0.004 h -0.033 c -0.062,0 -0.112,0.02 -0.145,0.062 -0.035,0.04 -0.051,0.081 -0.051,0.131 0,0.047 0.016,0.092 0.05,0.131 0.03,0.036 0.086,0.058 0.16,0.058 0.014,0 0.027,0 0.046,-0.002 0.019,-0.003 0.033,-0.003 0.043,-0.003 h 1.777 c 0.01,0 0.029,0 0.05,0.003 C -0.033,-0.002 -0.015,0 0,0" stroke="none" gorn="0.3.0.0.0.0.0.0.0.12.0.0.0.0.8.0.0.0.0"  id="path4561" fill="#000000" fill-opacity="1" style="fill-rule:nonzero;"/>
                                                                    </g>
                                                                </g>
                                                            </g>
                                                        </g>
                                                        <g transform="translate(65.2155,16.3282)" >
                                                            <g >
                                                                <g >
                                                                    <g gorn="0.3.0.0.0.0.0.0.0.12.0.0.0.0.9.0.0.0"  id="g4563">
                                                                        <path d="m 0,0 c 0,0.028 -0.001,0.05 -0.003,0.064 -0.001,0.014 -0.005,0.026 -0.01,0.031 -0.004,0.01 -0.01,0.019 -0.018,0.03 -0.01,0.01 -0.02,0.021 -0.031,0.036 -0.021,0.026 -0.037,0.043 -0.048,0.054 -0.011,0.016 -0.023,0.026 -0.034,0.035 -0.012,0.009 -0.021,0.016 -0.037,0.02 -0.015,0.002 -0.034,0.004 -0.056,0.004 -0.013,0 -0.027,-0.002 -0.04,-0.002 -0.015,0 -0.026,-0.001 -0.037,-0.001 h -0.318 c -0.008,0 -0.031,0.001 -0.066,0.003 -0.036,0 -0.063,0.001 -0.078,0.001 -0.036,0 -0.063,-0.001 -0.084,-0.01 C -0.881,0.257 -0.896,0.249 -0.904,0.242 -0.913,0.235 -0.929,0.214 -0.956,0.188 -0.981,0.164 -1.001,0.137 -1.018,0.11 -1.036,0.089 -1.043,0.048 -1.043,-0.004 c 0,-0.017 0.002,-0.043 0.004,-0.075 10e-4,-0.034 0.003,-0.054 0.003,-0.068 0,-0.006 0,-0.025 -10e-4,-0.061 0,-0.032 -0.001,-0.057 -0.001,-0.07 0,-0.043 0.003,-0.073 0.01,-0.083 0.006,-0.015 0.025,-0.044 0.059,-0.088 0.022,-0.027 0.043,-0.055 0.069,-0.073 0.021,-0.021 0.056,-0.031 0.099,-0.031 0.008,0 0.021,0 0.036,0.002 0.019,0 0.031,0.001 0.041,0.001 h 0.318 c 0.015,0 0.036,-0.001 0.072,-0.003 0.032,-0.003 0.058,-0.003 0.071,-0.003 0.037,0 0.063,0.004 0.086,0.013 0.018,0.008 0.035,0.015 0.043,0.022 0.009,0.009 0.025,0.025 0.05,0.056 0.006,0.003 0.018,0.016 0.037,0.039 0.017,0.021 0.029,0.034 0.032,0.04 0.004,0.006 0.008,0.019 0.014,0.035 0.006,0.02 0.006,0.047 0.006,0.077 0,0.015 0,0.036 -0.001,0.071 -0.002,0.035 -0.003,0.06 -0.003,0.074 0,0.014 0,0.037 0.001,0.069 C 0,-0.027 0,-0.013 0,0 M 0.179,0.442 C 0.302,0.296 0.364,0.152 0.364,0.014 0.364,0.004 0.363,-0.015 0.363,-0.041 0.362,-0.074 0.361,-0.104 0.361,-0.13 c 0,-0.026 0.001,-0.054 0.002,-0.084 0,-0.027 0.001,-0.049 0.001,-0.063 0,-0.095 -0.013,-0.174 -0.033,-0.225 C 0.308,-0.559 0.266,-0.62 0.204,-0.69 0.149,-0.754 0.109,-0.797 0.083,-0.818 0.057,-0.841 0.01,-0.866 -0.052,-0.889 c -0.061,-0.02 -0.139,-0.03 -0.229,-0.03 -0.008,0 -0.034,0 -0.078,0.002 -0.044,0.001 -0.077,0.002 -0.093,0.002 h -0.281 c -0.146,0 -0.248,0.011 -0.307,0.044 -0.059,0.031 -0.137,0.104 -0.238,0.218 -0.084,0.097 -0.127,0.228 -0.127,0.389 l 0.004,0.055 v 0.215 c 0,0.093 0.012,0.17 0.032,0.223 0.021,0.056 0.065,0.119 0.129,0.194 0.065,0.083 0.13,0.138 0.197,0.173 0.07,0.037 0.164,0.054 0.29,0.054 0.02,0 0.048,-0.001 0.086,-0.002 0.037,0 0.064,-0.001 0.084,-0.001 h 0.278 c 0.079,0 0.134,-0.001 0.168,-0.006 C -0.105,0.639 -0.054,0.62 0.005,0.585 0.068,0.548 0.127,0.507 0.179,0.442" stroke="none" gorn="0.3.0.0.0.0.0.0.0.12.0.0.0.0.9.0.0.0.0"  id="path4565" fill="#000000" fill-opacity="1" style="fill-rule:nonzero;"/>
                                                                    </g>
                                                                </g>
                                                            </g>
                                                        </g>
                                                        <g transform="translate(56.6676,22.8663)" >
                                                            <g >
                                                                <g >
                                                                    <g gorn="0.3.0.0.0.0.0.0.0.12.0.0.0.0.10.0.0.0"  id="g4567">
                                                                        <path d="M 0,0 C 0,0.045 0.018,0.092 0.05,0.127 0.084,0.168 0.135,0.188 0.206,0.188 0.213,0.188 0.224,0.186 0.239,0.186 0.254,0.184 0.263,0.184 0.269,0.184 H 2.031 V 0.409 C 1.947,0.409 1.89,0.419 1.86,0.44 1.807,0.473 1.778,0.528 1.778,0.592 c 0,0.078 0.032,0.129 0.093,0.166 0.025,0.016 0.084,0.023 0.177,0.023 h 0.35 V -0.78 H 2.051 C 2.04,-0.78 2.028,-0.782 2.014,-0.784 H 1.982 c -0.076,0 -0.128,0.02 -0.157,0.059 -0.031,0.043 -0.046,0.082 -0.046,0.129 0,0.051 0.018,0.09 0.05,0.129 0.035,0.039 0.086,0.057 0.157,0.057 0.01,0 0.022,0 0.039,-0.002 h 0.007 v 0.221 H 0.27 C 0.261,-0.191 0.249,-0.193 0.233,-0.193 0.219,-0.195 0.21,-0.195 0.201,-0.195 0.132,-0.195 0.082,-0.174 0.048,-0.131 0.015,-0.094 0,-0.047 0,0" stroke="none" gorn="0.3.0.0.0.0.0.0.0.12.0.0.0.0.10.0.0.0.0"  id="path4569" fill="#000000" fill-opacity="1" style="fill-rule:nonzero;"/>
                                                                    </g>
                                                                </g>
                                                            </g>
                                                        </g>
                                                        <g transform="translate(58.4323,21.2911)" >
                                                            <g >
                                                                <g >
                                                                    <g gorn="0.3.0.0.0.0.0.0.0.12.0.0.0.0.11.0.0.0"  id="g4571">
                                                                        <path d="m 0,0 c 0,-0.055 -0.019,-0.094 -0.054,-0.133 -0.037,-0.041 -0.097,-0.059 -0.176,-0.059 -0.014,0 -0.038,0 -0.068,0.002 -0.031,0.002 -0.042,0.002 -0.032,0.002 0.048,-0.016 0.116,-0.082 0.205,-0.189 0.023,-0.029 0.045,-0.049 0.064,-0.066 0.016,-0.018 0.033,-0.043 0.044,-0.074 0.013,-0.025 0.02,-0.061 0.02,-0.098 0,-0.004 0,-0.018 -0.002,-0.031 C 0,-0.666 0,-0.677 0,-0.685 c 0,-0.029 0,-0.057 0.001,-0.084 0.001,-0.029 0.002,-0.053 0.002,-0.072 0,-0.189 -0.052,-0.328 -0.159,-0.41 -0.105,-0.08 -0.227,-0.121 -0.372,-0.121 -0.146,0 -0.22,0.063 -0.22,0.18 0,0.09 0.035,0.146 0.107,0.18 0.026,0.01 0.07,0.016 0.133,0.016 0.057,0 0.094,0.014 0.114,0.033 0.018,0.029 0.027,0.074 0.027,0.129 0,0.066 0.001,0.104 0.003,0.123 v 0.023 c 0,0.02 -0.011,0.041 -0.03,0.061 -0.021,0.025 -0.046,0.055 -0.08,0.09 l -0.283,0.334 c -0.009,0.01 -0.016,0.014 -0.016,0.016 -0.002,0.002 -0.006,0.002 -0.016,0.004 -0.009,0.002 -0.028,0.002 -0.057,0.002 -0.026,0 -0.052,0 -0.082,-0.002 -0.028,0 -0.05,-0.002 -0.065,-0.002 h -0.448 -0.051 -0.045 c -0.082,0 -0.14,0.016 -0.176,0.057 -0.033,0.037 -0.052,0.078 -0.052,0.131 0,0.045 0.017,0.088 0.048,0.125 0.033,0.035 0.07,0.057 0.116,0.061 0.025,0.004 0.066,0.004 0.12,0.004 h 0.118 c 0.052,-0.002 0.092,-0.004 0.119,-0.004 h 0.984 c 0.082,0 0.134,-0.006 0.157,-0.018 C -0.035,0.133 0,0.075 0,0" stroke="none" gorn="0.3.0.0.0.0.0.0.0.12.0.0.0.0.11.0.0.0.0"  id="path4573" fill="#000000" fill-opacity="1" style="fill-rule:nonzero;"/>
                                                                    </g>
                                                                </g>
                                                            </g>
                                                        </g>
                                                        <g transform="translate(56.6637,18.9307)" >
                                                            <g >
                                                                <g >
                                                                    <g gorn="0.3.0.0.0.0.0.0.0.12.0.0.0.0.12.0.0.0"  id="g4575">
                                                                        <path d="M 0,0 C 0,0.151 0.064,0.229 0.19,0.229 0.26,0.229 0.313,0.196 0.347,0.138 0.362,0.106 0.37,0.055 0.37,-0.021 v -0.194 h 1.031 v 0.185 c 0,0.074 0.004,0.117 0.01,0.136 0.031,0.081 0.087,0.127 0.177,0.127 0.047,0 0.087,-0.016 0.12,-0.05 C 1.74,0.156 1.759,0.119 1.768,0.071 1.77,0.055 1.772,0.023 1.772,-0.014 c 0,-0.006 0,-0.032 -0.002,-0.073 -0.001,-0.045 -0.001,-0.079 -0.001,-0.098 0,-0.023 0,-0.052 0.001,-0.086 10e-4,-0.028 0.002,-0.054 0.002,-0.072 0,-0.114 -0.037,-0.188 -0.107,-0.226 C 1.64,-0.583 1.589,-0.591 1.513,-0.591 H 0.372 V -0.78 C 0.372,-0.854 0.364,-0.907 0.35,-0.938 0.316,-0.996 0.262,-1.03 0.188,-1.03 c -0.072,0 -0.126,0.032 -0.16,0.089 -0.015,0.029 -0.023,0.08 -0.023,0.145 v 0.671 c 0,0.011 0,0.03 -0.002,0.061 C 0.002,-0.039 0.001,-0.016 0,0 M 2.529,-0.262 V -0.323 -0.371 C 2.529,-0.389 2.528,-0.397 2.525,-0.415 2.523,-0.433 2.519,-0.449 2.515,-0.467 2.512,-0.484 2.504,-0.497 2.495,-0.51 2.484,-0.525 2.471,-0.538 2.456,-0.549 2.426,-0.576 2.381,-0.592 2.322,-0.592 H 2.3 c -0.043,0 -0.079,0.001 -0.109,0.007 -0.028,0.008 -0.06,0.022 -0.092,0.047 -0.033,0.024 -0.052,0.058 -0.061,0.109 v 0.1 0.034 c 0,0.092 0.023,0.152 0.072,0.189 0.03,0.027 0.075,0.042 0.135,0.042 h 0.022 c 0.079,0 0.141,-0.013 0.188,-0.039 0.048,-0.021 0.073,-0.073 0.074,-0.159" stroke="none" gorn="0.3.0.0.0.0.0.0.0.12.0.0.0.0.12.0.0.0.0"  id="path4577" fill="#000000" fill-opacity="1" style="fill-rule:nonzero;"/>
                                                                    </g>
                                                                </g>
                                                            </g>
                                                        </g>
                                                        <g transform="translate(58.0695,16.5088)" >
                                                            <g >
                                                                <g >
                                                                    <g gorn="0.3.0.0.0.0.0.0.0.12.0.0.0.0.13.0.0.0"  id="g4579">
                                                                        <path d="m 0,0 c 0,0.033 -0.003,0.062 -0.009,0.079 -0.007,0.019 -0.023,0.044 -0.054,0.07 -0.051,0.063 -0.081,0.094 -0.091,0.1 -0.02,0.006 -0.057,0.012 -0.114,0.012 H -0.643 C -0.699,0.261 -0.736,0.257 -0.751,0.25 -0.769,0.248 -0.795,0.224 -0.829,0.181 -0.858,0.146 -0.88,0.126 -0.892,0.105 -0.904,0.085 -0.91,0.06 -0.91,0.028 v -0.134 l -0.002,-0.036 c 0,-0.052 0.006,-0.084 0.021,-0.106 0.015,-0.022 0.048,-0.058 0.099,-0.115 0.046,-0.064 0.084,-0.116 0.12,-0.15 0.038,-0.03 0.087,-0.048 0.148,-0.048 0.014,0 0.035,0.001 0.059,0.005 0.026,0.002 0.061,0.003 0.108,0.003 0.03,0 0.056,0.005 0.074,0.014 0.02,0.011 0.038,0.022 0.052,0.047 0.018,0.023 0.04,0.054 0.067,0.079 0.053,0.056 0.093,0.101 0.119,0.134 0.025,0.037 0.039,0.074 0.039,0.108 0,0.066 0.001,0.109 0.004,0.138 z m 0.363,-0.151 c 0,-0.085 -0.011,-0.156 -0.032,-0.212 -0.019,-0.056 -0.054,-0.108 -0.1,-0.161 -0.044,-0.047 -0.07,-0.06 -0.071,-0.029 0.055,0 0.1,-0.015 0.136,-0.046 0.042,-0.035 0.063,-0.081 0.063,-0.145 0,-0.075 -0.034,-0.13 -0.1,-0.162 C 0.238,-0.922 0.18,-0.928 0.092,-0.928 h -1.271 c -0.029,0 -0.068,-0.001 -0.117,-0.003 -0.05,-0.004 -0.082,-0.005 -0.1,-0.005 -0.191,0 -0.342,0.069 -0.45,0.195 -0.083,0.1 -0.136,0.175 -0.158,0.224 -0.02,0.057 -0.032,0.147 -0.032,0.278 v 0.477 c 0,0.059 0.003,0.1 0.007,0.117 0.009,0.038 0.033,0.072 0.065,0.095 0.034,0.023 0.069,0.034 0.11,0.034 0.122,0 0.184,-0.088 0.184,-0.269 v -0.399 c 0,-0.003 0,-0.017 -0.001,-0.048 -10e-4,-0.03 -0.002,-0.052 -0.002,-0.067 0,-0.023 0.002,-0.049 0.006,-0.061 0.005,-0.018 0.011,-0.031 0.021,-0.042 0.01,-0.014 0.022,-0.024 0.041,-0.048 0.021,-0.032 0.043,-0.063 0.068,-0.079 0.023,-0.02 0.06,-0.028 0.105,-0.028 0.008,0 0.02,0 0.036,0.001 0.017,0.001 0.031,0.002 0.041,0.002 h 0.282 c -0.002,-0.03 -0.025,-0.017 -0.069,0.027 -0.045,0.054 -0.078,0.108 -0.1,0.164 -0.021,0.056 -0.032,0.129 -0.032,0.217 0,0.173 0.008,0.285 0.026,0.341 0.016,0.055 0.061,0.126 0.129,0.207 0.048,0.063 0.089,0.104 0.119,0.132 0.033,0.028 0.082,0.05 0.146,0.071 0.066,0.023 0.147,0.036 0.241,0.036 0.032,0 0.065,-0.001 0.1,-0.004 0.039,-0.003 0.108,-0.003 0.215,-0.003 0.134,0 0.232,-0.019 0.295,-0.051 C 0.059,0.553 0.126,0.49 0.199,0.409 0.238,0.36 0.267,0.326 0.287,0.299 0.308,0.269 0.323,0.233 0.338,0.179 0.354,0.126 0.361,0.061 0.361,-0.012 Z" stroke="none" gorn="0.3.0.0.0.0.0.0.0.12.0.0.0.0.13.0.0.0.0"  id="path4581" fill="#000000" fill-opacity="1" style="fill-rule:nonzero;"/>
                                                                    </g>
                                                                </g>
                                                            </g>
                                                        </g>
                                                        <g transform="rotate(180,26.037186,2.8479948)" >
                                                            <g >
                                                                <g >
                                                                    <g gorn="0.3.0.0.0.0.0.0.0.12.0.0.0.0.14.0.0.0"  id="g4646">
                                                                        <path d="M 0,0 C 0.024,-0.004 0.049,-0.014 0.078,-0.025 0.105,-0.037 0.137,-0.045 0.169,-0.06 0.201,-0.075 0.228,-0.085 0.245,-0.093 L 0.72,-0.277 c 0.083,-0.029 0.154,-0.057 0.219,-0.086 0.065,-0.021 0.108,-0.041 0.135,-0.053 0.024,-0.012 0.047,-0.021 0.067,-0.027 0.02,-0.008 0.04,-0.012 0.06,-0.012 0.005,0 0.018,0 0.035,0.002 0.017,0.002 0.029,0.002 0.038,0.002 h 0.29 c 0.083,0 0.138,-0.008 0.161,-0.021 C 1.775,-0.493 1.799,-0.54 1.799,-0.595 1.799,-0.632 1.788,-0.667 1.768,-0.7 1.748,-0.725 1.718,-0.745 1.683,-0.753 1.673,-0.755 1.64,-0.757 1.581,-0.757 h -0.38 c -0.074,0 -0.116,0.002 -0.127,0.006 -0.012,0.006 -0.122,0.047 -0.33,0.135 l -1.178,0.459 c -0.047,0.014 -0.085,0.035 -0.107,0.061 -0.027,0.021 -0.04,0.057 -0.04,0.098 0,0.029 0.005,0.055 0.016,0.072 0.01,0.016 0.025,0.033 0.043,0.049 0.02,0.016 0.038,0.025 0.053,0.033 0.015,0.006 0.035,0.014 0.061,0.023 0.026,0.008 0.043,0.01 0.051,0.014 L 0.742,0.625 C 0.929,0.701 1.038,0.744 1.071,0.752 1.102,0.766 1.14,0.77 1.185,0.77 1.203,0.77 1.233,0.768 1.27,0.766 1.31,0.764 1.338,0.764 1.355,0.764 H 1.577 C 1.646,0.764 1.689,0.76 1.705,0.752 1.767,0.731 1.799,0.68 1.799,0.611 1.799,0.545 1.772,0.5 1.718,0.472 1.698,0.46 1.649,0.454 1.577,0.454 H 1.321 c -0.009,0 -0.027,0 -0.051,0.002 -0.021,0 -0.041,0.002 -0.054,0.002 C 1.182,0.458 1.152,0.454 1.13,0.444 1.106,0.432 1.068,0.417 1.015,0.397 L 0.744,0.292 0.206,0.077 C 0.083,0.035 0.013,0.004 0,0" stroke="none" gorn="0.3.0.0.0.0.0.0.0.12.0.0.0.0.14.0.0.0.0"  id="path4644" fill="#000000" fill-opacity="1" style="fill-rule:nonzero;"/>
                                                                    </g>
                                                                </g>
                                                            </g>
                                                        </g>
                                                        <g transform="rotate(180,26.170486,4.2363947)" >
                                                            <g >
                                                                <g >
                                                                    <g gorn="0.3.0.0.0.0.0.0.0.12.0.0.0.0.15.0.0.0"  id="g4650">
                                                                        <path d="m 0,0 c 0,-0.07 -0.018,-0.123 -0.049,-0.15 -0.033,-0.023 -0.068,-0.037 -0.106,-0.037 -0.071,0 -0.119,0.033 -0.146,0.092 -0.009,0.021 -0.014,0.061 -0.014,0.127 v 0.197 c 0,0.025 0,0.063 -0.001,0.109 -0.002,0.053 -0.003,0.084 -0.003,0.113 0,0.146 0.024,0.254 0.073,0.33 0.049,0.07 0.131,0.139 0.242,0.189 0.112,0.055 0.258,0.127 0.44,0.221 0.174,0.098 0.318,0.141 0.431,0.141 0.068,0 0.14,-0.012 0.212,-0.037 C 1.153,1.277 1.219,1.25 1.278,1.215 1.337,1.182 1.403,1.152 1.471,1.117 L 1.737,0.982 C 1.788,0.959 1.824,0.941 1.846,0.925 1.867,0.909 1.897,0.888 1.935,0.854 1.974,0.824 2.003,0.785 2.023,0.736 2.043,0.691 2.058,0.634 2.068,0.572 V 0.424 0.149 C 2.068,0.135 2.069,0.114 2.069,0.081 2.07,0.056 2.07,0.032 2.07,0.017 c 0,-0.139 -0.052,-0.204 -0.159,-0.204 -0.045,0 -0.083,0.017 -0.114,0.048 -0.01,0.01 -0.019,0.021 -0.024,0.035 -0.006,0.016 -0.009,0.029 -0.012,0.049 -0.002,0.014 -0.003,0.027 -0.004,0.039 -10e-4,0.01 -10e-4,0.027 0,0.051 0.001,0.021 0.002,0.035 0.002,0.039 v 0.33 c 0,0.006 0,0.021 0.001,0.045 C 1.761,0.47 1.761,0.488 1.761,0.5 1.761,0.527 1.759,0.553 1.753,0.574 1.747,0.594 1.74,0.611 1.73,0.627 1.719,0.637 1.705,0.65 1.688,0.66 1.673,0.672 1.653,0.683 1.632,0.691 1.611,0.703 1.586,0.714 1.562,0.727 L 1.187,0.912 C 1.154,0.937 1.106,0.961 1.048,0.984 0.989,1.011 0.934,1.025 0.883,1.025 0.811,1.025 0.706,0.988 0.571,0.918 L 0.23,0.742 C 0.185,0.724 0.145,0.703 0.109,0.689 0.074,0.673 0.045,0.652 0.023,0.623 0.003,0.59 -0.008,0.549 -0.008,0.502 c 0,-0.01 0.001,-0.027 0.001,-0.049 0.001,-0.023 0.001,-0.041 0.001,-0.049 V 0.08 c 0,-0.01 0,-0.018 0.002,-0.035 C -0.001,0.027 0,0.011 0,0" stroke="none" gorn="0.3.0.0.0.0.0.0.0.12.0.0.0.0.15.0.0.0.0"  id="path4648" fill="#000000" fill-opacity="1" style="fill-rule:nonzero;"/>
                                                                    </g>
                                                                </g>
                                                            </g>
                                                        </g>
                                                        <g transform="rotate(180,26.170486,5.3379449)" >
                                                            <g >
                                                                <g >
                                                                    <g gorn="0.3.0.0.0.0.0.0.0.12.0.0.0.0.16.0.0.0"  id="g4654">
                                                                        <path d="m 0,0 c 0,-0.073 -0.018,-0.123 -0.049,-0.153 -0.033,-0.024 -0.068,-0.036 -0.106,-0.036 -0.071,0 -0.119,0.026 -0.146,0.092 -0.009,0.021 -0.014,0.062 -0.014,0.126 v 0.199 c 0,0.023 0,0.056 -0.001,0.109 -0.002,0.045 -0.003,0.085 -0.003,0.111 0,0.146 0.024,0.256 0.073,0.328 0.049,0.073 0.131,0.142 0.242,0.193 0.112,0.054 0.258,0.127 0.44,0.221 0.174,0.091 0.318,0.139 0.431,0.139 0.068,0 0.14,-0.011 0.212,-0.035 C 1.153,1.272 1.219,1.247 1.278,1.214 1.337,1.179 1.403,1.151 1.471,1.113 L 1.737,0.981 C 1.788,0.954 1.824,0.936 1.846,0.923 1.867,0.908 1.897,0.885 1.935,0.85 1.974,0.822 2.003,0.782 2.023,0.733 2.043,0.689 2.058,0.633 2.068,0.571 V 0.425 0.147 C 2.068,0.134 2.069,0.111 2.069,0.081 2.07,0.049 2.07,0.03 2.07,0.015 c 0,-0.138 -0.052,-0.204 -0.159,-0.204 -0.045,0 -0.083,0.013 -0.114,0.048 -0.01,0.012 -0.019,0.022 -0.024,0.037 -0.006,0.013 -0.009,0.027 -0.012,0.042 -0.002,0.018 -0.003,0.032 -0.004,0.043 -10e-4,0.013 -10e-4,0.03 0,0.051 0.001,0.018 0.002,0.033 0.002,0.039 v 0.328 c 0,0.011 0,0.025 0.001,0.046 10e-4,0.022 10e-4,0.041 10e-4,0.047 0,0.032 -0.002,0.059 -0.008,0.081 C 1.747,0.591 1.74,0.605 1.73,0.619 1.719,0.636 1.705,0.647 1.688,0.659 1.673,0.672 1.653,0.68 1.632,0.691 1.611,0.7 1.586,0.712 1.562,0.719 L 1.187,0.91 C 1.154,0.933 1.106,0.955 1.048,0.982 0.989,1.008 0.934,1.023 0.883,1.023 0.811,1.023 0.706,0.984 0.571,0.913 L 0.23,0.74 C 0.185,0.715 0.145,0.7 0.109,0.687 0.074,0.672 0.045,0.648 0.023,0.615 0.003,0.588 -0.008,0.546 -0.008,0.495 -0.008,0.488 -0.007,0.473 -0.007,0.448 -0.006,0.427 -0.006,0.412 -0.006,0.4 V 0.079 c 0,-0.011 0,-0.024 0.002,-0.038 C -0.001,0.025 0,0.012 0,0" stroke="none" gorn="0.3.0.0.0.0.0.0.0.12.0.0.0.0.16.0.0.0.0"  id="path4652" fill="#000000" fill-opacity="1" style="fill-rule:nonzero;"/>
                                                                    </g>
                                                                </g>
                                                            </g>
                                                        </g>
                                                        <g transform="rotate(180,35.701261,2.9353948)" >
                                                            <g >
                                                                <g >
                                                                    <g gorn="0.3.0.0.0.0.0.0.0.12.0.0.0.0.17.0.0.0"  id="g4658">
                                                                        <path d="M 0,0 C 0.124,0 0.187,-0.082 0.187,-0.23 0.187,-0.238 0.186,-0.253 0.186,-0.279 0.185,-0.308 0.185,-0.326 0.185,-0.33 v -0.488 h -0.481 c -0.076,0 -0.136,0.002 -0.179,0.004 -0.042,0.002 -0.094,0.016 -0.156,0.035 -0.061,0.018 -0.115,0.051 -0.16,0.094 -0.066,0.061 -0.108,0.131 -0.126,0.201 -0.02,0.072 -0.028,0.162 -0.028,0.268 0,0.09 -0.001,0.154 -0.002,0.207 -0.003,0.049 -0.003,0.092 -0.003,0.125 0,0.066 0.003,0.123 0.01,0.178 0.008,0.049 0.023,0.109 0.045,0.162 0.021,0.063 0.056,0.109 0.105,0.156 0.049,0.049 0.105,0.078 0.175,0.104 0.056,0.021 0.128,0.031 0.216,0.031 0.014,0 0.042,0 0.079,-0.002 0.036,-0.002 0.062,-0.002 0.083,-0.002 H 0.221 C 0.396,0.743 0.513,0.729 0.575,0.706 0.637,0.681 0.739,0.612 0.887,0.499 L 1.247,0.222 C 1.295,0.179 1.333,0.142 1.356,0.117 1.383,0.088 1.405,0.039 1.426,-0.028 1.447,-0.098 1.459,-0.176 1.459,-0.264 1.459,-0.276 1.458,-0.309 1.458,-0.36 1.456,-0.415 1.456,-0.45 1.456,-0.471 c 0,-0.018 0,-0.037 0.002,-0.061 0.001,-0.02 0.001,-0.035 0.001,-0.049 0,-0.16 -0.063,-0.236 -0.183,-0.236 -0.046,0 -0.087,0.016 -0.123,0.043 -0.038,0.031 -0.057,0.072 -0.063,0.117 -0.004,0.055 -0.006,0.1 -0.006,0.127 0,0.027 0.002,0.07 0.002,0.121 0.004,0.057 0.004,0.092 0.004,0.119 0,0.012 10e-4,0.025 10e-4,0.041 0.002,0.018 0.002,0.029 0.002,0.033 0,0.045 -0.007,0.078 -0.027,0.1 C 1.052,-0.1 1.025,-0.077 0.995,-0.055 L 0.589,0.261 C 0.555,0.286 0.525,0.308 0.506,0.325 0.485,0.339 0.459,0.348 0.43,0.358 0.398,0.366 0.358,0.372 0.306,0.372 H 0.223 C 0.194,0.37 0.174,0.37 0.16,0.37 h -0.433 c -0.005,0 -0.022,0 -0.055,0.002 h -0.069 c -0.061,0 -0.107,-0.012 -0.137,-0.033 -0.03,-0.021 -0.044,-0.064 -0.044,-0.125 0,-0.02 0,-0.037 0.002,-0.059 0.002,-0.018 0.002,-0.035 0.002,-0.041 v -0.332 c 0,-0.004 0,-0.018 -0.002,-0.037 0,-0.018 -0.002,-0.033 -0.002,-0.041 0,-0.037 0.006,-0.066 0.016,-0.09 0.009,-0.021 0.027,-0.037 0.052,-0.045 0.02,-0.008 0.04,-0.01 0.055,-0.012 0.016,-0.002 0.039,-0.004 0.065,-0.004 h 0.215 v 0.199 c 0,0.072 0.006,0.127 0.022,0.152 C -0.122,-0.031 -0.07,0 0,0" stroke="none" gorn="0.3.0.0.0.0.0.0.0.12.0.0.0.0.17.0.0.0.0"  id="path4656" fill="#000000" fill-opacity="1" style="fill-rule:nonzero;"/>
                                                                    </g>
                                                                </g>
                                                            </g>
                                                        </g>
                                                        <g transform="rotate(180,36.174911,3.7412947)" >
                                                            <g >
                                                                <g >
                                                                    <g gorn="0.3.0.0.0.0.0.0.0.12.0.0.0.0.18.0.0.0"  id="g4662">
                                                                        <path d="M 0,0 C 0,0.051 0.019,0.094 0.052,0.133 0.085,0.168 0.138,0.187 0.218,0.187 0.231,0.187 0.247,0.186 0.269,0.186 0.286,0.184 0.3,0.184 0.308,0.184 h 2.091 v -0.329 c 0,-0.003 10e-4,-0.013 0.003,-0.024 0.002,-0.018 0.004,-0.031 0.004,-0.041 0,-0.029 -0.009,-0.054 -0.023,-0.066 L 2.255,-0.333 0.997,-0.889 C 0.969,-0.9 0.925,-0.919 0.867,-0.943 0.81,-0.963 0.758,-0.988 0.713,-1.007 0.664,-1.028 0.63,-1.027 0.608,-1.001 H 2.16 c 0.057,0 0.094,-0.004 0.113,-0.008 0.085,-0.029 0.129,-0.086 0.129,-0.182 0,-0.045 -0.016,-0.088 -0.048,-0.127 -0.031,-0.039 -0.084,-0.063 -0.16,-0.063 -0.003,0 -0.019,0.002 -0.045,0.002 -0.026,0.002 -0.042,0.004 -0.052,0.004 H 0.003 v 0.324 c 0,0.002 0,0.014 -0.003,0.03 -0.001,0.021 -0.003,0.032 -0.003,0.043 0,0.04 0.021,0.069 0.056,0.082 0.01,0.002 0.014,0.004 0.015,0.006 -0.001,-0.002 0.21,0.093 0.638,0.278 0.426,0.191 0.647,0.287 0.66,0.295 l 0.279,0.119 c 0.094,0.043 0.146,0.066 0.154,0.068 V -0.186 H 0.247 c -0.055,0 -0.09,0.002 -0.103,0.007 -0.045,0.012 -0.08,0.031 -0.105,0.064 C 0.015,-0.078 0,-0.043 0,0" stroke="none" gorn="0.3.0.0.0.0.0.0.0.12.0.0.0.0.18.0.0.0.0"  id="path4660" fill="#000000" fill-opacity="1" style="fill-rule:nonzero;"/>
                                                                    </g>
                                                                </g>
                                                            </g>
                                                        </g>
                                                        <g transform="rotate(180,35.990811,5.0659949)" >
                                                            <g >
                                                                <g >
                                                                    <g gorn="0.3.0.0.0.0.0.0.0.12.0.0.0.0.19.0.0.0"  id="g4666">
                                                                        <path d="m 0,0 c 0,0.021 -0.002,0.021 -0.002,-0.001 -0.001,-0.02 -0.001,-0.034 -0.001,-0.042 0,-0.033 0.003,-0.061 0.009,-0.079 0.006,-0.018 0.022,-0.035 0.051,-0.057 0.025,-0.014 0.058,-0.032 0.088,-0.045 0.034,-0.017 0.089,-0.042 0.168,-0.076 0.083,-0.04 0.155,-0.08 0.228,-0.117 0.131,-0.07 0.228,-0.104 0.292,-0.104 0.062,0 0.153,0.032 0.277,0.1 0.18,0.085 0.308,0.148 0.386,0.192 0.08,0.042 0.124,0.063 0.131,0.069 0.005,0.005 0.013,0.015 0.02,0.027 0.011,0.02 0.016,0.06 0.016,0.131 H 0 Z m -0.186,0.669 c 0.05,0 0.092,-0.018 0.131,-0.055 C -0.017,0.583 0.004,0.524 0.004,0.445 0.004,0.441 0.002,0.422 0.002,0.392 0,0.367 0,0.359 0,0.369 h 1.664 c 0,-0.01 0,-0.005 -10e-4,0.016 0,0.024 -0.001,0.043 -0.001,0.057 0,0.15 0.062,0.228 0.187,0.228 0.079,0 0.132,-0.039 0.167,-0.109 C 2.026,0.537 2.031,0.483 2.031,0.41 V 0.164 c 0,-0.025 0,-0.057 0.002,-0.09 10e-4,-0.035 0.002,-0.057 0.002,-0.081 0,-0.16 -0.028,-0.276 -0.089,-0.347 C 1.888,-0.427 1.783,-0.505 1.633,-0.578 L 1.269,-0.754 c -0.17,-0.098 -0.314,-0.139 -0.432,-0.139 -0.106,0 -0.228,0.032 -0.371,0.093 -0.138,0.062 -0.237,0.113 -0.293,0.154 -0.061,0.019 -0.138,0.057 -0.228,0.106 -0.093,0.047 -0.16,0.101 -0.206,0.156 -0.045,0.063 -0.073,0.12 -0.086,0.188 -0.012,0.06 -0.02,0.136 -0.02,0.23 v 0.273 c 0,0.012 0,0.03 -0.001,0.061 0,0.025 -0.001,0.049 -0.001,0.065 -0.001,0.158 0.061,0.236 0.183,0.236" stroke="none" gorn="0.3.0.0.0.0.0.0.0.12.0.0.0.0.19.0.0.0.0"  id="path4664" fill="#000000" fill-opacity="1" style="fill-rule:nonzero;"/>
                                                                    </g>
                                                                </g>
                                                            </g>
                                                        </g>
                                                        <g transform="rotate(180,32.1137,1.8953448)" >
                                                            <g >
                                                                <g >
                                                                    <g gorn="0.3.0.0.0.0.0.0.0.12.0.0.0.0.20.0.0.0"  id="g4670">
                                                                        <path d="m 0,0 c 0,-0.078 -0.021,-0.135 -0.062,-0.168 -0.04,-0.023 -0.084,-0.039 -0.125,-0.039 -0.06,0 -0.105,0.021 -0.139,0.064 -0.018,0.02 -0.028,0.045 -0.035,0.07 -0.008,0.02 -0.008,0.045 -0.008,0.066 v 0.063 0.326 h -0.652 v -0.668 c 0,-0.039 0,-0.08 0.002,-0.125 10e-4,-0.045 0.003,-0.074 0.003,-0.09 l -0.005,-0.131 c -0.001,-0.053 -0.02,-0.098 -0.059,-0.125 -0.036,-0.033 -0.076,-0.049 -0.123,-0.049 -0.022,0 -0.05,0.006 -0.078,0.018 -0.048,0.021 -0.078,0.055 -0.088,0.088 -0.012,0.039 -0.017,0.082 -0.017,0.145 V 0.756 H 1.013 V -0.555 C 1.013,-0.592 1.012,-0.619 1.008,-0.639 1.007,-0.662 0.996,-0.69 0.98,-0.723 0.966,-0.748 0.941,-0.77 0.907,-0.787 0.878,-0.799 0.853,-0.805 0.828,-0.805 c -0.045,0 -0.085,0.016 -0.122,0.049 -0.037,0.027 -0.057,0.072 -0.06,0.125 -0.003,0.02 -0.003,0.063 -0.003,0.117 l 0.003,0.229 V 0.383 H -0.003 V 0.082 c 0,-0.014 0,-0.029 0.001,-0.039 C 0,0.026 0,0.01 0,0" stroke="none" gorn="0.3.0.0.0.0.0.0.0.12.0.0.0.0.20.0.0.0.0"  id="path4668" fill="#000000" fill-opacity="1" style="fill-rule:nonzero;"/>
                                                                    </g>
                                                                </g>
                                                            </g>
                                                        </g>
                                                        <g transform="rotate(180,32.62105,3.2693447)" >
                                                            <g >
                                                                <g >
                                                                    <g gorn="0.3.0.0.0.0.0.0.0.12.0.0.0.0.21.0.0.0"  id="g4674">
                                                                        <path d="m 0,0 c 0,-0.15 -0.062,-0.225 -0.188,-0.225 -0.074,0 -0.126,0.031 -0.163,0.102 -0.011,0.025 -0.017,0.08 -0.017,0.156 v 0.256 c 0,0.021 0,0.059 -0.005,0.107 -0.002,0.055 -0.002,0.088 -0.002,0.117 0,0.068 0.005,0.131 0.019,0.176 0.006,0.053 0.023,0.096 0.045,0.127 0.02,0.041 0.049,0.082 0.082,0.119 0.036,0.043 0.076,0.084 0.122,0.137 0.086,0.105 0.162,0.174 0.225,0.213 0.064,0.037 0.162,0.055 0.298,0.055 0.073,0 0.122,0 0.15,0.002 H 0.638 C 0.759,1.342 0.854,1.324 0.914,1.287 0.976,1.248 1.047,1.182 1.138,1.078 1.163,1.043 1.19,1.015 1.215,0.986 1.242,0.957 1.266,0.925 1.286,0.898 1.309,0.863 1.328,0.832 1.346,0.8 1.362,0.773 1.374,0.739 1.386,0.696 1.396,0.661 1.401,0.62 1.401,0.579 1.401,0.573 1.4,0.563 1.4,0.536 1.4,0.507 1.399,0.485 1.399,0.475 V 0.176 C 1.399,0.156 1.4,0.129 1.402,0.102 1.404,0.067 1.406,0.041 1.406,0.02 c 0,-0.162 -0.063,-0.244 -0.189,-0.244 -0.046,0 -0.087,0.014 -0.126,0.051 -0.041,0.031 -0.058,0.088 -0.058,0.174 0,0.012 0,0.027 0.001,0.051 0,0.023 10e-4,0.039 10e-4,0.051 v 0.34 c 0,0.012 0,0.025 0.002,0.055 0,0.027 0.001,0.047 0.001,0.059 0,0.049 -0.012,0.09 -0.035,0.121 C 0.981,0.705 0.936,0.756 0.871,0.821 0.857,0.846 0.834,0.876 0.809,0.905 0.78,0.93 0.759,0.95 0.735,0.958 0.723,0.962 0.686,0.966 0.62,0.966 H 0.402 C 0.339,0.966 0.299,0.96 0.281,0.95 0.266,0.942 0.249,0.927 0.23,0.907 0.212,0.889 0.194,0.864 0.171,0.835 0.15,0.804 0.138,0.79 0.129,0.782 0.091,0.745 0.06,0.706 0.035,0.675 0.012,0.64 -0.001,0.593 -0.001,0.548 c 0,-0.021 0,-0.039 0.002,-0.063 0,-0.02 0.002,-0.031 0.002,-0.043 V 0.106 c 0,-0.018 0,-0.037 0.001,-0.059 C 0.003,0.027 0,0.014 0,0" stroke="none" gorn="0.3.0.0.0.0.0.0.0.12.0.0.0.0.21.0.0.0.0"  id="path4672" fill="#000000" fill-opacity="1" style="fill-rule:nonzero;"/>
                                                                    </g>
                                                                </g>
                                                            </g>
                                                        </g>
                                                        <g transform="rotate(180,31.7133,3.6821947)" >
                                                            <g >
                                                                <g >
                                                                    <g gorn="0.3.0.0.0.0.0.0.0.12.0.0.0.0.22.0.0.0"  id="g4678">
                                                                        <path d="M 0,0 C 0.056,0 0.102,-0.017 0.136,-0.043 0.171,-0.066 0.192,-0.095 0.2,-0.121 0.208,-0.145 0.214,-0.167 0.214,-0.194 0.214,-0.27 0.183,-0.317 0.121,-0.355 0.096,-0.373 0.04,-0.379 -0.039,-0.379 h -0.637 l 0.098,-0.105 c 0.074,-0.118 0.116,-0.189 0.132,-0.224 0.014,-0.051 0.025,-0.149 0.025,-0.303 L -0.433,-1.148 C -0.464,-1.3 -0.558,-1.414 -0.708,-1.49 c -0.034,-0.013 -0.085,-0.024 -0.153,-0.031 -0.068,-0.007 -0.147,-0.01 -0.241,-0.011 -0.09,-10e-4 -0.157,-0.004 -0.198,-0.01 -0.236,-0.018 -0.437,-0.023 -0.599,-0.023 -0.015,0 -0.028,0 -0.044,-0.001 -0.015,-10e-4 -0.027,-0.002 -0.036,-0.002 -0.081,0 -0.132,0.021 -0.162,0.063 -0.028,0.036 -0.044,0.077 -0.044,0.118 0,0.127 0.075,0.194 0.229,0.194 0.054,0 0.22,-10e-4 0.497,-0.002 0.276,-10e-4 0.412,-10e-4 0.405,-10e-4 0.014,0.023 0.036,0.032 0.072,0.032 0.036,0 0.062,10e-4 0.081,0.005 0.017,0.002 0.037,0.008 0.058,0.017 0.019,0.008 0.034,0.025 0.042,0.046 0.01,0.02 0.015,0.044 0.015,0.084 0,0.04 0,0.065 0.001,0.074 0,0.015 0.001,0.029 0.001,0.037 0,0.022 -0.003,0.041 -0.008,0.056 -0.004,0.016 -0.013,0.027 -0.022,0.04 -0.009,0.015 -0.022,0.035 -0.039,0.063 l -0.21,0.331 c -0.013,0.02 -0.021,0.026 -0.023,0.026 -0.002,0.003 -0.019,0.004 -0.045,0.004 h -0.792 c -0.01,0 -0.021,0 -0.032,-0.004 h -0.033 c -0.062,0 -0.112,0.02 -0.145,0.062 -0.035,0.04 -0.051,0.081 -0.051,0.131 0,0.047 0.016,0.092 0.05,0.131 0.03,0.036 0.086,0.058 0.16,0.058 0.014,0 0.027,0 0.046,-0.002 0.019,-0.003 0.033,-0.003 0.043,-0.003 h 1.777 c 0.01,0 0.029,0 0.05,0.003 C -0.033,-0.002 -0.015,0 0,0" stroke="none" gorn="0.3.0.0.0.0.0.0.0.12.0.0.0.0.22.0.0.0.0"  id="path4676" fill="#000000" fill-opacity="1" style="fill-rule:nonzero;"/>
                                                                    </g>
                                                                </g>
                                                            </g>
                                                        </g>
                                                        <g transform="rotate(180,32.1049,5.0903949)" >
                                                            <g >
                                                                <g >
                                                                    <g gorn="0.3.0.0.0.0.0.0.0.12.0.0.0.0.23.0.0.0"  id="g4682">
                                                                        <path d="m 0,0 c 0,0.028 -0.001,0.05 -0.003,0.064 -0.001,0.014 -0.005,0.026 -0.01,0.031 -0.004,0.01 -0.01,0.019 -0.018,0.03 -0.01,0.01 -0.02,0.021 -0.031,0.036 -0.021,0.026 -0.037,0.043 -0.048,0.054 -0.011,0.016 -0.023,0.026 -0.034,0.035 -0.012,0.009 -0.021,0.016 -0.037,0.02 -0.015,0.002 -0.034,0.004 -0.056,0.004 -0.013,0 -0.027,-0.002 -0.04,-0.002 -0.015,0 -0.026,-0.001 -0.037,-0.001 h -0.318 c -0.008,0 -0.031,0.001 -0.066,0.003 -0.036,0 -0.063,0.001 -0.078,0.001 -0.036,0 -0.063,-0.001 -0.084,-0.01 C -0.881,0.257 -0.896,0.249 -0.904,0.242 -0.913,0.235 -0.929,0.214 -0.956,0.188 -0.981,0.164 -1.001,0.137 -1.018,0.11 -1.036,0.089 -1.043,0.048 -1.043,-0.004 c 0,-0.017 0.002,-0.043 0.004,-0.075 10e-4,-0.034 0.003,-0.054 0.003,-0.068 0,-0.006 0,-0.025 -10e-4,-0.061 0,-0.032 -0.001,-0.057 -0.001,-0.07 0,-0.043 0.003,-0.073 0.01,-0.083 0.006,-0.015 0.025,-0.044 0.059,-0.088 0.022,-0.027 0.043,-0.055 0.069,-0.073 0.021,-0.021 0.056,-0.031 0.099,-0.031 0.008,0 0.021,0 0.036,0.002 0.019,0 0.031,0.001 0.041,0.001 h 0.318 c 0.015,0 0.036,-0.001 0.072,-0.003 0.032,-0.003 0.058,-0.003 0.071,-0.003 0.037,0 0.063,0.004 0.086,0.013 0.018,0.008 0.035,0.015 0.043,0.022 0.009,0.009 0.025,0.025 0.05,0.056 0.006,0.003 0.018,0.016 0.037,0.039 0.017,0.021 0.029,0.034 0.032,0.04 0.004,0.006 0.008,0.019 0.014,0.035 0.006,0.02 0.006,0.047 0.006,0.077 0,0.015 0,0.036 -0.001,0.071 -0.002,0.035 -0.003,0.06 -0.003,0.074 0,0.014 0,0.037 0.001,0.069 C 0,-0.027 0,-0.013 0,0 M 0.179,0.442 C 0.302,0.296 0.364,0.152 0.364,0.014 0.364,0.004 0.363,-0.015 0.363,-0.041 0.362,-0.074 0.361,-0.104 0.361,-0.13 c 0,-0.026 0.001,-0.054 0.002,-0.084 0,-0.027 0.001,-0.049 0.001,-0.063 0,-0.095 -0.013,-0.174 -0.033,-0.225 C 0.308,-0.559 0.266,-0.62 0.204,-0.69 0.149,-0.754 0.109,-0.797 0.083,-0.818 0.057,-0.841 0.01,-0.866 -0.052,-0.889 c -0.061,-0.02 -0.139,-0.03 -0.229,-0.03 -0.008,0 -0.034,0 -0.078,0.002 -0.044,0.001 -0.077,0.002 -0.093,0.002 h -0.281 c -0.146,0 -0.248,0.011 -0.307,0.044 -0.059,0.031 -0.137,0.104 -0.238,0.218 -0.084,0.097 -0.127,0.228 -0.127,0.389 l 0.004,0.055 v 0.215 c 0,0.093 0.012,0.17 0.032,0.223 0.021,0.056 0.065,0.119 0.129,0.194 0.065,0.083 0.13,0.138 0.197,0.173 0.07,0.037 0.164,0.054 0.29,0.054 0.02,0 0.048,-0.001 0.086,-0.002 0.037,0 0.064,-0.001 0.084,-0.001 h 0.278 c 0.079,0 0.134,-0.001 0.168,-0.006 C -0.105,0.639 -0.054,0.62 0.005,0.585 0.068,0.548 0.127,0.507 0.179,0.442" stroke="none" gorn="0.3.0.0.0.0.0.0.0.12.0.0.0.0.23.0.0.0.0"  id="path4680" fill="#000000" fill-opacity="1" style="fill-rule:nonzero;"/>
                                                                    </g>
                                                                </g>
                                                            </g>
                                                        </g>
                                                        <g transform="matrix(-1,0,0,-1.0001741,58.162772,3.6428256)" >
                                                            <g >
                                                                <g >
                                                                    <g gorn="0.3.0.0.0.0.0.0.0.12.0.0.0.0.24.0.0.0"  id="g4686">
                                                                        <path d="M 0,0 C 0,0.045 0.018,0.092 0.05,0.127 0.084,0.168 0.135,0.188 0.206,0.188 0.213,0.188 0.224,0.186 0.239,0.186 0.254,0.184 0.263,0.184 0.269,0.184 H 2.031 V 0.409 C 1.947,0.409 1.89,0.419 1.86,0.44 1.807,0.473 1.778,0.528 1.778,0.592 c 0,0.078 0.032,0.129 0.093,0.166 0.025,0.016 0.084,0.023 0.177,0.023 h 0.35 V -0.78 H 2.051 C 2.04,-0.78 2.028,-0.782 2.014,-0.784 H 1.982 c -0.076,0 -0.128,0.02 -0.157,0.059 -0.031,0.043 -0.046,0.082 -0.046,0.129 0,0.051 0.018,0.09 0.05,0.129 0.035,0.039 0.086,0.057 0.157,0.057 0.01,0 0.022,0 0.039,-0.002 h 0.007 v 0.221 H 0.27 C 0.261,-0.191 0.249,-0.193 0.233,-0.193 0.219,-0.195 0.21,-0.195 0.201,-0.195 0.132,-0.195 0.082,-0.174 0.048,-0.131 0.015,-0.094 0,-0.047 0,0" stroke="none" gorn="0.3.0.0.0.0.0.0.0.12.0.0.0.0.24.0.0.0.0"  id="path4684" fill="#000000" fill-opacity="1" style="fill-rule:nonzero;"/>
                                                                    </g>
                                                                </g>
                                                            </g>
                                                        </g>
                                                        <g transform="matrix(-1,0,0,-1.0001741,56.398072,5.2182998)" >
                                                            <g >
                                                                <g >
                                                                    <g gorn="0.3.0.0.0.0.0.0.0.12.0.0.0.0.25.0.0.0"  id="g4690">
                                                                        <path d="m 0,0 c 0,-0.055 -0.019,-0.094 -0.054,-0.133 -0.037,-0.041 -0.097,-0.059 -0.176,-0.059 -0.014,0 -0.038,0 -0.068,0.002 -0.031,0.002 -0.042,0.002 -0.032,0.002 0.048,-0.016 0.116,-0.082 0.205,-0.189 0.023,-0.029 0.045,-0.049 0.064,-0.066 0.016,-0.018 0.033,-0.043 0.044,-0.074 0.013,-0.025 0.02,-0.061 0.02,-0.098 0,-0.004 0,-0.018 -0.002,-0.031 C 0,-0.666 0,-0.677 0,-0.685 c 0,-0.029 0,-0.057 0.001,-0.084 0.001,-0.029 0.002,-0.053 0.002,-0.072 0,-0.189 -0.052,-0.328 -0.159,-0.41 -0.105,-0.08 -0.227,-0.121 -0.372,-0.121 -0.146,0 -0.22,0.063 -0.22,0.18 0,0.09 0.035,0.146 0.107,0.18 0.026,0.01 0.07,0.016 0.133,0.016 0.057,0 0.094,0.014 0.114,0.033 0.018,0.029 0.027,0.074 0.027,0.129 0,0.066 0.001,0.104 0.003,0.123 v 0.023 c 0,0.02 -0.011,0.041 -0.03,0.061 -0.021,0.025 -0.046,0.055 -0.08,0.09 l -0.283,0.334 c -0.009,0.01 -0.016,0.014 -0.016,0.016 -0.002,0.002 -0.006,0.002 -0.016,0.004 -0.009,0.002 -0.028,0.002 -0.057,0.002 -0.026,0 -0.052,0 -0.082,-0.002 -0.028,0 -0.05,-0.002 -0.065,-0.002 h -0.448 -0.051 -0.045 c -0.082,0 -0.14,0.016 -0.176,0.057 -0.033,0.037 -0.052,0.078 -0.052,0.131 0,0.045 0.017,0.088 0.048,0.125 0.033,0.035 0.07,0.057 0.116,0.061 0.025,0.004 0.066,0.004 0.12,0.004 h 0.118 c 0.052,-0.002 0.092,-0.004 0.119,-0.004 h 0.984 c 0.082,0 0.134,-0.006 0.157,-0.018 C -0.035,0.133 0,0.075 0,0" stroke="none" gorn="0.3.0.0.0.0.0.0.0.12.0.0.0.0.25.0.0.0.0"  id="path4688" fill="#000000" fill-opacity="1" style="fill-rule:nonzero;"/>
                                                                    </g>
                                                                </g>
                                                            </g>
                                                        </g>
                                                        <g transform="matrix(-1,0,0,-1.0001741,58.166672,7.5791107)" >
                                                            <g >
                                                                <g >
                                                                    <g gorn="0.3.0.0.0.0.0.0.0.12.0.0.0.0.26.0.0.0"  id="g4694">
                                                                        <path d="M 0,0 C 0,0.151 0.064,0.229 0.19,0.229 0.26,0.229 0.313,0.196 0.347,0.138 0.362,0.106 0.37,0.055 0.37,-0.021 v -0.194 h 1.031 v 0.185 c 0,0.074 0.004,0.117 0.01,0.136 0.031,0.081 0.087,0.127 0.177,0.127 0.047,0 0.087,-0.016 0.12,-0.05 C 1.74,0.156 1.759,0.119 1.768,0.071 1.77,0.055 1.772,0.023 1.772,-0.014 c 0,-0.006 0,-0.032 -0.002,-0.073 -0.001,-0.045 -0.001,-0.079 -0.001,-0.098 0,-0.023 0,-0.052 0.001,-0.086 10e-4,-0.028 0.002,-0.054 0.002,-0.072 0,-0.114 -0.037,-0.188 -0.107,-0.226 C 1.64,-0.583 1.589,-0.591 1.513,-0.591 H 0.372 V -0.78 C 0.372,-0.854 0.364,-0.907 0.35,-0.938 0.316,-0.996 0.262,-1.03 0.188,-1.03 c -0.072,0 -0.126,0.032 -0.16,0.089 -0.015,0.029 -0.023,0.08 -0.023,0.145 v 0.671 c 0,0.011 0,0.03 -0.002,0.061 C 0.002,-0.039 0.001,-0.016 0,0 M 2.529,-0.262 V -0.323 -0.371 C 2.529,-0.389 2.528,-0.397 2.525,-0.415 2.523,-0.433 2.519,-0.449 2.515,-0.467 2.512,-0.484 2.504,-0.497 2.495,-0.51 2.484,-0.525 2.471,-0.538 2.456,-0.549 2.426,-0.576 2.381,-0.592 2.322,-0.592 H 2.3 c -0.043,0 -0.079,0.001 -0.109,0.007 -0.028,0.008 -0.06,0.022 -0.092,0.047 -0.033,0.024 -0.052,0.058 -0.061,0.109 v 0.1 0.034 c 0,0.092 0.023,0.152 0.072,0.189 0.03,0.027 0.075,0.042 0.135,0.042 h 0.022 c 0.079,0 0.141,-0.013 0.188,-0.039 0.048,-0.021 0.073,-0.073 0.074,-0.159" stroke="none" gorn="0.3.0.0.0.0.0.0.0.12.0.0.0.0.26.0.0.0.0"  id="path4692" fill="#000000" fill-opacity="1" style="fill-rule:nonzero;"/>
                                                                    </g>
                                                                </g>
                                                            </g>
                                                        </g>
                                                        <g transform="matrix(-1,0,0,-1.0001741,56.760872,10.001432)" >
                                                            <g >
                                                                <g >
                                                                    <g gorn="0.3.0.0.0.0.0.0.0.12.0.0.0.0.27.0.0.0"  id="g4698">
                                                                        <path d="m 0,0 c 0,0.033 -0.003,0.062 -0.009,0.079 -0.007,0.019 -0.023,0.044 -0.054,0.07 -0.051,0.063 -0.081,0.094 -0.091,0.1 -0.02,0.006 -0.057,0.012 -0.114,0.012 H -0.643 C -0.699,0.261 -0.736,0.257 -0.751,0.25 -0.769,0.248 -0.795,0.224 -0.829,0.181 -0.858,0.146 -0.88,0.126 -0.892,0.105 -0.904,0.085 -0.91,0.06 -0.91,0.028 v -0.134 l -0.002,-0.036 c 0,-0.052 0.006,-0.084 0.021,-0.106 0.015,-0.022 0.048,-0.058 0.099,-0.115 0.046,-0.064 0.084,-0.116 0.12,-0.15 0.038,-0.03 0.087,-0.048 0.148,-0.048 0.014,0 0.035,0.001 0.059,0.005 0.026,0.002 0.061,0.003 0.108,0.003 0.03,0 0.056,0.005 0.074,0.014 0.02,0.011 0.038,0.022 0.052,0.047 0.018,0.023 0.04,0.054 0.067,0.079 0.053,0.056 0.093,0.101 0.119,0.134 0.025,0.037 0.039,0.074 0.039,0.108 0,0.066 0.001,0.109 0.004,0.138 z m 0.363,-0.151 c 0,-0.085 -0.011,-0.156 -0.032,-0.212 -0.019,-0.056 -0.054,-0.108 -0.1,-0.161 -0.044,-0.047 -0.07,-0.06 -0.071,-0.029 0.055,0 0.1,-0.015 0.136,-0.046 0.042,-0.035 0.063,-0.081 0.063,-0.145 0,-0.075 -0.034,-0.13 -0.1,-0.162 C 0.238,-0.922 0.18,-0.928 0.092,-0.928 h -1.271 c -0.029,0 -0.068,-0.001 -0.117,-0.003 -0.05,-0.004 -0.082,-0.005 -0.1,-0.005 -0.191,0 -0.342,0.069 -0.45,0.195 -0.083,0.1 -0.136,0.175 -0.158,0.224 -0.02,0.057 -0.032,0.147 -0.032,0.278 v 0.477 c 0,0.059 0.003,0.1 0.007,0.117 0.009,0.038 0.033,0.072 0.065,0.095 0.034,0.023 0.069,0.034 0.11,0.034 0.122,0 0.184,-0.088 0.184,-0.269 v -0.399 c 0,-0.003 0,-0.017 -0.001,-0.048 -10e-4,-0.03 -0.002,-0.052 -0.002,-0.067 0,-0.023 0.002,-0.049 0.006,-0.061 0.005,-0.018 0.011,-0.031 0.021,-0.042 0.01,-0.014 0.022,-0.024 0.041,-0.048 0.021,-0.032 0.043,-0.063 0.068,-0.079 0.023,-0.02 0.06,-0.028 0.105,-0.028 0.008,0 0.02,0 0.036,0.001 0.017,0.001 0.031,0.002 0.041,0.002 h 0.282 c -0.002,-0.03 -0.025,-0.017 -0.069,0.027 -0.045,0.054 -0.078,0.108 -0.1,0.164 -0.021,0.056 -0.032,0.129 -0.032,0.217 0,0.173 0.008,0.285 0.026,0.341 0.016,0.055 0.061,0.126 0.129,0.207 0.048,0.063 0.089,0.104 0.119,0.132 0.033,0.028 0.082,0.05 0.146,0.071 0.066,0.023 0.147,0.036 0.241,0.036 0.032,0 0.065,-0.001 0.1,-0.004 0.039,-0.003 0.108,-0.003 0.215,-0.003 0.134,0 0.232,-0.019 0.295,-0.051 C 0.059,0.553 0.126,0.49 0.199,0.409 0.238,0.36 0.267,0.326 0.287,0.299 0.308,0.269 0.323,0.233 0.338,0.179 0.354,0.126 0.361,0.061 0.361,-0.012 Z" stroke="none" gorn="0.3.0.0.0.0.0.0.0.12.0.0.0.0.27.0.0.0.0"  id="path4696" fill="#000000" fill-opacity="1" style="fill-rule:nonzero;"/>
                                                                    </g>
                                                                </g>
                                                            </g>
                                                        </g>
                                                    </g>
                                                </g>
                                            </g>
                                        </g>
                                    </g>
                                </g>
                            </g>
                        </g>
                    </g>
                </g>
            </g>
        </g>
    </g>
</svg>
