<?xml version='1.0' encoding='UTF-8' standalone='no'?>
<!-- Created with Fritzing (http://www.fritzing.org/) -->
<svg xmlns="http://www.w3.org/2000/svg" id="svg2" version="1.2" height="102.67232" width="101.68942" x="0in" y="0in" viewBox="0 0 81.351494 82.137836" gorn="0" >
    <metadata id="metadata223" >
        <rdf:RDF xmlns:rdf="http://www.w3.org/1999/02/22-rdf-syntax-ns#">
            <cc:Work xmlns:rdf="http://www.w3.org/1999/02/22-rdf-syntax-ns#" xmlns:cc="http://creativecommons.org/ns#" rdf:about="">
                <dc:format xmlns:dc="http://purl.org/dc/elements/1.1/">image/svg+xml</dc:format>
                <dc:type xmlns:rdf="http://www.w3.org/1999/02/22-rdf-syntax-ns#" xmlns:dc="http://purl.org/dc/elements/1.1/" rdf:resource="http://purl.org/dc/dcmitype/StillImage"/>
                <dc:title xmlns:dc="http://purl.org/dc/elements/1.1/"/>
            </cc:Work>
        </rdf:RDF>
    </metadata>
    <defs id="defs221" />
    <desc id="desc4" >
        <referenceFile id="referenceFile6" >LilyPad Coincell-Battery-v17_breadboard.svg</referenceFile>
    </desc>
    <desc id="desc8" >Fritzing breadboard generated by brd2svg</desc>
    <path stroke="none" id="path12" fill="#672e58" d="m 46.141705,82.12666 a 43.46951,38.882 0 0 0 33.80788,-13.3197 7.4771649,6.68807 0 0 0 -3.219798,-10.08 22.923956,20.5047 0 0 1 -6.439596,-3.96 21.782381,19.4836 0 0 1 0,-27 23.976092,21.4458 0 0 1 4.427223,-3.24 17.818564,15.9381 0 0 1 3.622272,-1.8 7.5031469,6.71131 0 0 0 0.402475,-10.44 A 41.652337,37.2566 0 0 0 45.739231,0.04691514 45.882458,41.0403 0 1 0 46.141705,82.12666 m 24.284769,-16.1997 a 3.4860016,3.11811 0 1 1 6.972003,0 3.4860016,3.11811 0 0 1 -6.972003,0 z m -55.541518,0 a 3.4860018,3.1181101 0 1 1 6.972004,0 3.4860018,3.1181101 0 0 1 -6.972004,0 z m 55.541518,-49.68 a 3.4860016,3.11811 0 1 1 6.972003,0 3.4860016,3.11811 0 0 1 -6.972003,0 z m -55.541518,0 a 3.4860018,3.1181101 0 1 1 6.972004,0 3.4860018,3.1181101 0 0 1 -6.972004,0 z" gorn="0.4" />
    <g transform="translate(8.6372359,-1.3995648e-4)" >
        <g >
            <g id="g14" stroke-width="0" gorn="0.5.0.0" >
                <title id="title16" >layer 21</title>
                <g id="g18" stroke-width="0" gorn="0.5.0.0.1" >
                    <title id="title20" >text:+</title>
                    <g transform="translate(29.4123,69.5271)" >
                        <g >
                            <g id="g22" gorn="0.5.0.0.1.1.0.0" >
                                <g id="g24" stroke-width="0" gorn="0.5.0.0.1.1.0.0.0" >
                                    <g transform="matrix(0,-1,1,0,0,0)" >
                                        <g >
                                            <g id="g26" gorn="0.5.0.0.1.1.0.0.0.0.0.0" >
                                                <g id="g28" stroke-width="0" gorn="0.5.0.0.1.1.0.0.0.0.0.0.0" >
                                                    <text stroke="none" id="text30" fill="#ffffff" style="text-anchor:end;font-family:OCRA" font-size="6.6816" x="0" y="0" gorn="0.5.0.0.1.1.0.0.0.0.0.0.0.0" >+</text>
                                                </g>
                                            </g>
                                        </g>
                                    </g>
                                </g>
                            </g>
                        </g>
                    </g>
                </g>
                <g id="g32" stroke-width="0" gorn="0.5.0.0.2" >
                    <title id="title34" >text:-</title>
                    <g transform="translate(61.7403,75.6468)" >
                        <g >
                            <g id="g36" gorn="0.5.0.0.2.1.0.0" >
                                <g id="g38" stroke-width="0" gorn="0.5.0.0.2.1.0.0.0" >
                                    <g transform="matrix(0,-1,1,0,0,0)" >
                                        <g >
                                            <g id="g40" gorn="0.5.0.0.2.1.0.0.0.0.0.0" >
                                                <g id="g42" stroke-width="0" gorn="0.5.0.0.2.1.0.0.0.0.0.0.0" >
                                                    <text stroke="none" id="text44" fill="#ffffff" style="text-anchor:start;font-family:OCRA" font-size="6.6816" x="0" y="0" gorn="0.5.0.0.2.1.0.0.0.0.0.0.0.0" >-</text>
                                                </g>
                                            </g>
                                        </g>
                                    </g>
                                </g>
                            </g>
                        </g>
                    </g>
                </g>
                <g id="g46" stroke-width="0" gorn="0.5.0.0.3" >
                    <title id="title48" >text:+</title>
                    <g transform="translate(27.9003,10.8471)" >
                        <g >
                            <g id="g50" gorn="0.5.0.0.3.1.0.0" >
                                <g id="g52" stroke-width="0" gorn="0.5.0.0.3.1.0.0.0" >
                                    <g transform="matrix(0,-1,1,0,0,0)" >
                                        <g >
                                            <g id="g54" gorn="0.5.0.0.3.1.0.0.0.0.0.0" >
                                                <g id="g56" stroke-width="0" gorn="0.5.0.0.3.1.0.0.0.0.0.0.0" >
                                                    <text stroke="none" id="text58" fill="#ffffff" style="text-anchor:start;font-family:OCRA" font-size="6.6816" x="0" y="0" gorn="0.5.0.0.3.1.0.0.0.0.0.0.0.0" >+</text>
                                                </g>
                                            </g>
                                        </g>
                                    </g>
                                </g>
                            </g>
                        </g>
                    </g>
                </g>
                <g id="g60" stroke-width="0" gorn="0.5.0.0.4" >
                    <title id="title62" >text:-</title>
                    <g transform="translate(62.8923,4.72705)" >
                        <g >
                            <g id="g64" gorn="0.5.0.0.4.1.0.0" >
                                <g id="g66" stroke-width="0" gorn="0.5.0.0.4.1.0.0.0" >
                                    <g transform="matrix(0,-1,1,0,0,0)" >
                                        <g >
                                            <g id="g68" gorn="0.5.0.0.4.1.0.0.0.0.0.0" >
                                                <g id="g70" stroke-width="0" gorn="0.5.0.0.4.1.0.0.0.0.0.0.0" >
                                                    <text stroke="none" id="text72" fill="#ffffff" style="text-anchor:end;font-family:OCRA" font-size="6.6816" x="0" y="0" gorn="0.5.0.0.4.1.0.0.0.0.0.0.0.0" >-</text>
                                                </g>
                                            </g>
                                        </g>
                                    </g>
                                </g>
                            </g>
                        </g>
                    </g>
                </g>
                <g id="g74" stroke-width="0" gorn="0.5.0.0.5" >
                    <title id="title76" >element:BAT1</title>
                    <g id="g78" stroke-width="0" gorn="0.5.0.0.5.1" >
                        <title id="title80" >package:BATTCON_20MM_4LEGS</title>
                        <line stroke="#ffffff" id="line82" stroke-width="0.57599998" y1="20.2071" y2="11.5671" style="stroke-linecap:round" x1="62.1003" x2="54.180302" gorn="0.5.0.0.5.1.1" />
                        <line stroke="#ffffff" id="line84" stroke-width="0.57599998" y1="62.687099" y2="71.327103" style="stroke-linecap:round" x1="62.1003" x2="54.180302" gorn="0.5.0.0.5.1.2" />
                        <line stroke="#ffffff" id="line86" stroke-width="0.57599998" y1="71.327103" y2="54.767101" style="stroke-linecap:round" x1="28.2603" x2="18.900299" gorn="0.5.0.0.5.1.3" />
                        <line stroke="#ffffff" id="line88" stroke-width="0.57599998" y1="54.767101" y2="53.327099" style="stroke-linecap:round" x1="18.900299" x2="19.6203" gorn="0.5.0.0.5.1.4" />
                        <path stroke="#ffffff" id="path90" fill="none" stroke-width="0.57599998" d="m 19.6203,53.3271 a 26.6735,26.6735 0 0 0 -0.72,-25.2" gorn="0.5.0.0.5.1.5" />
                        <line stroke="#ffffff" id="line92" stroke-width="0.57599998" y1="28.1271" y2="11.5671" style="stroke-linecap:round" x1="18.900299" x2="28.2603" gorn="0.5.0.0.5.1.6" />
                    </g>
                </g>
                <g id="g94" stroke-width="0" gorn="0.5.0.0.6" >
                    <title id="title96" >element:U$1</title>
                    <g id="g98" stroke-width="0" gorn="0.5.0.0.6.1" >
                        <title id="title100" >package:PETAL-SMALL-2SIDE</title>
                    </g>
                </g>
                <g id="g102" stroke-width="0" gorn="0.5.0.0.7" >
                    <title id="title104" >element:U$2</title>
                    <g id="g106" stroke-width="0" gorn="0.5.0.0.7.1" >
                        <title id="title108" >package:PETAL-SMALL-2SIDE</title>
                    </g>
                </g>
                <g id="g110" stroke-width="0" gorn="0.5.0.0.8" >
                    <title id="title112" >element:U$3</title>
                    <g id="g114" stroke-width="0" gorn="0.5.0.0.8.1" >
                        <title id="title116" >package:PETAL-SMALL-2SIDE</title>
                    </g>
                </g>
                <g id="g118" stroke-width="0" gorn="0.5.0.0.9" >
                    <title id="title120" >element:U$4</title>
                    <g id="g122" stroke-width="0" gorn="0.5.0.0.9.1" >
                        <title id="title124" >package:PETAL-SMALL-2SIDE</title>
                    </g>
                </g>
                <g id="g126" stroke-width="0" gorn="0.5.0.0.10" >
                    <title id="title128" >element:U$5</title>
                    <g id="g130" stroke-width="0" gorn="0.5.0.0.10.1" >
                        <title id="title132" >package:LOGO-LILYPAD</title>
                    </g>
                </g>
            </g>
        </g>
    </g>
    <g transform="translate(8.6372359,-1.3995648e-4)" >
        <g >
            <circle stroke="#9a916c" id="connector5pin" fill="none" r="3.83811" stroke-width="1.44000006" cx="66.060303" d="m 69.898413,65.927101 c 0,2.11973 -1.718381,3.83811 -3.83811,3.83811 -2.11973,0 -3.83811,-1.71838 -3.83811,-3.83811 0,-2.119729 1.71838,-3.83811 3.83811,-3.83811 2.119729,0 3.83811,1.718381 3.83811,3.83811 z" cy="65.927101" connectorname="-" gorn="0.6.0.0" />
        </g>
    </g>
    <g transform="translate(1.9364755,-1.3995648e-4)" >
        <g >
            <circle stroke="#9a916c" id="connector6pin" fill="none" r="3.83811" stroke-width="1.44000006" cx="16.380301" d="m 20.21841,65.927101 c 0,2.11973 -1.71838,3.83811 -3.838109,3.83811 -2.11973,0 -3.83811,-1.71838 -3.83811,-3.83811 0,-2.119729 1.71838,-3.83811 3.83811,-3.83811 2.119729,0 3.838109,1.718381 3.838109,3.83811 z" cy="65.927101" connectorname="+" gorn="0.7.0.0" />
        </g>
    </g>
    <g transform="translate(8.6372359,-1.3995648e-4)" >
        <g >
            <circle stroke="#9a916c" id="connector7pin" fill="none" r="3.83811" stroke-width="1.44000006" cx="66.060303" d="m 69.898413,16.247101 c 0,2.119729 -1.718381,3.83811 -3.83811,3.83811 -2.11973,0 -3.83811,-1.718381 -3.83811,-3.83811 0,-2.11973 1.71838,-3.83811 3.83811,-3.83811 2.119729,0 3.83811,1.71838 3.83811,3.83811 z" cy="16.247101" connectorname="-" gorn="0.8.0.0" />
        </g>
    </g>
    <g transform="translate(1.9364755,0.2092588)" >
        <g >
            <circle stroke="#9a916c" id="connector8pin" fill="none" r="3.83811" stroke-width="1.44000006" cx="16.380301" d="m 20.21841,16.247101 c 0,2.119729 -1.71838,3.83811 -3.838109,3.83811 -2.11973,0 -3.83811,-1.718381 -3.83811,-3.83811 0,-2.11973 1.71838,-3.83811 3.83811,-3.83811 2.119729,0 3.838109,1.71838 3.838109,3.83811 z" cy="16.247101" connectorname="+" gorn="0.9.0.0" />
        </g>
    </g>
    <g transform="translate(15.356716,10.60826)" >
        <g >
            <g id="g138" stroke-width="0" gorn="0.10.0.0" >
                <g id="battcon_20mm_4legs" stroke-width="0" gorn="0.10.0.0.0" >
                    <g transform="matrix(0,-1,1,0,0.099,61.782)" >
                        <g >
                            <g id="g141" gorn="0.10.0.0.0.0.0.0" >
                                <g id="g143" stroke-width="0" gorn="0.10.0.0.0.0.0.0.0" >
                                    <g id="g145" stroke-width="0" gorn="0.10.0.0.0.0.0.0.0.0" >
                                        <g id="g147" stroke-width="0" gorn="0.10.0.0.0.0.0.0.0.0.0" >
                                            <g id="g149" stroke-width="0" gorn="0.10.0.0.0.0.0.0.0.0.0.0" >
                                                <circle id="circle151" fill="#686868" r="29.618999" stroke-width="0" cx="30.940001" d="m 60.559,31.475 c 0,16.358122 -13.260878,29.619 -29.618999,29.619 C 14.581879,61.094 1.3210011,47.833122 1.3210011,31.475 1.3210011,15.116879 14.581879,1.8560009 30.940001,1.8560009 47.298122,1.8560009 60.559,15.116879 60.559,31.475 z" cy="31.475" gorn="0.10.0.0.0.0.0.0.0.0.0.0.0" />
                                            </g>
                                            <g id="g153" stroke-width="0" style="opacity:0.5;" gorn="0.10.0.0.0.0.0.0.0.0.0.1" >
                                                <path id="path155" fill="#c6c6c6" stroke-width="0" d="m 30.94,60.178 c -3.443,0 -6.822,-0.577 -10.042,-1.715 -0.26,-0.093 -0.397,-0.378 -0.305,-0.639 0.091,-0.261 0.377,-0.396 0.638,-0.305 4.595,1.625 9.62899,2.061 14.436,1.276 0.267,-0.048 0.53,0.14 0.574,0.412 0.045,0.272 -0.14,0.53 -0.412,0.574 -1.603,0.264 -3.249,0.397 -4.889,0.397 z" gorn="0.10.0.0.0.0.0.0.0.0.0.1.0" />
                                            </g>
                                            <g id="g157" stroke-width="0" style="opacity:0.43000004;" gorn="0.10.0.0.0.0.0.0.0.0.0.2" >
                                                <g id="g159" stroke-width="0" gorn="0.10.0.0.0.0.0.0.0.0.0.2.0" >
                                                    <path id="path161" fill="#020202" stroke-width="0" d="m 4.497,28.04 c 0,-5.565 4.511,-10.076 10.076,-10.076 3.583,0 6.721,1.875 8.50702,4.692 -1.603,-3.441 -5.082,-5.832 -9.12902,-5.832 -5.565,0 -10.076,4.511 -10.076,10.076 0,1.982 0.581,3.826 1.569,5.385 C 4.843,30.993 4.497,29.559 4.497,28.04 z" gorn="0.10.0.0.0.0.0.0.0.0.0.2.0.0" />
                                                </g>
                                            </g>
                                            <g id="g163" stroke-width="0" style="opacity:0.43000004;" gorn="0.10.0.0.0.0.0.0.0.0.0.3" >
                                                <g id="g165" stroke-width="0" gorn="0.10.0.0.0.0.0.0.0.0.0.3.0" >
                                                    <path id="path167" fill="#020202" stroke-width="0" d="m 38.409,28.04 c 0,-5.565 4.511,-10.076 10.076,-10.076 3.583,0 6.721,1.875 8.50702,4.692 -1.603,-3.441 -5.082,-5.832 -9.12902,-5.832 -5.565,0 -10.076,4.511 -10.076,10.076 0,1.982 0.58,3.826 1.569,5.385 -0.601,-1.292 -0.947,-2.726 -0.947,-4.245 z" gorn="0.10.0.0.0.0.0.0.0.0.0.3.0.0" />
                                                </g>
                                            </g>
                                            <g id="g169" stroke-width="0" gorn="0.10.0.0.0.0.0.0.0.0.0.4" >
                                                <g id="g171" stroke-width="0" gorn="0.10.0.0.0.0.0.0.0.0.0.4.0" >
                                                    <g id="g173" stroke-width="0" gorn="0.10.0.0.0.0.0.0.0.0.0.4.0.0" >
                                                        <path id="path175" fill="#9b9b9b" stroke-width="0" d="m 9.28303,24.307 c 0,-2.246 2.02,-4.066 4.512,-4.066 2.492,0 4.513,1.82 4.513,4.066 l 0,4.799 -9.025,0 0,-4.799 z" gorn="0.10.0.0.0.0.0.0.0.0.0.4.0.0.0" />
                                                        <path id="path177" fill="#9b9b9b" stroke-width="0" d="m 43.195,24.307 c 0,-2.246 2.021,-4.066 4.513,-4.066 2.492,0 4.513,1.82 4.513,4.066 l 0,4.799 -9.02498,0 -2e-5,-4.799 z" gorn="0.10.0.0.0.0.0.0.0.0.0.4.0.0.1" />
                                                    </g>
                                                    <rect id="rect179" fill="#898989" height="21.642" stroke-width="0" width="9.0249796" x="43.195" y="29.105" gorn="0.10.0.0.0.0.0.0.0.0.0.4.0.1" />
                                                    <rect id="rect181" fill="#898989" height="21.642" stroke-width="0" width="9.0249796" x="9.2830296" y="29.105" gorn="0.10.0.0.0.0.0.0.0.0.0.4.0.2" />
                                                    <g id="g183" stroke-width="0" gorn="0.10.0.0.0.0.0.0.0.0.0.4.0.3" >
                                                        <path id="path185" fill="#898989" stroke-width="0" d="m 42.543,1.418 0,-1.418 -23.696,0 0,1.418 L 0,18.183 0,53.248 c 0,4.639 3.71,8.43502 8.24299,8.43502 4.532,0 10.607,-7.75001 21.809,-7.75001 11.202,0 17.482,7.75001 22.267,7.75001 l 0.864,0 c 4.784,0 8.69803,-3.796 8.69803,-8.43502 L 61.881,18.183 42.543,1.418 z m -23.559,33.509 0,15.521 -10.37798,0 0,-15.521 c -2.737,-1.727 -4.562,-4.769 -4.562,-8.244 0,-5.385 4.365,-9.75002 9.75002,-9.75002 5.38502,0 9.75002,4.365 9.75002,9.75002 C 23.545,30.158 21.722,33.2 18.984,34.927 z m 33.912,0 0,15.521 -10.377,0 0,-15.521 c -2.737,-1.727 -4.562,-4.769 -4.562,-8.244 0,-5.385 4.365,-9.75002 9.75002,-9.75002 5.38502,0 9.75002,4.365 9.75002,9.75002 -4e-5,3.475 -1.82304,6.517 -4.56104,8.244 z" gorn="0.10.0.0.0.0.0.0.0.0.0.4.0.3.0" />
                                                    </g>
                                                    <rect enable-background="new    " id="rect187" fill="#ffffff" height="1.418" stroke-width="0" style="opacity:0.3;" width="23.695999" x="18.847" y="0" gorn="0.10.0.0.0.0.0.0.0.0.0.4.0.4" />
                                                    <g id="g189" stroke-width="0" gorn="0.10.0.0.0.0.0.0.0.0.0.4.0.5" >
                                                        <path id="path191" fill="none" stroke-width="0" d="m 13.795,16.933 c -5.385,0 -9.75002,4.365 -9.75002,9.75002 0,3.476 1.824,6.519 4.562,8.24501 l 0,15.521 10.378,0 2e-5,-15.52203 c 2.737,-1.728 4.561,-4.769 4.561,-8.244 -10e-4,-5.385 -4.366,-9.75 -9.751,-9.75 z" gorn="0.10.0.0.0.0.0.0.0.0.0.4.0.5.0" />
                                                        <path id="path193" fill="none" stroke-width="0" d="m 47.707,16.933 c -5.385,0 -9.75002,4.365 -9.75002,9.75002 0,3.476 1.824,6.519 4.562,8.24501 l 0,15.521 10.378,0 2e-5,-15.52203 c 2.737,-1.728 4.561,-4.769 4.561,-8.244 -10e-4,-5.385 -4.366,-9.75 -9.751,-9.75 z" gorn="0.10.0.0.0.0.0.0.0.0.0.4.0.5.1" />
                                                        <path id="path195" fill="#898989" stroke-width="0" d="m 0,18.183 0,35.065 c 0,1.55 0.421,3 1.142,4.252 l 0,-40.333 L 0,18.183 z" gorn="0.10.0.0.0.0.0.0.0.0.0.4.0.5.2" />
                                                        <path enable-background="new    " id="path197" fill="#ffffff" stroke-width="0" style="opacity:0.3;" d="m 0,18.183 0,35.065 c 0,1.55 0.421,3 1.142,4.252 l 0,-40.333 L 0,18.183 z" gorn="0.10.0.0.0.0.0.0.0.0.0.4.0.5.3" />
                                                        <path id="path199" fill="#898989" stroke-width="0" d="m 61.881,18.183 -1.142,-0.988999 0,40.205999 c 0.723002,-1.229 1.142,-2.645 1.142,-4.152 l 0,-35.065 z" gorn="0.10.0.0.0.0.0.0.0.0.0.4.0.5.4" />
                                                        <path enable-background="new    " id="path201" fill="#ffffff" stroke-width="0" style="opacity:0.3;" d="m 61.881,18.183 -1.142,-0.988999 0,40.205999 c 0.723002,-1.229 1.142,-2.645 1.142,-4.152 l 0,-35.065 z" gorn="0.10.0.0.0.0.0.0.0.0.0.4.0.5.5" />
                                                    </g>
                                                    <g id="g203" stroke-width="0" style="opacity:0.5;" gorn="0.10.0.0.0.0.0.0.0.0.0.4.0.6" >
                                                        <path id="path205" fill="#ffffff" stroke-width="0" d="m 31.426,4.588 0,5.397 5.2,0 0,0.882 -5.2,0 0,5.441 -0.947002,0 0,-5.441 -5.2,0 2e-6,-0.88197 5.2,0 0,-5.39703 0.947,0 z" gorn="0.10.0.0.0.0.0.0.0.0.0.4.0.6.0" />
                                                    </g>
                                                </g>
                                            </g>
                                            <g id="g207" stroke-width="0" gorn="0.10.0.0.0.0.0.0.0.0.0.5" >
                                                <path id="path209" fill="#828282" stroke-width="0" d="m 17.049,29.426 -6.517,0 c -0.276,0 -0.5,-0.224 -0.5,-0.5 0,-0.276 0.224,-0.5 0.5,-0.5 l 6.517,0 c 0.276,0 0.5,0.224 0.5,0.5 0,0.276 -0.224,0.5 -0.5,0.5 z" gorn="0.10.0.0.0.0.0.0.0.0.0.5.0" />
                                            </g>
                                            <g id="g211" stroke-width="0" gorn="0.10.0.0.0.0.0.0.0.0.0.6" >
                                                <path id="path213" fill="#828282" stroke-width="0" d="m 50.966,29.426 -6.517,0 c -0.276,0 -0.5,-0.224 -0.5,-0.5 0,-0.276 0.224,-0.5 0.5,-0.5 l 6.517,0 c 0.276,0 0.5,0.224 0.5,0.5 0,0.276 -0.224,0.5 -0.5,0.5 z" gorn="0.10.0.0.0.0.0.0.0.0.0.6.0" />
                                            </g>
                                        </g>
                                        <path id="path215" fill="#ffffff" stroke-width="0" style="opacity:0.3;" d="m 9.29398,24.028 c 0,-2.078 2.041,-3.77 4.501,-3.77 2.461,0 4.486,1.691 4.486,3.77 0,-1.792 -2.312,-3.25 -4.486,-3.25 -2.17398,0 -4.501,1.458 -4.501,3.25 z" gorn="0.10.0.0.0.0.0.0.0.0.1" />
                                        <path id="path217" fill="#ffffff" stroke-width="0" style="opacity:0.3;" d="m 43.214,24.028 c 0,-2.078 2.041,-3.77 4.501,-3.77 2.461,0 4.486,1.691 4.486,3.77 0,-1.792 -2.312,-3.25 -4.486,-3.25 -2.174,0 -4.501,1.458 -4.501,3.25 z" gorn="0.10.0.0.0.0.0.0.0.0.2" />
                                    </g>
                                </g>
                            </g>
                        </g>
                    </g>
                </g>
            </g>
        </g>
    </g>
    <g transform="translate(-0.87750834,-1.1173564)" >
        <g >
            <g id="g54-1-2-5" gorn="0.11.0.0" >
                <title id="title56-3-4" >text:ON</title>
                <text stroke="#ffffff" id="text58-7-2-3" fill="#ffffff" stroke-width="0.34560001" style="text-anchor:start;font-family:OCRA" font-size="3.3408" x="8.1004295" y="30.6138" gorn="0.11.0.0.1" >ON</text>
            </g>
        </g>
    </g>
    <g transform="translate(-0.87750834,-1.1173564)" >
        <g >
            <g id="g60-1-2-1" gorn="0.12.0.0" >
                <title id="title62-1-1-2" >text:OFF</title>
                <text stroke="#ffffff" id="text64-6-3" fill="#ffffff" stroke-width="0.34560001" style="text-anchor:start;font-family:OCRA" font-size="3.3408" x="6.6603999" y="55.813801" gorn="0.12.0.0.1" >OFF</text>
            </g>
        </g>
    </g>
    <g transform="translate(-1.2373698,-0.31784701)" >
        <g >
            <g id="g110-5-8-3" gorn="0.13.0.0" >
                <title id="title112-2-5-4" >element:S1</title>
                <g id="g114-7-7-1" gorn="0.13.0.0.1" >
                    <title id="title116-6-6-1" >package:AYZ0202</title>
                    <line stroke="#ffffff" id="line118-1-3" stroke-width="0.57599998" y1="31.209101" style="stroke-linecap:round" y2="31.209101" x1="16.301001" x2="6.3797698" gorn="0.13.0.0.1.1" />
                    <line stroke="#ffffff" id="line120-8-8" stroke-width="0.57599998" y1="31.209101" style="stroke-linecap:round" y2="51.618599" x1="6.3797698" x2="6.3797698" gorn="0.13.0.0.1.2" />
                    <line stroke="#ffffff" id="line122-9-7" stroke-width="0.57599998" y1="51.618599" style="stroke-linecap:round" y2="51.618599" x1="6.3797698" x2="16.301001" gorn="0.13.0.0.1.3" />
                    <line stroke="#ffffff" id="line124-2-4" stroke-width="0.57599998" y1="51.618599" style="stroke-linecap:round" y2="31.209101" x1="16.301001" x2="16.301001" gorn="0.13.0.0.1.4" />
                </g>
            </g>
        </g>
    </g>
    <g transform="matrix(0,-0.7999998,0.7999998,0,5.1099609,49.072039)" >
        <g >
            <g id="ayz0202" gorn="0.14.0.0" >
                <g id="g6041" gorn="0.14.0.0.0" >
                    <g id="g6043" gorn="0.14.0.0.0.0" >
                        <polygon points="2.202,12.353 3.927,12.353 3.927,9.49 2.202,9.49 " id="polygon6045" style="fill:#b7b7b7" gorn="0.14.0.0.0.0.0" />
                        <polygon points="9.402,12.353 11.125,12.353 11.125,9.49 9.402,9.49 " id="polygon6047" style="fill:#b7b7b7" gorn="0.14.0.0.0.0.1" />
                        <polygon points="16.604,12.353 18.324,12.353 18.324,9.49 16.604,9.49 " id="polygon6049" style="fill:#b7b7b7" gorn="0.14.0.0.0.0.2" />
                    </g>
                    <g id="g6051" gorn="0.14.0.0.0.1" >
                        <polygon points="2.202,2.861 3.927,2.861 3.927,0 2.202,0 " id="polygon6053" style="fill:#b7b7b7" gorn="0.14.0.0.0.1.0" />
                        <polygon points="9.402,2.861 11.125,2.861 11.125,0 9.402,0 " id="polygon6055" style="fill:#b7b7b7" gorn="0.14.0.0.0.1.1" />
                        <polygon points="16.604,2.861 18.324,2.861 18.324,0 16.604,0 " id="polygon6057" style="fill:#b7b7b7" gorn="0.14.0.0.0.1.2" />
                    </g>
                </g>
                <rect id="rect6059" height="9.8269997" style="fill:#1e1e1e" width="20.527" x="0" y="1.263" gorn="0.14.0.0.1" />
                <rect id="rect6061" height="0.26800001" width="10.642" x="4.9429998" y="1.975" gorn="0.14.0.0.2" />
                <path id="path6063" style="fill:#898989" d="m 19.002,4.096 c -0.229,0 -0.203,-0.191 -0.203,-0.426 V 1.61 h -3.65 c -0.231,0 -0.425,0.191 -0.425,0.428 v 2.214 c 0,0.231 -0.19,0.425 -0.425,0.425 H 6.229 C 5.996,4.677 5.804,4.486 5.804,4.252 V 2.037 C 5.804,1.803 5.613,1.609 5.379,1.609 H 1.73 V 3.67 c 0,0.232 0.024,0.426 -0.203,0.426 H 0.249 c -0.237,0 -0.248,0.191 -0.248,0.425 v 3.894 c 0,0.232 0.011,0.426 0.248,0.426 h 1.278 c 0.228,0 0.203,0.189 0.203,0.425 v 1.833 H 18.798 V 9.263 C 18.798,9.03 18.774,8.838 19,8.838 h 1.277 c 0.237,0 0.248,-0.191 0.248,-0.426 V 4.521 c 0,-0.231 -0.011,-0.425 -0.248,-0.425 h -1.275 z" gorn="0.14.0.0.3" />
                <g id="g6065" gorn="0.14.0.0.4" >
                    <path enable-background="new    " id="path6067" style="opacity:0.3;fill:#ffffff" d="M 0.249,8.832 H 0.488 V 4.089 H 0.249 c -0.237,0 -0.248,0.189 -0.248,0.425 v 3.892 c 0,0.235 0.011,0.426 0.248,0.426 z" gorn="0.14.0.0.4.0" />
                    <rect enable-background="new    " id="rect6069" height="4.743" style="opacity:0.1;fill:#ffffff" width="0.48699999" x="0.48800001" y="4.0890002" gorn="0.14.0.0.4.1" />
                </g>
                <g id="g6071" gorn="0.14.0.0.5" >
                    <path enable-background="new    " id="path6073" style="opacity:0.3;fill:#ffffff" d="m 20.279,8.832 h -0.24 V 4.089 h 0.24 c 0.235,0 0.248,0.189 0.248,0.425 v 3.892 c 10e-4,0.235 -0.01,0.426 -0.248,0.426 z" gorn="0.14.0.0.5.0" />
                    <rect enable-background="new    " id="rect6075" height="4.743" style="opacity:0.1;fill:#ffffff" width="0.486" x="19.552999" y="4.0890002" gorn="0.14.0.0.5.1" />
                </g>
                <path id="path6077" style="fill:#898989" d="m 17.095,9.746 c 0,0.289 -0.25,0.523 -0.558,0.523 H 3.99 c -0.307,0 -0.557,-0.235 -0.557,-0.523 0,-0.289 0.25,-0.525 0.557,-0.525 h 12.547 c 0.308,0 0.558,0.236 0.558,0.525 z" gorn="0.14.0.0.6" />
                <g id="g6079" gorn="0.14.0.0.7" >
                    <path id="path6081" style="fill:#666666" d="M 16.537,9.221 H 3.99 c -0.307,0 -0.557,0.236 -0.557,0.525 H 3.67 c 0,-0.158 0.143,-0.287 0.319,-0.287 h 12.548 c 0.176,0 0.318,0.129 0.318,0.287 h 0.236 C 17.095,9.457 16.845,9.221 16.537,9.221 z" gorn="0.14.0.0.7.0" />
                    <path enable-background="new    " id="path6083" style="opacity:0.3;fill:#ffffff" d="M 16.537,10.033 H 3.99 C 3.813,10.033 3.671,9.902 3.671,9.746 H 3.434 c 0,0.289 0.25,0.523 0.557,0.523 h 12.548 c 0.307,0 0.557,-0.234 0.557,-0.523 H 16.86 c -0.002,0.158 -0.146,0.287 -0.323,0.287 z" gorn="0.14.0.0.7.1" />
                </g>
                <g id="g6085" gorn="0.14.0.0.8" >
                    <path enable-background="new    " id="path6087" style="opacity:0.3;fill:#ffffff" d="m 0.001,1.263 v 2.125 c 0,0.158 0.011,0.287 0.248,0.287 H 0.488 V 1.263 H 0.001 z" gorn="0.14.0.0.8.0" />
                    <rect enable-background="new    " id="rect6089" height="2.4119999" style="opacity:0.1;fill:#ffffff" width="0.48699999" x="0.48800001" y="1.263" gorn="0.14.0.0.8.1" />
                </g>
                <g id="g6091" gorn="0.14.0.0.9" >
                    <path enable-background="new    " id="path6093" style="opacity:0.3;fill:#ffffff" d="M 0.001,11.09 V 9.519 c 0,-0.158 0.011,-0.287 0.248,-0.287 H 0.488 V 11.09 H 0.001 z" gorn="0.14.0.0.9.0" />
                    <rect enable-background="new    " id="rect6095" height="1.858" style="opacity:0.1;fill:#ffffff" width="0.48699999" x="0.48800001" y="9.2309999" gorn="0.14.0.0.9.1" />
                </g>
                <g id="g6097" gorn="0.14.0.0.10" >
                    <path enable-background="new    " id="path6099" style="opacity:0.3;fill:#ffffff" d="m 20.528,1.263 v 2.125 c 0,0.158 -0.012,0.287 -0.248,0.287 H 20.042 V 1.263 h 0.486 z" gorn="0.14.0.0.10.0" />
                    <rect enable-background="new    " id="rect6101" height="2.4119999" style="opacity:0.1;fill:#ffffff" width="0.48699999" x="19.554001" y="1.263" gorn="0.14.0.0.10.1" />
                </g>
                <g id="g6103" gorn="0.14.0.0.11" >
                    <path enable-background="new    " id="path6105" style="opacity:0.3;fill:#ffffff" d="M 20.528,11.09 V 9.519 c 0,-0.158 -0.012,-0.287 -0.248,-0.287 h -0.238 v 1.858 h 0.486 z" gorn="0.14.0.0.11.0" />
                    <rect enable-background="new    " id="rect6107" height="1.858" style="opacity:0.1;fill:#ffffff" width="0.48699999" x="19.554001" y="9.2309999" gorn="0.14.0.0.11.1" />
                </g>
                <path id="path6109" style="fill:#232323" d="m 14.287,4.197 c 0,0.156 -0.129,0.284 -0.283,0.284 h -3.558 c -0.156,0 -0.284,-0.127 -0.284,-0.284 V 1.965 c 0,-0.156 0.127,-0.284 0.284,-0.284 h 3.558 c 0.154,0 0.283,0.127 0.283,0.284 v 2.232 z" gorn="0.14.0.0.12" />
                <g id="g6111" style="opacity:0.2" gorn="0.14.0.0.13" >
                    <path stroke="#ffffff" id="path6113" fill="none" stroke-width="0.1899" style="stroke-linecap:round;stroke-miterlimit:10" d="M 10.404,4.28 V 2.053 c 0,-0.093 0.076,-0.17 0.17,-0.17 h 3.471" stroke-miterlimit="10" gorn="0.14.0.0.13.0" />
                </g>
                <g id="g6115" style="opacity:0.2" gorn="0.14.0.0.14" >
                    <path stroke="#454545" id="path6117" fill="none" stroke-width="0.1899" style="stroke-linecap:round;stroke-miterlimit:10" d="m 14.045,1.882 v 2.227 c 0,0.095 -0.076,0.17 -0.17,0.17 h -3.471" stroke-miterlimit="10" gorn="0.14.0.0.14.0" />
                </g>
                <path enable-background="new    " stroke="#ffffff" id="path6119" fill="none" stroke-width="0.1899" style="opacity:0.2;stroke-linecap:round;stroke-miterlimit:10" d="m 11.694,3.612 c -0.293,-0.293 -0.293,-0.769 0,-1.062 0.293,-0.294 0.77,-0.293 1.062,0" stroke-miterlimit="10" gorn="0.14.0.0.15" />
                <path enable-background="new    " stroke="#454545" id="path6121" fill="none" stroke-width="0.1899" style="opacity:0.2;stroke-linecap:round;stroke-miterlimit:10" d="m 12.755,2.55 c 0.294,0.293 0.294,0.769 10e-4,1.062 -0.293,0.294 -0.77,0.293 -1.063,0" stroke-miterlimit="10" gorn="0.14.0.0.16" />
            </g>
        </g>
    </g>
</svg>
