<?xml version='1.0' encoding='utf-8'?>
<!DOCTYPE svg>
<!-- Generator: Adobe Illustrator 17.1.0, SVG Export Plug-In . SVG Version: 6.00 Build 0)  -->
<svg xmlns="http://www.w3.org/2000/svg" x="0px" enable-background="new 76 -232 56.7 56.8" height="0.788889in" y="0px" version="1.1" id="Layer_1" width="0.7875in" xml:space="preserve" gorn="0" xmlns:xml="http://www.w3.org/XML/1998/namespace"  viewBox="0 0 56.7 56.8">
    <desc >
        <referenceFile >lily-pixel-03.svg</referenceFile>
    </desc>
    <g transform="translate(-76,232)" >
        <g >
            <g >
                <g >
                    <g >
                        <desc >Fritzing breadboard generated by brd2svg</desc>
                        <g id="breadboard_4_" gorn="0.1.0.0.0.0.1" >
                            <g id="icon" gorn="0.1.0.0.0.0.1.0" >
                                <path fill="#B0938F"  d="M76-203.6c0,15.7,12.6,28.4,28.3,28.4c15.7,0,28.4-12.6,28.4-28.3c0,0,0-0.1,0-0.1c0-15.7-12.6-28.4-28.3-28.4C88.7-232,76-219.4,76-203.7C76-203.7,76-203.6,76-203.6z M121-214.2c0-0.9,0.8-1.7,1.7-1.7c0.9,0,1.7,0.8,1.7,1.7c0,0.9-0.8,1.7-1.7,1.7C121.8-212.5,121-213.3,121-214.2z M102.6-182.3c0-0.9,0.8-1.7,1.7-1.7c0.9,0,1.7,0.8,1.7,1.7c0,0.9-0.8,1.7-1.7,1.7C103.4-180.6,102.6-181.4,102.6-182.3z M84.2-214.2c0-0.9,0.8-1.7,1.7-1.7c0.9,0,1.7,0.8,1.7,1.7c0,0.9-0.8,1.7-1.7,1.7C85-212.5,84.2-213.3,84.2-214.2z M102.6-224.9c0-0.9,0.8-1.7,1.7-1.7c0.9,0,1.7,0.8,1.7,1.7c0,0.9-0.8,1.7-1.7,1.7C103.4-223.2,102.6-223.9,102.6-224.9z M121-193c0-0.9,0.8-1.7,1.7-1.7c0.9,0,1.7,0.8,1.7,1.7c0,0.9-0.8,1.7-1.7,1.7C121.8-191.3,121-192,121-193z M88.1-193c0,1-0.8,1.7-1.7,1.7c-1,0-1.7-0.8-1.7-1.7c0-1,0.8-1.7,1.7-1.7C87.3-194.7,88.1-193.9,88.1-193z"/>
                                <g >
                                    <path fill="#E8E8E8"  d="M84.4-199.8c0,0,0-0.3-0.3-0.4s-6.5,3.8-3.5,9.8c3.1,6.3,10.4,3.4,10.4,2.5c0-0.4-0.6-0.3-0.6-0.3s-4.7-2-5.7-3.3C83.3-193.3,83.5-194.8,84.4-199.8z"/>
                                    <path fill="#E8E8E8"  d="M97.8-184.4c0,0-0.3-0.1-0.4,0.1s0.1,7.5,6.8,7.9c7,0.4,8.1-7.4,7.3-7.9c-0.4-0.2-0.6,0.4-0.6,0.4s-4.4,3.1-6.5,3.8C104-180.2,101.6-181.2,97.8-184.4z"/>
                                    <path fill="#E8E8E8"  d="M117.6-188.1c0,0-0.3,0.1-0.2,0.4s6.6,3.6,10.2-2c3.8-5.9-2.4-10.7-3.3-10.2c-0.4,0.2,0,0.7,0,0.7s0.5,5.4,0.1,7.5C124.3-191.5,122.4-189.9,117.6-188.1z"/>
                                    <path fill="#E8E8E8"  d="M124.1-207.5c0,0,0,0.3,0.3,0.4c0.3,0.1,6.5-3.8,3.5-9.8c-3.1-6.3-10.4-3.4-10.4-2.5c0,0.4,0.8,0.6,0.8,0.6s4.7,2.1,6.3,3.5C124.7-215,124.9-212.3,124.1-207.5z"/>
                                    <path fill="#E8E8E8"  d="M111-222.7c0,0,0.3,0.1,0.4-0.1s-0.1-7.5-6.8-7.9c-7-0.4-8.1,7.4-7.3,7.9c0.4,0.2,0.9-0.4,0.9-0.4s4.1-3.1,6.2-3.7C104.7-226.9,107.2-225.8,111-222.7z"/>
                                    <path fill="#E8E8E8"  d="M90.6-219c0,0,0.2-0.2,0.2-0.4c-0.1-0.3-6.7-3.4-10.1,2.3c-3.6,6,2.8,10.6,3.6,10.1c0.4-0.2,0-1,0-1s-0.8-5-0.4-7.2C84-215.4,86.1-217,90.6-219z"/>
                                    <path fill="#672E58"  d="M122.7-191.3c-0.9,0-1.7-0.8-1.7-1.7c0-0.9,0.8-1.7,1.7-1.7c0.9,0,1.6,0.7,1.7,1.6c0.4-1,0.6-2,0.6-3.1c0-3.3-2-6.2-4.9-7.4c2.7-1.3,4.6-4.1,4.6-7.3c0-0.9-0.2-1.8-0.4-2.6c-0.3,0.6-0.9,1-1.6,1c-0.9,0-1.7-0.8-1.7-1.7c0-0.9,0.8-1.7,1.7-1.7c0.1,0,0.2,0,0.3,0c-1.5-1.9-3.8-3.1-6.3-3.1c-1.6,0-3,0.5-4.3,1.2c0-0.2,0-0.5,0-0.7c0-4.4-3.5-8-7.9-8.1c0.8,0.1,1.5,0.8,1.5,1.7c0,0.9-0.8,1.7-1.7,1.7c-0.9,0-1.7-0.8-1.7-1.7c0-0.9,0.6-1.6,1.5-1.7c-4.4,0.1-7.9,3.7-7.9,8.1c0,0.4,0,0.7,0.1,1.1c-1.3-1-3-1.6-4.8-1.6c-2.7,0-5,1.3-6.5,3.3c0.2-0.1,0.5-0.2,0.8-0.2c0.9,0,1.7,0.8,1.7,1.7c0,0.9-0.8,1.7-1.7,1.7c-0.9,0-1.7-0.8-1.7-1.7c-0.5,1-0.7,2.1-0.7,3.3c0,3.3,2,6.1,4.8,7.4c-2.8,1.3-4.6,4.1-4.8,7.4c-0.3,4.6,3.3,8,8.1,8.1c1.8,0,3.4-0.6,4.7-1.5c0,0.2,0,0.5,0,0.7c0,4.2,3.1,7.6,7.2,8c-0.5-0.3-0.8-0.8-0.8-1.5c0-0.9,0.8-1.7,1.7-1.7c0.9,0,1.7,0.8,1.7,1.7c0,0.6-0.3,1.2-0.8,1.5c4.1-0.4,7.2-3.9,7.2-8c0-0.2,0-0.4,0-0.6c1.3,0.9,2.9,1.4,4.6,1.4c2.7,0,5.1-1.3,6.5-3.3C123.3-191.3,123-191.3,122.7-191.3z M88.1-193c0,1-0.8,1.7-1.7,1.7c-1,0-1.7-0.8-1.7-1.7c0-1,0.8-1.7,1.7-1.7C87.3-194.7,88.1-193.9,88.1-193z"/>
                                    <g >
                                        <g >
                                            <g >
                                                <rect x="101.6" fill="#A86F44" height="2" y="-217.9" width="5.6" />
                                                <rect x="101.6" enable-background="new    " fill="#FFFFFF" height="0" y="-217.9" opacity="0.2" width="5.6" />
                                                <rect x="101.6" enable-background="new    " height="0" y="-215.9" opacity="0.2" width="5.6" />
                                            </g>
                                            <g >
                                                <path fill="#DCDCDC"  d="M106.5-217.9L106.5-217.9L106.5-217.9L106.5-217.9L106.5-217.9c-0.1,0.2-0.2,0.6-0.2,0.8c0,0.2,0,1,0.1,1.2l0,0l0,0h0.9v-1.9L106.5-217.9L106.5-217.9z"/>
                                                <path fill="#DCDCDC"  d="M102.5-217.8L102.5-217.8l-0.9-0.1v1.9h0.9c0.1-0.2,0.1-1,0.1-1.2C102.7-217.4,102.6-217.6,102.5-217.8z"/>
                                                <path fill="#999999"  d="M107.3-215.9h-0.9l0-0.1L107.3-215.9L107.3-215.9z"/>
                                                <path fill="#999999"  d="M101.7-215.9h0.9l0-0.1L101.7-215.9L101.7-215.9z"/>
                                                <rect x="101.7" enable-background="new    " fill="#FFFFFF" height="0" y="-217.9" opacity="0.5" width="0.9" />
                                                <rect x="106.4" enable-background="new    " fill="#FFFFFF" height="0" y="-217.9" opacity="0.5" width="0.9" />
                                                <line fill="none" y1="-215.9" y2="-215.9" x1="102.2"  x2="102.2"/>
                                            </g>
                                        </g>
                                    </g>
                                    <g >
                                        <g >
                                            <rect x="96.9" fill="#B3B3B3" height="2.8" y="-200.9" width="1.5" />
                                            <rect x="96.9" fill="#B3B3B3" height="2.8" y="-205.4" width="1.5" />
                                            <rect x="96.9" fill="#B3B3B3" height="2.8" y="-209.9" width="1.5" />
                                            <rect x="110.6" fill="#B3B3B3" height="2.8" y="-200.9" width="1.5" />
                                            <rect x="110.6" fill="#B3B3B3" height="2.8" y="-205.4" width="1.5" />
                                            <rect x="110.6" fill="#B3B3B3" height="2.8" y="-209.9" width="1.5" />
                                        </g>
                                        <rect x="97.4" fill="#E6E6E6" height="14.2" y="-211.1" width="14.2" />
                                        <circle fill="#CCCCCC" cx="104.3" r="5.6" cy="-204" />
                                        <circle fill="#E6E6E6" cx="104.3" r="4.8" cy="-204" />
                                        <g >
                                            <g >
                                                <g >
                                                    <path fill="#999999"  d="M101.4-205.9h-1.4c-0.3,0.6-0.4,1.2-0.4,1.9c0,0.7,0.1,1.3,0.4,1.9h1.4V-205.9z"/>
                                                    <path fill="#999999"  d="M107.4-201.1c0-0.1,0-0.6,0-1c0-0.4-0.4-0.4-0.4-0.4h-1.4l-0.6,0.6v2.6c1.2-0.2,2.2-0.7,2.9-1.6C107.6-200.8,107.4-200.9,107.4-201.1z"/>
                                                    <path fill="#999999"  d="M105.6-205.5h1.4c0,0,0.4,0,0.4-0.4c0-0.4,0-0.9,0-1c0-0.1,0.3-0.3,0.5-0.3c-0.7-0.9-1.8-1.4-3-1.6v2.6L105.6-205.5z"/>
                                                    <path fill="#999999"  d="M103.4-201.6l-1.1,0c0,0,0,0.1,0,0.3c0,0.4-0.5,0.4-0.5,0.4h-1c0.8,0.9,1.9,1.5,3.2,1.6c0-0.4,0-1.4,0-1.8C103.9-201.6,103.4-201.6,103.4-201.6z"/>
                                                    <path fill="#999999"  d="M100.8-207.2h1c0,0,0.5,0,0.5,0.4c0,0.3,0,0.3,0,0.3l1.1,0c0,0,0.6,0,0.6-0.5c0-0.4,0-1.4,0-1.8C102.7-208.6,101.6-208.1,100.8-207.2z"/>
                                                    <path fill="#999999"  d="M104.5-204.6c0,0-0.3,0-0.3-0.5c0-0.4,0-0.4,0-0.4h-1.7c0,0-0.4-0.1-0.4,0.3c0,0.2,0,0.5,0,0.9c0,0,0,0.4,0,0.8c0,0.3,0,0.7,0,0.9c0,0.4,0.4,0.3,0.4,0.3h1.7c0,0,0,0,0-0.4c0-0.4,0.3-0.5,0.3-0.5h3.6l0.7,1.1c0.2-0.5,0.3-1.1,0.3-1.7c0-0.6-0.1-1.2-0.3-1.7l-0.7,1.1L104.5-204.6L104.5-204.6z"/>
                                                </g>
                                                <rect x="101" fill="#4F423C" height="2.2" y="-205" width="3.1" />
                                            </g>
                                            <rect x="105.2" fill="#4D4D4D" height="0.7" y="-204.3" width="0.6" />
                                            <rect x="106" fill="#4D4D4D" height="1" y="-206.7" width="1" />
                                            <g >
                                                <g >
                                                    <g >
                                                        <path fill="#E6C47E"  d="M103-207c0,0.1-0.8,1.9-1.3,2.6l-0.1-0.1C102.1-205.1,102.9-207,103-207L103-207z"/>
                                                    </g>
                                                    <g >
                                                        <g >
                                                            <circle fill="#E6C47E" cx="103" r="0.1" cy="-207" />
                                                        </g>
                                                    </g>
                                                    <g >
                                                        <g >
                                                            <circle fill="#E6C47E" cx="101.7" r="0.1" cy="-204.4" />
                                                        </g>
                                                    </g>
                                                </g>
                                                <g >
                                                    <g >
                                                        <path fill="#E6C47E"  d="M105.3-207.8c-0.1,0.1-1.4,2.8-1.6,3.1l-0.1-0.1C103.7-205.1,105.2-207.9,105.3-207.8L105.3-207.8z"/>
                                                    </g>
                                                    <g >
                                                        <g >
                                                            <circle fill="#E6C47E" cx="105.2" r="0.1" cy="-207.9" />
                                                        </g>
                                                    </g>
                                                    <g >
                                                        <g >
                                                            <circle fill="#E6C47E" cx="103.6" r="0.1" cy="-204.8" />
                                                        </g>
                                                    </g>
                                                </g>
                                                <g >
                                                    <g >
                                                        <path fill="#E6C47E"  d="M106.1-206.4c-0.1,0.1-2.4,2-2.7,2.1l0-0.1C103.6-204.4,105.4-205.9,106.1-206.4L106.1-206.4z"/>
                                                    </g>
                                                    <g >
                                                        <g >
                                                            <circle fill="#E6C47E" cx="106.1" r="0.1" cy="-206.4" />
                                                        </g>
                                                    </g>
                                                    <g >
                                                        <g >
                                                            <circle fill="#E6C47E" cx="103.4" r="0.1" cy="-204.3" />
                                                        </g>
                                                    </g>
                                                </g>
                                                <g >
                                                    <g >
                                                        <path fill="#E6C47E"  d="M108.2-204.2L108.2-204.2c-0.1,0.1-1.1-1.1-1.6-1.7l0.1-0.1C107.2-205.3,108.1-204.2,108.2-204.2z"/>
                                                    </g>
                                                    <g >
                                                        <g >
                                                            <circle fill="#E6C47E" cx="106.6" r="0.1" cy="-206" />
                                                        </g>
                                                    </g>
                                                    <g >
                                                        <g >
                                                            <circle fill="#E6C47E" cx="108.2" r="0.1" cy="-204.1" />
                                                        </g>
                                                    </g>
                                                </g>
                                                <g >
                                                    <g >
                                                        <path fill="#E6C47E"  d="M107.9-203.7c-0.6,0.7-1.6,1.9-1.7,2.1l-0.1-0.1C106.2-201.9,107.7-203.7,107.9-203.7L107.9-203.7z"/>
                                                    </g>
                                                    <g >
                                                        <g >
                                                            <circle fill="#E6C47E" cx="107.8" r="0.1" cy="-203.8" />
                                                        </g>
                                                    </g>
                                                    <g >
                                                        <g >
                                                            <circle fill="#E6C47E" cx="106.1" r="0.1" cy="-201.7" />
                                                        </g>
                                                    </g>
                                                </g>
                                                <g >
                                                    <g >
                                                        <path fill="#E6C47E"  d="M105.8-201.4L105.8-201.4c-0.1,0-2.1-1.7-2.4-2.3l0.1,0C103.7-203.1,105.7-201.4,105.8-201.4z"/>
                                                    </g>
                                                    <g >
                                                        <g >
                                                            <circle fill="#E6C47E" cx="105.7" r="0.1" cy="-201.3" />
                                                        </g>
                                                    </g>
                                                    <g >
                                                        <g >
                                                            <circle fill="#E6C47E" cx="103.4" r="0.1" cy="-203.7" />
                                                        </g>
                                                    </g>
                                                </g>
                                                <g >
                                                    <g >
                                                        <path fill="#E6C47E"  d="M105.5-203.9c-0.4,0.1-2.1-0.1-2.2-0.1l0-0.1C103.4-204.1,105.1-203.9,105.5-203.9L105.5-203.9z"/>
                                                    </g>
                                                    <g >
                                                        <g >
                                                            <circle fill="#E6C47E" cx="103.4" r="0.1" cy="-204" />
                                                        </g>
                                                    </g>
                                                    <g >
                                                        <g >
                                                            <circle fill="#E6C47E" cx="105.5" r="0.1" cy="-203.9" />
                                                        </g>
                                                    </g>
                                                </g>
                                                <g >
                                                    <g >
                                                        <path fill="#E6C47E"  d="M103.5-201.1L103.5-201.1c-0.1,0.1-0.6-0.1-0.7-0.9c-0.2-0.8-0.4-1.5-0.5-1.5l0.1,0c0,0,0.3,0.7,0.5,1.5C103-201.3,103.5-201.2,103.5-201.1z"/>
                                                    </g>
                                                    <g >
                                                        <g >
                                                            <circle fill="#E6C47E" cx="102.3" r="0.1" cy="-203.6" />
                                                        </g>
                                                    </g>
                                                    <g >
                                                        <g >
                                                            <circle fill="#E6C47E" cx="103.5" r="0.1" cy="-201.1" />
                                                        </g>
                                                    </g>
                                                </g>
                                                <g >
                                                    <g >
                                                        <path fill="#E6C47E"  d="M102.2-200.5L102.2-200.5c-0.1,0-0.3-1.6-0.1-2.8l0.1,0C102-202.1,102.2-200.5,102.2-200.5z"/>
                                                    </g>
                                                    <g >
                                                        <g >
                                                            <circle fill="#E6C47E" cx="102.2" r="0.1" cy="-200.5" />
                                                        </g>
                                                    </g>
                                                    <g >
                                                        <g >
                                                            <circle fill="#E6C47E" cx="102.2" r="0.1" cy="-203.2" />
                                                        </g>
                                                    </g>
                                                </g>
                                                <g >
                                                    <g >
                                                        <path fill="#E6C47E"  d="M101.6-203.7c-0.8,0-1.4,0.7-1.4,0.7l-0.1-0.1C100.2-203.1,100.8-203.8,101.6-203.7L101.6-203.7z"/>
                                                    </g>
                                                    <g >
                                                        <g >
                                                            <circle fill="#E6C47E" cx="100.2" r="0.1" cy="-203.1" />
                                                        </g>
                                                    </g>
                                                    <g >
                                                        <g >
                                                            <circle fill="#E6C47E" cx="101.6" r="0.1" cy="-203.8" />
                                                        </g>
                                                    </g>
                                                </g>
                                            </g>
                                        </g>
                                    </g>
                                    <g >
                                        <title >layer 21</title>
                                        <g >
                                            <title >text:+</title>
                                            <g transform="matrix(1, 0, 0, 1, 41.7449, 38.3435)" >
                                                <g >
                                                    <g >
                                                        <g >
                                                            <g >
                                                                <g transform="matrix(1 0 0 1 64.7342 -258.1304)" >
                                                                    <g >
                                                                        <g >
                                                                            <g >
                                                                                <text fill="#FFFFFF" font-size="4.176"  font-family="OCRA">+</text>
                                                                            </g>
                                                                        </g>
                                                                    </g>
                                                                </g>
                                                            </g>
                                                        </g>
                                                    </g>
                                                </g>
                                            </g>
                                        </g>
                                        <g >
                                            <title >text:-</title>
                                            <g transform="matrix(1, 0, 0, 1, 41.6687, 21.5427)" >
                                                <g >
                                                    <g >
                                                        <g >
                                                            <g >
                                                                <g transform="matrix(1 0 0 1 65.4045 -207.185)" >
                                                                    <g >
                                                                        <g >
                                                                            <g >
                                                                                <text fill="#FFFFFF" font-size="4.176"  font-family="OCRA">-</text>
                                                                            </g>
                                                                        </g>
                                                                    </g>
                                                                </g>
                                                            </g>
                                                        </g>
                                                    </g>
                                                </g>
                                            </g>
                                        </g>
                                        <g >
                                            <title >text:X</title>
                                            <g transform="matrix(1, 0, 0, 1, 31.2498, 47.4734)" >
                                                <g >
                                                    <g >
                                                        <g >
                                                            <g >
                                                                <g transform="matrix(1 0 0 1 83.6337 -241.5299)" >
                                                                    <g >
                                                                        <g >
                                                                            <g >
                                                                                <text fill="#FFFFFF" font-size="4.176"  font-family="OCRA">D0</text>
                                                                            </g>
                                                                        </g>
                                                                    </g>
                                                                </g>
                                                            </g>
                                                        </g>
                                                    </g>
                                                </g>
                                            </g>
                                        </g>
                                        <g >
                                            <title >text:Y</title>
                                            <g transform="matrix(1, 0, 0, 1, 9.1013, 24.3435)" >
                                                <g >
                                                    <g >
                                                        <g >
                                                            <g >
                                                                <g transform="matrix(1 0 0 1 79.6667 -233.3636)" >
                                                                    <g >
                                                                        <g >
                                                                            <g >
                                                                                <text fill="#FFFFFF" font-size="4.176"  font-family="OCRA">D0</text>
                                                                            </g>
                                                                        </g>
                                                                    </g>
                                                                </g>
                                                            </g>
                                                        </g>
                                                    </g>
                                                </g>
                                            </g>
                                        </g>
                                        <g >
                                            <title >text:Y</title>
                                            <g transform="matrix(1, 0, 0, 1, 9.1013, 24.3435)" >
                                                <g >
                                                    <g >
                                                        <g >
                                                            <g >
                                                                <g transform="matrix(1 0 0 1 79.667 -218.3998)" >
                                                                    <g >
                                                                        <g >
                                                                            <g >
                                                                                <text fill="#FFFFFF" font-size="4.176"  font-family="OCRA">DI</text>
                                                                            </g>
                                                                        </g>
                                                                    </g>
                                                                </g>
                                                            </g>
                                                        </g>
                                                    </g>
                                                </g>
                                            </g>
                                        </g>
                                        <g >
                                            <title >text:Z</title>
                                            <g transform="matrix(1, 0, 0, 1, 22.6765, 12.8098)" >
                                                <g >
                                                    <g >
                                                        <g >
                                                            <g >
                                                                <g transform="matrix(1 0 0 1 92.2072 -221.8298)" >
                                                                    <g >
                                                                        <g >
                                                                            <g >
                                                                                <text fill="#FFFFFF" font-size="4.176"  font-family="OCRA">DI</text>
                                                                            </g>
                                                                        </g>
                                                                    </g>
                                                                </g>
                                                            </g>
                                                        </g>
                                                    </g>
                                                </g>
                                            </g>
                                        </g>
                                        <g >
                                            <title >element:C1</title>
                                            <g >
                                                <title >package:C0402</title>
                                            </g>
                                        </g>
                                        <g >
                                            <title >element:C2</title>
                                            <g >
                                                <title >package:C0402</title>
                                            </g>
                                        </g>
                                        <g >
                                            <title >element:C3</title>
                                            <g >
                                                <title >package:C0402</title>
                                            </g>
                                        </g>
                                        <g >
                                            <title >element:C4</title>
                                            <g >
                                                <title >package:C0402</title>
                                            </g>
                                        </g>
                                        <g >
                                            <title >element:C5</title>
                                            <g >
                                                <title >package:C0402</title>
                                            </g>
                                        </g>
                                        <g >
                                            <title >element:R1</title>
                                            <g >
                                                <title >package:C0402</title>
                                            </g>
                                        </g>
                                        <g >
                                            <title >element:U$1</title>
                                            <g >
                                                <title >package:SEWTAP-SMALL</title>
                                            </g>
                                        </g>
                                        <g >
                                            <title >element:U$2</title>
                                            <g >
                                                <title >package:SEWTAP-SMALL</title>
                                            </g>
                                        </g>
                                        <g >
                                            <title >element:U$3</title>
                                            <g >
                                                <title >package:SEWTAP-SMALL</title>
                                            </g>
                                        </g>
                                        <g >
                                            <title >element:U$4</title>
                                            <g >
                                                <title >package:LOGO-LILYPAD</title>
                                            </g>
                                        </g>
                                        <g >
                                            <title >element:U$5</title>
                                            <g >
                                                <title >package:SEWTAP-SMALL</title>
                                            </g>
                                        </g>
                                        <g >
                                            <title >element:U$6</title>
                                            <g >
                                                <title >package:SEWTAP-SMALL</title>
                                            </g>
                                        </g>
                                        <g >
                                            <title >element:U$13</title>
                                            <g >
                                                <title >package:SEWTAP-NOHOLE</title>
                                            </g>
                                        </g>
                                    </g>
                                    <g >
                                        <g display="none" >
                                            <title >element:U$1</title>
                                            <g display="inline" >
                                                <title >package:SEWTAP-SMALL</title>
                                                <g >
                                                    <title >polygon</title>
                                                    <g >
                                                        <path fill="#E8E8E8"  d="M124.3-207.2C124.3-207.2,124.3-207.2,124.3-207.2C124.2-207.2,124.2-207.2,124.3-207.2L124.3-207.2C124.2-207.2,124.2-207.2,124.3-207.2L124.3-207.2C124.2-207.2,124.2-207.2,124.3-207.2L124.3-207.2l-0.1,0l0,0h0l0,0c0,0,0,0,0,0l0,0c0,0,0,0,0,0l0,0c0,0,0,0,0,0h0c0,0-0.1,0-0.1,0c0,0,0,0-0.1-0.1l0,0l0,0c0,0,0,0,0,0l0,0l0,0c0,0,0-0.1,0-0.1c0,0,0-0.1,0-0.1l0,0l0,0c0,0,0,0,0,0l0.4-1.1l0.2-1.1l0.1-1.2l-0.1-1.2l-0.3-1.1l0.2-1.1l-0.3-1l-1.6-0.9l-0.8-0.8l-1-0.7l-1-0.5l-1.1-0.4l-1.2-0.2c0,0-0.1,0-0.1,0c0,0-0.1,0-0.1-0.1c0,0,0,0,0,0l0,0l0,0c0,0,0-0.1,0-0.1l0,0l0,0l0,0l0,0c0,0,0-0.1,0-0.1l0,0l0,0l0,0l0,0c0,0,0,0,0,0l0,0l0,0c0,0,0-0.1,0-0.1c0,0,0.1-0.1,0.1-0.1h0l0,0c0,0,0,0,0,0l0.9-0.5c0,0,0,0,0,0c0,0,0,0,0,0l0.9-0.4c0,0,0,0,0,0c0,0,0,0,0,0l1-0.2c0,0,0,0,0,0c0,0,0,0,0,0l1-0.1c0,0,0,0,0,0c0,0,0,0,0,0l1,0.1c0,0,0,0,0,0c0,0,0,0,0,0l1,0.2c0,0,0,0,0,0c0,0,0,0,0,0l0.9,0.4c0,0,0,0,0,0c0,0,0,0,0,0l0.9,0.5c0,0,0,0,0,0c0,0,0,0,0,0l0.8,0.6c0,0,0,0,0,0c0,0,0,0,0,0l0.7,0.8c0,0,0,0,0,0c0,0,0,0,0,0l0.6,0.9c0,0,0,0,0,0c0,0,0,0,0,0l0.5,0.9c0,0,0,0,0,0c0,0,0,0,0,0l0.3,1c0,0,0,0,0,0c0,0,0,0,0,0l0.2,1c0,0,0,0,0,0c0,0,0,0,0,0l0,1c0,0,0,0,0,0c0,0,0,0,0,0l-0.1,1c0,0,0,0,0,0c0,0,0,0,0,0l-0.3,1c0,0,0,0,0,0c0,0,0,0,0,0l-0.4,0.9c0,0,0,0,0,0c0,0,0,0,0,0l-0.6,0.8c0,0,0,0,0,0c0,0,0,0,0,0l-0.7,0.7c0,0,0,0,0,0c0,0,0,0,0,0l-0.8,0.6c0,0,0,0,0,0c0,0,0,0,0,0l-0.9,0.5C124.4-207.2,124.4-207.2,124.3-207.2C124.4-207.2,124.4-207.2,124.3-207.2L124.3-207.2C124.3-207.2,124.3-207.2,124.3-207.2z"/>
                                                    </g>
                                                </g>
                                            </g>
                                        </g>
                                        <path fill="#E8E8E8" display="none"  d="M111.4-184C111.4-184,111.4-184.1,111.4-184c0,0,0-0.1,0-0.1c0,0,0-0.1-0.1-0.1c0,0,0,0,0,0h0c0,0-0.1,0-0.1,0c0,0,0,0,0,0c0,0,0,0-0.1,0c0,0,0,0,0,0c0,0,0,0,0,0c0,0-0.1,0-0.1,0c0,0-0.1,0-0.1,0.1l-0.8,0.9l-0.9,0.8l-1,0.6l-1.1,0.5l-1.1,0.3l-1.2,0.8l-1.2,0l-1.2-0.8l-1.1-0.3l-1.1-0.5l-1-0.6l-0.9-0.8l-0.8-0.9c0,0-0.1-0.1-0.1-0.1c0,0-0.1,0-0.1,0c0,0,0,0,0,0s0,0,0,0l0,0c0,0-0.1,0-0.1,0c0,0-0.1,0-0.1,0.1c0,0-0.1,0.1-0.1,0.1c0,0,0,0.1,0,0.1c0,0,0,0,0,0l0,1c0,0,0,0,0,0c0,0,0,0,0,0l0.1,1c0,0,0,0,0,0c0,0,0,0,0,0l0.3,1c0,0,0,0,0,0c0,0,0,0,0,0l0.4,0.9c0,0,0,0,0,0c0,0,0,0,0,0l0.6,0.8c0,0,0,0,0,0c0,0,0,0,0,0l0.7,0.7c0,0,0,0,0,0c0,0,0,0,0,0l0.8,0.6c0,0,0,0,0,0c0,0,0,0,0,0l0.9,0.5c0,0,0,0,0,0c0,0,0,0,0,0l1,0.4c0,0,0,0,0,0c0,0,0,0,0,0l1,0.2c0,0,0,0,0,0c0,0,0,0,0,0l1,0.1c0,0,0,0,0,0l0,0c0,0,0,0,0,0l1-0.1c0,0,0,0,0,0c0,0,0,0,0,0l1-0.2c0,0,0,0,0,0c0,0,0,0,0,0l1-0.4c0,0,0,0,0,0c0,0,0,0,0,0l0.9-0.5c0,0,0,0,0,0c0,0,0,0,0,0l0.8-0.6c0,0,0,0,0,0c0,0,0,0,0,0l0.7-0.7c0,0,0,0,0,0c0,0,0,0,0,0l0.6-0.8c0,0,0,0,0,0c0,0,0,0,0,0l0.4-0.9c0,0,0,0,0,0c0,0,0,0,0,0l0.3-1c0,0,0,0,0,0c0,0,0,0,0,0l0.1-1c0,0,0,0,0,0c0,0,0,0,0,0L111.4-184z"/>
                                        <g display="none" >
                                            <title >package:SEWTAP-SMALL</title>
                                            <g display="inline" >
                                                <title >polygon</title>
                                                <g >
                                                    <path fill="#E8E8E8"  d="M84-207.2C84-207.2,84-207.2,84-207.2L84-207.2L84-207.2c-0.1,0-0.1,0-0.1,0l0,0c0,0,0,0,0,0l0,0c0,0,0,0,0,0l-0.9-0.5c0,0,0,0,0,0c0,0,0,0,0,0l-0.8-0.6c0,0,0,0,0,0c0,0,0,0,0,0l-0.7-0.7c0,0,0,0,0,0c0,0,0,0,0,0l-0.6-0.8c0,0,0,0,0,0c0,0,0,0,0,0l-0.4-0.9c0,0,0,0,0,0c0,0,0,0,0,0l-0.3-1c0,0,0,0,0,0c0,0,0,0,0,0l-0.2-1c0,0,0,0,0,0c0,0,0,0,0,0l0-1c0,0,0,0,0,0c0,0,0,0,0,0l0.2-1c0,0,0,0,0,0l0,0l0,0c0,0,0,0,0,0l0.3-1c0,0,0,0,0,0c0,0,0,0,0,0l0.5-0.9c0,0,0,0,0,0c0,0,0,0,0,0l0.6-0.9c0,0,0,0,0,0c0,0,0,0,0,0l0.7-0.8c0,0,0,0,0,0c0,0,0,0,0,0l0.8-0.6c0,0,0,0,0,0c0,0,0,0,0,0l0.9-0.5c0,0,0,0,0,0s0,0,0,0l0.9-0.4c0,0,0,0,0,0c0,0,0,0,0,0l1-0.2c0,0,0,0,0,0c0,0,0,0,0,0l1-0.1c0,0,0,0,0,0c0,0,0,0,0,0l1,0.1c0,0,0,0,0,0c0,0,0,0,0,0l1,0.2c0,0,0,0,0,0c0,0,0,0,0,0l0.9,0.4c0,0,0,0,0,0c0,0,0,0,0,0l0.9,0.5c0,0,0,0,0,0l0,0l0,0c0,0,0.1,0,0.1,0.1c0,0,0,0.1,0,0.1l0,0l0,0c0,0,0,0,0,0l0,0l0,0c0,0,0,0,0,0.1l0,0l0,0c0,0,0,0.1,0,0.1c0,0,0,0.1-0.1,0.1c0,0-0.1,0-0.1,0l-1.2,0.2l-1.1,0.4l-1,0.5l-1,0.7l-0.8,0.8l-1.4,0.7l-0.6,1.3l0.2,1.1l-0.3,1.1l-0.1,1.2l0.1,1.2l0.2,1.1l0.4,1.1c0,0,0,0,0,0l0,0l0,0c0,0,0,0.1,0,0.1c0,0,0,0.1,0,0.1l0,0l0,0c0,0,0,0,0,0l0,0l0,0l0,0l0,0c0,0,0,0,0,0l0,0c0,0,0,0,0,0l0,0c0,0,0,0,0,0l0,0v0l0,0c0,0,0,0,0,0l0,0c0,0,0,0,0,0l0,0l0,0c0,0,0,0.1-0.1,0.1c0,0-0.1,0-0.1,0.1l0,0c0,0,0,0,0,0l0,0c0,0,0,0,0,0l0,0h0l0,0c0,0,0,0,0,0l0,0c0,0,0,0,0,0l0,0c0,0,0,0,0,0l0,0C84.1-207.2,84.1-207.2,84-207.2L84-207.2L84-207.2C84.1-207.2,84-207.2,84-207.2z"/>
                                                </g>
                                            </g>
                                        </g>
                                        <g display="none" >
                                            <title >package:SEWTAP-SMALL</title>
                                            <g display="inline" >
                                                <title >polygon</title>
                                                <g >
                                                    <path fill="#E8E8E8"  d="M111.1-222.9c0,0-0.1,0-0.1,0l0,0l0,0c0,0-0.1,0-0.1-0.1l0,0c0,0,0,0,0,0l-0.8-0.9l-0.9-0.8l-1-0.6l-1.1-0.5l-1.1-0.3l-1.2-0.8h-1.2l-1.2,0.8l-1.1,0.3l-1.1,0.5l-1,0.6l-0.9,0.8l-0.8,0.9c0,0,0,0,0,0l0,0c0,0-0.1,0.1-0.1,0.1c0,0-0.1,0-0.1,0c0,0-0.1,0-0.1,0l0,0h0c0,0,0,0-0.1,0l0,0c0,0,0,0,0,0l0,0c0,0,0,0,0,0c0,0-0.1-0.1-0.1-0.1c0,0,0-0.1,0-0.1c0,0,0,0,0,0l0-1c0,0,0,0,0,0c0,0,0,0,0,0l0.1-1c0,0,0,0,0,0c0,0,0,0,0,0l0.3-1c0,0,0,0,0,0c0,0,0,0,0,0l0.4-0.9c0,0,0,0,0,0c0,0,0,0,0,0l0.6-0.8c0,0,0,0,0,0c0,0,0,0,0,0l0.7-0.7c0,0,0,0,0,0c0,0,0,0,0,0l0.8-0.6c0,0,0,0,0,0c0,0,0,0,0,0l0.9-0.5c0,0,0,0,0,0c0,0,0,0,0,0l1-0.4c0,0,0,0,0,0c0,0,0,0,0,0l1-0.2c0,0,0,0,0,0c0,0,0,0,0,0l1-0.1c0,0,0,0,0,0c0,0,0,0,0,0l1,0.1c0,0,0,0,0,0c0,0,0,0,0,0l1,0.2c0,0,0,0,0,0c0,0,0,0,0,0l1,0.4c0,0,0,0,0,0c0,0,0,0,0,0l0.9,0.5c0,0,0,0,0,0c0,0,0,0,0,0l0.8,0.6c0,0,0,0,0,0c0,0,0,0,0,0l0.7,0.7c0,0,0,0,0,0c0,0,0,0,0,0l0.6,0.8c0,0,0,0,0,0c0,0,0,0,0,0l0.4,0.9c0,0,0,0,0,0c0,0,0,0,0,0l0.3,1c0,0,0,0,0,0l0,0l0,0c0,0,0,0,0,0l0.1,1c0,0,0,0,0,0c0,0,0,0,0,0l0,1c0,0,0,0,0,0c0,0,0,0.1,0,0.1c0,0,0,0.1-0.1,0.1c0,0,0,0,0,0l0,0c0,0,0,0,0,0l0,0c0,0-0.1,0-0.1,0c0,0,0,0,0,0h0C111.2-222.9,111.2-222.9,111.1-222.9z"/>
                                                </g>
                                            </g>
                                        </g>
                                        <g display="none" >
                                            <title >package:SEWTAP-SMALL</title>
                                            <g display="inline" >
                                                <title >polygon</title>
                                                <g >
                                                    <path fill="#E8E8E8"  d="M121.7-186.4C121.7-186.4,121.7-186.4,121.7-186.4l-1-0.1c0,0,0,0,0,0c0,0,0,0,0,0l-1-0.2c0,0,0,0,0,0c0,0,0,0,0,0l-0.9-0.4c0,0,0,0,0,0c0,0,0,0,0,0l-0.9-0.5c0,0,0,0,0,0c0,0,0,0,0,0l0,0c0,0-0.1,0-0.1-0.1c0,0,0-0.1,0-0.1l0,0c0,0,0,0,0,0c0,0,0,0,0,0v0l0,0l0,0l0,0c0,0,0-0.1,0-0.1l0,0l0,0c0,0,0,0,0,0l0,0c0,0,0-0.1,0-0.1l0,0l0,0c0,0,0,0,0,0c0,0,0-0.1,0.1-0.1c0,0,0.1,0,0.1,0l1.2-0.2l1.1-0.4l1-0.5l1-0.7l0.8-0.8l1.9-0.9l0.5-1l-0.7-1.1l0.3-1.1l0.1-1.2l-0.1-1.2l-0.2-1.2l-0.4-1.1c0,0,0,0,0,0l0,0v0c0,0,0-0.1,0-0.1c0,0,0-0.1,0-0.1l0,0l0,0c0,0,0,0,0,0l0,0c0,0,0,0,0,0l0,0l0,0c0,0,0,0,0.1-0.1v0l0,0c0,0,0.1,0,0.1-0.1c0,0,0.1,0,0.1,0c0,0,0.1,0,0.1,0c0,0,0,0,0,0c0,0,0,0,0,0c0,0,0,0,0,0l0.9,0.5c0,0,0,0,0,0c0,0,0,0,0,0l0.8,0.6c0,0,0,0,0,0c0,0,0,0,0,0l0.7,0.7c0,0,0,0,0,0c0,0,0,0,0,0l0.6,0.8c0,0,0,0,0,0c0,0,0,0,0,0l0.4,0.9c0,0,0,0,0,0c0,0,0,0,0,0l0.3,1c0,0,0,0,0,0c0,0,0,0,0,0l0.1,1c0,0,0,0,0,0c0,0,0,0,0,0l0,1c0,0,0,0,0,0c0,0,0,0,0,0l-0.2,1c0,0,0,0,0,0l0,0c0,0,0,0,0,0c0,0,0,0,0,0l-0.3,1c0,0,0,0,0,0c0,0,0,0,0,0l-0.5,0.9c0,0,0,0,0,0c0,0,0,0,0,0l-0.6,0.9c0,0,0,0,0,0c0,0,0,0,0,0l-0.7,0.8c0,0,0,0,0,0c0,0,0,0,0,0l-0.8,0.6c0,0,0,0,0,0c0,0,0,0,0,0l-0.9,0.5c0,0,0,0,0,0c0,0,0,0,0,0l-0.9,0.4c0,0,0,0,0,0c0,0,0,0,0,0l-1,0.2c0,0,0,0,0,0c0,0,0,0,0,0L121.7-186.4C121.7-186.4,121.7-186.4,121.7-186.4z"/>
                                                </g>
                                            </g>
                                        </g>
                                        <g display="none" >
                                            <title >package:SEWTAP-NOHOLE</title>
                                            <g display="inline" >
                                                <title >polygon</title>
                                                <g >
                                                    <path fill="#E8E8E8"  d="M87-186.4c-3.5,0-5.9-2.4-7-5.6c-0.3-1.9-0.1-3.4,0.7-5.1c0.3-0.7,0.9-1.2,1.4-1.8c0.1-0.1,2-1.4,2-1.2c0,0,0.1,0.1,0.1,0.1c0,0.1,0,0.1,0,0.2c-0.9,2.6-0.9,5.1,0.5,7.5c0.7,1.1,1.6,2.1,2.8,2.8c0.5,0.3,3.5,1.1,3.5,1.4c0,0,0,0,0,0.1C90.6-186.8,88-186.3,87-186.4z"/>
                                                </g>
                                            </g>
                                        </g>
                                    </g>
                                </g>
                                <g id="silkscreen" gorn="0.1.0.0.0.0.1.0.2" >
                                    <title >element:U$7</title>
                                    <g >
                                        <title >package:LOGO-LILYPAD</title>
                                        <path fill="none" stroke-linecap="round"  stroke="#FFFFFF" d="M101.9-196.3c0,2,1.6,3.7,3.7,3.7h0.4c1.1,0,1.9-0.8,2-1.8l0,0c0-0.5-0.4-0.9-0.8-0.9l0,0c0,0-0.3,0-0.3,0c-1.1,0-2,0.9-2,2c0,0,0,2,0,2v0l0,0c0,1.9-1.5,3.4-3.4,3.4l0,0c-0.7,0-1.2-0.5-1.3-1.1c0,0,0,0,0,0c-0.1-0.8,0.5-1.6,1.3-1.7c1.2-0.3,2.4,0.5,2.7,1.7c0.2,0.8,0.9,1.3,1.7,1.1l0,0" stroke-width="0.576"/>
                                    </g>
                                </g>
                                <circle fill="none" id="connector1pin" cx="122.7" r="2.1" gorn="0.1.0.0.0.0.1.0.3" cy="-214.2"  stroke="#9A916C" stroke-width="0.864"/>
                                <circle fill="none" id="connector3pin" cx="104.3" r="2.1" gorn="0.1.0.0.0.0.1.0.4" cy="-182.3"  stroke="#9A916C" stroke-width="0.864"/>
                                <circle fill="none" id="connector4pin" cx="85.9" r="2.1" gorn="0.1.0.0.0.0.1.0.5" cy="-214.2"  stroke="#9A916C" stroke-width="0.864"/>
                                <circle fill="none" id="connector5pin" cx="86.3" r="2.1" gorn="0.1.0.0.0.0.1.0.6" cy="-193"  stroke="#9A916C" stroke-width="0.864"/>
                                <circle fill="none" id="connector0pin" cx="104.3" r="2.1" gorn="0.1.0.0.0.0.1.0.7" cy="-224.9"  stroke="#9A916C" stroke-width="0.864"/>
                                <circle fill="none" id="connector2pin" cx="122.7" r="2.1" gorn="0.1.0.0.0.0.1.0.8" cy="-193"  stroke="#9A916C" stroke-width="0.864"/>
                            </g>
                        </g>
                    </g>
                </g>
            </g>
        </g>
    </g>
</svg>
