<?xml version='1.0' encoding='UTF-8' standalone='no'?>
<!-- Created with Fritzing (http://www.fritzing.org/) -->
<svg xmlns="http://www.w3.org/2000/svg" height="1.14886in" viewBox="0 0 83.3976 82.7179" width="1.1583in" x="0in" id="svg2" y="0in" gorn="0"  version="1.2">
    <metadata id="metadata204" >
        <rdf:RDF xmlns:rdf="http://www.w3.org/1999/02/22-rdf-syntax-ns#">
            <cc:Work xmlns:cc="http://creativecommons.org/ns#" rdf:about="" xmlns:rdf="http://www.w3.org/1999/02/22-rdf-syntax-ns#">
                <dc:format xmlns:dc="http://purl.org/dc/elements/1.1/">image/svg+xml</dc:format>
                <dc:type xmlns:dc="http://purl.org/dc/elements/1.1/" rdf:resource="http://purl.org/dc/dcmitype/StillImage" xmlns:rdf="http://www.w3.org/1999/02/22-rdf-syntax-ns#"/>
                <dc:title xmlns:dc="http://purl.org/dc/elements/1.1/"/>
            </cc:Work>
        </rdf:RDF>
    </metadata>
    <defs id="defs202" />
    <desc id="desc4" >
        <referenceFile id="referenceFile6" >SparkFun_LilyPad-Switched-Battery_breadboard.svg</referenceFile>
    </desc>
    <desc id="desc8" >Fritzing breadboard generated by brd2svg</desc>
    <g id="g4336" gorn="0.4" >
        <g id="breadboard" gorn="0.4.0" >
            <g id="icon" gorn="0.4.0.0" >
                <path d="M41.2204,82.4537A55.0545,55.0545,0,0,0,81.5407,70.2138A7.25198,7.25198,0,0,0,79.3807,59.0538A14.7235,14.7235,0,0,1,75.0607,56.4978A12.2456,12.2456,0,0,1,73.9087,54.4098A26.0528,26.0528,0,0,1,71.4604,47.1378A34.7311,34.7311,0,0,1,70.8484,40.7658A30.2728,30.2728,0,0,1,71.8204,34.0338A30.9982,30.9982,0,0,1,73.3687,29.5338L74.1247,28.0218A12.1396,12.1396,0,0,1,75.6727,25.5738A24.6458,24.6458,0,0,1,80.8207,23.0538A7.4047,7.4047,0,0,0,80.4607,11.5338A53.7553,53.7553,0,0,0,40.8604,0.373846A41.0404,41.0404,0,1,0,41.2204,82.4537M10.1357,45.6658a1.20473,1.20473,0,1,1,2.40945,0,1.20473,1.20473,0,1,1,-2.40945,0zM10.1357,37.1619a1.20473,1.20473,0,1,1,2.40945,0,1.20473,1.20473,0,1,1,-2.40945,0zM73.7424,66.2538a3.11811,3.11811,0,1,1,6.23622,0,3.11811,3.11811,0,1,1,-6.23622,0zM16.8623,69.8538a3.11811,3.11811,0,1,1,6.23622,0,3.11811,3.11811,0,1,1,-6.23622,0zM73.7424,16.5738a3.11811,3.11811,0,1,1,6.23622,0,3.11811,3.11811,0,1,1,-6.23622,0zM16.8623,12.9738a3.11811,3.11811,0,1,1,6.23622,0,3.11811,3.11811,0,1,1,-6.23622,0z" id="path12" gorn="0.4.0.0.0" stroke-width="0"  fill="#672E58" stroke="none"/>
                <g id="g14" gorn="0.4.0.0.1" >
                    <title id="title16" >layer 21</title>
                    <g id="g18" gorn="0.4.0.0.1.1" >
                        <title id="title20" >text:+</title>
                        <g  transform="matrix(1, 0, 0, 1, 34.8124, 71.6538)">
                            <g >
                                <g id="g22" gorn="0.4.0.0.1.1.1.0.0" >
                                    <g id="g24" gorn="0.4.0.0.1.1.1.0.0.0" >
                                        <g  transform="rotate(-90)">
                                            <g >
                                                <g id="g26" gorn="0.4.0.0.1.1.1.0.0.0.0.0.0" >
                                                    <g id="g28" gorn="0.4.0.0.1.1.1.0.0.0.0.0.0.0" >
                                                        <text style="dominant-baseline:text-before-edge;" id="text30" x="0" y="0" font-size="8.352" gorn="0.4.0.0.1.1.1.0.0.0.0.0.0.0.0" stroke-width="0.648" text-anchor="start"  fill="#ffffff" stroke="#ffffff" font-family="OCRA">+</text>
                                                    </g>
                                                </g>
                                            </g>
                                        </g>
                                    </g>
                                </g>
                            </g>
                        </g>
                    </g>
                    <g id="g32" gorn="0.4.0.0.1.2" >
                        <title id="title34" >text:-</title>
                        <g  transform="matrix(1, 0, 0, 1, 72.5407, 75.9737)">
                            <g >
                                <g id="g36" gorn="0.4.0.0.1.2.1.0.0" >
                                    <g id="g38" gorn="0.4.0.0.1.2.1.0.0.0" >
                                        <g  transform="rotate(270)">
                                            <g >
                                                <g id="g40" gorn="0.4.0.0.1.2.1.0.0.0.0.0.0" >
                                                    <g id="g42" gorn="0.4.0.0.1.2.1.0.0.0.0.0.0.0" >
                                                        <text style="dominant-baseline:text-before-edge;" id="text44" x="0" y="0" font-size="8.352" gorn="0.4.0.0.1.2.1.0.0.0.0.0.0.0.0" stroke-width="0.648" text-anchor="start"  fill="#ffffff" stroke="#ffffff" font-family="OCRA">-</text>
                                                    </g>
                                                </g>
                                            </g>
                                        </g>
                                    </g>
                                </g>
                            </g>
                        </g>
                    </g>
                    <g id="g46" gorn="0.4.0.0.1.3" >
                        <title id="title48" >text:+</title>
                        <g  transform="matrix(1, 0, 0, 1, 33.3004, 9.37382)">
                            <g >
                                <g id="g50" gorn="0.4.0.0.1.3.1.0.0" >
                                    <g id="g52" gorn="0.4.0.0.1.3.1.0.0.0" >
                                        <g  transform="rotate(270)">
                                            <g >
                                                <g id="g54" gorn="0.4.0.0.1.3.1.0.0.0.0.0.0" >
                                                    <g id="g56" gorn="0.4.0.0.1.3.1.0.0.0.0.0.0.0" >
                                                        <text style="dominant-baseline:text-before-edge;" id="text58" x="0" y="0" font-size="8.352" gorn="0.4.0.0.1.3.1.0.0.0.0.0.0.0.0" stroke-width="0.648" text-anchor="start"  fill="#ffffff" stroke="#ffffff" font-family="OCRA">+</text>
                                                    </g>
                                                </g>
                                            </g>
                                        </g>
                                    </g>
                                </g>
                            </g>
                        </g>
                    </g>
                    <g id="g60" gorn="0.4.0.0.1.4" >
                        <title id="title62" >text:-</title>
                        <g  transform="matrix(1, 0, 0, 1, 73.6927, 5.05385)">
                            <g >
                                <g id="g64" gorn="0.4.0.0.1.4.1.0.0" >
                                    <g id="g66" gorn="0.4.0.0.1.4.1.0.0.0" >
                                        <g  transform="rotate(-90)">
                                            <g >
                                                <g id="g68" gorn="0.4.0.0.1.4.1.0.0.0.0.0.0" >
                                                    <g id="g70" gorn="0.4.0.0.1.4.1.0.0.0.0.0.0.0" >
                                                        <text style="dominant-baseline:text-before-edge;" id="text72" x="0" y="0" font-size="8.352" gorn="0.4.0.0.1.4.1.0.0.0.0.0.0.0.0" stroke-width="0.648" text-anchor="start"  fill="#ffffff" stroke="#ffffff" font-family="OCRA">-</text>
                                                    </g>
                                                </g>
                                            </g>
                                        </g>
                                    </g>
                                </g>
                            </g>
                        </g>
                    </g>
                    <g id="g74" gorn="0.4.0.0.1.5" >
                        <title id="title76" >text:ON</title>
                        <text style="dominant-baseline:text-before-edge;" id="text78" x="8.10043" y="30.6138" font-size="4.176" gorn="0.4.0.0.1.5.1" stroke-width="0.3456" text-anchor="start"  fill="#ffffff" stroke="#ffffff" font-family="OCRA">ON</text>
                    </g>
                    <g id="g80" gorn="0.4.0.0.1.6" >
                        <title id="title82" >text:OFF</title>
                        <text style="dominant-baseline:text-before-edge;" id="text84" x="6.6604" y="55.8138" font-size="4.176" gorn="0.4.0.0.1.6.1" stroke-width="0.3456" text-anchor="start"  fill="#ffffff" stroke="#ffffff" font-family="OCRA">OFF</text>
                    </g>
                    <g id="g86" gorn="0.4.0.0.1.7" >
                        <title id="title88" >element:BAT1</title>
                        <g id="g90" gorn="0.4.0.0.1.7.1" >
                            <title id="title92" >package:BATTCON_20MM_4LEGS</title>
                            <line stroke-linecap="round" id="line94" gorn="0.4.0.0.1.7.1.1" stroke-width="0.576" y1="62.6737" y2="20.154"  x1="31.1857" x2="31.1857" stroke="white"/>
                            <line stroke-linecap="round" id="line96" gorn="0.4.0.0.1.7.1.2" stroke-width="0.576" y1="62.6737" y2="71.3194"  x1="31.1857" x2="38.8393" stroke="white"/>
                            <line stroke-linecap="round" id="line98" gorn="0.4.0.0.1.7.1.3" stroke-width="0.576" y1="20.154" y2="11.5083"  x1="31.1857" x2="38.8393" stroke="white"/>
                            <line stroke-linecap="round" id="line100" gorn="0.4.0.0.1.7.1.4" stroke-width="0.576" y1="11.5083" y2="25.6815"  x1="64.918" x2="74.556" stroke="white"/>
                            <path d="M74.556,25.6815A30.3628,30.3628,0,0,0,74.556,57.1461" id="path102" gorn="0.4.0.0.1.7.1.5" stroke-width="0.576"  fill="none" stroke="white"/>
                            <line stroke-linecap="round" id="line104" gorn="0.4.0.0.1.7.1.6" stroke-width="0.576" y1="57.1461" y2="71.3194"  x1="74.556" x2="64.918" stroke="white"/>
                            <line stroke-linecap="round" id="line106" gorn="0.4.0.0.1.7.1.7" stroke-width="0.576" y1="11.5083" y2="11.5083"  x1="38.8393" x2="42.9495" stroke="white"/>
                            <line stroke-linecap="round" id="line108" gorn="0.4.0.0.1.7.1.8" stroke-width="0.576" y1="71.3194" y2="71.3194"  x1="42.9495" x2="38.8393" stroke="white"/>
                            <line stroke-linecap="round" id="line110" gorn="0.4.0.0.1.7.1.9" stroke-width="0.576" y1="71.3194" y2="71.3194"  x1="64.918" x2="61.0913" stroke="white"/>
                            <line stroke-linecap="round" id="line112" gorn="0.4.0.0.1.7.1.10" stroke-width="0.576" y1="11.5083" y2="11.5083"  x1="64.918" x2="61.0913" stroke="white"/>
                        </g>
                    </g>
                    <g id="g114" gorn="0.4.0.0.1.8" >
                        <title id="title116" >element:JP1</title>
                        <g id="g118" gorn="0.4.0.0.1.8.1" >
                            <title id="title120" >package:MICRO-FIDUCIAL</title>
                        </g>
                    </g>
                    <g id="g122" gorn="0.4.0.0.1.9" >
                        <title id="title124" >element:JP2</title>
                        <g id="g126" gorn="0.4.0.0.1.9.1" >
                            <title id="title128" >package:MICRO-FIDUCIAL</title>
                        </g>
                    </g>
                    <g id="g130" gorn="0.4.0.0.1.10" >
                        <title id="title132" >element:S1</title>
                        <g id="g134" gorn="0.4.0.0.1.10.1" >
                            <title id="title136" >package:AYZ0202</title>
                            <line stroke-linecap="round" id="line138" gorn="0.4.0.0.1.10.1.1" stroke-width="0.576" y1="31.2091" y2="31.2091"  x1="16.301" x2="6.37977" stroke="white"/>
                            <line stroke-linecap="round" id="line140" gorn="0.4.0.0.1.10.1.2" stroke-width="0.576" y1="31.2091" y2="51.6186"  x1="6.37977" x2="6.37977" stroke="white"/>
                            <line stroke-linecap="round" id="line142" gorn="0.4.0.0.1.10.1.3" stroke-width="0.576" y1="51.6186" y2="51.6186"  x1="6.37977" x2="16.301" stroke="white"/>
                            <line stroke-linecap="round" id="line144" gorn="0.4.0.0.1.10.1.4" stroke-width="0.576" y1="51.6186" y2="31.2091"  x1="16.301" x2="16.301" stroke="white"/>
                        </g>
                    </g>
                    <g id="g146" gorn="0.4.0.0.1.11" >
                        <title id="title148" >element:U$1</title>
                        <g id="g150" gorn="0.4.0.0.1.11.1" >
                            <title id="title152" >package:PETAL-SMALL-2SIDE</title>
                        </g>
                    </g>
                    <g id="g154" gorn="0.4.0.0.1.12" >
                        <title id="title156" >element:U$2</title>
                        <g id="g158" gorn="0.4.0.0.1.12.1" >
                            <title id="title160" >package:PETAL-SMALL-2SIDE</title>
                        </g>
                    </g>
                    <g id="g162" gorn="0.4.0.0.1.13" >
                        <title id="title164" >element:U$3</title>
                        <g id="g166" gorn="0.4.0.0.1.13.1" >
                            <title id="title168" >package:PETAL-SMALL-2SIDE</title>
                        </g>
                    </g>
                    <g id="g170" gorn="0.4.0.0.1.14" >
                        <title id="title172" >element:U$4</title>
                        <g id="g174" gorn="0.4.0.0.1.14.1" >
                            <title id="title176" >package:PETAL-SMALL-2SIDE</title>
                        </g>
                    </g>
                    <g id="g178" gorn="0.4.0.0.1.15" >
                        <title id="title180" >element:U$5</title>
                        <g id="g182" gorn="0.4.0.0.1.15.1" >
                            <title id="title184" >package:LOGO-LILYPAD</title>
                        </g>
                    </g>
                    <g id="g186" gorn="0.4.0.0.1.16" >
                        <title id="title188" >element:U$7</title>
                        <g id="g190" gorn="0.4.0.0.1.16.1" >
                            <title id="title192" >package:OSHW-LOGO-S</title>
                        </g>
                    </g>
                </g>
                <rect height="59.811" width="43.3701" id="rect194" x="31.1857" y="11.5083" gorn="0.4.0.0.2" stroke-width="0"  fill-opacity="0.15" fill="#ffffff" stroke="none"/>
                <circle id="connector13pin" gorn="0.4.0.0.3" stroke-width="1.44" cx="76.8607"  cy="66.2538" fill="none" stroke="#9A916C" connectorname="1" r="3.83811"/>
                <circle id="connector14pin" gorn="0.4.0.0.4" stroke-width="1.44" cx="19.9804"  cy="69.8538" fill="none" stroke="#9A916C" connectorname="N$1" r="3.83811"/>
                <circle id="connector15pin" gorn="0.4.0.0.5" stroke-width="1.44" cx="76.8607"  cy="16.5738" fill="none" stroke="#9A916C" connectorname="1" r="3.83811"/>
                <circle id="connector16pin" gorn="0.4.0.0.6" stroke-width="1.44" cx="19.9804"  cy="12.9738" fill="none" stroke="#9A916C" connectorname="N$1" r="3.83811"/>
            </g>
        </g>
        <g  transform="matrix(0.79999999,0,0,0.79999999,-333.73415,-398.20412)">
            <g >
                <g id="layer1" gorn="0.4.1.0.0" >
                    <g  transform="matrix(0,1.25,-1.25,0,439.1492,536.6751)">
                        <g >
                            <g id="g8350" gorn="0.4.1.0.0.0.0.0" stroke-width="0" >
                                <g id="g8352" gorn="0.4.1.0.0.0.0.0.0" stroke-width="0" >
                                    <g id="g8354" gorn="0.4.1.0.0.0.0.0.0.0" stroke-width="0" >
                                        <polygon id="polygon8356" gorn="0.4.1.0.0.0.0.0.0.0.0" stroke-width="0"  fill="#b7b7b7" points="3.92699,12.353 3.92699,9.49097 2.20199,9.49097 2.20199,12.353 "/>
                                        <polygon id="polygon8358" gorn="0.4.1.0.0.0.0.0.0.0.1" stroke-width="0"  fill="#b7b7b7" points="11.1249,12.353 11.1249,9.49097 9.40198,9.49097 9.40198,12.353 "/>
                                        <polygon id="polygon8360" gorn="0.4.1.0.0.0.0.0.0.0.2" stroke-width="0"  fill="#b7b7b7" points="18.3249,12.353 18.3249,9.49097 16.6029,9.49097 16.6029,12.353 "/>
                                    </g>
                                    <g id="g8362" gorn="0.4.1.0.0.0.0.0.0.1" stroke-width="0" >
                                        <polygon id="polygon8364" gorn="0.4.1.0.0.0.0.0.0.1.0" stroke-width="0"  fill="#b7b7b7" points="3.92699,2.86099 3.92699,0 2.20199,0 2.20199,2.86099 "/>
                                        <polygon id="polygon8366" gorn="0.4.1.0.0.0.0.0.0.1.1" stroke-width="0"  fill="#b7b7b7" points="11.1249,2.86099 11.1249,0 9.40198,0 9.40198,2.86099 "/>
                                        <polygon id="polygon8368" gorn="0.4.1.0.0.0.0.0.0.1.2" stroke-width="0"  fill="#b7b7b7" points="18.3249,2.86099 18.3249,0 16.6029,0 16.6029,2.86099 "/>
                                    </g>
                                </g>
                                <rect height="9.8269901" width="20.527901" x="0" id="rect8370" y="1.263" gorn="0.4.1.0.0.0.0.0.1" stroke-width="0"  fill="#1e1e1e"/>
                                <rect height="0.26599899" width="10.642" x="4.9429798" id="rect8372" y="1.975" gorn="0.4.1.0.0.0.0.0.2" stroke-width="0" />
                                <path d="m 19.002,4.09599 c -0.227999,0 -0.202999,-0.190999 -0.202999,-0.425999 L 18.7989,1.61099 l -3.64998,0 c -0.232999,0 -0.424998,0.190999 -0.424998,0.425999 l 0,2.21399 c 0,0.232999 -0.190999,0.424999 -0.424998,0.424999 L 6.22898,4.67599 c -0.232999,0 -0.424998,-0.190999 -0.424998,-0.424999 L 5.80398,2.037 c 0,-0.233999 -0.190999,-0.425999 -0.424998,-0.425999 l -3.648992,-1.1e-5 0,2.059 c 0,0.233999 0.024,0.425999 -0.202999,0.425999 l -1.277992,10e-7 C 0.012,4.09599 0.001,4.286989 0.001,4.520989 l 0,3.89199 c 0,0.233999 0.0109999,0.425999 0.247999,0.425999 l 1.27799,0 c 0.227999,0 0.202999,0.190999 0.202999,0.424999 l 0,1.833 17.068,0 -8.8e-5,-1.834037 c 0,-0.232999 -0.024,-0.424999 0.202999,-0.424999 l 1.27699,0 c 0.237999,0 0.247999,-0.190999 0.247999,-0.425999 L 20.5259,4.52099 c 0,-0.232999 -0.01,-0.424999 -0.247999,-0.424999 L 19.002,4.09599 z" id="path8374" gorn="0.4.1.0.0.0.0.0.3" stroke-width="0"  fill="#898989"/>
                                <g id="g8376" gorn="0.4.1.0.0.0.0.0.4" stroke-width="0" >
                                    <path style="opacity:0.3;" d="m 0.248999,8.83195 0.238999,0 0,-4.74296 -0.238999,0 C 0.012,4.08899 0.001,4.279989 0.001,4.513989 l 0,3.89199 c -6e-9,0.235031 0.011,0.425971 0.247999,0.425971 z" id="path8378" gorn="0.4.1.0.0.0.0.0.4.0" stroke-width="0"  fill="#ffffff"/>
                                    <rect style="opacity:0.1;" height="4.74299" width="0.48699799" x="0.48799801" id="rect8380" y="4.0889902" gorn="0.4.1.0.0.0.0.0.4.1" stroke-width="0"  fill="#ffffff"/>
                                </g>
                                <g id="g8382" gorn="0.4.1.0.0.0.0.0.5" stroke-width="0" >
                                    <path style="opacity:0.3;" d="m 20.2789,8.83195 -0.239,0 0,-4.74296 0.238999,0 c 0.236999,0 0.247999,0.190999 0.247999,0.424999 l 0,3.89199 c 2e-6,0.235031 -0.01,0.425971 -0.247998,0.425971 z" id="path8384" gorn="0.4.1.0.0.0.0.0.5.0" stroke-width="0"  fill="#ffffff"/>
                                    <rect style="opacity:0.1;" height="4.74299" width="0.48699799" x="19.5529" id="rect8386" y="4.0889902" gorn="0.4.1.0.0.0.0.0.5.1" stroke-width="0"  fill="#ffffff"/>
                                </g>
                                <path d="m 17.095,9.74599 c 0,0.288999 -0.249999,0.524999 -0.556998,0.524999 L 3.98999,10.2709 c -0.306999,0 -0.556998,-0.235999 -0.556998,-0.524999 0,-0.289 0.249999,-0.524999 0.556998,-0.524999 l 12.5479,0 C 16.8449,9.22097 17.095,9.45698 17.095,9.74599 z" id="path8388" gorn="0.4.1.0.0.0.0.0.6" stroke-width="0"  fill="#898989"/>
                                <g id="g8390" gorn="0.4.1.0.0.0.0.0.7" stroke-width="0" >
                                    <path d="m 16.538,9.22097 -12.54801,0 c -0.306999,0 -0.556998,0.235999 -0.556998,0.524999 l 0.236999,0 c 0,-0.158 0.142999,-0.286999 0.318999,-0.286999 l 12.5479,0 c 0.175999,0 0.318999,0.129 0.318999,0.286999 l 0.236999,0 C 17.095,9.45698 16.8449,9.22097 16.538,9.22097 z" id="path8392" gorn="0.4.1.0.0.0.0.0.7.0" stroke-width="0"  fill="#666666"/>
                                    <path style="opacity:0.3;" d="m 16.538,10.033 -12.54801,0 C 3.812991,10.033 3.670991,9.904 3.670991,9.746001 L 3.43399,9.74599 c 0,0.288999 0.249999,0.524999 0.556998,0.524999 l 12.5479,0 c 0.306999,0 0.556998,-0.235999 0.556998,-0.524999 l -0.236999,0 C 16.8569,9.90396 16.7139,10.033 16.538,10.033 z" id="path8394" gorn="0.4.1.0.0.0.0.0.7.1" stroke-width="0"  fill="#ffffff"/>
                                </g>
                                <g id="g8396" gorn="0.4.1.0.0.0.0.0.8" stroke-width="0" >
                                    <path style="opacity:0.3;" d="m 9.99994e-4,1.263 0,2.12499 c 0,0.158 0.010999896,0.286999 0.247998996,0.286999 l 0.238999,0 10e-9,-2.411989 -0.486998006,0 z" id="path8398" gorn="0.4.1.0.0.0.0.0.8.0" stroke-width="0"  fill="#ffffff"/>
                                    <rect style="opacity:0.1;" height="2.4119899" width="0.48699799" x="0.48799801" id="rect8400" y="1.263" gorn="0.4.1.0.0.0.0.0.8.1" stroke-width="0"  fill="#ffffff"/>
                                </g>
                                <g id="g8402" gorn="0.4.1.0.0.0.0.0.9" stroke-width="0" >
                                    <path style="opacity:0.3;" d="m 9.99994e-4,11.0899 0,-1.57092 c 0,-0.158 0.010999896,-0.286999 0.247998996,-0.286999 l 0.238999,0 0,1.858 -0.486997996,-8.1e-5 z" id="path8404" gorn="0.4.1.0.0.0.0.0.9.0" stroke-width="0"  fill="#ffffff"/>
                                    <rect style="opacity:0.1;" height="1.858" width="0.48699799" x="0.48799801" id="rect8406" y="9.2309799" gorn="0.4.1.0.0.0.0.0.9.1" stroke-width="0"  fill="#ffffff"/>
                                </g>
                                <g id="g8408" gorn="0.4.1.0.0.0.0.0.10" stroke-width="0" >
                                    <path style="opacity:0.3;" d="m 20.5279,1.263 0,2.12499 c 0,0.158 -0.011,0.286999 -0.247999,0.286999 l -0.238999,0 -2e-6,-2.411989 0.487,0 z" id="path8410" gorn="0.4.1.0.0.0.0.0.10.0" stroke-width="0"  fill="#ffffff"/>
                                    <rect style="opacity:0.1;" height="2.4119899" width="0.48699799" x="19.5539" id="rect8412" y="1.263" gorn="0.4.1.0.0.0.0.0.10.1" stroke-width="0"  fill="#ffffff"/>
                                </g>
                                <g id="g8414" gorn="0.4.1.0.0.0.0.0.11" stroke-width="0" >
                                    <path style="opacity:0.3;" d="m 20.5279,11.0899 0,-1.57092 c 0,-0.158 -0.011,-0.286999 -0.247999,-0.286999 l -0.238999,0 0,1.858 0.486998,-8.1e-5 z" id="path8416" gorn="0.4.1.0.0.0.0.0.11.0" stroke-width="0"  fill="#ffffff"/>
                                    <rect style="opacity:0.1;" height="1.858" width="0.48699799" x="19.5539" id="rect8418" y="9.2309799" gorn="0.4.1.0.0.0.0.0.11.1" stroke-width="0"  fill="#ffffff"/>
                                </g>
                                <path d="m 14.287,4.19699 c 0,0.156 -0.127999,0.283999 -0.282999,0.283999 l -3.55799,0 c -0.156,0 -0.283999,-0.126999 -0.283999,-0.283999 L 10.1619,1.965 c 0,-0.156 0.126999,-0.283999 0.283999,-0.283999 l 3.55799,0 c 0.154999,0 0.282999,0.126999 0.282999,0.283999 L 14.287,4.19699 z" id="path8420" gorn="0.4.1.0.0.0.0.0.12" stroke-width="0"  fill="#232323"/>
                                <g style="opacity:0.2;" id="g8422" gorn="0.4.1.0.0.0.0.0.13" stroke-width="0" >
                                    <path style="stroke-linecap:round;stroke-miterlimit:10" d="m 10.4039,4.27999 0,-2.227 c 0,-0.092999 0.076,-0.169999 0.169999,-0.169999 l 3.47098,0" id="path8424" stroke-miterlimit="10" gorn="0.4.1.0.0.0.0.0.13.0" stroke-width="0.189899"  fill="none" stroke="#ffffff"/>
                                </g>
                                <g style="opacity:0.2;" id="g8426" gorn="0.4.1.0.0.0.0.0.14" stroke-width="0" >
                                    <path style="stroke-linecap:round;stroke-miterlimit:10" d="m 14.045,1.88199 0,2.227 c 0,0.092999 -0.076,0.169999 -0.169999,0.169999 l -3.47098,0" id="path8428" stroke-miterlimit="10" gorn="0.4.1.0.0.0.0.0.14.0" stroke-width="0.189899"  fill="none" stroke="#454545"/>
                                </g>
                                <path style="opacity:0.2;stroke-linecap:round;stroke-miterlimit:10" d="M 11.694,3.61199 C 11.4,3.31899 11.4,2.84299 11.6929,2.55 c 0.292999,-0.293999 0.769997,-0.292999 1.06199,0" id="path8430" stroke-miterlimit="10" gorn="0.4.1.0.0.0.0.0.15" stroke-width="0.189899"  fill="none" stroke="#ffffff"/>
                                <path style="opacity:0.2;stroke-linecap:round;stroke-miterlimit:10" d="m 12.7549,2.55 c 0.293999,0.292999 0.293999,0.768996 0.001,1.062 -0.292999,0.293999 -0.769997,0.292999 -1.06199,0" id="path8432" stroke-miterlimit="10" gorn="0.4.1.0.0.0.0.0.16" stroke-width="0.189899"  fill="none" stroke="#454545"/>
                            </g>
                        </g>
                    </g>
                </g>
            </g>
        </g>
        <g  transform="matrix(0.71735258,0,0,0.77741112,-291.1007,-499.01993)">
            <g >
                <g id="layer1-1" gorn="0.4.2.0.0" >
                    <g  transform="matrix(1.2500003,0,0,1.2500003,435.61007,656.66745)">
                        <g >
                            <g id="g138" gorn="0.4.2.0.0.0.0.0" stroke-width="0" >
                                <g id="battcon_20mm_4legs" gorn="0.4.2.0.0.0.0.0.0" stroke-width="0" >
                                    <g  transform="matrix(0,-1,1,0,0.099,61.782)">
                                        <g >
                                            <g id="g141" gorn="0.4.2.0.0.0.0.0.0.0.0.0" >
                                                <g id="g143" gorn="0.4.2.0.0.0.0.0.0.0.0.0.0" stroke-width="0" >
                                                    <g id="g145" gorn="0.4.2.0.0.0.0.0.0.0.0.0.0.0" stroke-width="0" >
                                                        <g id="g147" gorn="0.4.2.0.0.0.0.0.0.0.0.0.0.0.0" stroke-width="0" >
                                                            <g id="g149" gorn="0.4.2.0.0.0.0.0.0.0.0.0.0.0.0.0" stroke-width="0" >
                                                                <circle d="m 60.559,31.475 c 0,16.358122 -13.260878,29.619 -29.618999,29.619 C 14.581879,61.094 1.3210011,47.833122 1.3210011,31.475 1.3210011,15.116879 14.581879,1.8560009 30.940001,1.8560009 47.298122,1.8560009 60.559,15.116879 60.559,31.475 z" id="circle151" gorn="0.4.2.0.0.0.0.0.0.0.0.0.0.0.0.0.0" stroke-width="0" cx="30.940001"  cy="31.475" fill="#686868" r="29.618999"/>
                                                            </g>
                                                            <g style="opacity:0.5;" id="g153" gorn="0.4.2.0.0.0.0.0.0.0.0.0.0.0.0.1" stroke-width="0" >
                                                                <path d="m 30.94,60.178 c -3.443,0 -6.822,-0.577 -10.042,-1.715 -0.26,-0.093 -0.397,-0.378 -0.305,-0.639 0.091,-0.261 0.377,-0.396 0.638,-0.305 4.595,1.625 9.62899,2.061 14.436,1.276 0.267,-0.048 0.53,0.14 0.574,0.412 0.045,0.272 -0.14,0.53 -0.412,0.574 -1.603,0.264 -3.249,0.397 -4.889,0.397 z" id="path155" gorn="0.4.2.0.0.0.0.0.0.0.0.0.0.0.0.1.0" stroke-width="0"  fill="#c6c6c6"/>
                                                            </g>
                                                            <g style="opacity:0.43000004;" id="g157" gorn="0.4.2.0.0.0.0.0.0.0.0.0.0.0.0.2" stroke-width="0" >
                                                                <g id="g159" gorn="0.4.2.0.0.0.0.0.0.0.0.0.0.0.0.2.0" stroke-width="0" >
                                                                    <path d="m 4.497,28.04 c 0,-5.565 4.511,-10.076 10.076,-10.076 3.583,0 6.721,1.875 8.50702,4.692 -1.603,-3.441 -5.082,-5.832 -9.12902,-5.832 -5.565,0 -10.076,4.511 -10.076,10.076 0,1.982 0.581,3.826 1.569,5.385 C 4.843,30.993 4.497,29.559 4.497,28.04 z" id="path161" gorn="0.4.2.0.0.0.0.0.0.0.0.0.0.0.0.2.0.0" stroke-width="0"  fill="#020202"/>
                                                                </g>
                                                            </g>
                                                            <g style="opacity:0.43000004;" id="g163" gorn="0.4.2.0.0.0.0.0.0.0.0.0.0.0.0.3" stroke-width="0" >
                                                                <g id="g165" gorn="0.4.2.0.0.0.0.0.0.0.0.0.0.0.0.3.0" stroke-width="0" >
                                                                    <path d="m 38.409,28.04 c 0,-5.565 4.511,-10.076 10.076,-10.076 3.583,0 6.721,1.875 8.50702,4.692 -1.603,-3.441 -5.082,-5.832 -9.12902,-5.832 -5.565,0 -10.076,4.511 -10.076,10.076 0,1.982 0.58,3.826 1.569,5.385 -0.601,-1.292 -0.947,-2.726 -0.947,-4.245 z" id="path167" gorn="0.4.2.0.0.0.0.0.0.0.0.0.0.0.0.3.0.0" stroke-width="0"  fill="#020202"/>
                                                                </g>
                                                            </g>
                                                            <g id="g169" gorn="0.4.2.0.0.0.0.0.0.0.0.0.0.0.0.4" stroke-width="0" >
                                                                <g id="g171" gorn="0.4.2.0.0.0.0.0.0.0.0.0.0.0.0.4.0" stroke-width="0" >
                                                                    <g id="g173" gorn="0.4.2.0.0.0.0.0.0.0.0.0.0.0.0.4.0.0" stroke-width="0" >
                                                                        <path d="m 9.28303,24.307 c 0,-2.246 2.02,-4.066 4.512,-4.066 2.492,0 4.513,1.82 4.513,4.066 l 0,4.799 -9.025,0 0,-4.799 z" id="path175" gorn="0.4.2.0.0.0.0.0.0.0.0.0.0.0.0.4.0.0.0" stroke-width="0"  fill="#9b9b9b"/>
                                                                        <path d="m 43.195,24.307 c 0,-2.246 2.021,-4.066 4.513,-4.066 2.492,0 4.513,1.82 4.513,4.066 l 0,4.799 -9.02498,0 -2e-5,-4.799 z" id="path177" gorn="0.4.2.0.0.0.0.0.0.0.0.0.0.0.0.4.0.0.1" stroke-width="0"  fill="#9b9b9b"/>
                                                                    </g>
                                                                    <rect height="21.642" width="9.0249796" id="rect179" x="43.195" y="29.105" gorn="0.4.2.0.0.0.0.0.0.0.0.0.0.0.0.4.0.1" stroke-width="0"  fill="#898989"/>
                                                                    <rect height="21.642" width="9.0249796" id="rect181" x="9.2830296" y="29.105" gorn="0.4.2.0.0.0.0.0.0.0.0.0.0.0.0.4.0.2" stroke-width="0"  fill="#898989"/>
                                                                    <g id="g183" gorn="0.4.2.0.0.0.0.0.0.0.0.0.0.0.0.4.0.3" stroke-width="0" >
                                                                        <path d="m 42.543,1.418 0,-1.418 -23.696,0 0,1.418 L 0,18.183 0,53.248 c 0,4.639 3.71,8.43502 8.24299,8.43502 4.532,0 10.607,-7.75001 21.809,-7.75001 11.202,0 17.482,7.75001 22.267,7.75001 l 0.864,0 c 4.784,0 8.69803,-3.796 8.69803,-8.43502 L 61.881,18.183 42.543,1.418 z m -23.559,33.509 0,15.521 -10.37798,0 0,-15.521 c -2.737,-1.727 -4.562,-4.769 -4.562,-8.244 0,-5.385 4.365,-9.75002 9.75002,-9.75002 5.38502,0 9.75002,4.365 9.75002,9.75002 C 23.545,30.158 21.722,33.2 18.984,34.927 z m 33.912,0 0,15.521 -10.377,0 0,-15.521 c -2.737,-1.727 -4.562,-4.769 -4.562,-8.244 0,-5.385 4.365,-9.75002 9.75002,-9.75002 5.38502,0 9.75002,4.365 9.75002,9.75002 -4e-5,3.475 -1.82304,6.517 -4.56104,8.244 z" id="path185" gorn="0.4.2.0.0.0.0.0.0.0.0.0.0.0.0.4.0.3.0" stroke-width="0"  fill="#898989"/>
                                                                    </g>
                                                                    <rect style="opacity:0.3;" height="1.418" width="23.695999" id="rect187" x="18.847" y="0" gorn="0.4.2.0.0.0.0.0.0.0.0.0.0.0.0.4.0.4" stroke-width="0"  fill="#ffffff" enable-background="new    "/>
                                                                    <g id="g189" gorn="0.4.2.0.0.0.0.0.0.0.0.0.0.0.0.4.0.5" stroke-width="0" >
                                                                        <path d="m 13.795,16.933 c -5.385,0 -9.75002,4.365 -9.75002,9.75002 0,3.476 1.824,6.519 4.562,8.24501 l 0,15.521 10.378,0 2e-5,-15.52203 c 2.737,-1.728 4.561,-4.769 4.561,-8.244 -10e-4,-5.385 -4.366,-9.75 -9.751,-9.75 z" id="path191" gorn="0.4.2.0.0.0.0.0.0.0.0.0.0.0.0.4.0.5.0" stroke-width="0"  fill="none"/>
                                                                        <path d="m 47.707,16.933 c -5.385,0 -9.75002,4.365 -9.75002,9.75002 0,3.476 1.824,6.519 4.562,8.24501 l 0,15.521 10.378,0 2e-5,-15.52203 c 2.737,-1.728 4.561,-4.769 4.561,-8.244 -10e-4,-5.385 -4.366,-9.75 -9.751,-9.75 z" id="path193" gorn="0.4.2.0.0.0.0.0.0.0.0.0.0.0.0.4.0.5.1" stroke-width="0"  fill="none"/>
                                                                        <path d="m 0,18.183 0,35.065 c 0,1.55 0.421,3 1.142,4.252 l 0,-40.333 L 0,18.183 z" id="path195" gorn="0.4.2.0.0.0.0.0.0.0.0.0.0.0.0.4.0.5.2" stroke-width="0"  fill="#898989"/>
                                                                        <path style="opacity:0.3;" d="m 0,18.183 0,35.065 c 0,1.55 0.421,3 1.142,4.252 l 0,-40.333 L 0,18.183 z" id="path197" gorn="0.4.2.0.0.0.0.0.0.0.0.0.0.0.0.4.0.5.3" stroke-width="0"  fill="#ffffff" enable-background="new    "/>
                                                                        <path d="m 61.881,18.183 -1.142,-0.988999 0,40.205999 c 0.723002,-1.229 1.142,-2.645 1.142,-4.152 l 0,-35.065 z" id="path199" gorn="0.4.2.0.0.0.0.0.0.0.0.0.0.0.0.4.0.5.4" stroke-width="0"  fill="#898989"/>
                                                                        <path style="opacity:0.3;" d="m 61.881,18.183 -1.142,-0.988999 0,40.205999 c 0.723002,-1.229 1.142,-2.645 1.142,-4.152 l 0,-35.065 z" id="path201" gorn="0.4.2.0.0.0.0.0.0.0.0.0.0.0.0.4.0.5.5" stroke-width="0"  fill="#ffffff" enable-background="new    "/>
                                                                    </g>
                                                                    <g style="opacity:0.5;" id="g203" gorn="0.4.2.0.0.0.0.0.0.0.0.0.0.0.0.4.0.6" stroke-width="0" >
                                                                        <path d="m 31.426,4.588 0,5.397 5.2,0 0,0.882 -5.2,0 0,5.441 -0.947002,0 0,-5.441 -5.2,0 2e-6,-0.88197 5.2,0 0,-5.39703 0.947,0 z" id="path205" gorn="0.4.2.0.0.0.0.0.0.0.0.0.0.0.0.4.0.6.0" stroke-width="0"  fill="#ffffff"/>
                                                                    </g>
                                                                </g>
                                                            </g>
                                                            <g id="g207" gorn="0.4.2.0.0.0.0.0.0.0.0.0.0.0.0.5" stroke-width="0" >
                                                                <path d="m 17.049,29.426 -6.517,0 c -0.276,0 -0.5,-0.224 -0.5,-0.5 0,-0.276 0.224,-0.5 0.5,-0.5 l 6.517,0 c 0.276,0 0.5,0.224 0.5,0.5 0,0.276 -0.224,0.5 -0.5,0.5 z" id="path209" gorn="0.4.2.0.0.0.0.0.0.0.0.0.0.0.0.5.0" stroke-width="0"  fill="#828282"/>
                                                            </g>
                                                            <g id="g211" gorn="0.4.2.0.0.0.0.0.0.0.0.0.0.0.0.6" stroke-width="0" >
                                                                <path d="m 50.966,29.426 -6.517,0 c -0.276,0 -0.5,-0.224 -0.5,-0.5 0,-0.276 0.224,-0.5 0.5,-0.5 l 6.517,0 c 0.276,0 0.5,0.224 0.5,0.5 0,0.276 -0.224,0.5 -0.5,0.5 z" id="path213" gorn="0.4.2.0.0.0.0.0.0.0.0.0.0.0.0.6.0" stroke-width="0"  fill="#828282"/>
                                                            </g>
                                                        </g>
                                                        <path style="opacity:0.3;" d="m 9.29398,24.028 c 0,-2.078 2.041,-3.77 4.501,-3.77 2.461,0 4.486,1.691 4.486,3.77 0,-1.792 -2.312,-3.25 -4.486,-3.25 -2.17398,0 -4.501,1.458 -4.501,3.25 z" id="path215" gorn="0.4.2.0.0.0.0.0.0.0.0.0.0.0.1" stroke-width="0"  fill="#ffffff"/>
                                                        <path style="opacity:0.3;" d="m 43.214,24.028 c 0,-2.078 2.041,-3.77 4.501,-3.77 2.461,0 4.486,1.691 4.486,3.77 0,-1.792 -2.312,-3.25 -4.486,-3.25 -2.174,0 -4.501,1.458 -4.501,3.25 z" id="path217" gorn="0.4.2.0.0.0.0.0.0.0.0.0.0.0.2" stroke-width="0"  fill="#ffffff"/>
                                                    </g>
                                                </g>
                                            </g>
                                        </g>
                                    </g>
                                </g>
                            </g>
                        </g>
                    </g>
                </g>
            </g>
        </g>
    </g>
</svg>
