<?xml version='1.0' encoding='utf-8'?>
<!DOCTYPE svg>
<!-- Generator: Adobe Illustrator 17.1.0, SVG Export Plug-In . SVG Version: 6.00 Build 0)  -->
<svg xmlns="http://www.w3.org/2000/svg" x="0px" enable-background="new 76 -232 56.7 56.8" y="0px" height="0.788889in" version="1.1" id="Layer_1" width="0.7875in" xml:space="preserve" gorn="0" xmlns:xml="http://www.w3.org/XML/1998/namespace"  viewBox="0 0 56.7 56.8">
    <desc >
        <referenceFile >lilytwinkle-breadboard.svg</referenceFile>
    </desc>
    <g transform="translate(-76,232)" >
        <g >
            <g >
                <g >
                    <desc >Fritzing breadboard generated by brd2svg</desc>
                    <g id="breadboard_4_" gorn="0.1.0.0.0.1" >
                        <g id="icon" gorn="0.1.0.0.0.1.0" >
                            <path fill="#B0938F"  d="M76-203.6c0,15.7,12.6,28.4,28.3,28.4c15.7,0,28.4-12.6,28.4-28.3c0,0,0-0.1,0-0.1c0-15.7-12.6-28.4-28.3-28.4C88.7-232,76-219.4,76-203.7C76-203.7,76-203.6,76-203.6z M121-214.2c0-0.9,0.8-1.7,1.7-1.7c0.9,0,1.7,0.8,1.7,1.7c0,0.9-0.8,1.7-1.7,1.7C121.8-212.5,121-213.3,121-214.2z M102.6-182.3c0-0.9,0.8-1.7,1.7-1.7c0.9,0,1.7,0.8,1.7,1.7c0,0.9-0.8,1.7-1.7,1.7C103.4-180.6,102.6-181.4,102.6-182.3z M84.2-214.2c0-0.9,0.8-1.7,1.7-1.7c0.9,0,1.7,0.8,1.7,1.7c0,0.9-0.8,1.7-1.7,1.7C85-212.5,84.2-213.3,84.2-214.2z M102.6-224.9c0-0.9,0.8-1.7,1.7-1.7c0.9,0,1.7,0.8,1.7,1.7c0,0.9-0.8,1.7-1.7,1.7C103.4-223.2,102.6-223.9,102.6-224.9z M121-193c0-0.9,0.8-1.7,1.7-1.7c0.9,0,1.7,0.8,1.7,1.7c0,0.9-0.8,1.7-1.7,1.7C121.8-191.3,121-192,121-193z M88.1-193c0,1-0.8,1.7-1.7,1.7c-1,0-1.7-0.8-1.7-1.7c0-1,0.8-1.7,1.7-1.7C87.3-194.7,88.1-193.9,88.1-193z"/>
                            <g >
                                <path fill="#E8E8E8"  d="M84.4-199.8c0,0,0-0.3-0.3-0.4s-6.5,3.8-3.5,9.8c3.1,6.3,10.4,3.4,10.4,2.5c0-0.4-0.6-0.3-0.6-0.3s-4.7-2-5.7-3.3C83.3-193.3,83.5-194.8,84.4-199.8z"/>
                                <path fill="#E8E8E8"  d="M97.8-184.4c0,0-0.3-0.1-0.4,0.1s0.1,7.5,6.8,7.9c7,0.4,8.1-7.4,7.3-7.9c-0.4-0.2-0.6,0.4-0.6,0.4s-4.4,3.1-6.5,3.8C104-180.2,101.6-181.2,97.8-184.4z"/>
                                <path fill="#E8E8E8"  d="M117.6-188.1c0,0-0.3,0.1-0.2,0.4s6.6,3.6,10.2-2c3.8-5.9-2.4-10.7-3.3-10.2c-0.4,0.2,0,0.7,0,0.7s0.5,5.4,0.1,7.5C124.3-191.5,122.4-189.9,117.6-188.1z"/>
                                <path fill="#E8E8E8"  d="M124.1-207.5c0,0,0,0.3,0.3,0.4c0.3,0.1,6.5-3.8,3.5-9.8c-3.1-6.3-10.4-3.4-10.4-2.5c0,0.4,0.8,0.6,0.8,0.6s4.7,2.1,6.3,3.5C124.7-215,124.9-212.3,124.1-207.5z"/>
                                <path fill="#E8E8E8"  d="M111-222.7c0,0,0.3,0.1,0.4-0.1s-0.1-7.5-6.8-7.9c-7-0.4-8.1,7.4-7.3,7.9c0.4,0.2,0.9-0.4,0.9-0.4s4.1-3.1,6.2-3.7C104.7-226.9,107.2-225.8,111-222.7z"/>
                                <path fill="#E8E8E8"  d="M90.6-219c0,0,0.2-0.2,0.2-0.4c-0.1-0.3-6.7-3.4-10.1,2.3c-3.6,6,2.8,10.6,3.6,10.1c0.4-0.2,0-1,0-1s-0.8-5-0.4-7.2C84-215.4,86.1-217,90.6-219z"/>
                                <path fill="#672E58"  d="M122.7-191.3c-0.9,0-1.7-0.8-1.7-1.7c0-0.9,0.8-1.7,1.7-1.7c0.9,0,1.6,0.7,1.7,1.6c0.4-1,0.6-2,0.6-3.1c0-3.3-2-6.2-4.9-7.4c2.7-1.3,4.6-4.1,4.6-7.3c0-0.9-0.2-1.8-0.4-2.6c-0.3,0.6-0.9,1-1.6,1c-0.9,0-1.7-0.8-1.7-1.7c0-0.9,0.8-1.7,1.7-1.7c0.1,0,0.2,0,0.3,0c-1.5-1.9-3.8-3.1-6.3-3.1c-1.6,0-3,0.5-4.3,1.2c0-0.2,0-0.5,0-0.7c0-4.4-3.5-8-7.9-8.1c0.8,0.1,1.5,0.8,1.5,1.7c0,0.9-0.8,1.7-1.7,1.7c-0.9,0-1.7-0.8-1.7-1.7c0-0.9,0.6-1.6,1.5-1.7c-4.4,0.1-7.9,3.7-7.9,8.1c0,0.4,0,0.7,0.1,1.1c-1.3-1-3-1.6-4.8-1.6c-2.7,0-5,1.3-6.5,3.3c0.2-0.1,0.5-0.2,0.8-0.2c0.9,0,1.7,0.8,1.7,1.7c0,0.9-0.8,1.7-1.7,1.7c-0.9,0-1.7-0.8-1.7-1.7c-0.5,1-0.7,2.1-0.7,3.3c0,3.3,2,6.1,4.8,7.4c-2.8,1.3-4.6,4.1-4.8,7.4c-0.3,4.6,3.3,8,8.1,8.1c1.8,0,3.4-0.6,4.7-1.5c0,0.2,0,0.5,0,0.7c0,4.2,3.1,7.6,7.2,8c-0.5-0.3-0.8-0.8-0.8-1.5c0-0.9,0.8-1.7,1.7-1.7c0.9,0,1.7,0.8,1.7,1.7c0,0.6-0.3,1.2-0.8,1.5c4.1-0.4,7.2-3.9,7.2-8c0-0.2,0-0.4,0-0.6c1.3,0.9,2.9,1.4,4.6,1.4c2.7,0,5.1-1.3,6.5-3.3C123.3-191.3,123-191.3,122.7-191.3z M88.1-193c0,1-0.8,1.7-1.7,1.7c-1,0-1.7-0.8-1.7-1.7c0-1,0.8-1.7,1.7-1.7C87.3-194.7,88.1-193.9,88.1-193z"/>
                                <g id="silkscreen" gorn="0.1.0.0.0.1.0.1.7" >
                                    <title >element:U$7</title>
                                    <g >
                                        <title >package:LOGO-LILYPAD</title>
                                        <path fill="none" stroke-linecap="round"  stroke="#FFFFFF" stroke-width="0.576" d="M101.9-196.3c0,2,1.6,3.7,3.7,3.7h0.4c1.1,0,1.9-0.8,2-1.8l0,0c0-0.5-0.4-0.9-0.8-0.9l0,0c0,0-0.3,0-0.3,0c-1.1,0-2,0.9-2,2c0,0,0,2,0,2v0l0,0c0,1.9-1.5,3.4-3.4,3.4l0,0c-0.7,0-1.2-0.5-1.3-1.1c0,0,0,0,0,0c-0.1-0.8,0.5-1.6,1.3-1.7c1.2-0.3,2.4,0.5,2.7,1.7c0.2,0.8,0.9,1.3,1.7,1.1l0,0"/>
                                    </g>
                                </g>
                                <g transform="matrix(1, 0, 0, 1, 7.488, 11.052)" >
                                    <g >
                                        <g >
                                            <g >
                                                <g >
                                                    <g transform="matrix(0.5, 0, 0, 0.5, 3.456, 5.274)" >
                                                        <g >
                                                            <g >
                                                                <g >
                                                                    <g >
                                                                        <rect x="162.4" fill="#8C8C8C" y="-456" height="4.1" width="15" />
                                                                        <rect x="162.4" fill="#8C8C8C" y="-447.4" height="4.1" width="15" />
                                                                        <rect x="162.4" fill="#8C8C8C" y="-438.8" height="4.1" width="15" />
                                                                        <rect x="162.4" fill="#8C8C8C" y="-430.2" height="4.1" width="15" />
                                                                        <rect x="197.9" fill="#8C8C8C" y="-430.2" height="4.1" width="15" />
                                                                        <rect x="197.9" fill="#8C8C8C" y="-438.8" height="4.1" width="15" />
                                                                        <rect x="197.9" fill="#8C8C8C" y="-447.4" height="4.1" width="15" />
                                                                        <rect x="197.9" fill="#8C8C8C" y="-456" height="4.1" width="15" />
                                                                        <rect x="175.4" fill="#303030" y="-457" height="32" width="24.4" />
                                                                        <polygon fill="#1F1F1F"  points="199.8,-457 199.8,-425 198.1,-426.7 198.1,-455.3 "/>
                                                                        <polygon fill="#1F1F1F"  points="175.4,-457 175.4,-425 177.1,-426.7 177.1,-455.3 "/>
                                                                        <polygon  points="199.8,-457 175.4,-457 177.1,-455.3 198.1,-455.3 "/>
                                                                        <polygon fill="#3D3D3D"  points="199.8,-425 175.4,-425 177.1,-426.7 198.1,-426.7 "/>
                                                                        <circle fill="#1F1F1F" cx="180.6" r="1.7" cy="-451.9" />
                                                                    </g>
                                                                </g>
                                                            </g>
                                                        </g>
                                                    </g>
                                                </g>
                                            </g>
                                        </g>
                                    </g>
                                </g>
                                <g transform="matrix(1, 0, 0, 1, 49.9992, 101.675)" >
                                    <g >
                                        <g >
                                            <g id="_x30_603-res_6_" gorn="0.1.0.0.0.1.0.1.9.0.0.0" >
                                                <g >
                                                    <g >
                                                        <rect x="50.5" fill="#333333" y="-318.4" height="2.8" width="8" />
                                                        <rect x="50.5" fill="#FFFFFF" enable-background="new    " y="-318.4" height="0" opacity="0.2" width="8" />
                                                        <rect x="50.5" enable-background="new    " y="-315.6" height="0" opacity="0.2" width="8" />
                                                    </g>
                                                    <g >
                                                        <path fill="#DCDCDC"  d="M57.3-318.4L57.3-318.4L57.3-318.4L57.3-318.4L57.3-318.4c-0.2,0.3-0.2,0.8-0.2,1.1c0,0.3,0,1.4,0.1,1.7l0,0l0,0h1.2v-2.7H57.3z"/>
                                                        <path fill="#DCDCDC"  d="M51.7-318.3v-0.1h-1.2v2.7h1.2c0.1-0.3,0.2-1.4,0.2-1.7C51.9-317.7,51.8-318,51.7-318.3z"/>
                                                        <path fill="#999999"  d="M58.4-315.6h-1.2l0-0.1h1.2L58.4-315.6z"/>
                                                        <path fill="#999999"  d="M50.5-315.6h1.2l0-0.1h-1.2L50.5-315.6z"/>
                                                        <rect x="50.5" fill="#FFFFFF" enable-background="new    " y="-318.4" height="0" opacity="0.5" width="1.2" />
                                                        <rect x="57.2" fill="#FFFFFF" enable-background="new    " y="-318.4" height="0" opacity="0.5" width="1.2" />
                                                        <line fill="none" y1="-315.6" y2="-315.6" x1="51.2"  x2="51.2"/>
                                                    </g>
                                                </g>
                                            </g>
                                        </g>
                                    </g>
                                </g>
                                <g >
                                    <g >
                                        <g >
                                            <rect x="100.6" fill="#A86F44" y="-220.8" height="2.7" width="7.7" />
                                            <rect x="100.6" fill="#FFFFFF" enable-background="new    " y="-220.8" height="0" opacity="0.2" width="7.7" />
                                            <rect x="100.6" enable-background="new    " y="-218.1" height="0" opacity="0.2" width="7.7" />
                                        </g>
                                        <g >
                                            <path fill="#DCDCDC"  d="M107.2-220.8L107.2-220.8L107.2-220.8L107.2-220.8L107.2-220.8c-0.2,0.2-0.2,0.8-0.2,1c0,0.3,0,1.4,0.1,1.6l0,0l0,0h1.2v-2.7L107.2-220.8L107.2-220.8z"/>
                                            <path fill="#DCDCDC"  d="M101.8-220.7v-0.1h-1.2v2.7h1.2c0.1-0.3,0.2-1.3,0.2-1.6C102-220.1,101.9-220.4,101.8-220.7z"/>
                                            <path fill="#999999"  d="M108.3-218h-1.2l0-0.1h1.2L108.3-218z"/>
                                            <path fill="#999999"  d="M100.6-218h1.2l0-0.1h-1.2L100.6-218z"/>
                                            <rect x="100.6" fill="#FFFFFF" enable-background="new    " y="-220.8" height="0" opacity="0.5" width="1.2" />
                                            <rect x="107.1" fill="#FFFFFF" enable-background="new    " y="-220.8" height="0" opacity="0.5" width="1.2" />
                                            <line fill="none" y1="-218.1" y2="-218.1" x1="101.3"  x2="101.3"/>
                                        </g>
                                    </g>
                                </g>
                                <g >
                                    <g display="none" >
                                        <title >element:U$1</title>
                                        <g display="inline" >
                                            <title >package:SEWTAP-SMALL</title>
                                            <g >
                                                <title >polygon</title>
                                                <g >
                                                    <path fill="#E8E8E8"  d="M124.3-207.2C124.3-207.2,124.3-207.2,124.3-207.2C124.2-207.2,124.2-207.2,124.3-207.2L124.3-207.2C124.2-207.2,124.2-207.2,124.3-207.2L124.3-207.2C124.2-207.2,124.2-207.2,124.3-207.2L124.3-207.2l-0.1,0l0,0h0l0,0c0,0,0,0,0,0l0,0c0,0,0,0,0,0l0,0c0,0,0,0,0,0h0c0,0-0.1,0-0.1,0c0,0,0,0-0.1-0.1l0,0l0,0c0,0,0,0,0,0l0,0l0,0c0,0,0-0.1,0-0.1c0,0,0-0.1,0-0.1l0,0l0,0c0,0,0,0,0,0l0.4-1.1l0.2-1.1l0.1-1.2l-0.1-1.2l-0.3-1.1l0.2-1.1l-0.3-1l-1.6-0.9l-0.8-0.8l-1-0.7l-1-0.5l-1.1-0.4l-1.2-0.2c0,0-0.1,0-0.1,0c0,0-0.1,0-0.1-0.1c0,0,0,0,0,0l0,0l0,0c0,0,0-0.1,0-0.1l0,0l0,0l0,0l0,0c0,0,0-0.1,0-0.1l0,0l0,0l0,0l0,0c0,0,0,0,0,0l0,0l0,0c0,0,0-0.1,0-0.1c0,0,0.1-0.1,0.1-0.1h0l0,0c0,0,0,0,0,0l0.9-0.5c0,0,0,0,0,0c0,0,0,0,0,0l0.9-0.4c0,0,0,0,0,0c0,0,0,0,0,0l1-0.2c0,0,0,0,0,0c0,0,0,0,0,0l1-0.1c0,0,0,0,0,0c0,0,0,0,0,0l1,0.1c0,0,0,0,0,0c0,0,0,0,0,0l1,0.2c0,0,0,0,0,0c0,0,0,0,0,0l0.9,0.4c0,0,0,0,0,0c0,0,0,0,0,0l0.9,0.5c0,0,0,0,0,0c0,0,0,0,0,0l0.8,0.6c0,0,0,0,0,0c0,0,0,0,0,0l0.7,0.8c0,0,0,0,0,0c0,0,0,0,0,0l0.6,0.9c0,0,0,0,0,0c0,0,0,0,0,0l0.5,0.9c0,0,0,0,0,0c0,0,0,0,0,0l0.3,1c0,0,0,0,0,0c0,0,0,0,0,0l0.2,1c0,0,0,0,0,0c0,0,0,0,0,0l0,1c0,0,0,0,0,0c0,0,0,0,0,0l-0.1,1c0,0,0,0,0,0c0,0,0,0,0,0l-0.3,1c0,0,0,0,0,0c0,0,0,0,0,0l-0.4,0.9c0,0,0,0,0,0c0,0,0,0,0,0l-0.6,0.8c0,0,0,0,0,0c0,0,0,0,0,0l-0.7,0.7c0,0,0,0,0,0c0,0,0,0,0,0l-0.8,0.6c0,0,0,0,0,0c0,0,0,0,0,0l-0.9,0.5C124.4-207.2,124.4-207.2,124.3-207.2C124.4-207.2,124.4-207.2,124.3-207.2L124.3-207.2C124.3-207.2,124.3-207.2,124.3-207.2z"/>
                                                </g>
                                            </g>
                                        </g>
                                    </g>
                                    <path fill="#E8E8E8" display="none"  d="M111.4-184C111.4-184,111.4-184.1,111.4-184c0,0,0-0.1,0-0.1c0,0,0-0.1-0.1-0.1c0,0,0,0,0,0h0c0,0-0.1,0-0.1,0c0,0,0,0,0,0c0,0,0,0-0.1,0c0,0,0,0,0,0c0,0,0,0,0,0c0,0-0.1,0-0.1,0c0,0-0.1,0-0.1,0.1l-0.8,0.9l-0.9,0.8l-1,0.6l-1.1,0.5l-1.1,0.3l-1.2,0.8l-1.2,0l-1.2-0.8l-1.1-0.3l-1.1-0.5l-1-0.6l-0.9-0.8l-0.8-0.9c0,0-0.1-0.1-0.1-0.1c0,0-0.1,0-0.1,0c0,0,0,0,0,0s0,0,0,0l0,0c0,0-0.1,0-0.1,0c0,0-0.1,0-0.1,0.1c0,0-0.1,0.1-0.1,0.1c0,0,0,0.1,0,0.1c0,0,0,0,0,0l0,1c0,0,0,0,0,0c0,0,0,0,0,0l0.1,1c0,0,0,0,0,0c0,0,0,0,0,0l0.3,1c0,0,0,0,0,0c0,0,0,0,0,0l0.4,0.9c0,0,0,0,0,0c0,0,0,0,0,0l0.6,0.8c0,0,0,0,0,0c0,0,0,0,0,0l0.7,0.7c0,0,0,0,0,0c0,0,0,0,0,0l0.8,0.6c0,0,0,0,0,0c0,0,0,0,0,0l0.9,0.5c0,0,0,0,0,0c0,0,0,0,0,0l1,0.4c0,0,0,0,0,0c0,0,0,0,0,0l1,0.2c0,0,0,0,0,0c0,0,0,0,0,0l1,0.1c0,0,0,0,0,0l0,0c0,0,0,0,0,0l1-0.1c0,0,0,0,0,0c0,0,0,0,0,0l1-0.2c0,0,0,0,0,0c0,0,0,0,0,0l1-0.4c0,0,0,0,0,0c0,0,0,0,0,0l0.9-0.5c0,0,0,0,0,0c0,0,0,0,0,0l0.8-0.6c0,0,0,0,0,0c0,0,0,0,0,0l0.7-0.7c0,0,0,0,0,0c0,0,0,0,0,0l0.6-0.8c0,0,0,0,0,0c0,0,0,0,0,0l0.4-0.9c0,0,0,0,0,0c0,0,0,0,0,0l0.3-1c0,0,0,0,0,0c0,0,0,0,0,0l0.1-1c0,0,0,0,0,0c0,0,0,0,0,0L111.4-184z"/>
                                    <g display="none" >
                                        <title >package:SEWTAP-SMALL</title>
                                        <g display="inline" >
                                            <title >polygon</title>
                                            <g >
                                                <path fill="#E8E8E8"  d="M84-207.2C84-207.2,84-207.2,84-207.2L84-207.2L84-207.2c-0.1,0-0.1,0-0.1,0l0,0c0,0,0,0,0,0l0,0c0,0,0,0,0,0l-0.9-0.5c0,0,0,0,0,0c0,0,0,0,0,0l-0.8-0.6c0,0,0,0,0,0c0,0,0,0,0,0l-0.7-0.7c0,0,0,0,0,0c0,0,0,0,0,0l-0.6-0.8c0,0,0,0,0,0c0,0,0,0,0,0l-0.4-0.9c0,0,0,0,0,0c0,0,0,0,0,0l-0.3-1c0,0,0,0,0,0c0,0,0,0,0,0l-0.2-1c0,0,0,0,0,0c0,0,0,0,0,0l0-1c0,0,0,0,0,0c0,0,0,0,0,0l0.2-1c0,0,0,0,0,0l0,0l0,0c0,0,0,0,0,0l0.3-1c0,0,0,0,0,0c0,0,0,0,0,0l0.5-0.9c0,0,0,0,0,0c0,0,0,0,0,0l0.6-0.9c0,0,0,0,0,0c0,0,0,0,0,0l0.7-0.8c0,0,0,0,0,0c0,0,0,0,0,0l0.8-0.6c0,0,0,0,0,0c0,0,0,0,0,0l0.9-0.5c0,0,0,0,0,0s0,0,0,0l0.9-0.4c0,0,0,0,0,0c0,0,0,0,0,0l1-0.2c0,0,0,0,0,0c0,0,0,0,0,0l1-0.1c0,0,0,0,0,0c0,0,0,0,0,0l1,0.1c0,0,0,0,0,0c0,0,0,0,0,0l1,0.2c0,0,0,0,0,0c0,0,0,0,0,0l0.9,0.4c0,0,0,0,0,0c0,0,0,0,0,0l0.9,0.5c0,0,0,0,0,0l0,0l0,0c0,0,0.1,0,0.1,0.1c0,0,0,0.1,0,0.1l0,0l0,0c0,0,0,0,0,0l0,0l0,0c0,0,0,0,0,0.1l0,0l0,0c0,0,0,0.1,0,0.1c0,0,0,0.1-0.1,0.1c0,0-0.1,0-0.1,0l-1.2,0.2l-1.1,0.4l-1,0.5l-1,0.7l-0.8,0.8l-1.4,0.7l-0.6,1.3l0.2,1.1l-0.3,1.1l-0.1,1.2l0.1,1.2l0.2,1.1l0.4,1.1c0,0,0,0,0,0l0,0l0,0c0,0,0,0.1,0,0.1c0,0,0,0.1,0,0.1l0,0l0,0c0,0,0,0,0,0l0,0l0,0l0,0l0,0c0,0,0,0,0,0l0,0c0,0,0,0,0,0l0,0c0,0,0,0,0,0l0,0v0l0,0c0,0,0,0,0,0l0,0c0,0,0,0,0,0l0,0l0,0c0,0,0,0.1-0.1,0.1c0,0-0.1,0-0.1,0.1l0,0c0,0,0,0,0,0l0,0c0,0,0,0,0,0l0,0h0l0,0c0,0,0,0,0,0l0,0c0,0,0,0,0,0l0,0c0,0,0,0,0,0l0,0C84.1-207.2,84.1-207.2,84-207.2L84-207.2L84-207.2C84.1-207.2,84-207.2,84-207.2z"/>
                                            </g>
                                        </g>
                                    </g>
                                    <g display="none" >
                                        <title >package:SEWTAP-SMALL</title>
                                        <g display="inline" >
                                            <title >polygon</title>
                                            <g >
                                                <path fill="#E8E8E8"  d="M111.1-222.9c0,0-0.1,0-0.1,0l0,0l0,0c0,0-0.1,0-0.1-0.1l0,0c0,0,0,0,0,0l-0.8-0.9l-0.9-0.8l-1-0.6l-1.1-0.5l-1.1-0.3l-1.2-0.8h-1.2l-1.2,0.8l-1.1,0.3l-1.1,0.5l-1,0.6l-0.9,0.8l-0.8,0.9c0,0,0,0,0,0l0,0c0,0-0.1,0.1-0.1,0.1c0,0-0.1,0-0.1,0c0,0-0.1,0-0.1,0l0,0h0c0,0,0,0-0.1,0l0,0c0,0,0,0,0,0l0,0c0,0,0,0,0,0c0,0-0.1-0.1-0.1-0.1c0,0,0-0.1,0-0.1c0,0,0,0,0,0l0-1c0,0,0,0,0,0c0,0,0,0,0,0l0.1-1c0,0,0,0,0,0c0,0,0,0,0,0l0.3-1c0,0,0,0,0,0c0,0,0,0,0,0l0.4-0.9c0,0,0,0,0,0c0,0,0,0,0,0l0.6-0.8c0,0,0,0,0,0c0,0,0,0,0,0l0.7-0.7c0,0,0,0,0,0c0,0,0,0,0,0l0.8-0.6c0,0,0,0,0,0c0,0,0,0,0,0l0.9-0.5c0,0,0,0,0,0c0,0,0,0,0,0l1-0.4c0,0,0,0,0,0c0,0,0,0,0,0l1-0.2c0,0,0,0,0,0c0,0,0,0,0,0l1-0.1c0,0,0,0,0,0c0,0,0,0,0,0l1,0.1c0,0,0,0,0,0c0,0,0,0,0,0l1,0.2c0,0,0,0,0,0c0,0,0,0,0,0l1,0.4c0,0,0,0,0,0c0,0,0,0,0,0l0.9,0.5c0,0,0,0,0,0c0,0,0,0,0,0l0.8,0.6c0,0,0,0,0,0c0,0,0,0,0,0l0.7,0.7c0,0,0,0,0,0c0,0,0,0,0,0l0.6,0.8c0,0,0,0,0,0c0,0,0,0,0,0l0.4,0.9c0,0,0,0,0,0c0,0,0,0,0,0l0.3,1c0,0,0,0,0,0l0,0l0,0c0,0,0,0,0,0l0.1,1c0,0,0,0,0,0c0,0,0,0,0,0l0,1c0,0,0,0,0,0c0,0,0,0.1,0,0.1c0,0,0,0.1-0.1,0.1c0,0,0,0,0,0l0,0c0,0,0,0,0,0l0,0c0,0-0.1,0-0.1,0c0,0,0,0,0,0h0C111.2-222.9,111.2-222.9,111.1-222.9z"/>
                                            </g>
                                        </g>
                                    </g>
                                    <g display="none" >
                                        <title >package:SEWTAP-SMALL</title>
                                        <g display="inline" >
                                            <title >polygon</title>
                                            <g >
                                                <path fill="#E8E8E8"  d="M121.7-186.4C121.7-186.4,121.7-186.4,121.7-186.4l-1-0.1c0,0,0,0,0,0c0,0,0,0,0,0l-1-0.2c0,0,0,0,0,0c0,0,0,0,0,0l-0.9-0.4c0,0,0,0,0,0c0,0,0,0,0,0l-0.9-0.5c0,0,0,0,0,0c0,0,0,0,0,0l0,0c0,0-0.1,0-0.1-0.1c0,0,0-0.1,0-0.1l0,0c0,0,0,0,0,0c0,0,0,0,0,0v0l0,0l0,0l0,0c0,0,0-0.1,0-0.1l0,0l0,0c0,0,0,0,0,0l0,0c0,0,0-0.1,0-0.1l0,0l0,0c0,0,0,0,0,0c0,0,0-0.1,0.1-0.1c0,0,0.1,0,0.1,0l1.2-0.2l1.1-0.4l1-0.5l1-0.7l0.8-0.8l1.9-0.9l0.5-1l-0.7-1.1l0.3-1.1l0.1-1.2l-0.1-1.2l-0.2-1.2l-0.4-1.1c0,0,0,0,0,0l0,0v0c0,0,0-0.1,0-0.1c0,0,0-0.1,0-0.1l0,0l0,0c0,0,0,0,0,0l0,0c0,0,0,0,0,0l0,0l0,0c0,0,0,0,0.1-0.1v0l0,0c0,0,0.1,0,0.1-0.1c0,0,0.1,0,0.1,0c0,0,0.1,0,0.1,0c0,0,0,0,0,0c0,0,0,0,0,0c0,0,0,0,0,0l0.9,0.5c0,0,0,0,0,0c0,0,0,0,0,0l0.8,0.6c0,0,0,0,0,0c0,0,0,0,0,0l0.7,0.7c0,0,0,0,0,0c0,0,0,0,0,0l0.6,0.8c0,0,0,0,0,0c0,0,0,0,0,0l0.4,0.9c0,0,0,0,0,0c0,0,0,0,0,0l0.3,1c0,0,0,0,0,0c0,0,0,0,0,0l0.1,1c0,0,0,0,0,0c0,0,0,0,0,0l0,1c0,0,0,0,0,0c0,0,0,0,0,0l-0.2,1c0,0,0,0,0,0l0,0c0,0,0,0,0,0c0,0,0,0,0,0l-0.3,1c0,0,0,0,0,0c0,0,0,0,0,0l-0.5,0.9c0,0,0,0,0,0c0,0,0,0,0,0l-0.6,0.9c0,0,0,0,0,0c0,0,0,0,0,0l-0.7,0.8c0,0,0,0,0,0c0,0,0,0,0,0l-0.8,0.6c0,0,0,0,0,0c0,0,0,0,0,0l-0.9,0.5c0,0,0,0,0,0c0,0,0,0,0,0l-0.9,0.4c0,0,0,0,0,0c0,0,0,0,0,0l-1,0.2c0,0,0,0,0,0c0,0,0,0,0,0L121.7-186.4C121.7-186.4,121.7-186.4,121.7-186.4z"/>
                                            </g>
                                        </g>
                                    </g>
                                    <g display="none" >
                                        <title >package:SEWTAP-NOHOLE</title>
                                        <g display="inline" >
                                            <title >polygon</title>
                                            <g >
                                                <path fill="#E8E8E8"  d="M87-186.4c-3.5,0-5.9-2.4-7-5.6c-0.3-1.9-0.1-3.4,0.7-5.1c0.3-0.7,0.9-1.2,1.4-1.8c0.1-0.1,2-1.4,2-1.2c0,0,0.1,0.1,0.1,0.1c0,0.1,0,0.1,0,0.2c-0.9,2.6-0.9,5.1,0.5,7.5c0.7,1.1,1.6,2.1,2.8,2.8c0.5,0.3,3.5,1.1,3.5,1.4c0,0,0,0,0,0.1C90.6-186.8,88-186.3,87-186.4z"/>
                                            </g>
                                        </g>
                                    </g>
                                </g>
                                <g >
                                    <title >layer 21</title>
                                    <g >
                                        <title >text:+</title>
                                        <g transform="matrix(1, 0, 0, 1, 41.7449, 38.3435)" >
                                            <g >
                                                <g >
                                                    <g >
                                                        <g transform="matrix(1 0 0 1 42.4384 -259.2117)" >
                                                            <g >
                                                                <g >
                                                                    <text fill="#FFFFFF" font-size="4.176"  font-family="OCRA">+</text>
                                                                </g>
                                                            </g>
                                                        </g>
                                                    </g>
                                                </g>
                                            </g>
                                        </g>
                                    </g>
                                    <g >
                                        <title >text:-</title>
                                        <g transform="matrix(1, 0, 0, 1, 41.6687, 21.5427)" >
                                            <g >
                                                <g >
                                                    <g >
                                                        <g transform="matrix(1 0 0 1 36.158 -219.5721)" >
                                                            <g >
                                                                <g >
                                                                    <text fill="#FFFFFF" font-size="4.176"  font-family="OCRA">-</text>
                                                                </g>
                                                            </g>
                                                        </g>
                                                    </g>
                                                </g>
                                            </g>
                                        </g>
                                    </g>
                                    <g >
                                        <title >text:X</title>
                                        <g transform="matrix(1, 0, 0, 1, 31.2498, 47.4734)" >
                                            <g >
                                                <g >
                                                    <g >
                                                        <g transform="matrix(1 0 0 1 86.5538 -229.8142)" >
                                                            <g >
                                                                <g >
                                                                    <text fill="#FFFFFF" font-size="4.176"  font-family="OCRA">1</text>
                                                                </g>
                                                            </g>
                                                        </g>
                                                    </g>
                                                </g>
                                            </g>
                                        </g>
                                    </g>
                                    <g >
                                        <title >text:Y</title>
                                        <g transform="matrix(1, 0, 0, 1, 9.1013, 24.3435)" >
                                            <g >
                                                <g >
                                                    <g >
                                                        <g transform="matrix(1 0 0 1 101.9564 -250.6556)" >
                                                            <g >
                                                                <g >
                                                                    <text fill="#FFFFFF" font-size="4.176"  font-family="OCRA">3</text>
                                                                </g>
                                                            </g>
                                                        </g>
                                                    </g>
                                                </g>
                                            </g>
                                        </g>
                                    </g>
                                    <g >
                                        <title >text:Y</title>
                                        <g transform="matrix(1, 0, 0, 1, 9.1013, 24.3435)" >
                                            <g >
                                                <g >
                                                    <g >
                                                        <g transform="matrix(1 0 0 1 84.7534 -203.4368)" >
                                                            <g >
                                                                <g >
                                                                    <text fill="#FFFFFF" font-size="4.176"  font-family="OCRA">0</text>
                                                                </g>
                                                            </g>
                                                        </g>
                                                    </g>
                                                </g>
                                            </g>
                                        </g>
                                    </g>
                                    <g >
                                        <title >text:Z</title>
                                        <g transform="matrix(1, 0, 0, 1, 22.6765, 12.8098)" >
                                            <g >
                                                <g >
                                                    <g >
                                                        <g transform="matrix(1 0 0 1 106.044 -220.5151)" >
                                                            <g >
                                                                <g >
                                                                    <text fill="#FFFFFF" font-size="4.176"  font-family="OCRA">2</text>
                                                                </g>
                                                            </g>
                                                        </g>
                                                    </g>
                                                </g>
                                            </g>
                                        </g>
                                    </g>
                                    <g >
                                        <title >element:C1</title>
                                        <g >
                                            <title >package:C0402</title>
                                        </g>
                                    </g>
                                    <g >
                                        <title >element:C2</title>
                                        <g >
                                            <title >package:C0402</title>
                                        </g>
                                    </g>
                                    <g >
                                        <title >element:C3</title>
                                        <g >
                                            <title >package:C0402</title>
                                        </g>
                                    </g>
                                    <g >
                                        <title >element:C4</title>
                                        <g >
                                            <title >package:C0402</title>
                                        </g>
                                    </g>
                                    <g >
                                        <title >element:C5</title>
                                        <g >
                                            <title >package:C0402</title>
                                        </g>
                                    </g>
                                    <g >
                                        <title >element:R1</title>
                                        <g >
                                            <title >package:C0402</title>
                                        </g>
                                    </g>
                                    <g >
                                        <title >element:U$1</title>
                                        <g >
                                            <title >package:SEWTAP-SMALL</title>
                                        </g>
                                    </g>
                                    <g >
                                        <title >element:U$2</title>
                                        <g >
                                            <title >package:SEWTAP-SMALL</title>
                                        </g>
                                    </g>
                                    <g >
                                        <title >element:U$3</title>
                                        <g >
                                            <title >package:SEWTAP-SMALL</title>
                                        </g>
                                    </g>
                                    <g >
                                        <title >element:U$4</title>
                                        <g >
                                            <title >package:LOGO-LILYPAD</title>
                                        </g>
                                    </g>
                                    <g >
                                        <title >element:U$5</title>
                                        <g >
                                            <title >package:SEWTAP-SMALL</title>
                                        </g>
                                    </g>
                                    <g >
                                        <title >element:U$6</title>
                                        <g >
                                            <title >package:SEWTAP-SMALL</title>
                                        </g>
                                    </g>
                                    <g >
                                        <title >element:U$13</title>
                                        <g >
                                            <title >package:SEWTAP-NOHOLE</title>
                                        </g>
                                    </g>
                                </g>
                            </g>
                            <circle fill="none" id="connector4pin" cx="122.7" r="2.1" gorn="0.1.0.0.0.1.0.2" cy="-214.2"  stroke="#9A916C" stroke-width="0.864"/>
                            <circle fill="none" id="connector2pin" cx="104.3" r="2.1" gorn="0.1.0.0.0.1.0.3" cy="-182.3"  stroke="#9A916C" stroke-width="0.864"/>
                            <circle fill="none" id="connector0pin" cx="85.9" r="2.1" gorn="0.1.0.0.0.1.0.4" cy="-214.2"  stroke="#9A916C" stroke-width="0.864"/>
                            <circle fill="none" id="connector1pin" cx="86.3" r="2.1" gorn="0.1.0.0.0.1.0.5" cy="-193"  stroke="#9A916C" stroke-width="0.864"/>
                            <circle fill="none" id="connector5pin" cx="104.3" r="2.1" gorn="0.1.0.0.0.1.0.6" cy="-224.9"  stroke="#9A916C" stroke-width="0.864"/>
                            <circle fill="none" id="connector3pin" cx="122.7" r="2.1" gorn="0.1.0.0.0.1.0.7" cy="-193"  stroke="#9A916C" stroke-width="0.864"/>
                        </g>
                    </g>
                </g>
            </g>
        </g>
    </g>
</svg>
