<?xml version='1.0' encoding='UTF-8' standalone='no'?>
<!-- Generator: Adobe Illustrator 16.0.0, SVG Export Plug-In . SVG Version: 6.00 Build 0)  -->
<svg xmlns="http://www.w3.org/2000/svg" y="0px" viewBox="0 0 56.693 56.693" id="Ebene_1" gorn="0" height="0.787403in"  version="1.1" width="0.787403in" xml:space="preserve" xmlns:xml="http://www.w3.org/XML/1998/namespace" enable-background="new 0 0 56.693 56.693" x="0px">
    <desc >
        <referenceFile >Tricolor-LED v16_breadboard_FRITZING.svg</referenceFile>
    </desc>
    <metadata id="metadata535" >
        <rdf:RDF xmlns:rdf="http://www.w3.org/1999/02/22-rdf-syntax-ns#">
            <cc:Work xmlns:cc="http://creativecommons.org/ns#" xmlns:rdf="http://www.w3.org/1999/02/22-rdf-syntax-ns#" rdf:about="">
                <dc:format xmlns:dc="http://purl.org/dc/elements/1.1/">image/svg+xml</dc:format>
                <dc:type xmlns:dc="http://purl.org/dc/elements/1.1/" rdf:resource="http://purl.org/dc/dcmitype/StillImage" xmlns:rdf="http://www.w3.org/1999/02/22-rdf-syntax-ns#"/>
                <dc:title xmlns:dc="http://purl.org/dc/elements/1.1/"/>
            </cc:Work>
        </rdf:RDF>
    </metadata>
    <defs id="defs533" />
    <desc id="desc2" >Fritzing breadboard generated by brd2svg</desc>
    <g id="breadboard" gorn="0.4" >
        <g id="icon" gorn="0.4.0" >
            <path id="path4" gorn="0.4.0.0" style="fill:#b0938f;fill-opacity:1"  d="m 0,28.346 c -0.029,15.655 12.638,28.37 28.293,28.399 15.656,0.029 28.371,-12.638 28.4,-28.293 0,-0.035 0,-0.071 0,-0.106 C 56.722,12.691 44.055,-0.024 28.4,-0.053 12.745,-0.082 0.029,12.585 0,28.24 c 0,0.035 0,0.071 0,0.106 z m 8.23,10.657 c 0,-0.93 0.753,-1.685 1.684,-1.685 0.93,-10e-4 1.684,0.753 1.685,1.683 0,0.001 0,0.001 0,0.002 0,0.93 -0.753,1.684 -1.683,1.685 -0.931,0 -1.685,-0.753 -1.686,-1.683 0,-0.001 0,-0.002 0,-0.002 z m 36.864,0 c 0,-0.93 0.754,-1.684 1.684,-1.684 0.931,0 1.685,0.754 1.685,1.684 0,0.93 -0.754,1.684 -1.685,1.684 -0.93,-10e-4 -1.684,-0.755 -1.684,-1.684 z M 26.663,49.587 c -0.001,-0.93 0.753,-1.685 1.683,-1.685 0.93,-10e-4 1.685,0.753 1.685,1.683 0,10e-4 0,10e-4 0,0.002 0.001,0.93 -0.753,1.684 -1.683,1.685 -0.93,0 -1.685,-0.753 -1.685,-1.683 0,-10e-4 0,-0.002 0,-0.002 z m 0,-42.481 c -0.001,-0.93 0.753,-1.684 1.683,-1.685 0.93,0 1.685,0.753 1.685,1.683 0,0.001 0,0.002 0,0.002 0.001,0.93 -0.753,1.685 -1.683,1.685 -0.93,10e-4 -1.685,-0.753 -1.685,-1.683 0,-10e-4 0,-10e-4 0,-0.002 z"/>
            <path id="path6" gorn="0.4.0.1" style="display:inline;fill:#672e58;fill-opacity:1"  d="m 45.545,28.272 c 2.421,-1.513 4.037,-4.194 4.037,-7.259 0,-4.729 -3.834,-8.563 -8.563,-8.563 -1.5,0 -2.907,0.388 -4.134,1.065 C 36.647,9 32.921,5.409 28.346,5.409 23.771,5.409 20.045,9 19.806,13.515 18.58,12.838 17.173,12.45 15.673,12.45 c -4.729,0 -8.563,3.833 -8.563,8.563 0,3.065 1.615,5.746 4.036,7.259 -2.421,1.512 -4.036,4.194 -4.036,7.259 0,4.729 3.833,8.562 8.563,8.562 1.498,0 2.905,-0.387 4.13,-1.063 0.198,4.362 3.654,7.866 7.995,8.142 -0.659,-0.228 -1.136,-0.847 -1.136,-1.583 0,-10e-4 0,-0.002 0,-0.002 -10e-4,-0.93 0.753,-1.685 1.683,-1.685 0.93,-10e-4 1.685,0.753 1.685,1.683 0,10e-4 0,10e-4 0,0.002 10e-4,0.737 -0.476,1.356 -1.136,1.585 4.341,-0.275 7.797,-3.779 7.995,-8.142 1.225,0.676 2.632,1.063 4.13,1.063 4.729,0 8.563,-3.833 8.563,-8.562 0,-3.065 -1.616,-5.747 -4.037,-7.259 z M 11.598,39.003 c 0,0.93 -0.753,1.684 -1.683,1.685 -0.931,0 -1.685,-0.753 -1.686,-1.683 0,-0.001 0,-0.002 0,-0.002 0,-0.93 0.753,-1.685 1.684,-1.685 0.93,-10e-4 1.684,0.753 1.685,1.683 0,0.001 0,0.001 0,0.002 z M 30.03,7.106 c 10e-4,0.93 -0.753,1.685 -1.683,1.685 -0.93,10e-4 -1.685,-0.753 -1.685,-1.683 0,-10e-4 0,-10e-4 0,-0.002 -10e-4,-0.93 0.753,-1.684 1.683,-1.685 0.93,0 1.685,0.753 1.685,1.683 0,0.001 0,0.002 0,0.002 z m 18.433,31.897 c 0,0.93 -0.754,1.684 -1.685,1.684 -0.93,0 -1.684,-0.754 -1.684,-1.684 0,-0.93 0.754,-1.684 1.684,-1.684 0.931,0 1.685,0.754 1.685,1.684 z"/>
            <g id="g154" gorn="0.4.0.2" style="display:inline" >
                <title id="title8" >layer 21</title>
                <g id="g14" gorn="0.4.0.2.1" >
                    <title id="title10" >text:R</title>
                    <g id="text12" gorn="0.4.0.2.1.1" style="font-size:4.17600012px;font-family:OCRA;fill:#ffffff"  font-size="4.176">
                        <text y="37.525749" id="tspan1396" gorn="0.4.0.2.1.1.0" style="font-style:normal;font-variant:normal;font-weight:normal;font-stretch:normal;font-size:6.66666651px;font-family:OCRA;-inkscape-font-specification:'OCRA, Normal';font-variant-ligatures:normal;font-variant-caps:normal;font-variant-numeric:normal;font-feature-settings:normal;text-align:start;writing-mode:lr-tb;text-anchor:start"  x="13.440172">R</text>
                    </g>
                </g>
                <g id="g20" gorn="0.4.0.2.2" >
                    <title id="title16" >text:B</title>
                    <g id="text18" gorn="0.4.0.2.2.1" style="font-size:4.17600012px;font-family:OCRA;fill:#ffffff"  font-size="4.176">
                        <text y="45.036369" id="tspan1394" gorn="0.4.0.2.2.1.0" style="font-style:normal;font-variant:normal;font-weight:normal;font-stretch:normal;font-size:6.66666651px;font-family:OCRA;-inkscape-font-specification:'OCRA, Normal';font-variant-ligatures:normal;font-variant-caps:normal;font-variant-numeric:normal;font-feature-settings:normal;text-align:start;writing-mode:lr-tb;text-anchor:start"  x="25.759962">G</text>
                    </g>
                </g>
                <g id="g26" gorn="0.4.0.2.3" >
                    <title id="title22" >text:G</title>
                    <g id="text24" gorn="0.4.0.2.3.1" style="font-size:4.17600012px;font-family:OCRA;fill:#ffffff"  font-size="4.176">
                        <text y="37.48579" id="tspan1392" gorn="0.4.0.2.3.1.0" style="font-style:normal;font-variant:normal;font-weight:normal;font-stretch:normal;font-size:6.66666651px;font-family:OCRA;-inkscape-font-specification:'OCRA, Normal';font-variant-ligatures:normal;font-variant-caps:normal;font-variant-numeric:normal;font-feature-settings:normal;text-align:start;writing-mode:lr-tb;text-anchor:start"  x="38.376572">B</text>
                    </g>
                </g>
                <g id="g32" gorn="0.4.0.2.4" >
                    <title id="title28" >text:+</title>
                    <g id="text30" gorn="0.4.0.2.4.1" style="font-size:4.67710018px;font-family:OCRA;fill:#ffffff"  font-size="4.6771">
                        <text y="15.8962" id="tspan1390" gorn="0.4.0.2.4.1.0" style="font-style:normal;font-variant:normal;font-weight:normal;font-stretch:normal;font-size:6.66666651px;font-family:OCRA;-inkscape-font-specification:'OCRA, Normal';font-variant-ligatures:normal;font-variant-caps:normal;font-variant-numeric:normal;font-feature-settings:normal;text-align:start;writing-mode:lr-tb;text-anchor:start"  x="26.428953">-</text>
                    </g>
                </g>
                <g  transform="matrix(1.9966411,0,0,1.4809262,-28.301224,-13.716387)">
                    <g >
                        <g >
                            <g id="g72" gorn="0.4.0.2.5.0.0.0" >
                                <title id="title52" >element:D1</title>
                                <g  transform="matrix(0,1,-0.96735699,0,55.7672,-5.01e-4)">
                                    <g >
                                        <g >
                                            <g id="g70" gorn="0.4.0.2.5.0.0.0.1.0.0.0" >
                                                <title id="title54" >package:LED-TRICOLOR-SMD</title>
                                                <line fill="none" id="line56" gorn="0.4.0.2.5.0.0.0.1.0.0.0.1" style="stroke-linecap:round"  x1="32.032001" y1="32.030998" y2="32.030998" stroke-width="0.57599998" stroke="#ffffff" x2="32.882"/>
                                                <line fill="none" id="line58" gorn="0.4.0.2.5.0.0.0.1.0.0.0.2" style="stroke-linecap:round"  x1="32.882" y1="32.030998" y2="24.660999" stroke-width="0.57599998" stroke="#ffffff" x2="32.882"/>
                                                <line fill="none" id="line60" gorn="0.4.0.2.5.0.0.0.1.0.0.0.3" style="stroke-linecap:round"  x1="32.882" y1="24.660999" y2="24.660999" stroke-width="0.57599998" stroke="#ffffff" x2="32.032001"/>
                                                <line fill="none" id="line62" gorn="0.4.0.2.5.0.0.0.1.0.0.0.4" style="stroke-linecap:round"  x1="24.662001" y1="32.030998" y2="32.030998" stroke-width="0.57599998" stroke="#ffffff" x2="23.811001"/>
                                                <line fill="none" id="line64" gorn="0.4.0.2.5.0.0.0.1.0.0.0.5" style="stroke-linecap:round"  x1="23.811001" y1="32.030998" y2="24.660999" stroke-width="0.57599998" stroke="#ffffff" x2="23.811001"/>
                                                <line fill="none" id="line66" gorn="0.4.0.2.5.0.0.0.1.0.0.0.6" style="stroke-linecap:round"  x1="23.811001" y1="24.660999" y2="24.660999" stroke-width="0.57599998" stroke="#ffffff" x2="24.662001"/>
                                            </g>
                                        </g>
                                    </g>
                                </g>
                            </g>
                        </g>
                    </g>
                </g>
                <g id="g80" gorn="0.4.0.2.6" >
                    <title id="title74" >element:R1</title>
                    <g id="g78" gorn="0.4.0.2.6.1" >
                        <title id="title76" >package:0402-RES</title>
                    </g>
                </g>
                <g id="g88" gorn="0.4.0.2.7" >
                    <title id="title82" >element:R2</title>
                    <g id="g86" gorn="0.4.0.2.7.1" >
                        <title id="title84" >package:0402-RES</title>
                    </g>
                </g>
                <g id="g96" gorn="0.4.0.2.8" >
                    <title id="title90" >element:R3</title>
                    <g id="g94" gorn="0.4.0.2.8.1" >
                        <title id="title92" >package:0402-RES</title>
                    </g>
                </g>
                <g id="g104" gorn="0.4.0.2.9" >
                    <title id="title98" >element:U$1</title>
                    <g id="g102" gorn="0.4.0.2.9.1" >
                        <title id="title100" >package:LOGO-L</title>
                    </g>
                </g>
                <g id="g112" gorn="0.4.0.2.10" >
                    <title id="title106" >element:U$2</title>
                    <g id="g110" gorn="0.4.0.2.10.1" >
                        <title id="title108" >package:PETAL-NOHOLE-2SIDE</title>
                    </g>
                </g>
                <g id="g120" gorn="0.4.0.2.11" >
                    <title id="title114" >element:U$3</title>
                    <g id="g118" gorn="0.4.0.2.11.1" >
                        <title id="title116" >package:PETAL-NOHOLE-2SIDE</title>
                    </g>
                </g>
                <g id="g128" gorn="0.4.0.2.12" >
                    <title id="title122" >element:U$7</title>
                    <g id="g126" gorn="0.4.0.2.12.1" >
                        <title id="title124" >package:PETAL-SMALL-2SIDE</title>
                    </g>
                </g>
                <g id="g136" gorn="0.4.0.2.13" >
                    <title id="title130" >element:U$8</title>
                    <g id="g134" gorn="0.4.0.2.13.1" >
                        <title id="title132" >package:PETAL-SMALL-2SIDE</title>
                    </g>
                </g>
                <g id="g144" gorn="0.4.0.2.14" >
                    <title id="title138" >element:U$9</title>
                    <g id="g142" gorn="0.4.0.2.14.1" >
                        <title id="title140" >package:PETAL-SMALL-2SIDE</title>
                    </g>
                </g>
                <g id="g152" gorn="0.4.0.2.15" >
                    <title id="title146" >element:U$10</title>
                    <g id="g150" gorn="0.4.0.2.15.1" style="display:inline" >
                        <title id="title148" >package:PETAL-SMALL-2SIDE</title>
                    </g>
                </g>
            </g>
            <g  transform="matrix(0,-1.3333333,1.3333333,0,65.640693,33.777368)">
                <g >
                    <g >
                        <g id="g9771" gorn="0.4.0.3.0.0.0" style="display:inline" >
                            <path fill="#939598" id="path938" gorn="0.4.0.3.0.0.0.0" style="display:inline;fill-rule:nonzero;"  d="M 3.399,-22.249 H 1.667 v -1.486 h 1.732 z" stroke="none" fill-opacity="1"/>
                            <path fill="#939598" id="path940" gorn="0.4.0.3.0.0.0.1" style="display:inline;fill-rule:nonzero;"  d="M 6.869,-22.249 H 5.137 v -1.486 h 1.732 z" stroke="none" fill-opacity="1"/>
                            <path fill="#939598" id="path936" gorn="0.4.0.3.0.0.0.2" style="display:inline;fill-rule:nonzero;"  d="M 6.869,-32.303 H 5.137 v -1.486 h 1.732 z" stroke="none" fill-opacity="1"/>
                            <path fill="#939598" id="path934" gorn="0.4.0.3.0.0.0.3" style="display:inline;fill-rule:nonzero;"  d="M 3.399,-32.303 H 1.667 v -1.486 h 1.732 z" stroke="none" fill-opacity="1"/>
                            <path fill="#f1f1f2" id="path932" gorn="0.4.0.3.0.0.0.4" style="display:inline;fill-rule:nonzero;"  d="m 8.578,-23.735 h -8.822 v -8.568 h 8.822 z" stroke="none" fill-opacity="1"/>
                            <g  transform="translate(7.4003,-28.0187)">
                                <g >
                                    <g >
                                        <g id="g1092" gorn="0.4.0.3.0.0.0.5.0.0.0" style="display:inline" >
                                            <path fill="#b4bbc1" id="path1094" gorn="0.4.0.3.0.0.0.5.0.0.0.0" style="fill-rule:nonzero;"  d="M 0,0 C 0,1.718 -1.393,3.111 -3.111,3.111 -4.83,3.111 -6.223,1.718 -6.223,0 c 0,-1.718 1.393,-3.111 3.112,-3.111 C -1.393,-3.111 0,-1.718 0,0" stroke="none" fill-opacity="1"/>
                                        </g>
                                    </g>
                                </g>
                            </g>
                            <g  transform="translate(7.4003,-28.0187)">
                                <g >
                                    <g >
                                        <g id="g1096" gorn="0.4.0.3.0.0.0.6.0.0.0" >
                                            <path fill="none" id="path1098" gorn="0.4.0.3.0.0.0.6.0.0.0.0" style="display:inline;stroke-linecap:butt;stroke-linejoin:miter;stroke-miterlimit:10;stroke-dasharray:none;"  d="M 0,0 C 0,1.718 -1.393,3.111 -3.111,3.111 -4.83,3.111 -6.223,1.718 -6.223,0 c 0,-1.718 1.393,-3.111 3.112,-3.111 C -1.393,-3.111 0,-1.718 0,0 Z" stroke-width="1" stroke="#cececf" stroke-opacity="1"/>
                                        </g>
                                    </g>
                                </g>
                            </g>
                            <path fill="none" id="path1769" gorn="0.4.0.3.0.0.0.7" style="stroke-linecap:butt;stroke-linejoin:miter;stroke-miterlimit:4;stroke-dasharray:none;"  d="m 4.1524948,-24.161971 v -7.707598 0 M 8.12573,-28.0187 H 0.41813209 v 0" stroke-width="0.375" stroke="#f1f1f2" stroke-opacity="0.94901961"/>
                        </g>
                    </g>
                </g>
            </g>
            <circle fill="#4cb848" id="circle1771" gorn="0.4.0.4" r="0.68577939" cy="26.684221" style="opacity:1;stroke-miterlimit:4;stroke-dasharray:none;paint-order:stroke fill markers"  stroke-width="2.22941828" stroke="none" cx="29.80978" fill-opacity="1" stroke-opacity="1"/>
            <circle fill="#ec1c3a" id="circle1773" gorn="0.4.0.5" r="0.68577939" cy="26.684221" style="opacity:1;stroke-miterlimit:4;stroke-dasharray:none;paint-order:stroke fill markers"  stroke-width="2.22941828" stroke="none" cx="26.70978" fill-opacity="1" stroke-opacity="0.94901961"/>
            <circle fill="#3853a4" id="path1748" gorn="0.4.0.6" r="0.68577939" cy="29.684221" style="opacity:1;stroke-miterlimit:4;stroke-dasharray:none;paint-order:stroke fill markers"  stroke-width="2.22941828" stroke="none" cx="29.80978" fill-opacity="1" stroke-opacity="1"/>
            <g  transform="rotate(-90,28.829882,27.593456)">
                <g >
                    <g >
                        <g id="g470" gorn="0.4.0.7.0.0.0" style="display:inline" >
                            <g id="g452" gorn="0.4.0.7.0.0.0.0" >
                                <rect y="39.046001" id="rect446" gorn="0.4.0.7.0.0.0.0.0" height="4.1139998" style="fill:#333333"  width="1.464" x="27.465"/>
                                <rect y="39.046001" id="rect448" gorn="0.4.0.7.0.0.0.0.1" height="4.1139998" style="opacity:0.2;fill:#ffffff"  width="0.023" enable-background="new    " x="28.905001"/>
                                <rect y="39.046001" id="rect450" gorn="0.4.0.7.0.0.0.0.2" height="4.1139998" style="opacity:0.2"  width="0.016000001" enable-background="new    " x="27.465"/>
                            </g>
                            <g id="g468" gorn="0.4.0.7.0.0.0.1" >
                                <path id="path454" gorn="0.4.0.7.0.0.0.1.0" style="fill:#dcdcdc"  d="m 28.928,42.562 v 0 0 -0.049 0 c -0.129,-0.041 -0.411,-0.069 -0.556,-0.069 -0.149,0 -0.727,0.025 -0.864,0.069 v 0 0 0.633 h 1.42 z"/>
                                <path id="path456" gorn="0.4.0.7.0.0.0.1.1" style="fill:#dcdcdc"  d="m 28.875,39.688 h 0.054 v -0.631 h -1.42 v 0.632 c 0.137,0.046 0.711,0.1 0.864,0.1 0.179,0 0.346,-0.039 0.502,-0.101 z"/>
                                <path id="path458" gorn="0.4.0.7.0.0.0.1.2" style="fill:#999999"  d="m 27.454,43.149 v -0.632 l 0.055,-0.004 v 0.633 z"/>
                                <path id="path460" gorn="0.4.0.7.0.0.0.1.3" style="fill:#999999"  d="m 27.454,39.061 v 0.631 l 0.055,-0.003 v -0.632 z"/>
                                <rect y="39.056999" id="rect462" gorn="0.4.0.7.0.0.0.1.4" height="0.63200003" style="opacity:0.5;fill:#ffffff"  width="0.023" enable-background="new    " x="28.905001"/>
                                <rect y="42.514" id="rect464" gorn="0.4.0.7.0.0.0.1.5" height="0.63300002" style="opacity:0.5;fill:#ffffff"  width="0.023" enable-background="new    " x="28.905001"/>
                                <line id="line466" gorn="0.4.0.7.0.0.0.1.6" style="fill:none"  x1="27.465" y1="39.438" y2="39.438" x2="27.465"/>
                            </g>
                        </g>
                    </g>
                </g>
            </g>
            <g  transform="rotate(-90,14.829882,41.593456)">
                <g >
                    <g >
                        <g id="g1450" gorn="0.4.0.8.0.0.0" style="display:inline" >
                            <g id="g1432" gorn="0.4.0.8.0.0.0.0" >
                                <rect y="39.046001" id="rect1426" gorn="0.4.0.8.0.0.0.0.0" height="4.1139998" style="fill:#333333"  width="1.464" x="27.465"/>
                                <rect y="39.046001" id="rect1428" gorn="0.4.0.8.0.0.0.0.1" height="4.1139998" style="opacity:0.2;fill:#ffffff"  width="0.023" enable-background="new    " x="28.905001"/>
                                <rect y="39.046001" id="rect1430" gorn="0.4.0.8.0.0.0.0.2" height="4.1139998" style="opacity:0.2"  width="0.016000001" enable-background="new    " x="27.465"/>
                            </g>
                            <g id="g1448" gorn="0.4.0.8.0.0.0.1" >
                                <path id="path1434" gorn="0.4.0.8.0.0.0.1.0" style="fill:#dcdcdc"  d="m 28.928,42.562 v 0 0 -0.049 0 c -0.129,-0.041 -0.411,-0.069 -0.556,-0.069 -0.149,0 -0.727,0.025 -0.864,0.069 v 0 0 0.633 h 1.42 z"/>
                                <path id="path1436" gorn="0.4.0.8.0.0.0.1.1" style="fill:#dcdcdc"  d="m 28.875,39.688 h 0.054 v -0.631 h -1.42 v 0.632 c 0.137,0.046 0.711,0.1 0.864,0.1 0.179,0 0.346,-0.039 0.502,-0.101 z"/>
                                <path id="path1438" gorn="0.4.0.8.0.0.0.1.2" style="fill:#999999"  d="m 27.454,43.149 v -0.632 l 0.055,-0.004 v 0.633 z"/>
                                <path id="path1440" gorn="0.4.0.8.0.0.0.1.3" style="fill:#999999"  d="m 27.454,39.061 v 0.631 l 0.055,-0.003 v -0.632 z"/>
                                <rect y="39.056999" id="rect1442" gorn="0.4.0.8.0.0.0.1.4" height="0.63200003" style="opacity:0.5;fill:#ffffff"  width="0.023" enable-background="new    " x="28.905001"/>
                                <rect y="42.514" id="rect1444" gorn="0.4.0.8.0.0.0.1.5" height="0.63300002" style="opacity:0.5;fill:#ffffff"  width="0.023" enable-background="new    " x="28.905001"/>
                                <line id="line1446" gorn="0.4.0.8.0.0.0.1.6" style="fill:none"  x1="27.465" y2="39.438" y1="39.438" x2="27.465"/>
                            </g>
                        </g>
                    </g>
                </g>
            </g>
            <g  transform="rotate(-90,26.686495,39.504047)">
                <g >
                    <g >
                        <g id="g1476" gorn="0.4.0.9.0.0.0" style="display:inline" >
                            <g id="g1458" gorn="0.4.0.9.0.0.0.0" >
                                <rect y="39.046001" id="rect1452" gorn="0.4.0.9.0.0.0.0.0" height="4.1139998" style="fill:#333333"  width="1.464" x="27.465"/>
                                <rect y="39.046001" id="rect1454" gorn="0.4.0.9.0.0.0.0.1" height="4.1139998" style="opacity:0.2;fill:#ffffff"  width="0.023" enable-background="new    " x="28.905001"/>
                                <rect y="39.046001" id="rect1456" gorn="0.4.0.9.0.0.0.0.2" height="4.1139998" style="opacity:0.2"  width="0.016000001" enable-background="new    " x="27.465"/>
                            </g>
                            <g id="g1474" gorn="0.4.0.9.0.0.0.1" >
                                <path id="path1460" gorn="0.4.0.9.0.0.0.1.0" style="fill:#dcdcdc"  d="m 28.928,42.562 v 0 0 -0.049 0 c -0.129,-0.041 -0.411,-0.069 -0.556,-0.069 -0.149,0 -0.727,0.025 -0.864,0.069 v 0 0 0.633 h 1.42 z"/>
                                <path id="path1462" gorn="0.4.0.9.0.0.0.1.1" style="fill:#dcdcdc"  d="m 28.875,39.688 h 0.054 v -0.631 h -1.42 v 0.632 c 0.137,0.046 0.711,0.1 0.864,0.1 0.179,0 0.346,-0.039 0.502,-0.101 z"/>
                                <path id="path1464" gorn="0.4.0.9.0.0.0.1.2" style="fill:#999999"  d="m 27.454,43.149 v -0.632 l 0.055,-0.004 v 0.633 z"/>
                                <path id="path1466" gorn="0.4.0.9.0.0.0.1.3" style="fill:#999999"  d="m 27.454,39.061 v 0.631 l 0.055,-0.003 v -0.632 z"/>
                                <rect y="39.056999" id="rect1468" gorn="0.4.0.9.0.0.0.1.4" height="0.63200003" style="opacity:0.5;fill:#ffffff"  width="0.023" enable-background="new    " x="28.905001"/>
                                <rect y="42.514" id="rect1470" gorn="0.4.0.9.0.0.0.1.5" height="0.63300002" style="opacity:0.5;fill:#ffffff"  width="0.023" enable-background="new    " x="28.905001"/>
                                <line id="line1472" gorn="0.4.0.9.0.0.0.1.6" style="fill:none"  x1="27.465" y1="39.438" y2="39.438" x2="27.465"/>
                            </g>
                        </g>
                    </g>
                </g>
            </g>
            <g id="g500" gorn="0.4.0.10" />
            <g id="g528" gorn="0.4.0.11" />
            <path fill="#ffffff" id="path6428" gorn="0.4.0.12" style="display:inline;fill-rule:nonzero;"  d="m 20.200196,19.588844 -1.421334,-0.264 c -0.03467,-0.0067 -0.07333,-0.04 -0.084,-0.07333 l -0.436,-1.016 c -0.016,-0.032 -0.01333,-0.08133 0.0067,-0.110667 l 0.827997,-1.206667 c 0.02,-0.02933 0.016,-0.07333 -0.0093,-0.09867 l -1.0347,-1.034666 c -0.024,-0.024 -0.068,-0.02933 -0.09733,-0.0093 l -1.229334,0.843966 c -0.028,0.02 -0.07867,0.02267 -0.109333,0.008 l -0.986667,-0.404 c -0.03333,-0.01067 -0.06533,-0.048 -0.072,-0.08267 l -0.273333,-1.470663 c -0.0067,-0.03467 -0.04133,-0.06267 -0.076,-0.06267 h -1.464 c -0.03467,0 -0.06933,0.028 -0.076,0.06267 l -0.273333,1.470667 c -0.0067,0.03467 -0.03867,0.072 -0.072,0.08267 l -0.986667,0.403999 c -0.03067,0.01467 -0.08133,0.012 -0.109333,-0.008 l -1.229333,-0.844 c -0.02933,-0.02 -0.07333,-0.01467 -0.09733,0.0093 L 9.8615295,16.81948 c -0.024,0.02533 -0.028,0.06933 -0.008,0.09867 l 0.8280005,1.206667 c 0.02,0.02933 0.02267,0.07867 0.0067,0.110666 l -0.436004,1.016003 c -0.01067,0.03333 -0.04933,0.06667 -0.084,0.07333 l -1.4213334,0.264 c -0.034667,0.0067 -0.062667,0.04 -0.062667,0.076 v 1.462666 c 0,0.036 0.028,0.07067 0.062667,0.076 l 1.3866664,0.258667 c 0.03467,0.0067 0.072,0.03867 0.08267,0.07333 l 0.432,1.081333 c 0.016,0.032 0.012,0.08133 -0.008,0.110667 l -0.7866668,1.146667 c -0.02,0.02933 -0.016,0.07467 0.008,0.09867 l 1.0346668,1.034666 c 0.02533,0.02533 0.06933,0.02933 0.09867,0.0093 l 1.128,-0.773333 c 0.02933,-0.02 0.07733,-0.02267 0.108,-0.004 l 0.497333,0.265333 c 0.03067,0.016 0.068,0.0027 0.08133,-0.03067 l 1.025333,-2.4773 c 0.01333,-0.032 0,-0.07333 -0.02933,-0.092 l -0.125333,-0.076 c -0.02267,-0.01467 -0.05333,-0.03867 -0.07867,-0.06133 -0.448,-0.286666 -0.746666,-0.789333 -0.746666,-1.362666 0,-0.893333 0.725333,-1.618667 1.618666,-1.618667 0.893333,0 1.617333,0.725334 1.617333,1.618667 0,0.573333 -0.297333,1.076 -0.746666,1.362666 -0.024,0.02267 -0.05467,0.04667 -0.07867,0.06133 l -0.124,0.076 c -0.02933,0.01867 -0.044,0.06 -0.02933,0.092 l 1.025333,2.477334 c 0.01333,0.03333 0.04933,0.04667 0.08133,0.03067 l 0.497334,-0.265334 c 0.03067,-0.01733 0.07867,-0.016 0.108,0.004 l 1.128,0.773333 c 0.028,0.02 0.07333,0.016 0.09733,-0.0093 l 1.034667,-1.0347 c 0.02533,-0.024 0.02933,-0.06933 0.0093,-0.09733 l -0.788,-1.148 c -0.02,-0.02933 -0.02267,-0.07867 -0.008,-0.110666 l 0.433366,-1.081334 c 0.01067,-0.03467 0.048,-0.06667 0.08267,-0.07333 l 1.386664,-0.258667 c 0.03467,-0.0053 0.06267,-0.04 0.06267,-0.076 v -1.462666 c 0,-0.036 -0.028,-0.06933 -0.06267,-0.076" stroke-width="1.33333325" stroke="none" fill-opacity="1"/>
            <path fill="#ffffff" id="path8906" gorn="0.4.0.13" style="fill-rule:nonzero;"  d="m 45.013326,16.303526 c 0,0 0.130667,0.556 -0.288,0.633333 -0.292,0.052 -0.764,-0.238666 -1.001333,-0.526666 -0.292,-0.357334 -0.254667,-0.637334 -0.028,-0.885334 0.342667,-0.377333 0.926667,-0.232 0.926667,-0.232 0,0 -1.070667,-0.94 -2.186667,-0.170666 -0.994667,0.685333 -0.709333,1.617333 0.186667,2.430666 0.809333,0.736 0.164,1.542667 -0.650667,1.437333 -0.558667,-0.07067 -0.786667,-0.518666 -0.652,-0.793333 0.116,-0.236 0.516,-0.38 0.516,-0.38 0,0 -0.46,-0.188 -1.002667,0.01733 -0.485333,0.182667 -0.888,0.585334 -0.854666,1.592 v 4.670667 c 0,0 0.502666,-0.62 1.093333,-1.250667 0.662667,-0.710667 0.965333,-1.192 1.645333,-1.136 1.285334,0.08 2.216,-0.492 2.848,-1.408 1.214667,-1.764 0.264,-3.734666 -0.552,-3.998666" stroke-width="1.33333325" stroke="none" fill-opacity="1"/>
            <g id="g472" gorn="0.4.0.14" style="display:inline" />
            <g id="g282" gorn="0.4.0.15" style="display:inline" >
                <title id="title156" >layer 1</title>
                <g id="g164" gorn="0.4.0.15.1" style="display:inline" >
                    <title id="title158" >element:D1</title>
                    <g id="g162" gorn="0.4.0.15.1.1" >
                        <title id="title160" >package:LED-TRICOLOR-SMD</title>
                    </g>
                </g>
                <g id="g172" gorn="0.4.0.15.2" >
                    <title id="title166" >element:R1</title>
                    <g id="g170" gorn="0.4.0.15.2.1" >
                        <title id="title168" >package:0402-RES</title>
                    </g>
                </g>
                <g id="g180" gorn="0.4.0.15.3" >
                    <title id="title174" >element:R2</title>
                    <g id="g178" gorn="0.4.0.15.3.1" >
                        <title id="title176" >package:0402-RES</title>
                    </g>
                </g>
                <g id="g188" gorn="0.4.0.15.4" >
                    <title id="title182" >element:R3</title>
                    <g id="g186" gorn="0.4.0.15.4.1" >
                        <title id="title184" >package:0402-RES</title>
                    </g>
                </g>
                <g id="g196" gorn="0.4.0.15.5" >
                    <title id="title190" >element:U$1</title>
                    <g id="g194" gorn="0.4.0.15.5.1" >
                        <title id="title192" >package:LOGO-L</title>
                    </g>
                </g>
                <g id="g210" gorn="0.4.0.15.6" >
                    <title id="title198" >element:U$2</title>
                    <g id="g208" gorn="0.4.0.15.6.1" >
                        <title id="title200" >package:PETAL-NOHOLE-2SIDE</title>
                        <g id="g206" gorn="0.4.0.15.6.1.1" >
                            <title id="title202" >polygon</title>
                            <path id="path204" gorn="0.4.0.15.6.1.1.1" style="fill:#e8e8e8;fill-opacity:1"  d="m 48.707,24.432 0.902,-0.494 0.815,-0.627 0.711,-0.744 0.588,-0.845 0.452,-0.924 0.307,-0.982 0.151,-1.018 -0.005,-1.028 -0.163,-1.016 -0.315,-0.979 -0.462,-0.919 -0.565,-0.859 -0.689,-0.764 -0.799,-0.648 -0.889,-0.52 -0.957,-0.377 -1.004,-0.227 -1.026,-0.07 -1.024,0.088 -1,0.243 -0.951,0.393 -0.879,0.534 1.189,0.23 1.146,0.397 1.077,0.556 0.987,0.704 0.877,0.836 0.749,0.953 0.606,1.05 0.45,1.125 0.286,1.179 0.116,1.206 -0.058,1.211 -0.229,1.19 -0.394,1.146"/>
                        </g>
                    </g>
                </g>
                <g id="g224" gorn="0.4.0.15.7" >
                    <title id="title212" >element:U$3</title>
                    <g id="g222" gorn="0.4.0.15.7.1" >
                        <title id="title214" >package:PETAL-NOHOLE-2SIDE</title>
                        <g id="g220" gorn="0.4.0.15.7.1.1" >
                            <title id="title216" >polygon</title>
                            <path id="path218" gorn="0.4.0.15.7.1.1.1" style="fill:#e8e8e8;fill-opacity:1"  d="m 14.789,12.649 -0.879,-0.534 -0.951,-0.393 -1,-0.243 -1.024,-0.088 -1.026,0.07 -1.004,0.227 -0.957,0.377 -0.889,0.52 -0.799,0.648 -0.69,0.764 -0.565,0.859 -0.462,0.919 -0.315,0.979 -0.164,1.016 -0.005,1.028 0.151,1.018 0.307,0.982 0.452,0.924 0.588,0.845 0.711,0.744 0.815,0.627 0.902,0.494 L 7.589,23.286 7.36,22.096 7.302,20.885 7.418,19.679 7.704,18.5 l 0.45,-1.125 0.606,-1.05 0.749,-0.953 0.877,-0.836 0.987,-0.704 1.077,-0.556 1.146,-0.397 1.193,-0.23"/>
                        </g>
                    </g>
                </g>
                <g id="g238" gorn="0.4.0.15.8" >
                    <title id="title226" >element:U$7</title>
                    <g id="g236" gorn="0.4.0.15.8.1" >
                        <title id="title228" >package:PETAL-SMALL-2SIDE</title>
                        <g id="g234" gorn="0.4.0.15.8.1.1" >
                            <title id="title230" >polygon</title>
                            <path id="path232" gorn="0.4.0.15.8.1.1.1" style="fill:#e8e8e8;fill-opacity:1"  d="m 7.986,32.26 -0.902,0.494 -0.815,0.627 -0.711,0.744 -0.589,0.845 -0.452,0.924 -0.307,0.982 -0.151,1.017 0.005,1.029 0.163,1.016 0.315,0.979 0.462,0.919 0.565,0.86 0.69,0.763 0.798,0.648 0.889,0.52 0.957,0.377 1.004,0.227 1.026,0.069 1.024,-0.087 1,-0.243 0.951,-0.393 0.879,-0.534 -1.189,-0.23 L 12.452,43.416 11.375,42.86 10.388,42.156 9.512,41.32 8.763,40.367 8.157,39.317 7.707,38.192 7.421,37.014 7.305,35.807 7.363,34.596 7.592,33.406 7.986,32.26"/>
                        </g>
                    </g>
                </g>
                <g id="g252" gorn="0.4.0.15.9" >
                    <title id="title240" >element:U$8</title>
                    <g id="g250" gorn="0.4.0.15.9.1" >
                        <title id="title242" >package:PETAL-SMALL-2SIDE</title>
                        <g id="g248" gorn="0.4.0.15.9.1.1" >
                            <title id="title244" >polygon</title>
                            <path id="path246" gorn="0.4.0.15.9.1.1.1" style="fill:#e8e8e8;fill-opacity:1"  d="m 41.904,44.044 0.879,0.534 0.951,0.393 1,0.243 1.024,0.087 1.026,-0.069 1.004,-0.227 0.957,-0.377 0.889,-0.52 0.799,-0.648 0.689,-0.763 0.565,-0.86 0.462,-0.919 0.315,-0.979 0.163,-1.016 0.005,-1.029 -0.151,-1.017 -0.307,-0.982 -0.452,-0.924 -0.588,-0.845 -0.711,-0.744 -0.815,-0.627 -0.902,-0.494 0.396,1.146 0.229,1.19 0.058,1.211 -0.116,1.207 -0.286,1.178 -0.45,1.125 -0.606,1.05 -0.751,0.952 -0.877,0.836 -0.987,0.704 -1.077,0.556 -1.146,0.397 -1.189,0.231"/>
                        </g>
                    </g>
                </g>
                <g id="g266" gorn="0.4.0.15.10" >
                    <title id="title254" >element:U$9</title>
                    <g id="g264" gorn="0.4.0.15.10.1" >
                        <title id="title256" >package:PETAL-SMALL-2SIDE</title>
                        <g id="g262" gorn="0.4.0.15.10.1.1" >
                            <title id="title258" >polygon</title>
                            <path id="path260" gorn="0.4.0.15.10.1.1.1" style="fill:#e8e8e8;fill-opacity:1"  d="m 21.544,47.885 -0.023,1.029 0.136,1.02 0.289,0.987 0.437,0.932 0.574,0.854 0.698,0.756 0.805,0.641 0.894,0.51 0.961,0.367 1.006,0.216 1.027,0.06 1.027,-0.06 1.006,-0.216 0.961,-0.367 0.894,-0.51 0.805,-0.641 0.698,-0.756 0.574,-0.854 0.437,-0.932 0.29,-0.987 0.135,-1.02 -0.023,-1.029 -0.794,0.915 -0.917,0.794 -1.02,0.654 -1.104,0.503 -1.163,0.342 -1.199,0.172 H 27.74 L 26.541,51.093 25.378,50.751 24.274,50.248 23.254,49.594 22.337,48.8 21.544,47.885"/>
                        </g>
                    </g>
                </g>
                <g id="g280" gorn="0.4.0.15.11" >
                    <title id="title268" >element:U$10</title>
                    <g id="g278" gorn="0.4.0.15.11.1" >
                        <title id="title270" >package:PETAL-SMALL-2SIDE</title>
                        <g id="g276" gorn="0.4.0.15.11.1.1" >
                            <title id="title272" >polygon</title>
                            <path id="path274" gorn="0.4.0.15.11.1.1.1" style="fill:#e8e8e8;fill-opacity:1"  d="M 35.149,8.807 35.172,7.778 35.037,6.758 34.747,5.771 34.311,4.84 33.737,3.986 33.039,3.23 32.234,2.59 31.34,2.08 30.38,1.713 29.374,1.497 28.347,1.437 27.32,1.497 26.314,1.713 25.352,2.08 24.458,2.59 23.654,3.23 22.956,3.986 22.382,4.84 21.945,5.772 21.656,6.759 21.52,7.779 21.543,8.808 22.337,7.893 23.254,7.099 24.274,6.445 25.378,5.942 26.541,5.6 27.74,5.428 h 1.213 l 1.199,0.172 1.163,0.342 1.104,0.503 1.02,0.654 0.917,0.794 0.793,0.914"/>
                        </g>
                    </g>
                </g>
            </g>
            <rect y="40.094002" id="rect286" gorn="0.4.0.16" height="2.016" style="display:none;fill:#ffffff;fill-opacity:0.15"  width="1.152" x="27.77"/>
            <circle fill="none" id="connector10pin" gorn="0.4.0.17" r="2.404" cy="39.001999"  stroke-width="1.44000006" stroke="#9a916c" cx="9.915" stroke-opacity="1"/>
            <circle fill="none" id="connector12pin" gorn="0.4.0.18" r="2.404" cy="39.001999"  stroke-width="1.44000006" stroke="#9a916c" cx="46.778" stroke-opacity="1"/>
            <circle fill="none" gorn="0.4.0.19" id="connector11pin" r="2.404" cy="49.585999"  stroke-width="1.44000006" stroke="#9a916c" cx="28.346001" stroke-opacity="1"/>
            <circle fill="none" id="connector13pin" gorn="0.4.0.20" r="2.404" cy="7.1069999"  stroke-width="1.44000006" stroke="#9a916c" cx="28.346001" stroke-opacity="1"/>
        </g>
    </g>
</svg>
