<?xml version='1.0' encoding='utf-8'?>
<!DOCTYPE svg>
<!-- Generator: Adobe Illustrator 15.1.0, SVG Export Plug-In . SVG Version: 6.00 Build 0)  -->
<svg xmlns="http://www.w3.org/2000/svg"  viewBox="0 0 21.6 94.621" enable-background="new 0 0 21.6 94.621" height="1.31418in" id="Layer_1" x="0px" y="0px" gorn="0" xml:space="preserve" version="1.1" width="0.3in" xmlns:xml="http://www.w3.org/XML/1998/namespace">
    <desc>
        <referenceFile>LilyPad-reed-v10_breadboard.svg</referenceFile>
    </desc>
    <desc >Fritzing breadboard generated by brd2svg</desc>
    <g  id="breadboard" gorn="0.1">
        <g  id="icon" gorn="0.1.0">
            <path  d="M0.029,10.771C0.029,4.823,4.851,0,10.8,0s10.771,4.823,10.771,10.771v73.078c0,5.949-4.822,10.771-10.771,10.771S0.029,89.798,0.029,83.849V10.771 M6.84,84.39c0,2.188,1.772,3.961,3.96,3.961s3.96-1.773,3.96-3.961c0-2.187-1.772-3.959-3.96-3.959S6.84,82.204,6.84,84.39z M6.84,10.23c0,2.187,1.772,3.96,3.96,3.96s3.96-1.773,3.96-3.96l0,0c0-2.187-1.772-3.96-3.96-3.96S6.84,8.043,6.84,10.23L6.84,10.23z" fill="#672E58"/>
            <g >
                <title >layer 21</title>
                <g >
                    <title >element:LOGO1</title>
                    <g >
                        <title >package:OSHW-LOGO-S_COPPER</title>
                    </g>
                </g>
                <g >
                    <title >element:LOGO2</title>
                    <g >
                        <title >package:SFE_LOGO_FLAME_COPPER_.1</title>
                    </g>
                </g>
                <g >
                    <title >element:S1</title>
                    <g >
                        <title >package:REED_SWITCH_PLASTIC</title>
                        <line stroke="#FFFFFF"  stroke-linecap="round" stroke-width="0.36" y1="26.05" y2="68.57" x1="6.123" x2="6.123" fill="none"/>
                        <line stroke="#FFFFFF"  stroke-linecap="round" stroke-width="0.36" y1="26.05" y2="26.05" x1="6.123" x2="10.8" fill="none"/>
                        <line stroke="#FFFFFF"  stroke-linecap="round" stroke-width="0.36" y1="26.05" y2="26.05" x1="10.8" x2="15.477" fill="none"/>
                        <line stroke="#FFFFFF"  stroke-linecap="round" stroke-width="0.36" y1="26.05" y2="68.57" x1="15.477" x2="15.477" fill="none"/>
                        <line stroke="#FFFFFF"  stroke-linecap="round" stroke-width="0.36" y1="68.57" y2="68.57" x1="15.477" x2="10.8" fill="none"/>
                        <line stroke="#FFFFFF"  stroke-linecap="round" stroke-width="0.36" y1="68.57" y2="68.57" x1="10.8" x2="6.123" fill="none"/>
                        <line stroke="#FFFFFF"  stroke-linecap="round" stroke-width="0.36" y1="26.05" y2="25.427" x1="10.8" x2="10.8" fill="none"/>
                        <line stroke="#FFFFFF"  stroke-linecap="round" stroke-width="0.36" y1="68.57" y2="69.194" x1="10.8" x2="10.8" fill="none"/>
                    </g>
                </g>
                <g >
                    <title >element:SLIDEOFF</title>
                    <g >
                        <title >package:PETAL-MEDIUM-2SIDE</title>
                    </g>
                </g>
                <g >
                    <title >element:SLIDEON</title>
                    <g >
                        <title >package:PETAL-MEDIUM-2SIDE</title>
                    </g>
                </g>
                <g >
                    <title >element:U$1</title>
                    <g >
                        <title >package:LOGO-LILYPAD</title>
                    </g>
                </g>
            </g>
            <rect  height="43.767" x="6.123" y="25.427" fill-opacity="0.15" width="9.354" fill="#FFFFFF"/>
            <rect  height="10.8" x="0" y="83.67" fill-opacity="0.15" width="21.6" fill="#FFFFFF"/>
            <rect  height="10.8" x="0" y="0.15" fill-opacity="0.15" width="21.6" fill="#FFFFFF"/>
            <circle stroke="#9A916C" r="4.68"  id="connector2pin" stroke-width="1.44" gorn="0.1.0.5" cx="10.8" cy="84.39" fill="none"/>
            <circle stroke="#9A916C" r="4.68"  id="connector3pin" stroke-width="1.44" gorn="0.1.0.6" cx="10.8" cy="10.23" fill="none"/>
        </g>
    </g>
    <rect  height="42.52" x="6.123" y="26.05" width="9.354" fill="#333333"/>
</svg>
