<?xml version='1.0' encoding='UTF-8' standalone='no'?>
<svg xmlns="http://www.w3.org/2000/svg" version="1.1" gorn="0" width="1.3593541in" id="svg8" viewBox="0 0 1359.3546 1547.1151"  height="1.5471146in">
    <desc id="desc2" >
        <referenceFile >10245_load_sensor_strain_gauge_37a9a16f9c22f39d6b0a51d76e8fabca_3_breadboard.svg</referenceFile>
    </desc>
    <defs id="defs2" />
    <metadata id="metadata5" >
        <rdf:RDF xmlns:rdf="http://www.w3.org/1999/02/22-rdf-syntax-ns#">
            <cc:Work xmlns:cc="http://creativecommons.org/ns#" xmlns:rdf="http://www.w3.org/1999/02/22-rdf-syntax-ns#" rdf:about="">
                <dc:format xmlns:dc="http://purl.org/dc/elements/1.1/">image/svg+xml</dc:format>
                <dc:type rdf:resource="http://purl.org/dc/dcmitype/StillImage" xmlns:rdf="http://www.w3.org/1999/02/22-rdf-syntax-ns#" xmlns:dc="http://purl.org/dc/elements/1.1/"/>
                <dc:title xmlns:dc="http://purl.org/dc/elements/1.1/"/>
            </cc:Work>
        </rdf:RDF>
    </metadata>
    <g gorn="0.3" id="breadboard" >
        <path stroke="#000000" fill="none" stroke-miterlimit="4" gorn="0.3.0" stroke-opacity="1" d="M 887.78777,196.68659 V 0.67155625" stroke-linecap="butt" stroke-dasharray="none" stroke-width="52.12703705" paint-order="normal" id="path1260"  stroke-linejoin="miter"/>
        <path stroke="#ff0000" fill="#ff0000" stroke-miterlimit="4" gorn="0.3.1" stroke-opacity="1" d="M 687.24265,196.68659 V 0.67155625 v 0 0" stroke-linecap="butt" stroke-dasharray="none" stroke-width="52.12703705" id="path1262"  stroke-linejoin="miter"/>
        <path stroke="#f2f2f2" fill="#f9f9f9" fill-opacity="0.94117647" stroke-miterlimit="4" gorn="0.3.2" stroke-opacity="1" d="M 487.79715,196.68659 V 0.67155625" stroke-linecap="butt" stroke-dasharray="none" stroke-width="52.12703705" id="path1264"  stroke-linejoin="miter"/>
        <rect fill="none" gorn="0.3.3" x="460.94958" y="-4.3368087e-19" width="53.379425" stroke-width="20.2671833" id="rect9"  height="59.604168"/>
        <rect fill="#f2f2f2" fill-opacity="1" gorn="0.3.4" x="460.94958" y="-4.3368087e-19" width="53.379425" stroke-width="20.2671833" id="connector1pin"  height="59.604168"/>
        <rect fill="none" gorn="0.3.5" x="661.00018" y="0.15412153" width="52.495693" stroke-width="20.04719543" id="rect13"  height="59.299015"/>
        <rect fill="#ff0000" gorn="0.3.6" x="661.00018" y="0.15412153" width="52.495693" stroke-width="20.04719543" id="connector2pin"  height="59.299015"/>
        <rect fill="none" gorn="0.3.7" x="861.00024" y="0.20880982" width="53.020462" stroke-width="20.18728638" id="rect17"  height="59.535542"/>
        <rect gorn="0.3.8" x="861.00024" y="0.20880982" width="53.020462" stroke-width="20.18728638" id="connector0pin"  height="59.535542"/>
        <path stroke="#000000" fill="#cccccc" display="inline" fill-opacity="1" gorn="0.3.9" stroke-miterlimit="4" stroke-opacity="1" fill-rule="evenodd" d="M 393.11804,192.22282 C 206.93024,220.01551 58.245565,300.86031 9.8424988,523.56431 V 1166.535 C 38.160586,1350.682 105.20723,1511.2434 393.11804,1537.2726 H 985.93828 C 1233.7774,1488.3462 1327.845,1348.78 1349.5121,1166.535 V 523.56431 C 1290.9436,289.26509 1151.2814,215.34402 985.93828,192.22282 Z m -150.3219,299.78555 h 231.75872 c 33.55503,13.24062 42.67583,36.26408 40.52497,63.78797 H 303.56645 c -24.13313,13.82304 -46.12127,29.25482 -60.77031,50.18894 -53.32236,77.39922 -73.82044,167.80285 -1.2635,295.08148 l 1.2635,48.7594 V 1166.535 c 11.37746,62.0571 43.43083,115.4106 150.3219,137.2529 h 592.82024 c 76.19282,-23.7158 119.93492,-69.6324 131.96202,-137.2529 V 949.82616 892.20438 c 72.7647,-123.86156 43.8753,-205.61052 0,-281.14848 -18.9911,-22.79538 -41.7411,-40.89892 -67.4845,-55.25956 H 845.61662 c 2.82322,-23.54885 14.10583,-45.29345 40.52497,-63.78797 h 231.75871 c 42.3573,24.4693 86.7294,36.86278 117.7795,129.18062 V 1166.535 c -28.8312,150.909 -112.8426,234.5681 -249.74152,253.7713 l -592.82024,-1.2626 C 193.9837,1402.4145 153.85924,1287.5742 123.75315,1166.5432 V 621.19714 C 143.24321,544.24185 190.2234,513.43529 242.79614,492.01651 Z m 598.96632,466.76977 h 117.30935 c -12.23693,32.57007 -32.26616,45.27316 -56.41664,47.46426 -31.28201,0 -50.49404,-17.50485 -60.89271,-47.46426 z m -325.10082,1.79202 c -9.46166,22.7628 -22.14545,43.00454 -58.25311,44.95544 -32.06498,-0.4887 -45.93625,-19.79376 -55.40779,-43.6888 z" stroke-dasharray="none" stroke-width="19.68499756" paint-order="fill markers stroke" id="path979" opacity="1"  stroke-linejoin="bevel"/>
        <path stroke="none" fill="#cccccc" display="inline" fill-opacity="1" stroke-miterlimit="4" gorn="0.3.10" stroke-opacity="1" fill-rule="evenodd" d="m 303.56648,555.80041 h 746.84872 c 169.8457,111.58619 128.5957,321.81932 0,394.02167 H 303.56648 c -150.17799,-74.95555 -154.50732,-298.85695 0,-394.02167 z" stroke-dasharray="none" stroke-width="4.73840809" paint-order="fill markers stroke" id="path911" opacity="1"  stroke-linejoin="bevel"/>
        <rect fill="#aaaaaa" id="rect1010" y="558.0741" paint-order="fill markers stroke" x="446.8468" stroke-opacity="0.94117647" width="65.670151" stroke-width="4.70785046" stroke-miterlimit="4" stroke-dasharray="none" gorn="0.3.11" opacity="1" height="388.95572" stroke="none" fill-opacity="1" stroke-linejoin="bevel" fill-rule="evenodd" />
        <rect fill="#aaaaaa" id="rect1021" y="558.0741" paint-order="fill markers stroke" x="843.01709" stroke-opacity="0.94117647" width="65.670151" stroke-width="4.70785046" stroke-miterlimit="4" stroke-dasharray="none" gorn="0.3.12" opacity="1" height="388.95572" stroke="none" fill-opacity="1" stroke-linejoin="bevel" fill-rule="evenodd" />
        <ellipse fill="#cccccc" cy="754.60388" id="path889" display="inline" paint-order="fill markers stroke" stroke-opacity="1" cx="677.88635" stroke-width="9.84249878" stroke-miterlimit="4" stroke-dasharray="none" ry="113.22123" gorn="0.3.13" opacity="1" stroke="#000000" fill-opacity="1" stroke-linejoin="bevel"  fill-rule="evenodd" rx="113.22105"/>
        <ellipse fill="#cccccc" cy="752.81409" id="path893" display="inline" paint-order="fill markers stroke" stroke-opacity="1" cx="312.52151" stroke-width="9.84249878" stroke-miterlimit="4" stroke-dasharray="none" ry="98.006821" gorn="0.3.14" opacity="1" stroke="#000000" fill-opacity="1" stroke-linejoin="bevel"  fill-rule="evenodd" rx="98.006668"/>
        <ellipse fill="#cccccc" cy="759.97333" id="path895" display="inline" paint-order="fill markers stroke" stroke-opacity="1" cx="1030.7141" stroke-width="9.84249878" stroke-miterlimit="4" stroke-dasharray="none" ry="94.884865" gorn="0.3.15" opacity="1" stroke="#000000" fill-opacity="1" stroke-linejoin="bevel"  fill-rule="evenodd" rx="94.884712"/>
        <path stroke="#000000" fill="none" display="inline" fill-opacity="1" stroke-miterlimit="4" gorn="0.3.16" stroke-opacity="1" fill-rule="evenodd" d="m 303.56648,555.80041 h 746.84872 c 169.8457,111.58619 128.5957,321.81932 0,394.02167 H 303.56648 c -150.17799,-74.95555 -154.50732,-298.85695 0,-394.02167 z" stroke-dasharray="none" stroke-width="19.68499756" paint-order="fill markers stroke" id="path1023" opacity="1"  stroke-linejoin="bevel"/>
    </g>
</svg>
