<?xml version="1.0" encoding="UTF-8" standalone="no"?>
<!-- Created with Inkscape (http://www.inkscape.org/) -->

<svg
   xmlns:dc="http://purl.org/dc/elements/1.1/"
   xmlns:cc="http://creativecommons.org/ns#"
   xmlns:rdf="http://www.w3.org/1999/02/22-rdf-syntax-ns#"
   xmlns:svg="http://www.w3.org/2000/svg"
   xmlns="http://www.w3.org/2000/svg"
   version="1.1"
   width="126.1"
   height="72"
   viewBox="0 0 126.1 72"
   id="svg2"
   xml:space="preserve"><metadata
   id="metadata182" /><defs
   id="defs180" />
    <g
   transform="translate(54.1,0)"
   id="breadboard">
        <g
   id="g5">
            <g
   id="g7">
                <metadata
   id="metadata309">
                    <rdf:RDF>
                        <cc:Work
   rdf:about="">
                            <dc:format>image/svg+xml</dc:format>
                            <dc:type
   rdf:resource="http://purl.org/dc/dcmitype/StillImage" />
                            <dc:title></dc:title>
                        </cc:Work>
                    </rdf:RDF>
                </metadata>
                <defs
   id="defs307" />
                <g
   id="Layer_2" />
                <g
   id="g12"><desc
   id="desc7">
                        <referenceFile
   id="referenceFile9">MicroViewPlain.svg</referenceFile>
                    </desc>
                    
                    <rect
   width="141.3"
   height="98.400002"
   x="244"
   y="-144.10001"
   id="rect6308"
   style="fill:#e81e25;stroke:#45537d;stroke-width:0.53579998;stroke-linejoin:round;stroke-miterlimit:10;display:none" />
                    <rect
   width="44.299999"
   height="31.700001"
   x="255.7"
   y="-107.3"
   id="rect6311"
   style="fill:#ffffff;stroke:#ffffff;stroke-width:2.14319992;stroke-miterlimit:10;display:none" />
                    <rect
   width="11.4"
   height="55.5"
   x="291.70001"
   y="-120"
   id="rect6313"
   style="fill:#ffffff;stroke:#ffffff;stroke-width:2.14319992;stroke-miterlimit:10;display:none" />
                    <path
   d="m 376.7,-64.5 c 0,5.4 -4.4,9.9 -9.9,9.9 h -53.9 c -5.4,0 -9.9,-4.4 -9.9,-9.9 v -55.2 c 0,-5.4 4.4,-9.9 9.9,-9.9 h 53.9 c 5.4,0 9.9,4.4 9.9,9.9 l 0,55.2 0,0 z"
   id="path6315"
   style="fill:#ffffff;stroke:#ffffff;stroke-width:2.14319992;stroke-miterlimit:10;display:none" />
                    <g
   id="Board">
                        <path
   d="m 66.5,7.5 c 0,-1.7 -1.3,-3 -3,-3 h -79 c -1.7,0 -3,1.3 -3,3 v 57 c 0,1.7 1.3,3 3,3 h 79 c 1.7,0 3,-1.3 3,-3 v -57 z"
   id="path16"
   style="fill:#a51111" />
                    </g>
                    <path
   d="m -3.1,16.3 c 0,13.1 0,26.3 0.1,39.4 -0.6,0.6 -1.4,0.6 -2.2,0.6 -4.3,0 -8.6,0.1 -12.9,0 -11.2,0.1 -22.5,0 -33.7,0 -0.8,0 -1.6,0 -2.2,-0.6 0,-12.6 0,-25.1 -0.1,-37.7 0,-1.7 0.8,-1.8 2.1,-1.8 16.3,0.1 32.6,0.1 48.9,0.1 z"
   id="path18"
   style="fill:#dcdcdc" />
                    <path
   d="m -54,55.8 c 12,0 24,0 36,0 0.7,1 0.7,2 0.1,3.1 l -0.2,0 c -10.9,0 -21.9,0 -32.8,0 -3.4,-0.1 -3.2,0.7 -3.1,-3.1 z"
   id="path20"
   style="fill:#b3b3b5" />
                    <path
   d="m 34.5,44.1 c -0.3,0 -0.5,0 -0.8,0 -0.5,-0.2 -1,-0.2 -1.5,0 -0.3,0 -0.5,0 -0.8,0 -0.5,-0.2 -1,-0.2 -1.5,0 -0.3,0 -0.5,0 -0.8,0 -0.5,-0.2 -1,-0.2 -1.5,0 -0.3,0 -0.5,0 -0.8,0 -0.5,-0.2 -1,-0.2 -1.5,0 -0.3,0 -0.5,0 -0.8,0 -0.5,-0.2 -1,-0.2 -1.5,0 -0.3,0 -0.5,0 -0.8,0 -0.5,-0.2 -1,-0.2 -1.5,0 -1.2,0.1 -1.6,-0.5 -1.6,-1.6 0,-4.1 0.1,-8.2 0,-12.3 0,-1.3 0.6,-1.6 1.6,-1.5 0.5,-0.4 1,-0.4 1.4,0 0.3,0 0.6,0 0.9,0 0.5,-0.4 1,-0.4 1.4,0 0.3,0 0.6,0 0.9,0 0.5,-0.4 1,-0.4 1.4,0 0.3,0 0.6,0 0.9,0 0.5,-0.4 1,-0.4 1.4,0 0.3,0 0.6,0 0.9,0 0.5,-0.4 1,-0.4 1.4,0 0.3,0 0.6,0 0.9,0 0.5,-0.4 1,-0.4 1.4,0 0.3,0 0.6,0 0.9,0 0.5,-0.4 1,-0.4 1.4,0 0.3,0 0.6,0 0.9,0 0.5,-0.4 1,-0.4 1.4,0 0.3,0 0.6,0 0.9,0 0.5,-0.4 1,-0.4 1.4,0 0.3,0 0.6,0 0.9,0 0.5,-0.4 1,-0.4 1.4,0 0.3,0 0.6,0 0.9,0 0.5,-0.4 1,-0.4 1.4,0 0.3,0 0.6,0 0.9,0 0.5,-0.4 1,-0.4 1.4,0 0.3,0 0.6,0 0.9,0 0.5,-0.4 1,-0.4 1.4,0 1.3,-0.1 1.6,0.5 1.6,1.7 -0.1,4 0,8 0,12 0,1.1 -0.2,2 -1.6,1.8 -0.5,-0.2 -1,-0.2 -1.5,0 -0.3,0 -0.5,0 -0.8,0 -0.5,-0.2 -1,-0.2 -1.5,0 -0.3,0 -0.5,0 -0.8,0 -0.5,-0.2 -1,-0.2 -1.5,0 -0.3,0 -0.5,0 -0.8,0 -0.5,-0.2 -1,-0.2 -1.5,0 -0.3,0 -0.5,0 -0.8,0 -0.5,-0.2 -1,-0.2 -1.5,0 -0.3,0 -0.5,0 -0.8,0 -0.5,-0.2 -1,-0.2 -1.5,0 -0.3,0 -0.5,0 -0.8,0 -0.4,-0.3 -0.9,-0.3 -1.4,-0.1 z"
   id="path22"
   style="fill:#3b4042" />
                    <path
   d="m -18.5,58.8 c 0,-1 0,-2 -0.1,-3.1 5.2,0 10.3,0 15.5,-0.1 0,3.7 0.3,3.1 -3.1,3.1 -4,0.1 -8.2,0.1 -12.3,0.1 z"
   id="path24"
   style="fill:#680101" />
                    <path
   d="m 58.8,32.5 c 0.7,2.1 0.8,4.2 -0.1,6.3 -1,0.6 -1.9,0.6 -2.9,0 -0.8,-2.1 -0.7,-4.2 -0.1,-6.3 1.1,-0.7 2.1,-0.7 3.1,0 z"
   id="path26"
   style="fill:#2f2f2f" />
                    <path
   d="m 38.4,19.6 c 0,-0.1 0,-0.2 0,-0.3 -0.7,-1 -0.7,-2 0,-3 2.1,-0.7 4.1,-0.7 6.2,0 0.7,1 0.7,2 0,3 0,0.1 0,0.2 0,0.3 -2.1,0.5 -4.2,0.5 -6.2,0 z"
   id="path28"
   style="fill:#bfa877" />
                    <path
   d="m 55.9,26 c -0.8,-2.1 -0.7,-4.2 -0.1,-6.3 1,-0.7 2,-0.7 3,0 0.7,2.1 0.8,4.2 -0.1,6.3 -0.9,0.6 -1.9,0.6 -2.8,0 z"
   id="path30"
   style="fill:#2f2f2f" />
                    <path
   d="m 29.1,56.9 c 0,0.1 0,0.2 0,0.3 -2.1,0.5 -4.1,0.5 -6.2,0 0,-0.1 0,-0.2 0,-0.3 -0.7,-1 -0.7,-2 0,-3 2.1,-0.7 4.1,-0.7 6.2,0 0.7,0.9 0.7,1.9 0,3 z"
   id="path32"
   style="fill:#bfa877" />
                    <path
   d="m 58.8,46 c 0.7,2.1 0.8,4.2 -0.1,6.3 -1,0.6 -1.9,0.6 -2.9,0 -0.8,-2.1 -0.7,-4.2 -0.1,-6.3 1.1,-0.7 2.1,-0.7 3.1,0 z"
   id="path34"
   style="fill:#2f2f2f" />
                    <path
   d="m 11.3,41.5 c -0.8,-1.6 -0.2,-3.2 -0.4,-4.9 -0.1,-0.6 0,-1.2 0,-1.7 0.1,-1.4 -0.6,-3.5 0.3,-4 1.4,-0.7 3.4,-0.3 5.1,-0.3 0.4,0 0.8,0.1 0.8,0.6 -0.2,3.4 0.5,6.9 -0.4,10.2 -0.1,-0.1 -0.2,-0.2 -0.2,-0.2 -0.2,-0.3 -0.2,-0.6 -0.3,-1 -0.1,-2.6 0,-5.3 -0.1,-7.9 -1,-1.2 -3.2,-1.2 -4.2,0 -0.1,2.6 0,5.3 -0.1,7.9 0,0.3 -0.1,0.7 -0.3,1 0,0.1 -0.1,0.2 -0.2,0.3 z"
   id="path36"
   style="fill:#dcdcdc" />
                    <path
   d="m 65.5,33.3 c 0.6,2.1 0.6,4.1 0,6.2 -0.1,-0.1 -0.1,-0.1 -0.2,-0.2 -0.4,-0.6 -0.3,-1.7 -1.5,-1.6 -1.1,0.1 -0.9,1 -1.3,1.6 -0.1,0.1 -0.1,0.1 -0.2,0.2 -0.6,-2.1 -0.6,-4.1 0,-6.2 0.1,0.1 0.1,0.1 0.2,0.2 0.4,0.6 0.3,1.7 1.5,1.6 1.1,-0.1 0.9,-1 1.3,-1.6 0,-0.1 0.1,-0.1 0.2,-0.2 z"
   id="path38"
   style="fill:#979688" />
                    <path
   d="m 62.7,26 c -0.6,-2.1 -0.6,-4.1 0,-6.2 0.1,0.1 0.1,0.1 0.2,0.2 0.4,0.6 0.3,1.7 1.5,1.6 1.1,-0.1 0.9,-1 1.3,-1.6 0.1,-0.1 0.1,-0.1 0.2,-0.2 0.6,2.1 0.6,4.1 0,6.2 -0.1,-0.1 -0.1,-0.1 -0.2,-0.2 -0.4,-0.6 -0.3,-1.7 -1.5,-1.6 -1.1,0.1 -0.9,1 -1.3,1.6 0,0 -0.1,0.1 -0.2,0.2 z"
   id="path40"
   style="fill:#979688" />
                    <path
   d="m 62.3,52.3 c -0.6,-2.1 -0.6,-4.1 0,-6.2 0.1,0.1 0.1,0.1 0.2,0.2 0.4,0.6 0.3,1.7 1.5,1.6 1.1,-0.1 0.9,-1 1.3,-1.6 0.1,-0.1 0.1,-0.1 0.2,-0.2 0.6,2.1 0.6,4.1 0,6.2 -0.1,-0.1 -0.1,-0.1 -0.2,-0.2 -0.4,-0.6 -0.3,-1.7 -1.5,-1.6 -1.1,0.1 -0.9,1 -1.3,1.6 0,0 -0.1,0.1 -0.2,0.2 z"
   id="path42"
   style="fill:#979688" />
                    <path
   d="m 58.8,46 c -1,0 -2,0 -3,0 -0.2,-1.3 0.4,-1.6 1.6,-1.6 1.2,0 1.6,0.5 1.4,1.6 z"
   id="path44"
   style="fill:#d8d9da" />
                    <path
   d="m 62.3,46.1 c -0.1,-1.2 0.4,-1.6 1.7,-1.6 1.2,0 1.5,0.6 1.5,1.6 l -0.1,0 c -1,0.7 -1.9,0.7 -2.9,0 l -0.2,0 z"
   id="path46"
   style="fill:#d8d9da" />
                    <path
   d="m 55.9,52.3 c 1,0 1.9,0 2.9,0 0.3,1.3 -0.4,1.5 -1.5,1.5 -1.1,0.1 -1.8,-0.2 -1.4,-1.5 z"
   id="path48"
   style="fill:#cacacc" />
                    <path
   d="m 55.9,26 c 1,0 1.9,0 2.9,0 0.3,1.3 -0.4,1.5 -1.5,1.5 -1.1,0.1 -1.8,-0.2 -1.4,-1.5 z"
   id="path50"
   style="fill:#cacacc" />
                    <path
   d="m 22.9,53.8 c 0,1 0,2 0,3 -1.1,0.2 -1.6,-0.2 -1.6,-1.4 0,-1.2 0.3,-1.8 1.6,-1.6 z"
   id="path52"
   style="fill:#d8d9da" />
                    <path
   d="m 29.1,56.9 c 0,-1 0,-2 0,-3 1.3,-0.2 1.6,0.4 1.6,1.6 0,1.1 -0.5,1.5 -1.6,1.4 z"
   id="path54"
   style="fill:#d8d9da" />
                    <path
   d="m 62.7,19.8 c -0.1,-1.2 0.4,-1.6 1.7,-1.6 1.2,0 1.5,0.6 1.5,1.6 0,0 -0.1,0 -0.1,0 -1,0.7 -1.9,0.7 -2.9,0 l -0.2,0 z"
   id="path56"
   style="fill:#d8d9da" />
                    <path
   d="m 58.8,19.7 c -1,0 -2,0 -3,0 -0.2,-1.3 0.4,-1.6 1.6,-1.6 1.2,0 1.6,0.5 1.4,1.6 z"
   id="path58"
   style="fill:#d8d9da" />
                    <path
   d="m 44.6,19.3 c 0,-1 0,-2 0,-3 1.3,-0.2 1.6,0.4 1.6,1.6 0,1.2 -0.5,1.6 -1.6,1.4 z"
   id="path60"
   style="fill:#d8d9da" />
                    <path
   d="m 38.4,16.3 c 0,1 0,2 0,3 -1.1,0.2 -1.6,-0.2 -1.6,-1.4 0,-1.2 0.3,-1.8 1.6,-1.6 z"
   id="path62"
   style="fill:#d8d9da" />
                    <path
   d="m 62.3,33.3 c -0.1,-1.2 0.4,-1.6 1.7,-1.6 1.2,0 1.5,0.6 1.5,1.6 0,0 -0.1,0 -0.1,0 -1,0.7 -1.9,0.7 -2.9,0 l -0.2,0 z"
   id="path64"
   style="fill:#d8d9da" />
                    <path
   d="m 58.8,32.5 c -1,0 -2,0 -3,0 -0.2,-1.3 0.4,-1.6 1.6,-1.6 1.2,0 1.6,0.5 1.4,1.6 z"
   id="path66"
   style="fill:#d8d9da" />
                    <path
   d="m 55.9,38.8 c 1,0 1.9,0 2.9,0 0.3,1.3 -0.4,1.5 -1.5,1.5 -1.1,0 -1.8,-0.2 -1.4,-1.5 z"
   id="path68"
   style="fill:#cacacc" />
                    <path
   d="m 16.7,41.5 c -1.1,1 -4.4,1 -5.4,0 0,0 0,-0.1 0,-0.1 1.8,-0.8 3.6,-0.8 5.4,0 l 0,0.1 z"
   id="path70"
   style="fill:#313958" />
                    <path
   d="m 65.4,39.9 c 0.2,1.3 -0.8,1.2 -1.6,1.2 -0.8,0 -1.6,0 -1.4,-1.2 1,-0.8 2,-0.8 3,0 z"
   id="path72"
   style="fill:#d7d7d9" />
                    <path
   d="m 65.8,26.4 c 0.2,1.3 -0.8,1.2 -1.6,1.2 -0.8,0 -1.6,0 -1.4,-1.2 1,-0.8 2,-0.8 3,0 z"
   id="path74"
   style="fill:#d7d7d9" />
                    <path
   d="m 65.4,52.7 c 0.2,1.3 -0.8,1.2 -1.6,1.2 -0.8,0 -1.6,0 -1.4,-1.2 1,-0.8 2,-0.8 3,0 z"
   id="path76"
   style="fill:#d7d7d9" />
                    <path
   d="m 38.4,19.6 c 2.1,0.2 4.1,0.2 6.2,0 -2.1,0.9 -4.2,0.9 -6.2,0 z"
   id="path78"
   style="fill:#323a59" />
                    <path
   d="m 22.9,57.1 c 2.1,0.2 4.1,0.2 6.2,0 C 27,58 25,58 22.9,57.1 z"
   id="path80"
   style="fill:#323a59" />
                    <path
   d="m 20.6,44.1 c 0,-0.5 0.3,-0.8 0.9,-0.7 0.5,0 0.6,0.3 0.7,0.7 0,0.1 0,0.2 0,0.3 -0.5,0.5 -1,0.5 -1.5,0 -0.1,-0.1 -0.1,-0.2 -0.1,-0.3 z"
   id="path82"
   style="fill:#999999" />
                    <path
   d="m 22.9,44.1 c 0,-0.5 0.3,-0.8 0.9,-0.7 0.5,0 0.6,0.3 0.7,0.7 0,0.1 0,0.2 0,0.3 -0.5,0.5 -1,0.5 -1.5,0 -0.1,-0.1 -0.1,-0.2 -0.1,-0.3 z"
   id="path84"
   style="fill:#999999" />
                    <path
   d="m 25.2,44.1 c 0,-0.5 0.3,-0.8 0.9,-0.7 0.5,0 0.6,0.3 0.7,0.7 0,0.1 0,0.2 0,0.3 -0.5,0.5 -1,0.5 -1.5,0 0,-0.1 0,-0.2 -0.1,-0.3 z"
   id="path86"
   style="fill:#999999" />
                    <path
   d="m 27.5,44.1 c 0,-0.5 0.3,-0.8 0.9,-0.7 0.5,0 0.6,0.3 0.7,0.7 0,0.1 0,0.2 0,0.3 -0.5,0.5 -1,0.5 -1.5,0 0,-0.1 0,-0.2 -0.1,-0.3 z"
   id="path88"
   style="fill:#999999" />
                    <path
   d="m 29.9,44.1 c 0,-0.5 0.3,-0.8 0.9,-0.7 0.5,0 0.6,0.3 0.7,0.7 0,0.1 0,0.2 0,0.3 -0.5,0.5 -1,0.5 -1.5,0 -0.1,-0.1 -0.1,-0.2 -0.1,-0.3 z"
   id="path90"
   style="fill:#999999" />
                    <path
   d="m 32.2,44.1 c 0,-0.5 0.3,-0.8 0.9,-0.7 0.5,0 0.6,0.3 0.7,0.7 0,0.1 0,0.2 0,0.3 -0.5,0.5 -1,0.5 -1.5,0 -0.1,-0.1 -0.1,-0.2 -0.1,-0.3 z"
   id="path92"
   style="fill:#999999" />
                    <path
   d="m 34.5,44.1 c 0,-0.5 0.3,-0.8 0.9,-0.7 0.5,0 0.6,0.3 0.7,0.7 0,0.1 0,0.2 0,0.3 -0.5,0.5 -1,0.5 -1.5,0 0,-0.1 -0.1,-0.2 -0.1,-0.3 z"
   id="path94"
   style="fill:#999999" />
                    <path
   d="m 36.8,44.1 c 0,-0.5 0.3,-0.8 0.9,-0.7 0.5,0 0.6,0.3 0.7,0.7 0,0.1 0,0.2 0,0.3 -0.5,0.5 -1,0.5 -1.5,0 0,-0.1 0,-0.2 -0.1,-0.3 z"
   id="path96"
   style="fill:#999999" />
                    <path
   d="m 39.2,44.1 c 0,-0.5 0.3,-0.8 0.9,-0.7 0.5,0 0.6,0.3 0.7,0.7 0,0.1 0,0.2 0,0.3 -0.5,0.5 -1,0.5 -1.5,0 -0.1,-0.1 -0.1,-0.2 -0.1,-0.3 z"
   id="path98"
   style="fill:#999999" />
                    <path
   d="m 41.5,44.1 c 0,-0.5 0.3,-0.8 0.9,-0.7 0.5,0 0.6,0.3 0.7,0.7 0,0.1 0,0.2 0,0.3 -0.5,0.5 -1,0.5 -1.5,0 -0.1,-0.1 -0.1,-0.2 -0.1,-0.3 z"
   id="path100"
   style="fill:#999999" />
                    <path
   d="m 43.8,44.1 c 0,-0.5 0.3,-0.8 0.9,-0.7 0.5,0 0.6,0.3 0.7,0.7 0,0.1 0,0.2 0,0.3 -0.5,0.5 -1,0.5 -1.5,0 -0.1,-0.1 -0.1,-0.2 -0.1,-0.3 z"
   id="path102"
   style="fill:#999999" />
                    <path
   d="m 46.1,44.1 c 0,-0.5 0.3,-0.8 0.9,-0.7 0.5,0 0.6,0.3 0.7,0.7 0,0.1 0,0.2 0,0.3 -0.5,0.5 -1,0.5 -1.5,0 0,-0.1 -0.1,-0.2 -0.1,-0.3 z"
   id="path104"
   style="fill:#999999" />
                    <path
   d="m 48.4,44.1 c 0,-0.5 0.3,-0.8 0.9,-0.7 0.5,0 0.6,0.3 0.7,0.7 0,0.1 0,0.2 0,0.3 -0.5,0.5 -1,0.5 -1.5,0 0,-0.1 0,-0.2 -0.1,-0.3 z"
   id="path106"
   style="fill:#999999" />
                    <path
   d="m 25.2,44.4 c 0.5,0 1,0 1.5,0 0,0.5 -0.1,1.1 -0.8,1.1 -0.6,0 -0.6,-0.5 -0.7,-1.1 z"
   id="path108"
   style="fill:#343c5d" />
                    <path
   d="m 45.3,28.6 c -0.5,0 -1,0 -1.4,0 -0.1,-0.5 0.1,-1 0.7,-1 0.6,0 0.7,0.5 0.7,1 z"
   id="path110"
   style="fill:#c7c9cf" />
                    <path
   d="m 27.6,44.4 c 0.5,0 1,0 1.5,0 0,0.5 -0.1,1.1 -0.8,1.1 -0.6,0 -0.7,-0.5 -0.7,-1.1 z"
   id="path112"
   style="fill:#343c5d" />
                    <path
   d="m 29.9,44.4 c 0.5,0 1,0 1.5,0 0,0.5 -0.1,1.1 -0.8,1.1 -0.6,0 -0.7,-0.5 -0.7,-1.1 z"
   id="path114"
   style="fill:#343c5d" />
                    <path
   d="m 32.2,44.4 c 0.5,0 1,0 1.5,0 0,0.5 -0.1,1.1 -0.8,1.1 -0.6,0 -0.7,-0.5 -0.7,-1.1 z"
   id="path116"
   style="fill:#343c5d" />
                    <path
   d="m 22.9,44.4 c 0.5,0 1,0 1.5,0 0,0.5 -0.1,1.1 -0.8,1.1 -0.6,0 -0.7,-0.5 -0.7,-1.1 z"
   id="path118"
   style="fill:#343c5d" />
                    <path
   d="m 20.6,44.4 c 0.5,0 1,0 1.5,0 0,0.5 -0.1,1.1 -0.8,1.1 -0.6,0 -0.7,-0.5 -0.7,-1.1 z"
   id="path120"
   style="fill:#343c5d" />
                    <path
   d="m 26.7,28.6 c -0.5,0 -1,0 -1.4,0 -0.1,-0.5 0.1,-1 0.7,-1 0.6,0 0.8,0.5 0.7,1 z"
   id="path122"
   style="fill:#c7c9cf" />
                    <path
   d="m 47.6,28.6 c -0.5,0 -1,0 -1.4,0 -0.1,-0.5 0.1,-1 0.7,-1 0.6,0 0.8,0.5 0.7,1 z"
   id="path124"
   style="fill:#c7c9cf" />
                    <path
   d="m 49.9,28.6 c -0.5,0 -1,0 -1.4,0 -0.1,-0.5 0.1,-1 0.7,-1 0.7,0 0.8,0.5 0.7,1 z"
   id="path126"
   style="fill:#c7c9cf" />
                    <path
   d="m 33.7,28.6 c -0.5,0 -1,0 -1.4,0 -0.1,-0.5 0.1,-1 0.7,-1 0.6,0 0.7,0.5 0.7,1 z"
   id="path128"
   style="fill:#c7c9cf" />
                    <path
   d="m 31.4,28.6 c -0.5,0 -1,0 -1.4,0 -0.1,-0.5 0.1,-1 0.7,-1 0.6,0 0.7,0.5 0.7,1 z"
   id="path130"
   style="fill:#c7c9cf" />
                    <path
   d="m 36,28.6 c -0.5,0 -1,0 -1.4,0 -0.1,-0.5 0.1,-1 0.7,-1 0.6,0 0.7,0.5 0.7,1 z"
   id="path132"
   style="fill:#c7c9cf" />
                    <path
   d="m 38.3,28.6 c -0.5,0 -1,0 -1.4,0 -0.1,-0.5 0.1,-1 0.7,-1 0.7,0 0.8,0.5 0.7,1 z"
   id="path134"
   style="fill:#c7c9cf" />
                    <path
   d="m 40.6,28.6 c -0.5,0 -1,0 -1.4,0 -0.1,-0.5 0.1,-1 0.7,-1 0.7,0 0.8,0.5 0.7,1 z"
   id="path136"
   style="fill:#c7c9cf" />
                    <path
   d="m 43,28.6 c -0.5,0 -1,0 -1.4,0 -0.1,-0.5 0.1,-1 0.7,-1 0.6,0 0.7,0.5 0.7,1 z"
   id="path138"
   style="fill:#c7c9cf" />
                    <path
   d="m 22.1,28.6 c -0.5,0 -1,0 -1.4,0 -0.1,-0.5 0.1,-1 0.7,-1 0.6,0 0.7,0.5 0.7,1 z"
   id="path140"
   style="fill:#c7c9cf" />
                    <path
   d="m 24.4,28.6 c -0.5,0 -1,0 -1.4,0 -0.1,-0.5 0.1,-1 0.7,-1 0.6,0 0.7,0.5 0.7,1 z"
   id="path142"
   style="fill:#c7c9cf" />
                    <path
   d="m 29,28.6 c -0.5,0 -1,0 -1.4,0 -0.1,-0.5 0.1,-1 0.7,-1 0.7,0 0.8,0.5 0.7,1 z"
   id="path144"
   style="fill:#c7c9cf" />
                    <path
   d="m 48.5,44.4 c 0.5,0 1,0 1.5,0 0,0.5 -0.1,1.1 -0.8,1.1 -0.6,0 -0.7,-0.5 -0.7,-1.1 z"
   id="path146"
   style="fill:#343c5d" />
                    <path
   d="m 46.1,44.4 c 0.5,0 1,0 1.5,0 0,0.5 -0.1,1.1 -0.8,1.1 -0.6,0 -0.7,-0.5 -0.7,-1.1 z"
   id="path148"
   style="fill:#343c5d" />
                    <path
   d="m 43.8,44.4 c 0.5,0 1,0 1.5,0 0,0.5 -0.1,1.1 -0.8,1.1 -0.6,0 -0.7,-0.5 -0.7,-1.1 z"
   id="path150"
   style="fill:#343c5d" />
                    <path
   d="m 41.5,44.4 c 0.5,0 1,0 1.5,0 0,0.5 -0.1,1.1 -0.8,1.1 -0.6,0 -0.7,-0.5 -0.7,-1.1 z"
   id="path152"
   style="fill:#343c5d" />
                    <path
   d="m 39.2,44.4 c 0.5,0 1,0 1.5,0 0,0.5 -0.1,1.1 -0.8,1.1 -0.6,0 -0.7,-0.5 -0.7,-1.1 z"
   id="path154"
   style="fill:#343c5d" />
                    <path
   d="m 36.9,44.4 c 0.5,0 1,0 1.5,0 0,0.5 -0.1,1.1 -0.8,1.1 -0.7,0 -0.7,-0.5 -0.7,-1.1 z"
   id="path156"
   style="fill:#343c5d" />
                    <path
   d="m 34.5,44.4 c 0.5,0 1,0 1.5,0 0,0.5 -0.1,1.1 -0.8,1.1 -0.6,0 -0.7,-0.5 -0.7,-1.1 z"
   id="path158"
   style="fill:#343c5d" />
                    <path
   d="m 65.8,26.4 c -1,0 -2,0 -3,0 0,-0.1 -0.1,-0.3 -0.1,-0.4 l 0.1,0 c 1,-0.7 1.9,-0.7 2.9,0 0,0 0.1,0 0.1,0 0,0.1 0,0.2 0,0.4 z"
   id="path160"
   style="fill:#b4b4b4" />
                    <path
   d="m 65.4,39.9 c -1,0 -2,0 -3,0 0,-0.1 -0.1,-0.3 -0.1,-0.4 l 0.1,0 c 1,-0.7 1.9,-0.7 2.9,0 0,0 0.1,0 0.1,0 0,0.1 0,0.3 0,0.4 z"
   id="path162"
   style="fill:#b4b4b4" />
                    <path
   d="m 65.4,52.7 c -1,0 -2,0 -3,0 0,-0.1 -0.1,-0.3 -0.1,-0.4 l 0.1,0 c 1,-0.7 1.9,-0.7 2.9,0 l 0.1,0 c 0,0.1 0,0.2 0,0.4 z"
   id="path164"
   style="fill:#b4b4b4" />
                    <path
   d="m -39,41.7 c 0,1.2 0,2.4 0.1,3.6 0.1,1.5 -0.6,2.3 -2.1,2.2 -0.6,0 -1.3,0 -1.9,0 -1.6,0.1 -2.2,-0.7 -2.1,-2.2 0,-1.2 0,-2.4 0.1,-3.6 0.2,-0.6 0.3,-1.2 1,-1.5 1.3,-0.3 2.7,-0.3 4,0 0.6,0.3 0.6,1 0.9,1.5 z"
   id="path166"
   style="fill:#aaa9a9" />
                    <path
   d="m -39,26.3 c 0,1.2 0,2.4 0.1,3.6 0.1,1.5 -0.6,2.3 -2.1,2.2 -0.6,0 -1.3,0 -1.9,0 -1.6,0.1 -2.2,-0.7 -2.1,-2.2 0,-1.2 0,-2.4 0.1,-3.6 0.2,-0.6 0.3,-1.2 1,-1.5 1.3,-0.3 2.7,-0.3 4,0 0.6,0.2 0.6,0.9 0.9,1.5 z"
   id="path168"
   style="fill:#aaa9a9" />
                    <path
   d="m -39.8,25.2 c -1.5,0 -3.1,0 -4.6,0 -0.4,0.1 -0.6,0 -0.4,-0.5 1.3,-1 4.2,-1 5.5,0 0.1,0.5 -0.1,0.6 -0.5,0.5 z"
   id="path170"
   style="fill:#797879" />
                    <path
   d="m -39.8,40.7 c -1.5,0 -3.1,0 -4.6,0 -0.4,0.1 -0.6,0 -0.4,-0.5 1.3,-1 4.2,-1 5.5,0 0.1,0.4 -0.1,0.5 -0.5,0.5 z"
   id="path172"
   style="fill:#797879" />
                    <path
   d="m -39.8,25.2 c 0.1,-0.2 0.3,-0.3 0.4,-0.5 0.5,0.4 0.3,1 0.3,1.5 -0.2,-0.3 -0.4,-0.6 -0.7,-1 z"
   id="path174"
   style="fill:#898989" />
                    <path
   d="m -44.8,24.7 c 0.1,0.2 0.3,0.3 0.4,0.5 -0.2,0.4 -0.5,0.7 -0.7,1.1 -0.1,-0.6 -0.2,-1.1 0.3,-1.6 z"
   id="path176"
   style="fill:#8d8c8d" />
                    <path
   d="m -44.8,40.2 c 0.1,0.2 0.3,0.3 0.4,0.5 -0.2,0.4 -0.5,0.7 -0.7,1.1 -0.1,-0.6 -0.2,-1.2 0.3,-1.6 z"
   id="path178"
   style="fill:#8d8c8d" />
                    <path
   d="m -39.8,40.7 c 0.1,-0.2 0.3,-0.3 0.4,-0.5 0.5,0.4 0.3,1 0.3,1.5 -0.2,-0.3 -0.4,-0.7 -0.7,-1 z"
   id="path180"
   style="fill:#898989" />
                    <path
   d="M 13.2,6.6 C 12.8,7.1 12.4,7.6 12,8.2 11.2,8.8 10.5,8.8 9.7,8.2 9.4,7.5 9,7 8.2,7 9.8,6.1 11.6,6.8 13.2,6.6 z"
   id="path182"
   style="fill:#262a2b" />
                    <path
   d="m 20.6,6.6 c -0.4,0.5 -0.8,1 -1.2,1.6 -0.8,0.6 -1.5,0.6 -2.3,0 C 16.8,7.5 16.3,7 15.6,7 c 1.6,-0.9 3.3,-0.2 5,-0.4 z"
   id="path184"
   style="fill:#262a2b" />
                    <path
   d="m 35.3,6.6 c -0.4,0.5 -0.8,1 -1.2,1.6 -0.8,0.6 -1.5,0.6 -2.3,0 C 31.5,7.5 31,7 30.3,7 c 1.6,-0.9 3.3,-0.2 5,-0.4 z"
   id="path186"
   style="fill:#262a2b" />
                    <path
   d="m 42.6,6.6 c -0.4,0.5 -0.8,1 -1.2,1.6 -0.8,0.6 -1.5,0.6 -2.3,0 C 38.8,7.5 38.4,7 37.6,7 39.2,6.1 41,6.8 42.6,6.6 z"
   id="path188"
   style="fill:#262a2b" />
                    <path
   d="M 50,6.6 C 49.6,7.1 49.2,7.6 48.8,8.2 48,8.8 47.3,8.8 46.5,8.2 46.2,7.5 45.7,7 45,7 46.6,6.1 48.3,6.8 50,6.6 z"
   id="path190"
   style="fill:#262a2b" />
                    <path
   d="m 57.3,6.6 c -0.4,0.5 -0.8,1 -1.2,1.6 -0.8,0.6 -1.5,0.6 -2.3,0 C 53.5,7.5 53.1,7 52.3,7 c 1.6,-0.9 3.4,-0.2 5,-0.4 z"
   id="path192"
   style="fill:#262a2b" />
                    <path
   d="M 64.7,6.6 C 64.3,7.1 63.9,7.6 63.5,8.2 62.7,8.8 62,8.8 61.2,8.2 60.9,7.5 60.4,7 59.7,7 61.3,6.1 63,6.8 64.7,6.6 z"
   id="path194"
   style="fill:#262a2b" />
                    <path
   d="m 27.9,6.6 c -0.4,0.5 -0.8,1 -1.2,1.6 -0.8,0.6 -1.5,0.6 -2.3,0 C 24.1,7.5 23.7,7 22.9,7 c 1.6,-0.9 3.4,-0.2 5,-0.4 z"
   id="path196"
   style="fill:#262a2b" />
                    <path
   d="m 16.7,31.8 c 0,3 0,5.9 0,8.9 -1.8,0.4 -3.5,0.4 -5.3,0 0,-3 0,-5.9 0,-8.9 1.7,-0.5 3.5,-0.5 5.3,0 z"
   id="path198"
   style="fill:#3b4042" />
                    <path
   d="m 16.7,31.8 c -1.8,0.4 -3.5,0.4 -5.3,0 0,-0.4 0.1,-0.8 0.6,-0.8 1.4,0 2.7,0 4.1,0 0.4,0 0.6,0.3 0.6,0.8 z"
   id="path200"
   style="fill:#fabf6a" />
                    <path
   d="m 11.4,40.6 c 1.8,-0.4 3.5,-0.4 5.3,0 0,0.2 0,0.5 0,0.7 -1.8,0 -3.6,0 -5.4,0 0,-0.2 0,-0.4 0.1,-0.7 z"
   id="path202"
   style="fill:#fabf6a" />
                    <path
   d="m 65.3,39.5 c -1,0 -1.9,0 -2.9,0 -0.1,-1.1 -0.6,-2.3 1.4,-2.3 2.1,-0.1 1.7,1.1 1.5,2.3 z"
   id="path204"
   style="fill:#979688" />
                    <path
   d="m 62.5,33.3 c 1,0 1.9,0 2.9,0 0.2,1.2 0.5,2.4 -1.5,2.4 -2.1,-0.1 -1.5,-1.4 -1.4,-2.4 z"
   id="path206"
   style="fill:#979688" />
                    <path
   d="m 62.8,19.7 c 1,0 1.9,0 2.9,0 0.2,1.2 0.5,2.4 -1.5,2.4 -2,-0.1 -1.4,-1.3 -1.4,-2.4 z"
   id="path208"
   style="fill:#979688" />
                    <path
   d="m 65.7,25.9 c -1,0 -1.9,0 -2.9,0 -0.1,-1.1 -0.6,-2.3 1.4,-2.3 2.1,0 1.7,1.2 1.5,2.3 z"
   id="path210"
   style="fill:#979688" />
                    <path
   d="m 62.5,46 c 1,0 1.9,0 2.9,0 0.2,1.2 0.5,2.4 -1.5,2.4 -2.1,-0.1 -1.5,-1.3 -1.4,-2.4 z"
   id="path212"
   style="fill:#979688" />
                    <path
   d="m 65.3,52.2 c -1,0 -1.9,0 -2.9,0 -0.1,-1.1 -0.6,-2.3 1.4,-2.3 2.1,0 1.7,1.2 1.5,2.3 z"
   id="path214"
   style="fill:#979688" />
                    <path
   d="m 9.8,8.2 c 0.8,0 1.5,0 2.3,0 0,0.6 0,1.3 0,1.9 -1.5,0.1 -2.7,0 -2.3,-1.9 z"
   id="path216"
   style="fill:#1d1e1e" />
                    <path
   d="m 17.1,8.2 c 0.8,0 1.5,0 2.3,0 0,0.6 0,1.3 0,1.9 -1.5,0.1 -2.7,0 -2.3,-1.9 z"
   id="path218"
   style="fill:#1d1e1e" />
                    <path
   d="m 24.5,8.2 c 0.8,0 1.5,0 2.3,0 0,0.6 0,1.3 0,1.9 -1.5,0.1 -2.7,0 -2.3,-1.9 z"
   id="path220"
   style="fill:#1d1e1e" />
                    <path
   d="m 31.8,8.2 c 0.8,0 1.5,0 2.3,0 0,0.6 0,1.3 0,1.9 -1.5,0.1 -2.7,0 -2.3,-1.9 z"
   id="path222"
   style="fill:#1d1e1e;display:none" />
                    <path
   d="m 39.2,8.2 c 0.8,0 1.5,0 2.3,0 0,0.6 0,1.3 0,1.9 -1.5,0.1 -2.7,0 -2.3,-1.9 z"
   id="path224"
   style="fill:#1d1e1e" />
                    <path
   d="m 46.5,8.2 c 0.8,0 1.5,0 2.3,0 0,0.6 0,1.3 0,1.9 -1.5,0.1 -2.7,0 -2.3,-1.9 z"
   id="path226"
   style="fill:#1d1e1e" />
                    <path
   d="m 53.8,8.2 c 0.8,0 1.5,0 2.3,0 0,0.6 0,1.3 0,1.9 -1.4,0.1 -2.6,0 -2.3,-1.9 z"
   id="path228"
   style="fill:#1d1e1e" />
                    <path
   d="m 61.2,8.2 c 0.8,0 1.5,0 2.3,0 0,0.6 0,1.3 0,1.9 -1.5,0.1 -2.7,0 -2.3,-1.9 z"
   id="path230"
   style="fill:#1d1e1e" />
                    <rect
   width="58"
   height="6"
   x="7.5"
   y="5.5"
   id="Header_Shroud"
   style="fill:#333333" />
                    <rect
   width="58"
   height="6"
   x="7.5"
   y="60.5"
   id="Header_Shroud_1_"
   style="fill:#333333" />
                    <g
   id="g234">
                        <linearGradient
   x1="0.46799999"
   y1="22.7465"
   x2="0.47870001"
   y2="27.345501"
   id="SVGID_1_"
   gradientUnits="userSpaceOnUse">
                            <stop
   id="stop237"
   style="stop-color:#e6e6e6;stop-opacity:1"
   offset="0" />
                            <stop
   id="stop239"
   style="stop-color:#ffffff;stop-opacity:1"
   offset="0.09672919" />
                            <stop
   id="stop241"
   style="stop-color:#ffffff;stop-opacity:1"
   offset="0.8937" />
                            <stop
   id="stop243"
   style="stop-color:#e6e6e6;stop-opacity:1"
   offset="1" />
                        </linearGradient>
                        <path
   d="m 3.6,25 c 0,-1.4 -1.3,-2.5 -3,-2.5 H 0.4 c -1.7,0 -3,1.1 -3,2.5 0,1.4 1.3,2.5 3,2.5 h 0.2 c 1.6,0 3,-1.1 3,-2.5 z"
   id="path245"
   style="fill:url(#SVGID_1_)" />
                    </g>
                    <g
   id="g247">
                        <linearGradient
   x1="0.46799999"
   y1="30.1943"
   x2="0.47870001"
   y2="34.793301"
   id="SVGID_2_"
   gradientUnits="userSpaceOnUse">
                            <stop
   id="stop250"
   style="stop-color:#e6e6e6;stop-opacity:1"
   offset="0" />
                            <stop
   id="stop252"
   style="stop-color:#ffffff;stop-opacity:1"
   offset="0.09672919" />
                            <stop
   id="stop254"
   style="stop-color:#ffffff;stop-opacity:1"
   offset="0.8937" />
                            <stop
   id="stop256"
   style="stop-color:#e6e6e6;stop-opacity:1"
   offset="1" />
                        </linearGradient>
                        <path
   d="M 3.6,32.4 C 3.6,31 2.3,29.9 0.6,29.9 H 0.4 c -1.7,0 -3,1.1 -3,2.5 0,1.4 1.3,2.5 3,2.5 h 0.2 c 1.6,0 3,-1.1 3,-2.5 z"
   id="path258"
   style="fill:url(#SVGID_2_)" />
                    </g>
                    <g
   id="g260">
                        <linearGradient
   x1="0.46799999"
   y1="37.642101"
   x2="0.47870001"
   y2="42.2411"
   id="SVGID_3_"
   gradientUnits="userSpaceOnUse">
                            <stop
   id="stop263"
   style="stop-color:#e6e6e6;stop-opacity:1"
   offset="0" />
                            <stop
   id="stop265"
   style="stop-color:#ffffff;stop-opacity:1"
   offset="0.09672919" />
                            <stop
   id="stop267"
   style="stop-color:#ffffff;stop-opacity:1"
   offset="0.8937" />
                            <stop
   id="stop269"
   style="stop-color:#e6e6e6;stop-opacity:1"
   offset="1" />
                        </linearGradient>
                        <path
   d="m 3.6,39.9 c 0,-1.4 -1.3,-2.5 -3,-2.5 H 0.4 c -1.7,0 -3,1.1 -3,2.5 0,1.4 1.3,2.5 3,2.5 h 0.2 c 1.6,0 3,-1.1 3,-2.5 z"
   id="path271"
   style="fill:url(#SVGID_3_)" />
                    </g>
                    <g
   id="g273">
                        <linearGradient
   x1="0.46799999"
   y1="45.476601"
   x2="0.47870001"
   y2="50.0756"
   id="SVGID_4_"
   gradientUnits="userSpaceOnUse">
                            <stop
   id="stop276"
   style="stop-color:#e6e6e6;stop-opacity:1"
   offset="0" />
                            <stop
   id="stop278"
   style="stop-color:#ffffff;stop-opacity:1"
   offset="0.09672919" />
                            <stop
   id="stop280"
   style="stop-color:#ffffff;stop-opacity:1"
   offset="0.8937" />
                            <stop
   id="stop282"
   style="stop-color:#e6e6e6;stop-opacity:1"
   offset="1" />
                        </linearGradient>
                        <path
   d="m 3.6,47.7 c 0,-1.4 -1.3,-2.5 -3,-2.5 H 0.4 c -1.7,0 -3,1.1 -3,2.5 0,1.4 1.3,2.5 3,2.5 h 0.2 c 1.6,0 3,-1.1 3,-2.5 z"
   id="path284"
   style="fill:url(#SVGID_4_)" />
                    </g>
                    <path
   d="M 72,62.5 C 72,67.7 67.7,72 62.4,72 H 9.6 C 4.3,72 0,67.8 0,62.5 V 9.5 C 0,4.2 4.3,0 9.6,0 H 62.3 C 67.7,0 72,4.2 72,9.5 l 0,53 0,0 z"
   id="path6319"
   style="fill:#141414" />
                    <g
   id="g4002">
                        <rect
   width="0.80000001"
   height="0.80000001"
   x="4.0999999"
   y="67.099998"
   id="connector0pin"
   style="fill:none;stroke:#3c3c3c;stroke-width:0.08754112" />
                        <rect
   width="0.80000001"
   height="0.80000001"
   x="13.1"
   y="67.099998"
   id="connector1pin"
   style="fill:none;stroke:#3c3c3c;stroke-width:0.08754112" />
                        <rect
   width="0.80000001"
   height="0.80000001"
   x="22.1"
   y="67.099998"
   id="connector2pin"
   style="fill:none;stroke:#3c3c3c;stroke-width:0.08754112" />
                        <rect
   width="0.80000001"
   height="0.80000001"
   x="31.1"
   y="67.099998"
   id="connector3pin"
   style="fill:none;stroke:#3c3c3c;stroke-width:0.08754112" />
                        <rect
   width="0.80000001"
   height="0.80000001"
   x="40.099998"
   y="67.099998"
   id="connector4pin"
   style="fill:none;stroke:#3c3c3c;stroke-width:0.08754112" />
                        <rect
   width="0.80000001"
   height="0.80000001"
   x="49.099998"
   y="67.099998"
   id="connector5pin"
   style="fill:none;stroke:#3c3c3c;stroke-width:0.08754112" />
                        <rect
   width="0.80000001"
   height="0.80000001"
   x="58.099998"
   y="67.099998"
   id="connector6pin"
   style="fill:none;stroke:#3c3c3c;stroke-width:0.08754112" />
                        <rect
   width="0.80000001"
   height="0.80000001"
   x="67.099998"
   y="67.099998"
   id="connector7pin"
   style="fill:none;stroke:#3c3c3c;stroke-width:0.08754112" />
                        <rect
   width="0.80000001"
   height="0.80000001"
   x="4.0999999"
   y="4.0999999"
   id="connector15pin"
   style="fill:none;stroke:#3c3c3c;stroke-width:0.08754112" />
                        <rect
   width="0.80000001"
   height="0.80000001"
   x="13.1"
   y="4.0999999"
   id="connector14pin"
   style="fill:none;stroke:#3c3c3c;stroke-width:0.08754112" />
                        <rect
   width="0.80000001"
   height="0.80000001"
   x="22.1"
   y="4.0999999"
   id="connector13pin"
   style="fill:none;stroke:#3c3c3c;stroke-width:0.08754112" />
                        <rect
   width="0.80000001"
   height="0.80000001"
   x="40.099998"
   y="4.0999999"
   id="connector11pin"
   style="fill:none;stroke:#3c3c3c;stroke-width:0.08754112" />
                        <rect
   width="0.80000001"
   height="0.80000001"
   x="49.200001"
   y="4.0999999"
   id="connector10pin"
   style="fill:none;stroke:#3c3c3c;stroke-width:0.08754112" />
                        <rect
   width="0.80000001"
   height="0.80000001"
   x="58.099998"
   y="4.0999999"
   id="connector9pin"
   style="fill:none;stroke:#3c3c3c;stroke-width:0.08754112" />
                        <rect
   width="0.80000001"
   height="0.80000001"
   x="67.099998"
   y="4.0999999"
   id="connector8pin"
   style="fill:none;stroke:#3c3c3c;stroke-width:0.08754112" />
                        <rect
   width="0.80000001"
   height="0.80000001"
   x="31.1"
   y="4.0999999"
   id="connector12pin"
   style="fill:none;stroke:#3c3c3c;stroke-width:0.08754112" />
                    </g>
                    <rect
   width="50.299999"
   height="39.200001"
   x="10.9"
   y="13.1"
   id="rect6711"
   style="fill:#333333" />
                </g>
            </g>
        </g>
    </g>
</svg>