<?xml version='1.0' encoding='UTF-8' standalone='no'?>
<svg xmlns="http://www.w3.org/2000/svg" width="0.3387689in" id="svg69"  x="0in" viewBox="0 0 3387.6889 4015.6024" height="0.40156025in" version="1.2" y="0in" gorn="0">
    <metadata id="metadata75" >
        <rdf:RDF xmlns:rdf="http://www.w3.org/1999/02/22-rdf-syntax-ns#">
            <cc:Work rdf:about="" xmlns:rdf="http://www.w3.org/1999/02/22-rdf-syntax-ns#" xmlns:cc="http://creativecommons.org/ns#">
                <dc:format xmlns:dc="http://purl.org/dc/elements/1.1/">image/svg+xml</dc:format>
                <dc:type xmlns:dc="http://purl.org/dc/elements/1.1/" xmlns:rdf="http://www.w3.org/1999/02/22-rdf-syntax-ns#" rdf:resource="http://purl.org/dc/dcmitype/StillImage"/>
                <dc:title xmlns:dc="http://purl.org/dc/elements/1.1/"/>
            </cc:Work>
        </rdf:RDF>
    </metadata>
    <defs id="defs73" />
    <desc id="desc2" >
        <referenceFile >generic_male_pin_header_4_100mil_bread.svg</referenceFile>
    </desc>
    <g  transform="translate(-306.15302,3321.7572)">
        <g >
            <g >
                <g >
                    <g >
                        <g id="breadboard"  gorn="0.3.0.0.0.0.0">
                            <rect width="387.69199" id="connector0pin"  x="306.15302" height="387.69199" style="fill:none" y="306.15302" gorn="0.3.0.0.0.0.0.0"/>
                            <rect width="300.59698" id="connector0terminal"  x="349.76999" height="314.20999" style="fill:none" y="342.96399" gorn="0.3.0.0.0.0.0.1"/>
                            <path fill="none" id="path4684" stroke-opacity="1"  stroke="#404040" d="m 500.06166,500.51376 c 0,-665.42612 530.73384,-950.34275 533.10644,-1180.62308 11.8399,-1149.16138 11.8399,-735.38978 11.8399,-1149.16138 v 0" stroke-width="319.16662598" style="display:inline;opacity:1;fill-rule:nonzero;stroke-linecap:square;stroke-linejoin:round;stroke-miterlimit:4;stroke-dasharray:none;stroke-dashoffset:0;paint-order:fill markers stroke" fill-opacity="1" gorn="0.3.0.0.0.0.0.2"/>
                            <rect width="319.211" id="rect8"  x="340.46301" height="319.211" style="display:inline;fill:#000000;fill-opacity:1" y="340.46301" gorn="0.3.0.0.0.0.0.3"/>
                            <rect width="164.189" id="rect10"  x="417.974" height="164.189" style="fill:#8c8663" y="417.974" gorn="0.3.0.0.0.0.0.4"/>
                            <rect width="387.69199" id="connector1pin"  x="1306.15" height="387.69199" style="fill:none" y="306.15302" gorn="0.3.0.0.0.0.0.5"/>
                            <rect width="300.59698" id="connector1terminal"  x="1349.77" height="314.20999" style="fill:none" y="342.96399" gorn="0.3.0.0.0.0.0.6"/>
                            <path fill="none" id="path4704" stroke-opacity="1"  stroke="#cc1414" d="m 1503.0622,500.51374 c 0,-437.720681 162.3634,-622.33892 168.0583,-1072.65245 6.877,-543.78899 6.877,-840.98779 6.877,-1257.13199" stroke-width="319.16662598" style="display:inline;opacity:1;fill-rule:nonzero;stroke-linecap:square;stroke-linejoin:round;stroke-miterlimit:4;stroke-dasharray:none;stroke-dashoffset:0;paint-order:fill markers stroke" fill-opacity="1" gorn="0.3.0.0.0.0.0.7"/>
                            <rect width="319.211" id="rect24"  x="1340.46" height="319.211" style="display:inline;fill:#8c0000;fill-opacity:1" y="340.46301" gorn="0.3.0.0.0.0.0.8"/>
                            <rect width="164.189" id="rect26"  x="1417.97" height="164.189" style="fill:#8c8663" y="417.974" gorn="0.3.0.0.0.0.0.9"/>
                            <rect width="387.69199" id="connector2pin"  x="2306.1499" height="387.69199" style="fill:none" y="306.15302" gorn="0.3.0.0.0.0.0.10"/>
                            <rect width="300.59698" id="connector2terminal"  x="2349.77" height="314.20999" style="fill:none" y="342.96399" gorn="0.3.0.0.0.0.0.11"/>
                            <path fill="none" id="path4704-7" stroke-opacity="1"  stroke="#418dd9" d="m 2499.7329,500.51376 c 0,-437.72061 -185.3529,-618.14449 -191.0478,-1068.45798 6.4007,-420.09064 2.9109,-908.93958 0,-1261.32648" stroke-width="319.16662598" style="display:inline;opacity:1;fill-rule:nonzero;stroke-linecap:square;stroke-linejoin:round;stroke-miterlimit:4;stroke-dasharray:none;stroke-dashoffset:0;paint-order:fill markers stroke" fill-opacity="1" gorn="0.3.0.0.0.0.0.12"/>
                            <rect width="319.211" id="rect40"  x="2340.46" height="319.211" style="fill:#1b5bb3;fill-opacity:1" y="340.46301" gorn="0.3.0.0.0.0.0.13"/>
                            <rect width="164.189" id="rect42"  x="2417.97" height="164.189" style="fill:#8c8663" y="417.974" gorn="0.3.0.0.0.0.0.14"/>
                            <rect width="387.69199" id="connector3pin"  x="3306.1499" height="387.69199" style="fill:none" y="306.15302" gorn="0.3.0.0.0.0.0.15"/>
                            <rect width="300.59698" id="connector3terminal"  x="3349.77" height="314.20999" style="fill:none" y="342.96399" gorn="0.3.0.0.0.0.0.16"/>
                            <path fill="none" id="path4684-6" stroke-opacity="1"  stroke="#fff800" d="m 3501.0071,500.51376 c 0,-665.4261 -556.9599,-953.17608 -559.3325,-1183.45638 -6.3063,-501.75258 0,-1031.87708 0,-1146.32808" stroke-width="319.16662598" style="display:inline;opacity:1;fill-rule:nonzero;stroke-linecap:square;stroke-linejoin:round;stroke-miterlimit:4;stroke-dasharray:none;stroke-dashoffset:0;paint-order:fill markers stroke" fill-opacity="1" gorn="0.3.0.0.0.0.0.17"/>
                            <rect width="319.211" id="rect56"  x="3340.46" height="319.211" style="fill:#d6d63a;fill-opacity:1" y="340.46301" gorn="0.3.0.0.0.0.0.18"/>
                            <rect width="164.189" id="rect58"  x="3417.97" height="164.189" style="fill:#8c8663" y="417.974" gorn="0.3.0.0.0.0.0.19"/>
                            <g  transform="translate(0,-1241.6178)">
                                <g >
                                    <g >
                                        <g >
                                            <g >
                                                <g id="g1154"  gorn="0.3.0.0.0.0.0.20.0.0.0.0.0">
                                                    <path fill="#666666" id="rect1106" stroke-opacity="1"  stroke="none" d="m 810.31181,-1829.2235 c -39.69183,0 -71.58301,27.9171 -71.58301,62.6628 v 1198.52688 219.72655 63.88345 h 87.61946 79.48504 v -63.88345 -219.72655 -1198.52688 -62.6628 h -71.58302 -7.90202 z" stroke-width="85.50473785" style="display:inline;opacity:1;fill-rule:nonzero;stroke-linecap:square;stroke-linejoin:miter;stroke-miterlimit:4;stroke-dasharray:none;stroke-dashoffset:0;paint-order:fill markers stroke" fill-opacity="1" gorn="0.3.0.0.0.0.0.20.0.0.0.0.0.0"/>
                                                    <path fill="#666666" id="path1127" stroke-opacity="1"  stroke="none" d="m 3175.7374,-1830.3084 c 39.6949,0 71.5887,27.9171 71.5887,62.6628 v 1198.52688 219.72655 63.88345 h -87.6265 -79.4914 v -63.88345 -219.72655 -1198.52688 -62.6628 h 71.5888 7.9026 z" stroke-width="85.50817108" style="display:inline;opacity:1;fill-rule:nonzero;stroke-linecap:square;stroke-linejoin:miter;stroke-miterlimit:4;stroke-dasharray:none;stroke-dashoffset:0;paint-order:fill markers stroke" fill-opacity="1" gorn="0.3.0.0.0.0.0.20.0.0.0.0.0.1"/>
                                                    <rect width="2216.0278" fill="#1a1a1a" id="rect1100" stroke-opacity="1"  stroke="none" x="885.01733" height="2015.3738" stroke-width="83.10483551" style="opacity:1;fill-rule:nonzero;stroke-linecap:square;stroke-linejoin:miter;stroke-miterlimit:4;stroke-dasharray:none;stroke-dashoffset:0;paint-order:fill markers stroke" ry="67.680511" y="-2080.1394" fill-opacity="1" gorn="0.3.0.0.0.0.0.20.0.0.0.0.0.2"/>
                                                    <g  transform="scale(104.16666)">
                                                        <g >
                                                            <g >
                                                                <g >
                                                                    <g >
                                                                        <path fill="#000000" id="path999" stroke-opacity="1"  stroke="none" d="m 7.6933594,-6.1523438 c -0.3335582,10e-8 -0.6015625,0.2680044 -0.6015625,0.6015626 v 0.8105468 1.3964844 0.6035156 H 4.6835938 V 1.5195312 H 33.515625 V -2.7402344 H 31.173828 V -3.34375 -4.7402344 -5.5507812 c 0,-0.3335582 -0.268004,-0.6015626 -0.601562,-0.6015626 h -3.34375 c -0.333559,10e-8 -0.603516,0.2680044 -0.603516,0.6015626 v 0.8105468 1.3964844 0.6035156 H 25.271484 V -3.34375 -4.7402344 -5.5507812 c 0,-0.3335582 -0.268004,-0.6015626 -0.601562,-0.6015626 h -1.939453 c -0.333558,10e-8 -0.601563,0.2680044 -0.601563,0.6015626 v 0.8105468 1.3964844 0.6035156 H 20.689453 V -3.34375 -4.7402344 -5.5507812 c 0,-0.3335582 -0.268004,-0.6015626 -0.601562,-0.6015626 h -1.941407 c -0.333558,10e-8 -0.601562,0.2680044 -0.601562,0.6015626 v 0.8105468 1.3964844 0.6035156 H 16.189453 V -3.34375 -4.7402344 -5.5507812 c 0,-0.3335582 -0.268004,-0.6015626 -0.601562,-0.6015626 h -1.941407 c -0.333558,10e-8 -0.601562,0.2680044 -0.601562,0.6015626 v 0.8105468 1.3964844 0.6035156 H 11.640625 V -3.34375 -4.7402344 -5.5507812 c 0,-0.3335582 -0.268004,-0.6015626 -0.601563,-0.6015626 z" stroke-width="0.70727283" style="display:inline;opacity:1;fill-rule:nonzero;stroke-linecap:square;stroke-linejoin:miter;stroke-miterlimit:4;stroke-dasharray:none;stroke-dashoffset:0;paint-order:fill markers stroke" fill-opacity="1" gorn="0.3.0.0.0.0.0.20.0.0.0.0.0.3.0.0.0.0.0"/>
                                                                    </g>
                                                                </g>
                                                            </g>
                                                        </g>
                                                    </g>
                                                </g>
                                            </g>
                                        </g>
                                    </g>
                                </g>
                            </g>
                        </g>
                    </g>
                </g>
            </g>
        </g>
    </g>
</svg>
