<?xml version='1.0' encoding='utf-8'?>
<!DOCTYPE svg>
<!-- Generator: Adobe Illustrator 17.1.0, SVG Export Plug-In . SVG Version: 6.00 Build 0)  -->
<svg xmlns="http://www.w3.org/2000/svg" x="0px" enable-background="new 0 58.7 288.9 102" y="0px" height="1.41667in" version="1.1" id="Layer_1" width="4.0125in" xml:space="preserve" gorn="0" xmlns:xml="http://www.w3.org/XML/1998/namespace"  viewBox="0 0 288.9 102">
    <desc >
        <referenceFile >Serial LCD Backpack v28_breadboard.svg</referenceFile>
    </desc>
    <g transform="translate(0,-58.7)" >
        <g >
            <g >
                <g >
                    <desc >Fritzing breadboard generated by brd2svg</desc>
                    <g id="breadboard_1_" gorn="0.1.0.0.0.1" >
                        <g id="svg" gorn="0.1.0.0.0.1.0" >
                            <g id="breadboard_2_" gorn="0.1.0.0.0.1.0.0" >
                                <path fill="#C62717"  d="M0.2,58.7v102h288.8v-102H0.2z M40.5,155.8c0.8,0,1.4,0.6,1.4,1.4c0,0.8-0.6,1.4-1.4,1.4s-1.4-0.6-1.4-1.4C39.2,156.5,39.8,155.8,40.5,155.8z M41.2,60.7c0.8,0,1.4,0.6,1.4,1.4c0,0.8-0.6,1.4-1.4,1.4s-1.4-0.6-1.4-1.4C39.8,61.4,40.4,60.7,41.2,60.7z M34,60.7c0.8,0,1.4,0.6,1.4,1.4c0,0.8-0.6,1.4-1.4,1.4s-1.4-0.6-1.4-1.4C32.6,61.4,33.2,60.7,34,60.7z M6.7,62.4c1.6,0,2.9,1.3,2.9,2.9c0,1.6-1.3,2.9-2.9,2.9s-2.9-1.3-2.9-2.9C3.8,63.7,5.1,62.4,6.7,62.4z M6.7,157c-1.6,0-2.9-1.3-2.9-2.9c0-1.6,1.3-2.9,2.9-2.9s2.9,1.3,2.9,2.9C9.6,155.7,8.3,157,6.7,157z M19.6,63.5c-0.8,0-1.4-0.6-1.4-1.4c0-0.8,0.6-1.4,1.4-1.4s1.4,0.6,1.4,1.4C21,62.9,20.3,63.5,19.6,63.5z M25.4,62.1c0-0.8,0.6-1.4,1.4-1.4s1.4,0.6,1.4,1.4c0,0.8-0.6,1.4-1.4,1.4S25.4,62.9,25.4,62.1z M48.4,63.5c-0.8,0-1.4-0.6-1.4-1.4c0-0.8,0.6-1.4,1.4-1.4s1.4,0.6,1.4,1.4C49.8,62.9,49.1,63.5,48.4,63.5z M55.6,63.5c-0.8,0-1.4-0.6-1.4-1.4c0-0.8,0.6-1.4,1.4-1.4s1.4,0.6,1.4,1.4C57,62.9,56.3,63.5,55.6,63.5z M62.8,63.5c-0.8,0-1.4-0.6-1.4-1.4c0-0.8,0.6-1.4,1.4-1.4s1.4,0.6,1.4,1.4C64.2,62.9,63.6,63.5,62.8,63.5z M70,63.5c-0.8,0-1.4-0.6-1.4-1.4c0-0.8,0.6-1.4,1.4-1.4s1.4,0.6,1.4,1.4C71.4,62.9,70.8,63.5,70,63.5z M77.2,63.5c-0.8,0-1.4-0.6-1.4-1.4c0-0.8,0.6-1.4,1.4-1.4s1.4,0.6,1.4,1.4C78.6,62.9,77.9,63.5,77.2,63.5z M84.4,63.5c-0.8,0-1.4-0.6-1.4-1.4c0-0.8,0.6-1.4,1.4-1.4s1.4,0.6,1.4,1.4C85.8,62.9,85.1,63.5,84.4,63.5z M18.9,158.6c-0.8,0-1.4-0.6-1.4-1.4c0-0.8,0.6-1.4,1.4-1.4s1.4,0.6,1.4,1.4C20.3,158,19.7,158.6,18.9,158.6z M26.1,158.6c-0.8,0-1.4-0.6-1.4-1.4c0-0.8,0.6-1.4,1.4-1.4s1.4,0.6,1.4,1.4C27.5,158,26.9,158.6,26.1,158.6z M32,157.2c0-0.8,0.6-1.4,1.4-1.4s1.4,0.6,1.4,1.4c0,0.8-0.6,1.4-1.4,1.4S32,158,32,157.2z M47.7,158.6c-0.8,0-1.4-0.6-1.4-1.4c0-0.8,0.6-1.4,1.4-1.4s1.4,0.6,1.4,1.4C49.1,158,48.5,158.6,47.7,158.6z M54.9,158.6c-0.8,0-1.4-0.6-1.4-1.4c0-0.8,0.6-1.4,1.4-1.4s1.4,0.6,1.4,1.4C56.3,158,55.7,158.6,54.9,158.6z M282.4,62.4c1.6,0,2.9,1.3,2.9,2.9c0,1.6-1.3,2.9-2.9,2.9c-1.6,0-2.9-1.3-2.9-2.9C279.5,63.7,280.8,62.4,282.4,62.4z M282.4,157c-1.6,0-2.9-1.3-2.9-2.9c0-1.6,1.3-2.9,2.9-2.9c1.6,0,2.9,1.3,2.9,2.9C285.2,155.7,283.9,157,282.4,157z M5.3,100c0-0.8,0.6-1.4,1.4-1.4s1.4,0.6,1.4,1.4c0,0,0,0,0,0c0,0.8-0.6,1.4-1.4,1.4S5.3,100.8,5.3,100C5.3,100,5.3,100,5.3,100z M5.3,92.8c0-0.8,0.6-1.4,1.4-1.4s1.4,0.6,1.4,1.4c0,0,0,0,0,0c0,0.8-0.6,1.4-1.4,1.4S5.3,93.6,5.3,92.8C5.3,92.8,5.3,92.8,5.3,92.8z M5.3,85.6c0-0.8,0.6-1.4,1.4-1.4s1.4,0.6,1.4,1.4c0,0,0,0,0,0c0,0.8-0.6,1.4-1.4,1.4S5.3,86.4,5.3,85.6C5.3,85.6,5.3,85.6,5.3,85.6z M5.3,137.3c0-0.8,0.6-1.4,1.4-1.4c0.8,0,1.4,0.6,1.4,1.4c0,0,0,0,0,0c0,0.8-0.6,1.4-1.4,1.4C5.9,138.7,5.3,138.1,5.3,137.3C5.3,137.3,5.3,137.3,5.3,137.3z M5.3,130.1c0-0.8,0.6-1.4,1.4-1.4c0.8,0,1.4,0.6,1.4,1.4c0,0,0,0,0,0c0,0.8-0.6,1.4-1.4,1.4C5.9,131.5,5.3,130.9,5.3,130.1C5.3,130.1,5.3,130.1,5.3,130.1z M5.3,122.9c0-0.8,0.6-1.4,1.4-1.4s1.4,0.6,1.4,1.4c0,0,0,0,0,0c0,0.8-0.6,1.4-1.4,1.4S5.3,123.7,5.3,122.9C5.3,122.9,5.3,122.9,5.3,122.9z"/>
                                <g id="silkscreen" gorn="0.1.0.0.0.1.0.0.1" >
                                    <path fill="#FFFFFF"  d="M284.9,105.1c0,0,0.2,0.8-0.5,0.9c-0.5,0-1.1-0.3-1.4-0.8c-0.5-0.5-0.3-0.9,0-1.2c0.5-0.5,1.2-0.3,1.2-0.3s-1.4-1.2-2.9-0.2c-1.4,0.9-0.9,2.1,0.3,3.2c1.1,0.9,0.2,2-0.9,2c-0.8-0.2-1.1-0.8-0.9-1.1c0.2-0.3,0.8-0.5,0.8-0.5s-0.6-0.3-1.4,0c-0.6,0.3-1.2,0.8-1.1,2.1v6.2c0,0,0.6-0.8,1.5-1.7c0.9-0.9,1.2-1.5,2.1-1.5c1.7,0.2,2.9-0.6,3.8-1.8C287.4,108,286,105.4,284.9,105.1z"/>
                                </g>
                                <g >
                                    <path fill="#303030"  d="M277.8,123.9c-0.7,0-1.3-0.6-1.3-1.3V96.8c0-0.7,0.6-1.3,1.3-1.3h0.1v-20v-0.7h-0.7l-2-2v-0.7h-0.7H72.9h-0.7v0.7l-2,2h-0.7v0.7v20.1h0.1c0.7,0,1.3,0.6,1.3,1.3v25.8c0,0.7-0.6,1.3-1.3,1.3h-0.1v20v0.7h0.7l2,2v0.7h0.7h201.5h0.7v-0.7l2-2h0.7V144L277.8,123.9L277.8,123.9z"/>
                                    <g >
                                        <path fill="#87AD34"  d="M268.9,130c0,2.2-1.8,4-4,4l-182.5,0c-2.2,0-4-1.8-4-4V89.3c0-2.2,1.8-4,4-4h182.5c2.2,0,4,1.8,4,4V130z"/>
                                        <g opacity="0.2" >
                                            <path fill="#22420D"  d="M268.9,89.3v40.8c0,0,0,0,0,0L268.9,89.3C268.9,89.3,268.9,89.3,268.9,89.3z M82.4,85.3c-2.2,0-4,1.8-4,4V130c0,2.2,1.8,4,4,4h2.3c-2.2,0-4-1.8-4-4l0-39.4c0-2.2,1.8-4,4-4h183.2c-0.7-0.8-1.8-1.3-3-1.3H82.4z"/>
                                        </g>
                                    </g>
                                    <g >
                                        <path fill="#1A1A1A"  d="M270.6,77.3c0-0.7-0.6-1.3-1.3-1.3H78c-0.7,0-1.3,0.6-1.3,1.3V78c0,0.7,0.6,1.3,1.3,1.3h191.3c0.7,0,1.3-0.6,1.3-1.3L270.6,77.3L270.6,77.3z"/>
                                        <path fill="#424242"  d="M270,78.5c0-0.5-0.4-0.9-1-0.9H78.4c-0.5,0-1,0.4-1,0.9s0.4,0.9,1,0.9H269C269.5,79.4,270,79,270,78.5z"/>
                                    </g>
                                    <g >
                                        <path fill="#1A1A1A"  d="M270.6,140.7c0-0.7-0.6-1.3-1.3-1.3H78c-0.7,0-1.3,0.6-1.3,1.3v0.7c0,0.7,0.6,1.3,1.3,1.3h191.3c0.7,0,1.3-0.6,1.3-1.3L270.6,140.7L270.6,140.7z"/>
                                        <path fill="#424242"  d="M270,141.9c0-0.5-0.4-0.9-1-0.9H78.4c-0.5,0-1,0.4-1,0.9c0,0.5,0.4,0.9,1,0.9H269C269.5,142.8,270,142.4,270,141.9z"/>
                                    </g>
                                    <g >
                                        <line fill="none" y1="74.8" y2="72.7" stroke-linecap="round" x1="70.2"  stroke="#F2F2F2" stroke-width="0.2358" stroke-opacity="0.2" x2="72.3"/>
                                        <line fill="none" y1="146.6" y2="144.5" stroke-linecap="round" x1="72.3"  stroke="#F2F2F2" stroke-width="0.2358" stroke-opacity="0.2" x2="70.2"/>
                                    </g>
                                    <g >
                                        <line fill="none" y1="74.8" y2="72.7" stroke-linecap="round" x1="277.1"  stroke="#F2F2F2" stroke-width="0.2358" stroke-opacity="0.2" x2="275"/>
                                        <line fill="none" y1="146.6" y2="144.5" stroke-linecap="round" x1="274.9"  stroke="#F2F2F2" stroke-width="0.2358" stroke-opacity="0.2" x2="277.1"/>
                                    </g>
                                    <path fill="none"  stroke="#1A1A1A" stroke-width="1.415" stroke-opacity="0.4" d="M268.9,130c0,2.2-1.8,4-4,4l-182.5,0c-2.2,0-4-1.8-4-4V89.3c0-2.2,1.8-4,4-4h182.5c2.2,0,4,1.8,4,4V130z"/>
                                    <g >
                                        <rect x="88.1" fill="#1A1A1A" fill-opacity="0.1" y="110" height="16.5" width="10" />
                                        <rect x="98.8" fill="#1A1A1A" fill-opacity="0.1" y="110" height="16.5" width="10" />
                                        <rect x="109.5" fill="#1A1A1A" fill-opacity="0.1" y="110" height="16.5" width="10" />
                                        <rect x="120.3" fill="#1A1A1A" fill-opacity="0.1" y="110" height="16.5" width="10" />
                                        <rect x="131" fill="#1A1A1A" fill-opacity="0.1" y="110" height="16.5" width="10" />
                                        <rect x="141.8" fill="#1A1A1A" fill-opacity="0.1" y="110" height="16.5" width="10" />
                                        <rect x="152.5" fill="#1A1A1A" fill-opacity="0.1" y="110" height="16.5" width="10" />
                                        <rect x="163.3" fill="#1A1A1A" fill-opacity="0.1" y="110" height="16.5" width="10" />
                                        <rect x="174" fill="#1A1A1A" fill-opacity="0.1" y="110" height="16.5" width="10" />
                                        <rect x="184.7" fill="#1A1A1A" fill-opacity="0.1" y="110" height="16.5" width="10" />
                                        <rect x="195.5" fill="#1A1A1A" fill-opacity="0.1" y="110" height="16.5" width="10" />
                                        <rect x="206.2" fill="#1A1A1A" fill-opacity="0.1" y="110" height="16.5" width="10" />
                                        <rect x="217" fill="#1A1A1A" fill-opacity="0.1" y="110" height="16.5" width="10" />
                                        <rect x="227.7" fill="#1A1A1A" fill-opacity="0.1" y="110" height="16.5" width="10" />
                                        <rect x="238.5" fill="#1A1A1A" fill-opacity="0.1" y="110" height="16.5" width="10" />
                                        <rect x="249.2" fill="#1A1A1A" fill-opacity="0.1" y="110" height="16.5" width="10" />
                                        <rect x="88.1" fill="#1A1A1A" fill-opacity="0.1" y="92.8" height="16.5" width="10" />
                                        <rect x="98.8" fill="#1A1A1A" fill-opacity="0.1" y="92.8" height="16.5" width="10" />
                                        <rect x="109.5" fill="#1A1A1A" fill-opacity="0.1" y="92.8" height="16.5" width="10" />
                                        <rect x="120.3" fill="#1A1A1A" fill-opacity="0.1" y="92.8" height="16.5" width="10" />
                                        <rect x="131" fill="#1A1A1A" fill-opacity="0.1" y="92.8" height="16.5" width="10" />
                                        <rect x="141.8" fill="#1A1A1A" fill-opacity="0.1" y="92.8" height="16.5" width="10" />
                                        <rect x="152.5" fill="#1A1A1A" fill-opacity="0.1" y="92.8" height="16.5" width="10" />
                                        <rect x="163.3" fill="#1A1A1A" fill-opacity="0.1" y="92.8" height="16.5" width="10" />
                                        <rect x="174" fill="#1A1A1A" fill-opacity="0.1" y="92.8" height="16.5" width="10" />
                                        <rect x="184.7" fill="#1A1A1A" fill-opacity="0.1" y="92.8" height="16.5" width="10" />
                                        <rect x="195.5" fill="#1A1A1A" fill-opacity="0.1" y="92.8" height="16.5" width="10" />
                                        <rect x="206.2" fill="#1A1A1A" fill-opacity="0.1" y="92.8" height="16.5" width="10" />
                                        <rect x="217" fill="#1A1A1A" fill-opacity="0.1" y="92.8" height="16.5" width="10" />
                                        <rect x="227.7" fill="#1A1A1A" fill-opacity="0.1" y="92.8" height="16.5" width="10" />
                                        <rect x="238.5" fill="#1A1A1A" fill-opacity="0.1" y="92.8" height="16.5" width="10" />
                                        <rect x="249.2" fill="#1A1A1A" fill-opacity="0.1" y="92.8" height="16.5" width="10" />
                                    </g>
                                    <g >
                                        <path fill="#606060"  d="M69.7,123.9v20.8H70v-20.9C69.9,123.9,69.8,123.9,69.7,123.9z"/>
                                        <path fill="#606060"  d="M70,95.5V74.7h-0.3v20.8C69.8,95.5,69.9,95.5,70,95.5z"/>
                                    </g>
                                    <rect x="72.2" fill="#606060" y="72.2" height="0.3" width="203" />
                                    <rect x="72.2" fill="#212121" y="71.9" height="0.3" width="203" />
                                    <g >
                                        <path fill="#212121"  d="M69.5,95.4c0.1,0,0.2,0,0.2,0V74.7h-0.3L69.5,95.4L69.5,95.4z"/>
                                        <path fill="#212121"  d="M69.5,123.9L69.5,123.9l-0.1,20.7h0.3v-20.8C69.6,123.9,69.6,123.9,69.5,123.9z"/>
                                    </g>
                                    <rect x="72.2" fill="#212121" y="147.1" height="0.3" width="203" />
                                    <rect x="72.2" fill="#606060" y="146.9" height="0.3" width="203" />
                                    <g >
                                        <path fill="#212121"  d="M277.8,123.9c-0.1,0-0.2,0-0.2-0.1v20.8h0.3L277.8,123.9L277.8,123.9z"/>
                                        <path fill="#212121"  d="M277.8,95.4L277.8,95.4l0.1-20.8h-0.3v20.8C277.7,95.5,277.7,95.4,277.8,95.4z"/>
                                    </g>
                                    <g >
                                        <path fill="#606060"  d="M277.3,123.8v20.9h0.3v-20.8C277.5,123.9,277.4,123.9,277.3,123.8z"/>
                                        <path fill="#606060"  d="M277.6,95.5V74.7h-0.3v20.9C277.4,95.5,277.5,95.5,277.6,95.5z"/>
                                    </g>
                                </g>
                                <g id="copper1" gorn="0.1.0.0.0.1.0.0.3" >
                                    <g id="copper0" gorn="0.1.0.0.0.1.0.0.3.0" >
                                        <path fill="#9A916C"  d="M287.3,154.2c0-2.7-2.2-5-5-5c-2.7,0-5,2.2-5,5c0,2.7,2.2,5,5,5C285.1,159.1,287.3,156.9,287.3,154.2z M285.2,154.2c0,1.6-1.3,2.9-2.9,2.9s-2.9-1.3-2.9-2.9c0-1.6,1.3-2.9,2.9-2.9S285.2,152.6,285.2,154.2z"/>
                                        <path fill="#9A916C"  d="M1.7,154.2c0,2.7,2.2,5,5,5c2.7,0,5-2.2,5-5c0-2.7-2.2-5-5-5C4,149.2,1.7,151.4,1.7,154.2z M3.8,154.2c0-1.6,1.3-2.9,2.9-2.9s2.9,1.3,2.9,2.9c0,1.6-1.3,2.9-2.9,2.9C5.1,157,3.8,155.7,3.8,154.2z"/>
                                        <circle fill="none" id="connector1pin" cx="6.7" r="2.1" gorn="0.1.0.0.0.1.0.0.3.0.2" cy="92.8"  stroke="#9A916C" stroke-width="1.224"/>
                                        <circle fill="none" id="connector0pin" cx="6.7" r="2.1" gorn="0.1.0.0.0.1.0.0.3.0.3" cy="85.6"  stroke="#9A916C" stroke-width="1.224"/>
                                        <g >
                                            <path fill="#9A916C"  d="M277.4,65.3c0,2.7,2.2,5,5,5c2.7,0,5-2.2,5-5c0-2.7-2.2-5-5-5C279.6,60.3,277.4,62.5,277.4,65.3z M279.5,65.3c0-1.6,1.3-2.9,2.9-2.9s2.9,1.3,2.9,2.9c0,1.6-1.3,2.9-2.9,2.9S279.5,66.8,279.5,65.3z"/>
                                        </g>
                                        <g >
                                            <path fill="#9A916C" id="connector6pin" gorn="0.1.0.0.0.1.0.0.3.0.5.0"  d="M17.2,58.7v4.8c0,1.3,1.1,2.4,2.4,2.4c1.3,0,2.4-1.1,2.4-2.4v-4.8H17.2z M19.6,63.5c-0.8,0-1.4-0.6-1.4-1.4c0-0.8,0.6-1.4,1.4-1.4s1.4,0.6,1.4,1.4C21,62.9,20.3,63.5,19.6,63.5z"/>
                                        </g>
                                        <g >
                                            <path fill="#9A916C" id="connector7pin" gorn="0.1.0.0.0.1.0.0.3.0.6.0"  d="M24.4,58.7v4.8c0,1.3,1.1,2.4,2.4,2.4c1.3,0,2.4-1.1,2.4-2.4l0-4.8H24.4z M26.8,63.5c-0.8,0-1.4-0.6-1.4-1.4c0-0.8,0.6-1.4,1.4-1.4s1.4,0.6,1.4,1.4C28.2,62.9,27.6,63.5,26.8,63.5z"/>
                                        </g>
                                        <g >
                                            <path fill="#9A916C" id="connector8pin" gorn="0.1.0.0.0.1.0.0.3.0.7.0"  d="M31.6,58.7v4.8c0,1.3,1.1,2.4,2.4,2.4c1.3,0,2.4-1.1,2.4-2.4v-4.8H31.6z M34,63.5c-0.8,0-1.4-0.6-1.4-1.4c0-0.8,0.6-1.4,1.4-1.4s1.4,0.6,1.4,1.4C35.4,62.9,34.8,63.5,34,63.5z"/>
                                        </g>
                                        <g >
                                            <path fill="#9A916C" id="connector9pin" gorn="0.1.0.0.0.1.0.0.3.0.8.0"  d="M38.8,58.7v4.8c0,1.3,1.1,2.4,2.4,2.4c1.3,0,2.4-1.1,2.4-2.4v-4.8H38.8z M41.2,63.5c-0.8,0-1.4-0.6-1.4-1.4c0-0.8,0.6-1.4,1.4-1.4s1.4,0.6,1.4,1.4C42.6,62.9,42,63.5,41.2,63.5z"/>
                                        </g>
                                        <g >
                                            <path fill="#9A916C" id="connector10pin" gorn="0.1.0.0.0.1.0.0.3.0.9.0"  d="M46,58.7v4.8c0,1.3,1.1,2.4,2.4,2.4c1.3,0,2.4-1.1,2.4-2.4v-4.8H46z M48.4,63.5c-0.8,0-1.4-0.6-1.4-1.4c0-0.8,0.6-1.4,1.4-1.4s1.4,0.6,1.4,1.4C49.8,62.9,49.1,63.5,48.4,63.5z"/>
                                        </g>
                                        <g >
                                            <path fill="#9A916C" id="connector11pin" gorn="0.1.0.0.0.1.0.0.3.0.10.0"  d="M53.2,58.7v4.8c0,1.3,1.1,2.4,2.4,2.4c1.3,0,2.4-1.1,2.4-2.4v-4.8H53.2z M55.6,63.5c-0.8,0-1.4-0.6-1.4-1.4c0-0.8,0.6-1.4,1.4-1.4s1.4,0.6,1.4,1.4C57,62.9,56.3,63.5,55.6,63.5z"/>
                                        </g>
                                        <g >
                                            <path fill="#9A916C" id="connector12pin" gorn="0.1.0.0.0.1.0.0.3.0.11.0"  d="M60.4,58.7v4.8c0,1.3,1.1,2.4,2.4,2.4c1.3,0,2.4-1.1,2.4-2.4v-4.8H60.4z M62.8,63.5c-0.8,0-1.4-0.6-1.4-1.4c0-0.8,0.6-1.4,1.4-1.4s1.4,0.6,1.4,1.4C64.2,62.9,63.6,63.5,62.8,63.5z"/>
                                        </g>
                                        <g >
                                            <path fill="#9A916C" id="connector13pin" gorn="0.1.0.0.0.1.0.0.3.0.12.0"  d="M67.6,58.7v4.8c0,1.3,1.1,2.4,2.4,2.4c1.3,0,2.4-1.1,2.4-2.4l0-4.8H67.6z M70,63.5c-0.8,0-1.4-0.6-1.4-1.4c0-0.8,0.6-1.4,1.4-1.4s1.4,0.6,1.4,1.4C71.4,62.9,70.8,63.5,70,63.5z"/>
                                        </g>
                                        <g >
                                            <path fill="#9A916C" id="connector14pin" gorn="0.1.0.0.0.1.0.0.3.0.13.0"  d="M74.8,58.7v4.8c0,1.3,1.1,2.4,2.4,2.4c1.3,0,2.4-1.1,2.4-2.4l0-4.8H74.8z M77.2,63.5c-0.8,0-1.4-0.6-1.4-1.4c0-0.8,0.6-1.4,1.4-1.4s1.4,0.6,1.4,1.4C78.6,62.9,77.9,63.5,77.2,63.5z"/>
                                        </g>
                                        <g >
                                            <path fill="#9A916C" id="connector15pin" gorn="0.1.0.0.0.1.0.0.3.0.14.0"  d="M82,58.7v4.8c0,1.3,1.1,2.4,2.4,2.4c1.3,0,2.4-1.1,2.4-2.4l0-4.8H82z M84.4,63.5c-0.8,0-1.4-0.6-1.4-1.4c0-0.8,0.6-1.4,1.4-1.4s1.4,0.6,1.4,1.4C85.8,62.9,85.1,63.5,84.4,63.5z"/>
                                        </g>
                                        <g >
                                            <path fill="#9A916C" id="connector21pin" gorn="0.1.0.0.0.1.0.0.3.0.15.0"  d="M57.3,160.7V156c0-1.3-1.1-2.4-2.4-2.4c-1.3,0-2.4,1.1-2.4,2.4l0,4.8H57.3z M54.9,155.9c0.8,0,1.4,0.6,1.4,1.4c0,0.8-0.6,1.4-1.4,1.4s-1.4-0.6-1.4-1.4C53.5,156.5,54.2,155.9,54.9,155.9z"/>
                                        </g>
                                        <g >
                                            <path fill="#9A916C" id="connector20pin" gorn="0.1.0.0.0.1.0.0.3.0.16.0"  d="M50.1,160.7V156c0-1.3-1.1-2.4-2.4-2.4c-1.3,0-2.4,1.1-2.4,2.4l0,4.8H50.1z M47.7,155.9c0.8,0,1.4,0.6,1.4,1.4c0,0.8-0.6,1.4-1.4,1.4s-1.4-0.6-1.4-1.4C46.3,156.5,47,155.9,47.7,155.9z"/>
                                        </g>
                                        <g >
                                            <path fill="#9A916C" id="connector19pin" gorn="0.1.0.0.0.1.0.0.3.0.17.0"  d="M42.9,160.7V156c0-1.3-1.1-2.4-2.4-2.4c-1.3,0-2.4,1.1-2.4,2.4l0,4.8H42.9z M40.5,155.9c0.8,0,1.4,0.6,1.4,1.4c0,0.8-0.6,1.4-1.4,1.4s-1.4-0.6-1.4-1.4C39.1,156.5,39.8,155.9,40.5,155.9z"/>
                                        </g>
                                        <g >
                                            <path fill="#9A916C" id="connector18pin" gorn="0.1.0.0.0.1.0.0.3.0.18.0"  d="M35.7,160.7V156c0-1.3-1.1-2.4-2.4-2.4c-1.3,0-2.4,1.1-2.4,2.4l0,4.8H35.7z M33.3,155.9c0.8,0,1.4,0.6,1.4,1.4c0,0.8-0.6,1.4-1.4,1.4s-1.4-0.6-1.4-1.4C31.9,156.5,32.6,155.9,33.3,155.9z"/>
                                        </g>
                                        <g >
                                            <path fill="#9A916C" id="connector17pin" gorn="0.1.0.0.0.1.0.0.3.0.19.0"  d="M28.5,160.7V156c0-1.3-1.1-2.4-2.4-2.4c-1.3,0-2.4,1.1-2.4,2.4l0,4.8H28.5z M26.1,155.9c0.8,0,1.4,0.6,1.4,1.4c0,0.8-0.6,1.4-1.4,1.4s-1.4-0.6-1.4-1.4C24.7,156.5,25.4,155.9,26.1,155.9z"/>
                                        </g>
                                        <g >
                                            <path fill="#9A916C" id="connector16pin" gorn="0.1.0.0.0.1.0.0.3.0.20.0"  d="M21.3,160.7V156c0-1.3-1.1-2.4-2.4-2.4c-1.3,0-2.4,1.1-2.4,2.4v4.8H21.3z M18.9,155.9c0.8,0,1.4,0.6,1.4,1.4c0,0.8-0.6,1.4-1.4,1.4s-1.4-0.6-1.4-1.4C17.5,156.5,18.2,155.9,18.9,155.9z"/>
                                        </g>
                                        <circle fill="none" id="connector5pin" cx="6.7" r="2.1" gorn="0.1.0.0.0.1.0.0.3.0.21" cy="137.3"  stroke="#9A916C" stroke-width="1.224"/>
                                        <circle fill="none" id="connector4pin" cx="6.7" r="2.1" gorn="0.1.0.0.0.1.0.0.3.0.22" cy="130.1"  stroke="#9A916C" stroke-width="1.224"/>
                                        <circle fill="none" id="connector3pin" cx="6.7" r="2.1" gorn="0.1.0.0.0.1.0.0.3.0.23" cy="122.9"  stroke="#9A916C" stroke-width="1.224"/>
                                        <circle fill="none" id="connector2pin" cx="6.7" r="2.1" gorn="0.1.0.0.0.1.0.0.3.0.24" cy="100"  stroke="#9A916C" stroke-width="1.224"/>
                                        <path fill="#9A916C"  d="M1.7,65.3c0,2.7,2.2,5,5,5c2.7,0,5-2.2,5-5c0-2.7-2.2-5-5-5C4,60.3,1.7,62.5,1.7,65.3z M3.8,65.3c0-1.6,1.3-2.9,2.9-2.9s2.9,1.3,2.9,2.9c0,1.6-1.3,2.9-2.9,2.9C5.1,68.1,3.8,66.8,3.8,65.3z"/>
                                    </g>
                                </g>
                            </g>
                        </g>
                        <g id="Ebene_2" gorn="0.1.0.0.0.1.1" />
                    </g>
                </g>
            </g>
        </g>
    </g>
</svg>
