<?xml version='1.0' encoding='utf-8'?>
<!DOCTYPE svg>
<!-- Generator: Adobe Illustrator 15.1.0, SVG Export Plug-In . SVG Version: 6.00 Build 0)  -->
<svg xmlns="http://www.w3.org/2000/svg" xml:space="preserve" xmlns:xml="http://www.w3.org/XML/1998/namespace" width="0.95in"  version="1.1" id="Layer_1" height="0.6in" y="0px" gorn="0" viewBox="0 0 68.4 43.2" enable-background="new 0 0 68.4 43.2" x="0px">
    <desc>
        <referenceFile>SparkFun_ACS723_Current_Sensor_Breakout_breadboard.svg</referenceFile>
    </desc>
    <desc >Fritzing breadboard generated by brd2svg</desc>
    <g  id="breadboard" gorn="0.1">
        <g  id="icon" gorn="0.1.0">
            <path d="M0,43.2V0h68.4v43.2H0 M56.88,36c0,2.385,1.935,4.319,4.32,4.319s4.32-1.935,4.32-4.319c0.001-2.387-1.933-4.321-4.318-4.322c-2.386-0.002-4.321,1.932-4.322,4.318C56.88,35.997,56.88,35.999,56.88,36z M63.36,10.8c-0.001,0.795,0.643,1.441,1.438,1.442c0.796,0.001,1.441-0.643,1.442-1.438c0-0.001,0-0.003,0-0.004c0-0.795-0.645-1.44-1.44-1.44C64.005,9.36,63.36,10.005,63.36,10.8z M63.36,18c-0.001,0.795,0.643,1.441,1.438,1.442c0.796,0.001,1.441-0.643,1.442-1.438c0-0.001,0-0.002,0-0.004c0-0.795-0.645-1.44-1.44-1.44C64.005,16.56,63.36,17.205,63.36,18L63.36,18z M63.36,25.2c-0.001,0.795,0.643,1.441,1.438,1.442c0.796,0.001,1.441-0.643,1.442-1.438c0-0.001,0-0.002,0-0.004c0-0.795-0.645-1.439-1.44-1.439C64.005,23.76,63.36,24.405,63.36,25.2L63.36,25.2z M5.4,10.8c0,2.982,2.418,5.4,5.399,5.4c2.982,0,5.4-2.418,5.4-5.4c0-2.982-2.418-5.4-5.4-5.4C7.818,5.4,5.4,7.818,5.4,10.8L5.4,10.8z M20.16,25.2c0,0.795,0.645,1.44,1.44,1.44c0.795,0,1.439-0.646,1.439-1.44S22.395,23.76,21.6,23.76C20.804,23.76,20.16,24.405,20.16,25.2L20.16,25.2z M20.16,18c0,0.795,0.645,1.44,1.44,1.44c0.795,0,1.439-0.645,1.439-1.44s-0.645-1.44-1.439-1.44C20.804,16.56,20.16,17.205,20.16,18L20.16,18z M5.4,32.4c0,2.982,2.418,5.399,5.399,5.399c2.982,0,5.4-2.417,5.4-5.399S13.782,27,10.8,27C7.818,27,5.4,29.417,5.4,32.4z"  fill="#E6321E"/>
            <g >
                <title >layer 21</title>
                <g >
                    <title >text:VCC</title>
                    <g  transform="matrix(1 0 0 1 53.0613 12.7017)">
                        <text font-size="3.3408"  font-family="'OCRA'" fill="#FFFFFF">VCC</text>
                    </g>
                </g>
                <g >
                    <title >text:GND</title>
                    <g  transform="matrix(1 0 0 1 53.0613 27.1011)">
                        <text font-size="3.3408"  font-family="'OCRA'" fill="#FFFFFF">GND</text>
                    </g>
                </g>
                <g >
                    <title >text:ACS723</title>
                    <g  transform="matrix(1 0 0 1 26.6038 38.3765)">
                        <text font-size="4.176"  font-family="'OCRA'" fill="#FFFFFF">ACS723</text>
                    </g>
                </g>
                <g >
                    <title >text:VOUT</title>
                    <g  transform="matrix(1 0 0 1 50.6462 19.937)">
                        <text font-size="3.3408"  font-family="'OCRA'" fill="#FFFFFF">VOUT</text>
                    </g>
                </g>
                <g >
                    <title >text:IP+</title>
                    <g  transform="matrix(1 0 0 1 21.5999 14.4009)">
                        <text font-size="2.6726"  font-family="'OCRA'" fill="#FFFFFF">IP+</text>
                    </g>
                </g>
                <g >
                    <title >text:IP-</title>
                    <g  transform="matrix(1 0 0 1 21.5999 31.1401)">
                        <text font-size="2.6726"  font-family="'OCRA'" fill="#FFFFFF">IP-</text>
                    </g>
                </g>
                <g >
                    <title >text:Current Sensor</title>
                    <g  transform="matrix(1 0 0 1 19.2239 41.7964)">
                        <text font-size="3.3408"  font-family="'OCRA'" fill="#FFFFFF">Current Sensor</text>
                    </g>
                </g>
                <g >
                    <title >element:C1</title>
                    <g >
                        <title >package:0603</title>
                    </g>
                </g>
                <g >
                    <title >element:C2</title>
                    <g >
                        <title >package:0603</title>
                    </g>
                </g>
                <g >
                    <title >element:FD2</title>
                    <g >
                        <title >package:FIDUCIAL-1X2</title>
                    </g>
                </g>
                <g >
                    <title >element:FD3</title>
                    <g >
                        <title >package:FIDUCIAL-1X2</title>
                    </g>
                </g>
                <g >
                    <title >element:FD4</title>
                    <g >
                        <title >package:FIDUCIAL-1X2</title>
                    </g>
                </g>
                <g >
                    <title >element:FD5</title>
                    <g >
                        <title >package:FIDUCIAL-1X2</title>
                    </g>
                </g>
                <g >
                    <title >element:J1</title>
                    <g >
                        <title >package:1X03</title>
                        <line x2="68.4"  y2="23.4" stroke-linecap="round" y1="21.6" stroke-width="0.576" fill="none" stroke="#FFFFFF" x1="66.6"/>
                        <line x2="68.4"  y2="27" stroke-linecap="round" y1="23.4" stroke-width="0.576" fill="none" stroke="#FFFFFF" x1="68.4"/>
                        <line x2="66.6"  y2="28.799" stroke-linecap="round" y1="27" stroke-width="0.576" fill="none" stroke="#FFFFFF" x1="68.4"/>
                        <line x2="61.2"  y2="27" stroke-linecap="round" y1="28.799" stroke-width="0.576" fill="none" stroke="#FFFFFF" x1="63"/>
                        <line x2="61.2"  y2="23.4" stroke-linecap="round" y1="27" stroke-width="0.576" fill="none" stroke="#FFFFFF" x1="61.2"/>
                        <line x2="63"  y2="21.6" stroke-linecap="round" y1="23.4" stroke-width="0.576" fill="none" stroke="#FFFFFF" x1="61.2"/>
                        <line x2="68.4"  y2="12.6" stroke-linecap="round" y1="9" stroke-width="0.576" fill="none" stroke="#FFFFFF" x1="68.4"/>
                        <line x2="66.6"  y2="14.4" stroke-linecap="round" y1="12.6" stroke-width="0.576" fill="none" stroke="#FFFFFF" x1="68.4"/>
                        <line x2="61.2"  y2="12.6" stroke-linecap="round" y1="14.4" stroke-width="0.576" fill="none" stroke="#FFFFFF" x1="63"/>
                        <line x2="68.4"  y2="16.2" stroke-linecap="round" y1="14.4" stroke-width="0.576" fill="none" stroke="#FFFFFF" x1="66.6"/>
                        <line x2="68.4"  y2="19.8" stroke-linecap="round" y1="16.2" stroke-width="0.576" fill="none" stroke="#FFFFFF" x1="68.4"/>
                        <line x2="66.6"  y2="21.6" stroke-linecap="round" y1="19.8" stroke-width="0.576" fill="none" stroke="#FFFFFF" x1="68.4"/>
                        <line x2="61.2"  y2="19.8" stroke-linecap="round" y1="21.6" stroke-width="0.576" fill="none" stroke="#FFFFFF" x1="63"/>
                        <line x2="61.2"  y2="16.2" stroke-linecap="round" y1="19.8" stroke-width="0.576" fill="none" stroke="#FFFFFF" x1="61.2"/>
                        <line x2="63"  y2="14.4" stroke-linecap="round" y1="16.2" stroke-width="0.576" fill="none" stroke="#FFFFFF" x1="61.2"/>
                        <line x2="63"  y2="7.2" stroke-linecap="round" y1="7.2" stroke-width="0.576" fill="none" stroke="#FFFFFF" x1="66.6"/>
                        <line x2="66.6"  y2="7.2" stroke-linecap="round" y1="9" stroke-width="0.576" fill="none" stroke="#FFFFFF" x1="68.4"/>
                        <line x2="61.2"  y2="9" stroke-linecap="round" y1="7.2" stroke-width="0.576" fill="none" stroke="#FFFFFF" x1="63"/>
                        <line x2="61.2"  y2="9" stroke-linecap="round" y1="12.6" stroke-width="0.576" fill="none" stroke="#FFFFFF" x1="61.2"/>
                        <line x2="63"  y2="28.799" stroke-linecap="round" y1="28.799" stroke-width="0.576" fill="none" stroke="#FFFFFF" x1="66.6"/>
                    </g>
                </g>
                <g >
                    <title >element:J2</title>
                    <g >
                        <title >package:SMTSO-256-ET</title>
                    </g>
                </g>
                <g >
                    <title >element:J3</title>
                    <g >
                        <title >package:1X02_NO_SILK@1</title>
                    </g>
                </g>
                <g >
                    <title >element:J4</title>
                    <g >
                        <title >package:SMTSO-256-ET</title>
                    </g>
                </g>
                <g >
                    <title >element:JP1</title>
                    <g >
                        <title >package:SMT-JUMPER_2_NO_SILK</title>
                    </g>
                </g>
                <g >
                    <title >element:JP3</title>
                    <g >
                        <title >package:STAND-OFF-TIGHT</title>
                    </g>
                </g>
                <g >
                    <title >element:LOGO1</title>
                    <g >
                        <title >package:SFE_LOGO_FLAME_.1</title>
                        <g >
                            <title >polygon</title>
                            <path d="M30.379,3.021v0.255 M30.379,3.277L30.35,3.362 M30.35,3.362l-0.028,0.057 M30.322,3.418l-0.085,0.085 M30.237,3.503l-0.085,0.029 M30.152,3.532h-0.085 M30.067,3.532l-0.227-0.057 M29.841,3.475l-0.113-0.057 M29.727,3.418l-0.085-0.057 M29.642,3.362l-0.114-0.085 M29.528,3.277l-0.17-0.17 M29.358,3.107l-0.113-0.17 M29.245,2.937l-0.028-0.113 M29.217,2.823v-0.17 M29.217,2.653l0.028-0.085 M29.245,2.568l0.028-0.057 M29.273,2.512l0.057-0.085 M29.33,2.426l0.113-0.085 M29.443,2.341l0.113-0.057 M29.556,2.285l0.143-0.028 M29.699,2.256l0.113-0.028 M29.812,2.228h0.17 M29.982,2.228l0.057,0.028 M30.039,2.256h0.028 M30.067,2.256l-0.028-0.028 M30.039,2.228l-0.113-0.085 M29.926,2.143l-0.397-0.199 M29.528,1.944l-0.255-0.057 M29.273,1.888H28.99 M28.99,1.888l-0.312,0.057 M28.678,1.944l-0.313,0.17 M28.366,2.115l-0.255,0.198 M28.111,2.313L27.969,2.54 M27.969,2.54l-0.085,0.255 M27.885,2.795v0.227 M27.885,3.021l0.057,0.255 M27.941,3.277l0.142,0.255 M28.083,3.532l0.198,0.227 M28.281,3.759l0.227,0.255 M28.508,4.014l0.199,0.199 M28.707,4.212l0.085,0.227 M28.792,4.439v0.199 M28.792,4.638l-0.057,0.17 M28.735,4.808l-0.113,0.142 M28.622,4.949l-0.171,0.113 M28.451,5.063l-0.227,0.057 M28.224,5.119h-0.227 M27.998,5.119l-0.142-0.028 M27.856,5.091l-0.142-0.057 M27.715,5.034l-0.171-0.17 M27.544,4.864l-0.056-0.085 M27.488,4.779l-0.029-0.085 M27.459,4.694V4.581 M27.459,4.581l0.029-0.085 M27.488,4.496l0.17-0.17 M27.658,4.326l0.085-0.028 M27.743,4.297l0.113-0.057 M27.856,4.241l0.028-0.028 M27.885,4.212l-0.113-0.057 M27.771,4.156H27.43 M27.43,4.156l-0.17,0.028 M27.26,4.184l-0.142,0.028 M27.119,4.212l-0.142,0.057 M26.977,4.269l-0.113,0.085 M26.864,4.354l-0.142,0.113 M26.722,4.467l-0.17,0.284 M26.552,4.751l-0.057,0.198 M26.496,4.949l-0.028,0.227 M26.468,5.176V9.06 M26.468,9.06l0.142-0.142 M26.609,8.918l0.085-0.142 M26.694,8.776l0.142-0.142 M26.836,8.634l0.142-0.17 M26.977,8.464l0.34-0.34 M27.317,8.124l0.341-0.397 M27.658,7.727l0.283-0.283 M27.941,7.444l0.283-0.17 M28.224,7.274l0.17-0.029 M28.394,7.245h0.539 M28.933,7.245l0.34-0.057 M29.273,7.188l0.312-0.085 M29.585,7.104l0.284-0.113 M29.869,6.99l0.283-0.17 M30.152,6.82l0.227-0.199 M30.379,6.622l0.227-0.227 M30.605,6.395l0.199-0.255 M30.804,6.14l0.283-0.51 M31.088,5.63l0.142-0.539 M31.229,5.091l0.028-0.481 M31.258,4.609l-0.085-0.454 M31.173,4.156L31.031,3.73 M31.031,3.73l-0.198-0.312 M30.833,3.418l-0.228-0.255 M30.605,3.164l-0.227-0.142 M26.468,9h0.059 M26.468,8.784h0.222 M26.468,8.568h0.423 M26.468,8.352h0.622 M26.468,8.136h0.838 M26.468,7.92h1.024 M26.468,7.704h1.213 M26.468,7.488h1.43 M26.468,7.272h1.768 M26.468,7.056h3.236 M26.468,6.84h3.651 M26.468,6.624h3.909 M26.468,6.408h4.125 M26.468,6.192h4.296 M26.468,5.976h4.428 M26.468,5.76h4.548 M26.468,5.544h4.643 M26.468,5.328h4.699 M26.475,5.112h1.485 M28.254,5.112h2.97 M26.51,4.896h1.065 M28.664,4.896h2.577 M26.594,4.68h0.864 M28.777,4.68h2.477 M26.726,4.464h0.793 M28.792,4.464h2.438 M27.03,4.248h0.812 M28.719,4.248h2.471 M28.526,4.032h2.605 M28.332,3.816h2.728 M28.142,3.6h2.806 M28.001,3.384h1.675 M30.34,3.384h0.462 M27.917,3.168h1.503 M30.379,3.168h0.231 M27.885,2.952h1.371 M27.904,2.736h1.313 M27.982,2.52h1.287 M28.123,2.304h1.396 M28.415,2.088h1.4"  stroke-linecap="round" stroke-width="0.216" fill="none" stroke="#FFFFFF"/>
                        </g>
                    </g>
                </g>
                <g >
                    <title >element:LOGO3</title>
                    <g >
                        <title >package:SFE_LOGO_NAME_FLAME_.1</title>
                    </g>
                </g>
                <g >
                    <title >element:LOGO4</title>
                    <g >
                        <title >package:OSHW-LOGO-M</title>
                    </g>
                </g>
                <g >
                    <title >element:R1</title>
                    <g >
                        <title >package:0603</title>
                    </g>
                </g>
                <g >
                    <title >element:U1</title>
                    <g >
                        <title >package:SO08</title>
                        <line x2="41.111"  y2="28.295" stroke-linecap="round" y1="28.295" stroke-width="0.432" fill="none" stroke="#FFFFFF" x1="30.889"/>
                        <line x2="30.889"  y2="14.905" stroke-linecap="round" y1="14.905" stroke-width="0.432" fill="none" stroke="#FFFFFF" x1="41.111"/>
                        <circle r="0.407"  cx="31.536" stroke-width="0.576" fill="none" stroke="#FFFFFF" cy="13.716"/>
                    </g>
                </g>
            </g>
            <rect width="10.222"  height="14.986" y="13.309" x="30.889" fill="#333333"/>
            <circle r="2.052"  id="connector8pin" gorn="0.1.0.3" cx="64.8" stroke-width="1.224" fill="none" stroke="#9A916C" cy="10.8"/>
            <circle r="2.052"  id="connector9pin" gorn="0.1.0.4" cx="64.8" stroke-width="1.224" fill="none" stroke="#9A916C" cy="18"/>
            <circle r="2.052"  id="connector10pin" gorn="0.1.0.5" cx="64.8" stroke-width="1.224" fill="none" stroke="#9A916C" cy="25.2"/>
            <circle r="7.092"  id="connector11pin" gorn="0.1.0.6" cx="10.8" stroke-width="3.384" fill="none" stroke="#9A916C" cy="10.8"/>
            <circle r="2.052"  id="connector12pin" gorn="0.1.0.7" cx="21.6" stroke-width="1.224" fill="none" stroke="#9A916C" cy="25.2"/>
            <circle r="2.052"  id="connector13pin" gorn="0.1.0.8" cx="21.6" stroke-width="1.224" fill="none" stroke="#9A916C" cy="18"/>
            <circle r="7.092"  id="connector14pin" gorn="0.1.0.9" cx="10.8" stroke-width="3.384" fill="none" stroke="#9A916C" cy="32.4"/>
        </g>
    </g>
    <g  id="_x30_402-res_11_" gorn="0.2">
        <g  transform="matrix(-1, 0, 0, -1, 2.559, 5.67)">
            <g >
                <g >
                    <g  transform="matrix(1, 0, 0, 1, 10.275, 83.3789)">
                        <g >
                            <g  id="_x30_402-res_12_" gorn="0.2.0.0.0.0.0.0">
                                <g  transform="matrix(0, 1, -1, 0, 4.1105, -1.5595)">
                                    <g >
                                        <g >
                                            <g >
                                                <g >
                                                    <g  transform="matrix(-2.54711e-06, -1, 1, -2.54711e-06, -92.5375, -66.3468)">
                                                        <g >
                                                            <rect width="5.699"  height="2.601" y="10.124" x="-124.282" fill="#9F5B00"/>
                                                        </g>
                                                    </g>
                                                    <g  transform="matrix(-2.54711e-06, -1, 1, -2.54711e-06, -93.8052, -67.6143)">
                                                        <g >
                                                            <polygon  opacity="0.2" points="-119.917,13.959 -125.618,13.959 -125.618,13.959 " enable-background="new    "/>
                                                        </g>
                                                    </g>
                                                </g>
                                                <g >
                                                    <path d="M-82.413,53.03L-82.413,53.03L-82.413,53.03L-82.413,53.03c0.417-0.013,2.339,0.015,2.6-0.013v-0.789l-2.6,0V53.03z"  fill="#CCCCCC"/>
                                                    <path d="M-82.37,57.064l-0.044,0.926l2.601,0v-0.898C-80.121,57.036-82.37,57.064-82.37,57.064z"  fill="#CCCCCC"/>
                                                    <g  transform="matrix(-2.54711e-06, -1, 1, -2.54711e-06, -91.409, -70.0021)">
                                                        <g >
                                                            <polygon  opacity="0.15" points="-127.094,11.567 -127.994,11.567 -127.994,11.567 " enable-background="new    "/>
                                                        </g>
                                                    </g>
                                                    <g  transform="matrix(-2.54711e-06, -1, 1, -2.54711e-06, -88.8815, -67.4752)">
                                                        <g >
                                                            <polygon  opacity="0.5" points="-124.54,6.512 -125.441,6.512 -125.441,6.512 " enable-background="new    " fill="#FFFFFF"/>
                                                        </g>
                                                    </g>
                                                    <g  transform="matrix(-2.54711e-06, -1, 1, -2.54711e-06, -96.1915, -65.2182)">
                                                        <g >
                                                            <polygon  opacity="0.15" points="-117.527,16.332 -118.425,16.332 -118.425,16.332 " enable-background="new    "/>
                                                        </g>
                                                    </g>
                                                    <g  transform="matrix(-2.54711e-06, -1, 1, -2.54711e-06, -93.6649, -62.6904)">
                                                        <g >
                                                            <polygon  opacity="0.5" points="-114.972,11.279 -115.87,11.279 -115.87,11.279 " enable-background="new    " fill="#FFFFFF"/>
                                                        </g>
                                                    </g>
                                                    <line x2="-79.849"  y2="57.389" y1="57.389" fill="none" x1="-79.849"/>
                                                </g>
                                            </g>
                                        </g>
                                    </g>
                                </g>
                            </g>
                        </g>
                    </g>
                    <rect width="0.1"  height="2.5" y="-0.509" opacity="0.1" enable-background="new    " x="-37.925"/>
                    <rect width="0.102"  height="2.5" y="-0.509" opacity="0.2" enable-background="new    " x="-43.527" fill="#FFFFFF"/>
                </g>
                <g  transform="matrix(-1, 0, 0, -1, 2.559, 5.67)">
                    <g >
                        <g >
                            <g  transform="matrix(1, 0, 0, 1, 10.275, 83.3789)">
                                <g >
                                    <g  id="_x30_402-res_1_" gorn="0.2.0.0.1.0.0.0.0.0">
                                        <g  transform="matrix(0, 1, -1, 0, 4.1105, -1.5595)">
                                            <g >
                                                <g >
                                                    <g >
                                                        <g >
                                                            <g  transform="matrix(-2.54711e-06, -1, 1, -2.54711e-06, -92.5375, -66.3468)">
                                                                <g >
                                                                    <rect width="5.699"  height="2.601" y="40.555" x="-40.285" fill="#9F5B00"/>
                                                                </g>
                                                            </g>
                                                            <g  transform="matrix(-2.54711e-06, -1, 1, -2.54711e-06, -93.8052, -67.6143)">
                                                                <g >
                                                                    <polygon  opacity="0.2" points="-41.486,41.856 -35.785,41.856 -35.785,41.856 " enable-background="new    "/>
                                                                </g>
                                                            </g>
                                                        </g>
                                                        <g >
                                                            <path d="M-49.382-26.856L-49.382-26.856L-49.382-26.856L-49.382-26.856c-0.417,0.013-2.339-0.015-2.6,0.013l0,0.789l2.6,0L-49.382-26.856z"  fill="#CCCCCC"/>
                                                            <path d="M-49.425-30.89l0.044-0.926l-2.601,0l0,0.898C-51.674-30.861-49.425-30.89-49.425-30.89z"  fill="#CCCCCC"/>
                                                            <g  transform="matrix(-2.54711e-06, -1, 1, -2.54711e-06, -91.409, -70.0021)">
                                                                <g >
                                                                    <polygon  opacity="0.15" points="-39.085,39.456 -38.185,39.456 -38.185,39.456 " enable-background="new    "/>
                                                                </g>
                                                            </g>
                                                            <g  transform="matrix(-2.54711e-06, -1, 1, -2.54711e-06, -88.8815, -67.4752)">
                                                                <g >
                                                                    <polygon  opacity="0.5" points="-36.586,39.455 -35.684,39.455 -35.684,39.455 " enable-background="new    " fill="#FFFFFF"/>
                                                                </g>
                                                            </g>
                                                            <g  transform="matrix(-2.54711e-06, -1, 1, -2.54711e-06, -96.1915, -65.2182)">
                                                                <g >
                                                                    <polygon  opacity="0.15" points="-39.085,44.256 -38.186,44.256 -38.186,44.256 " enable-background="new    "/>
                                                                </g>
                                                            </g>
                                                            <g  transform="matrix(-2.54711e-06, -1, 1, -2.54711e-06, -93.6649, -62.6904)">
                                                                <g >
                                                                    <polygon  opacity="0.5" points="-36.584,44.255 -35.686,44.255 -35.686,44.255 " enable-background="new    " fill="#FFFFFF"/>
                                                                </g>
                                                            </g>
                                                            <line x2="-51.946"  y2="-31.214" y1="-31.214" fill="none" x1="-51.946"/>
                                                        </g>
                                                    </g>
                                                </g>
                                            </g>
                                        </g>
                                    </g>
                                </g>
                            </g>
                            <rect width="0.1"  height="2.5" y="23.281" opacity="0.1" enable-background="new    " x="71.403"/>
                            <rect width="0.102"  height="2.5" y="23.281" opacity="0.2" enable-background="new    " x="77.003" fill="#FFFFFF"/>
                        </g>
                    </g>
                </g>
            </g>
        </g>
    </g>
    <g  transform="matrix(-1, 0, 0, -1, 2.559, 5.67)">
        <g >
            <g >
                <g  transform="matrix(1, 0, 0, 1, 10.275, 83.3789)">
                    <g >
                        <g  id="_x30_402-res_4_" gorn="0.3.0.0.0.0.0">
                            <g  transform="matrix(0, 1, -1, 0, 4.1105, -1.5595)">
                                <g >
                                    <g >
                                        <g >
                                            <g >
                                                <g  transform="matrix(-2.54711e-06, -1, 1, -2.54711e-06, -92.5375, -66.3468)">
                                                    <g >
                                                        <rect width="5.7"  height="2.6" y="5.581" x="-124.371" fill="#333333"/>
                                                    </g>
                                                </g>
                                                <g  transform="matrix(-2.54711e-06, -1, 1, -2.54711e-06, -93.8052, -67.6143)">
                                                    <g >
                                                        <polygon  opacity="0.2" points="-125.571,6.882 -119.871,6.882 -119.871,6.882 " enable-background="new    "/>
                                                    </g>
                                                </g>
                                            </g>
                                            <g >
                                                <path d="M-84.417,57.171L-84.417,57.171L-84.417,57.171L-84.417,57.171L-84.417,57.171c-0.199-0.1-0.801-0.198-1-0.198s-1.399,0-1.6,0.101v0.899l2.6,0V57.171z"  fill="#CCCCCC"/>
                                                <path d="M-84.417,53.171L-84.417,53.171l0.101-0.899l-2.601,0v0.899c0.199,0.101,1.101,0.101,1.301,0.101C-85.417,53.371-84.618,53.272-84.417,53.171z"  fill="#CCCCCC"/>
                                                <g  transform="matrix(-2.54711e-06, -1, 1, -2.54711e-06, -91.409, -70.0021)">
                                                    <g >
                                                        <polygon  opacity="0.15" points="-123.171,4.482 -122.272,4.482 -122.272,4.482 " enable-background="new    "/>
                                                    </g>
                                                </g>
                                                <g  transform="matrix(-2.54711e-06, -1, 1, -2.54711e-06, -88.8815, -67.4752)">
                                                    <g >
                                                        <polygon  opacity="0.5" points="-120.671,4.482 -119.771,4.482 -119.771,4.482 " enable-background="new    " fill="#FFFFFF"/>
                                                    </g>
                                                </g>
                                                <g  transform="matrix(-2.54711e-06, -1, 1, -2.54711e-06, -96.1915, -65.2182)">
                                                    <g >
                                                        <polygon  opacity="0.15" points="-123.171,9.282 -122.271,9.282 -122.271,9.282 " enable-background="new    "/>
                                                    </g>
                                                </g>
                                                <g  transform="matrix(-2.54711e-06, -1, 1, -2.54711e-06, -93.6649, -62.6904)">
                                                    <g >
                                                        <polygon  opacity="0.5" points="-120.671,9.281 -119.771,9.281 -119.771,9.281 " enable-background="new    " fill="#FFFFFF"/>
                                                    </g>
                                                </g>
                                                <line x2="-86.917"  y2="52.871" y1="52.871" fill="none" x1="-86.917"/>
                                            </g>
                                        </g>
                                    </g>
                                </g>
                            </g>
                        </g>
                    </g>
                </g>
                <rect width="0.1"  height="2.5" y="-5.125" opacity="0.1" enable-background="new    " x="-43.677"/>
                <rect width="0.103"  height="2.5" y="-5.125" opacity="0.2" enable-background="new    " x="-38.077" fill="#FFFFFF"/>
            </g>
        </g>
    </g>
</svg>
