<?xml version='1.0' encoding='UTF-8' standalone='no'?>
<!-- Created with Fritzing (http://www.fritzing.org/) -->
<svg xmlns="http://www.w3.org/2000/svg" viewBox="0 0 57.6 34.711862" gorn="0" id="svg2" x="0in" y="0in" width="72" version="1.2" height="43.389851" >
    <desc>
        <referenceFile>Breakout Board for USB microB_breadboard.svg</referenceFile>
    </desc>
    <metadata id="metadata201" >
        <rdf:RDF xmlns:rdf="http://www.w3.org/1999/02/22-rdf-syntax-ns#">
            <cc:Work xmlns:cc="http://creativecommons.org/ns#" rdf:about="" xmlns:rdf="http://www.w3.org/1999/02/22-rdf-syntax-ns#">
                <dc:format xmlns:dc="http://purl.org/dc/elements/1.1/">image/svg+xml</dc:format>
                <dc:type rdf:resource="http://purl.org/dc/dcmitype/StillImage" xmlns:dc="http://purl.org/dc/elements/1.1/" xmlns:rdf="http://www.w3.org/1999/02/22-rdf-syntax-ns#"/>
            </cc:Work>
        </rdf:RDF>
    </metadata>
    <defs id="defs199" />
    <desc id="desc4" >Fritzing breadboard generated by brd2svg</desc>
    <g transform="translate(0,0.30281503)" >
        <g gorn="0.3.0" id="g3737" >
            <path gorn="0.3.0.0" d="M 0,32.4 0,0 l 57.6,0 0,32.4 -57.6,0 m 45.72,-7.2 a 4.68,4.68 0 0 0 9.36,0 4.68,4.68 0 1 0 -9.36,0 z m -43.2,0 a 4.68,4.68 0 0 0 9.36,0 4.68,4.68 0 1 0 -9.36,0 z m 19.6895,-3.7162 a 1.20473,1.20473 0 1 0 2.40945,0 1.20473,1.20473 0 1 0 -2.40945,0 z m 10.7716,0 a 1.20473,1.20473 0 1 0 2.40945,0 1.20473,1.20473 0 1 0 -2.40945,0 z M 41.76,3.6 a 1.44,1.44 0 0 0 2.88,0 1.44,1.44 0 1 0 -2.88,0 z m -7.2,0 a 1.44,1.44 0 0 0 2.88,0 1.44,1.44 0 1 0 -2.88,0 z m -7.2,0 a 1.44,1.44 0 1 0 2.88,0 1.44,1.44 0 1 0 -2.88,0 z m -7.2,0 a 1.44,1.44 0 1 0 2.88,0 1.44,1.44 0 1 0 -2.88,0 z m -7.2,0 a 1.44,1.44 0 1 0 2.88,0 1.44,1.44 0 1 0 -2.88,0 z" id="path8" style="fill:#e6321e;stroke:none" />
            <g transform="translate(-0.720325,9.6)" >
                <g gorn="0.3.0.1.0" id="g14" >
                    <title id="title16" >text:GND</title>
                    <g transform="translate(45.576,7.56)" >
                        <g gorn="0.3.0.1.0.1.0" id="g18" >
                            <g transform="matrix(0,-1,1,0,0,0)" >
                                <g gorn="0.3.0.1.0.1.0.0.0" id="g20" >
                                    <text gorn="0.3.0.1.0.1.0.0.0.0" id="text22" x="0" style="font-size:4.17600012px;text-anchor:start;fill:#ffffff;stroke:#ffffff;stroke-width:0.34560001;font-family:OCRA" y="0" font-size="4.176" >GND</text>
                                </g>
                            </g>
                        </g>
                    </g>
                </g>
            </g>
            <g transform="translate(-0.640325,6.4)" >
                <g gorn="0.3.0.2.0" id="g24" >
                    <title id="title26" >text:D+</title>
                    <g transform="translate(31.176,7.56)" >
                        <g gorn="0.3.0.2.0.1.0" id="g28" >
                            <g transform="matrix(0,-1,1,0,0,0)" >
                                <g gorn="0.3.0.2.0.1.0.0.0" id="g30" >
                                    <text gorn="0.3.0.2.0.1.0.0.0.0" id="text32" x="0" style="font-size:4.17600012px;text-anchor:start;fill:#ffffff;stroke:#ffffff;stroke-width:0.34560001;font-family:OCRA" y="0" font-size="4.176" >D+</text>
                                </g>
                            </g>
                        </g>
                    </g>
                </g>
            </g>
            <g transform="translate(-0.720325,6.4)" >
                <g gorn="0.3.0.3.0" id="g34" >
                    <title id="title36" >text:D-</title>
                    <g transform="translate(23.976,7.56)" >
                        <g gorn="0.3.0.3.0.1.0" id="g38" >
                            <g transform="matrix(0,-1,1,0,0,0)" >
                                <g gorn="0.3.0.3.0.1.0.0.0" id="g40" >
                                    <text gorn="0.3.0.3.0.1.0.0.0.0" id="text42" x="0" style="font-size:4.17600012px;text-anchor:start;fill:#ffffff;stroke:#ffffff;stroke-width:0.34560001;font-family:OCRA" y="0" font-size="4.176" >D-</text>
                                </g>
                            </g>
                        </g>
                    </g>
                </g>
            </g>
            <g transform="translate(-0.560325,9.6)" >
                <g gorn="0.3.0.4.0" id="g44" >
                    <title id="title46" >text:VCC</title>
                    <g transform="translate(16.776,7.56)" >
                        <g gorn="0.3.0.4.0.1.0" id="g48" >
                            <g transform="matrix(0,-1,1,0,0,0)" >
                                <g gorn="0.3.0.4.0.1.0.0.0" id="g50" >
                                    <text gorn="0.3.0.4.0.1.0.0.0.0" id="text52" x="0" style="font-size:4.17600012px;text-anchor:start;fill:#ffffff;stroke:#ffffff;stroke-width:0.34560001;font-family:OCRA" y="0" font-size="4.176" >VCC</text>
                                </g>
                            </g>
                        </g>
                    </g>
                </g>
            </g>
            <g transform="translate(-0.720325,6.4)" >
                <g gorn="0.3.0.5.0" id="g54" >
                    <title id="title56" >text:ID</title>
                    <g transform="translate(38.376,7.56)" >
                        <g gorn="0.3.0.5.0.1.0" id="g58" >
                            <g transform="matrix(0,-1,1,0,0,0)" >
                                <g gorn="0.3.0.5.0.1.0.0.0" id="g60" >
                                    <text gorn="0.3.0.5.0.1.0.0.0.0" id="text62" x="0" style="font-size:4.17600012px;text-anchor:start;fill:#ffffff;stroke:#ffffff;stroke-width:0.34560001;font-family:OCRA" y="0" font-size="4.176" >ID</text>
                                </g>
                            </g>
                        </g>
                    </g>
                </g>
            </g>
            <g gorn="0.3.0.6" id="g64" >
                <title id="title66" >element:JP2</title>
                <g gorn="0.3.0.6.1" id="g68" >
                    <title id="title70" >package:SFE-LOGO-FLAME</title>
                </g>
            </g>
            <g gorn="0.3.0.7" id="g72" >
                <title id="title74" >element:JP3</title>
                <g gorn="0.3.0.7.1" id="g76" >
                    <title id="title78" >package:STAND-OFF</title>
                </g>
            </g>
            <g gorn="0.3.0.8" id="g80" >
                <title id="title82" >element:JP4</title>
                <g gorn="0.3.0.8.1" id="g84" >
                    <title id="title86" >package:STAND-OFF</title>
                </g>
            </g>
            <g gorn="0.3.0.9" id="g88" >
                <title id="title90" >element:JP5</title>
                <g gorn="0.3.0.9.1" id="g92" >
                    <title id="title94" >package:1X05</title>
                    <line gorn="0.3.0.9.1.1" id="line96" style="stroke:#ffffff;stroke-width:0.57599998;stroke-linecap:round" y1="7.1999998" y2="7.1999998" x1="23.4" x2="19.799999" />
                    <line gorn="0.3.0.9.1.2" id="line98" style="stroke:#ffffff;stroke-width:0.57599998;stroke-linecap:round" y1="7.1999998" y2="5.4000001" x1="19.799999" x2="18" />
                    <line gorn="0.3.0.9.1.3" id="line100" style="stroke:#ffffff;stroke-width:0.57599998;stroke-linecap:round" y1="1.8" y2="0" x1="18" x2="19.799999" />
                    <line gorn="0.3.0.9.1.4" id="line102" style="stroke:#ffffff;stroke-width:0.57599998;stroke-linecap:round" y1="5.4000001" y2="7.1999998" x1="18" x2="16.200001" />
                    <line gorn="0.3.0.9.1.5" id="line104" style="stroke:#ffffff;stroke-width:0.57599998;stroke-linecap:round" y1="7.1999998" y2="7.1999998" x1="16.200001" x2="12.6" />
                    <line gorn="0.3.0.9.1.6" id="line106" style="stroke:#ffffff;stroke-width:0.57599998;stroke-linecap:round" y1="7.1999998" y2="5.4000001" x1="12.6" x2="10.8" />
                    <line gorn="0.3.0.9.1.7" id="line108" style="stroke:#ffffff;stroke-width:0.57599998;stroke-linecap:round" y1="1.8" y2="0" x1="10.8" x2="12.6" />
                    <line gorn="0.3.0.9.1.8" id="line110" style="stroke:#ffffff;stroke-width:0.57599998;stroke-linecap:round" y1="0" y2="0" x1="12.6" x2="16.200001" />
                    <line gorn="0.3.0.9.1.9" id="line112" style="stroke:#ffffff;stroke-width:0.57599998;stroke-linecap:round" y1="0" y2="1.8" x1="16.200001" x2="18" />
                    <line gorn="0.3.0.9.1.10" id="line114" style="stroke:#ffffff;stroke-width:0.57599998;stroke-linecap:round" y1="5.4000001" y2="7.1999998" x1="32.400002" x2="30.6" />
                    <line gorn="0.3.0.9.1.11" id="line116" style="stroke:#ffffff;stroke-width:0.57599998;stroke-linecap:round" y1="7.1999998" y2="7.1999998" x1="30.6" x2="27" />
                    <line gorn="0.3.0.9.1.12" id="line118" style="stroke:#ffffff;stroke-width:0.57599998;stroke-linecap:round" y1="7.1999998" y2="5.4000001" x1="27" x2="25.200001" />
                    <line gorn="0.3.0.9.1.13" id="line120" style="stroke:#ffffff;stroke-width:0.57599998;stroke-linecap:round" y1="1.8" y2="0" x1="25.200001" x2="27" />
                    <line gorn="0.3.0.9.1.14" id="line122" style="stroke:#ffffff;stroke-width:0.57599998;stroke-linecap:round" y1="0" y2="0" x1="27" x2="30.6" />
                    <line gorn="0.3.0.9.1.15" id="line124" style="stroke:#ffffff;stroke-width:0.57599998;stroke-linecap:round" y1="0" y2="1.8" x1="30.6" x2="32.400002" />
                    <line gorn="0.3.0.9.1.16" id="line126" style="stroke:#ffffff;stroke-width:0.57599998;stroke-linecap:round" y1="7.1999998" y2="5.4000001" x1="23.4" x2="25.200001" />
                    <line gorn="0.3.0.9.1.17" id="line128" style="stroke:#ffffff;stroke-width:0.57599998;stroke-linecap:round" y1="1.8" y2="0" x1="25.200001" x2="23.4" />
                    <line gorn="0.3.0.9.1.18" id="line130" style="stroke:#ffffff;stroke-width:0.57599998;stroke-linecap:round" y1="0" y2="0" x1="19.799999" x2="23.4" />
                    <line gorn="0.3.0.9.1.19" id="line132" style="stroke:#ffffff;stroke-width:0.57599998;stroke-linecap:round" y1="7.1999998" y2="7.1999998" x1="45" x2="41.400002" />
                    <line gorn="0.3.0.9.1.20" id="line134" style="stroke:#ffffff;stroke-width:0.57599998;stroke-linecap:round" y1="7.1999998" y2="5.4000001" x1="41.400002" x2="39.599998" />
                    <line gorn="0.3.0.9.1.21" id="line136" style="stroke:#ffffff;stroke-width:0.57599998;stroke-linecap:round" y1="1.8" y2="0" x1="39.599998" x2="41.400002" />
                    <line gorn="0.3.0.9.1.22" id="line138" style="stroke:#ffffff;stroke-width:0.57599998;stroke-linecap:round" y1="5.4000001" y2="7.1999998" x1="39.599998" x2="37.799999" />
                    <line gorn="0.3.0.9.1.23" id="line140" style="stroke:#ffffff;stroke-width:0.57599998;stroke-linecap:round" y1="7.1999998" y2="7.1999998" x1="37.799999" x2="34.200001" />
                    <line gorn="0.3.0.9.1.24" id="line142" style="stroke:#ffffff;stroke-width:0.57599998;stroke-linecap:round" y1="7.1999998" y2="5.4000001" x1="34.200001" x2="32.400002" />
                    <line gorn="0.3.0.9.1.25" id="line144" style="stroke:#ffffff;stroke-width:0.57599998;stroke-linecap:round" y1="1.8" y2="0" x1="32.400002" x2="34.200001" />
                    <line gorn="0.3.0.9.1.26" id="line146" style="stroke:#ffffff;stroke-width:0.57599998;stroke-linecap:round" y1="0" y2="0" x1="34.200001" x2="37.799999" />
                    <line gorn="0.3.0.9.1.27" id="line148" style="stroke:#ffffff;stroke-width:0.57599998;stroke-linecap:round" y1="0" y2="1.8" x1="37.799999" x2="39.599998" />
                    <line gorn="0.3.0.9.1.28" id="line150" style="stroke:#ffffff;stroke-width:0.57599998;stroke-linecap:round" y1="5.4000001" y2="1.8" x1="46.799999" x2="46.799999" />
                    <line gorn="0.3.0.9.1.29" id="line152" style="stroke:#ffffff;stroke-width:0.57599998;stroke-linecap:round" y1="7.1999998" y2="5.4000001" x1="45" x2="46.799999" />
                    <line gorn="0.3.0.9.1.30" id="line154" style="stroke:#ffffff;stroke-width:0.57599998;stroke-linecap:round" y1="1.8" y2="0" x1="46.799999" x2="45" />
                    <line gorn="0.3.0.9.1.31" id="line156" style="stroke:#ffffff;stroke-width:0.57599998;stroke-linecap:round" y1="0" y2="0" x1="41.400002" x2="45" />
                    <line gorn="0.3.0.9.1.32" id="line158" style="stroke:#ffffff;stroke-width:0.57599998;stroke-linecap:round" y1="5.4000001" y2="1.8" x1="10.8" x2="10.8" />
                </g>
            </g>
            <g gorn="0.3.0.10" id="g160" >
                <title id="title162" >element:U$3</title>
                <g gorn="0.3.0.10.1" id="g164" >
                    <title id="title166" >package:OSHW-LOGO-S</title>
                </g>
            </g>
            <g gorn="0.3.0.11" id="g168" >
                <title id="title170" >element:U$4</title>
                <g gorn="0.3.0.11.1" id="g172" >
                    <title id="title174" >package:USB-AB-MICRO-SMD_V03</title>
                    <line gorn="0.3.0.11.1.1" id="line176" style="stroke:#ffffff;stroke-width:0.86400002;stroke-linecap:round" y1="19.2672" y2="22.050699" x1="17.4816" x2="17.4816" />
                    <line gorn="0.3.0.11.1.2" id="line178" style="stroke:#ffffff;stroke-width:0.86400002;stroke-linecap:round" y1="22.050699" y2="22.050699" x1="17.4816" x2="17.461399" />
                    <line gorn="0.3.0.11.1.3" id="line180" style="stroke:#ffffff;stroke-width:0.86400002;stroke-linecap:round" y1="19.216101" y2="19.216101" x1="17.461399" x2="20.296101" />
                    <line gorn="0.3.0.11.1.4" id="line182" style="stroke:#ffffff;stroke-width:0.86400002;stroke-linecap:round" y1="22.050699" y2="19.216101" x1="40.138599" x2="40.138599" />
                    <line gorn="0.3.0.11.1.5" id="line184" style="stroke:#ffffff;stroke-width:0.86400002;stroke-linecap:round" y1="19.216101" y2="19.216101" x1="40.138599" x2="37.303902" />
                    <line gorn="0.3.0.11.1.6" id="line186" style="stroke:#ffffff;stroke-width:0.86400002;stroke-linecap:round" y1="30.5546" y2="33.389301" x1="17.461399" x2="17.461399" />
                    <line gorn="0.3.0.11.1.7" id="line188" style="stroke:#ffffff;stroke-width:0.86400002;stroke-linecap:round" y1="30.5546" y2="33.389301" x1="40.138599" x2="40.138599" />
                </g>
            </g>
            <circle r="2.052" gorn="0.3.0.12" connectorname="GND" d="m 45.252001,3.5999999 c 0,1.1332883 -0.918712,2.0520001 -2.052,2.0520001 -1.133289,0 -2.052,-0.9187118 -2.052,-2.0520001 0,-1.1332883 0.918711,-2.052 2.052,-2.052 1.133288,0 2.052,0.9187117 2.052,2.052 z" id="connector0pin" style="fill:none;stroke:#9a916c;stroke-width:1.22399998" cx="43.200001" cy="3.5999999" />
            <circle r="2.052" gorn="0.3.0.13" connectorname="ID" d="M 38.052,3.5999999 C 38.052,4.7332882 37.133288,5.652 36,5.652 c -1.133288,0 -2.052,-0.9187118 -2.052,-2.0520001 0,-1.1332883 0.918712,-2.052 2.052,-2.052 1.133288,0 2.052,0.9187117 2.052,2.052 z" id="connector1pin" style="fill:none;stroke:#9a916c;stroke-width:1.22399998" cx="36" cy="3.5999999" />
            <circle r="2.052" gorn="0.3.0.14" connectorname="D+" d="m 30.851999,3.5999999 c 0,1.1332883 -0.918711,2.0520001 -2.052,2.0520001 -1.133288,0 -2.052,-0.9187118 -2.052,-2.0520001 0,-1.1332883 0.918712,-2.052 2.052,-2.052 1.133289,0 2.052,0.9187117 2.052,2.052 z" id="connector2pin" style="fill:none;stroke:#9a916c;stroke-width:1.22399998" cx="28.799999" cy="3.5999999" />
            <circle r="2.052" gorn="0.3.0.15" connectorname="D-" d="M 23.652,3.5999999 C 23.652,4.7332882 22.733289,5.652 21.6,5.652 c -1.133288,0 -2.052,-0.9187118 -2.052,-2.0520001 0,-1.1332883 0.918712,-2.052 2.052,-2.052 1.133289,0 2.052,0.9187117 2.052,2.052 z" id="connector3pin" style="fill:none;stroke:#9a916c;stroke-width:1.22399998" cx="21.6" cy="3.5999999" />
            <circle r="2.052" gorn="0.3.0.16" connectorname="VBUS" d="M 16.452,3.5999999 C 16.452,4.7332882 15.533288,5.652 14.4,5.652 c -1.133289,0 -2.052,-0.9187118 -2.052,-2.0520001 0,-1.1332883 0.918711,-2.052 2.052,-2.052 1.133288,0 2.052,0.9187117 2.052,2.052 z" id="connector4pin" style="fill:none;stroke:#9a916c;stroke-width:1.22399998" cx="14.4" cy="3.5999999" />
            <g transform="matrix(0,-0.3676455,0.40939215,0,-251.82973,86.28183)" >
                <g gorn="0.3.0.17.0" id="layer1" >
                    <g transform="matrix(1.2499998,0,0,1.2499998,162.01364,542.561)" >
                        <g gorn="0.3.0.17.0.0.0" id="g582" >
                            <g gorn="0.3.0.17.0.0.0.0" id="g584" >
                                <g gorn="0.3.0.17.0.0.0.0.0" id="g546" >
                                    <title id="title548" >element:LOGO1</title>
                                    <g gorn="0.3.0.17.0.0.0.0.0.1" id="g550" >
                                        <title id="title552" >package:SFE_LOGO_NAME_.1</title>
                                        <g gorn="0.3.0.17.0.0.0.0.0.1.1" id="g554" >
                                            <title id="title556" >polygon</title>
                                            <path gorn="0.3.0.17.0.0.0.0.0.1.1.1" d="m 25.1461,62.9816 0.0284,0.17 m 0,0 0.0567,0.1134 m 0,0 0.0566,0.1418 m 0,0 0.1134,0.085 m 0,0 0.1418,0.0567 m 0,0 0.1417,0.0567 m 0,0 0.1418,0.0283 m 0,0 0.17,0.0284 m 0,0 0.1134,-0.0284 m 0,0 0.1134,0 m 0,0 0.1417,-0.0566 m 0,0 0.1134,-0.0284 m 0,0 0.0851,-0.085 m 0,0 0.085,-0.0851 m 0,0 0.0567,-0.1134 m 0,0 0,-0.1417 m 0,0 -0.0283,-0.1134 m 0,0 -0.0568,-0.085 m 0,0 -0.085,-0.085 m 0,0 -0.1417,-0.0851 m 0,0 -0.1984,-0.0567 m 0,0 -0.1985,-0.0567 m 0,0 -0.2551,-0.0567 m 0,0 -0.2834,-0.0567 m 0,0 -0.2268,-0.085 m 0,0 -0.2268,-0.0567 m 0,0 -0.2268,-0.0851 m 0,0 -0.1984,-0.1134 m 0,0 -0.1418,-0.1417 m 0,0 -0.1416,-0.1417 m 0,0 -0.0851,-0.2268 m 0,0 -0.0283,-0.2268 m 0,0 0.0567,-0.3684 m 0,0 0.1133,-0.2835 m 0,0 0.1702,-0.1984 m 0,0 0.2267,-0.1701 m 0,0 0.2551,-0.1417 m 0,0 0.2834,-0.0851 m 0,0 0.3119,-0.0283 m 0,0 0.3402,-0.0284 m 0,0 0.3117,0.0284 m 0,0 0.3119,0.0283 m 0,0 0.2834,0.0851 m 0,0 0.2551,0.1417 m 0,0 0.2268,0.1701 m 0,0 0.1985,0.2268 m 0,0 0.1134,0.2834 m 0,0 0.0566,0.3119 m 0,0 -1.0488,0 m 0,0 -0.0284,-0.1418 m 0,0 -0.0283,-0.1134 m 0,0 -0.085,-0.085 m 0,0 -0.085,-0.0851 m 0,0 -0.1134,-0.0566 m 0,0 -0.1134,-0.0284 m 0,0 -0.1418,-0.0284 m 0,0 -0.2551,0 m 0,0 -0.085,0.0284 m 0,0 -0.1134,0 m 0,0 -0.0851,0.0284 m 0,0 -0.085,0.0566 m 0,0 -0.085,0.0567 m 0,0 -0.0284,0.0851 m 0,0 -0.0284,0.1133 m 0,0 0.0284,0.1418 m 0,0 0.085,0.1134 m 0,0 0.1134,0.085 m 0,0 0.1701,0.0567 m 0,0 0.1984,0.0567 m 0,0 0.1985,0.0567 m 0,0 0.2268,0.0283 m 0,0 0.2267,0.0567 m 0,0 0.2552,0.0567 m 0,0 0.2267,0.0851 m 0,0 0.1984,0.085 m 0,0 0.1985,0.1133 m 0,0 0.17,0.1418 m 0,0 0.1134,0.1701 m 0,0 0.0851,0.2268 m 0,0 0.0283,0.2551 m 0,0 -0.0283,0.3685 m 0,0 -0.1417,0.2834 m 0,0 -0.1702,0.2552 m 0,0 -0.2267,0.1701 m 0,0 -0.2835,0.1417 m 0,0 -0.3118,0.1134 m 0,0 -0.3401,0.0566 m 0,0 -0.6804,0 m 0,0 -0.3402,-0.0566 m 0,0 -0.3117,-0.1134 m 0,0 -0.2835,-0.1417 m 0,0 -0.2268,-0.1701 m 0,0 -0.1984,-0.2552 m 0,0 -0.1134,-0.3117 m 0,0 -0.0567,-0.3402 m 0,0 0.9071,0 m 0,0 0.1417,0 m -0.1791,1.2143 2.0024,0 m -2.3819,-0.216 2.7613,0 m -2.98,-0.216 3.1849,0 m -3.3174,-0.216 1.3053,0 m 0.9374,0 1.2044,0 m -3.5257,-0.216 1.1003,0 m 1.4138,0 1.112,0 m -3.6641,-0.216 1.0488,0 m 1.5349,0 1.097,0 m -1.2052,-0.216 1.2064,0 m -1.6562,-0.216 1.621,0 m -2.4687,-0.216 2.3785,0 m -2.9849,-0.216 2.7995,0 m -3.0635,-0.216 2.6982,0 m -2.8614,-0.216 2.1599,0 m -2.2225,-0.216 1.3472,0 m -1.3567,-0.216 1.123,0 m 1.3266,0 1.0495,0 m -3.4658,-0.216 1.0827,0 m 1.2849,0 1.0588,0 m -3.3621,-0.216 1.2021,0 m 0.8473,0 1.2397,0 m -3.1757,-0.216 3.0479,0 m -2.8263,-0.216 2.6022,0 m -2.2571,-0.216 1.9119,0" id="path558" style="fill:none;stroke:#ffffff;stroke-width:0.44540939;stroke-linecap:round" />
                                        </g>
                                        <g gorn="0.3.0.17.0.0.0.0.0.1.2" id="g560" >
                                            <title id="title562" >polygon</title>
                                            <path gorn="0.3.0.17.0.0.0.0.0.1.2.1" d="m 31.1273,62.9816 0.0566,-0.2268 m 0,0 0.0284,-0.2268 m 0,0 0.0284,-0.2551 m 0,0 1.0771,0.0283 m 0,0 -0.0283,0.3969 m 0,0 -0.0568,0.3969 m 0,0 -0.1417,0.3401 m 0,0 -0.9637,-0.4535 m 0.7444,0.3503 0.2623,0 m -0.7213,-0.216 0.8113,0 m -1.0764,-0.216 1.113,0 m -1.0678,-0.216 1.0977,0 m -1.0715,-0.216 1.0869,0" id="path564" style="fill:none;stroke:#ffffff;stroke-width:0.44540939;stroke-linecap:round" />
                                        </g>
                                        <g gorn="0.3.0.17.0.0.0.0.0.1.3" id="g566" >
                                            <title id="title568" >polygon</title>
                                            <path gorn="0.3.0.17.0.0.0.0.0.1.3.1" d="m 32.091,63.4351 -0.1984,0.3118 m 0,0 -0.2552,0.2551 m 0,0 -0.2834,0.1985 m 0,0 -0.3685,0.1417 m 0,0 -0.4252,0.0283 m 0,0 -0.17,0 m 0,0 -0.1702,-0.0283 m 0,0 -0.17,-0.0567 m 0,0 -0.1701,-0.0567 m 0,0 -0.1418,-0.085 m 0,0 -0.1417,-0.1134 m 0,0 -0.1134,-0.1134 m 0,0 -0.1134,-0.1417 m 0,0 0,2.8913 m 0,0 -0.1417,-0.1134 m 0,0 -0.1417,-0.1417 m 0,0 -0.1417,-0.1134 m 0,0 -0.1418,-0.1134 m 0,0 -0.1417,-0.1417 m 0,0 -0.1134,-0.1134 m 0,0 -0.1417,-0.1134 m 0,0 -0.1418,-0.1417 m 0,0 0,-5.2157 m 0,0 0.1418,-0.0284 m 0,0 0.1133,-0.0284 m 0,0 0.1418,-0.0283 m 0,0 0.1134,0 m 0,0 0.1417,-0.0283 m 0,0 0.1418,-0.0284 m 0,0 0.1133,-0.0283 m 0,0 0.1418,-0.0284 m 0,0 0,0.5102 m 0,0 0.1134,-0.1417 m 0,0 0.1134,-0.1417 m 0,0 0.1417,-0.0851 m 0,0 0.1417,-0.085 m 0,0 0.1701,-0.085 m 0,0 0.1701,-0.0284 m 0,0 0.17,-0.0283 m 0,0 0.1701,-0.0284 m 0,0 0.4536,0.0567 m 0,0 0.3685,0.1418 m 0,0 0.3117,0.1984 m 0,0 0.2552,0.2551 m 0,0 0.1984,0.3402 m 0,0 0.1417,0.3685 m 0,0 0.0851,0.3968 m 0,0 0,0.3968 m 0,0 -1.0771,-0.0283 m 0,0 -0.0284,-0.2268 m 0,0 -0.0284,-0.2268 m 0,0 -0.085,-0.2267 m 0,0 -0.085,-0.1984 m 0,0 -0.1417,-0.1701 m 0,0 -0.1702,-0.1134 m 0,0 -0.1984,-0.085 m 0,0 -0.2267,-0.0284 m 0,0 -0.2551,0.0284 m 0,0 -0.1985,0.085 m 0,0 -0.1701,0.1134 m 0,0 -0.1417,0.1701 m 0,0 -0.085,0.1984 m 0,0 -0.0568,0.2267 m 0,0 -0.0566,0.2268 m 0,0 0,0.4819 m 0,0 0.0566,0.2268 m 0,0 0.0568,0.2268 m 0,0 0.1134,0.17 m 0,0 0.1133,0.1702 m 0,0 0.1701,0.1133 m 0,0 0.1985,0.085 m 0,0 0.2551,0.0284 m 0,0 0.2551,-0.0284 m 0,0 0.1984,-0.085 m 0,0 0.1701,-0.1133 m 0,0 0.1134,-0.1702 m 0,0 0.1134,-0.17 m 0,0 0.9637,0.4535 m -2.8396,3.1368 0.1183,0 m -0.3528,-0.216 0.3528,0 m -0.6117,-0.216 0.6117,0 m -0.829,-0.216 0.829,0 m -1.072,-0.216 1.072,0 m -1.1055,-0.216 1.1055,0 m -1.1055,-0.216 1.1055,0 m -1.1055,-0.216 1.1055,0 m -1.1055,-0.216 1.1055,0 m -1.1055,-0.216 1.1055,0 m -1.1055,-0.216 1.1055,0 m -1.1055,-0.216 1.1055,0 m 0.4555,0 1.5353,0 m -3.0963,-0.216 1.1055,0 m 0.1764,0 2.1135,0 m -3.3954,-0.216 3.6114,0 m -3.6114,-0.216 2.0076,0 m 0.0102,0 1.7373,0 m -3.7551,-0.216 1.4043,0 m 1.2167,0 0.9865,0 m -3.6075,-0.216 1.2518,0 m 1.5217,0 0.375,0 m -3.1485,-0.216 1.1418,0 m -1.1418,-0.216 1.0878,0 m -1.0878,-0.216 1.0489,0 m -1.0489,-0.216 1.0489,0 m 1.9249,0 1.0798,0 m -4.0536,-0.216 1.0514,0 m 1.8954,0 1.1068,0 m -4.0536,-0.216 1.1054,0 m 1.8144,0 1.1157,0 m -4.0355,-0.216 1.1594,0 m 1.6795,0 1.1503,0 m -3.9892,-0.216 1.2525,0 m 1.492,0 1.178,0 m -3.9225,-0.216 1.4673,0 m 1.0624,0 1.3097,0 m -3.8394,-0.216 3.72,0 m -3.72,-0.216 1.0489,0 m 0.0245,0 2.496,0 m -3.5694,-0.216 1.0489,0 m 0.1973,0 2.0959,0 m -2.512,-0.216 0.2188,0 m 0.5284,0 1.3868,0" id="path570" style="fill:none;stroke:#ffffff;stroke-width:0.44540939;stroke-linecap:round" />
                                        </g>
                                        <g gorn="0.3.0.17.0.0.0.0.0.1.4" id="g599" >
                                            <title id="title574" >polygon</title>
                                            <path gorn="0.3.0.17.0.0.0.0.0.1.4.1" d="m 33.9903,61.9895 0.2551,-0.0568 m 0,0 0.2551,-0.0283 m 0,0 0.2268,-0.0283 m 0,0 0.1134,0.5952 m 0,0 -0.0568,0.0284 m 0,0 -0.1134,0 m 0,0 -0.085,0.0283 m 0,0 -0.1133,0 m 0,0 -0.0851,0.0284 m 0,0 -0.0567,0 m 0,0 -0.0567,0.0283 m 0,0 -0.0567,0 m 0,0 -0.2267,-0.5952 m 0.1822,0.4784 0.6675,0 m -0.7497,-0.216 0.7085,0 m -0.7908,-0.216 0.7497,0" id="path576" style="fill:none;stroke:#ffffff;stroke-width:0.44540939;stroke-linecap:round" />
                                        </g>
                                        <g gorn="0.3.0.17.0.0.0.0.0.1.5" id="g578" >
                                            <title id="title580" >polygon</title>
                                            <path gorn="0.3.0.17.0.0.0.0.0.1.5.1" d="m 34.217,62.5847 -0.0567,0.0284 m 0,0 -0.0567,0.0283 m 0,0 -0.0567,0.0283 m 0,0 -0.0566,0.0284 m 0,0 -0.0568,0.0284 m 0,0 -0.0283,0.0283 m 0,0 -0.0283,0.0283 m 0,0 -0.0568,0.0568 m 0,0 -0.0283,0.0566 m 0,0 -0.0283,0.0567 m 0,0 0,0.1134 m 0,0 -0.0284,0.085 m 0,0 0.0284,0.0568 m 0,0 0,0.0566 m 0,0 0.0283,0.0851 m 0,0 0,0.0283 m 0,0 0.0283,0.0567 m 0,0 0.0568,0.0567 m 0,0 0.0283,0.0283 m 0,0 0.0567,0.0284 m 0,0 0.0284,0.0284 m 0,0 0.0566,0.0283 m 0,0 0.0567,0 m 0,0 0.0567,0.0283 m 0,0 0.4252,0 m 0,0 0.1134,-0.0283 m 0,0 0.1134,-0.0283 m 0,0 0.1134,-0.0284 m 0,0 0.085,-0.0567 m 0,0 0.0851,-0.085 m 0,0 0.0566,-0.0567 m 0,0 0.0284,-0.0851 m 0,0 0.0566,-0.0566 m 0,0 0.0284,-0.0851 m 0,0 0,-0.0851 m 0,0 0.0284,-0.0566 m 0,0 0,-0.0851 m 0,0 0.0284,-0.0566 m 0,0 0,-0.5387 m 0,0 -0.0568,0.0284 m 0,0 -0.0284,0.0284 m 0,0 -0.0566,0.0283 m 0,0 -0.0284,0.0283 m 0,0 -0.0566,0 m 0,0 -0.0567,0.0284 m 0,0 -0.0567,0.0283 m 0,0 -0.1417,0 m 0,0 -0.1134,-0.5952 m 0,0 0.1984,-0.0284 m 0,0 0.1701,-0.0567 m 0,0 0.1134,-0.085 m 0,0 0.085,-0.1134 m 0,0 0.0284,-0.1418 m 0,0 0,-0.085 m 0,0 -0.0284,-0.085 m 0,0 0,-0.0567 m 0,0 -0.0284,-0.0567 m 0,0 -0.0284,-0.0567 m 0,0 -0.0566,-0.0567 m 0,0 -0.0284,-0.0283 m 0,0 -0.0566,-0.0284 m 0,0 -0.0567,-0.0283 m 0,0 -0.0567,-0.0283 m 0,0 -0.0567,0 m 0,0 -0.0567,-0.0284 m 0,0 -0.1985,0 m 0,0 -0.0566,-0.0284 m 0,0 -0.0851,0.0284 m 0,0 -0.1417,0 m 0,0 -0.0851,0.0284 m 0,0 -0.0566,0 m 0,0 -0.0567,0.0283 m 0,0 -0.0567,0.0283 m 0,0 -0.0284,0.0284 m 0,0 -0.0567,0.0567 m 0,0 -0.0283,0.0283 m 0,0 -0.0567,0.0567 m 0,0 -0.0284,0.0567 m 0,0 -0.0283,0.0567 m 0,0 0,0.085 m 0,0 -0.0283,0.0568 m 0,0 0,0.085 m 0,0 -1.1056,0 m 0,0 0.0284,-0.1984 m 0,0 0.0283,-0.1418 m 0,0 0.0567,-0.1701 m 0,0 0.085,-0.1417 m 0,0 0.0851,-0.1134 m 0,0 0.1134,-0.1134 m 0,0 0.1134,-0.085 m 0,0 0.1134,-0.085 m 0,0 0.1417,-0.0851 m 0,0 0.1417,-0.0567 m 0,0 0.1417,-0.0567 m 0,0 0.1702,-0.0283 m 0,0 0.17,-0.0284 m 0,0 0.1701,-0.0283 m 0,0 0.6236,0 m 0,0 0.1701,0.0283 m 0,0 0.1417,0 m 0,0 0.1418,0.0284 m 0,0 0.17,0.0567 m 0,0 0.1134,0.0283 m 0,0 0.1417,0.0567 m 0,0 0.1134,0.0567 m 0,0 0.1134,0.085 m 0,0 0.1134,0.1134 m 0,0 0.0851,0.0851 m 0,0 0.0566,0.1417 m 0,0 0.0567,0.1134 m 0,0 0.0284,0.1701 m 0,0 0.0283,0.1701 m 0,0 0,2.5511 m 0,0 0.0284,0.0567 m 0,0 0,0.1134 m 0,0 0.0283,0.0567 m 0,0 0,0.0283 m 0,0 0.0284,0.0568 m 0,0 0,0.0283 m 0,0 0.0283,0.0567 m 0,0 0,0.0283 m 0,0 -1.1055,0 m 0,0 0,-0.0567 m 0,0 -0.0283,-0.0283 m 0,0 0,-0.0283 m 0,0 -0.0284,-0.0284 m 0,0 0,-0.1701 m 0,0 -0.0284,-0.0283 m 0,0 0,-0.0567 m 0,0 -0.0566,0.0567 m 0,0 -0.0568,0.085 m 0,0 -0.085,0.0567 m 0,0 -0.085,0.0283 m 0,0 -0.085,0.0568 m 0,0 -0.0567,0.0283 m 0,0 -0.085,0.0567 m 0,0 -0.0851,0.0283 m 0,0 -0.1134,0.0284 m 0,0 -0.085,0.0283 m 0,0 -0.085,0 m 0,0 -0.0851,0.0283 m 0,0 -0.1984,0 m 0,0 -0.0851,0.0284 m 0,0 -0.2267,0 m 0,0 -0.1418,-0.0284 m 0,0 -0.1417,0 m 0,0 -0.1134,-0.0566 m 0,0 -0.1134,-0.0284 m 0,0 -0.1134,-0.0567 m 0,0 -0.1133,-0.0566 m 0,0 -0.0851,-0.0568 m 0,0 -0.0851,-0.085 m 0,0 -0.085,-0.085 m 0,0 -0.085,-0.1134 m 0,0 -0.0567,-0.1134 m 0,0 -0.0284,-0.1134 m 0,0 -0.0283,-0.1134 m 0,0 -0.0283,-0.1417 m 0,0 0,-0.1417 m 0,0 0.0283,-0.3119 m 0,0 0.085,-0.2551 m 0,0 0.1418,-0.1984 m 0,0 0.17,-0.1701 m 0,0 0.1985,-0.1134 m 0,0 0.2268,-0.085 m 0,0 0.2551,-0.0567 m 0,0 0.2268,-0.0283 m 0,0 0.2267,0.5952 m -1.0295,1.6112 1.7473,0 m 0.4728,0 1.1055,0 m -3.5938,-0.216 2.3518,0 m 0.1081,0 1.0772,0 m -3.6907,-0.216 3.6623,0 m -3.7277,-0.216 1.2604,0 m 0.9659,0 1.5014,0 m -3.77,-0.216 1.1278,0 m 1.3727,0 1.2695,0 m -3.7617,-0.216 1.0807,0 m 1.5188,0 1.1622,0 m -3.742,-0.216 1.1041,0 m 1.5041,0 1.1338,0 m -3.6708,-0.216 1.2614,0 m 1.304,0 1.1054,0 m -3.5328,-0.216 1.2773,0 m 0.6675,0 0.1492,0 m 0.3334,0 1.1054,0 m -3.3081,-0.216 0.9703,0 m 0.7086,0 1.6292,0 m -2.7462,-0.216 0.3262,0 m 0.7497,0 1.6703,0 m -1.419,-0.216 1.419,0 m -1.1423,-0.216 1.1423,0 m -3.6396,-0.216 1.1057,0 m 1.4285,0 1.1054,0 m -3.6009,-0.216 1.1325,0 m 1.3085,0 1.137,0 m -3.4956,-0.216 1.3053,0 m 0.7982,0 1.3518,0 m -3.3077,-0.216 3.2112,0 m -2.9603,-0.216 2.76,0 m -2.3669,-0.216 1.9537,0" id="path582" style="fill:none;stroke:#ffffff;stroke-width:0.44540939;stroke-linecap:round" />
                                        </g>
                                        <g gorn="0.3.0.17.0.0.0.0.0.1.6" id="g606" >
                                            <title id="title586" >polygon</title>
                                            <path gorn="0.3.0.17.0.0.0.0.0.1.6.1" d="m 37.0233,60.4588 0.1417,-0.0284 m 0,0 0.1418,-0.0284 m 0,0 0.1133,-0.0283 m 0,0 0.1418,0 m 0,0 0.1417,-0.0283 m 0,0 0.1134,-0.0284 m 0,0 0.1418,-0.0283 m 0,0 0.1134,-0.0284 m 0,0 0,0.7654 m 0,0 0.0283,0 m 0,0 0.085,-0.1984 m 0,0 0.1134,-0.1701 m 0,0 0.1418,-0.1418 m 0,0 0.17,-0.1134 m 0,0 0.1701,-0.1133 m 0,0 0.1984,-0.0567 m 0,0 0.1984,-0.0567 m 0,0 0.3969,0 m 0,0 0.0283,0.0283 m 0,0 0,1.0205 m 0,0 -0.0283,0 m 0,0 -0.0567,-0.0283 m 0,0 -0.3118,0 m 0,0 -0.2834,0.0283 m 0,0 -0.2268,0.0567 m 0,0 -0.1701,0.1134 m 0,0 -0.1701,0.17 m 0,0 -0.0851,0.1985 m 0,0 -0.085,0.1984 m 0,0 -0.0567,0.2551 m 0,0 0,2.0693 m 0,0 -1.1055,0 m 0,0 0,-3.3448 m 0,0 0,-0.4819 m 0,3.7371 1.1055,0 m -1.1055,-0.216 1.1055,0 m -1.1055,-0.216 1.1055,0 m -1.1055,-0.216 1.1055,0 m -1.1055,-0.216 1.1055,0 m -1.1055,-0.216 1.1055,0 m -1.1055,-0.216 1.1055,0 m -1.1055,-0.216 1.1055,0 m -1.1055,-0.216 1.1055,0 m -1.1055,-0.216 1.1055,0 m -1.1055,-0.216 1.1456,0 m -1.1456,-0.216 1.2227,0 m -1.2227,-0.216 1.3153,0 m -1.3153,-0.216 1.5117,0 m -1.5117,-0.216 2.5795,0 m -2.5795,-0.216 1.0489,0 m 0.0581,0 1.4725,0 m -2.5795,-0.216 1.0489,0 m 0.1715,0 1.3591,0 m -2.5795,-0.216 1.0489,0 m 0.36,0 1.1706,0 m -1.7404,-0.216 0.2098,0 m 0.6796,0 0.851,0" id="path588" style="fill:none;stroke:#ffffff;stroke-width:0.44540939;stroke-linecap:round" />
                                        </g>
                                        <g gorn="0.3.0.17.0.0.0.0.0.1.7" id="g590" >
                                            <title id="title592" >polygon</title>
                                            <path gorn="0.3.0.17.0.0.0.0.0.1.7.1" d="m 40.0564,59.3532 1.0771,-0.6236 m 0,0 0,2.9764 m 0,0 1.3891,-1.4457 m 0,0 1.3039,0 m 0,0 -1.5024,1.474 m 0,0 1.6724,2.5512 m 0,0 -1.3323,0 m 0,0 -1.1054,-1.8142 m 0,0 -0.4253,0.4252 m 0,0 0,1.389 m 0,0 -1.0771,0 m 0,0 0,-4.9323 m 0,4.8427 1.0771,0 m 1.4762,0 1.3281,0 m -3.8814,-0.216 1.0771,0 m 1.3446,0 1.3181,0 m -3.7398,-0.216 1.0771,0 m 1.2129,0 1.3082,0 m -3.5982,-0.216 1.0771,0 m 1.0813,0 1.2982,0 m -3.4566,-0.216 1.0771,0 m 0.9496,0 1.2883,0 m -3.315,-0.216 1.0771,0 m 0.818,0 1.2783,0 m -3.1734,-0.216 1.0771,0 m 0.6864,0 1.2683,0 m -3.0318,-0.216 1.2897,0 m 0.3422,0 1.2583,0 m -2.8902,-0.216 2.7486,0 m -2.7486,-0.216 2.607,0 m -2.607,-0.216 2.4654,0 m -2.4654,-0.216 2.3238,0 m -2.3238,-0.216 1.0771,0 m 0.0981,0 1.2254,0 m -2.4006,-0.216 1.0771,0 m 0.3056,0 1.238,0 m -2.6207,-0.216 1.0771,0 m 0.5132,0 1.2506,0 m -2.8409,-0.216 1.0771,0 m 0.7207,0 1.2633,0 m -3.0611,-0.216 1.0771,0 m 0.9282,0 1.2759,0 m -3.2812,-0.216 1.0771,0 m 1.1358,0 1.2885,0 m -3.5014,-0.216 1.0771,0 m 1.3433,0 1.3011,0 m -3.7215,-0.216 1.0771,0 m -1.0771,-0.216 1.0771,0 m -1.0771,-0.216 1.0771,0 m -1.0771,-0.216 1.0771,0 m -0.8607,-0.216 0.8607,0 m -0.4876,-0.216 0.4876,0 m -0.1145,-0.216 0.1145,0" id="path594" style="fill:none;stroke:#ffffff;stroke-width:0.44540939;stroke-linecap:round" />
                                        </g>
                                        <g gorn="0.3.0.17.0.0.0.0.0.1.8" id="g596" >
                                            <title id="title598" >polygon</title>
                                            <path gorn="0.3.0.17.0.0.0.0.0.1.8.1" d="m 44.6769,60.9973 -1.0772,0 m 0,0 0.085,-0.085 m 0,0 0.085,-0.085 m 0,0 0.1134,-0.0851 m 0,0 0.0851,-0.1134 m 0,0 0.085,-0.085 m 0,0 0.085,-0.085 m 0,0 0.1134,-0.0851 m 0,0 0.0851,-0.1134 m 0,0 0.3402,0 m 0,0 0,-0.3118 m 0,0 0.0283,-0.2551 m 0,0 0.0567,-0.2268 m 0,0 0.1134,-0.1984 m 0,0 0.1417,-0.1701 m 0,0 0.1701,-0.1701 m 0,0 0.2268,-0.085 m 0,0 0.2834,-0.085 m 0,0 0.3119,-0.0284 m 0,0 0.2267,0 m 0,0 0.085,0.0284 m 0,0 0.2835,0 m 0,0 0,0.822 m 0,0 -0.5102,0 m 0,0 -0.085,0.0284 m 0,0 -0.0851,0.0283 m 0,0 -0.0567,0.0283 m 0,0 -0.0283,0.0851 m 0,0 -0.0284,0.0567 m 0,0 -0.0283,0.1133 m 0,0 0,0.3402 m 0,0 0.7653,0 m 0,0 0,0.737 m 0,0 -0.7653,0 m 0,0 0,3.2882 m 0,0 -1.1055,0 m 0,0 0,-2.8629 m 0,0 0,-0.4253 m 0,3.1986 1.1055,0 m -1.1055,-0.216 1.1055,0 m -1.1055,-0.216 1.1055,0 m -1.1055,-0.216 1.1055,0 m -1.1055,-0.216 1.1055,0 m -1.1055,-0.216 1.1055,0 m -1.1055,-0.216 1.1055,0 m -1.1055,-0.216 1.1055,0 m -1.1055,-0.216 1.1055,0 m -1.1055,-0.216 1.1055,0 m -1.1055,-0.216 1.1055,0 m -1.1055,-0.216 1.1055,0 m -1.1055,-0.216 1.1055,0 m -1.1055,-0.216 1.1055,0 m -1.1055,-0.216 1.1055,0 m -2.1413,-0.216 2.9066,0 m -2.6628,-0.216 2.6628,0 m -2.4746,-0.216 2.4746,0 m -2.2467,-0.216 2.2467,0 m -1.8708,-0.216 1.1055,0 m -1.0975,-0.216 1.1085,0 m -1.0798,-0.216 1.164,0 m -1.1027,-0.216 1.8295,0 m -1.6956,-0.216 1.6956,0 m -1.5012,-0.216 1.5012,0 m -1.0337,-0.216 1.0337,0" id="path600" style="fill:none;stroke:#ffffff;stroke-width:0.44540939;stroke-linecap:round" />
                                        </g>
                                        <g gorn="0.3.0.17.0.0.0.0.0.1.9" id="g602" >
                                            <title id="title604" >polygon</title>
                                            <path gorn="0.3.0.17.0.0.0.0.0.1.9.1" d="m 50.6012,64.2855 -1.0488,0 m 0,0 0,-0.5669 m 0,0 -0.1133,0.1701 m 0,0 -0.1418,0.1133 m 0,0 -0.1417,0.1418 m 0,0 -0.1417,0.085 m 0,0 -0.1701,0.0567 m 0,0 -0.1701,0.0567 m 0,0 -0.1701,0.0283 m 0,0 -0.1984,0.0284 m 0,0 -0.3968,-0.0567 m 0,0 -0.3119,-0.085 m 0,0 -0.2551,-0.1418 m 0,0 -0.1984,-0.17 m 0,0 -0.1418,-0.2551 m 0,0 -0.085,-0.2835 m 0,0 -0.0567,-0.3118 m 0,0 0,-2.8347 m 0,0 1.1055,0 m 0,0 0,2.4945 m 0,0 0.0284,0.1984 m 0,0 0.0567,0.1701 m 0,0 0.0567,0.1417 m 0,0 0.1133,0.1134 m 0,0 0.1134,0.0851 m 0,0 0.1418,0.0283 m 0,0 0.1984,0.0283 m 0,0 0.1985,-0.0283 m 0,0 0.17,-0.0283 m 0,0 0.1417,-0.0851 m 0,0 0.1418,-0.1417 m 0,0 0.085,-0.1417 m 0,0 0.0567,-0.1985 m 0,0 0.0284,-0.2551 m 0,0 0.0283,-0.2834 m 0,0 0,-2.0977 m 0,0 1.0771,0 m 0,0 0,3.515 m 0,0 0,0.5102 m -3.1149,-0.0896 1.5823,0 m 0.4838,0 1.0488,0 m -3.4179,-0.216 2.1417,0 m 0.2274,0 1.0488,0 m -3.559,-0.216 2.48,0 m 0.0302,0 1.0488,0 m -3.6427,-0.216 3.6427,0 m -3.6986,-0.216 1.2711,0 m 1.0567,0 1.3708,0 m -3.7378,-0.216 1.1842,0 m 1.3505,0 1.2031,0 m -3.7417,-0.216 1.1263,0 m 1.4806,0 1.1348,0 m -3.7417,-0.216 1.1055,0 m 1.526,0 1.1102,0 m -3.7417,-0.216 1.1055,0 m 1.5481,0 1.0881,0 m -3.7417,-0.216 1.1055,0 m 1.5591,0 1.0771,0 m -3.7417,-0.216 1.1055,0 m 1.5591,0 1.0771,0 m -3.7417,-0.216 1.1055,0 m 1.5591,0 1.0771,0 m -3.7417,-0.216 1.1055,0 m 1.5591,0 1.0771,0 m -3.7417,-0.216 1.1055,0 m 1.5591,0 1.0771,0 m -3.7417,-0.216 1.1055,0 m 1.5591,0 1.0771,0 m -3.7417,-0.216 1.1055,0 m 1.5591,0 1.0771,0 m -3.7417,-0.216 1.1055,0 m 1.5591,0 1.0771,0 m -3.7417,-0.216 1.1055,0 m 1.5591,0 1.0771,0 m -3.7417,-0.216 1.1055,0 m 1.5591,0 1.0771,0" id="path606" style="fill:none;stroke:#ffffff;stroke-width:0.44540939;stroke-linecap:round" />
                                        </g>
                                        <g gorn="0.3.0.17.0.0.0.0.0.1.10" id="g608" >
                                            <title id="title610" >polygon</title>
                                            <path gorn="0.3.0.17.0.0.0.0.0.1.10.1" d="m 51.2249,60.2603 1.0205,0 m 0,0 0,0.567 m 0,0 0.0283,0 m 0,0 0.1134,-0.1701 m 0,0 0.1134,-0.1418 m 0,0 0.17,-0.1134 m 0,0 0.1418,-0.085 m 0,0 0.1701,-0.0567 m 0,0 0.17,-0.0567 m 0,0 0.1702,-0.0283 m 0,0 0.17,-0.0284 m 0,0 0.3969,0.0567 m 0,0 0.3401,0.0851 m 0,0 0.2551,0.1417 m 0,0 0.1701,0.1701 m 0,0 0.1417,0.2551 m 0,0 0.1134,0.2835 m 0,0 0.0283,0.3117 m 0,0 0.0284,0.3685 m 0,0 0,2.4662 m 0,0 -1.1055,0 m 0,0 0,-2.4945 m 0,0 -0.0284,-0.1984 m 0,0 -0.0566,-0.17 m 0,0 -0.0851,-0.1418 m 0,0 -0.085,-0.1134 m 0,0 -0.1134,-0.085 m 0,0 -0.17,-0.0284 m 0,0 -0.1702,-0.0283 m 0,0 -0.1984,0.0283 m 0,0 -0.1984,0.0284 m 0,0 -0.1417,0.085 m 0,0 -0.1134,0.1418 m 0,0 -0.0851,0.1416 m 0,0 -0.0566,0.1985 m 0,0 -0.0568,0.2551 m 0,0 0,2.3811 m 0,0 -1.1055,0 m 0,0 0,-3.515 m 0,0 0.0284,-0.5102 m -0.0284,3.9356 1.1055,0 m 1.5591,0 1.1055,0 m -3.7701,-0.216 1.1055,0 m 1.5591,0 1.1055,0 m -3.7701,-0.216 1.1055,0 m 1.5591,0 1.1055,0 m -3.7701,-0.216 1.1055,0 m 1.5591,0 1.1055,0 m -3.7701,-0.216 1.1055,0 m 1.5591,0 1.1055,0 m -3.7701,-0.216 1.1055,0 m 1.5591,0 1.1055,0 m -3.7701,-0.216 1.1055,0 m 1.5591,0 1.1055,0 m -3.7701,-0.216 1.1055,0 m 1.5591,0 1.1055,0 m -3.7701,-0.216 1.1055,0 m 1.5591,0 1.1055,0 m -3.7701,-0.216 1.1055,0 m 1.5591,0 1.1055,0 m -3.7701,-0.216 1.1055,0 m 1.5591,0 1.1055,0 m -3.7701,-0.216 1.1243,0 m 1.5403,0 1.1055,0 m -3.7701,-0.216 1.1752,0 m 1.4627,0 1.1156,0 m -3.7535,-0.216 1.2567,0 m 1.3021,0 1.1772,0 m -3.736,-0.216 1.4138,0 m 0.9991,0 1.3035,0 m -3.7164,-0.216 3.6401,0 m -3.6383,-0.216 1.0471,0 m 0.0865,0 2.4004,0 m -3.5221,-0.216 1.0352,0 m 0.2483,0 2.0845,0 m -3.356,-0.216 1.0232,0 m 0.5941,0 1.4248,0" id="path612" style="fill:none;stroke:#ffffff;stroke-width:0.44540939;stroke-linecap:round" />
                                        </g>
                                    </g>
                                </g>
                            </g>
                        </g>
                    </g>
                </g>
            </g>
            <g transform="matrix(0.8,0,0,0.8,-342.65111,-501.42648)" >
                <g gorn="0.3.0.18.0" id="layer1-1" >
                    <g transform="matrix(1.2499998,0,0,1.2499998,486.63573,606.30081)" >
                        <g gorn="0.3.0.18.0.0.0" id="g5489" >
                            <g gorn="0.3.0.18.0.0.0.0" id="g5491" >
                                <g gorn="0.3.0.18.0.0.0.0.0" id="g622" >
                                    <title id="title624" >element:LOGO3</title>
                                    <g gorn="0.3.0.18.0.0.0.0.0.1" id="g626" >
                                        <title id="title628" >package:OSHW-LOGO-S</title>
                                        <g gorn="0.3.0.18.0.0.0.0.0.1.1" id="g630" >
                                            <title id="title632" >polygon</title>
                                            <path gorn="0.3.0.18.0.0.0.0.0.1.1.1" d="m 7.23881,23.9848 0.43034,-0.2217 m 0,0 1.06863,0.8714 m 0,0 0.73274,-0.7327 m 0,0 -0.87134,-1.0687 m 0,0 0.22168,-0.4304 m 0,0 0.14768,-0.4611 m 0,0 1.37166,-0.1395 m 0,0 0,-1.0364 m 0,0 -1.37166,-0.1394 m 0,0 -0.14768,-0.4611 m 0,0 -0.22168,-0.4304 m 0,0 0.87134,-1.0687 m 0,0 -0.73274,-0.7327 m 0,0 -1.06863,0.8713 m 0,0 -0.43041,-0.2216 m 0,0 -0.4611,-0.1477 m 0,0 -0.13947,-1.3717 m 0,0 -1.03634,0 m 0,0 -0.13947,1.3717 m 0,0 -0.46109,0.1477 m 0,0 -0.4304,0.2216 m 0,0 -1.06867,-0.8713 m 0,0 -0.73275,0.7327 m 0,0 0.87137,1.0687 m 0,0 -0.22171,0.4304 m 0,0 -0.14765,0.4611 m 0,0 -1.37168,0.1394 m 0,0 0,1.0364 m 0,0 1.37168,0.1395 m 0,0 0.14765,0.4611 m 0,0 0.22171,0.4304 m 0,0 -0.87137,1.0687 m 0,0 0.73275,0.7327 m 0,0 1.06867,-0.8714 m 0,0 0.43029,0.2217 m 0,0 0.6103,-1.4732 m 0,0 -0.27257,-0.1526 m 0,0 -0.2294,-0.212 m 0,0 -0.17357,-0.2597 m 0,0 -0.10811,-0.2931 m 0,0 -0.03669,-0.3103 m 0,0 0.03814,-0.3157 m 0,0 0.11209,-0.2976 m 0,0 0.17961,-0.2626 m 0,0 0.23686,-0.2122 m 0,0 0.28051,-0.1499 m 0,0 0.30811,-0.079 m 0,0 0.31804,-0.0035 m 0,0 0.30975,0.0723 m 0,0 0.2837,0.1437 m 0,0 0.24141,0.2072 m 0,0 0.18526,0.2585 m 0,0 0.11851,0.2951 m 0,0 0.045,0.3149 m 0,0 -0.0311,0.3165 m 0,0 -0.10548,0.3001 m 0,0 -0.17377,0.2664 m 0,0 -0.2321,0.2175 m 0,0 -0.27712,0.156 m 0,0 0.61027,1.4732 m -4.11078,0.2755 0.83306,0 m 4.31783,0 0.83304,0 m -6.28819,-0.4252 1.65879,0 m 0.22806,0 0.35254,0 m 2.11367,0 0.35257,0 m 0.22802,0 1.65881,0 m -6.24576,-0.4252 2.06884,0 m 1.76137,0 2.06887,0 m -5.55239,-0.4252 1.89831,0 m 1.40906,0 1.89834,0 m -5.22297,-0.4252 2.09171,0 m 1.05677,0 2.0917,0 m -5.4069,-0.4252 1.76785,0 m 2.03917,0 1.76663,0 m -7.00705,-0.4251 2.97044,0 m 2.4984,0 2.97158,0 m -8.44042,-0.4253 2.89134,0 m 2.65418,0 2.8949,0 m -8.44042,-0.4251 2.97068,0 m 2.49996,0 2.96978,0 m -7.00701,-0.4253 1.77031,0 m 2.02951,0 1.77382,0 m -5.40692,-0.4251 2.28481,0 m 0.67223,0 2.28313,0 m -5.22292,-0.4253 5.20564,0 m -5.55234,-0.4251 5.89909,0 m -6.24579,-0.4253 1.65881,0 m 0.22807,0 2.81876,0 m 0.22802,0 1.65881,0 m -6.2882,-0.4251 0.83307,0 m 1.51427,0 1.28927,0 m 1.51428,0 0.83304,0 m -3.59337,-0.4252 1.20283,0 m -1.15959,-0.4252 1.11635,0" id="path634" style="fill:none;stroke:#ffffff;stroke-width:0.42519701;stroke-linecap:round" />
                                        </g>
                                    </g>
                                </g>
                            </g>
                        </g>
                    </g>
                </g>
            </g>
            <g transform="matrix(0,-0.89348023,1.0996287,0,-669.76248,325.31345)" >
                <g gorn="0.3.0.19.0" id="layer1-7" >
                    <g transform="translate(333.68571,610.31933)" >
                        <g gorn="0.3.0.19.0.0.0" id="g802" >
                            <g gorn="0.3.0.19.0.0.0.0" id="g804" >
                                <g gorn="0.3.0.19.0.0.0.0.0" id="g806" >
                                    <rect gorn="0.3.0.19.0.0.0.0.0.0" id="rect808" x="8.6000004" style="fill:#666666" y="20.700001" width="0.69999999" height="1" />
                                    <rect gorn="0.3.0.19.0.0.0.0.0.1" id="rect810" x="8.8000002" style="fill:#999999" y="20.700001" width="0.5" height="0.1" />
                                </g>
                                <g gorn="0.3.0.19.0.0.0.0.1" id="g812" >
                                    <rect gorn="0.3.0.19.0.0.0.0.1.0" id="rect814" x="8.6000004" style="fill:#666666" y="22.6" width="0.69999999" height="1" />
                                    <rect gorn="0.3.0.19.0.0.0.0.1.1" id="rect816" x="8.8000002" style="fill:#999999" y="22.6" width="0.5" height="0.1" />
                                </g>
                                <g gorn="0.3.0.19.0.0.0.0.2" id="g818" >
                                    <rect gorn="0.3.0.19.0.0.0.0.2.0" id="rect820" x="8.6000004" style="fill:#666666" y="24.4" width="0.69999999" height="1" />
                                    <rect gorn="0.3.0.19.0.0.0.0.2.1" id="rect822" x="8.8000002" style="fill:#999999" y="24.4" width="0.5" height="0.1" />
                                </g>
                                <g gorn="0.3.0.19.0.0.0.0.3" id="g824" >
                                    <rect gorn="0.3.0.19.0.0.0.0.3.0" id="rect826" x="8.6000004" style="fill:#666666" y="26.299999" width="0.69999999" height="1" />
                                    <rect gorn="0.3.0.19.0.0.0.0.3.1" id="rect828" x="8.8000002" style="fill:#999999" y="26.299999" width="0.5" height="0.1" />
                                </g>
                                <g gorn="0.3.0.19.0.0.0.0.4" id="g830" >
                                    <rect gorn="0.3.0.19.0.0.0.0.4.0" id="rect832" x="8.6000004" style="fill:#666666" y="28.1" width="0.69999999" height="1" />
                                    <rect gorn="0.3.0.19.0.0.0.0.4.1" id="rect834" x="8.8000002" style="fill:#999999" y="28.1" width="0.5" height="0.1" />
                                </g>
                                <g gorn="0.3.0.19.0.0.0.0.5" id="g836" >
                                    <polygon gorn="0.3.0.19.0.0.0.0.5.0" id="polygon838" style="fill:#b3b3b3" points="-8.1,34.4 -8.1,15.5 8.9,15.5 8.9,34.4 " />
                                    <rect gorn="0.3.0.19.0.0.0.0.5.1" id="rect840" x="-0.80000001" style="fill:#b7b7b7" y="34.599998" width="3" height="1.8" />
                                    <rect gorn="0.3.0.19.0.0.0.0.5.2" id="rect842" x="-0.80000001" style="fill:#b7b7b7" y="13.4" width="3" height="1.8" />
                                    <rect gorn="0.3.0.19.0.0.0.0.5.3" id="rect844" x="8.8000002" style="fill:#cccccc" y="15.5" width="0.1" height="18.799999" />
                                    <rect gorn="0.3.0.19.0.0.0.0.5.4" id="rect846" x="-8.1000004" style="fill:#333333" y="19.799999" width="17" height="10.3" />
                                    <rect gorn="0.3.0.19.0.0.0.0.5.5" id="rect848" x="-8.1000004" style="fill:#b3b3b3" y="14.3" width="1.1" height="1" />
                                    <rect gorn="0.3.0.19.0.0.0.0.5.6" id="rect850" x="-8.1000004" style="fill:#f2f2f2" y="14.6" width="1.1" height="0.60000002" />
                                    <rect gorn="0.3.0.19.0.0.0.0.5.7" id="rect852" x="-8.1000004" style="fill:#b3b3b3" y="34.599998" width="1.1" height="1" />
                                    <rect gorn="0.3.0.19.0.0.0.0.5.8" id="rect854" x="-8.1000004" style="fill:#999999" y="34.599998" width="1.1" height="0.60000002" />
                                    <path gorn="0.3.0.19.0.0.0.0.5.9" d="m 8.3,15.3 0.6,0.2 V 18 c 0,0 -0.1,-2.3 -0.3,-2.4 -0.2,-0.1 -0.3,0.1 -0.3,0.1 0,0 0,-0.4 0,-0.4 z" id="path856" style="fill:#cccccc" />
                                    <path gorn="0.3.0.19.0.0.0.0.5.10" d="m 8.3,34.6 0.6,-0.2 v -2.5 c 0,0 -0.1,2.3 -0.3,2.4 -0.2,0.1 -0.3,-0.1 -0.3,-0.1 0,0 0,0.4 0,0.4 z" id="path858" style="fill:#cccccc" />
                                    <path gorn="0.3.0.19.0.0.0.0.5.11" d="m 8.3,31.2 h -1 V 29.6 H 8.9 V 29.1 H 8.3 V 20.7 H 8.9 V 20.2 H 7.3 V 18.6 H 8.4 V 15.3 H -8.1 V 34.6 H 8.3 V 31.2 z M -5,20.2 h -0.8 v -1.6 h 0.9 c 0.3,-0.4 0.8,-0.7 1.3,-0.7 0.6,0 1.1,0.2 1.4,0.7 l 0,0 h 4.5 v 1.6 H -2.2 C -2.5,20.7 -3,21 -3.6,21 -4.2,21 -4.7,20.7 -5,20.2 z m 0,10.9 h -0.8 v -1.6 h 0.9 c 0.3,-0.4 0.8,-0.7 1.3,-0.7 0.6,0 1.1,0.2 1.4,0.7 l 0,0 h 4.5 v 1.6 h -4.5 c -0.3,0.5 -0.8,0.8 -1.4,0.8 -0.6,0 -1.1,-0.3 -1.4,-0.8 z" id="path860" style="fill:#e6e6e6" />
                                    <polygon gorn="0.3.0.19.0.0.0.0.5.12" id="polygon862" style="fill:#f2f2f2" points="-8.1,15.7 -8.1,15.3 8.3,15.3 8.3,16.8 " />
                                    <polygon gorn="0.3.0.19.0.0.0.0.5.13" id="polygon864" style="fill:#999999" points="-8.1,34.6 2.9,34 8.3,33.4 8.3,34.6 " />
                                    <rect gorn="0.3.0.19.0.0.0.0.5.14" id="rect866" x="2.0999999" style="fill:#cccccc" y="18.6" width="0.1" height="1.6" />
                                    <rect gorn="0.3.0.19.0.0.0.0.5.15" id="rect868" x="2.0999999" style="fill:#cccccc" y="29.5" width="0.1" height="1.6" />
                                    <rect gorn="0.3.0.19.0.0.0.0.5.16" id="rect870" x="-7.5" style="fill:#b3b3b3" y="16.200001" width="0.69999999" height="17.4" />
                                    <rect gorn="0.3.0.19.0.0.0.0.5.17" id="rect872" x="-8.1000004" style="fill:#cccccc" y="16.200001" width="0.69999999" height="17.4" />
                                </g>
                            </g>
                        </g>
                    </g>
                </g>
            </g>
        </g>
    </g>
</svg>
