<?xml version='1.0' encoding='UTF-8' standalone='no'?>
<!-- Created with Fritzing (http://www.fritzing.org/) -->
<svg xmlns="http://www.w3.org/2000/svg" height="0.9in" gorn="0"  x="0in" y="0in" viewBox="0 0 57.6 64.8" id="svg2" width="0.8in" version="1.2">
    <desc >
        <referenceFile >MAX30105_Breakout_breadboard.svg</referenceFile>
    </desc>
    <metadata  id="metadata671">
        <rdf:RDF xmlns:rdf="http://www.w3.org/1999/02/22-rdf-syntax-ns#">
            <cc:Work rdf:about="" xmlns:cc="http://creativecommons.org/ns#" xmlns:rdf="http://www.w3.org/1999/02/22-rdf-syntax-ns#">
                <dc:format xmlns:dc="http://purl.org/dc/elements/1.1/">image/svg+xml</dc:format>
                <dc:type rdf:resource="http://purl.org/dc/dcmitype/StillImage" xmlns:dc="http://purl.org/dc/elements/1.1/" xmlns:rdf="http://www.w3.org/1999/02/22-rdf-syntax-ns#"/>
            </cc:Work>
        </rdf:RDF>
    </metadata>
    <defs  id="defs669"/>
    <desc  id="desc4">Fritzing breadboard generated by brd2svg</desc>
    <path gorn="0.4" d="M 57.6,64.8 0,64.8 0,0 l 57.6,0 0,64.8 M 45.72,7.2 a 4.68,4.68 0 0 0 9.36,0 4.68,4.68 0 1 0 -9.36,0 z m 0,50.4 a 4.68,4.68 0 0 0 9.36,0 4.68,4.68 0 1 0 -9.36,0 z m -43.2,0 a 4.68,4.68 0 0 0 9.36,0 4.68,4.68 0 1 0 -9.36,0 z m 0,-50.4 a 4.68,4.68 0 0 0 9.36,0 4.68,4.68 0 1 0 -9.36,0 z M 2.16,46.8 a 1.44,1.44 0 0 0 2.88,0 1.44,1.44 0 1 0 -2.88,0 z m 0,-7.2 a 1.44,1.44 0 0 0 2.88,0 1.44,1.44 0 1 0 -2.88,0 z m 0,-7.2 a 1.44,1.44 0 0 0 2.88,0 1.44,1.44 0 1 0 -2.88,0 z m 0,-7.2 a 1.44,1.44 0 0 0 2.88,0 1.44,1.44 0 1 0 -2.88,0 z m 0,-7.2 a 1.44,1.44 0 0 0 2.88,0 1.44,1.44 0 1 0 -2.88,0 z"  fill="#e6321e" id="path8" stroke-width="0" stroke="none"/>
    <g gorn="0.5"  id="g14">
        <title  id="title16">text:MAX30105</title>
        <text gorn="0.5.1" font-size="3.3408"  x="15.84" y="61.200001" fill="#ffffff" id="text18" style="font-family:OCRA;text-anchor:start;" stroke-width="0.34560001" stroke="#ffffff">MAX30105</text>
    </g>
    <g  transform="translate(0,1.6)">
        <g >
            <g >
                <g gorn="0.6.0.0.0"  id="g20">
                    <title  id="title22">text:!INT</title>
                    <text text-decoration="overline" gorn="0.6.0.0.0.1" font-size="3.3408"  x="12.6" y="18" fill="#ffffff" id="text24" style="font-family:OCRA;text-decoration: overline;text-decoration-line: overline;text-anchor:middle;" stroke-width="0.34560001" stroke="#ffffff">INT</text>
                </g>
            </g>
        </g>
    </g>
    <g  transform="translate(0,1.6)">
        <g >
            <g >
                <g gorn="0.7.0.0.0"  id="g26">
                    <title  id="title28">text:5V</title>
                    <text gorn="0.7.0.0.0.1" font-size="3.3408"  x="11.52" y="32.400002" fill="#ffffff" id="text30" style="font-family:OCRA;text-anchor:middle;" stroke-width="0.34560001" stroke="#ffffff">5V</text>
                </g>
            </g>
        </g>
    </g>
    <g  transform="translate(0,1.6)">
        <g >
            <g >
                <g gorn="0.8.0.0.0"  id="g32">
                    <title  id="title34">text:GND</title>
                    <text gorn="0.8.0.0.0.1" font-size="3.3408"  x="12.96" y="25.200001" fill="#ffffff" id="text36" style="font-family:OCRA;text-anchor:middle;" stroke-width="0.34560001" stroke="#ffffff">GND</text>
                </g>
            </g>
        </g>
    </g>
    <g  transform="translate(0,1.6)">
        <g >
            <g >
                <g gorn="0.9.0.0.0"  id="g38">
                    <title  id="title40">text:SCL</title>
                    <text gorn="0.9.0.0.0.1" font-size="3.3408"  x="12.96" y="46.799999" fill="#ffffff" id="text42" style="font-family:OCRA;text-anchor:middle;" stroke-width="0.34560001" stroke="#ffffff">SCL</text>
                </g>
            </g>
        </g>
    </g>
    <g  transform="translate(0,1.6)">
        <g >
            <g >
                <g gorn="0.10.0.0.0"  id="g44">
                    <title  id="title46">text:SDA</title>
                    <text gorn="0.10.0.0.0.1" font-size="3.3408"  x="12.96" y="39.599998" fill="#ffffff" id="text48" style="font-family:OCRA;text-anchor:middle;" stroke-width="0.34560001" stroke="#ffffff">SDA</text>
                </g>
            </g>
        </g>
    </g>
    <g gorn="0.11"  id="g50">
        <title  id="title52">element:C1</title>
        <g gorn="0.11.1"  id="g54">
            <title  id="title56">package:0603-CAP</title>
            <line gorn="0.11.1.1"  id="line58" y1="37.720798" y2="37.8792" style="stroke-linecap:round" x1="25.200001" stroke-width="1.08000004" x2="25.200001" stroke="#ffffff"/>
        </g>
    </g>
    <g gorn="0.12"  id="g60">
        <title  id="title62">element:C3</title>
        <g gorn="0.12.1"  id="g64">
            <title  id="title66">package:0603-CAP</title>
            <line gorn="0.12.1.1"  id="line68" y1="21.679199" y2="21.5208" style="stroke-linecap:round" x1="25.200001" stroke-width="1.08000004" x2="25.200001" stroke="#ffffff"/>
        </g>
    </g>
    <g gorn="0.13"  id="g70">
        <title  id="title72">element:C4</title>
        <g gorn="0.13.1"  id="g74">
            <title  id="title76">package:0603-CAP</title>
            <line gorn="0.13.1.1"  id="line78" y1="27.079201" y2="26.920799" style="stroke-linecap:round" x1="25.200001" stroke-width="1.08000004" x2="25.200001" stroke="#ffffff"/>
        </g>
    </g>
    <g gorn="0.14"  id="g80">
        <title  id="title82">element:C5</title>
        <g gorn="0.14.1"  id="g84">
            <title  id="title86">package:0805-CAP</title>
            <line gorn="0.14.1.1"  id="line88" y1="41.499199" y2="41.499199" style="stroke-linecap:round" x1="24.3496" stroke-width="0.43200001" x2="26.0504" stroke="#ffffff"/>
            <line gorn="0.14.1.2"  id="line90" y1="44.900799" y2="44.900799" style="stroke-linecap:round" x1="24.3496" stroke-width="0.43200001" x2="26.0504" stroke="#ffffff"/>
            <line gorn="0.14.1.3"  id="line92" y1="43.113499" y2="43.286499" style="stroke-linecap:round" x1="25.200001" stroke-width="1.58399999" x2="25.200001" stroke="#ffffff"/>
        </g>
    </g>
    <g gorn="0.15"  id="g94">
        <title  id="title96">element:FID1</title>
        <g gorn="0.15.1"  id="g98">
            <title  id="title100">package:FIDUCIAL-1X2</title>
        </g>
    </g>
    <g gorn="0.16"  id="g102">
        <title  id="title104">element:FID2</title>
        <g gorn="0.16.1"  id="g106">
            <title  id="title108">package:FIDUCIAL-1X2</title>
        </g>
    </g>
    <g gorn="0.17"  id="g110">
        <title  id="title112">element:J2</title>
        <g gorn="0.17.1"  id="g114">
            <title  id="title116">package:1X05</title>
            <line gorn="0.17.1.1"  id="line118" y1="27" y2="23.4" style="stroke-linecap:round" x1="0" stroke-width="0.57599998" x2="0" stroke="#ffffff"/>
            <line gorn="0.17.1.2"  id="line120" y1="23.4" y2="21.6" style="stroke-linecap:round" x1="0" stroke-width="0.57599998" x2="1.8" stroke="#ffffff"/>
            <line gorn="0.17.1.3"  id="line122" y1="21.6" y2="23.4" style="stroke-linecap:round" x1="5.4000001" stroke-width="0.57599998" x2="7.1999998" stroke="#ffffff"/>
            <line gorn="0.17.1.4"  id="line124" y1="21.6" y2="19.799999" style="stroke-linecap:round" x1="1.8" stroke-width="0.57599998" x2="0" stroke="#ffffff"/>
            <line gorn="0.17.1.5"  id="line126" y1="19.799999" y2="16.200001" style="stroke-linecap:round" x1="0" stroke-width="0.57599998" x2="0" stroke="#ffffff"/>
            <line gorn="0.17.1.6"  id="line128" y1="16.200001" y2="14.4" style="stroke-linecap:round" x1="0" stroke-width="0.57599998" x2="1.8" stroke="#ffffff"/>
            <line gorn="0.17.1.7"  id="line130" y1="14.4" y2="16.200001" style="stroke-linecap:round" x1="5.4000001" stroke-width="0.57599998" x2="7.1999998" stroke="#ffffff"/>
            <line gorn="0.17.1.8"  id="line132" y1="16.200001" y2="19.799999" style="stroke-linecap:round" x1="7.1999998" stroke-width="0.57599998" x2="7.1999998" stroke="#ffffff"/>
            <line gorn="0.17.1.9"  id="line134" y1="19.799999" y2="21.6" style="stroke-linecap:round" x1="7.1999998" stroke-width="0.57599998" x2="5.4000001" stroke="#ffffff"/>
            <line gorn="0.17.1.10"  id="line136" y1="36" y2="34.200001" style="stroke-linecap:round" x1="1.8" stroke-width="0.57599998" x2="0" stroke="#ffffff"/>
            <line gorn="0.17.1.11"  id="line138" y1="34.200001" y2="30.6" style="stroke-linecap:round" x1="0" stroke-width="0.57599998" x2="0" stroke="#ffffff"/>
            <line gorn="0.17.1.12"  id="line140" y1="30.6" y2="28.799999" style="stroke-linecap:round" x1="0" stroke-width="0.57599998" x2="1.8" stroke="#ffffff"/>
            <line gorn="0.17.1.13"  id="line142" y1="28.799999" y2="30.6" style="stroke-linecap:round" x1="5.4000001" stroke-width="0.57599998" x2="7.1999998" stroke="#ffffff"/>
            <line gorn="0.17.1.14"  id="line144" y1="30.6" y2="34.200001" style="stroke-linecap:round" x1="7.1999998" stroke-width="0.57599998" x2="7.1999998" stroke="#ffffff"/>
            <line gorn="0.17.1.15"  id="line146" y1="34.200001" y2="36" style="stroke-linecap:round" x1="7.1999998" stroke-width="0.57599998" x2="5.4000001" stroke="#ffffff"/>
            <line gorn="0.17.1.16"  id="line148" y1="27" y2="28.799999" style="stroke-linecap:round" x1="0" stroke-width="0.57599998" x2="1.8" stroke="#ffffff"/>
            <line gorn="0.17.1.17"  id="line150" y1="28.799999" y2="27" style="stroke-linecap:round" x1="5.4000001" stroke-width="0.57599998" x2="7.1999998" stroke="#ffffff"/>
            <line gorn="0.17.1.18"  id="line152" y1="23.4" y2="27" style="stroke-linecap:round" x1="7.1999998" stroke-width="0.57599998" x2="7.1999998" stroke="#ffffff"/>
            <line gorn="0.17.1.19"  id="line154" y1="48.599998" y2="45" style="stroke-linecap:round" x1="0" stroke-width="0.57599998" x2="0" stroke="#ffffff"/>
            <line gorn="0.17.1.20"  id="line156" y1="45" y2="43.200001" style="stroke-linecap:round" x1="0" stroke-width="0.57599998" x2="1.8" stroke="#ffffff"/>
            <line gorn="0.17.1.21"  id="line158" y1="43.200001" y2="45" style="stroke-linecap:round" x1="5.4000001" stroke-width="0.57599998" x2="7.1999998" stroke="#ffffff"/>
            <line gorn="0.17.1.22"  id="line160" y1="43.200001" y2="41.400002" style="stroke-linecap:round" x1="1.8" stroke-width="0.57599998" x2="0" stroke="#ffffff"/>
            <line gorn="0.17.1.23"  id="line162" y1="41.400002" y2="37.799999" style="stroke-linecap:round" x1="0" stroke-width="0.57599998" x2="0" stroke="#ffffff"/>
            <line gorn="0.17.1.24"  id="line164" y1="37.799999" y2="36" style="stroke-linecap:round" x1="0" stroke-width="0.57599998" x2="1.8" stroke="#ffffff"/>
            <line gorn="0.17.1.25"  id="line166" y1="36" y2="37.799999" style="stroke-linecap:round" x1="5.4000001" stroke-width="0.57599998" x2="7.1999998" stroke="#ffffff"/>
            <line gorn="0.17.1.26"  id="line168" y1="37.799999" y2="41.400002" style="stroke-linecap:round" x1="7.1999998" stroke-width="0.57599998" x2="7.1999998" stroke="#ffffff"/>
            <line gorn="0.17.1.27"  id="line170" y1="41.400002" y2="43.200001" style="stroke-linecap:round" x1="7.1999998" stroke-width="0.57599998" x2="5.4000001" stroke="#ffffff"/>
            <line gorn="0.17.1.28"  id="line172" y1="50.400002" y2="50.400002" style="stroke-linecap:round" x1="1.8" stroke-width="0.57599998" x2="5.4000001" stroke="#ffffff"/>
            <line gorn="0.17.1.29"  id="line174" y1="48.599998" y2="50.400002" style="stroke-linecap:round" x1="0" stroke-width="0.57599998" x2="1.8" stroke="#ffffff"/>
            <line gorn="0.17.1.30"  id="line176" y1="50.400002" y2="48.599998" style="stroke-linecap:round" x1="5.4000001" stroke-width="0.57599998" x2="7.1999998" stroke="#ffffff"/>
            <line gorn="0.17.1.31"  id="line178" y1="45" y2="48.599998" style="stroke-linecap:round" x1="7.1999998" stroke-width="0.57599998" x2="7.1999998" stroke="#ffffff"/>
            <line gorn="0.17.1.32"  id="line180" y1="14.4" y2="14.4" style="stroke-linecap:round" x1="1.8" stroke-width="0.57599998" x2="5.4000001" stroke="#ffffff"/>
        </g>
    </g>
    <g gorn="0.18"  id="g182">
        <title  id="title184">element:JP2</title>
        <g gorn="0.18.1"  id="g186">
            <title  id="title188">package:PAD-JUMPER-2-NC_BY_TRACE_YES_SILK</title>
        </g>
    </g>
    <g gorn="0.19"  id="g190">
        <title  id="title192">element:JP3</title>
        <g gorn="0.19.1"  id="g194">
            <title  id="title196">package:PAD-JUMPER-3-3OF3_NC_BY_TRACE_YES_SILK_FULL_BOX</title>
        </g>
    </g>
    <g gorn="0.20"  id="g198">
        <title  id="title200">element:LOGO1</title>
        <g gorn="0.20.1"  id="g202">
            <title  id="title204">package:SFE_LOGO_NAME_FLAME_.1</title>
            <g gorn="0.20.1.1"  id="g206">
                <title  id="title208">polygon</title>
                <path gorn="0.20.1.1.1" d="m 14.1761,11.5115 0,0.1701 m 0,0 0.0566,0.1417 m 0,0 0.0851,0.1134 m 0,0 0.1134,0.0851 m 0,0 0.1134,0.085 m 0,0 0.17,0.0283 m 0,0 0.1418,0.0284 m 0,0 0.1701,0.0283 m 0,0 0.1134,-0.0283 m 0,0 0.1133,0 m 0,0 0.1134,-0.0284 m 0,0 0.1134,-0.0567 m 0,0 0.1134,-0.085 m 0,0 0.085,-0.085 m 0,0 0.0284,-0.1134 m 0,0 0.0283,-0.1134 m 0,0 -0.0283,-0.1134 m 0,0 -0.0567,-0.1134 m 0,0 -0.1134,-0.0851 m 0,0 -0.1417,-0.085 m 0,0 -0.1701,-0.0567 m 0,0 -0.2268,-0.0567 m 0,0 -0.2268,-0.0567 m 0,0 -0.2835,-0.0566 m 0,0 -0.2551,-0.0568 m 0,0 -0.2267,-0.085 m 0,0 -0.1984,-0.085 m 0,0 -0.1984,-0.1134 m 0,0 -0.1701,-0.1134 m 0,0 -0.1134,-0.1701 m 0,0 -0.085,-0.1984 m 0,0 -0.0284,-0.25512 m 0,0 0.0284,-0.34012 m 0,0 0.1133,-0.28347 m 0,0 0.1984,-0.2268 m 0,0 0.1984,-0.17006 m 0,0 0.2835,-0.14177 m 0,0 0.2835,-0.05666 m 0,0 0.3118,-0.05667 m 0,0 0.652,0 m 0,0 0.3118,0.05667 m 0,0 0.2835,0.08503 m 0,0 0.2551,0.1134 m 0,0 0.2268,0.17006 m 0,0 0.17,0.2268 m 0,0 0.1417,0.28347 m 0,0 0.0568,0.34012 m 0,0 -1.0489,0 m 0,0 -0.0283,-0.14169 m 0,0 -0.0567,-0.14177 m 0,0 -0.0567,-0.08503 m 0,0 -0.0851,-0.05667 m 0,0 -0.1134,-0.05673 m 0,0 -0.1417,-0.05667 m 0,0 -0.4819,0 m 0,0 -0.085,0.0283 m 0,0 -0.1134,0.02837 m 0,0 -0.085,0.02837 m 0,0 -0.0567,0.08503 m 0,0 -0.0567,0.08503 m 0,0 0,0.1134 m 0,0 0.0283,0.1134 m 0,0 0.0851,0.11328 m 0,0 0.1134,0.0852 m 0,0 0.17,0.085 m 0,0 0.1701,0.0566 m 0,0 0.2268,0.0284 m 0,0 0.2267,0.0567 m 0,0 0.2268,0.0567 m 0,0 0.2268,0.0567 m 0,0 0.2551,0.0566 m 0,0 0.1985,0.1134 m 0,0 0.1984,0.1134 m 0,0 0.1701,0.1417 m 0,0 0.1134,0.1702 m 0,0 0.085,0.1984 m 0,0 0.0284,0.2551 m 0,0 -0.0568,0.3685 m 0,0 -0.1134,0.3118 m 0,0 -0.17,0.2268 m 0,0 -0.2268,0.1984 m 0,0 -0.2834,0.1418 m 0,0 -0.3119,0.085 m 0,0 -0.3402,0.0567 m 0,0 -0.3401,0.0283 m 0,0 -0.3401,-0.0283 m 0,0 -0.3402,-0.0567 m 0,0 -0.3118,-0.085 m 0,0 -0.2834,-0.1418 m 0,0 -0.2268,-0.1984 m 0,0 -0.1985,-0.2551 m 0,0 -0.1134,-0.2835 m 0,0 -0.0566,-0.3685 m 0,0 0.907,0 m 0,0 0.1418,0 m 0.407,1.3765 0.83,0 m -1.5806,-0.216 2.3312,0 m -2.6252,-0.216 2.9192,0 m -3.1008,-0.216 3.2775,0 m -3.3929,-0.216 1.1927,0 m 1.1184,0 1.179,0 m -3.5588,-0.216 1.0538,0 m 1.4769,0 1.0915,0 m -3.6554,-0.216 1.0365,0 m 1.5366,0 1.1156,0 m -1.2833,-0.216 1.2805,0 m -1.8728,-0.216 1.8183,0 m -2.691,-0.216 2.5713,0 m -3.0243,-0.216 2.785,0 m -3.0345,-0.216 2.6362,0 m -2.7473,-0.216 1.8587,0 m -1.9018,-0.216 1.2645,0 m -1.2658,-0.216 1.1091,0 m 1.324,0 1.0526,0 M 13.24,9.648 l 1.1107,0 m 1.2098,0 1.1112,0 m -3.3476,-0.216 3.2422,0 m -3.0888,-0.216 2.9454,0 M 13.7046,9 16.1849,9 m -1.9776,-0.216 1.4598,0"  fill="none" id="path210" style="stroke-linecap:round" stroke-width="0.21600001" stroke="#ffffff"/>
            </g>
            <g gorn="0.20.1.2"  id="g212">
                <title  id="title214">polygon</title>
                <path gorn="0.20.1.2.1" d="m 20.1288,11.5115 0.0851,-0.2268 m 0,0 0.0283,-0.2267 m 0,0 0,-0.2268 m 0,0 1.1055,0.0283 m 0,0 -0.0284,0.3969 m 0,0 -0.085,0.3685 m 0,0 -0.1417,0.3401 m 0,0 -0.9638,-0.4535 m 0.6301,0.2965 0.3992,0 m -0.8582,-0.216 0.942,0 m -1.0622,-0.216 1.1121,0 m -1.0623,-0.216 1.0968,0 m -1.0841,-0.216 1.0995,0"  fill="none" id="path216" style="stroke-linecap:round" stroke-width="0.21600001" stroke="#ffffff"/>
            </g>
            <g gorn="0.20.1.3"  id="g218">
                <title  id="title220">polygon</title>
                <path gorn="0.20.1.3.1" d="m 21.0926,11.965 -0.17,0.3119 m 0,0 -0.2552,0.2551 m 0,0 -0.3118,0.2268 m 0,0 -0.3402,0.1134 m 0,0 -0.4251,0.0566 m 0,0 -0.1702,-0.0283 m 0,0 -0.17,-0.0283 m 0,0 -0.1701,-0.0284 m 0,0 -0.1701,-0.085 m 0,0 -0.1417,-0.0851 m 0,0 -0.1417,-0.085 m 0,0 -0.1134,-0.1418 m 0,0 -0.1134,-0.1417 m 0,0 -0.0284,0 m 0,0 0,2.8913 m 0,0 -0.1133,-0.1134 m 0,0 -0.1418,-0.1417 m 0,0 -0.1417,-0.1134 m 0,0 -0.1418,-0.1134 m 0,0 -0.1417,-0.1134 m 0,0 -0.1417,-0.1417 m 0,0 -0.1134,-0.1134 m 0,0 -0.1417,-0.1134 m 0,0 0,-5.244 m 0,0 0.1134,-0.02837 m 0,0 0.1417,-0.02837 m 0,0 0.1417,0 m 0,0 0.1134,-0.02837 m 0,0 0.1417,-0.02829 m 0,0 0.1134,-0.02837 m 0,0 0.1417,-0.02837 m 0,0 0.1418,-0.0283 m 0,0 0,0.5102 m 0,0 0.1134,-0.1417 m 0,0 0.1133,-0.1134 m 0,0 0.1418,-0.1134 m 0,0 0.1417,-0.08503 m 0,0 0.1418,-0.08503 m 0,0 0.17,-0.02837 m 0,0 0.1701,-0.0283 m 0,0 0.1984,0 m 0,0 0.4253,0.0283 m 0,0 0.3968,0.14177 m 0,0 0.3118,0.19843 m 0,0 0.2552,0.28346 m 0,0 0.1983,0.31176 m 0,0 0.1134,0.36845 m 0,0 0.085,0.3969 m 0,0 0.0284,0.4252 m 0,0 -1.1055,-0.0283 m 0,0 0,-0.2551 m 0,0 -0.0283,-0.2268 m 0,0 -0.0851,-0.2267 m 0,0 -0.085,-0.19848 m 0,0 -0.1418,-0.17014 m 0,0 -0.17,-0.11332 m 0,0 -0.1985,-0.08504 m 0,0 -0.2551,-0.02836 m 0,0 -0.2268,0.02836 m 0,0 -0.2267,0.08504 m 0,0 -0.1418,0.11332 m 0,0 -0.1417,0.17014 m 0,0 -0.085,0.19848 m 0,0 -0.0851,0.2267 m 0,0 -0.0283,0.2268 m 0,0 0,0.4819 m 0,0 0.0567,0.2267 m 0,0 0.0567,0.2268 m 0,0 0.085,0.1984 m 0,0 0.1417,0.1417 m 0,0 0.1701,0.1418 m 0,0 0.1984,0.0567 m 0,0 0.2552,0.0283 m 0,0 0.2267,-0.0283 m 0,0 0.2268,-0.0567 m 0,0 0.1701,-0.1418 m 0,0 0.1134,-0.1417 m 0,0 0.085,-0.1984 m 0,0 0.9638,0.4535 m -2.8698,3.083 0.1485,0 m -0.3918,-0.216 0.3918,0 m -0.6618,-0.216 0.6618,0 m -0.8816,-0.216 0.8816,0 m -1.0771,-0.216 1.0771,0 m -1.0771,-0.216 1.0771,0 m -1.0771,-0.216 1.0771,0 m -1.0771,-0.216 1.0771,0 m -1.0771,-0.216 1.0771,0 m -1.0771,-0.216 1.0771,0 m -1.0771,-0.216 1.0771,0 m 0.974,0 0.5511,0 m -2.6022,-0.216 1.0771,0 m 0.3941,0 1.7095,0 m -3.1807,-0.216 1.0771,0 m 0.149,0 2.223,0 m -3.4491,-0.216 3.6484,0 m -3.6484,-0.216 1.6662,0 m 0.6775,0 1.4225,0 m -3.7662,-0.216 1.3453,0 m 1.3258,0 0.7936,0 m -3.4647,-0.216 1.1967,0 m 1.6034,0 0.2056,0 m -3.0057,-0.216 1.1283,0 m -1.1283,-0.216 1.0743,0 m -1.0743,-0.216 1.0488,0 m -1.0488,-0.216 1.0488,0 m 1.8992,0 1.0967,0 m -4.0447,-0.216 1.0568,0 m 1.8832,0 1.0903,0 m -4.0303,-0.216 1.0971,0 m 1.8025,0 1.096,0 m -3.9956,-0.216 1.1804,0 m 1.636,0 1.1329,0 m -3.9493,-0.216 1.2973,0 m 1.4022,0 1.1873,0 m -3.8868,-0.216 1.5215,0 m 0.9273,0 1.3646,0 m -3.8134,-0.216 3.6759,0 m -3.6759,-0.216 1.0488,0 m 0.0675,0 2.385,0 M 17.2942,9 18.343,9 m 0.2835,0 1.9251,0 m -1.5935,-0.216 1.1419,0"  fill="none" id="path222" style="stroke-linecap:round" stroke-width="0.21600001" stroke="#ffffff"/>
            </g>
            <g gorn="0.20.1.4"  id="g224">
                <title  id="title226">polygon</title>
                <path gorn="0.20.1.4.1" d="m 23.0201,10.5193 0.2552,-0.0283 m 0,0 0.2551,-0.0283 m 0,0 0.1984,-0.0284 m 0,0 0.1417,0.5669 m 0,0 -0.0566,0.0284 m 0,0 -0.0567,0 m 0,0 -0.085,0.0284 m 0,0 -0.1134,0 m 0,0 -0.0851,0.0283 m 0,0 -0.1134,0 m 0,0 -0.0567,0.0283 m 0,0 -0.0567,0 m 0,0 -0.2268,-0.5953 m 0.1618,0.4247 0.6744,0 m -0.7567,-0.216 0.7027,0 m -0.7158,-0.216 0.6618,0"  fill="none" id="path228" style="stroke-linecap:round" stroke-width="0.21600001" stroke="#ffffff"/>
            </g>
            <g gorn="0.20.1.5"  id="g230">
                <title  id="title232">polygon</title>
                <path gorn="0.20.1.5.1" d="m 23.2469,11.1146 -0.085,0.0284 m 0,0 -0.0567,0.0283 m 0,0 -0.0283,0.0284 m 0,0 -0.0568,0.0283 m 0,0 -0.0566,0.0284 m 0,0 -0.0284,0.0283 m 0,0 -0.0567,0.0284 m 0,0 -0.0283,0.0566 m 0,0 -0.0283,0.0568 m 0,0 -0.0284,0.0566 m 0,0 0,0.0568 m 0,0 -0.0284,0.0566 m 0,0 0,0.1417 m 0,0 0.0284,0.0851 m 0,0 0,0.0567 m 0,0 0.0284,0.0567 m 0,0 0.0283,0.0283 m 0,0 0.0283,0.0568 m 0,0 0.0567,0.0283 m 0,0 0.0284,0.0283 m 0,0 0.0566,0.0284 m 0,0 0.0568,0.0283 m 0,0 0.0566,0 m 0,0 0.0568,0.0284 m 0,0 0.0566,0 m 0,0 0.0567,0.0283 m 0,0 0.1418,0 m 0,0 0.1417,-0.0283 m 0,0 0.1417,0 m 0,0 0.1134,-0.0567 m 0,0 0.1134,-0.0284 m 0,0 0.0851,-0.0566 m 0,0 0.0566,-0.0568 m 0,0 0.0567,-0.085 m 0,0 0.0567,-0.0567 m 0,0 0.0284,-0.0851 m 0,0 0.0283,-0.085 m 0,0 0.0284,-0.0567 m 0,0 0.0283,-0.085 m 0,0 0,-0.652 m 0,0 -0.0283,0.0283 m 0,0 -0.0284,0.0284 m 0,0 -0.0567,0 m 0,0 -0.0567,0.0284 m 0,0 -0.0567,0.0283 m 0,0 -0.0566,0 m 0,0 -0.0568,0.0283 m 0,0 -0.1134,0 m 0,0 -0.1417,-0.5669 m 0,0 0.1985,-0.0567 m 0,0 0.17,-0.0567 m 0,0 0.1418,-0.085 m 0,0 0.085,-0.1133 m 0,0 0,-0.31188 m 0,0 -0.0283,-0.05674 m 0,0 -0.0284,-0.05666 m 0,0 -0.0283,-0.05666 m 0,0 -0.0284,-0.02837 m 0,0 -0.0283,-0.05667 m 0,0 -0.0567,-0.02836 m 0,0 -0.0567,-0.02837 m 0,0 -0.0567,-0.02837 m 0,0 -0.0567,0 m 0,0 -0.0567,-0.0283 m 0,0 -0.5102,0 m 0,0 -0.0567,0.0283 m 0,0 -0.0567,0.02837 m 0,0 -0.0567,0.02837 m 0,0 -0.0567,0.02836 m 0,0 -0.0567,0.0283 m 0,0 -0.0283,0.02837 m 0,0 -0.0568,0.05666 m 0,0 -0.0283,0.02837 m 0,0 -0.0283,0.05666 m 0,0 -0.0284,0.08511 m 0,0 -0.0283,0.05666 m 0,0 0,0.14165 m 0,0 -1.1056,0 m 0,0 0.0284,-0.17002 m 0,0 0.0284,-0.17006 m 0,0 0.0566,-0.17006 m 0,0 0.0851,-0.1134 m 0,0 0.085,-0.1417 m 0,0 0.085,-0.1134 m 0,0 0.1134,-0.08503 m 0,0 0.1418,-0.08503 m 0,0 0.1417,-0.08511 m 0,0 0.1418,-0.05666 m 0,0 0.1417,-0.02837 m 0,0 0.17,-0.05666 m 0,0 0.1702,-0.02837 m 0,0 0.1417,-0.0283 m 0,0 0.6519,0 m 0,0 0.1418,0.0283 m 0,0 0.1701,0 m 0,0 0.1416,0.02837 m 0,0 0.1418,0.05666 m 0,0 0.1417,0.02837 m 0,0 0.1418,0.05666 m 0,0 0.1134,0.08511 m 0,0 0.1134,0.08503 m 0,0 0.1133,0.08503 m 0,0 0.085,0.1134 m 0,0 0.0568,0.11333 m 0,0 0.0566,0.14177 m 0,0 0.0284,0.14169 m 0,0 0,2.46615 m 0,0 0.0284,0.0567 m 0,0 0,0.2551 m 0,0 0.0283,0.0567 m 0,0 0,0.0567 m 0,0 0.0283,0.0567 m 0,0 0,0.085 m 0,0 0.0284,0.0568 m 0,0 0.0283,0.0283 m 0,0 0,0.0283 m 0,0 -1.1055,0 m 0,0 0,-0.0283 m 0,0 -0.0284,-0.0283 m 0,0 0,-0.0284 m 0,0 -0.0282,-0.0284 m 0,0 0,-0.085 m 0,0 -0.0284,-0.0283 m 0,0 0,-0.1701 m 0,0 -0.0567,0.085 m 0,0 -0.085,0.0567 m 0,0 -0.0567,0.0567 m 0,0 -0.0851,0.0567 m 0,0 -0.085,0.0283 m 0,0 -0.085,0.0568 m 0,0 -0.0851,0.0283 m 0,0 -0.085,0.0283 m 0,0 -0.085,0.0284 m 0,0 -0.0851,0.0284 m 0,0 -0.0851,0 m 0,0 -0.085,0.0283 m 0,0 -0.1134,0 m 0,0 -0.085,0.0283 m 0,0 -0.3118,0 m 0,0 -0.1418,-0.0283 m 0,0 -0.1417,0 m 0,0 -0.1134,-0.0283 m 0,0 -0.1417,-0.0568 m 0,0 -0.1134,-0.0566 m 0,0 -0.0851,-0.0568 m 0,0 -0.1133,-0.0566 m 0,0 -0.0851,-0.0851 m 0,0 -0.0567,-0.085 m 0,0 -0.085,-0.1134 m 0,0 -0.0567,-0.085 m 0,0 -0.0283,-0.1418 m 0,0 -0.0568,-0.1133 m 0,0 0,-0.1418 m 0,0 -0.0283,-0.1418 m 0,0 0.0567,-0.3117 m 0,0 0.085,-0.2552 m 0,0 0.1134,-0.1984 m 0,0 0.1985,-0.1701 m 0,0 0.1984,-0.1133 m 0,0 0.2267,-0.0851 m 0,0 0.2268,-0.0567 m 0,0 0.2551,-0.0284 m 0,0 0.2268,0.5953 m -0.6735,1.7734 0.881,0 m -1.3447,-0.216 1.9901,0 m 0.3094,0 1.1054,0 m -3.6144,-0.216 2.4557,0 m 0.0249,0 1.0817,0 m -3.697,-0.216 3.6925,0 m -3.769,-0.216 1.194,0 m 1.1542,0 1.3924,0 m -3.7561,-0.216 1.1148,0 m 1.4275,0 1.2138,0 m -3.7435,-0.216 1.0812,0 m 1.53,0 1.1323,0 m -3.6965,-0.216 1.1139,0 m 1.4771,0 1.1055,0 m -3.6219,-0.216 1.3201,0 m 1.1963,0 1.1055,0 m -3.4812,-0.216 1.2335,0 m 0.6744,0 0.2988,0 m 0.169,0 1.1055,0 m -3.1856,-0.216 0.8556,0 m 0.7027,0 1.6273,0 m -1.6813,-0.216 1.6813,0 m -1.2907,-0.216 1.2907,0 m -1.1055,-0.216 1.1055,0 m -3.5994,-0.216 1.0924,0 m 1.4015,0 1.1055,0 m -3.5552,-0.216 1.1668,0 m 1.2016,0 1.1826,0 m -3.4393,-0.216 3.3771,0 m -3.2364,-0.216 3.119,0 M 22.406,9 24.9912,9 m -2.0374,-0.216 1.5389,0"  fill="none" id="path234" style="stroke-linecap:round" stroke-width="0.21600001" stroke="#ffffff"/>
            </g>
            <g gorn="0.20.1.6"  id="g236">
                <title  id="title238">polygon</title>
                <path gorn="0.20.1.6.1" d="M 26.0532,8.9887 26.195,8.96033 m 0,0 0.1134,-0.02837 m 0,0 0.1417,0 m 0,0 0.1417,-0.02837 m 0,0 0.1134,-0.02829 m 0,0 0.1417,-0.02837 m 0,0 0.1418,-0.02837 m 0,0 0.1133,-0.0283 m 0,0 0,0.76536 m 0,0 0.1134,-0.19843 m 0,0 0.1134,-0.14177 m 0,0 0.1417,-0.17006 m 0,0 0.1418,-0.1134 m 0,0 0.1984,-0.1134 m 0,0 0.1701,-0.05666 m 0,0 0.1984,-0.05667 m 0,0 0.3969,0 m 0,0 0.0283,0.0283 m 0,0 0.0283,0 m 0,0 0,1.02045 m 0,0 -0.0283,0 m 0,0 -0.0567,-0.02829 m 0,0 -0.3118,0 m 0,0 -0.2835,0.02829 m 0,0 -0.2267,0.05674 m 0,0 -0.1984,0.1134 m 0,0 -0.1418,0.17008 m 0,0 -0.1133,0.1984 m 0,0 -0.0568,0.1984 m 0,0 -0.0566,0.2551 m 0,0 0,2.0693 m 0,0 -1.1056,0 m 0,0 0,-3.34488 m 0,0 0,-0.48182 m 0,3.6833 1.1056,0 m -1.1056,-0.216 1.1056,0 m -1.1056,-0.216 1.1056,0 m -1.1056,-0.216 1.1056,0 m -1.1056,-0.216 1.1056,0 m -1.1056,-0.216 1.1056,0 m -1.1056,-0.216 1.1056,0 m -1.1056,-0.216 1.1056,0 m -1.1056,-0.216 1.1056,0 m -1.1056,-0.216 1.1096,0 m -1.1096,-0.216 1.1575,0 m -1.1575,-0.216 1.218,0 m -1.218,-0.216 1.3441,0 m -1.3441,-0.216 1.5792,0 m -1.5792,-0.216 2.5795,0 m -2.5795,-0.216 1.0488,0 m 0.0707,0 1.46,0 m -2.5795,-0.216 1.0488,0 m 0.2264,0 1.3043,0 M 26.0532,9 27.102,9 m 0.4253,0 1.1054,0 m -0.7182,-0.216 0.7182,0"  fill="none" id="path240" style="stroke-linecap:round" stroke-width="0.21600001" stroke="#ffffff"/>
            </g>
            <g gorn="0.20.1.7"  id="g242">
                <title  id="title244">polygon</title>
                <path gorn="0.20.1.7.1" d="m 29.058,7.88314 1.1055,-0.5953 m 0,0 0,2.94806 m 0,0 1.3889,-1.44564 m 0,0 1.304,0 m 0,0 -1.5024,1.47394 m 0,0 1.6725,2.5512 m 0,0 -1.3323,0 m 0,0 -1.1055,-1.7858 m 0,0 -0.4252,0.3969 m 0,0 0,1.3889 m 0,0 -1.1055,0 m 0,0 0,-4.93226 m 0,4.78886 1.1055,0 m 1.4419,0 1.327,0 m -3.8744,-0.216 1.1055,0 m 1.3082,0 1.3191,0 m -3.7328,-0.216 1.1055,0 m 1.1744,0 1.3113,0 m -3.5912,-0.216 1.1055,0 m 1.0407,0 1.3034,0 m -3.4496,-0.216 1.1055,0 m 0.907,0 1.2955,0 m -3.308,-0.216 1.1055,0 m 0.7733,0 1.2876,0 m -3.1664,-0.216 1.1595,0 m 0.5856,0 1.2797,0 m -3.0248,-0.216 1.3909,0 m 0.2205,0 1.2718,0 m -2.8832,-0.216 2.7416,0 m -2.7416,-0.216 2.6,0 m -2.6,-0.216 2.4584,0 m -2.4584,-0.216 2.3168,0 m -2.3168,-0.216 1.1055,0 m 0.1497,0 1.2286,0 m -2.4838,-0.216 1.1055,0 m 0.3573,0 1.2411,0 m -2.7039,-0.216 1.1055,0 m 0.5648,0 1.2538,0 m -2.9241,-0.216 1.1055,0 m 0.7723,0 1.2665,0 m -3.1443,-0.216 1.1055,0 m 0.9799,0 1.2791,0 M 29.058,9 30.1635,9 m 1.1874,0 1.2917,0 m -3.5846,-0.216 1.1055,0 m -1.1055,-0.216 1.1055,0 m -1.1055,-0.216 1.1055,0 m -1.1055,-0.216 1.1055,0 M 29.058,7.92 l 1.1055,0 m -0.7729,-0.216 0.7729,0 m -0.3717,-0.216 0.3717,0"  fill="none" id="path246" style="stroke-linecap:round" stroke-width="0.21600001" stroke="#ffffff"/>
            </g>
            <g gorn="0.20.1.8"  id="g248">
                <title  id="title250">polygon</title>
                <path gorn="0.20.1.8.1" d="m 33.7068,9.52726 -1.1056,0 m 0,0 0.1134,-0.08504 m 0,0 0.0851,-0.08503 m 0,0 0.085,-0.08503 m 0,0 0.1134,-0.1134 m 0,0 0.085,-0.08503 m 0,0 0.0851,-0.08503 m 0,0 0.1134,-0.08511 m 0,0 0.085,-0.11333 m 0,0 0.3402,0 m 0,0 0,-0.56692 m 0,0 0.085,-0.2268 m 0,0 0.0851,-0.19844 m 0,0 0.1417,-0.17006 m 0,0 0.1984,-0.14177 m 0,0 0.2268,-0.11333 m 0,0 0.2835,-0.0851 m 0,0 0.822,0 m 0,0 0.0567,0.02837 m 0,0 0,0.79373 m 0,0 -0.4819,0 m 0,0 -0.1134,0.02829 m 0,0 -0.0567,0.02837 m 0,0 -0.0567,0.02837 m 0,0 L 34.8407,8.28 m 0,0 -0.0284,0.05666 m 0,0 0,0.1134 m 0,0 -0.0284,0.1134 m 0,0 0,0.2268 m 0,0 0.7654,0 m 0,0 0,0.737 m 0,0 -0.7654,0 m 0,0 0,3.28814 m 0,0 -1.0771,0 m 0,0 0,-2.86298 m 0,0 0,-0.42516 m 0,3.14474 1.0771,0 m -1.0771,-0.216 1.0771,0 m -1.0771,-0.216 1.0771,0 m -1.0771,-0.216 1.0771,0 m -1.0771,-0.216 1.0771,0 m -1.0771,-0.216 1.0771,0 m -1.0771,-0.216 1.0771,0 m -1.0771,-0.216 1.0771,0 m -1.0771,-0.216 1.0771,0 m -1.0771,-0.216 1.0771,0 m -1.0771,-0.216 1.0771,0 m -1.0771,-0.216 1.0771,0 m -1.0771,-0.216 1.0771,0 m -1.0771,-0.216 1.0771,0 m -1.0771,-0.216 1.0771,0 m -2.059,-0.216 2.8244,0 m -2.6084,-0.216 2.6084,0 M 33.1569,9 35.5493,9 m -1.8425,-0.216 1.0771,0 m -1.0771,-0.216 1.0771,0 m -1.0771,-0.216 1.1055,0 m -1.0728,-0.216 1.2803,0 m -1.1952,-0.216 1.7814,0 m -1.6507,-0.216 1.6507,0 m -1.3914,-0.216 1.3914,0"  fill="none" id="path252" style="stroke-linecap:round" stroke-width="0.21600001" stroke="#ffffff"/>
            </g>
            <g gorn="0.20.1.9"  id="g254">
                <title  id="title256">polygon</title>
                <path gorn="0.20.1.9.1" d="m 39.6312,12.8154 -1.0488,0 m 0,0 0,-0.5669 m 0,0 -0.0284,0 m 0,0 -0.1133,0.1701 m 0,0 -0.1134,0.1417 m 0,0 -0.1418,0.1134 m 0,0 -0.1701,0.0851 m 0,0 -0.1417,0.0566 m 0,0 -0.1701,0.0568 m 0,0 -0.1984,0.0283 m 0,0 -0.1701,0.0283 m 0,0 -0.3969,-0.0283 m 0,0 -0.3117,-0.1134 m 0,0 -0.2552,-0.1417 m 0,0 -0.1984,-0.1701 m 0,0 -0.1417,-0.2552 m 0,0 -0.0851,-0.2834 m 0,0 -0.0566,-0.3118 m 0,0 0,-2.83464 m 0,0 1.0771,0 m 0,0 0,2.26774 m 0,0 0.0284,0.2267 m 0,0 0.0283,0.2268 m 0,0 0.0283,0.1701 m 0,0 0.0851,0.1134 m 0,0 0.0851,0.1134 m 0,0 0.1417,0.085 m 0,0 0.1417,0.0284 m 0,0 0.1701,0.0283 m 0,0 0.2267,-0.0283 m 0,0 0.1702,-0.0284 m 0,0 0.1417,-0.085 m 0,0 0.1134,-0.1134 m 0,0 0.085,-0.1701 m 0,0 0.085,-0.1984 m 0,0 0.0284,-0.2268 m 0,0 0,-2.40944 m 0,0 1.1055,0 m 0,0 0,3.51494 m 0,0 0,0.5102 m -2.7272,0.0726 0.6885,0 m -1.1732,-0.216 1.7683,0 m 0.3948,0 1.0488,0 m -3.469,-0.216 2.2485,0 m 0.1717,0 1.0488,0 m -3.589,-0.216 3.589,0 m -3.6588,-0.216 1.5464,0 m 0.3651,0 1.7473,0 m -3.7085,-0.216 1.2238,0 m 1.1677,0 1.317,0 m -3.7417,-0.216 1.1472,0 m 1.3897,0 1.2048,0 m -3.7417,-0.216 1.1168,0 m 1.4974,0 1.1275,0 m -3.7417,-0.216 1.0898,0 m 1.5464,0 1.1055,0 m -3.7417,-0.216 1.0771,0 m 1.5591,0 1.1055,0 m -3.7417,-0.216 1.0771,0 m 1.5591,0 1.1055,0 m -3.7417,-0.216 1.0771,0 m 1.5591,0 1.1055,0 m -3.7417,-0.216 1.0771,0 m 1.5591,0 1.1055,0 m -3.7417,-0.216 1.0771,0 m 1.5591,0 1.1055,0 m -3.7417,-0.216 1.0771,0 m 1.5591,0 1.1055,0 m -3.7417,-0.216 1.0771,0 m 1.5591,0 1.1055,0 m -3.7417,-0.216 1.0771,0 m 1.5591,0 1.1055,0 m -3.7417,-0.216 1.0771,0 m 1.5591,0 1.1055,0 M 35.8895,9 36.9666,9 m 1.5591,0 1.1055,0"  fill="none" id="path258" style="stroke-linecap:round" stroke-width="0.21600001" stroke="#ffffff"/>
            </g>
            <g gorn="0.20.1.10"  id="g260">
                <title  id="title262">polygon</title>
                <path gorn="0.20.1.10.1" d="m 40.2265,8.79026 1.0488,0 m 0,0 0,0.56693 m 0,0 0.0283,0 m 0,0 0.1134,-0.17013 m 0,0 0.1134,-0.11333 m 0,0 0.1418,-0.1134 m 0,0 0.17,-0.1134 m 0,0 0.1701,-0.05667 m 0,0 0.1701,-0.05673 m 0,0 0.17,-0.0283 m 0,0 0.1702,0 m 0,0 0.3967,0.0283 m 0,0 0.3119,0.08503 m 0,0 0.2551,0.14177 m 0,0 0.1984,0.19843 m 0,0 0.1418,0.22673 m 0,0 0.085,0.28346 m 0,0 0.0567,0.31183 m 0,0 0.0283,0.36852 m 0,0 0,2.4661 m 0,0 -1.1055,0 m 0,0 0,-2.2677 m 0,0 -0.0283,-0.2268 m 0,0 -0.0284,-0.1983 m 0,0 -0.0283,-0.17018 m 0,0 -0.0851,-0.1417 m 0,0 -0.085,-0.1134 m 0,0 -0.1417,-0.08503 m 0,0 -0.1418,-0.02837 m 0,0 -0.17,-0.0283 m 0,0 -0.2268,0.0283 m 0,0 -0.1701,0.02837 m 0,0 -0.1417,0.08503 m 0,0 -0.1134,0.14177 m 0,0 -0.085,0.14169 m 0,0 -0.0851,0.19842 m 0,0 -0.0283,0.2551 m 0,0 0,2.3811 m 0,0 -1.1055,0 m 0,0 0,-3.51494 m 0,0 0,-0.5102 m 0,3.88174 1.1055,0 m 1.559,0 1.1055,0 m -3.77,-0.216 1.1055,0 m 1.559,0 1.1055,0 m -3.77,-0.216 1.1055,0 m 1.559,0 1.1055,0 m -3.77,-0.216 1.1055,0 m 1.559,0 1.1055,0 m -3.77,-0.216 1.1055,0 m 1.559,0 1.1055,0 m -3.77,-0.216 1.1055,0 m 1.559,0 1.1055,0 m -3.77,-0.216 1.1055,0 m 1.559,0 1.1055,0 m -3.77,-0.216 1.1055,0 m 1.559,0 1.1055,0 m -3.77,-0.216 1.1055,0 m 1.559,0 1.1055,0 m -3.77,-0.216 1.1055,0 m 1.559,0 1.1055,0 m -3.77,-0.216 1.1055,0 m 1.5546,0 1.1099,0 m -3.77,-0.216 1.1209,0 m 1.5118,0 1.1332,0 m -3.7659,-0.216 1.1763,0 m 1.4245,0 1.1485,0 m -3.7493,-0.216 1.2889,0 m 1.2376,0 1.1939,0 m -3.7204,-0.216 1.4995,0 m 0.8277,0 1.3515,0 m -3.6787,-0.216 3.6139,0 m -3.6139,-0.216 1.0488,0 m 0.1225,0 2.3227,0 M 40.2265,9 41.2753,9 m 0.3473,0 1.9034,0 m -1.495,-0.216 1.0734,0"  fill="none" id="path264" style="stroke-linecap:round" stroke-width="0.21600001" stroke="#ffffff"/>
            </g>
            <g gorn="0.20.1.11"  id="g266">
                <title  id="title268">polygon</title>
                <path gorn="0.20.1.11.1" d="m 35.2658,1.93039 0,0.22677 m 0,0 -0.0284,0.08504 m 0,0 -0.0282,0.08504 m 0,0 -0.0851,0.05669 m 0,0 -0.085,0.02835 m 0,0 -0.1984,0 m 0,0 -0.1134,-0.05669 m 0,0 -0.1134,-0.05669 m 0,0 -0.0851,-0.0567 m 0,0 -0.1134,-0.08504 m 0,0 -0.085,-0.05669 m 0,0 -0.085,-0.08504 m 0,0 -0.0567,-0.11338 m 0,0 -0.0567,-0.08504 m 0,0 -0.0284,-0.11339 m 0,0 -0.0283,-0.08504 m 0,0 0.0283,-0.08504 m 0,0 0.0284,-0.05669 m 0,0 0.0283,-0.08504 m 0,0 0.0567,-0.08504 m 0,0 0.1134,-0.08504 m 0,0 0.1134,-0.05669 m 0,0 0.1417,-0.02835 m 0,0 0.1134,-0.02834 m 0,0 0.085,0 m 0,0 0.0851,0.02834 m 0,0 0.085,0 m 0,0 -0.0283,-0.02834 m 0,0 -0.1134,-0.08504 m 0,0 -0.1701,-0.085042 m 0,0 -0.2268,-0.085039 m 0,0 -0.2551,-0.085039 m 0,0 -0.2834,0 m 0,0 -0.3119,0.056692 m 0,0 -0.3118,0.170079 m 0,0 -0.2551,0.226769 m 0,0 -0.1417,0.19843 m 0,0 -0.0851,0.25511 m 0,0 0,0.22678 m 0,0 0.0567,0.25511 m 0,0 0.1417,0.25512 m 0,0 0.1985,0.22677 m 0,0 0.2268,0.25513 m 0,0 0.1984,0.22677 m 0,0 0.085,0.19842 m 0,0 0,0.19843 m 0,0 -0.0566,0.17008 m 0,0 -0.1134,0.14173 m 0,0 -0.1702,0.11338 m 0,0 -0.2267,0.0567 m 0,0 -0.2268,0 m 0,0 -0.1417,-0.02835 m 0,0 -0.1418,-0.05669 m 0,0 -0.085,-0.0567 m 0,0 -0.085,-0.08503 m 0,0 -0.0567,-0.11339 m 0,0 -0.0284,-0.08504 m 0,0 0,-0.08504 m 0,0 0.0284,-0.08504 m 0,0 0.0567,-0.08504 m 0,0 0.0566,-0.05669 m 0,0 0.0568,-0.05669 m 0,0 0.085,-0.02835 m 0,0 0.0567,-0.02835 m 0,0 0.0567,-0.02834 m 0,0 0.0283,-0.02835 m 0,0 -0.0567,-0.02834 m 0,0 -0.0566,0 m 0,0 -0.1134,-0.02835 m 0,0 -0.2268,0 m 0,0 -0.1701,0.02835 m 0,0 -0.1417,0.05669 m 0,0 -0.1418,0.05669 m 0,0 -0.1134,0.08504 m 0,0 -0.1416,0.08504 m 0,0 -0.0851,0.14173 m 0,0 -0.085,0.17008 m 0,0 -0.0567,0.17008 m 0,0 -0.0284,0.25512 m 0,0 -0.0283,0.25511 m 0,0 0,3.62833 m 0,0 0.0283,0 m 0,0 0.0567,-0.08503 m 0,0 0.0851,-0.08504 m 0,0 0.085,-0.1134 m 0,0 0.1418,-0.14169 m 0,0 0.1416,-0.17007 m 0,0 0.1701,-0.17013 m 0,0 0.1418,-0.1984 m 0,0 0.1984,-0.19842 m 0,0 0.1701,-0.17008 m 0,0 0.1417,-0.17009 m 0,0 0.1417,-0.11338 m 0,0 0.1417,-0.11339 m 0,0 0.1418,-0.08504 m 0,0 0.1701,-0.02834 m 0,0 0.5385,0 m 0,0 0.3402,-0.0567 m 0,0 0.3119,-0.08504 m 0,0 0.2834,-0.11338 m 0,0 0.2835,-0.17008 m 0,0 0.2267,-0.19842 m 0,0 0.2268,-0.22678 m 0,0 0.1984,-0.25511 m 0,0 0.2835,-0.51024 m 0,0 0.1417,-0.51023 m 0,0 0.0284,-0.51024 m 0,0 -0.0851,-0.45354 m 0,0 -0.1417,-0.39686 m 0,0 -0.1985,-0.34015 m 0,0 -0.2267,-0.25512 m 0,0 -0.2268,-0.11339 M 31.3257,7.92 l 0.0605,0 m -0.0605,-0.216 0.2406,0 m -0.2406,-0.216 0.4426,0 m -0.4426,-0.216 0.6395,0 m -0.6395,-0.216 0.8135,0 m -0.8135,-0.216 1.0148,0 m -1.0148,-0.216 1.2288,0 m -1.2288,-0.216 1.4329,0 m -1.4329,-0.216 1.7225,0 m -1.7225,-0.216 3.1663,0 m -3.1663,-0.216 3.6142,0 m -3.6142,-0.216 3.8922,0 m -3.8922,-0.216 4.1141,0 m -4.1141,-0.216 4.2939,0 m -4.2939,-0.216 4.4343,0 m -4.4343,-0.216 4.5543,0 m -4.5543,-0.216 4.6616,0 m -4.6515,-0.216 4.7114,0 m -4.6873,-0.216 4.7473,0 m -4.7203,-0.216 1.0873,0 m 1.045,0 2.6072,0 M 31.4688,3.6 l 0.8858,0 m 1.2964,0 2.4874,0 m -4.5511,-0.216 0.8008,0 m 1.2903,0 2.4464,0 m -4.2364,-0.216 0.7605,0 m 0.9647,0 2.4707,0 m -2.6387,-0.216 2.584,0 m -2.7752,-0.216 2.698,0 M 33.064,2.52 l 2.7844,0 m -2.9388,-0.216 1.7145,0 m 0.5928,0 0.5055,0 m -2.9098,-0.216 1.5053,0 m 0.9479,0 0.2661,0 m -2.7606,-0.216 1.3973,0 m -1.3908,-0.216 1.31,0 m -1.238,-0.216 1.2945,0 m -1.1478,-0.216 1.3309,0 m -1.0888,-0.216 1.5431,0 m -1.0358,-0.216 0.4859,0"  fill="none" id="path270" style="stroke-linecap:round" stroke-width="0.21600001" stroke="#ffffff"/>
            </g>
        </g>
    </g>
    <g gorn="0.21"  id="g272">
        <title  id="title274">element:LOGO2</title>
        <g gorn="0.21.1"  id="g276">
            <title  id="title278">package:OSHW-LOGO-S</title>
        </g>
    </g>
    <g gorn="0.22"  id="g280">
        <title  id="title282">element:LOGO4</title>
        <g gorn="0.22.1"  id="g284">
            <title  id="title286">package:SFE_LOGO_FLAME_COPPER_EXPOSED_.1</title>
        </g>
    </g>
    <g gorn="0.23"  id="g288">
        <title  id="title290">element:Q1</title>
        <g gorn="0.23.1"  id="g292">
            <title  id="title294">package:SOT23-3</title>
            <line gorn="0.23.1.1"  id="line296" y1="20.2677" y2="21.9685" style="stroke-linecap:round" x1="34.0158" stroke-width="0.57599998" x2="34.0158" stroke="#ffffff"/>
            <line gorn="0.23.1.2"  id="line298" y1="21.9685" y2="21.9685" style="stroke-linecap:round" x1="34.0158" stroke-width="0.57599998" x2="36.283501" stroke="#ffffff"/>
            <line gorn="0.23.1.3"  id="line300" y1="15.7323" y2="14.0315" style="stroke-linecap:round" x1="34.0158" stroke-width="0.57599998" x2="34.0158" stroke="#ffffff"/>
            <line gorn="0.23.1.4"  id="line302" y1="14.0315" y2="14.0315" style="stroke-linecap:round" x1="34.0158" stroke-width="0.57599998" x2="36.283501" stroke="#ffffff"/>
        </g>
    </g>
    <g gorn="0.24"  id="g304">
        <title  id="title306">element:Q2</title>
        <g gorn="0.24.1"  id="g308">
            <title  id="title310">package:SOT23-3</title>
            <line gorn="0.24.1.1"  id="line312" y1="49.067699" y2="50.768501" style="stroke-linecap:round" x1="34.0158" stroke-width="0.57599998" x2="34.0158" stroke="#ffffff"/>
            <line gorn="0.24.1.2"  id="line314" y1="50.768501" y2="50.768501" style="stroke-linecap:round" x1="34.0158" stroke-width="0.57599998" x2="36.283501" stroke="#ffffff"/>
            <line gorn="0.24.1.3"  id="line316" y1="44.532299" y2="42.831501" style="stroke-linecap:round" x1="34.0158" stroke-width="0.57599998" x2="34.0158" stroke="#ffffff"/>
            <line gorn="0.24.1.4"  id="line318" y1="42.831501" y2="42.831501" style="stroke-linecap:round" x1="34.0158" stroke-width="0.57599998" x2="36.283501" stroke="#ffffff"/>
        </g>
    </g>
    <g gorn="0.25"  id="g320">
        <title  id="title322">element:R1</title>
        <g gorn="0.25.1"  id="g324">
            <title  id="title326">package:0603-RES</title>
            <rect height="2.1600001" gorn="0.25.1.1"  x="24.66" y="49.68" fill="#ffffff" id="rect328" stroke-width="0" stroke="none" width="1.08"/>
        </g>
    </g>
    <g gorn="0.26"  id="g330">
        <title  id="title332">element:R2</title>
        <g gorn="0.26.1"  id="g334">
            <title  id="title336">package:0603-RES</title>
            <rect height="2.1600001" gorn="0.26.1.1"  x="24.66" y="55.080002" fill="#ffffff" id="rect338" stroke-width="0" stroke="none" width="1.08"/>
        </g>
    </g>
    <g gorn="0.27"  id="g340">
        <title  id="title342">element:R5</title>
        <g gorn="0.27.1"  id="g344">
            <title  id="title346">package:0603-RES</title>
            <rect height="2.1600001" gorn="0.27.1.1"  x="24.66" y="17.280001" fill="#ffffff" id="rect348" stroke-width="0" stroke="none" width="1.08"/>
        </g>
    </g>
    <g gorn="0.28"  id="g350">
        <title  id="title352">element:R8</title>
        <g gorn="0.28.1"  id="g354">
            <title  id="title356">package:0603-RES</title>
            <rect height="2.1600001" gorn="0.28.1.1"  x="42.66" y="47.880001" fill="#ffffff" id="rect358" stroke-width="0" stroke="none" width="1.08"/>
        </g>
    </g>
    <g gorn="0.29"  id="g360">
        <title  id="title362">element:R9</title>
        <g gorn="0.29.1"  id="g364">
            <title  id="title366">package:0603-RES</title>
            <rect height="2.1600001" gorn="0.29.1.1"  x="42.66" y="19.08" fill="#ffffff" id="rect368" stroke-width="0" stroke="none" width="1.08"/>
        </g>
    </g>
    <g gorn="0.30"  id="g370">
        <title  id="title372">element:STANDOFF1</title>
        <g gorn="0.30.1"  id="g374">
            <title  id="title376">package:STAND-OFF</title>
        </g>
    </g>
    <g gorn="0.31"  id="g378">
        <title  id="title380">element:STANDOFF2</title>
        <g gorn="0.31.1"  id="g382">
            <title  id="title384">package:STAND-OFF</title>
        </g>
    </g>
    <g gorn="0.32"  id="g386">
        <title  id="title388">element:STANDOFF3</title>
        <g gorn="0.32.1"  id="g390">
            <title  id="title392">package:STAND-OFF</title>
        </g>
    </g>
    <g gorn="0.33"  id="g394">
        <title  id="title396">element:STANDOFF4</title>
        <g gorn="0.33.1"  id="g398">
            <title  id="title400">package:STAND-OFF</title>
        </g>
    </g>
    <g gorn="0.34"  id="g402">
        <title  id="title404">element:TP1</title>
        <g gorn="0.34.1"  id="g406">
            <title  id="title408">package:PAD.03X.04</title>
        </g>
    </g>
    <g gorn="0.35"  id="g410">
        <title  id="title412">element:U1</title>
        <g gorn="0.35.1"  id="g414">
            <title  id="title416">package:SC70</title>
            <line gorn="0.35.1.1"  id="line418" y1="29.565399" y2="35.2346" style="stroke-linecap:round" x1="26.9716" stroke-width="0.36000001" x2="26.9716" stroke="#ffffff"/>
            <line gorn="0.35.1.2"  id="line420" y1="35.2346" y2="35.2346" style="stroke-linecap:round" x1="26.9716" stroke-width="0.36000001" x2="23.4284" stroke="#ffffff"/>
            <line gorn="0.35.1.3"  id="line422" y1="29.565399" y2="35.2346" style="stroke-linecap:round" x1="23.4284" stroke-width="0.36000001" x2="23.4284" stroke="#ffffff"/>
            <line gorn="0.35.1.4"  id="line424" y1="29.565399" y2="29.565399" style="stroke-linecap:round" x1="23.4284" stroke-width="0.36000001" x2="26.9716" stroke="#ffffff"/>
        </g>
    </g>
    <g gorn="0.36"  id="g426">
        <title  id="title428">element:U2</title>
        <g gorn="0.36.1"  id="g430">
            <title  id="title432">package:OLGA-14</title>
            <line gorn="0.36.1.1"  id="line434" y1="40.337002" y2="40.337002" style="stroke-linecap:round" x1="53.9972" stroke-width="0.43200001" x2="44.642799" stroke="#ffffff"/>
            <line gorn="0.36.1.2"  id="line436" y1="40.337002" y2="24.462999" style="stroke-linecap:round" x1="44.642799" stroke-width="0.43200001" x2="44.642799" stroke="#ffffff"/>
            <line gorn="0.36.1.3"  id="line438" y1="24.462999" y2="24.462999" style="stroke-linecap:round" x1="44.642799" stroke-width="0.43200001" x2="53.9972" stroke="#ffffff"/>
            <line gorn="0.36.1.4"  id="line440" y1="24.462999" y2="40.337002" style="stroke-linecap:round" x1="53.9972" stroke-width="0.43200001" x2="53.9972" stroke="#ffffff"/>
            <circle r="0.283465" gorn="0.36.1.5"  fill="none" id="circle442" cx="52.7216" cy="41.187401" stroke-width="0.56692898" stroke="#ffffff"/>
        </g>
    </g>
    <rect fill-opacity="0.15" height="3.4015801" gorn="0.37"  x="24.3496" y="41.499199" fill="#ffffff" id="rect444" stroke-width="0" stroke="none" width="1.70078"/>
    <rect fill-opacity="1" height="7.9369898" gorn="0.38"  x="34.0158" y="14.0315" fill="#333333" id="rect446" stroke-width="0" stroke="none" width="2.26772"/>
    <rect fill-opacity="1" height="7.9369898" gorn="0.39"  x="34.0158" y="42.831501" fill="#333333" id="rect448" stroke-width="0" stroke="none" width="2.26772"/>
    <rect fill-opacity="0.15" height="2.1600001" gorn="0.40"  x="24.66" y="47.52" fill="#ffffff" id="rect450" stroke-width="0" stroke="none" width="1.08"/>
    <rect fill-opacity="0.15" height="2.1600001" gorn="0.41"  x="24.66" y="52.919998" fill="#ffffff" id="rect452" stroke-width="0" stroke="none" width="1.08"/>
    <rect fill-opacity="0.15" height="2.1600001" gorn="0.42"  x="24.66" y="15.12" fill="#ffffff" id="rect454" stroke-width="0" stroke="none" width="1.08"/>
    <rect fill-opacity="0.15" height="2.1600001" gorn="0.43"  x="42.66" y="45.720001" fill="#ffffff" id="rect456" stroke-width="0" stroke="none" width="1.08"/>
    <rect fill-opacity="0.15" height="2.1600001" gorn="0.44"  x="42.66" y="16.92" fill="#ffffff" id="rect458" stroke-width="0" stroke="none" width="1.08"/>
    <rect fill-opacity="0.15" height="5.6692901" gorn="0.45"  x="23.4284" y="29.565399" fill="#ffffff" id="rect460" stroke-width="0" stroke="none" width="3.5433099"/>
    <rect fill-opacity="0.15" height="17.007799" gorn="0.46"  x="44.642799" y="24.462999" fill="#ffffff" id="rect462" stroke-width="0" stroke="none" width="9.35431"/>
    <circle r="2.052" gorn="0.47"  connectorname="SCL" fill="none" id="connector10pin" cx="3.5999999" cy="46.799999" stroke-width="1.22399998" stroke="#9a916c"/>
    <circle r="2.052" gorn="0.48"  connectorname="SDA" fill="none" id="connector11pin" cx="3.5999999" cy="39.599998" stroke-width="1.22399998" stroke="#9a916c"/>
    <circle r="2.052" gorn="0.49"  connectorname="5V" fill="none" id="connector12pin" cx="3.5999999" cy="32.400002" stroke-width="1.22399998" stroke="#9a916c"/>
    <circle r="2.052" gorn="0.50"  connectorname="GND" fill="none" id="connector13pin" cx="3.5999999" cy="25.200001" stroke-width="1.22399998" stroke="#9a916c"/>
    <circle r="2.052" gorn="0.51"  connectorname="!INT" fill="none" id="connector14pin" cx="3.5999999" cy="18" stroke-width="1.22399998" stroke="#9a916c"/>
    <g  transform="translate(21.231,49.275)">
        <g >
            <g >
                <g gorn="0.52.0.0.0"  id="0603-res">
                    <g gorn="0.52.0.0.0.0"  id="g525">
                        <g gorn="0.52.0.0.0.0.0"  id="g527">
                            <rect height="2.8340001" gorn="0.52.0.0.0.0.0.0"  x="-0.018999999" y="0" id="rect529" style="fill:#333333" width="7.9660101"/>
                            <rect height="0.046" gorn="0.52.0.0.0.0.0.1"  x="-0.018999999" y="0" id="rect531" enable-background="new    " style="opacity:0.2;fill:#ffffff" width="7.9660101"/>
                            <rect height="0.032000002" gorn="0.52.0.0.0.0.0.2"  x="-0.018999999" y="2.802" id="rect533" enable-background="new    " style="opacity:0.2" width="7.9660101"/>
                        </g>
                        <g gorn="0.52.0.0.0.0.1"  id="g535">
                            <path gorn="0.52.0.0.0.0.1.0" d="m 6.79,0 0,0 0,0 -0.093,0 0,0 c -0.08,0.251 -0.135,0.796003 -0.135,1.075 0,0.291 0.048,1.41 0.135,1.673 l 0,0 0,0 1.223,0 L 7.92,0 6.79,0 Z"  id="path537" style="fill:#dcdcdc"/>
                            <path gorn="0.52.0.0.0.0.1.1" d="m 1.226,0.104 0,-0.104 -1.222,0 0,2.748 1.223,0 C 1.315,2.485 1.42,1.371 1.42,1.076 1.42,0.730001 1.345,0.405 1.226,0.104 Z"  id="path539" style="fill:#dcdcdc"/>
                            <path gorn="0.52.0.0.0.0.1.2" d="m 7.92698,2.854 -1.22298,0 -0.007,-0.106 1.223,0 0.00698,0.106 z"  id="path541" style="fill:#999999"/>
                            <path gorn="0.52.0.0.0.0.1.3" d="m 0.01,2.855 1.223,0 -0.007,-0.107 -1.222,0 0.006,0.107 z"  id="path543" style="fill:#999999"/>
                            <rect height="0.046" gorn="0.52.0.0.0.0.1.4"  x="0.0040000002" y="0" id="rect545" enable-background="new    " style="opacity:0.5;fill:#ffffff" width="1.223"/>
                            <rect height="0.046" gorn="0.52.0.0.0.0.1.5"  x="6.698" y="0" id="rect547" enable-background="new    " style="opacity:0.5;fill:#ffffff" width="1.224"/>
                            <line gorn="0.52.0.0.0.0.1.6"  id="line549" y1="2.8340001" y2="2.8340001" style="fill:none" x1="0.74299699" x2="0.74299699"/>
                        </g>
                    </g>
                </g>
            </g>
        </g>
    </g>
    <g  transform="translate(21.231,54.675)">
        <g >
            <g >
                <g gorn="0.53.0.0.0"  id="g551">
                    <g gorn="0.53.0.0.0.0"  id="g553">
                        <g gorn="0.53.0.0.0.0.0"  id="g555">
                            <rect height="2.8340001" gorn="0.53.0.0.0.0.0.0"  x="-0.018999999" y="0" id="rect557" style="fill:#333333" width="7.9660101"/>
                            <rect height="0.046" gorn="0.53.0.0.0.0.0.1"  x="-0.018999999" y="0" id="rect559" enable-background="new    " style="opacity:0.2;fill:#ffffff" width="7.9660101"/>
                            <rect height="0.032000002" gorn="0.53.0.0.0.0.0.2"  x="-0.018999999" y="2.802" id="rect561" enable-background="new    " style="opacity:0.2" width="7.9660101"/>
                        </g>
                        <g gorn="0.53.0.0.0.0.1"  id="g563">
                            <path gorn="0.53.0.0.0.0.1.0" d="m 6.79,0 0,0 0,0 -0.093,0 0,0 c -0.08,0.251 -0.135,0.796003 -0.135,1.075 0,0.291 0.048,1.41 0.135,1.673 l 0,0 0,0 1.223,0 L 7.92,0 6.79,0 Z"  id="path565" style="fill:#dcdcdc"/>
                            <path gorn="0.53.0.0.0.0.1.1" d="m 1.226,0.104 0,-0.104 -1.222,0 0,2.748 1.223,0 C 1.315,2.485 1.42,1.371 1.42,1.076 1.42,0.730001 1.345,0.405 1.226,0.104 Z"  id="path567" style="fill:#dcdcdc"/>
                            <path gorn="0.53.0.0.0.0.1.2" d="m 7.92698,2.854 -1.22298,0 -0.007,-0.106 1.223,0 0.00698,0.106 z"  id="path569" style="fill:#999999"/>
                            <path gorn="0.53.0.0.0.0.1.3" d="m 0.01,2.855 1.223,0 -0.007,-0.107 -1.222,0 0.006,0.107 z"  id="path571" style="fill:#999999"/>
                            <rect height="0.046" gorn="0.53.0.0.0.0.1.4"  x="0.0040000002" y="0" id="rect573" enable-background="new    " style="opacity:0.5;fill:#ffffff" width="1.223"/>
                            <rect height="0.046" gorn="0.53.0.0.0.0.1.5"  x="6.698" y="0" id="rect575" enable-background="new    " style="opacity:0.5;fill:#ffffff" width="1.224"/>
                            <line gorn="0.53.0.0.0.0.1.6"  id="line577" y1="2.8340001" y2="2.8340001" style="fill:none" x1="0.74299699" x2="0.74299699"/>
                        </g>
                    </g>
                </g>
            </g>
        </g>
    </g>
    <g  transform="translate(21.231,16.875)">
        <g >
            <g >
                <g gorn="0.54.0.0.0"  id="g579">
                    <g gorn="0.54.0.0.0.0"  id="g581">
                        <g gorn="0.54.0.0.0.0.0"  id="g583">
                            <rect height="2.8340001" gorn="0.54.0.0.0.0.0.0"  x="-0.018999999" y="0" id="rect585" style="fill:#333333" width="7.9660101"/>
                            <rect height="0.046" gorn="0.54.0.0.0.0.0.1"  x="-0.018999999" y="0" id="rect587" enable-background="new    " style="opacity:0.2;fill:#ffffff" width="7.9660101"/>
                            <rect height="0.032000002" gorn="0.54.0.0.0.0.0.2"  x="-0.018999999" y="2.802" id="rect589" enable-background="new    " style="opacity:0.2" width="7.9660101"/>
                        </g>
                        <g gorn="0.54.0.0.0.0.1"  id="g591">
                            <path gorn="0.54.0.0.0.0.1.0" d="m 6.79,0 0,0 0,0 -0.093,0 0,0 c -0.08,0.251 -0.135,0.796003 -0.135,1.075 0,0.291 0.048,1.41 0.135,1.673 l 0,0 0,0 1.223,0 L 7.92,0 6.79,0 Z"  id="path593" style="fill:#dcdcdc"/>
                            <path gorn="0.54.0.0.0.0.1.1" d="m 1.226,0.104 0,-0.104 -1.222,0 0,2.748 1.223,0 C 1.315,2.485 1.42,1.371 1.42,1.076 1.42,0.730001 1.345,0.405 1.226,0.104 Z"  id="path595" style="fill:#dcdcdc"/>
                            <path gorn="0.54.0.0.0.0.1.2" d="m 7.92698,2.854 -1.22298,0 -0.007,-0.106 1.223,0 0.00698,0.106 z"  id="path597" style="fill:#999999"/>
                            <path gorn="0.54.0.0.0.0.1.3" d="m 0.01,2.855 1.223,0 -0.007,-0.107 -1.222,0 0.006,0.107 z"  id="path599" style="fill:#999999"/>
                            <rect height="0.046" gorn="0.54.0.0.0.0.1.4"  x="0.0040000002" y="0" id="rect601" enable-background="new    " style="opacity:0.5;fill:#ffffff" width="1.223"/>
                            <rect height="0.046" gorn="0.54.0.0.0.0.1.5"  x="6.698" y="0" id="rect603" enable-background="new    " style="opacity:0.5;fill:#ffffff" width="1.224"/>
                            <line gorn="0.54.0.0.0.0.1.6"  id="line605" y1="2.8340001" y2="2.8340001" style="fill:none" x1="0.74299699" x2="0.74299699"/>
                        </g>
                    </g>
                </g>
            </g>
        </g>
    </g>
    <g  transform="translate(38.739,45.383)">
        <g >
            <g >
                <g gorn="0.55.0.0.0"  id="g607">
                    <g  transform="matrix(0,-1,1,0,2.552,5.386)">
                        <g >
                            <g >
                                <g gorn="0.55.0.0.0.0.0.0.0"  id="g609">
                                    <g gorn="0.55.0.0.0.0.0.0.0.0"  id="g611">
                                        <g gorn="0.55.0.0.0.0.0.0.0.0.0"  id="g613">
                                            <rect height="2.8340001" gorn="0.55.0.0.0.0.0.0.0.0.0.0"  x="-0.018999999" y="0" id="rect615" style="fill:#333333" width="7.9660101"/>
                                            <rect height="0.046" gorn="0.55.0.0.0.0.0.0.0.0.0.1"  x="-0.018999999" y="0" id="rect617" enable-background="new    " style="opacity:0.2;fill:#ffffff" width="7.9660101"/>
                                            <rect height="0.032000002" gorn="0.55.0.0.0.0.0.0.0.0.0.2"  x="-0.018999999" y="2.802" id="rect619" enable-background="new    " style="opacity:0.2" width="7.9660101"/>
                                        </g>
                                        <g gorn="0.55.0.0.0.0.0.0.0.0.1"  id="g621">
                                            <path gorn="0.55.0.0.0.0.0.0.0.0.1.0" d="m 6.79,0 0,0 0,0 -0.093,0 0,0 c -0.08,0.251 -0.135,0.796003 -0.135,1.075 0,0.291 0.048,1.41 0.135,1.673 l 0,0 0,0 1.223,0 L 7.92,0 6.79,0 Z"  id="path623" style="fill:#dcdcdc"/>
                                            <path gorn="0.55.0.0.0.0.0.0.0.0.1.1" d="m 1.226,0.104 0,-0.104 -1.222,0 0,2.748 1.223,0 C 1.315,2.485 1.42,1.371 1.42,1.076 1.42,0.730001 1.345,0.405 1.226,0.104 Z"  id="path625" style="fill:#dcdcdc"/>
                                            <path gorn="0.55.0.0.0.0.0.0.0.0.1.2" d="m 7.92698,2.854 -1.22298,0 -0.007,-0.106 1.223,0 0.00698,0.106 z"  id="path627" style="fill:#999999"/>
                                            <path gorn="0.55.0.0.0.0.0.0.0.0.1.3" d="m 0.01,2.855 1.223,0 -0.007,-0.107 -1.222,0 0.006,0.107 z"  id="path629" style="fill:#999999"/>
                                            <rect height="0.046" gorn="0.55.0.0.0.0.0.0.0.0.1.4"  x="0.0040000002" y="0" id="rect631" enable-background="new    " style="opacity:0.5;fill:#ffffff" width="1.223"/>
                                            <rect height="0.046" gorn="0.55.0.0.0.0.0.0.0.0.1.5"  x="6.698" y="0" id="rect633" enable-background="new    " style="opacity:0.5;fill:#ffffff" width="1.224"/>
                                            <line gorn="0.55.0.0.0.0.0.0.0.0.1.6"  id="line635" y1="2.8340001" y2="2.8340001" style="fill:none" x1="0.74299699" x2="0.74299699"/>
                                        </g>
                                    </g>
                                </g>
                            </g>
                        </g>
                    </g>
                </g>
            </g>
        </g>
    </g>
    <g  transform="translate(38.739,16.583)">
        <g >
            <g >
                <g gorn="0.56.0.0.0"  id="g637">
                    <g  transform="matrix(0,-1,1,0,2.552,5.386)">
                        <g >
                            <g >
                                <g gorn="0.56.0.0.0.0.0.0.0"  id="g639">
                                    <g gorn="0.56.0.0.0.0.0.0.0.0"  id="g641">
                                        <g gorn="0.56.0.0.0.0.0.0.0.0.0"  id="g643">
                                            <rect height="2.8340001" gorn="0.56.0.0.0.0.0.0.0.0.0.0"  x="-0.018999999" y="0" id="rect645" style="fill:#333333" width="7.9660101"/>
                                            <rect height="0.046" gorn="0.56.0.0.0.0.0.0.0.0.0.1"  x="-0.018999999" y="0" id="rect647" enable-background="new    " style="opacity:0.2;fill:#ffffff" width="7.9660101"/>
                                            <rect height="0.032000002" gorn="0.56.0.0.0.0.0.0.0.0.0.2"  x="-0.018999999" y="2.802" id="rect649" enable-background="new    " style="opacity:0.2" width="7.9660101"/>
                                        </g>
                                        <g gorn="0.56.0.0.0.0.0.0.0.0.1"  id="g651">
                                            <path gorn="0.56.0.0.0.0.0.0.0.0.1.0" d="m 6.79,0 0,0 0,0 -0.093,0 0,0 c -0.08,0.251 -0.135,0.796003 -0.135,1.075 0,0.291 0.048,1.41 0.135,1.673 l 0,0 0,0 1.223,0 L 7.92,0 6.79,0 Z"  id="path653" style="fill:#dcdcdc"/>
                                            <path gorn="0.56.0.0.0.0.0.0.0.0.1.1" d="m 1.226,0.104 0,-0.104 -1.222,0 0,2.748 1.223,0 C 1.315,2.485 1.42,1.371 1.42,1.076 1.42,0.730001 1.345,0.405 1.226,0.104 Z"  id="path655" style="fill:#dcdcdc"/>
                                            <path gorn="0.56.0.0.0.0.0.0.0.0.1.2" d="m 7.92698,2.854 -1.22298,0 -0.007,-0.106 1.223,0 0.00698,0.106 z"  id="path657" style="fill:#999999"/>
                                            <path gorn="0.56.0.0.0.0.0.0.0.0.1.3" d="m 0.01,2.855 1.223,0 -0.007,-0.107 -1.222,0 0.006,0.107 z"  id="path659" style="fill:#999999"/>
                                            <rect height="0.046" gorn="0.56.0.0.0.0.0.0.0.0.1.4"  x="0.0040000002" y="0" id="rect661" enable-background="new    " style="opacity:0.5;fill:#ffffff" width="1.223"/>
                                            <rect height="0.046" gorn="0.56.0.0.0.0.0.0.0.0.1.5"  x="6.698" y="0" id="rect663" enable-background="new    " style="opacity:0.5;fill:#ffffff" width="1.224"/>
                                            <line gorn="0.56.0.0.0.0.0.0.0.0.1.6"  id="line665" y1="2.8340001" y2="2.8340001" style="fill:none" x1="0.74299699" x2="0.74299699"/>
                                        </g>
                                    </g>
                                </g>
                            </g>
                        </g>
                    </g>
                </g>
            </g>
        </g>
    </g>
    <rect fill-opacity="1" stroke-opacity="1" height="14.852839" gorn="0.57"  x="45.140976" y="24.901199" fill="#333333" id="rect4781" style="stroke-miterlimit:4;stroke-dasharray:none;" stroke-width="0.072" stroke="#000000" width="8.4457312"/>
    <g  transform="scale(2.2682905,0.44086065)">
        <g >
            <g >
                <text text-decoration="overline" gorn="0.58.0.0.0" font-size="4.48954"  x="5.5352921" y="34.727966" fill="#ffffff" id="text24-9" style="font-family:OCRA;text-decoration: overline;text-decoration-line: overline;text-anchor:middle;" stroke-width="0.46443537" stroke="#ffffff">_</text>
            </g>
        </g>
    </g>
</svg>
