<?xml version='1.0' encoding='UTF-8' standalone='no'?>
<!-- Created with Fritzing (http://www.fritzing.org/) -->
<svg xmlns="http://www.w3.org/2000/svg" version="1.2" width="0.94854122in" viewBox="0 0 68.294938 43.200009" y="0in" x="0in" gorn="0"  height="0.60000014in" id="svg147">
    <desc >
        <referenceFile >10588-sfe_audio_jack_TRS_breakout_v12.svg</referenceFile>
    </desc>
    <metadata  id="metadata153">
        <rdf:RDF xmlns:rdf="http://www.w3.org/1999/02/22-rdf-syntax-ns#">
            <cc:Work xmlns:cc="http://creativecommons.org/ns#" xmlns:rdf="http://www.w3.org/1999/02/22-rdf-syntax-ns#" rdf:about="">
                <dc:format xmlns:dc="http://purl.org/dc/elements/1.1/">image/svg+xml</dc:format>
                <dc:type rdf:resource="http://purl.org/dc/dcmitype/StillImage" xmlns:rdf="http://www.w3.org/1999/02/22-rdf-syntax-ns#" xmlns:dc="http://purl.org/dc/elements/1.1/"/>
                <dc:title xmlns:dc="http://purl.org/dc/elements/1.1/"/>
            </cc:Work>
        </rdf:RDF>
    </metadata>
    <defs  id="defs151"/>
    <desc  id="desc2">Fritzing breadboard generated by brd2svg</desc>
    <g transform="translate(-0.53024987)" >
        <g >
            <g gorn="0.4.0.0"  id="breadboard">
                <g gorn="0.4.0.0.0"  id="icon">
                    <path fill="#e6321e" d="M 7.62523,43.2 H 68.8252 V 0 H 7.62523 V 43.2 M 16.7244,7.4268 a 1.70079,1.70079 0 1 1 3.40158,0 1.70079,1.70079 0 1 1 -3.40158,0 z m -7.08662,0 a 1.70079,1.70079 0 1 1 3.40158,0 1.70079,1.70079 0 1 1 -3.40158,0 z m 0,28.3464 a 1.70079,1.70079 0 1 1 3.40158,0 1.70079,1.70079 0 1 1 -3.40158,0 z m 7.08662,0 a 1.70079,1.70079 0 1 1 3.40158,0 1.70079,1.70079 0 1 1 -3.40158,0 z M 30.8976,21.6 a 1.70079,1.70079 0 1 1 3.40158,0 1.70079,1.70079 0 1 1 -3.40158,0 z M 60.1852,7.2 a 1.44,1.44 0 1 1 2.88,0 1.44,1.44 0 1 1 -2.88,0 z m 0,7.2 a 1.44,1.44 0 1 1 2.88,0 1.44,1.44 0 1 1 -2.88,0 z m 0,7.2 a 1.44,1.44 0 1 1 2.88,0 1.44,1.44 0 1 1 -2.88,0 z m 0,7.2 a 1.44,1.44 0 1 1 2.88,0 1.44,1.44 0 1 1 -2.88,0 z m 0,7.2 a 1.44,1.44 0 1 1 2.88,0 1.44,1.44 0 1 1 -2.88,0 z" stroke-width="0" stroke="none" gorn="0.4.0.0.0.0"  id="path4"/>
                    <g gorn="0.4.0.0.0.1"  id="g138">
                        <title  id="title6">layer 21</title>
                        <g gorn="0.4.0.0.0.1.1"  id="g12">
                            <title  id="title8">text:GND</title>
                            <text fill="#ffffff" style="font-family:OCRA;text-anchor:start;" y="9" font-size="5.01119995" x="45.425201" stroke-width="0" stroke="none" gorn="0.4.0.0.0.1.1.1"  id="text10">GND</text>
                        </g>
                        <g gorn="0.4.0.0.0.1.2"  id="g18">
                            <title  id="title14">text:RNG</title>
                            <text fill="#ffffff" style="font-family:OCRA;text-anchor:start;" y="16.200001" font-size="5.01119995" x="45.425201" stroke-width="0" stroke="none" gorn="0.4.0.0.0.1.2.1"  id="text16">RNG</text>
                        </g>
                        <g gorn="0.4.0.0.0.1.3"  id="g24">
                            <title  id="title20">text:TIP</title>
                            <text fill="#ffffff" style="font-family:OCRA;text-anchor:start;" y="37.799999" font-size="5.01119995" x="45.425201" stroke-width="0" stroke="none" gorn="0.4.0.0.0.1.3.1"  id="text22">TIP</text>
                        </g>
                        <g gorn="0.4.0.0.0.1.4"  id="g30">
                            <title  id="title26">text:RSH</title>
                            <text fill="#ffffff" style="font-family:OCRA;text-anchor:start;" y="23.4" font-size="5.01119995" x="45.425201" stroke-width="0" stroke="none" gorn="0.4.0.0.0.1.4.1"  id="text28">RSH</text>
                        </g>
                        <g gorn="0.4.0.0.0.1.5"  id="g36">
                            <title  id="title32">text:TSH</title>
                            <text fill="#ffffff" style="font-family:OCRA;text-anchor:start;" y="30.6" font-size="5.01119995" x="45.425201" stroke-width="0" stroke="none" gorn="0.4.0.0.0.1.5.1"  id="text34">TSH</text>
                        </g>
                        <g gorn="0.4.0.0.0.1.6"  id="g108">
                            <title  id="title38">element:JP1</title>
                            <g gorn="0.4.0.0.0.1.6.1"  id="g106">
                                <title  id="title40">package:1X05</title>
                                <line x2="65.225197" style="stroke-linecap:round" stroke-width="0.57599998" stroke="#ffffff" y1="27" x1="65.225197" gorn="0.4.0.0.0.1.6.1.1"  id="line42" y2="30.6"/>
                                <line x2="63.425201" style="stroke-linecap:round" stroke-width="0.57599998" stroke="#ffffff" y1="30.6" x1="65.225197" gorn="0.4.0.0.0.1.6.1.2"  id="line44" y2="32.400002"/>
                                <line x2="58.0252" style="stroke-linecap:round" stroke-width="0.57599998" stroke="#ffffff" y1="32.400002" x1="59.825199" gorn="0.4.0.0.0.1.6.1.3"  id="line46" y2="30.6"/>
                                <line x2="65.225197" style="stroke-linecap:round" stroke-width="0.57599998" stroke="#ffffff" y1="32.400002" x1="63.425201" gorn="0.4.0.0.0.1.6.1.4"  id="line48" y2="34.200001"/>
                                <line x2="65.225197" style="stroke-linecap:round" stroke-width="0.57599998" stroke="#ffffff" y1="34.200001" x1="65.225197" gorn="0.4.0.0.0.1.6.1.5"  id="line50" y2="37.799999"/>
                                <line x2="63.425201" style="stroke-linecap:round" stroke-width="0.57599998" stroke="#ffffff" y1="37.799999" x1="65.225197" gorn="0.4.0.0.0.1.6.1.6"  id="line52" y2="39.599998"/>
                                <line x2="58.0252" style="stroke-linecap:round" stroke-width="0.57599998" stroke="#ffffff" y1="39.599998" x1="59.825199" gorn="0.4.0.0.0.1.6.1.7"  id="line54" y2="37.799999"/>
                                <line x2="58.0252" style="stroke-linecap:round" stroke-width="0.57599998" stroke="#ffffff" y1="37.799999" x1="58.0252" gorn="0.4.0.0.0.1.6.1.8"  id="line56" y2="34.200001"/>
                                <line x2="59.825199" style="stroke-linecap:round" stroke-width="0.57599998" stroke="#ffffff" y1="34.200001" x1="58.0252" gorn="0.4.0.0.0.1.6.1.9"  id="line58" y2="32.400002"/>
                                <line x2="65.225197" style="stroke-linecap:round" stroke-width="0.57599998" stroke="#ffffff" y1="18" x1="63.425201" gorn="0.4.0.0.0.1.6.1.10"  id="line60" y2="19.799999"/>
                                <line x2="65.225197" style="stroke-linecap:round" stroke-width="0.57599998" stroke="#ffffff" y1="19.799999" x1="65.225197" gorn="0.4.0.0.0.1.6.1.11"  id="line62" y2="23.4"/>
                                <line x2="63.425201" style="stroke-linecap:round" stroke-width="0.57599998" stroke="#ffffff" y1="23.4" x1="65.225197" gorn="0.4.0.0.0.1.6.1.12"  id="line64" y2="25.200001"/>
                                <line x2="58.0252" style="stroke-linecap:round" stroke-width="0.57599998" stroke="#ffffff" y1="25.200001" x1="59.825199" gorn="0.4.0.0.0.1.6.1.13"  id="line66" y2="23.4"/>
                                <line x2="58.0252" style="stroke-linecap:round" stroke-width="0.57599998" stroke="#ffffff" y1="23.4" x1="58.0252" gorn="0.4.0.0.0.1.6.1.14"  id="line68" y2="19.799999"/>
                                <line x2="59.825199" style="stroke-linecap:round" stroke-width="0.57599998" stroke="#ffffff" y1="19.799999" x1="58.0252" gorn="0.4.0.0.0.1.6.1.15"  id="line70" y2="18"/>
                                <line x2="63.425201" style="stroke-linecap:round" stroke-width="0.57599998" stroke="#ffffff" y1="27" x1="65.225197" gorn="0.4.0.0.0.1.6.1.16"  id="line72" y2="25.200001"/>
                                <line x2="58.0252" style="stroke-linecap:round" stroke-width="0.57599998" stroke="#ffffff" y1="25.200001" x1="59.825199" gorn="0.4.0.0.0.1.6.1.17"  id="line74" y2="27"/>
                                <line x2="58.0252" style="stroke-linecap:round" stroke-width="0.57599998" stroke="#ffffff" y1="30.6" x1="58.0252" gorn="0.4.0.0.0.1.6.1.18"  id="line76" y2="27"/>
                                <line x2="65.225197" style="stroke-linecap:round" stroke-width="0.57599998" stroke="#ffffff" y1="5.4000001" x1="65.225197" gorn="0.4.0.0.0.1.6.1.19"  id="line78" y2="9"/>
                                <line x2="63.425201" style="stroke-linecap:round" stroke-width="0.57599998" stroke="#ffffff" y1="9" x1="65.225197" gorn="0.4.0.0.0.1.6.1.20"  id="line80" y2="10.8"/>
                                <line x2="58.0252" style="stroke-linecap:round" stroke-width="0.57599998" stroke="#ffffff" y1="10.8" x1="59.825199" gorn="0.4.0.0.0.1.6.1.21"  id="line82" y2="9"/>
                                <line x2="65.225197" style="stroke-linecap:round" stroke-width="0.57599998" stroke="#ffffff" y1="10.8" x1="63.425201" gorn="0.4.0.0.0.1.6.1.22"  id="line84" y2="12.6"/>
                                <line x2="65.225197" style="stroke-linecap:round" stroke-width="0.57599998" stroke="#ffffff" y1="12.6" x1="65.225197" gorn="0.4.0.0.0.1.6.1.23"  id="line86" y2="16.200001"/>
                                <line x2="63.425201" style="stroke-linecap:round" stroke-width="0.57599998" stroke="#ffffff" y1="16.200001" x1="65.225197" gorn="0.4.0.0.0.1.6.1.24"  id="line88" y2="18"/>
                                <line x2="58.0252" style="stroke-linecap:round" stroke-width="0.57599998" stroke="#ffffff" y1="18" x1="59.825199" gorn="0.4.0.0.0.1.6.1.25"  id="line90" y2="16.200001"/>
                                <line x2="58.0252" style="stroke-linecap:round" stroke-width="0.57599998" stroke="#ffffff" y1="16.200001" x1="58.0252" gorn="0.4.0.0.0.1.6.1.26"  id="line92" y2="12.6"/>
                                <line x2="59.825199" style="stroke-linecap:round" stroke-width="0.57599998" stroke="#ffffff" y1="12.6" x1="58.0252" gorn="0.4.0.0.0.1.6.1.27"  id="line94" y2="10.8"/>
                                <line x2="59.825199" style="stroke-linecap:round" stroke-width="0.57599998" stroke="#ffffff" y1="3.5999999" x1="63.425201" gorn="0.4.0.0.0.1.6.1.28"  id="line96" y2="3.5999999"/>
                                <line x2="63.425201" style="stroke-linecap:round" stroke-width="0.57599998" stroke="#ffffff" y1="5.4000001" x1="65.225197" gorn="0.4.0.0.0.1.6.1.29"  id="line98" y2="3.5999999"/>
                                <line x2="58.0252" style="stroke-linecap:round" stroke-width="0.57599998" stroke="#ffffff" y1="3.5999999" x1="59.825199" gorn="0.4.0.0.0.1.6.1.30"  id="line100" y2="5.4000001"/>
                                <line x2="58.0252" style="stroke-linecap:round" stroke-width="0.57599998" stroke="#ffffff" y1="9" x1="58.0252" gorn="0.4.0.0.0.1.6.1.31"  id="line102" y2="5.4000001"/>
                                <line x2="59.825199" style="stroke-linecap:round" stroke-width="0.57599998" stroke="#ffffff" y1="39.599998" x1="63.425201" gorn="0.4.0.0.0.1.6.1.32"  id="line104" y2="39.599998"/>
                            </g>
                        </g>
                        <g gorn="0.4.0.0.0.1.7"  id="g116">
                            <title  id="title110">element:U$1</title>
                            <g gorn="0.4.0.0.0.1.7.1"  id="g114">
                                <title  id="title112">package:SFE-LOGO-FLAME</title>
                            </g>
                        </g>
                        <g gorn="0.4.0.0.0.1.8"  id="g136">
                            <title  id="title118">element:U1</title>
                            <g gorn="0.4.0.0.0.1.8.1"  id="g134">
                                <title  id="title120">package:AUDIO-JACK</title>
                                <line x2="39.685001" style="stroke-linecap:round" stroke-width="0.57599998" stroke="#ffffff" y1="4.5921202" x1="39.685001" gorn="0.4.0.0.0.1.8.1.1"  id="line122" y2="38.6078"/>
                                <line x2="28.3465" style="stroke-linecap:round" stroke-width="0.57599998" stroke="#ffffff" y1="4.5921202" x1="8.5039196" gorn="0.4.0.0.0.1.8.1.2"  id="line124" y2="4.5921202"/>
                                <line x2="36.850399" style="stroke-linecap:round" stroke-width="0.57599998" stroke="#ffffff" y1="4.5921202" x1="39.685001" gorn="0.4.0.0.0.1.8.1.3"  id="line126" y2="4.5921202"/>
                                <line x2="8.5039196" style="stroke-linecap:round" stroke-width="0.57599998" stroke="#ffffff" y1="4.5921202" x1="8.5039196" gorn="0.4.0.0.0.1.8.1.4"  id="line128" y2="38.6078"/>
                                <line x2="28.3465" style="stroke-linecap:round" stroke-width="0.57599998" stroke="#ffffff" y1="38.6078" x1="8.5039196" gorn="0.4.0.0.0.1.8.1.5"  id="line130" y2="38.6078"/>
                                <line x2="36.850399" style="stroke-linecap:round" stroke-width="0.57599998" stroke="#ffffff" y1="38.6078" x1="39.685001" gorn="0.4.0.0.0.1.8.1.6"  id="line132" y2="38.6078"/>
                            </g>
                        </g>
                    </g>
                    <g transform="translate(0.53024987,4.5927995)" >
                        <g >
                            <g stroke-width="0" gorn="0.4.0.0.0.2.0.0"  id="audio-jack">
                                <g transform="matrix(1.1320215,0,0,1,-0.50999911,0)" >
                                    <g >
                                        <polygon fill="#333333" points="6.699,4.252 3.863,4.252 3.863,29.763 6.699,29.763 6.699,34.015 35.046,34.015 35.046,0 6.699,0 " stroke-width="0" gorn="0.4.0.0.0.2.0.0.0.0.0"  id="polygon148"/>
                                    </g>
                                </g>
                                <rect width="2.836" y="33.021999" x="33.277256" stroke-width="0" gorn="0.4.0.0.0.2.0.0.1"  id="rect150" height="0.99200201"/>
                                <rect width="2.836" y="0" x="33.277256" stroke-width="0" gorn="0.4.0.0.0.2.0.0.2"  id="rect152" height="0.99200201"/>
                                <rect width="2.836" y="1.9" x="30.077242" stroke-width="0" gorn="0.4.0.0.0.2.0.0.3"  id="rect154" height="1.418"/>
                                <rect fill="#cccccc" width="1.6109999" y="2.2219999" x="30.689241" stroke-width="0" gorn="0.4.0.0.0.2.0.0.4"  id="rect156" height="0.77700198"/>
                                <rect width="2.836" y="30.700001" x="30.077242" stroke-width="0" gorn="0.4.0.0.0.2.0.0.5"  id="rect158" height="1.418"/>
                                <rect width="2.8340001" y="9.1020203" x="30.078241" stroke-width="0" gorn="0.4.0.0.0.2.0.0.6"  id="rect160" height="1.418"/>
                                <rect width="2.8340001" y="23.500999" x="30.078241" stroke-width="0" gorn="0.4.0.0.0.2.0.0.7"  id="rect162" height="1.418"/>
                                <rect fill="#cccccc" width="1.6109999" y="31.021" x="30.689241" stroke-width="0" gorn="0.4.0.0.0.2.0.0.8"  id="rect164" height="0.77700198"/>
                                <rect fill="#cccccc" width="1.6109999" y="23.819" x="30.689241" stroke-width="0" gorn="0.4.0.0.0.2.0.0.9"  id="rect166" height="0.77700198"/>
                                <rect fill="#cccccc" width="1.6109999" y="9.4219904" x="30.689241" stroke-width="0" gorn="0.4.0.0.0.2.0.0.10"  id="rect168" height="0.77700198"/>
                                <rect fill="#2b2b2b" width="8.20397" y="9.1020203" x="16.518" stroke-width="0" gorn="0.4.0.0.0.2.0.0.11"  id="rect170" height="15.817"/>
                                <g stroke-width="0" gorn="0.4.0.0.0.2.0.0.12"  id="g176">
                                    <rect fill="#2b2b2b" width="6.8049998" y="9.1020203" x="6.6989999" stroke-width="0" gorn="0.4.0.0.0.2.0.0.12.0"  id="rect172" height="15.817"/>
                                    <path fill="#2b2b2b" d="M 6.547,25.071 V 8.94802 h 7.109 v 16.123 z M 6.854,9.25502 v 15.51 h 6.498 v -15.51 z" stroke-width="0" gorn="0.4.0.0.0.2.0.0.12.1"  id="path174"/>
                                </g>
                                <polyline fill="none" points="16.518,9.10202,24.722,9.10202,24.722,24.919" style="stroke-linecap:square" stroke-width="0.2473" stroke="#1a1a1a" gorn="0.4.0.0.0.2.0.0.13"  id="polyline178"/>
                                <polyline fill="none" points="24.723,24.919,16.519,24.919,16.519,9.10303" style="stroke-linecap:square" stroke-width="0.2473" stroke="#262626" gorn="0.4.0.0.0.2.0.0.14"  id="polyline180"/>
                                <g stroke-width="0" gorn="0.4.0.0.0.2.0.0.15"  id="g190">
                                    <line fill="none" x2="7.50002" stroke-width="0" y1="14.457" x1="7.5039802" gorn="0.4.0.0.0.2.0.0.15.0"  id="line182" y2="14.455"/>
                                    <line fill="none" x2="7.5039802" stroke-width="0" y1="19.563" x1="7.50002" gorn="0.4.0.0.0.2.0.0.15.1"  id="line184" y2="19.562"/>
                                    <rect fill="#cccccc" width="0.0040000002" y="19.563" x="7.50002" stroke-width="0" gorn="0.4.0.0.0.2.0.0.15.2"  id="rect186" height="4.9959998"/>
                                    <rect fill="#cccccc" width="0.0040000002" y="9.4600096" x="7.50002" stroke-width="0" gorn="0.4.0.0.0.2.0.0.15.3"  id="rect188" height="4.9970002"/>
                                </g>
                                <polygon fill="#2b2b2b" points="6.547,21.147 6.547,12.874 3.863,12.874 3.863,10.975 1.863,10.975 1.863,23.048 3.863,23.048 3.863,21.147 " stroke-width="0" gorn="0.4.0.0.0.2.0.0.16"  id="polygon192"/>
                                <polygon fill="#292929" points="3.863,11.404 1.863,11.404 1.863,13.146 6.547,13.146 6.547,12.874 3.863,12.874 " stroke-width="0" gorn="0.4.0.0.0.2.0.0.17"  id="polygon194"/>
                                <polygon fill="#292929" points="6.547,21.181 3.863,21.181 3.863,22.649 1.863,22.649 1.863,20.573 6.547,20.573 " stroke-width="0" gorn="0.4.0.0.0.2.0.0.18"  id="polygon196"/>
                                <rect fill="#cccccc" width="1.881" y="13.146" x="6.5469999" stroke-width="0" gorn="0.4.0.0.0.2.0.0.19"  id="rect198" height="7.7289801"/>
                                <rect fill="#d6d6d6" width="1.881" y="15.972" x="6.5469999" stroke-width="0" gorn="0.4.0.0.0.2.0.0.20"  id="rect200" height="3.2090001"/>
                                <g stroke-width="0" gorn="0.4.0.0.0.2.0.0.21"  id="g206">
                                    <path fill="#cccccc" d="m 7.027,20.153 c 0.031,-0.324 0.279,-0.619 0.578,-0.689 l 1.42,-0.34 c 0.283,-0.068 0.516,-0.359 0.516,-0.65 v -2.926 c 0,-0.291 -0.23,-0.583 -0.516,-0.65 L 7.605,14.556 C 7.306,14.485 7.058,14.19 7.027,13.869 V 9.46001 l 6.1,-0.05 0.049,15.149 -6.148,0.049 V 20.153 Z" stroke-width="0" gorn="0.4.0.0.0.2.0.0.21.0"  id="path202"/>
                                    <path fill="#3d3d3d" d="M 13.127,24.56 H 7.078 v -4.404 c 0.027,-0.293 0.256,-0.574 0.541,-0.643 l 1.42,-0.34 C 9.342,19.101 9.59,18.786 9.59,18.474 v -2.926 c 0,-0.312 -0.248,-0.627 -0.551,-0.699 L 7.619,14.507 C 7.334,14.44 7.105,14.157 7.078,13.863 V 9.46001 h 6.049 V 24.56 m 0.1,0.099 V 24.559 9.46001 9.35899 h -0.1 -6.049 -0.101 v 0.10102 4.403 c 0.033,0.352 0.299,0.664 0.617,0.740002 l 1.42,0.342 c 0.258,0.062 0.477,0.338 0.477,0.603 v 2.926 c 0,0.264 -0.219,0.541 -0.477,0.602 l -1.42,0.34 c -0.318,0.076 -0.584,0.391 -0.617,0.730001 v 4.414 0.102 h 0.102 6.049 0.1 v -0.003 z" stroke-width="0" gorn="0.4.0.0.0.2.0.0.21.1"  id="path204"/>
                                </g>
                                <polygon fill="#d9d9d9" points="8.65001,9.46001 7.92598,9.46001 7.92598,14.581 8.65001,14.755 " stroke-width="0" gorn="0.4.0.0.0.2.0.0.22"  id="polygon208"/>
                                <polygon fill="#d9d9d9" points="8.65001,19.265 7.92598,19.438 7.92598,24.56 8.65001,24.56 " stroke-width="0" gorn="0.4.0.0.0.2.0.0.23"  id="polygon210"/>
                                <path fill="#878787" d="m 7.61897,19.513 c -0.041,0.01 -0.078,0.031 -0.115,0.049 v 4.998 h 0.422 v -5.121 z" stroke-width="0" gorn="0.4.0.0.0.2.0.0.24"  id="path212"/>
                                <path fill="#878787" d="m 7.61897,14.507 0.307,0.074 10e-6,-5.12099 h -0.422 v 4.997 C 7.54099,14.475 7.578,14.497 7.61897,14.507 Z" stroke-width="0" gorn="0.4.0.0.0.2.0.0.25"  id="path214"/>
                                <path fill="#525252" d="m 7.078,20.153 v 4.406 H 7.50002 V 19.563 C 7.27301,19.671 7.102,19.903 7.078,20.153 Z" stroke-width="0" gorn="0.4.0.0.0.2.0.0.26"  id="path216"/>
                                <path fill="#525252" d="M 7.50002,14.455 V 9.46001 H 7.078 v 4.403 C 7.102,14.113 7.27301,14.348 7.50002,14.455 Z" stroke-width="0" gorn="0.4.0.0.0.2.0.0.27"  id="path218"/>
                                <rect fill="#8f8f8f" width="1.848" y="9.4600096" x="11.279" stroke-width="0" gorn="0.4.0.0.0.2.0.0.28"  id="rect220" height="15.1"/>
                                <g stroke-width="0" gorn="0.4.0.0.0.2.0.0.29"  id="g224">
                                    <polygon fill="#dedede" points="11.066,24.56 11.066,9.46001 11.494,9.46001 11.494,24.56 " stroke-width="0" gorn="0.4.0.0.0.2.0.0.29.0"  id="polygon222"/>
                                </g>
                                <rect fill="#dedede" width="1.881" y="16.496" x="6.5469999" stroke-width="0" gorn="0.4.0.0.0.2.0.0.30"  id="rect226" height="1.761"/>
                                <rect fill="#333333" width="4.6479998" y="15.972" x="1.881" stroke-width="0" gorn="0.4.0.0.0.2.0.0.31"  id="rect228" height="3.2090001"/>
                                <rect fill="#383838" width="4.6479998" y="16.496" x="1.881" stroke-width="0" gorn="0.4.0.0.0.2.0.0.32"  id="rect230" height="1.761"/>
                                <rect fill="#212121" width="2" y="10.975" x="1.863" stroke-width="0" gorn="0.4.0.0.0.2.0.0.33"  id="rect232" height="0.43099999"/>
                                <rect fill="#212121" width="2" y="22.649" x="1.863" stroke-width="0" gorn="0.4.0.0.0.2.0.0.34"  id="rect234" height="0.396"/>
                                <rect fill="#a1a1a1" width="1.881" y="10.975" x="0" stroke-width="0" gorn="0.4.0.0.0.2.0.0.35"  id="rect236" height="12.071"/>
                                <rect fill="#ababab" width="1.881" y="13.146" x="0" stroke-width="0" gorn="0.4.0.0.0.2.0.0.36"  id="rect238" height="7.42802"/>
                                <rect fill="#c7c7c7" width="1.881" y="15.972" x="0" stroke-width="0" gorn="0.4.0.0.0.2.0.0.37"  id="rect240" height="3.2090001"/>
                                <rect fill="#e6e6e6" width="1.881" y="16.496" x="0" stroke-width="0" gorn="0.4.0.0.0.2.0.0.38"  id="rect242" height="1.761"/>
                                <rect fill="#737373" width="1.881" y="22.649" x="0" stroke-width="0" gorn="0.4.0.0.0.2.0.0.39"  id="rect244" height="0.396"/>
                                <rect fill="#737373" width="1.881" y="10.991" x="0" stroke-width="0" gorn="0.4.0.0.0.2.0.0.40"  id="rect246" height="0.396"/>
                                <rect width="1.418" y="15.562" x="14.375" stroke-width="0" gorn="0.4.0.0.0.2.0.0.41"  id="rect248" height="2.8340001"/>
                                <rect fill="#cccccc" width="0.77700198" y="16.173" x="14.695" stroke-width="0" gorn="0.4.0.0.0.2.0.0.42"  id="rect250" height="1.6109999"/>
                            </g>
                        </g>
                    </g>
                    <circle cy="7.1999998" fill="none" cx="61.625198" stroke-width="1.22399998" stroke="#9a916c" r="2.052" connectorname="GND" gorn="0.4.0.0.0.3"  id="connector0pin"/>
                    <circle cy="14.4" fill="none" cx="61.625198" stroke-width="1.22399998" stroke="#9a916c" r="2.052" connectorname="RING" gorn="0.4.0.0.0.4"  id="connector1pin"/>
                    <circle cy="21.6" fill="none" cx="61.625198" stroke-width="1.22399998" stroke="#9a916c" r="2.052" connectorname="RING_SHUNT" gorn="0.4.0.0.0.5"  id="connector2pin"/>
                    <circle cy="28.799999" fill="none" cx="61.625198" stroke-width="1.22399998" stroke="#9a916c" r="2.052" connectorname="TIP_SHUNT" gorn="0.4.0.0.0.6"  id="connector3pin"/>
                    <circle cy="36" fill="none" cx="61.625198" stroke-width="1.22399998" stroke="#9a916c" r="2.052" connectorname="TIP" gorn="0.4.0.0.0.7"  id="connector4pin"/>
                </g>
            </g>
        </g>
    </g>
</svg>
