<?xml version='1.0' encoding='UTF-8' standalone='no'?>
<!-- Created with Fritzing (http://www.fritzing.org/) -->
<svg xmlns="http://www.w3.org/2000/svg" gorn="0" viewBox="0 0 56.6929 56.6929"  height="0.787402in" x="0in" version="1.2" y="0in" width="0.787402in" id="svg2">
    <metadata  id="metadata435">
        <rdf:RDF xmlns:rdf="http://www.w3.org/1999/02/22-rdf-syntax-ns#">
            <cc:Work rdf:about="" xmlns:rdf="http://www.w3.org/1999/02/22-rdf-syntax-ns#" xmlns:cc="http://creativecommons.org/ns#">
                <dc:format xmlns:dc="http://purl.org/dc/elements/1.1/">image/svg+xml</dc:format>
                <dc:type xmlns:dc="http://purl.org/dc/elements/1.1/" rdf:resource="http://purl.org/dc/dcmitype/StillImage" xmlns:rdf="http://www.w3.org/1999/02/22-rdf-syntax-ns#"/>
                <dc:title xmlns:dc="http://purl.org/dc/elements/1.1/"/>
            </cc:Work>
        </rdf:RDF>
    </metadata>
    <defs  id="defs433"/>
    <desc  id="desc4">
        <referenceFile  id="referenceFile6">LilyPad_Protoboard_Small_breadboard.svg</referenceFile>
    </desc>
    <desc  id="desc8">Fritzing breadboard generated by brd2svg</desc>
    <g gorn="0.4"  id="g3545">
        <g gorn="0.4.0"  id="breadboard">
            <g gorn="0.4.0.0"  id="icon">
                <path stroke="none" gorn="0.4.0.0.0"  d="M0,28.3465a28.3465,28.3465,0,1,0,56.6929,0,28.3465,28.3465,0,1,0,-56.6929,0zM6.50835,17.5465a3.11811,3.11811,0,1,1,6.23622,0,3.11811,3.11811,0,1,1,-6.23622,0zM43.9484,17.5465a3.11811,3.11811,0,1,1,6.23622,0,3.11811,3.11811,0,1,1,-6.23622,0zM25.2284,49.9465a3.11811,3.11811,0,1,1,6.23622,0,3.11811,3.11811,0,1,1,-6.23622,0zM6.51969,39.1181a3.11811,3.11811,0,1,1,6.23622,0,3.11811,3.11811,0,1,1,-6.23622,0zM43.937,39.1181a3.11811,3.11811,0,1,1,6.23622,0,3.11811,3.11811,0,1,1,-6.23622,0zM25.2284,6.80315a3.11811,3.11811,0,1,1,6.23622,0,3.11811,3.11811,0,1,1,-6.23622,0zM19.7065,21.1465a1.44,1.44,0,1,1,2.88,0,1.44,1.44,0,1,1,-2.88,0zM26.9065,21.1465a1.44,1.44,0,1,1,2.88,0,1.44,1.44,0,1,1,-2.88,0zM34.1065,21.1465a1.44,1.44,0,1,1,2.88,0,1.44,1.44,0,1,1,-2.88,0zM34.1065,28.3465a1.44,1.44,0,1,1,2.88,0,1.44,1.44,0,1,1,-2.88,0zM41.3065,28.3465a1.44,1.44,0,1,1,2.88,0,1.44,1.44,0,1,1,-2.88,0zM34.1065,35.5465a1.44,1.44,0,1,1,2.88,0,1.44,1.44,0,1,1,-2.88,0zM26.9065,35.5465a1.44,1.44,0,1,1,2.88,0,1.44,1.44,0,1,1,-2.88,0zM26.9065,28.3465a1.44,1.44,0,1,1,2.88,0,1.44,1.44,0,1,1,-2.88,0zM19.7065,28.3465a1.44,1.44,0,1,1,2.88,0,1.44,1.44,0,1,1,-2.88,0zM19.7065,35.5465a1.44,1.44,0,1,1,2.88,0,1.44,1.44,0,1,1,-2.88,0zM12.5065,28.3465a1.44,1.44,0,1,1,2.88,0,1.44,1.44,0,1,1,-2.88,0zM26.9065,13.9465a1.44,1.44,0,1,1,2.88,0,1.44,1.44,0,1,1,-2.88,0zM26.9065,42.7465a1.44,1.44,0,1,1,2.88,0,1.44,1.44,0,1,1,-2.88,0z" fill="#672E58" stroke-width="0.576" id="path12"/>
                <g gorn="0.4.0.0.1"  id="g14">
                    <title  id="title16">layer 21</title>
                    <g gorn="0.4.0.0.1.1"  id="g18">
                        <title  id="title20">element:U$2</title>
                        <g gorn="0.4.0.0.1.1.1"  id="g22">
                            <title  id="title24">package:LOGO-L</title>
                        </g>
                    </g>
                    <g gorn="0.4.0.0.1.2"  id="g26">
                        <title  id="title28">element:U$3</title>
                        <g gorn="0.4.0.0.1.2.1"  id="g30">
                            <title  id="title32">package:PETAL-SMALL-2SIDE</title>
                        </g>
                    </g>
                    <g gorn="0.4.0.0.1.3"  id="g34">
                        <title  id="title36">element:U$4</title>
                        <g gorn="0.4.0.0.1.3.1"  id="g38">
                            <title  id="title40">package:PETAL-SMALL-2SIDE</title>
                        </g>
                    </g>
                    <g gorn="0.4.0.0.1.4"  id="g42">
                        <title  id="title44">element:U$5</title>
                        <g gorn="0.4.0.0.1.4.1"  id="g46">
                            <title  id="title48">package:PETAL-SMALL-2SIDE</title>
                        </g>
                    </g>
                    <g gorn="0.4.0.0.1.5"  id="g50">
                        <title  id="title52">element:U$8</title>
                        <g gorn="0.4.0.0.1.5.1"  id="g54">
                            <title  id="title56">package:PETAL-SMALL-2SIDE</title>
                        </g>
                    </g>
                    <g gorn="0.4.0.0.1.6"  id="g58">
                        <title  id="title60">element:U$9</title>
                        <g gorn="0.4.0.0.1.6.1"  id="g62">
                            <title  id="title64">package:PETAL-SMALL-2SIDE</title>
                        </g>
                    </g>
                    <g gorn="0.4.0.0.1.7"  id="g66">
                        <title  id="title68">element:U$10</title>
                        <g gorn="0.4.0.0.1.7.1"  id="g70">
                            <title  id="title72">package:PETAL-SMALL-2SIDE</title>
                        </g>
                    </g>
                </g>
                <g gorn="0.4.0.0.2"  id="g74">
                    <title  id="title76">layer 17</title>
                    <g gorn="0.4.0.0.2.1"  id="g78">
                        <title  id="title80">element:U$2</title>
                        <g gorn="0.4.0.0.2.1.1"  id="g82">
                            <title  id="title84">package:LOGO-L</title>
                        </g>
                    </g>
                    <g gorn="0.4.0.0.2.2"  id="g86">
                        <title  id="title88">element:U$3</title>
                        <g gorn="0.4.0.0.2.2.1"  id="g90">
                            <title  id="title92">package:PETAL-SMALL-2SIDE</title>
                        </g>
                    </g>
                    <g gorn="0.4.0.0.2.3"  id="g94">
                        <title  id="title96">element:U$4</title>
                        <g gorn="0.4.0.0.2.3.1"  id="g98">
                            <title  id="title100">package:PETAL-SMALL-2SIDE</title>
                        </g>
                    </g>
                    <g gorn="0.4.0.0.2.4"  id="g102">
                        <title  id="title104">element:U$5</title>
                        <g gorn="0.4.0.0.2.4.1"  id="g106">
                            <title  id="title108">package:PETAL-SMALL-2SIDE</title>
                        </g>
                    </g>
                    <g gorn="0.4.0.0.2.5"  id="g110">
                        <title  id="title112">element:U$8</title>
                        <g gorn="0.4.0.0.2.5.1"  id="g114">
                            <title  id="title116">package:PETAL-SMALL-2SIDE</title>
                        </g>
                    </g>
                    <g gorn="0.4.0.0.2.6"  id="g118">
                        <title  id="title120">element:U$9</title>
                        <g gorn="0.4.0.0.2.6.1"  id="g122">
                            <title  id="title124">package:PETAL-SMALL-2SIDE</title>
                        </g>
                    </g>
                    <g gorn="0.4.0.0.2.7"  id="g126">
                        <title  id="title128">element:U$10</title>
                        <g gorn="0.4.0.0.2.7.1"  id="g130">
                            <title  id="title132">package:PETAL-SMALL-2SIDE</title>
                        </g>
                    </g>
                </g>
                <g gorn="0.4.0.0.3"  id="g134">
                    <title  id="title136">layer 20</title>
                    <circle stroke="white" gorn="0.4.0.0.3.1" cx="28.3465" cy="28.3465"  r="28.3465" fill="none" stroke-width="0.576" id="circle138"/>
                    <g gorn="0.4.0.0.3.2"  id="g140">
                        <title  id="title142">element:U$2</title>
                        <g gorn="0.4.0.0.3.2.1"  id="g144">
                            <title  id="title146">package:LOGO-L</title>
                        </g>
                    </g>
                    <g gorn="0.4.0.0.3.3"  id="g148">
                        <title  id="title150">element:U$3</title>
                        <g gorn="0.4.0.0.3.3.1"  id="g152">
                            <title  id="title154">package:PETAL-SMALL-2SIDE</title>
                        </g>
                    </g>
                    <g gorn="0.4.0.0.3.4"  id="g156">
                        <title  id="title158">element:U$4</title>
                        <g gorn="0.4.0.0.3.4.1"  id="g160">
                            <title  id="title162">package:PETAL-SMALL-2SIDE</title>
                        </g>
                    </g>
                    <g gorn="0.4.0.0.3.5"  id="g164">
                        <title  id="title166">element:U$5</title>
                        <g gorn="0.4.0.0.3.5.1"  id="g168">
                            <title  id="title170">package:PETAL-SMALL-2SIDE</title>
                        </g>
                    </g>
                    <g gorn="0.4.0.0.3.6"  id="g172">
                        <title  id="title174">element:U$8</title>
                        <g gorn="0.4.0.0.3.6.1"  id="g176">
                            <title  id="title178">package:PETAL-SMALL-2SIDE</title>
                        </g>
                    </g>
                    <g gorn="0.4.0.0.3.7"  id="g180">
                        <title  id="title182">element:U$9</title>
                        <g gorn="0.4.0.0.3.7.1"  id="g184">
                            <title  id="title186">package:PETAL-SMALL-2SIDE</title>
                        </g>
                    </g>
                    <g gorn="0.4.0.0.3.8"  id="g188">
                        <title  id="title190">element:U$10</title>
                        <g gorn="0.4.0.0.3.8.1"  id="g192">
                            <title  id="title194">package:PETAL-SMALL-2SIDE</title>
                        </g>
                    </g>
                </g>
                <g gorn="0.4.0.0.4"  id="g196">
                    <title  id="title198">layer 1</title>
                    <g gorn="0.4.0.0.4.1"  id="g200">
                        <title  id="title202">element:U$2</title>
                        <g gorn="0.4.0.0.4.1.1"  id="g204">
                            <title  id="title206">package:LOGO-L</title>
                        </g>
                    </g>
                    <g gorn="0.4.0.0.4.2"  id="g208">
                        <title  id="title210">element:U$3</title>
                        <g gorn="0.4.0.0.4.2.1"  id="g212">
                            <title  id="title214">package:PETAL-SMALL-2SIDE</title>
                            <g gorn="0.4.0.0.4.2.1.1"  id="g216">
                                <title  id="title218">polygon</title>
                                <path stroke-linecap="round" stroke="none" gorn="0.4.0.0.4.2.1.1.1"  d="M14.5009,12.5052L13.6215,11.9713L12.6707,11.5782L11.6711,11.335L10.646,11.2475L9.61956,11.3178L8.61588,11.5441L7.65871,11.9212L6.77038,12.4402L5.97185,13.089L5.28189,13.8522L4.71671,14.7118L4.2548,15.6311L3.93885,16.6103L3.7763,17.6261L3.77097,18.655L3.92298,19.6725L4.22877,20.6548L4.68114,21.5788L5.26946,22.4229L5.97988,23.167L6.79573,23.7938L7.69781,24.2886L7.30231,23.1427L7.07373,21.9524L7.01674,20.7415L7.13246,19.5349L7.41859,18.357L7.86924,17.2318L8.47526,16.182L9.2245,15.2291L10.1015,14.3924L11.0886,13.6889L12.1657,13.1328L13.3109,12.7356L14.5009,12.5052" fill="white" stroke-width="0" id="path220"/>
                            </g>
                        </g>
                    </g>
                    <g gorn="0.4.0.0.4.3"  id="g222">
                        <title  id="title224">element:U$4</title>
                        <g gorn="0.4.0.0.4.3.1"  id="g226">
                            <title  id="title228">package:PETAL-SMALL-2SIDE</title>
                            <g gorn="0.4.0.0.4.3.1.1"  id="g230">
                                <title  id="title232">polygon</title>
                                <path stroke-linecap="round" stroke="none" gorn="0.4.0.0.4.3.1.1.1"  d="M48.9951,24.2886L49.8972,23.7938L50.7131,23.167L51.4235,22.4229L52.0118,21.5788L52.4642,20.6548L52.77,19.6725L52.9219,18.655L52.9166,17.6261L52.754,16.6103L52.4381,15.6311L51.9762,14.7118L51.411,13.8522L50.721,13.089L49.9225,12.4402L49.0342,11.9212L48.077,11.5441L47.0734,11.3178L46.047,11.2475L45.0219,11.335L44.0222,11.5782L43.0714,11.9713L42.1919,12.5052L43.382,12.7356L44.5272,13.1328L45.6043,13.6889L46.5914,14.3924L47.4684,15.2291L48.2176,16.182L48.8237,17.2318L49.2744,18.357L49.5605,19.5349L49.6762,20.7415L49.6192,21.9524L49.3906,23.1427L48.9951,24.2886" fill="white" stroke-width="0" id="path234"/>
                            </g>
                        </g>
                    </g>
                    <g gorn="0.4.0.0.4.4"  id="g236">
                        <title  id="title238">element:U$5</title>
                        <g gorn="0.4.0.0.4.4.1"  id="g240">
                            <title  id="title242">package:PETAL-SMALL-2SIDE</title>
                            <g gorn="0.4.0.0.4.4.1.1"  id="g244">
                                <title  id="title246">polygon</title>
                                <path stroke-linecap="round" stroke="none" gorn="0.4.0.0.4.4.1.1.1"  d="M21.5433,48.2457L21.5207,49.2743L21.6556,50.2942L21.9449,51.2815L22.3816,52.213L22.9557,53.0668L23.6535,53.8228L24.4588,54.4632L25.3524,54.973L26.3135,55.3402L27.3194,55.5561L28.3465,55.6158L29.3736,55.5561L30.3795,55.3402L31.3405,54.973L32.2342,54.4632L33.0394,53.8228L33.7372,53.0668L34.3113,52.213L34.7481,51.2815L35.0373,50.2942L35.1722,49.2743L35.1496,48.2457L34.3551,49.1611L33.4384,49.9542L32.4184,50.609L31.3155,51.1121L30.1524,51.4533L28.9525,51.6257L27.7404,51.6257L26.5406,51.4533L25.3774,51.1121L24.2746,50.609L23.2545,49.9542L22.3379,49.1611L21.5433,48.2457" fill="white" stroke-width="0" id="path248"/>
                            </g>
                        </g>
                    </g>
                    <g gorn="0.4.0.0.4.5"  id="g250">
                        <title  id="title252">element:U$8</title>
                        <g gorn="0.4.0.0.4.5.1"  id="g254">
                            <title  id="title256">package:PETAL-SMALL-2SIDE</title>
                            <g gorn="0.4.0.0.4.5.1.1"  id="g258">
                                <title  id="title260">polygon</title>
                                <path stroke-linecap="round" stroke="none" gorn="0.4.0.0.4.5.1.1.1"  d="M7.70911,32.376L6.80707,32.8707L5.99122,33.4975L5.2808,34.2417L4.69248,35.0857L4.24011,36.0097L3.93432,36.9921L3.78231,38.0096L3.78764,39.0384L3.95019,40.0543L4.26613,41.0334L4.72805,41.9527L5.29323,42.8124L5.98319,43.5756L6.78172,44.2243L7.67002,44.7434L8.62726,45.1205L9.63086,45.3468L10.6573,45.4171L11.6824,45.3296L12.6821,45.0864L13.6328,44.6933L14.5123,44.1594L13.3222,43.929L12.177,43.5318L11.1,42.9757L10.1128,42.2722L9.2358,41.4355L8.48664,40.4826L7.88054,39.4328L7.4299,38.3075L7.1438,37.1297L7.02808,35.923L7.08507,34.7122L7.31362,33.5218L7.70911,32.376" fill="white" stroke-width="0" id="path262"/>
                            </g>
                        </g>
                    </g>
                    <g gorn="0.4.0.0.4.6"  id="g264">
                        <title  id="title266">element:U$9</title>
                        <g gorn="0.4.0.0.4.6.1"  id="g268">
                            <title  id="title270">package:PETAL-SMALL-2SIDE</title>
                            <g gorn="0.4.0.0.4.6.1.1"  id="g272">
                                <title  id="title274">polygon</title>
                                <path stroke-linecap="round" stroke="none" gorn="0.4.0.0.4.6.1.1.1"  d="M42.1806,44.1594L43.0601,44.6933L44.0109,45.0864L45.0105,45.3296L46.0356,45.4171L47.0621,45.3468L48.0657,45.1205L49.0229,44.7434L49.9112,44.2243L50.7097,43.5756L51.3996,42.8124L51.9648,41.9527L52.4268,41.0334L52.7427,40.0543L52.9053,39.0384L52.9106,38.0096L52.7586,36.9921L52.4528,36.0097L52.0004,35.0857L51.4121,34.2417L50.7017,33.4975L49.8858,32.8707L48.9838,32.376L49.3793,33.5218L49.6079,34.7122L49.6648,35.923L49.5491,37.1297L49.263,38.3075L48.8123,39.4328L48.2063,40.4826L47.4571,41.4355L46.58,42.2722L45.593,42.9757L44.5159,43.5318L43.3706,43.929L42.1806,44.1594" fill="white" stroke-width="0" id="path276"/>
                            </g>
                        </g>
                    </g>
                    <g gorn="0.4.0.0.4.7"  id="g278">
                        <title  id="title280">element:U$10</title>
                        <g gorn="0.4.0.0.4.7.1"  id="g282">
                            <title  id="title284">package:PETAL-SMALL-2SIDE</title>
                            <g gorn="0.4.0.0.4.7.1.1"  id="g286">
                                <title  id="title288">polygon</title>
                                <path stroke-linecap="round" stroke="none" gorn="0.4.0.0.4.7.1.1.1"  d="M35.1496,8.50392L35.1722,7.47533L35.0373,6.45541L34.7481,5.46808L34.3113,4.53658L33.7372,3.68279L33.0394,2.92681L32.2342,2.28639L31.3405,1.77659L30.3795,1.40941L29.3736,1.19347L28.3465,1.13386L27.3194,1.19347L26.3135,1.40941L25.3524,1.77659L24.4588,2.28639L23.6535,2.92681L22.9557,3.68279L22.3816,4.53658L21.9449,5.46808L21.6556,6.45541L21.5207,7.47533L21.5433,8.50392L22.3379,7.58851L23.2545,6.79536L24.2746,6.14059L25.3774,5.63751L26.5406,5.29633L27.7404,5.12399L28.9525,5.12399L30.1524,5.29633L31.3155,5.63751L32.4184,6.14059L33.4384,6.79536L34.3551,7.58851L35.1496,8.50392" fill="white" stroke-width="0" id="path290"/>
                            </g>
                        </g>
                    </g>
                </g>
                <g gorn="0.4.0.0.5"  id="g292">
                    <title  id="title294">layer 40</title>
                    <g gorn="0.4.0.0.5.1"  id="g296">
                        <title  id="title298">element:U$2</title>
                        <g gorn="0.4.0.0.5.1.1"  id="g300">
                            <title  id="title302">package:LOGO-L</title>
                        </g>
                    </g>
                    <g gorn="0.4.0.0.5.2"  id="g304">
                        <title  id="title306">element:U$3</title>
                        <g gorn="0.4.0.0.5.2.1"  id="g308">
                            <title  id="title310">package:PETAL-SMALL-2SIDE</title>
                        </g>
                    </g>
                    <g gorn="0.4.0.0.5.3"  id="g312">
                        <title  id="title314">element:U$4</title>
                        <g gorn="0.4.0.0.5.3.1"  id="g316">
                            <title  id="title318">package:PETAL-SMALL-2SIDE</title>
                        </g>
                    </g>
                    <g gorn="0.4.0.0.5.4"  id="g320">
                        <title  id="title322">element:U$5</title>
                        <g gorn="0.4.0.0.5.4.1"  id="g324">
                            <title  id="title326">package:PETAL-SMALL-2SIDE</title>
                        </g>
                    </g>
                    <g gorn="0.4.0.0.5.5"  id="g328">
                        <title  id="title330">element:U$8</title>
                        <g gorn="0.4.0.0.5.5.1"  id="g332">
                            <title  id="title334">package:PETAL-SMALL-2SIDE</title>
                        </g>
                    </g>
                    <g gorn="0.4.0.0.5.6"  id="g336">
                        <title  id="title338">element:U$9</title>
                        <g gorn="0.4.0.0.5.6.1"  id="g340">
                            <title  id="title342">package:PETAL-SMALL-2SIDE</title>
                        </g>
                    </g>
                    <g gorn="0.4.0.0.5.7"  id="g344">
                        <title  id="title346">element:U$10</title>
                        <g gorn="0.4.0.0.5.7.1"  id="g348">
                            <title  id="title350">package:PETAL-SMALL-2SIDE</title>
                        </g>
                    </g>
                </g>
                <g gorn="0.4.0.0.6"  id="g352">
                    <title  id="title354">layer 39</title>
                    <g gorn="0.4.0.0.6.1"  id="g356">
                        <title  id="title358">element:U$2</title>
                        <g gorn="0.4.0.0.6.1.1"  id="g360">
                            <title  id="title362">package:LOGO-L</title>
                        </g>
                    </g>
                    <g gorn="0.4.0.0.6.2"  id="g364">
                        <title  id="title366">element:U$3</title>
                        <g gorn="0.4.0.0.6.2.1"  id="g368">
                            <title  id="title370">package:PETAL-SMALL-2SIDE</title>
                        </g>
                    </g>
                    <g gorn="0.4.0.0.6.3"  id="g372">
                        <title  id="title374">element:U$4</title>
                        <g gorn="0.4.0.0.6.3.1"  id="g376">
                            <title  id="title378">package:PETAL-SMALL-2SIDE</title>
                        </g>
                    </g>
                    <g gorn="0.4.0.0.6.4"  id="g380">
                        <title  id="title382">element:U$5</title>
                        <g gorn="0.4.0.0.6.4.1"  id="g384">
                            <title  id="title386">package:PETAL-SMALL-2SIDE</title>
                        </g>
                    </g>
                    <g gorn="0.4.0.0.6.5"  id="g388">
                        <title  id="title390">element:U$8</title>
                        <g gorn="0.4.0.0.6.5.1"  id="g392">
                            <title  id="title394">package:PETAL-SMALL-2SIDE</title>
                        </g>
                    </g>
                    <g gorn="0.4.0.0.6.6"  id="g396">
                        <title  id="title398">element:U$9</title>
                        <g gorn="0.4.0.0.6.6.1"  id="g400">
                            <title  id="title402">package:PETAL-SMALL-2SIDE</title>
                        </g>
                    </g>
                    <g gorn="0.4.0.0.6.7"  id="g404">
                        <title  id="title406">element:U$10</title>
                        <g gorn="0.4.0.0.6.7.1"  id="g408">
                            <title  id="title410">package:PETAL-SMALL-2SIDE</title>
                        </g>
                    </g>
                </g>
                <circle stroke="#9A916C" connectorname="ALLNET" gorn="0.4.0.0.7" cx="9.62647" cy="17.5465"  r="3.83811" fill="none" stroke-width="1.44" id="connector0pin"/>
                <circle stroke="#9A916C" connectorname="ALLNET" gorn="0.4.0.0.8" cx="47.0665" cy="17.5465"  r="3.83811" fill="none" stroke-width="1.44" id="connector1pin"/>
                <circle stroke="#9A916C" connectorname="ALLNET" gorn="0.4.0.0.9" cx="28.3465" cy="49.9465"  r="3.83811" fill="none" stroke-width="1.44" id="connector2pin"/>
                <circle stroke="#9A916C" connectorname="ALLNET" gorn="0.4.0.0.10" cx="9.63778" cy="39.1181"  r="3.83811" fill="none" stroke-width="1.44" id="connector3pin"/>
                <circle stroke="#9A916C" connectorname="ALLNET" gorn="0.4.0.0.11" cx="47.0551" cy="39.1181"  r="3.83811" fill="none" stroke-width="1.44" id="connector4pin"/>
                <circle stroke="#9A916C" connectorname="ALLNET" gorn="0.4.0.0.12" cx="28.3465" cy="6.80315"  r="3.83811" fill="none" stroke-width="1.44" id="connector5pin"/>
                <circle stroke="#9A916C" connectorname="ALLNET" gorn="0.4.0.0.13" cx="21.1465" cy="21.1465"  r="1.8" fill="none" stroke-width="0.72" id="connector6pin"/>
                <circle stroke="#9A916C" connectorname="ALLNET" gorn="0.4.0.0.14" cx="28.3465" cy="21.1465"  r="1.8" fill="none" stroke-width="0.72" id="connector7pin"/>
                <circle stroke="#9A916C" connectorname="ALLNET" gorn="0.4.0.0.15" cx="35.5465" cy="21.1465"  r="1.8" fill="none" stroke-width="0.72" id="connector8pin"/>
                <circle stroke="#9A916C" connectorname="ALLNET" gorn="0.4.0.0.16" cx="35.5465" cy="28.3465"  r="1.8" fill="none" stroke-width="0.72" id="connector9pin"/>
                <circle stroke="#9A916C" connectorname="ALLNET" gorn="0.4.0.0.17" cx="42.7465" cy="28.3465"  r="1.8" fill="none" stroke-width="0.72" id="connector10pin"/>
                <circle stroke="#9A916C" connectorname="ALLNET" gorn="0.4.0.0.18" cx="35.5465" cy="35.5465"  r="1.8" fill="none" stroke-width="0.72" id="connector11pin"/>
                <circle stroke="#9A916C" connectorname="ALLNET" gorn="0.4.0.0.19" cx="28.3465" cy="35.5465"  r="1.8" fill="none" stroke-width="0.72" id="connector12pin"/>
                <circle stroke="#9A916C" connectorname="ALLNET" gorn="0.4.0.0.20" cx="28.3465" cy="28.3465"  r="1.8" fill="none" stroke-width="0.72" id="connector13pin"/>
                <circle stroke="#9A916C" connectorname="ALLNET" gorn="0.4.0.0.21" cx="21.1465" cy="28.3465"  r="1.8" fill="none" stroke-width="0.72" id="connector14pin"/>
                <circle stroke="#9A916C" connectorname="ALLNET" gorn="0.4.0.0.22" cx="21.1465" cy="35.5465"  r="1.8" fill="none" stroke-width="0.72" id="connector15pin"/>
                <circle stroke="#9A916C" connectorname="ALLNET" gorn="0.4.0.0.23" cx="13.9465" cy="28.3465"  r="1.8" fill="none" stroke-width="0.72" id="connector16pin"/>
                <circle stroke="#9A916C" connectorname="ALLNET" gorn="0.4.0.0.24" cx="28.3465" cy="13.9465"  r="1.8" fill="none" stroke-width="0.72" id="connector17pin"/>
                <circle stroke="#9A916C" connectorname="ALLNET" gorn="0.4.0.0.25" cx="28.3465" cy="42.7465"  r="1.8" fill="none" stroke-width="0.72" id="connector18pin"/>
            </g>
        </g>
        <g  transform="matrix(0.36213017,0,0,0.3520559,-14.127117,4.7835374)">
            <g >
                <g gorn="0.4.1.0.0"  id="g305">
                    <title  id="title307">element:U$13</title>
                    <g gorn="0.4.1.0.0.1"  id="g309">
                        <title  id="title311">package:LOGO-LILYPAD</title>
                        <line stroke="#ffffff" y1="108.398" gorn="0.4.1.0.0.1.1" y2="102.445"  x1="98.277" x2="98.277" fill="none" stroke-width="1.29054737" style="stroke-linecap:round" id="line313"/>
                        <path stroke="#ffffff" gorn="0.4.1.0.0.1.2"  d="m 99.976,101.027 c -0.86,-0.077 -1.621,0.558 -1.699,1.418" fill="none" stroke-width="1.29054737" id="path315"/>
                        <path stroke="#ffffff" gorn="0.4.1.0.0.1.3"  d="m 101.68,102.445 c -0.078,-0.86 -0.84,-1.495 -1.701,-1.418 0,0 0,0 -0.002,0" fill="none" stroke-width="1.29054737" id="path317"/>
                        <line stroke="#ffffff" y1="102.445" gorn="0.4.1.0.0.1.4" y2="103.014"  x1="101.68" x2="101.68" fill="none" stroke-width="1.29054737" style="stroke-linecap:round" id="line319"/>
                        <path stroke="#ffffff" gorn="0.4.1.0.0.1.5"  d="m 100.262,104.289 c 0.743,0.039 1.379,-0.531 1.418,-1.275 l 0,0" fill="none" stroke-width="1.29054737" id="path321"/>
                        <line stroke="#ffffff" y1="104.289" gorn="0.4.1.0.0.1.6" y2="104.289"  x1="100.262" x2="99.411003" fill="none" stroke-width="1.29054737" style="stroke-linecap:round" id="line323"/>
                        <path stroke="#ffffff" gorn="0.4.1.0.0.1.7"  d="m 101.537,108.398 c 0.548,-0.078 0.928,-0.586 0.85,-1.135" fill="none" stroke-width="1.29054737" id="path325"/>
                        <line stroke="#ffffff" y1="108.398" gorn="0.4.1.0.0.1.8" y2="108.398"  x1="101.537" x2="100.971" fill="none" stroke-width="1.29054737" style="stroke-linecap:round" id="line327"/>
                        <path stroke="#ffffff" gorn="0.4.1.0.0.1.9"  d="m 99.836,106.98 c -0.078,0.705 0.43,1.34 1.133,1.418 h 0.002" fill="none" stroke-width="1.29054737" id="path329"/>
                        <path stroke="#ffffff" gorn="0.4.1.0.0.1.10"  d="m 100.971,105.564 c -0.705,0.078 -1.213,0.711 -1.135,1.416" fill="none" stroke-width="1.29054737" id="path331"/>
                        <line stroke="#ffffff" y1="105.564" gorn="0.4.1.0.0.1.11" y2="105.564"  x1="100.971" x2="101.253" fill="none" stroke-width="1.29054737" style="stroke-linecap:round" id="line333"/>
                        <path stroke="#ffffff" gorn="0.4.1.0.0.1.12"  d="m 102.387,106.697 c 0,-0.625 -0.508,-1.133 -1.133,-1.133 h -0.001" fill="none" stroke-width="1.29054737" id="path335"/>
                        <line stroke="#ffffff" y1="106.697" gorn="0.4.1.0.0.1.13" y2="107.264"  x1="102.387" x2="102.387" fill="none" stroke-width="1.29054737" style="stroke-linecap:round" id="line337"/>
                        <path stroke="#ffffff" gorn="0.4.1.0.0.1.14"  d="m 102.387,107.264 c -0.117,0.51 0.2,1.019 0.709,1.135 l 0,0" fill="none" stroke-width="1.29054737" id="path339"/>
                        <path stroke="#ffffff" gorn="0.4.1.0.0.1.15"  d="m 103.096,108.398 c 0.432,0.117 0.875,-0.138 0.992,-0.566" fill="none" stroke-width="1.29054737" id="path341"/>
                        <line stroke="#ffffff" y1="107.832" gorn="0.4.1.0.0.1.16" y2="107.689"  x1="104.088" x2="104.088" fill="none" stroke-width="1.29054737" style="stroke-linecap:round" id="line343"/>
                        <line stroke="#ffffff" y1="107.689" gorn="0.4.1.0.0.1.17" y2="106.98"  x1="104.088" x2="104.088" fill="none" stroke-width="1.29054737" style="stroke-linecap:round" id="line345"/>
                        <path stroke="#ffffff" gorn="0.4.1.0.0.1.18"  d="m 105.363,105.564 c -0.743,0.037 -1.314,0.672 -1.275,1.416 l 0,0" fill="none" stroke-width="1.29054737" id="path347"/>
                        <path stroke="#ffffff" gorn="0.4.1.0.0.1.19"  d="m 106.639,107.123 c 0.078,-0.782 -0.492,-1.48 -1.275,-1.559" fill="none" stroke-width="1.29054737" id="path349"/>
                        <path stroke="#ffffff" gorn="0.4.1.0.0.1.20"  d="m 106.639,107.689 c 0.047,-0.188 0.047,-0.381 0,-0.566" fill="none" stroke-width="1.29054737" id="path351"/>
                        <path stroke="#ffffff" gorn="0.4.1.0.0.1.21"  d="m 105.788,108.541 c 0.419,-0.104 0.746,-0.432 0.851,-0.852" fill="none" stroke-width="1.29054737" id="path353"/>
                        <path stroke="#ffffff" gorn="0.4.1.0.0.1.22"  d="m 104.088,107.689 c 0.234,0.705 0.996,1.086 1.7,0.852" fill="none" stroke-width="1.29054737" id="path355"/>
                        <line stroke="#ffffff" y1="107.689" gorn="0.4.1.0.0.1.23" y2="107.973"  x1="106.639" x2="106.639" fill="none" stroke-width="1.29054737" style="stroke-linecap:round" id="line357"/>
                        <path stroke="#ffffff" gorn="0.4.1.0.0.1.24"  d="m 106.639,107.973 c 0,0.313 0.254,0.566 0.566,0.567 0,0 0,0 0.001,0" fill="none" stroke-width="1.29054737" id="path359"/>
                        <path stroke="#ffffff" gorn="0.4.1.0.0.1.25"  d="m 107.206,108.541 c 0.313,0 0.567,-0.254 0.567,-0.566 0,0 0,0 0,-0.002" fill="none" stroke-width="1.29054737" id="path361"/>
                        <line stroke="#ffffff" y1="107.406" gorn="0.4.1.0.0.1.26" y2="101.736"  x1="106.639" x2="106.639" fill="none" stroke-width="1.29054737" style="stroke-linecap:round" id="line363"/>
                        <line stroke="#ffffff" y1="104.997" gorn="0.4.1.0.0.1.27" y2="104.855"  x1="88.213997" x2="88.213997" fill="none" stroke-width="1.29054737" style="stroke-linecap:round" id="line365"/>
                        <path stroke="#ffffff" gorn="0.4.1.0.0.1.28"  d="m 82.262,100.036 c 0,2.034 1.648,3.687 3.684,3.687 l 0,0" fill="none" stroke-width="1.29054737" id="path367"/>
                        <line stroke="#ffffff" y1="103.721" gorn="0.4.1.0.0.1.29" y2="103.721"  x1="85.945" x2="86.371002" fill="none" stroke-width="1.29054737" style="stroke-linecap:round" id="line369"/>
                        <path stroke="#ffffff" gorn="0.4.1.0.0.1.30"  d="m 86.371,103.721 c 1.057,0.041 1.945,-0.785 1.984,-1.842 l 0,0" fill="none" stroke-width="1.29054737" id="path371"/>
                        <path stroke="#ffffff" gorn="0.4.1.0.0.1.31"  d="m 88.355,101.88 c 0,-0.47 -0.381,-0.853 -0.852,-0.853 l 0,0" fill="none" stroke-width="1.29054737" id="path373"/>
                        <path stroke="#ffffff" gorn="0.4.1.0.0.1.32"  d="m 84.529,107.264 c -0.273,-1.213 -1.48,-1.975 -2.693,-1.699 l 0,0" fill="none" stroke-width="1.29054737" id="path375"/>
                        <line stroke="#ffffff" y1="101.027" gorn="0.4.1.0.0.1.33" y2="101.027"  x1="87.223" x2="87.505997" fill="none" stroke-width="1.29054737" style="stroke-linecap:round" id="line377"/>
                        <path stroke="#ffffff" gorn="0.4.1.0.0.1.34"  d="m 87.223,101.027 c -1.097,0 -1.984,0.89 -1.984,1.983 l 0,0" fill="none" stroke-width="1.29054737" id="path379"/>
                        <path stroke="#ffffff" gorn="0.4.1.0.0.1.35"  d="m 81.836,105.564 c -0.822,0.117 -1.393,0.877 -1.275,1.699 l 0,0" fill="none" stroke-width="1.29054737" id="path381"/>
                        <line stroke="#ffffff" y1="104.997" gorn="0.4.1.0.0.1.36" y2="103.014"  x1="85.236" x2="85.236" fill="none" stroke-width="1.29054737" style="stroke-linecap:round" id="line383"/>
                        <path stroke="#ffffff" gorn="0.4.1.0.0.1.37"  d="m 81.836,108.398 c 1.879,0 3.402,-1.522 3.4,-3.401 l 0,0" fill="none" stroke-width="1.29054737" id="path385"/>
                        <path stroke="#ffffff" gorn="0.4.1.0.0.1.38"  d="m 80.56,107.264 c 0.039,0.666 0.607,1.174 1.273,1.135 l 0,0" fill="none" stroke-width="1.29054737" id="path387"/>
                        <path stroke="#ffffff" gorn="0.4.1.0.0.1.39"  d="m 85.236,108.257 c 1.137,0.509 2.469,10e-4 2.978,-1.134 l 0,0" fill="none" stroke-width="1.29054737" id="path389"/>
                        <line stroke="#ffffff" y1="106.697" gorn="0.4.1.0.0.1.40" y2="105.846"  x1="88.213997" x2="88.213997" fill="none" stroke-width="1.29054737" style="stroke-linecap:round" id="line391"/>
                        <line stroke="#ffffff" y1="106.697" gorn="0.4.1.0.0.1.41" y2="107.123"  x1="88.213997" x2="88.213997" fill="none" stroke-width="1.29054737" style="stroke-linecap:round" id="line393"/>
                        <line stroke="#ffffff" y1="106.415" gorn="0.4.1.0.0.1.42" y2="101.736"  x1="90.905998" x2="90.905998" fill="none" stroke-width="1.29054737" style="stroke-linecap:round" id="line395"/>
                        <path stroke="#ffffff" gorn="0.4.1.0.0.1.43"  d="m 88.214,106.697 c -0.116,0.822 0.454,1.584 1.274,1.701" fill="none" stroke-width="1.29054737" id="path397"/>
                        <path stroke="#ffffff" gorn="0.4.1.0.0.1.44"  d="m 89.488,108.398 c 0.793,-0.1 1.396,-0.763 1.418,-1.562" fill="none" stroke-width="1.29054737" id="path399"/>
                        <path stroke="#ffffff" gorn="0.4.1.0.0.1.45"  d="m 90.906,106.839 c 0.012,-0.142 0.012,-0.282 0,-0.424" fill="none" stroke-width="1.29054737" id="path401"/>
                        <line stroke="#ffffff" y1="106.98" gorn="0.4.1.0.0.1.46" y2="106.839"  x1="90.905998" x2="90.905998" fill="none" stroke-width="1.29054737" style="stroke-linecap:round" id="line403"/>
                        <path stroke="#ffffff" gorn="0.4.1.0.0.1.47"  d="m 90.906,106.98 c 0,0.783 0.635,1.418 1.417,1.418 0.001,0 0.001,0 0.001,0" fill="none" stroke-width="1.29054737" id="path405"/>
                        <path stroke="#ffffff" gorn="0.4.1.0.0.1.48"  d="m 92.324,108.398 c 0.781,0 1.417,-0.635 1.417,-1.416 0,-0.002 0,-0.002 0,-0.002" fill="none" stroke-width="1.29054737" id="path407"/>
                        <line stroke="#ffffff" y1="106.98" gorn="0.4.1.0.0.1.49" y2="105.281"  x1="93.740997" x2="93.740997" fill="none" stroke-width="1.29054737" style="stroke-linecap:round" id="line409"/>
                        <path stroke="#ffffff" gorn="0.4.1.0.0.1.50"  d="m 93.741,106.98 c 0,0.783 0.634,1.418 1.417,1.418 l 0,0" fill="none" stroke-width="1.29054737" id="path411"/>
                        <path stroke="#ffffff" gorn="0.4.1.0.0.1.51"  d="m 97.426,113.219 c -0.156,-2.035 -1.933,-3.559 -3.968,-3.402 l 0,0" fill="none" stroke-width="1.29054737" id="path413"/>
                        <path stroke="#ffffff" gorn="0.4.1.0.0.1.52"  d="m 95.158,108.398 c 0.783,0 1.418,-0.635 1.418,-1.416 0,-0.002 0,-0.002 0,-0.002" fill="none" stroke-width="1.29054737" id="path415"/>
                        <line stroke="#ffffff" y1="106.98" gorn="0.4.1.0.0.1.53" y2="105.281"  x1="96.575996" x2="96.575996" fill="none" stroke-width="1.29054737" style="stroke-linecap:round" id="line417"/>
                        <line stroke="#ffffff" y1="109.249" gorn="0.4.1.0.0.1.54" y2="106.98"  x1="96.575996" x2="96.575996" fill="none" stroke-width="1.29054737" style="stroke-linecap:round" id="line419"/>
                        <line stroke="#ffffff" y1="109.816" gorn="0.4.1.0.0.1.55" y2="109.816"  x1="92.890999" x2="93.458" fill="none" stroke-width="1.29054737" style="stroke-linecap:round" id="line421"/>
                        <path stroke="#ffffff" gorn="0.4.1.0.0.1.56"  d="m 92.891,109.816 c -0.938,0 -1.699,0.762 -1.699,1.699 l 0,0" fill="none" stroke-width="1.29054737" id="path423"/>
                        <path stroke="#ffffff" gorn="0.4.1.0.0.1.57"  d="m 92.891,112.934 c 2.035,0 3.688,-1.648 3.688,-3.686" fill="none" stroke-width="1.29054737" id="path425"/>
                        <line stroke="#ffffff" y1="112.934" gorn="0.4.1.0.0.1.58" y2="112.934"  x1="92.607002" x2="92.890999" fill="none" stroke-width="1.29054737" style="stroke-linecap:round" id="line427"/>
                        <path stroke="#ffffff" gorn="0.4.1.0.0.1.59"  d="m 91.189,111.516 c 0,0.783 0.635,1.418 1.418,1.418" fill="none" stroke-width="1.29054737" id="path429"/>
                        <path stroke="#ffffff" gorn="0.4.1.0.0.1.60"  d="m 84.529,107.264 c 0.156,0.783 0.918,1.291 1.699,1.135 l 0,0" fill="none" stroke-width="1.29054737" id="path431"/>
                    </g>
                </g>
            </g>
        </g>
    </g>
</svg>
