<?xml version='1.0' encoding='UTF-8' standalone='no'?>
<!-- Created with Fritzing (http://www.fritzing.org/) -->
<svg xmlns="http://www.w3.org/2000/svg" height="0.4in"  width="0.55in" version="1.2" gorn="0" y="0in" viewBox="0 0 39.6 28.8" x="0in" id="svg353">
    <desc >
        <referenceFile >SparkFun_Analog_MEMS_Microphone_Breakout_ICS40180_breadboard.svg</referenceFile>
    </desc>
    <metadata  id="metadata359">
        <rdf:RDF xmlns:rdf="http://www.w3.org/1999/02/22-rdf-syntax-ns#">
            <cc:Work xmlns:cc="http://creativecommons.org/ns#" xmlns:rdf="http://www.w3.org/1999/02/22-rdf-syntax-ns#" rdf:about="">
                <dc:format xmlns:dc="http://purl.org/dc/elements/1.1/">image/svg+xml</dc:format>
                <dc:type rdf:resource="http://purl.org/dc/dcmitype/StillImage" xmlns:rdf="http://www.w3.org/1999/02/22-rdf-syntax-ns#" xmlns:dc="http://purl.org/dc/elements/1.1/"/>
                <dc:title xmlns:dc="http://purl.org/dc/elements/1.1/"/>
            </cc:Work>
        </rdf:RDF>
    </metadata>
    <defs  id="defs357"/>
    <desc  id="desc2">Fritzing breadboard generated by brd2svg</desc>
    <g  gorn="0.4" id="breadboard">
        <g  gorn="0.4.0" id="icon">
            <path  gorn="0.4.0.0" id="path4" stroke-width="0" fill="#e6321e" d="M 0,28.8 H 39.6 V 0 H 0 V 28.8 M 5.92441,18 a 1.27559,1.27559 0 1 1 2.55118,0 1.27559,1.27559 0 1 1 -2.55118,0 z M 34.56,21.6 a 1.44,1.44 0 1 1 2.88,0 1.44,1.44 0 1 1 -2.88,0 z m 0,-7.2 a 1.44,1.44 0 1 1 2.88,0 1.44,1.44 0 1 1 -2.88,0 z m 0,-7.2 a 1.44,1.44 0 1 1 2.88,0 1.44,1.44 0 1 1 -2.88,0 z" stroke="none"/>
            <g  gorn="0.4.0.1" id="g286">
                <title  id="title6">layer 21</title>
                <g  gorn="0.4.0.1.1" id="g14">
                    <title  id="title8">element:C1</title>
                    <g  gorn="0.4.0.1.1.1" id="g12">
                        <title  id="title10">package:0603</title>
                    </g>
                </g>
                <g  gorn="0.4.0.1.2" id="g22">
                    <title  id="title16">element:C2</title>
                    <g  gorn="0.4.0.1.2.1" id="g20">
                        <title  id="title18">package:0603</title>
                    </g>
                </g>
                <g  gorn="0.4.0.1.3" id="g30">
                    <title  id="title24">element:C3</title>
                    <g  gorn="0.4.0.1.3.1" id="g28">
                        <title  id="title26">package:0603</title>
                    </g>
                </g>
                <g  gorn="0.4.0.1.4" id="g38">
                    <title  id="title32">element:C4</title>
                    <g  gorn="0.4.0.1.4.1" id="g36">
                        <title  id="title34">package:0603</title>
                    </g>
                </g>
                <g  gorn="0.4.0.1.5" id="g46">
                    <title  id="title40">element:FD1</title>
                    <g  gorn="0.4.0.1.5.1" id="g44">
                        <title  id="title42">package:FIDUCIAL-MICRO</title>
                    </g>
                </g>
                <g  gorn="0.4.0.1.6" id="g54">
                    <title  id="title48">element:FD2</title>
                    <g  gorn="0.4.0.1.6.1" id="g52">
                        <title  id="title50">package:FIDUCIAL-MICRO</title>
                    </g>
                </g>
                <g  gorn="0.4.0.1.7" id="g62">
                    <title  id="title56">element:FD3</title>
                    <g  gorn="0.4.0.1.7.1" id="g60">
                        <title  id="title58">package:FIDUCIAL-MICRO</title>
                    </g>
                </g>
                <g  gorn="0.4.0.1.8" id="g70">
                    <title  id="title64">element:FD4</title>
                    <g  gorn="0.4.0.1.8.1" id="g68">
                        <title  id="title66">package:FIDUCIAL-MICRO</title>
                    </g>
                </g>
                <g  gorn="0.4.0.1.9" id="g78">
                    <title  id="title72">element:JP1</title>
                    <g  gorn="0.4.0.1.9.1" id="g76">
                        <title  id="title74">package:1X03_NO_SILK</title>
                    </g>
                </g>
                <g  gorn="0.4.0.1.10" id="g86">
                    <title  id="title80">element:LOGO1</title>
                    <g  gorn="0.4.0.1.10.1" id="g84">
                        <title  id="title82">package:SFE_LOGO_FLAME_.1</title>
                    </g>
                </g>
                <g  gorn="0.4.0.1.11" id="g94">
                    <title  id="title88">element:LOGO2</title>
                    <g  gorn="0.4.0.1.11.1" id="g92">
                        <title  id="title90">package:OSHW-LOGO-MINI</title>
                    </g>
                </g>
                <g  gorn="0.4.0.1.12" id="g108">
                    <title  id="title96">element:LOGO3</title>
                    <g  gorn="0.4.0.1.12.1" id="g106">
                        <title  id="title98">package:SFE_LOGO_FLAME_.1</title>
                        <g  gorn="0.4.0.1.12.1.1" id="g104">
                            <title  id="title100">polygon</title>
                            <path  gorn="0.4.0.1.12.1.1.1" style="stroke-linecap:round" id="path102" stroke-width="0.21600001" fill="none" d="m 2.94973,23.3331 h 0.25512 m 0,0 0.08504,0.0284 m 0,0 0.05669,0.0283 m 0,0 0.08504,0.085 m 0,0 0.02835,0.085 m 0,0 v 0.0851 m 0,0 -0.0567,0.2268 m 0,0 -0.05669,0.1134 m 0,0 -0.05669,0.085 m 0,0 -0.08504,0.1134 m 0,0 -0.17008,0.1701 m 0,0 -0.17008,0.1134 m 0,0 -0.11338,0.0283 m 0,0 H 2.58123 m 0,0 -0.08504,-0.0283 m 0,0 -0.05669,-0.0284 m 0,0 -0.08504,-0.0567 m 0,0 -0.08504,-0.1134 m 0,0 -0.05669,-0.1134 m 0,0 -0.02835,-0.1417 m 0,0 L 2.15603,23.9 m 0,0 v -0.17 m 0,0 0.02835,-0.0568 m 0,0 v -0.0283 m 0,0 -0.02835,0.0283 m 0,0 -0.08504,0.1134 m 0,0 -0.19842,0.3969 m 0,0 -0.05669,0.2551 m 0,0 v 0.2835 m 0,0 0.05669,0.3118 m 0,0 0.17008,0.3118 m 0,0 0.19842,0.2551 m 0,0 0.22677,0.1417 m 0,0 0.25512,0.0851 m 0,0 h 0.22677 m 0,0 0.25512,-0.0567 m 0,0 0.25512,-0.1417 m 0,0 0.22677,-0.1984 m 0,0 0.25512,-0.2268 m 0,0 0.19842,-0.1985 m 0,0 0.22677,-0.085 m 0,0 h 0.19843 m 0,0 0.17008,0.0567 m 0,0 0.14173,0.1134 m 0,0 0.11339,0.1701 m 0,0 0.05669,0.2267 m 0,0 v 0.2268 m 0,0 -0.02834,0.1417 m 0,0 -0.0567,0.1418 m 0,0 -0.17007,0.1701 m 0,0 -0.08504,0.0566 m 0,0 -0.08505,0.0284 m 0,0 H 4.50878 m 0,0 -0.08504,-0.0284 m 0,0 -0.17007,-0.17 m 0,0 -0.02835,-0.0851 m 0,0 -0.05669,-0.1134 m 0,0 -0.02835,-0.0283 m 0,0 -0.05669,0.1134 m 0,0 v 0.3402 m 0,0 0.02834,0.17 m 0,0 0.02835,0.1417 m 0,0 0.05669,0.1418 m 0,0 0.08504,0.1134 m 0,0 0.11339,0.1417 m 0,0 0.28347,0.17 m 0,0 0.19842,0.0568 m 0,0 0.22678,0.0283 m 0,0 h 3.88347 m 0,0 -0.14176,-0.1417 m 0,0 -0.1417,-0.0851 m 0,0 -0.14177,-0.1417 m 0,0 -0.17006,-0.1417 m 0,0 -0.34013,-0.3401 m 0,0 -0.39686,-0.3402 m 0,0 -0.28347,-0.2835 m 0,0 -0.17006,-0.2835 m 0,0 -0.02838,-0.17 m 0,0 v -0.5386 m 0,0 -0.05669,-0.3402 m 0,0 -0.08504,-0.3118 m 0,0 -0.11338,-0.2835 m 0,0 -0.17008,-0.2835 m 0,0 -0.19843,-0.2267 m 0,0 -0.22677,-0.2268 m 0,0 -0.25512,-0.1984 m 0,0 -0.51023,-0.2835 m 0,0 -0.53858,-0.1417 m 0,0 -0.4819,-0.0283 m 0,0 -0.45354,0.085 m 0,0 -0.4252,0.1418 m 0,0 -0.31181,0.1984 m 0,0 -0.25512,0.2267 m 0,0 -0.14173,0.2268 M 8.784,27.2449 V 27.0661 M 8.568,27.2449 V 26.8821 M 8.352,27.2449 V 26.6944 M 8.136,27.2449 V 26.4784 M 7.92,27.2449 V 26.2813 M 7.704,27.2449 V 26.0962 M 7.488,27.2449 V 25.8871 M 7.272,27.2449 V 25.6046 M 7.056,27.2449 V 24.2162 M 6.84,27.2449 v -3.532 m -0.216,3.532 V 23.418 m -0.216,3.8269 v -4.0536 m -0.216,4.0536 v -4.2404 m -0.216,4.2404 v -4.388 m -0.216,4.388 v -4.508 m -0.216,4.508 v -4.624 m -0.216,4.624 V 22.564 M 5.112,27.2449 V 22.5072 M 4.896,27.2189 V 26.064 m 0,-0.9454 V 22.4754 M 4.68,27.1602 v -0.9267 m 0,-1.2748 V 22.4628 M 4.464,27.031 v -0.7931 m 0,-1.3174 v -2.4524 m -0.216,4.3346 v -0.7653 m 0,-1.0723 V 22.5086 M 4.032,25.1138 V 22.5566 M 3.816,25.3158 V 22.6286 M 3.6,25.5066 v -2.7883 m -0.216,2.9531 v -1.7611 m 0,-0.4831 v -0.5714 m -0.216,2.9233 v -1.5587 m 0,-0.8873 v -0.2948 m -0.216,2.7888 v -1.4184 m 0,-1.0756 V 23.3294 M 2.736,25.8276 V 24.4953 M 2.52,25.7599 v -1.285 M 2.304,25.6401 V 24.3146 M 2.088,25.404 v -1.64 M 1.872,25.0308 V 24.186" stroke="#ffffff"/>
                        </g>
                    </g>
                </g>
                <g  gorn="0.4.0.1.13" id="g116">
                    <title  id="title110">element:R1</title>
                    <g  gorn="0.4.0.1.13.1" id="g114">
                        <title  id="title112">package:0603</title>
                    </g>
                </g>
                <g  gorn="0.4.0.1.14" id="g124">
                    <title  id="title118">element:R2</title>
                    <g  gorn="0.4.0.1.14.1" id="g122">
                        <title  id="title120">package:0603</title>
                    </g>
                </g>
                <g  gorn="0.4.0.1.15" id="g132">
                    <title  id="title126">element:R3</title>
                    <g  gorn="0.4.0.1.15.1" id="g130">
                        <title  id="title128">package:0603</title>
                    </g>
                </g>
                <g  gorn="0.4.0.1.16" id="g140">
                    <title  id="title134">element:R4</title>
                    <g  gorn="0.4.0.1.16.1" id="g138">
                        <title  id="title136">package:0603</title>
                    </g>
                </g>
                <g  gorn="0.4.0.1.17" id="g148">
                    <title  id="title142">element:U$1</title>
                    <g  gorn="0.4.0.1.17.1" id="g146">
                        <title  id="title144">package:ICS#401800</title>
                    </g>
                </g>
                <g  gorn="0.4.0.1.18" id="g156">
                    <title  id="title150">element:U$2</title>
                    <g  gorn="0.4.0.1.18.1" id="g154">
                        <title  id="title152">package:MEMS_MIC0</title>
                    </g>
                </g>
                <g  gorn="0.4.0.1.19" id="g164">
                    <title  id="title158">element:U$3</title>
                    <g  gorn="0.4.0.1.19.1" id="g162">
                        <title  id="title160">package:#GND#0</title>
                    </g>
                </g>
                <g  gorn="0.4.0.1.20" id="g172">
                    <title  id="title166">element:U$4</title>
                    <g  gorn="0.4.0.1.20.1" id="g170">
                        <title  id="title168">package:#VCC#0</title>
                    </g>
                </g>
                <g  gorn="0.4.0.1.21" id="g180">
                    <title  id="title174">element:U$5</title>
                    <g  gorn="0.4.0.1.21.1" id="g178">
                        <title  id="title176">package:#AUD#0</title>
                    </g>
                </g>
                <g  gorn="0.4.0.1.22" id="g242">
                    <title  id="title182">element:U$6</title>
                    <g  gorn="0.4.0.1.22.1" id="g240">
                        <title  id="title184">package:ICS#401800</title>
                        <g  gorn="0.4.0.1.22.1.1" id="g190">
                            <title  id="title186">polygon</title>
                            <path  gorn="0.4.0.1.22.1.1.1" style="stroke-linecap:round" id="path188" stroke-width="0.0283465" fill="none" d="m 9.62309,24.7601 v 2.6646 m 0,0 0.05666,0.1984 m 0,0 0.17007,0.1133 m 0,0 h 0.31178 m 0,0 0.1985,-0.085 m 0,0 0.085,-0.1701 m 0,0 v -2.6646 m 0,0 -0.0284,-0.2551 m 0,0 -0.1134,-0.1417 m 0,0 -0.2551,-0.0567 m 0,0 -0.28342,0.0284 m 0,0 -0.1134,0.1417 m 0,0 -0.02829,0.2268 m 0.22673,2.9763 H 10.1616 M 9.80734,27.7081 H 10.2277 M 9.76478,27.6798 H 10.2939 M 9.72223,27.6514 H 10.3601 M 9.67975,27.6231 H 10.3743 M 9.67162,27.5947 H 10.3884 M 9.66355,27.5664 H 10.4026 M 9.65542,27.538 H 10.4167 M 9.64735,27.5097 H 10.4309 M 9.63922,27.4813 H 10.4451 M 9.63115,27.453 H 10.4451 M 9.62309,27.4247 H 10.4451 M 9.62309,27.3963 H 10.4451 M 9.62309,27.3679 H 10.4451 M 9.62309,27.3396 H 10.4451 M 9.62309,27.3113 H 10.4451 M 9.62309,27.2829 H 10.4451 M 9.62309,27.2545 H 10.4451 M 9.62309,27.2262 H 10.4451 M 9.62309,27.1979 H 10.4451 M 9.62309,27.1695 H 10.4451 M 9.62309,27.1412 H 10.4451 M 9.62309,27.1128 H 10.4451 M 9.62309,27.0845 H 10.4451 M 9.62309,27.0562 H 10.4451 M 9.62309,27.0278 H 10.4451 M 9.62309,26.9994 H 10.4451 M 9.62309,26.9711 H 10.4451 M 9.62309,26.9428 H 10.4451 M 9.62309,26.9144 H 10.4451 M 9.62309,26.886 H 10.4451 M 9.62309,26.8577 H 10.4451 M 9.62309,26.8294 H 10.4451 M 9.62309,26.801 H 10.4451 M 9.62309,26.7727 H 10.4451 M 9.62309,26.7443 H 10.4451 M 9.62309,26.716 H 10.4451 M 9.62309,26.6876 H 10.4451 M 9.62309,26.6593 H 10.4451 M 9.62309,26.6309 H 10.4451 M 9.62309,26.6026 H 10.4451 M 9.62309,26.5743 H 10.4451 M 9.62309,26.5459 H 10.4451 M 9.62309,26.5175 H 10.4451 M 9.62309,26.4892 H 10.4451 M 9.62309,26.4609 H 10.4451 M 9.62309,26.4325 H 10.4451 M 9.62309,26.4041 H 10.4451 M 9.62309,26.3758 H 10.4451 M 9.62309,26.3475 H 10.4451 M 9.62309,26.3191 H 10.4451 M 9.62309,26.2908 H 10.4451 M 9.62309,26.2624 H 10.4451 M 9.62309,26.2341 H 10.4451 M 9.62309,26.2058 H 10.4451 M 9.62309,26.1774 H 10.4451 M 9.62309,26.149 H 10.4451 M 9.62309,26.1207 H 10.4451 M 9.62309,26.0924 H 10.4451 M 9.62309,26.064 H 10.4451 M 9.62309,26.0356 H 10.4451 M 9.62309,26.0073 H 10.4451 M 9.62309,25.979 H 10.4451 M 9.62309,25.9506 H 10.4451 M 9.62309,25.9222 H 10.4451 M 9.62309,25.8939 H 10.4451 M 9.62309,25.8656 H 10.4451 M 9.62309,25.8372 H 10.4451 M 9.62309,25.8089 H 10.4451 M 9.62309,25.7805 H 10.4451 M 9.62309,25.7522 H 10.4451 M 9.62309,25.7239 H 10.4451 M 9.62309,25.6955 H 10.4451 M 9.62309,25.6671 H 10.4451 M 9.62309,25.6388 H 10.4451 M 9.62309,25.6105 H 10.4451 M 9.62309,25.5821 H 10.4451 M 9.62309,25.5537 H 10.4451 M 9.62309,25.5254 H 10.4451 M 9.62309,25.4971 H 10.4451 M 9.62309,25.4687 H 10.4451 M 9.62309,25.4404 H 10.4451 M 9.62309,25.412 H 10.4451 M 9.62309,25.3837 H 10.4451 M 9.62309,25.3553 H 10.4451 M 9.62309,25.327 H 10.4451 M 9.62309,25.2986 H 10.4451 M 9.62309,25.2703 H 10.4451 M 9.62309,25.242 H 10.4451 M 9.62309,25.2136 H 10.4451 M 9.62309,25.1852 H 10.4451 M 9.62309,25.1569 H 10.4451 M 9.62309,25.1286 H 10.4451 M 9.62309,25.1002 H 10.4451 M 9.62309,25.0718 H 10.4451 M 9.62309,25.0435 H 10.4451 M 9.62309,25.0152 H 10.4451 M 9.62309,24.9868 H 10.4451 M 9.62309,24.9585 H 10.4451 M 9.62309,24.9301 H 10.4451 M 9.62309,24.9018 H 10.4451 M 9.62309,24.8735 H 10.4451 M 9.62309,24.8451 H 10.4451 M 9.62309,24.8167 H 10.4451 M 9.62309,24.7884 H 10.4419 M 9.62309,24.7601 H 10.4388 M 9.62662,24.7317 H 10.4357 M 9.63014,24.7033 H 10.4325 M 9.63367,24.675 H 10.4293 M 9.6372,24.6467 h 0.789 M 9.6408,24.6183 h 0.7823 M 9.64433,24.59 H 10.4199 M 9.64786,24.5616 H 10.4167 M 9.65138,24.5333 H 10.3941 M 9.67406,24.5049 H 10.3714 M 9.69674,24.4766 H 10.3487 M 9.71942,24.4482 H 10.326 M 9.7421,24.4199 h 0.5612 M 9.76478,24.3916 h 0.41102" stroke="#ffffff"/>
                        </g>
                        <g  gorn="0.4.0.1.22.1.2" id="g196">
                            <title  id="title192">polygon</title>
                            <path  gorn="0.4.0.1.22.1.2.1" style="stroke-linecap:round" id="path194" stroke-width="0.0283465" fill="none" d="m 13.2798,26.801 -0.2268,0.085 m 0,0 -0.2268,0.0284 m 0,0 -0.2268,-0.0284 m 0,0 -0.2267,-0.085 m 0,0 -0.1984,-0.1134 m 0,0 -0.1702,-0.1984 m 0,0 -0.085,-0.2268 m 0,0 -0.0283,-0.2268 m 0,0 0.0283,-0.2551 m 0,0 0.085,-0.2268 m 0,0 0.1418,-0.17 m 0,0 0.1984,-0.1417 m 0,0 0.2268,-0.1134 m 0,0 0.2268,-0.0284 m 0,0 0.2551,0.0284 m 0,0 0.1984,0.085 m 0,0 0.2268,0.1417 m 0,0 h 0.17 m 0,0 0.1985,-0.1701 m 0,0 0.1417,-0.2267 m 0,0 -0.0283,-0.2268 m 0,0 L 13.79,24.59 m 0,0 -0.1984,-0.1418 m 0,0 -0.2268,-0.085 m 0,0 -0.2551,-0.0566 m 0,0 -0.2268,-0.0284 m 0,0 -0.2267,0.0284 m 0,0 -0.2268,0.0282 m 0,0 -0.2268,0.0851 m 0,0 -0.2551,0.085 m 0,0 -0.1985,0.1418 m 0,0 -0.17,0.1417 m 0,0 -0.1701,0.1701 m 0,0 -0.1134,0.1984 m 0,0 -0.1134,0.2268 m 0,0 -0.0567,0.2268 m 0,0 -0.0283,0.2267 m 0,0 v 0.2552 m 0,0 0.0283,0.2551 m 0,0 0.0567,0.2268 m 0,0 0.085,0.2267 m 0,0 0.1134,0.1984 m 0,0 0.1701,0.1701 m 0,0 0.1701,0.1701 m 0,0 0.1984,0.1417 m 0,0 0.1984,0.1134 m 0,0 0.2268,0.0851 m 0,0 0.2268,0.0566 m 0,0 h 0.4819 m 0,0 0.2268,-0.0566 m 0,0 0.255,-0.0851 m 0,0 0.1701,-0.1134 m 0,0 0.1984,-0.1417 m 0,0 0.0568,-0.2268 m 0,0 -0.1134,-0.2268 m 0,0 -0.1701,-0.1984 m 0,0 h -0.17 m 0,0 -0.2268,0.1134 m -0.7087,0.9354 h 0.4819 m -0.5953,-0.0283 h 0.7087 m -0.8221,-0.0283 h 0.9355 m -1.0111,-0.0284 h 1.0961 m -1.1717,-0.0283 h 1.2567 m -1.3323,-0.0284 h 1.4173 m -1.4669,-0.0283 h 1.5095 M 12.0183,27.538 h 1.6016 m -1.6512,-0.0283 h 1.6937 m -1.7433,-0.0284 h 1.7858 M 11.8794,27.453 h 1.8653 m -1.9049,-0.0283 h 1.9445 m -1.9842,-0.0284 h 2.0239 m -2.0636,-0.0284 h 2.1033 m -2.143,-0.0283 h 2.1826 m -2.2109,-0.0283 h 2.2181 M 11.664,27.2829 h 2.2535 m -2.2819,-0.0284 h 2.2891 m -2.3174,-0.0283 h 2.3244 M 11.579,27.1979 h 2.3598 m -2.3882,-0.0284 h 2.3953 m -2.4237,-0.0283 h 2.4308 m -2.4591,-0.0284 h 2.4662 m -2.4945,-0.0283 h 2.4803 m -2.5087,-0.0283 h 2.4945 m -2.5228,-0.0284 h 2.5086 m -2.537,-0.0284 h 2.5228 m -2.539,-0.0283 h 2.5249 m -2.5411,-0.0283 h 2.5269 m -2.5431,-0.0284 h 1.4943 m 0,0 h 1.0347 M 11.3157,26.886 h 1.2837 m 0.4536,0 h 0.7937 m -2.5472,-0.0283 h 1.2243 m 0.6048,0 h 0.6938 m -2.5391,-0.0283 h 1.1649 m 0.756,0 h 0.5939 m -2.531,-0.0284 h 1.1056 m 0.9071,0 h 0.494 m -2.5172,-0.0283 h 1.0665 m 1.0133,0 h 0.4131 m -2.5036,-0.0284 h 1.0276 m 1.1197,0 h 0.332 m -2.49,-0.0283 h 0.9887 m 1.2259,0 h 0.2511 m -2.4762,-0.0284 h 0.9496 M 11.214,26.6593 h 0.9359 m -0.9466,-0.0284 h 0.9224 m -0.9329,-0.0283 h 0.9085 m -0.9192,-0.0283 h 0.895 M 11.175,26.5459 h 0.8777 m -0.8848,-0.0284 h 0.8606 m -0.8676,-0.0283 h 0.8432 m -0.8504,-0.0283 h 0.8398 m -0.8468,-0.0284 h 0.8362 m -0.8433,-0.0284 h 0.8326 m -0.8397,-0.0283 h 0.8291 m -0.8362,-0.0283 h 0.8256 m -0.8287,-0.0284 h 0.8181 m -0.8213,-0.0283 h 0.8107 m -0.8139,-0.0284 h 0.8032 m -0.8063,-0.0283 h 0.8028 m -0.8059,-0.0283 h 0.8023 m -0.8055,-0.0284 h 0.802 M 11.1033,26.149 h 0.8016 m -0.8047,-0.0283 h 0.8012 m -0.8043,-0.0283 h 0.8008 M 11.0971,26.064 h 0.7972 m -0.7972,-0.0284 h 0.7937 m -0.7937,-0.0283 h 0.7968 M 11.0971,25.979 h 0.8 m -0.8,-0.0284 h 0.8031 m -0.8031,-0.0284 h 0.8063 m -0.8063,-0.0283 h 0.8094 m -0.8094,-0.0283 h 0.8126 m -0.8126,-0.0284 h 0.8157 m -0.8122,-0.0283 h 0.8154 m -0.8119,-0.0284 h 0.815 m -0.8114,-0.0283 h 0.8221 m -0.8185,-0.0283 h 0.8291 m -0.8256,-0.0284 h 0.8362 m -0.8327,-0.0284 h 0.8433 m -0.8398,-0.0283 h 0.8504 m -0.8468,-0.0283 h 0.8575 m -0.8504,-0.0284 h 0.861 m -0.8539,-0.0284 h 0.8645 m -0.8574,-0.0283 h 0.881 m -0.874,-0.0283 h 0.8977 m -0.8905,-0.0284 h 0.9141 m -0.9071,-0.0283 h 0.9308 M 11.175,25.412 h 0.9473 m -0.9402,-0.0283 h 0.9638 m -0.9496,-0.0284 h 0.9893 m 1.2926,0 h 0.17 M 11.2105,25.327 h 1.0147 m 1.2076,0 h 0.2485 m -2.4566,-0.0284 h 1.0402 m 1.1226,0 h 0.3269 m -2.4756,-0.0283 h 1.0659 m 1.0374,0 h 0.4054 M 11.253,25.242 h 1.0913 m 0.9524,0 h 0.4838 m -2.5134,-0.0284 h 1.1339 m 0.8504,0 h 0.5622 m -2.5323,-0.0284 h 1.1764 m 0.7276,0 h 0.6614 m -2.5512,-0.0283 h 1.2189 m 0.6047,0 h 0.7453 m -2.5527,-0.0283 h 1.2594 m 0.4819,0 h 0.8291 m -2.5542,-0.0284 h 2.5719 m -2.5557,-0.0284 h 2.5734 m -2.5572,-0.0283 h 2.5749 m -2.5587,-0.0283 h 2.5765 m -2.5603,-0.0284 h 2.578 m -2.5618,-0.0283 h 2.5795 m -2.5512,-0.0284 h 2.5476 m -2.5192,-0.0283 h 2.5157 m -2.4874,-0.0283 h 2.4839 m -2.4556,-0.0284 h 2.4521 m -2.4237,-0.0284 h 2.4201 M 11.579,24.7884 h 2.3881 M 11.613,24.7601 h 2.3506 M 11.647,24.7317 h 2.3131 M 11.681,24.7033 h 2.245 M 11.715,24.675 h 2.177 m -2.143,-0.0283 h 2.109 M 11.7887,24.6183 H 13.824 M 11.8284,24.59 H 13.79 m -1.9219,-0.0284 h 1.8822 m -1.8425,-0.0283 h 1.8028 m -1.7631,-0.0284 h 1.7234 m -1.6384,-0.0283 h 1.5988 m -1.5138,-0.0284 h 1.4741 m -1.389,-0.0283 h 1.3134 m -1.2378,-0.0283 h 1.1622 m -1.0866,-0.0284 h 1.011 m -0.9354,-0.0284 h 0.8078 m -0.581,-0.0282 h 0.4535" stroke="#ffffff"/>
                        </g>
                        <g  gorn="0.4.0.1.22.1.3" id="g202">
                            <title  id="title198">polygon</title>
                            <path  gorn="0.4.0.1.22.1.3.1" style="stroke-linecap:round" id="path200" stroke-width="0.0283465" fill="none" d="m 14.8388,27.2262 0.1417,0.1417 m 0,0 0.1985,0.1701 m 0,0 0.1984,0.1134 m 0,0 0.2551,0.0567 m 0,0 0.2268,0.0283 m 0,0 h 0.2267 m 0,0 0.2552,-0.0566 m 0,0 0.1984,-0.0851 m 0,0 0.2268,-0.1134 m 0,0 0.17,-0.1417 m 0,0 0.1134,-0.2268 m 0,0 0.085,-0.1984 m 0,0 0.0284,-0.2551 m 0,0 -0.0284,-0.2552 m 0,0 -0.0566,-0.2267 m 0,0 -0.1418,-0.1984 m 0,0 -0.17,-0.1418 m 0,0 -0.2268,-0.085 m 0,0 -0.2268,-0.0851 m 0,0 -0.4819,-0.1134 m 0,0 -0.1984,-0.1133 m 0,0 -0.0567,-0.2268 m 0,0 0.1417,-0.1701 m 0,0 0.2552,-0.0283 m 0,0 0.1984,0.085 m 0,0 0.2268,0.1418 m 0,0 0.1984,0.0283 m 0,0 0.1984,-0.1417 m 0,0 0.1417,-0.2268 m 0,0 v -0.1701 m 0,0 -0.17,-0.1984 m 0,0 -0.1701,-0.1134 m 0,0 -0.2551,-0.0851 m 0,0 -0.2268,-0.0566 m 0,0 h -0.5103 m 0,0 -0.2267,0.085 m 0,0 -0.1984,0.085 m 0,0 -0.1701,0.1701 m 0,0 -0.1418,0.1984 m 0,0 -0.085,0.1985 m 0,0 -0.0284,0.2551 m 0,0 0.0284,0.2268 m 0,0 0.085,0.2268 m 0,0 0.1134,0.1983 m 0,0 0.1985,0.1702 m 0,0 0.1984,0.085 m 0,0 0.2267,0.085 m 0,0 0.2268,0.0851 m 0,0 0.2551,0.0283 m 0,0 0.1985,0.1134 m 0,0 0.0567,0.2268 m 0,0 -0.1134,0.17 m 0,0 -0.2268,0.0851 m 0,0 -0.2267,-0.0283 m 0,0 -0.2268,-0.1418 m 0,0 -0.1985,-0.1701 m 0,0 -0.1984,-0.085 m 0,0 -0.1984,0.0567 m 0,0 -0.1985,0.2268 m 0,0 -0.0283,0.17 m 0,0 0.1134,0.2268 m 1.0205,0.5102 h 0.2267 m -0.4535,-0.0283 h 0.5811 m -0.7087,-0.0283 h 0.8363 m -0.9638,-0.0284 h 1.0299 m -1.0795,-0.0283 h 1.1457 m -1.1953,-0.0284 h 1.2614 m -1.311,-0.0283 h 1.3677 M 15.179,27.538 h 1.474 m -1.5072,-0.0283 h 1.5639 m -1.5969,-0.0284 h 1.6536 M 15.0798,27.453 h 1.7206 m -1.7537,-0.0283 h 1.7877 m -1.8208,-0.0284 h 1.8548 m -1.8879,-0.0284 h 1.9219 m -1.9502,-0.0283 h 1.9842 m -2.0125,-0.0283 h 2.0267 m -2.0551,-0.0284 h 2.0693 m -2.0977,-0.0284 h 2.1119 m -2.1402,-0.0283 h 2.1544 m -2.1685,-0.0283 h 2.1826 m -2.1968,-0.0284 h 2.2109 m -2.2251,-0.0283 h 2.2393 m -2.2535,-0.0284 h 2.2677 m -2.2819,-0.0283 h 2.2941 m -2.3083,-0.0283 h 2.3205 m -2.3346,-0.0284 h 2.3466 m -2.3608,-0.0284 h 2.373 m -2.3683,-0.0283 h 1.2709 m 0,0 h 1.1096 m -2.3757,-0.0283 h 1.0394 m 0.3023,0 h 1.0461 m -2.3831,-0.0284 h 0.9893 m 0.4233,0 h 0.9826 M 14.7443,26.886 h 0.9392 m 0.5443,0 h 0.9102 m -2.3889,-0.0283 h 0.8891 m 0.6085,0 h 0.8945 m -2.3875,-0.0283 h 0.8391 m 0.6728,0 h 0.8787 M 14.7786,26.801 h 0.7689 m 0.737,0 h 0.8629 m -2.3441,-0.0283 h 0.7111 m 0.789,0 h 0.8472 m -2.3224,-0.0284 h 0.6531 m 0.841,0 h 0.8315 M 14.853,26.716 h 0.5952 m 0.893,0 h 0.8157 m -2.2791,-0.0284 h 0.5374 m 0.9189,0 H 17.16 m -2.2574,-0.0283 h 0.4796 m 0.9448,0 h 0.8362 m -2.2358,-0.0284 h 0.4216 m 0.9709,0 H 17.16 m -2.2078,-0.0283 h 0.3307 m 1.0299,0 h 0.8441 m -2.1055,-0.0283 h 0.1654 m 1.089,0 h 0.848 m -0.8552,-0.0284 h 0.852 m -0.859,-0.0284 h 0.8558 m -0.8629,-0.0283 h 0.8599 m -0.9096,-0.0283 h 0.9064 m -0.956,-0.0284 h 0.9528 m -1.0024,-0.0284 h 0.9992 M 16.086,26.3758 h 1.0418 m -1.2969,-0.0283 h 1.2898 m -1.3654,-0.0284 h 1.3583 m -1.4339,-0.0283 h 1.4269 m -1.5025,-0.0284 h 1.4953 m -1.5709,-0.0283 h 1.5639 M 15.453,26.2058 h 1.6322 m -1.7078,-0.0284 h 1.7008 m -1.767,-0.0284 h 1.7468 m -1.8129,-0.0283 h 1.7925 M 15.179,26.0924 h 1.8384 M 15.1458,26.064 h 1.8514 m -1.8844,-0.0284 h 1.8642 m -1.8972,-0.0283 h 1.8769 m -1.91,-0.0283 h 1.8897 m -1.9228,-0.0284 h 1.8888 m -1.9219,-0.0284 h 1.8879 m -1.9041,-0.0283 h 1.8701 m -1.8863,-0.0283 h 1.8523 m -1.8685,-0.0284 h 1.8345 m -1.8507,-0.0283 h 1.7751 m -1.7913,-0.0284 h 1.7157 m -1.7319,-0.0283 h 1.6563 m -1.6725,-0.0283 h 1.5969 m -1.6074,-0.0284 h 1.5318 m -1.5425,-0.0284 h 1.4669 m -1.4776,-0.0283 h 1.3572 m -1.3677,-0.0283 h 1.2471 M 14.814,25.5821 h 1.1374 m -1.1481,-0.0284 h 1.0276 m -1.0381,-0.0283 h 0.9885 m -0.9992,-0.0283 h 0.9496 m -0.9531,-0.0284 h 0.9035 M 14.775,25.4404 h 0.8575 M 14.7714,25.412 h 0.854 m -0.8575,-0.0283 h 0.8504 m -0.8539,-0.0284 h 0.8469 M 14.7609,25.327 h 0.8432 m -0.8468,-0.0284 h 0.8398 M 14.7537,25.2703 H 15.59 M 14.7569,25.242 h 0.826 m 0.815,0 h 0.2381 m -1.8759,-0.0284 h 0.8157 m 0.7767,0 h 0.3231 m -1.9124,-0.0284 h 0.8362 m 0.7077,0 h 0.4082 m -1.949,-0.0283 h 0.8568 m 0.6387,0 h 0.4932 m -1.9855,-0.0283 h 0.8772 m 0.5697,0 h 0.5783 m -2.022,-0.0284 h 0.8976 m 0.5008,0 h 0.6413 m -2.0366,-0.0284 h 0.9181 m 0.4111,0 h 0.7251 m -2.0512,-0.0283 h 0.9386 m 0.3213,0 h 0.8091 m -2.0658,-0.0283 h 2.0835 m -2.0713,-0.0284 h 2.089 m -2.0769,-0.0283 h 2.0946 m -2.0825,-0.0284 h 2.1002 m -2.088,-0.0283 h 2.1057 m -2.0935,-0.0283 h 2.0935 M 14.855,24.8451 h 2.0814 m -2.0693,-0.0284 h 2.0693 m -2.049,-0.0283 h 2.049 m -2.0287,-0.0283 h 2.0287 m -2.0085,-0.0284 h 2.0085 m -1.9883,-0.0284 h 1.9641 M 14.9684,24.675 h 1.9195 m -1.8992,-0.0283 h 1.8749 m -1.8547,-0.0284 h 1.8304 M 15.0372,24.59 h 1.7778 m -1.7494,-0.0284 h 1.7251 m -1.6968,-0.0283 h 1.6725 m -1.6442,-0.0284 h 1.6017 m -1.5733,-0.0283 h 1.5307 M 15.179,24.4482 h 1.4598 m -1.3937,-0.0283 h 1.3512 m -1.2851,-0.0283 h 1.2001 m -1.1339,-0.0284 h 1.0488 M 15.453,24.3348 h 0.8882 m -0.8126,-0.0282 h 0.6992" stroke="#ffffff"/>
                        </g>
                        <g  gorn="0.4.0.1.22.1.4" id="g208">
                            <title  id="title204">polygon</title>
                            <path  gorn="0.4.0.1.22.1.4.1" style="stroke-linecap:round" id="path206" stroke-width="0.0283465" fill="none" d="m 19.2892,26.4325 0.2551,-0.0284 m 0,0 0.0851,-0.1983 m 0,0 v -0.2552 m 0,0 -0.0851,-0.1984 m 0,0 -0.2551,-0.0567 m 0,0 h -0.9355 m 0,0 -0.2551,0.0284 m 0,0 -0.17,0.1133 m 0,0 -0.0568,0.2268 m 0,0 0.0284,0.2268 m 0,0 0.1701,0.1133 m 0,0 0.2834,0.0284 m 0,0 h 0.9355 m -0.9355,0 h 0.9355 m -1.2189,-0.0284 h 1.474 m -1.5165,-0.0283 h 1.5286 m -1.5712,-0.0283 h 1.5834 m -1.6258,-0.0284 h 1.638 m -1.6806,-0.0283 h 1.6927 m -1.6962,-0.0284 h 1.7083 m -1.7118,-0.0283 h 1.724 m -1.7276,-0.0283 h 1.7398 M 17.886,26.1774 h 1.7434 M 17.8825,26.149 h 1.7469 M 17.879,26.1207 h 1.7504 m -1.754,-0.0283 h 1.754 M 17.8718,26.064 h 1.7576 M 17.879,26.0356 h 1.7504 M 17.886,26.0073 h 1.7434 M 17.8932,25.979 h 1.7362 m -1.7292,-0.0284 h 1.7292 m -1.7221,-0.0284 h 1.7099 m -1.7028,-0.0283 h 1.6907 m -1.6837,-0.0283 h 1.6715 m -1.6643,-0.0284 h 1.6522 m -1.6097,-0.0283 h 1.5975 m -1.555,-0.0284 h 1.5429 m -1.5003,-0.0283 h 1.4881 m -1.4457,-0.0283 h 1.3181" stroke="#ffffff"/>
                        </g>
                        <g  gorn="0.4.0.1.22.1.5" id="g214">
                            <title  id="title210">polygon</title>
                            <path  gorn="0.4.0.1.22.1.5.1" style="stroke-linecap:round" id="path212" stroke-width="0.0283465" fill="none" d="m 22.0388,24.4199 -0.0851,0.1984 m 0,0 v 1.2189 m 0,0 -0.0566,0.1701 m 0,0 h -0.4819 m 0,0 -0.1985,-0.0283 m 0,0 0.2835,-1.1623 m 0,0 0.0284,-0.2267 m 0,0 -0.1418,-0.1418 m 0,0 -0.2835,-0.085 m 0,0 h -0.2267 m 0,0 -0.1418,0.1701 m 0,0 -0.0566,0.2268 m 0,0 -0.3685,1.3889 m 0,0 v 0.2551 m 0,0 0.0283,0.2268 m 0,0 0.1701,0.1134 m 0,0 0.2835,0.0284 m 0,0 h 1.1621 m 0,0 v 0.4818 m 0,0 0.0284,0.2552 m 0,0 0.1134,0.1701 m 0,0 0.2267,0.0566 m 0,0 h 0.2552 m 0,0 0.1701,-0.1417 m 0,0 0.0283,-0.2551 m 0,0 v -2.6363 m 0,0 -0.0567,-0.2267 m 0,0 -0.1984,-0.1134 m 0,0 h -0.2551 m 0,0 -0.2268,0.0567 m 0.2834,3.3165 h 0.2552 m -0.3685,-0.0283 h 0.4025 m -0.5159,-0.0283 h 0.5499 m -0.5688,-0.0284 h 0.6028 m -0.6217,-0.0283 h 0.6558 m -0.6747,-0.0284 h 0.7087 m -0.7276,-0.0283 h 0.7307 M 22.001,27.538 h 0.7527 m -0.7716,-0.0283 h 0.7748 m -0.778,-0.0284 h 0.7812 M 21.9758,27.453 h 0.7874 m -0.7905,-0.0283 h 0.7936 m -0.7968,-0.0284 h 0.8 m -0.8032,-0.0284 h 0.8064 m -0.8095,-0.0283 h 0.8126 m -0.8157,-0.0283 h 0.8157 m -0.8189,-0.0284 h 0.8189 m -0.8221,-0.0284 h 0.8221 m -0.8221,-0.0283 h 0.8221 m -0.8221,-0.0283 h 0.8221 m -0.8221,-0.0284 h 0.8221 m -0.8221,-0.0283 h 0.8221 m -0.8221,-0.0284 h 0.8221 m -0.8221,-0.0283 h 0.8221 m -0.8221,-0.0283 h 0.8221 m -0.8221,-0.0284 h 0.8221 m -0.8221,-0.0284 h 0.8221 m -0.8221,-0.0283 h 0.8221 m -0.8221,-0.0283 h 0.8221 m -0.8221,-0.0284 h 0.8221 M 21.9537,26.886 h 0.8221 m -0.8221,-0.0283 h 0.8221 m -0.8221,-0.0283 h 0.8221 M 21.9537,26.801 h 0.8221 m -1.9842,-0.0283 h 1.9842 m -2.2677,-0.0284 h 2.2677 M 20.4656,26.716 h 2.3102 m -2.3527,-0.0284 h 2.3527 m -2.3953,-0.0283 h 2.3953 M 20.338,26.6309 h 2.4378 m -2.4413,-0.0283 h 2.4413 m -2.4449,-0.0283 h 2.4449 m -2.4484,-0.0284 h 2.4484 m -2.4519,-0.0284 h 2.4519 m -2.4555,-0.0283 h 2.4555 m -2.4591,-0.0283 h 2.4591 m -2.4626,-0.0284 h 2.4626 m -2.4661,-0.0284 h 2.4661 m -2.4661,-0.0283 h 2.4661 m -2.4661,-0.0283 h 2.4661 m -2.4661,-0.0284 h 2.4661 m -2.4661,-0.0283 h 2.4661 m -2.4661,-0.0284 h 2.4661 m -2.4661,-0.0283 h 2.4661 m -2.4661,-0.0283 h 2.4661 m -2.4661,-0.0284 h 2.4661 M 20.3097,26.149 h 2.4661 m -2.4586,-0.0283 h 2.4586 m -2.4511,-0.0283 h 2.4511 M 20.3322,26.064 h 2.4436 m -2.436,-0.0284 h 2.436 m -2.4285,-0.0283 h 1.0679 m 0.4819,0 h 0.8787 m -2.421,-0.0283 h 0.8619 m 0.6898,0 h 0.8693 m -2.4135,-0.0284 h 0.8614 m 0.6923,0 h 0.8598 m -2.406,-0.0284 h 0.8608 m 0.6948,0 h 0.8504 m -2.3984,-0.0283 h 0.8601 m 0.6974,0 h 0.8409 m -2.3909,-0.0283 h 0.8595 m 0.6999,0 h 0.8315 m -2.3834,-0.0284 h 0.8589 m 0.7024,0 h 0.8221 m -2.3759,-0.0283 h 0.8583 m 0.6955,0 h 0.8221 m -2.3683,-0.0284 h 0.8576 m 0.6886,0 h 0.8221 M 20.415,25.7522 h 0.857 m 0.6817,0 h 0.8221 m -2.3533,-0.0283 h 0.8565 m 0.6747,0 h 0.8221 M 20.43,25.6955 h 0.8559 m 0.6678,0 h 0.8221 m -2.3383,-0.0284 h 0.8553 m 0.6609,0 h 0.8221 M 20.445,25.6388 h 0.8547 m 0.654,0 h 0.8221 m -2.3233,-0.0283 h 0.8541 m 0.6471,0 h 0.8221 m -2.3157,-0.0284 h 0.8534 m 0.6402,0 h 0.8221 m -2.3082,-0.0284 h 0.8528 m 0.6333,0 h 0.8221 m -2.3007,-0.0283 h 0.8522 m 0.6264,0 h 0.8221 m -2.2932,-0.0283 h 0.8517 m 0.6194,0 h 0.8221 m -2.2856,-0.0284 h 0.851 m 0.6125,0 h 0.8221 m -2.2781,-0.0283 h 0.8504 m 0.6056,0 h 0.8221 M 20.5052,25.412 h 0.8499 m 0.5986,0 h 0.8221 m -2.2631,-0.0283 h 0.8493 m 0.5917,0 h 0.8221 m -2.2556,-0.0284 h 0.8487 m 0.5848,0 h 0.8221 m -2.248,-0.0283 h 0.848 m 0.5779,0 h 0.8221 m -2.2405,-0.0284 h 0.8474 m 0.571,0 h 0.8221 m -2.233,-0.0283 h 0.8468 m 0.5641,0 h 0.8221 M 20.5503,25.242 h 0.8462 m 0.5572,0 h 0.8221 m -2.2179,-0.0284 h 0.8455 m 0.5503,0 h 0.8221 m -2.2104,-0.0284 h 0.845 m 0.5433,0 h 0.8221 m -2.2029,-0.0283 h 0.8444 m 0.5364,0 h 0.8221 m -2.1954,-0.0283 h 0.8438 m 0.5295,0 h 0.8221 M 20.588,25.1002 h 0.8431 m 0.5226,0 h 0.8221 m -2.1803,-0.0284 h 0.8425 m 0.5157,0 h 0.8221 m -2.1729,-0.0283 h 0.842 m 0.5088,0 h 0.8221 m -2.1653,-0.0283 h 0.8413 m 0.5019,0 h 0.8221 M 20.618,24.9868 h 0.8407 m 0.495,0 h 0.8221 m -2.1502,-0.0283 h 0.84 m 0.4881,0 h 0.8221 M 20.633,24.9301 h 0.8396 m 0.4811,0 h 0.8221 m -2.1352,-0.0283 h 0.8389 m 0.4742,0 h 0.8221 m -2.1277,-0.0283 h 0.8383 m 0.4673,0 h 0.8221 m -2.1202,-0.0284 h 0.8377 m 0.4604,0 h 0.8221 m -2.1127,-0.0284 h 0.8371 m 0.4535,0 h 0.8221 m -2.1051,-0.0283 h 0.833 m 0.45,0 h 0.8221 m -2.0976,-0.0283 h 0.8291 m 0.4464,0 h 0.8221 m -2.0906,-0.0284 h 0.8257 m 0.4428,0 h 0.8221 m -2.0834,-0.0284 h 0.822 m 0.4393,0 h 0.8221 M 20.6994,24.675 h 0.8185 m 0.4358,0 h 0.815 m -2.0621,-0.0283 h 0.8148 m 0.4323,0 h 0.8079 m -2.048,-0.0284 h 0.8114 m 0.4287,0 h 0.8008 M 20.7207,24.59 h 0.8079 m 0.4373,0 h 0.7816 m -2.0197,-0.0284 h 0.7724 m 0.4779,0 h 0.7623 m -2.0056,-0.0283 h 0.737 m 0.5184,0 h 0.7431 m -1.9748,-0.0284 h 0.685 m 0.5588,0 h 0.7239 m -1.944,-0.0283 h 0.633 m 0.5993,0 h 0.7046 m -1.9133,-0.0284 h 0.581 m 0.6399,0 h 0.6428 m -1.8401,-0.0283 h 0.4629 m 0.7465,0 h 0.5811 M 20.853,24.3916 h 0.3449 m 0.9543,0 h 0.4181" stroke="#ffffff"/>
                        </g>
                        <g  gorn="0.4.0.1.22.1.6" id="g220">
                            <title  id="title216">polygon</title>
                            <path  gorn="0.4.0.1.22.1.6.1" style="stroke-linecap:round" id="path218" stroke-width="0.0283465" fill="none" d="m 23.938,24.6467 -0.1133,0.17 m 0,0 -0.1134,0.2268 m 0,0 -0.0851,0.2268 m 0,0 -0.0567,0.2268 m 0,0 -0.0283,0.2551 m 0,0 v 0.5102 m 0,0 0.0283,0.2551 m 0,0 0.0567,0.2268 m 0,0 0.0567,0.2268 m 0,0 0.1134,0.1984 m 0,0 0.1417,0.1984 m 0,0 0.1701,0.1418 m 0,0 0.1985,0.1417 m 0,0 0.2267,0.0567 m 0,0 0.2551,0.0283 m 0,0 h 0.2551 m 0,0 0.2268,-0.0566 m 0,0 0.2268,-0.1134 m 0,0 0.17,-0.1701 m 0,0 0.1418,-0.1701 m 0,0 0.1133,-0.17 m 0,0 0.0568,-0.2268 m 0,0 0.085,-0.2268 m 0,0 0.0284,-0.2551 m 0,0 0.0283,-0.2551 m 0,0 v -0.2552 m 0,0 -0.0283,-0.2551 m 0,0 -0.0568,-0.2268 m 0,0 -0.7936,0.1701 m 0,0 0.0566,0.3118 m 0,0 v 0.3402 m 0,0 -0.0566,0.3118 m 0,0 -0.0851,0.2268 m 0,0 -0.1134,0.1417 m 0,0 -0.17,0.0567 m 0,0 h -0.0568 m 0,0 -0.17,-0.0284 m 0,0 -0.1418,-0.1133 m 0,0 -0.085,-0.1984 m 0,0 -0.0567,-0.3119 m 0,0 v -0.3402 m 0,0 0.0284,-0.3401 m 0,0 0.0566,-0.2551 m 0,0 0.1134,-0.1701 m 0,0 0.1417,-0.0851 m 0,0 h 0.1985 m 0,0 0.1417,0.0568 m 0,0 0.1417,0.1417 m 0,0 0.0568,0.2268 m 0,0 0.7936,-0.1418 m 0,0 -0.0566,-0.2267 m 0,0 -0.0851,-0.2268 m 0,0 -0.1417,-0.1985 m 0,0 -0.1701,-0.17 m 0,0 -0.1984,-0.1417 m 0,0 -0.1985,-0.1134 m 0,0 -0.2551,-0.0284 m 0,0 H 24.675 m 0,0 -0.2268,0.0568 m 0,0 -0.2268,0.085 m 0,0 -0.1983,0.1133 m 0,0 -0.0851,0.1418 m 0.8504,3.0897 h 0.2551 m -0.5102,-0.0283 h 0.6236 m -0.737,-0.0283 h 0.8504 m -0.9637,-0.0284 h 1.0204 m -1.0602,-0.0283 h 1.1169 m -1.1566,-0.0284 h 1.2133 m -1.2529,-0.0283 h 1.3096 M 24.1478,27.538 h 1.3776 m -1.4173,-0.0283 h 1.4456 m -1.4796,-0.0284 h 1.508 m -1.542,-0.0283 h 1.5704 M 24.006,27.4247 h 1.6328 M 23.972,27.3963 h 1.6951 M 23.938,27.3679 h 1.7528 m -1.773,-0.0283 h 1.7966 m -1.8169,-0.0283 h 1.8405 m -1.8607,-0.0284 h 1.8843 m -1.9045,-0.0284 h 1.9282 m -1.9485,-0.0283 h 1.9721 m -1.9924,-0.0283 h 2.0113 m -2.0315,-0.0284 h 2.0504 m -2.0666,-0.0283 h 2.0855 m -2.1017,-0.0284 h 2.1206 m -2.1368,-0.0283 h 2.1557 m -2.1719,-0.0283 h 2.1907 m -2.2069,-0.0284 h 2.2141 m -2.2303,-0.0284 h 2.2373 m -2.2535,-0.0283 h 2.2606 m -2.2677,-0.0283 h 2.2748 m -2.2819,-0.0284 h 1.148 m 0.0568,0 h 1.0842 M 23.6616,26.886 h 0.9851 m 0.3118,0 h 1.0063 m -2.3103,-0.0283 h 0.9568 m 0.4322,0 h 0.9283 m -2.3243,-0.0283 h 0.9283 m 0.4904,0 H 25.979 M 23.6404,26.801 h 0.9 m 0.5485,0 h 0.9007 m -2.3563,-0.0283 h 0.8716 m 0.6067,0 h 0.8886 m -2.374,-0.0284 h 0.8666 m 0.6415,0 h 0.8766 M 23.6191,26.716 h 0.8615 m 0.6763,0 h 0.8645 M 23.612,26.6876 h 0.8565 m 0.699,0 h 0.8646 m -2.4272,-0.0283 h 0.8515 m 0.7218,0 h 0.8646 m -2.4449,-0.0284 h 0.8463 m 0.7446,0 h 0.8645 m -2.4625,-0.0283 h 0.8412 m 0.7674,0 h 0.8646 m -2.4803,-0.0283 h 0.8362 m 0.7902,0 h 0.8571 m -2.4906,-0.0284 h 0.8382 m 0.8059,0 h 0.8496 m -2.5008,-0.0284 h 0.8401 m 0.8217,0 h 0.8421 m -2.507,-0.0283 h 0.8381 m 0.8375,0 h 0.8346 m -2.5134,-0.0283 h 0.8361 m 0.8478,0 h 0.8327 m -2.5197,-0.0284 h 0.834 m 0.8582,0 h 0.8306 m -2.526,-0.0284 h 0.8321 m 0.8684,0 h 0.8286 m -2.5322,-0.0283 h 0.83 m 0.8788,0 h 0.8266 m -2.5386,-0.0283 h 0.8281 m 0.8891,0 h 0.8246 m -2.5449,-0.0284 h 0.826 m 0.8994,0 h 0.8226 m -2.5512,-0.0283 h 0.8241 m 0.9096,0 h 0.8206 m -2.5574,-0.0284 h 0.822 m 0.92,0 h 0.8186 m -2.5606,-0.0283 h 0.822 m 0.9251,0 h 0.8167 m -2.5638,-0.0283 h 0.822 m 0.9303,0 h 0.8146 m -2.5669,-0.0284 h 0.822 m 0.9354,0 h 0.8126 m -2.57,-0.0284 h 0.822 m 0.9354,0 h 0.8158 m -2.5732,-0.0283 h 0.822 m 0.9354,0 h 0.819 m -2.5764,-0.0283 h 0.822 m 0.9354,0 h 0.8221 M 23.5412,26.064 h 0.822 m 0.9354,0 h 0.8221 m -2.5795,-0.0284 h 0.822 m 0.9354,0 h 0.8221 m -2.5795,-0.0283 h 0.822 m 0.9354,0 h 0.8221 M 23.5412,25.979 h 0.822 m 0.9354,0 h 0.8221 m -2.5795,-0.0284 h 0.822 m 0.9354,0 h 0.8221 m -2.5795,-0.0284 h 0.822 m 0.9354,0 h 0.8221 m -2.5795,-0.0283 h 0.8244 m 0.933,0 h 0.8221 m -2.5795,-0.0283 h 0.8268 m 0.9306,0 h 0.8221 m -2.5795,-0.0284 h 0.8291 m 0.9283,0 h 0.8221 m -2.5795,-0.0283 h 0.8314 m 0.9209,0 h 0.8241 m -2.5764,-0.0284 h 0.8338 m 0.9133,0 h 0.8261 m -2.5732,-0.0283 h 0.8362 m 0.9058,0 h 0.828 m -2.5669,-0.0283 h 0.8355 m 0.8982,0 h 0.8301 m -2.5606,-0.0284 h 0.8346 m 0.8908,0 h 0.8321 m -2.5544,-0.0284 h 0.8339 m 0.8833,0 h 0.834 m -2.548,-0.0283 h 0.833 m 0.8758,0 h 0.836 m -2.5417,-0.0283 h 0.8323 m 0.8682,0 h 0.8381 m -2.5354,-0.0284 h 0.8315 m 0.8607,0 h 0.8401 m -2.5292,-0.0284 h 0.8346 m 0.8493,0 h 0.8381 m -2.5188,-0.0283 h 0.8378 m 0.8378,0 h 0.8362 m -2.5087,-0.0283 h 0.8409 m 0.9638,0 h 0.6969 m -2.4945,-0.0284 h 0.8402 m 0.818,0 h 0.1659 m 0.1058,0 h 0.5575 m -2.4803,-0.0283 h 0.8393 m 0.8048,0 h 0.3316 m 0.0794,0 h 0.4181 M 23.5908,25.412 h 0.8386 m 0.7913,0 h 0.4975 m 0.0529,0 h 0.2787 m -2.4519,-0.0283 h 0.8377 m 0.778,0 h 0.6633 m 0.0265,0 h 0.1394 m -2.4379,-0.0284 h 0.837 m 0.7647,0 h 0.829 M 23.612,25.327 h 0.8362 m 0.7512,0 h 0.8292 m -2.4095,-0.0284 h 0.848 m 0.7253,0 h 0.829 m -2.3952,-0.0283 h 0.8598 m 0.6992,0 h 0.8292 M 23.6368,25.242 h 0.8681 m 0.652,0 h 0.8504 m -2.3598,-0.0284 h 0.8763 m 0.6048,0 h 0.8716 m -2.3421,-0.0284 h 0.8846 m 0.5575,0 h 0.893 m -2.3245,-0.0283 h 0.8929 m 0.5102,0 h 0.9142 m -2.3066,-0.0283 h 0.9295 m 0.4346,0 H 25.979 M 23.69,25.1002 h 0.9661 m 0.3166,0 h 0.9956 m -2.2677,-0.0284 h 2.2571 m -2.2464,-0.0283 h 2.2358 m -2.2217,-0.0283 h 2.211 m -2.1968,-0.0284 h 2.1862 m -2.1721,-0.0283 h 2.1615 m -2.1473,-0.0284 h 2.1366 m -2.1224,-0.0283 h 2.1118 m -2.0976,-0.0283 h 2.0774 m -2.0632,-0.0284 h 2.0429 m -2.0287,-0.0284 h 2.0085 m -1.9897,-0.0283 h 1.9694 m -1.9504,-0.0283 h 1.9302 m -1.9114,-0.0284 h 1.8912 m -1.8722,-0.0284 h 1.8519 M 23.9191,24.675 h 1.8048 M 23.938,24.6467 h 1.7575 M 23.955,24.6183 h 1.7121 M 23.972,24.59 h 1.6668 M 23.989,24.5616 h 1.6215 M 24.006,24.5333 h 1.5761 m -1.559,-0.0284 h 1.5193 m -1.4697,-0.0283 h 1.4301 m -1.3806,-0.0284 h 1.3409 m -1.2913,-0.0283 h 1.2515 m -1.2019,-0.0283 h 1.1623 M 24.297,24.3632 h 1.0371 m -0.9615,-0.0284 h 0.9119 m -0.8363,-0.0282 h 0.7866 m -0.6732,-0.0284 h 0.6236" stroke="#ffffff"/>
                        </g>
                        <g  gorn="0.4.0.1.22.1.7" id="g226">
                            <title  id="title222">polygon</title>
                            <path  gorn="0.4.0.1.22.1.7.1" style="stroke-linecap:round" id="path224" stroke-width="0.0283465" fill="none" d="m 27.7081,24.4766 -0.1701,0.1417 m 0,0 -0.5102,0.4819 m 0,0 -0.1984,0.1984 m 0,0 -0.0284,0.1985 m 0,0 0.1134,0.1984 m 0,0 0.1984,0.1701 m 0,0 0.1701,0.0283 m 0,0 0.2268,-0.1417 m 0,0 0.0567,0.1134 m 0,0 v 1.4173 m 0,0 0.0283,0.2551 m 0,0 0.1134,0.1418 m 0,0 0.2551,0.0566 m 0,0 0.2835,-0.0283 m 0,0 0.1417,-0.1417 m 0,0 v -2.8631 m 0,0 -0.0283,-0.2267 m 0,0 -0.1985,-0.1134 m 0,0 h -0.2268 m 0,0 -0.2267,0.1134 m 0.1275,3.2315 h 0.4111 m -0.5386,-0.0283 h 0.5669 m -0.5896,-0.0284 h 0.6179 m -0.6405,-0.0283 h 0.6689 m -0.6916,-0.0284 h 0.72 m -0.7427,-0.0283 h 0.771 M 27.5947,27.538 h 0.7937 m -0.7968,-0.0283 h 0.7968 m -0.8,-0.0284 h 0.8 M 27.5853,27.453 h 0.8031 m -0.8063,-0.0283 h 0.8063 M 27.579,27.3963 h 0.8094 m -0.8126,-0.0284 h 0.8126 m -0.8157,-0.0283 h 0.8157 m -0.8189,-0.0283 h 0.8189 m -0.822,-0.0284 h 0.822 m -0.822,-0.0284 h 0.822 m -0.822,-0.0283 h 0.822 m -0.822,-0.0283 h 0.822 m -0.822,-0.0284 h 0.822 m -0.822,-0.0283 h 0.822 m -0.822,-0.0284 h 0.822 m -0.822,-0.0283 h 0.822 m -0.822,-0.0283 h 0.822 m -0.822,-0.0284 h 0.822 m -0.822,-0.0284 h 0.822 m -0.822,-0.0283 h 0.822 m -0.822,-0.0283 h 0.822 m -0.822,-0.0284 h 0.822 m -0.822,-0.0284 h 0.822 m -0.822,-0.0283 h 0.822 m -0.822,-0.0283 h 0.822 m -0.822,-0.0284 h 0.822 m -0.822,-0.0283 h 0.822 m -0.822,-0.0284 h 0.822 m -0.822,-0.0283 h 0.822 m -0.822,-0.0284 h 0.822 m -0.822,-0.0283 h 0.822 m -0.822,-0.0284 h 0.822 m -0.822,-0.0283 h 0.822 m -0.822,-0.0283 h 0.822 m -0.822,-0.0284 h 0.822 m -0.822,-0.0284 h 0.822 m -0.822,-0.0283 h 0.822 m -0.822,-0.0283 h 0.822 m -0.822,-0.0284 h 0.822 m -0.822,-0.0284 h 0.822 m -0.822,-0.0283 h 0.822 m -0.822,-0.0283 h 0.822 m -0.822,-0.0284 h 0.822 m -0.822,-0.0283 h 0.822 m -0.822,-0.0284 h 0.822 m -0.822,-0.0283 h 0.822 m -0.822,-0.0283 h 0.822 m -0.822,-0.0284 h 0.822 m -0.822,-0.0284 h 0.822 m -0.822,-0.0283 h 0.822 m -0.822,-0.0283 h 0.822 m -0.822,-0.0284 h 0.822 m -0.822,-0.0284 h 0.822 m -0.822,-0.0283 h 0.822 m -0.822,-0.0283 h 0.822 m -0.822,-0.0284 h 0.822 m -0.822,-0.0284 h 0.822 m -0.822,-0.0283 h 0.822 m -1.2756,-0.0283 h 0.2154 m 0.2382,0 h 0.822 m -1.3086,-0.0284 h 0.2938 m 0.1786,0 h 0.8362 m -1.3417,-0.0283 h 0.3723 m 0.119,0 h 0.8504 m -1.3748,-0.0284 h 0.4507 m 0.0596,0 h 0.8645 m -1.4078,-0.0283 h 1.4078 m -1.441,-0.0283 h 1.441 m -1.474,-0.0284 h 1.474 m -1.4902,-0.0284 h 1.4902 M 26.882,25.6388 h 1.5064 m -1.5226,-0.0283 h 1.5226 m -1.5388,-0.0284 h 1.5388 m -1.555,-0.0284 h 1.555 m -1.5712,-0.0283 h 1.5712 M 26.801,25.4971 h 1.5874 m -1.5833,-0.0284 h 1.5833 m -1.5793,-0.0283 h 1.5793 M 26.8132,25.412 h 1.5752 m -1.5712,-0.0283 h 1.5712 m -1.5672,-0.0284 h 1.5672 M 26.8253,25.327 h 1.5631 m -1.559,-0.0284 h 1.559 m -1.5307,-0.0283 h 1.5307 M 26.886,25.242 h 1.5024 m -1.474,-0.0284 h 1.474 m -1.4456,-0.0284 h 1.4456 m -1.4173,-0.0283 h 1.4173 m -1.389,-0.0283 h 1.389 m -1.3606,-0.0284 h 1.3606 m -1.3306,-0.0284 h 1.3306 m -1.3006,-0.0283 h 1.3006 m -1.2706,-0.0283 h 1.2706 m -1.2406,-0.0284 h 1.2406 m -1.2106,-0.0283 h 1.2106 m -1.1805,-0.0284 h 1.1805 m -1.1505,-0.0283 h 1.1505 m -1.1205,-0.0283 h 1.1205 m -1.0905,-0.0284 h 1.0905 M 27.328,24.8167 h 1.0604 m -1.0305,-0.0283 h 1.0305 m -1.0005,-0.0283 h 1.0005 M 27.418,24.7317 h 0.9704 M 27.448,24.7033 h 0.9404 M 27.478,24.675 h 0.9068 M 27.508,24.6467 h 0.8733 M 27.538,24.6183 h 0.8398 M 27.572,24.59 h 0.8023 M 27.606,24.5616 h 0.7647 m -0.7306,-0.0283 h 0.727 m -0.693,-0.0284 h 0.6895 m -0.6555,-0.0283 h 0.652 m -0.5953,-0.0284 h 0.5457 m -0.4891,-0.0283 h 0.4395 m -0.3827,-0.0283 h 0.3331" stroke="#ffffff"/>
                        </g>
                        <g  gorn="0.4.0.1.22.1.8" id="g232">
                            <title  id="title228">polygon</title>
                            <path  gorn="0.4.0.1.22.1.8.1" style="stroke-linecap:round" id="path230" stroke-width="0.0283465" fill="none" d="m 31.5916,26.4609 -0.085,-0.2268 m 0,0 -0.1418,-0.2268 m 0,0 -0.1417,-0.1417 m 0,0 -0.5669,-0.4819 m 0,0 -0.2268,0.1134 m 0,0 -0.2268,-0.0284 m 0,0 -0.1417,-0.1984 m 0,0 0.1134,-0.1985 m 0,0 0.2267,-0.0566 m 0,0 0.2268,0.085 m 0,0 0.0284,0.2835 m 0,0 0.5669,0.4819 m 0,0 0.1417,-0.1701 m 0,0 0.1134,-0.2551 m 0,0 0.0284,-0.2268 m 0,0 -0.0284,-0.2551 m 0,0 -0.1134,-0.1984 m 0,0 -0.1417,-0.1985 m 0,0 -0.1701,-0.1417 m 0,0 -0.2268,-0.1133 m 0,0 -0.2268,-0.0852 m 0,0 h -0.2267 m 0,0 -0.2552,0.0284 m 0,0 -0.2267,0.0568 m 0,0 -0.1984,0.1416 m 0,0 -0.1985,0.1418 m 0,0 -0.1134,0.1984 m 0,0 -0.085,0.2268 m 0,0 -0.0284,0.2268 m 0,0 0.0284,0.2551 m 0,0 0.1134,0.2268 m 0,0 0.1133,0.1417 m 0,0 0.5953,0.4819 m 0,0 0.1985,-0.0851 m 0,0 0.2551,0.0284 m 0,0 0.1701,0.1417 m 0,0 0.0567,0.2268 m 0,0 -0.1417,0.1984 m 0,0 -0.1985,0.0851 m 0,0 h -0.2551 m 0,0 -0.1701,-0.1701 m 0,0 -0.0567,-0.2268 m 0,0 0.1134,-0.1984 m 0,0 -0.567,-0.4536 m 0,0 -0.1417,0.1417 m 0,0 -0.1417,0.2268 m 0,0 -0.0851,0.2268 m 0,0 v 0.2551 m 0,0 0.0568,0.2268 m 0,0 0.1134,0.2268 m 0,0 0.1417,0.17 m 0,0 0.1984,0.1418 m 0,0 0.1984,0.1417 m 0,0 0.2268,0.0567 m 0,0 0.2268,0.0283 m 0,0 h 0.2551 m 0,0 0.2268,-0.0566 m 0,0 0.2268,-0.1134 m 0,0 0.1984,-0.1417 m 0,0 0.1701,-0.1702 m 0,0 0.1134,-0.1983 m 0,0 0.085,-0.2268 m 0,0 0.0283,-0.2268 m 0,0 -0.0283,-0.1417 m -1.2756,1.2755 h 0.2551 m -0.4819,-0.0283 h 0.5953 m -0.7087,-0.0283 h 0.8221 m -0.9355,-0.0284 h 0.9921 m -1.0317,-0.0283 h 1.0885 m -1.1282,-0.0284 h 1.1848 m -1.2246,-0.0283 h 1.2814 m -1.321,-0.0284 h 1.3606 M 29.664,27.5097 h 1.44 m -1.4797,-0.0284 h 1.5194 m -1.559,-0.0283 h 1.5986 m -1.6384,-0.0283 h 1.6782 m -1.7179,-0.0284 h 1.7462 m -1.7858,-0.0284 h 1.8142 M 29.442,27.3396 h 1.8661 m -1.8898,-0.0283 h 1.9181 m -1.9417,-0.0284 h 1.9701 m -1.9937,-0.0284 h 2.0221 m -2.0457,-0.0283 h 2.0619 m -2.0855,-0.0283 h 2.1017 m -2.1159,-0.0284 h 2.1321 m -2.1463,-0.0283 h 2.1625 m -2.1767,-0.0284 h 2.1929 m -2.2071,-0.0283 h 2.2233 M 29.253,27.0562 h 2.2536 m -2.2678,-0.0284 h 2.2783 m -2.2924,-0.0284 h 2.3031 m -2.3173,-0.0283 h 2.3279 m -2.3351,-0.0283 h 0.9993 m 0.2551,0 h 1.0913 m -2.3527,-0.0284 h 0.978 m 0.3495,0 h 1.0359 M 29.1892,26.886 h 0.9567 m 0.4441,0 h 0.9803 m -2.3882,-0.0283 h 0.9354 m 0.5387,0 h 0.9247 M 29.175,26.8294 h 0.9142 m 0.5872,0 h 0.9152 M 29.1679,26.801 h 0.893 m 0.6357,0 h 0.8985 m -2.4342,-0.0283 h 0.8716 m 0.6844,0 h 0.8817 m -2.4449,-0.0284 h 0.8717 m 0.7117,0 h 0.8651 M 29.1537,26.716 h 0.8646 m 0.7391,0 h 0.8484 m -2.4521,-0.0284 h 0.8576 m 0.7663,0 h 0.8317 m -2.4556,-0.0283 h 0.8504 m 0.7938,0 h 0.8149 m -2.4591,-0.0284 h 0.8434 m 0.7937,0 h 0.8256 M 29.1537,26.6026 H 29.99 m 0.7937,0 h 0.8362 m -2.4662,-0.0283 h 0.8292 m 0.7937,0 h 0.8377 m -2.4606,-0.0284 h 0.8221 m 0.7937,0 h 0.8391 m -2.4549,-0.0284 h 0.8383 m 0.7704,0 h 0.8405 m -2.4492,-0.0283 h 0.8545 m 0.7471,0 h 0.8419 m -2.4328,-0.0283 h 0.86 m 0.7238,0 h 0.8434 M 29.175,26.4325 h 0.8656 m 0.7006,0 h 0.8397 m -2.3953,-0.0284 h 0.8712 m 0.6503,0 h 0.8632 m -2.374,-0.0283 h 0.8767 m 0.6002,0 h 0.8865 m -2.3528,-0.0283 h 0.8823 m 0.5499,0 h 0.9099 m -2.3315,-0.0284 h 0.8362 m 0.0288,0 h 0.1012 m 0.4214,0 h 0.9333 m -2.3102,-0.0283 h 0.7901 m 0.0292,0 h 0.2023 m 0.3213,0 h 0.9567 m -2.289,-0.0284 h 0.7441 m 0.0296,0 h 1.5046 m -2.2605,-0.0283 h 0.6909 m 0.03,0 h 1.5291 m -2.2323,-0.0283 h 0.6377 m 0.0304,0 h 1.5464 M 29.292,26.1774 h 0.5846 m 0.0308,0 h 1.5637 M 29.3097,26.149 h 0.5315 m 0.0312,0 h 1.5809 m -2.1259,-0.0283 h 0.4784 m 0.0316,0 h 1.5982 m -2.0905,-0.0283 h 0.4252 m 0.0321,0 h 1.6155 M 29.3628,26.064 h 0.372 m 0.0326,0 h 1.6328 m -2.0197,-0.0284 h 0.3189 m 0.0329,0 h 1.6502 m -1.9736,-0.0283 h 0.2551 m 0.0333,0 h 1.6675 M 29.4372,25.979 h 0.1914 m 0.0337,0 h 1.6741 m -1.8708,-0.0284 h 0.1276 m 0.0341,0 h 1.6808 m -1.8142,-0.0284 h 0.0638 m 0.0346,0 h 1.6875 m -1.7225,-0.0283 h 1.6941 m -1.7292,-0.0283 h 1.7009 m -1.7235,-0.0284 h 1.6901 m 0,0 h 0.057 m -1.7698,-0.0283 h 1.6794 m 0,0 h 0.114 m -1.816,-0.0284 h 1.6687 m 0,0 h 0.1709 m -1.8623,-0.0283 h 1.6581 m 0,0 h 0.2279 m -1.9087,-0.0283 h 1.6474 m 0,0 h 0.2849 m -1.9465,-0.0284 h 1.6282 m 10e-5,0 h 0.3418 m -1.9843,-0.0284 h 1.6091 m 0,0 h 0.3878 m -2.011,-0.0283 h 1.5899 m 0,0 H 31.39 m -2.0378,-0.0283 h 1.5707 m 0,0 h 0.4797 M 29.338,25.5821 h 1.5516 m 0,0 h 0.5256 m -2.0913,-0.0284 h 1.5323 m 0,0 h 0.5716 m -2.1181,-0.0283 h 1.5131 m 0,0 h 0.6176 m -2.1449,-0.0283 h 1.1339 m 0,0 h 0.3601 m 0,0 h 0.6635 m -2.1607,-0.0284 h 0.9103 m 0.2834,0 h 0.2702 m 0,0 h 0.7094 m -2.1764,-0.0283 h 0.8931 m 0.3605,0 h 0.18 m 0,0 h 0.7554 M 29.2861,25.412 h 0.876 m 0.4373,0 h 0.0901 m 0,0 h 0.7922 m -2.1988,-0.0283 h 0.859 m 0.5143,0 h 0.829 m -2.2055,-0.0284 h 0.8419 m 0.5317,0 h 0.8355 M 29.2766,25.327 h 0.8247 m 0.5492,0 h 0.8419 m -2.2189,-0.0284 h 0.8076 m 0.5665,0 h 0.8483 m -2.2256,-0.0283 h 0.7906 m 0.5839,0 h 0.8546 M 29.2671,25.242 h 0.81 m 0.5649,0 h 0.861 m -2.2323,-0.0284 h 0.8226 m 0.5458,0 h 0.8675 m -2.2323,-0.0284 h 0.8352 m 0.5268,0 h 0.8671 m -2.2256,-0.0283 h 0.8479 m 0.5078,0 h 0.8667 m -2.2189,-0.0283 h 0.8606 m 0.4887,0 h 0.8664 m -2.2122,-0.0284 h 0.8733 m 0.4697,0 h 0.8662 m -2.2056,-0.0284 h 0.8859 m 0.3779,0 h 0.9386 M 29.292,25.0435 h 0.9956 m 0.189,0 h 1.011 m -2.1921,-0.0283 h 2.1889 m -2.1782,-0.0284 h 2.1752 m -2.1647,-0.0283 h 2.1615 m -2.1508,-0.0284 h 2.1346 m -2.124,-0.0283 h 2.1078 m -2.0972,-0.0283 h 2.081 m -2.0703,-0.0284 h 2.0541 m -2.0435,-0.0284 h 2.0273 m -2.0167,-0.0283 h 2.0005 m -1.9843,-0.0283 h 1.9681 m -1.9519,-0.0284 h 1.9317 m -1.9155,-0.0284 h 1.8952 m -1.879,-0.0283 h 1.8587 m -1.8425,-0.0283 h 1.8223 m -1.8061,-0.0284 h 1.7859 M 29.4939,24.59 h 1.7494 m -1.7097,-0.0284 h 1.6895 m -1.6498,-0.0283 h 1.6157 m -1.576,-0.0284 h 1.542 m -1.5023,-0.0283 h 1.4683 m -1.4286,-0.0284 h 1.3946 m -1.355,-0.0283 h 1.321 m -1.2813,-0.0283 h 1.2246 m -1.1849,-0.0284 h 1.1282 m -1.0885,-0.0284 h 1.0318 m -0.9921,-0.0282 h 0.9354 m -0.8221,-0.0284 h 0.7465 m -0.6331,-0.0284 h 0.5575" stroke="#ffffff"/>
                        </g>
                        <g  gorn="0.4.0.1.22.1.9" id="g238">
                            <title  id="title234">polygon</title>
                            <path  gorn="0.4.0.1.22.1.9.1" style="stroke-linecap:round" id="path236" stroke-width="0.0283465" fill="none" d="m 32.7254,24.6467 -0.1417,0.17 m 0,0 -0.0851,0.2268 m 0,0 -0.085,0.2268 m 0,0 -0.0567,0.2268 m 0,0 -0.0283,0.2551 m 0,0 v 0.5102 m 0,0 0.0283,0.2551 m 0,0 0.0567,0.2268 m 0,0 0.0567,0.2268 m 0,0 0.1134,0.1984 m 0,0 0.1134,0.1984 m 0,0 0.1984,0.1418 m 0,0 0.1984,0.1417 m 0,0 0.2268,0.0567 m 0,0 0.2551,0.0283 m 0,0 h 0.2551 m 0,0 0.2268,-0.0566 m 0,0 0.1985,-0.1134 m 0,0 0.1983,-0.1701 m 0,0 0.1418,-0.1701 m 0,0 0.085,-0.17 m 0,0 0.0851,-0.2268 m 0,0 0.085,-0.2268 m 0,0 0.0284,-0.2551 m 0,0 0.0283,-0.2551 m 0,0 -0.0283,-0.2552 m 0,0 v -0.2551 m 0,0 -0.0567,-0.2268 m 0,0 -0.7937,0.1701 m 0,0 0.0566,0.3118 m 0,0 v 0.3402 m 0,0 -0.0566,0.3118 m 0,0 -0.0851,0.2268 m 0,0 -0.1134,0.1417 m 0,0 -0.17,0.0567 m 0,0 h -0.0568 m 0,0 -0.17,-0.0284 m 0,0 -0.1417,-0.1133 m 0,0 -0.0851,-0.1984 m 0,0 -0.0567,-0.3119 m 0,0 v -0.3402 m 0,0 0.0284,-0.3401 m 0,0 0.0566,-0.2551 m 0,0 0.1134,-0.1701 m 0,0 0.1418,-0.0851 m 0,0 h 0.1984 m 0,0 0.1417,0.0568 m 0,0 0.1418,0.1417 m 0,0 0.0567,0.2268 m 0,0 0.7937,-0.1418 m 0,0 -0.0567,-0.2267 m 0,0 -0.0851,-0.2268 m 0,0 -0.1417,-0.1985 m 0,0 -0.1701,-0.17 m 0,0 -0.1984,-0.1417 m 0,0 -0.1984,-0.1134 m 0,0 -0.2552,-0.0284 m 0,0 h -0.2551 m 0,0 -0.2268,0.0568 m 0,0 -0.2267,0.085 m 0,0 -0.1984,0.1133 m 0,0 -0.0851,0.1418 m 0.8504,3.0897 h 0.2551 m -0.5102,-0.0283 h 0.6236 m -0.737,-0.0283 h 0.8504 m -0.9638,-0.0284 h 1.0134 m -1.053,-0.0283 h 1.1026 m -1.1424,-0.0284 h 1.1921 m -1.2318,-0.0283 h 1.2814 m -1.321,-0.0284 h 1.354 m -1.3937,-0.0283 h 1.4268 m -1.4665,-0.0284 h 1.4995 M 32.8162,27.453 h 1.5722 m -1.612,-0.0283 h 1.6451 m -1.6848,-0.0284 h 1.7178 m -1.7574,-0.0284 h 1.781 m -1.7972,-0.0283 h 1.8209 m -1.8371,-0.0283 h 1.8607 m -1.8769,-0.0284 h 1.9006 m -1.9168,-0.0284 h 1.9404 m -1.9566,-0.0283 h 1.9802 m -1.9964,-0.0283 h 2.0106 m -2.0268,-0.0284 h 2.041 m -2.0572,-0.0283 h 2.0713 m -2.0875,-0.0284 h 2.1017 m -2.1179,-0.0283 h 2.132 m -2.1482,-0.0283 h 2.1624 m -2.1786,-0.0284 h 2.1893 m -2.2055,-0.0284 h 2.2161 m -2.2323,-0.0283 h 2.2429 m -2.25,-0.0283 h 2.2607 m -2.2677,-0.0284 h 1.1479 m 0.0568,0 h 1.0736 M 32.449,26.886 h 0.9851 m 0.3118,0 h 0.9992 M 32.442,26.8577 h 0.9566 m 0.4323,0 h 0.9249 m -2.321,-0.0283 h 0.9284 m 0.4904,0 h 0.9128 M 32.4278,26.801 h 0.9 m 0.5485,0 h 0.9007 m -2.3563,-0.0283 h 0.8717 m 0.6066,0 h 0.8886 m -2.374,-0.0284 h 0.8666 m 0.6414,0 h 0.8766 M 32.4066,26.716 h 0.8614 m 0.6763,0 h 0.8646 m -2.4095,-0.0284 h 0.8565 m 0.699,0 h 0.8646 m -2.4271,-0.0283 h 0.8514 m 0.7218,0 h 0.8645 m -2.4449,-0.0284 h 0.8464 m 0.7446,0 h 0.8646 m -2.4626,-0.0283 h 0.8412 m 0.7674,0 h 0.8646 m -2.4803,-0.0283 h 0.8362 m 0.7902,0 h 0.8571 M 32.364,26.5459 h 0.8382 m 0.8059,0 h 0.8496 m -2.5008,-0.0284 h 0.8401 m 0.8217,0 h 0.8421 m -2.507,-0.0283 h 0.8381 m 0.8375,0 h 0.8346 m -2.5134,-0.0283 h 0.8361 m 0.8478,0 h 0.8327 m -2.5198,-0.0284 h 0.8342 m 0.8581,0 h 0.8306 m -2.526,-0.0284 h 0.8321 m 0.8684,0 h 0.8286 m -2.5322,-0.0283 h 0.8301 m 0.8787,0 h 0.8266 M 32.338,26.3475 h 0.8281 m 0.889,0 h 0.8247 m -2.545,-0.0284 h 0.8261 m 0.8993,0 h 0.8227 m -2.5512,-0.0283 h 0.8241 m 0.9096,0 h 0.8206 m -2.5574,-0.0284 h 0.822 m 0.92,0 h 0.8186 m -2.5606,-0.0283 h 0.822 m 0.9251,0 h 0.8167 m -2.5638,-0.0283 h 0.822 m 0.9303,0 h 0.8146 m -2.5669,-0.0284 h 0.822 m 0.9354,0 h 0.8126 m -2.57,-0.0284 h 0.822 m 0.9354,0 h 0.8158 m -2.5732,-0.0283 h 0.822 m 0.9354,0 h 0.819 m -2.5764,-0.0283 h 0.822 m 0.9354,0 h 0.8221 M 32.3286,26.064 h 0.822 m 0.9354,0 h 0.819 m -2.5764,-0.0284 h 0.822 m 0.9354,0 h 0.8158 m -2.5732,-0.0283 h 0.822 m 0.9354,0 h 0.8126 m -2.57,-0.0283 h 0.822 m 0.9354,0 h 0.8095 m -2.5669,-0.0284 h 0.822 m 0.9354,0 h 0.8064 m -2.5638,-0.0284 h 0.822 m 0.9354,0 h 0.8032 m -2.5606,-0.0283 h 0.8244 m 0.933,0 h 0.8001 m -2.5575,-0.0283 h 0.8268 m 0.9306,0 h 0.7969 m -2.5543,-0.0284 h 0.8291 m 0.9283,0 h 0.7938 M 32.3286,25.8089 H 33.16 m 0.9209,0 h 0.7989 m -2.5512,-0.0284 h 0.8338 m 0.9133,0 h 0.8041 m -2.5512,-0.0283 h 0.8362 m 0.9058,0 h 0.8092 m -2.5481,-0.0283 h 0.8355 m 0.8982,0 h 0.8144 m -2.545,-0.0284 h 0.8347 m 0.8907,0 h 0.8196 M 32.338,25.6671 h 0.8338 m 0.8833,0 h 0.8247 m -2.5386,-0.0283 h 0.833 m 0.8758,0 h 0.8298 m -2.5355,-0.0283 h 0.8323 m 0.8682,0 h 0.835 m -2.5324,-0.0284 h 0.8316 m 0.8607,0 h 0.8401 m -2.5292,-0.0284 h 0.8346 m 0.8493,0 h 0.8382 m -2.5189,-0.0283 h 0.8378 m 0.8378,0 h 0.8362 m -2.5087,-0.0283 h 0.8409 m 0.9638,0 h 0.6969 M 32.364,25.4687 h 0.8402 m 0.818,0 h 0.1659 m 0.1059,0 h 0.5574 m -2.4803,-0.0283 h 0.8393 m 0.8048,0 h 0.3316 m 0.0794,0 h 0.4181 M 32.3782,25.412 h 0.8386 m 0.7913,0 h 0.4975 m 0.0529,0 h 0.2787 m -2.452,-0.0283 h 0.8378 m 0.778,0 h 0.6633 m 0.0265,0 h 0.1393 m -2.4377,-0.0284 h 0.837 m 0.7645,0 h 0.8292 M 32.3994,25.327 h 0.8362 m 0.7512,0 h 0.8292 m -2.4094,-0.0284 h 0.848 m 0.7252,0 h 0.8291 m -2.3953,-0.0283 h 0.8598 m 0.6993,0 h 0.8291 M 32.4243,25.242 h 0.8681 m 0.6519,0 h 0.8504 m -2.3599,-0.0284 h 0.8764 m 0.6048,0 h 0.8716 m -2.3421,-0.0284 h 0.8847 m 0.5574,0 h 0.8929 m -2.3243,-0.0283 h 0.8928 m 0.5103,0 h 0.9142 m -2.3068,-0.0283 h 0.9296 m 0.4346,0 h 0.9355 m -2.289,-0.0284 h 0.9661 m 0.3166,0 h 0.9957 M 32.488,25.0718 h 2.2571 m -2.2465,-0.0283 h 2.2359 m -2.2252,-0.0283 h 2.2146 m -2.204,-0.0284 h 2.1933 m -2.1827,-0.0283 h 2.1721 m -2.1614,-0.0284 h 2.1508 m -2.1402,-0.0283 h 2.1295 m -2.1189,-0.0283 h 2.0987 m -2.088,-0.0284 h 2.0678 m -2.0572,-0.0284 h 2.0369 m -2.0133,-0.0283 h 1.993 m -1.9694,-0.0283 h 1.9492 m -1.9256,-0.0284 h 1.9054 m -1.8817,-0.0284 h 1.8614 M 32.7018,24.675 h 1.8095 m -1.7859,-0.0283 h 1.7575 m -1.7405,-0.0284 h 1.7121 M 32.7594,24.59 h 1.6668 m -1.6498,-0.0284 h 1.6215 m -1.6044,-0.0283 h 1.576 m -1.559,-0.0284 h 1.5193 m -1.4697,-0.0283 h 1.43 m -1.3804,-0.0284 h 1.3408 m -1.2912,-0.0283 h 1.2515 m -1.2019,-0.0283 h 1.1622 m -1.0866,-0.0284 h 1.0369 M 33.16,24.3348 h 0.9118 m -0.8362,-0.0282 h 0.7866 M 33.349,24.2782 h 0.6237" stroke="#ffffff"/>
                        </g>
                    </g>
                </g>
                <g  gorn="0.4.0.1.23" id="g258">
                    <title  id="title244">element:U1</title>
                    <g  gorn="0.4.0.1.23.1" id="g256">
                        <title  id="title246">package:SOT23-5</title>
                        <line  x2="20.009199" gorn="0.4.0.1.23.1.1" y1="11.736" y2="11.736" style="stroke-linecap:round" x1="17.5748" id="line248" stroke-width="0.57599998" stroke="#ffffff"/>
                        <line  x2="17.5748" gorn="0.4.0.1.23.1.2" y1="18.936001" y2="18.936001" style="stroke-linecap:round" x1="20.009199" id="line250" stroke-width="0.57599998" stroke="#ffffff"/>
                        <line  x2="16.782801" gorn="0.4.0.1.23.1.3" y1="16.0968" y2="14.5752" style="stroke-linecap:round" x1="16.782801" id="line252" stroke-width="0.57599998" stroke="#ffffff"/>
                        <circle  cy="19.872" gorn="0.4.0.1.23.1.4" r="0.36000001" cx="21.672001" id="circle254" stroke-width="0" fill="none" stroke="#ffffff"/>
                    </g>
                </g>
                <g  gorn="0.4.0.1.24" id="g284">
                    <title  id="title260">element:U2</title>
                    <g  gorn="0.4.0.1.24.1" id="g282">
                        <title  id="title262">package:ICS40180</title>
                        <line  x2="2.89134" gorn="0.4.0.1.24.1.1" y1="19.559099" y2="21.514999" style="stroke-linecap:round" x1="2.89134" id="line264" stroke-width="0.72000003" stroke="#ffffff"/>
                        <line  x2="4.9606299" gorn="0.4.0.1.24.1.2" y1="21.514999" y2="21.514999" style="stroke-linecap:round" x1="2.89134" id="line266" stroke-width="0.72000003" stroke="#ffffff"/>
                        <line  x2="11.5087" gorn="0.4.0.1.24.1.3" y1="21.514999" y2="21.514999" style="stroke-linecap:round" x1="9.5527401" id="line268" stroke-width="0.72000003" stroke="#ffffff"/>
                        <line  x2="11.5087" gorn="0.4.0.1.24.1.4" y1="21.514999" y2="19.4457" style="stroke-linecap:round" x1="11.5087" id="line270" stroke-width="0.72000003" stroke="#ffffff"/>
                        <line  x2="11.5087" gorn="0.4.0.1.24.1.5" y1="12.1323" y2="10.1764" style="stroke-linecap:round" x1="11.5087" id="line272" stroke-width="0.72000003" stroke="#ffffff"/>
                        <line  x2="9.4393396" gorn="0.4.0.1.24.1.6" y1="10.1764" y2="10.1764" style="stroke-linecap:round" x1="11.5087" id="line274" stroke-width="0.72000003" stroke="#ffffff"/>
                        <line  x2="2.89134" gorn="0.4.0.1.24.1.7" y1="10.1764" y2="10.1764" style="stroke-linecap:round" x1="4.84724" id="line276" stroke-width="0.72000003" stroke="#ffffff"/>
                        <line  x2="2.89134" gorn="0.4.0.1.24.1.8" y1="10.1764" y2="12.2457" style="stroke-linecap:round" x1="2.89134" id="line278" stroke-width="0.72000003" stroke="#ffffff"/>
                        <circle  cy="9.4138603" gorn="0.4.0.1.24.1.9" r="0.36000001" cx="1.89071" id="circle280" stroke-width="0.72000003" fill="none" stroke="#ffffff"/>
                    </g>
                </g>
            </g>
            <circle  cy="21.6" gorn="0.4.0.2" r="2.052" connectorname="VCC" cx="36" id="connector12pin" stroke-width="1.22399998" fill="none" stroke="#9a916c"/>
            <circle  cy="14.4" gorn="0.4.0.3" r="2.052" connectorname="GND" cx="36" id="connector13pin" stroke-width="1.22399998" fill="none" stroke="#9a916c"/>
            <circle  cy="7.1999998" gorn="0.4.0.4" r="2.052" connectorname="AUD" cx="36" id="connector14pin" stroke-width="1.22399998" fill="none" stroke="#9a916c"/>
        </g>
        <g  transform="translate(4.2845,2.076)">
            <g >
                <g  gorn="0.4.1.0.0" id="0603-cap">
                    <path  gorn="0.4.1.0.0.0" style="fill:#dcdcdc" id="path294" d="M 4.245,2.268 H 0.29 C 0.13,2.268 0,2.138 0,1.977 V 0.29 C 0,0.13 0.13,0 0.29,0 h 3.955 c 0.16,0 0.29,0.13 0.29,0.29 v 1.687 c 0,0.161 -0.13,0.291 -0.29,0.291 z"/>
                    <rect height="2.2679999"  width="2.2679999" gorn="0.4.1.0.0.1" y="0" style="fill:#6e554b" x="1.1339999" id="rect296"/>
                </g>
            </g>
        </g>
        <g  transform="translate(24.2705,7.74043)">
            <g >
                <g  gorn="0.4.2.0.0" id="g305">
                    <g  transform="rotate(90,2.2675,1.134)">
                        <g >
                            <g  gorn="0.4.2.0.0.0.0.0" id="g303">
                                <path  gorn="0.4.2.0.0.0.0.0.0" style="fill:#dcdcdc" id="path299" d="M 4.245,2.268 H 0.29 C 0.13,2.268 0,2.138 0,1.977 V 0.29 C 0,0.13 0.13,0 0.29,0 h 3.955 c 0.16,0 0.29,0.13 0.29,0.29 v 1.687 c 0,0.161 -0.13,0.291 -0.29,0.291 z"/>
                                <rect height="2.2679999"  width="2.2679999" gorn="0.4.2.0.0.0.0.0.1" y="0" style="fill:#6e554b" x="1.1339999" id="rect301"/>
                            </g>
                        </g>
                    </g>
                </g>
            </g>
        </g>
        <g  transform="translate(17.8925,2.076)">
            <g >
                <g  gorn="0.4.3.0.0" id="g311">
                    <path  gorn="0.4.3.0.0.0" style="fill:#dcdcdc" id="path307" d="M 4.245,2.268 H 0.29 C 0.13,2.268 0,2.138 0,1.977 V 0.29 C 0,0.13 0.13,0 0.29,0 h 3.955 c 0.16,0 0.29,0.13 0.29,0.29 v 1.687 c 0,0.161 -0.13,0.291 -0.29,0.291 z"/>
                    <rect height="2.2679999"  width="2.2679999" gorn="0.4.3.0.0.1" y="0" style="fill:#f2f2f2" x="1.1339999" id="rect309"/>
                </g>
            </g>
        </g>
        <g  transform="translate(15.9485,21.216)">
            <g >
                <g  gorn="0.4.4.0.0" id="g319">
                    <g  transform="rotate(180,2.2675,1.134)">
                        <g >
                            <g  gorn="0.4.4.0.0.0.0.0" id="g317">
                                <path  gorn="0.4.4.0.0.0.0.0.0" style="fill:#dcdcdc" id="path313" d="M 4.245,2.268 H 0.29 C 0.13,2.268 0,2.138 0,1.977 V 0.29 C 0,0.13 0.13,0 0.29,0 h 3.955 c 0.16,0 0.29,0.13 0.29,0.29 v 1.687 c 0,0.161 -0.13,0.291 -0.29,0.291 z"/>
                                <rect height="2.2679999"  width="2.2679999" gorn="0.4.4.0.0.0.0.0.1" y="0" style="fill:#6e554b" x="1.1339999" id="rect315"/>
                            </g>
                        </g>
                    </g>
                </g>
            </g>
        </g>
        <g  transform="translate(28.4705,17.874)">
            <g >
                <g  gorn="0.4.5.0.0" id="0603-res">
                    <g  transform="rotate(-90,2.2675,1.134)">
                        <g >
                            <g  gorn="0.4.5.0.0.0.0.0" id="g325">
                                <path  gorn="0.4.5.0.0.0.0.0.0" style="fill:#dcdcdc" id="path321" d="M 4.245,2.268 H 0.29 C 0.13,2.268 0,2.138 0,1.977 V 0.29 C 0,0.13 0.13,0 0.29,0 h 3.955 c 0.16,0 0.29,0.13 0.29,0.29 v 1.687 c 0,0.161 -0.13,0.291 -0.29,0.291 z"/>
                                <rect height="2.2679999"  width="2.2679999" gorn="0.4.5.0.0.0.0.0.1" y="0" style="fill:#333333" x="1.1339999" id="rect323"/>
                            </g>
                        </g>
                    </g>
                </g>
            </g>
        </g>
        <g  transform="translate(29.0825,8.15911)">
            <g >
                <g  gorn="0.4.6.0.0" id="g334">
                    <g  transform="rotate(-90,2.2675,1.134)">
                        <g >
                            <g  gorn="0.4.6.0.0.0.0.0" id="g332">
                                <path  gorn="0.4.6.0.0.0.0.0.0" style="fill:#dcdcdc" id="path328" d="M 4.245,2.268 H 0.29 C 0.13,2.268 0,2.138 0,1.977 V 0.29 C 0,0.13 0.13,0 0.29,0 h 3.955 c 0.16,0 0.29,0.13 0.29,0.29 v 1.687 c 0,0.161 -0.13,0.291 -0.29,0.291 z"/>
                                <rect height="2.2679999"  width="2.2679999" gorn="0.4.6.0.0.0.0.0.1" y="0" style="fill:#333333" x="1.1339999" id="rect330"/>
                            </g>
                        </g>
                    </g>
                </g>
            </g>
        </g>
        <g  transform="translate(10.8785,4.914)">
            <g >
                <g  gorn="0.4.7.0.0" id="g342">
                    <g  transform="rotate(90,2.2675,1.134)">
                        <g >
                            <g  gorn="0.4.7.0.0.0.0.0" id="g340">
                                <path  gorn="0.4.7.0.0.0.0.0.0" style="fill:#dcdcdc" id="path336" d="M 4.245,2.268 H 0.29 C 0.13,2.268 0,2.138 0,1.977 V 0.29 C 0,0.13 0.13,0 0.29,0 h 3.955 c 0.16,0 0.29,0.13 0.29,0.29 v 1.687 c 0,0.161 -0.13,0.291 -0.29,0.291 z"/>
                                <rect height="2.2679999"  width="2.2679999" gorn="0.4.7.0.0.0.0.0.1" y="0" style="fill:#333333" x="1.1339999" id="rect338"/>
                            </g>
                        </g>
                    </g>
                </g>
            </g>
        </g>
        <g  transform="translate(17.8925,7.182)">
            <g >
                <g  gorn="0.4.8.0.0" id="g350">
                    <g  transform="rotate(180,2.2675,1.134)">
                        <g >
                            <g  gorn="0.4.8.0.0.0.0.0" id="g348">
                                <path  gorn="0.4.8.0.0.0.0.0.0" style="fill:#dcdcdc" id="path344" d="M 4.245,2.268 H 0.29 C 0.13,2.268 0,2.138 0,1.977 V 0.29 C 0,0.13 0.13,0 0.29,0 h 3.955 c 0.16,0 0.29,0.13 0.29,0.29 v 1.687 c 0,0.161 -0.13,0.291 -0.29,0.291 z"/>
                                <rect height="2.2679999"  width="2.2679999" gorn="0.4.8.0.0.0.0.0.1" y="0" style="fill:#333333" x="1.1339999" id="rect346"/>
                            </g>
                        </g>
                    </g>
                </g>
            </g>
        </g>
        <g  transform="rotate(180,45.383761,18.287773)">
            <g >
                <g  gorn="0.4.9.0.0" id="g165">
                    <g  gorn="0.4.9.0.0.0" id="g163">
                        <g  gorn="0.4.9.0.0.0.0" id="g1054">
                            <rect height="1.125"  width="3.7499998" gorn="0.4.9.0.0.0.0.0" y="23.010038" style="display:inline;" x="68.491028" id="rect2513" stroke-width="0.83685791" fill="#dcdcdc"/>
                            <rect height="1.125"  width="3.7499998" gorn="0.4.9.0.0.0.0.1" y="20.60968" style="display:inline;" x="68.464966" id="rect2515" stroke-width="0.83685791" fill="#dcdcdc"/>
                            <rect height="1.125"  width="3.7499998" gorn="0.4.9.0.0.0.0.2" y="18.243788" style="display:inline;" x="68.458969" id="rect2517" stroke-width="0.83685553" fill="#dcdcdc"/>
                            <rect height="1.125"  width="3.7499998" gorn="0.4.9.0.0.0.0.3" y="23.010038" style="display:inline;" id="rect2519" x="71.791023" stroke-width="0.83685791" fill="#dcdcdc"/>
                            <rect height="1.125"  width="3.7499998" gorn="0.4.9.0.0.0.0.4" y="18.243788" style="display:inline;" id="rect2521" x="71.758972" stroke-width="0.83685553" fill="#dcdcdc"/>
                            <g  transform="scale(-1)">
                                <g >
                                    <g  gorn="0.4.9.0.0.0.0.5.0.0" id="g159">
                                        <g  gorn="0.4.9.0.0.0.0.5.0.0.0" id="g157">
                                            <rect height="6.911202"  width="4.0814619" gorn="0.4.9.0.0.0.0.5.0.0.0.0" y="-24.689499" style="display:inline;" x="-74.01796" id="rect2525" stroke-width="0" fill="#333333" fill-opacity="1" stroke="none"/>
                                        </g>
                                    </g>
                                </g>
                            </g>
                        </g>
                    </g>
                </g>
            </g>
        </g>
        <g  transform="matrix(0.26872251,0,0,0.35350408,2.7053585,0.25221783)">
            <g >
                <g  gorn="0.4.10.0.0" id="g287">
                    <g  gorn="0.4.10.0.0.0" id="g285">
                        <g  gorn="0.4.10.0.0.0.0" id="g221">
                            <rect height="30.052879"  width="29.331051" ry="1.9113873" gorn="0.4.10.0.0.0.0.0" y="29.035637" style="display:inline;opacity:1;fill-rule:evenodd;stroke-linecap:round;stroke-linejoin:round;stroke-miterlimit:4;stroke-dasharray:none;stroke-dashoffset:0;paint-order:normal" stroke-opacity="1" id="rect1056" x="2.0872512" stroke-width="2.43339157" fill="#e6e6e6" fill-opacity="1" stroke="none"/>
                            <rect height="27.931076"  width="26.539457" ry="1.9113873" gorn="0.4.10.0.0.0.0.1" y="30.178919" style="opacity:1;fill-rule:evenodd;stroke-linecap:round;stroke-linejoin:round;stroke-miterlimit:4;stroke-dasharray:none;stroke-dashoffset:0;paint-order:normal" stroke-opacity="1" x="3.5534203" id="rect4749" stroke-width="2.43339157" fill="#f9f9f9" fill-opacity="1" stroke="none"/>
                            <ellipse  cy="33.160244" ry="0.45813376" gorn="0.4.10.0.0.0.0.2" rx="0.79281723" cx="7.370543" stroke-opacity="1" id="circle280-3" stroke-width="1.20534861" fill="none" stroke="#e6e6e6"/>
                        </g>
                    </g>
                </g>
            </g>
        </g>
    </g>
</svg>
