<?xml version='1.0' encoding='utf-8'?>
<!DOCTYPE svg>
<!-- Generator: Adobe Illustrator 17.1.0, SVG Export Plug-In . SVG Version: 6.00 Build 0)  -->
<svg xmlns="http://www.w3.org/2000/svg" height="2.79583in" xml:space="preserve" x="0px" width="1.20139in" y="0px" viewBox="0 0 86.5 201.3" enable-background="new 0 35.6 86.5 201.3" xmlns:xml="http://www.w3.org/XML/1998/namespace" gorn="0"  id="Layer_1" version="1.1">
    <desc >
        <referenceFile >GPIO-EDISON.svg</referenceFile>
    </desc>
    <g transform="translate(0,-35.6)" >
        <g >
            <g >
                <desc >Fritzing breadboard generated by brd2svg</desc>
                <g gorn="0.1.0.0.1"  id="breadboard">
                    <g gorn="0.1.0.0.1.0"  id="icon">
                        <path d="M81.4,35.6H5.1c-2.8,0-5,2.3-5,5v115.9c0,2.8,2.3,5,5,5h20.2v75.6h36v-75.6h20.2l0,0c2.8,0,5-2.3,5-5V40.7C86.4,37.9,84.1,35.6,81.4,35.6z M18.3,145.2c0,1.6-1.3,2.8-2.8,2.8s-2.8-1.3-2.8-2.8c0-1.6,1.3-2.8,2.8-2.8S18.3,143.6,18.3,145.2z M76.6,63.9c0,1.6-1.3,2.8-2.8,2.8S71,65.4,71,63.9c0-1.6,1.3-2.8,2.8-2.8S76.6,62.3,76.6,63.9z M8.2,156.2c0,1.6-1.3,2.8-2.8,2.8c-1.6,0-2.8-1.3-2.8-2.8s1.3-2.8,2.8-2.8C7,153.4,8.2,154.7,8.2,156.2z M83.8,156.2c0,1.6-1.3,2.8-2.8,2.8c-1.6,0-2.8-1.3-2.8-2.8s1.3-2.8,2.8-2.8C82.6,153.4,83.8,154.7,83.8,156.2z M83.8,41c0,1.6-1.3,2.8-2.8,2.8c-1.6,0-2.8-1.3-2.8-2.8c0-1.6,1.3-2.8,2.8-2.8C82.6,38.2,83.8,39.5,83.8,41z M8.2,41c0,1.6-1.3,2.8-2.8,2.8c-1.6,0-2.8-1.3-2.8-2.8c0-1.6,1.3-2.8,2.8-2.8C7,38.2,8.2,39.5,8.2,41z M28.8,232.2c0.8,0,1.4,0.6,1.4,1.4s-0.6,1.4-1.4,1.4s-1.4-0.6-1.4-1.4S28,232.2,28.8,232.2z M28.8,225c0.8,0,1.4,0.6,1.4,1.4s-0.6,1.4-1.4,1.4s-1.4-0.6-1.4-1.4S28,225,28.8,225z M28.8,217.8c0.8,0,1.4,0.6,1.4,1.4s-0.6,1.4-1.4,1.4s-1.4-0.6-1.4-1.4S28,217.8,28.8,217.8z M28.8,210.6c0.8,0,1.4,0.6,1.4,1.4s-0.6,1.4-1.4,1.4s-1.4-0.6-1.4-1.4S28,210.6,28.8,210.6z M28.8,203.4c0.8,0,1.4,0.6,1.4,1.4s-0.6,1.4-1.4,1.4s-1.4-0.6-1.4-1.4S28,203.4,28.8,203.4z M28.8,196.2c0.8,0,1.4,0.6,1.4,1.4s-0.6,1.4-1.4,1.4s-1.4-0.6-1.4-1.4S28,196.2,28.8,196.2z M28.8,189c0.8,0,1.4,0.6,1.4,1.4s-0.6,1.4-1.4,1.4s-1.4-0.6-1.4-1.4S28,189,28.8,189z M28.8,181.8c0.8,0,1.4,0.6,1.4,1.4s-0.6,1.4-1.4,1.4s-1.4-0.6-1.4-1.4S28,181.8,28.8,181.8z M28.8,174.6c0.8,0,1.4,0.6,1.4,1.4s-0.6,1.4-1.4,1.4s-1.4-0.6-1.4-1.4S28,174.6,28.8,174.6z M28.8,167.4c0.8,0,1.4,0.6,1.4,1.4s-0.6,1.4-1.4,1.4s-1.4-0.6-1.4-1.4S28,167.4,28.8,167.4z M57.6,232.2c0.8,0,1.4,0.6,1.4,1.4s-0.6,1.4-1.4,1.4s-1.4-0.6-1.4-1.4S56.8,232.2,57.6,232.2z M57.6,225c0.8,0,1.4,0.6,1.4,1.4s-0.6,1.4-1.4,1.4s-1.4-0.6-1.4-1.4S56.8,225,57.6,225z M57.6,217.8c0.8,0,1.4,0.6,1.4,1.4s-0.6,1.4-1.4,1.4s-1.4-0.6-1.4-1.4S56.8,217.8,57.6,217.8z M57.6,210.6c0.8,0,1.4,0.6,1.4,1.4s-0.6,1.4-1.4,1.4s-1.4-0.6-1.4-1.4S56.8,210.6,57.6,210.6z M57.6,203.4c0.8,0,1.4,0.6,1.4,1.4s-0.6,1.4-1.4,1.4s-1.4-0.6-1.4-1.4S56.8,203.4,57.6,203.4z M57.6,196.2c0.8,0,1.4,0.6,1.4,1.4s-0.6,1.4-1.4,1.4s-1.4-0.6-1.4-1.4S56.8,196.2,57.6,196.2z M57.6,189c0.8,0,1.4,0.6,1.4,1.4s-0.6,1.4-1.4,1.4s-1.4-0.6-1.4-1.4S56.8,189,57.6,189z M57.6,181.8c0.8,0,1.4,0.6,1.4,1.4s-0.6,1.4-1.4,1.4s-1.4-0.6-1.4-1.4S56.8,181.8,57.6,181.8z M57.6,174.6c0.8,0,1.4,0.6,1.4,1.4s-0.6,1.4-1.4,1.4s-1.4-0.6-1.4-1.4S56.8,174.6,57.6,174.6z M57.6,167.4c0.8,0,1.4,0.6,1.4,1.4s-0.6,1.4-1.4,1.4s-1.4-0.6-1.4-1.4S56.8,167.4,57.6,167.4z"  fill="#C62717"/>
                        <g transform="matrix(1, 0, 0, 1, 55.08, 31.68)" >
                            <g >
                                <g gorn="0.1.0.0.1.0.1.0.0"  id="silkscreen">
                                    <g transform="matrix(4.489659e-11 1 -1 4.489659e-11 -52.6835 103.1199)" >
                                        <g >
                                            <text  font-family="OCRA" fill="#FFFFFF" font-size="4">4xM2.0</text>
                                        </g>
                                    </g>
                                    <g transform="matrix(4.489659e-11 -1 1 4.489659e-11 -10.1796 146.4196)" >
                                        <g >
                                            <text  font-family="OCRA" fill="#FFFFFF" font-size="3">UART1</text>
                                        </g>
                                    </g>
                                    <g transform="matrix(4.489659e-11 1 -1 4.489659e-11 -52.6835 17.2866)" >
                                        <g >
                                            <text  font-family="OCRA" fill="#FFFFFF" font-size="5">GPIO BLOCK</text>
                                        </g>
                                    </g>
                                    <g transform="matrix(1 0 0 1 -22.6524 137.9454)" >
                                        <g >
                                            <text  font-family="OCRA" fill="#FFFFFF" font-size="3">3.3v</text>
                                        </g>
                                    </g>
                                    <g transform="matrix(1 0 0 1 -22.625 145.2703)" >
                                        <g >
                                            <text  font-family="OCRA" fill="#FFFFFF" font-size="3">1.8v</text>
                                        </g>
                                    </g>
                                    <g transform="matrix(1 0 0 1 -7.1423 137.9456)" >
                                        <g >
                                            <text  font-family="OCRA" fill="#FFFFFF" font-size="3">GND</text>
                                        </g>
                                    </g>
                                    <g transform="matrix(1 0 0 1 -9.2873 152.9456)" >
                                        <g >
                                            <text  font-family="OCRA" fill="#FFFFFF" font-size="3">GP44</text>
                                        </g>
                                    </g>
                                    <g transform="matrix(1 0 0 1 -9.2873 160.0706)" >
                                        <g >
                                            <text  font-family="OCRA" fill="#FFFFFF" font-size="3">GP45</text>
                                        </g>
                                    </g>
                                    <g transform="matrix(1 0 0 1 -9.2873 166.9456)" >
                                        <g >
                                            <text  font-family="OCRA" fill="#FFFFFF" font-size="3">GP46</text>
                                        </g>
                                    </g>
                                    <g transform="matrix(1 0 0 1 -9.2873 174.1956)" >
                                        <g >
                                            <text  font-family="OCRA" fill="#FFFFFF" font-size="3">GP47</text>
                                        </g>
                                    </g>
                                    <g transform="matrix(1 0 0 1 -9.2873 181.4456)" >
                                        <g >
                                            <text  font-family="OCRA" fill="#FFFFFF" font-size="3">GP48</text>
                                        </g>
                                    </g>
                                    <g transform="matrix(1 0 0 1 -9.2873 188.6956)" >
                                        <g >
                                            <text  font-family="OCRA" fill="#FFFFFF" font-size="3">GP49</text>
                                        </g>
                                    </g>
                                    <g transform="matrix(1 0 0 1 -9.2873 195.8206)" >
                                        <g >
                                            <text  font-family="OCRA" fill="#FFFFFF" font-size="3">GP15</text>
                                        </g>
                                    </g>
                                    <g transform="matrix(1 0 0 1 -9.2873 203.1956)" >
                                        <g >
                                            <text  font-family="OCRA" fill="#FFFFFF" font-size="3">GP14</text>
                                        </g>
                                    </g>
                                    <g transform="matrix(1 0 0 1 -9.2598 145.2703)" >
                                        <g >
                                            <text  font-family="OCRA" fill="#FFFFFF" font-size="3">VSYS</text>
                                        </g>
                                    </g>
                                    <g transform="matrix(1 0 0 1 -22.9798 150.7202)" >
                                        <g >
                                            <g enable-background="new    " >
                                                <text x="0" y="0"  font-family="OCRA" fill="#FFFFFF" font-size="3">GP131</text>
                                                <text x="0" y="3.6"  font-family="OCRA" fill="#FFFFFF" font-size="3">TX</text>
                                            </g>
                                        </g>
                                    </g>
                                    <g transform="matrix(1 0 0 1 -22.9798 158.0952)" >
                                        <g >
                                            <g enable-background="new    " >
                                                <text x="0" y="0"  font-family="OCRA" fill="#FFFFFF" font-size="3">GP130</text>
                                                <text x="0" y="3.6"  font-family="OCRA" fill="#FFFFFF" font-size="3">RX</text>
                                            </g>
                                        </g>
                                    </g>
                                    <g transform="matrix(1 0 0 1 -22.9798 165.3452)" >
                                        <g >
                                            <g enable-background="new    " >
                                                <text x="0" y="0"  font-family="OCRA" fill="#FFFFFF" font-size="3">GP129</text>
                                                <text x="0" y="3.6"  font-family="OCRA" fill="#FFFFFF" font-size="3">RTS</text>
                                            </g>
                                        </g>
                                    </g>
                                    <g transform="matrix(1 0 0 1 -22.9798 172.5952)" >
                                        <g >
                                            <g enable-background="new    " >
                                                <text x="0" y="0"  font-family="OCRA" fill="#FFFFFF" font-size="3">GP128</text>
                                                <text x="0" y="3.6"  font-family="OCRA" fill="#FFFFFF" font-size="3">CTS</text>
                                            </g>
                                        </g>
                                    </g>
                                    <g transform="matrix(1 0 0 1 -22.9798 179.5952)" >
                                        <g >
                                            <g enable-background="new    " >
                                                <text x="0" y="0"  font-family="OCRA" fill="#FFFFFF" font-size="3">GP183</text>
                                                <text x="0" y="3.6"  font-family="OCRA" fill="#FFFFFF" font-size="3">PWM3</text>
                                            </g>
                                        </g>
                                    </g>
                                    <g transform="matrix(1 0 0 1 -22.9798 186.9702)" >
                                        <g >
                                            <g enable-background="new    " >
                                                <text x="0" y="0"  font-family="OCRA" fill="#FFFFFF" font-size="3">GP182</text>
                                                <text x="0" y="3.6"  font-family="OCRA" fill="#FFFFFF" font-size="3">PWM2</text>
                                            </g>
                                        </g>
                                    </g>
                                    <g transform="matrix(1 0 0 1 -22.9798 194.0952)" >
                                        <g >
                                            <g enable-background="new    " >
                                                <text x="0" y="0"  font-family="OCRA" fill="#FFFFFF" font-size="3">GP12</text>
                                                <text x="0" y="3.6"  font-family="OCRA" fill="#FFFFFF" font-size="3">PWM0</text>
                                            </g>
                                        </g>
                                    </g>
                                    <g transform="matrix(1 0 0 1 -22.9798 201.3452)" >
                                        <g >
                                            <g enable-background="new    " >
                                                <text x="0" y="0"  font-family="OCRA" fill="#FFFFFF" font-size="3">GP13</text>
                                                <text x="0" y="3.6"  font-family="OCRA" fill="#FFFFFF" font-size="3">PWM1</text>
                                            </g>
                                        </g>
                                    </g>
                                    <path d="M18.2,127.9l0.5-0.5l-0.7-1.1l0.1-0.2c0.2-0.3,0.3-0.6,0.4-0.9l0.1-0.2l1.3-0.2v-0.7l-1.3-0.2l-0.1-0.2c-0.1-0.3-0.2-0.6-0.4-0.9l-0.1-0.2l0.7-1.1l-0.5-0.5l-1.1,0.7l-0.2-0.1c-0.3-0.2-0.5-0.3-0.9-0.4l-0.2-0.1l-0.2-1.3H15l-0.2,1.3l-0.2,0.1c-0.3,0.1-0.6,0.2-0.9,0.4l-0.2,0.1l-1.1-0.7l-0.5,0.5l0.7,1.1l-0.1,0.2c-0.2,0.3-0.3,0.6-0.4,0.9l-0.1,0.2l-1.3,0.2v0.7l1.3,0.2l0.1,0.2c0.1,0.3,0.2,0.6,0.4,0.9l0.1,0.2l-0.7,1.1l0.5,0.5l1.1-0.7l0.2,0.1c0.1,0.1,0.2,0.1,0.3,0.2l0.6-1.5c-0.5-0.3-0.9-1-0.7-1.7c0.1-0.6,0.6-1.1,1.2-1.2c1-0.2,1.8,0.6,1.8,1.5c0,0.5-0.3,1.1-0.7,1.3l0.6,1.5c0.1-0.1,0.2-0.1,0.3-0.2l0.2-0.1L18.2,127.9z"  fill="#FFFFFF"/>
                                    <g >
                                        <title >PART LOGO4</title>
                                        <polygon  fill="#FFFFFF" points="-26.1,130.3 -26.1,130.4 -26.1,130.6 -26,130.7 -25.9,130.8 -25.8,130.9 -25.6,130.9 -25.4,130.9 -25.3,131 -25.2,130.9 -25,130.9 -24.9,130.9 -24.8,130.8 -24.7,130.8 -24.6,130.7 -24.6,130.6 -24.6,130.4 -24.6,130.3 -24.6,130.2 -24.8,130.1 -24.9,130 -25.1,130 -25.3,129.9 -25.5,129.9 -25.8,129.8 -26.1,129.8 -26.3,129.7 -26.5,129.6 -26.7,129.5 -26.9,129.4 -27,129.2 -27.1,129 -27.1,128.7 -27.1,128.4 -26.9,128.1 -26.7,127.9 -26.5,127.7 -26.3,127.6 -26,127.5 -25.7,127.5 -25.3,127.5 -25,127.5 -24.7,127.5 -24.4,127.6 -24.2,127.7 -23.9,127.9 -23.8,128.1 -23.6,128.4 -23.6,128.7 -23.7,128.7 -23.8,128.7 -24,128.7 -24.1,128.7 -24.2,128.7 -24.4,128.7 -24.5,128.7 -24.6,128.7 -24.6,128.6 -24.7,128.5 -24.8,128.4 -24.8,128.3 -25,128.3 -25.1,128.2 -25.2,128.2 -25.4,128.2 -25.5,128.2 -25.6,128.2 -25.7,128.2 -25.8,128.3 -25.9,128.3 -25.9,128.4 -26,128.5 -26,128.6 -25.9,128.7 -25.9,128.8 -25.8,128.9 -25.6,129 -25.4,129 -25.2,129.1 -25,129.1 -24.7,129.2 -24.5,129.2 -24.2,129.3 -24.1,129.4 -23.9,129.5 -23.7,129.7 -23.6,129.8 -23.5,130 -23.5,130.3 -23.5,130.6 -23.6,131 -23.8,131.2 -24,131.4 -24.3,131.5 -24.6,131.6 -25,131.7 -25.3,131.7 -25.6,131.7 -26,131.6 -26.3,131.5 -26.6,131.4 -26.8,131.2 -27,130.9 -27.1,130.6 -27.2,130.3 -27.1,130.3 -26.9,130.3 -26.8,130.3 -26.7,130.3 -26.5,130.3 -26.4,130.3 -26.3,130.3 "/>
                                        <polygon  fill="#FFFFFF" points="-20.2,130.3 -20.1,130 -20.1,129.8 -20.1,129.6 -18.9,129.6 -19,130 -19.1,130.4 -19.2,130.7 "/>
                                        <polygon  fill="#FFFFFF" points="-19.2,130.7 -19.4,131 -19.6,131.3 -19.9,131.5 -20.3,131.6 -20.7,131.7 -20.9,131.7 -21,131.6 -21.2,131.6 -21.4,131.5 -21.5,131.4 -21.7,131.4 -21.8,131.2 -21.9,131.1 -21.9,131.1 -21.9,131.4 -21.9,131.8 -21.9,132.1 -21.9,132.5 -21.9,132.9 -21.9,133.3 -21.9,133.6 -21.9,134 -22,133.8 -22.2,133.7 -22.3,133.6 -22.5,133.5 -22.6,133.4 -22.7,133.2 -22.9,133.1 -23,133 -23,132.3 -23,131.7 -23,131 -23,130.4 -23,129.7 -23,129.1 -23,128.4 -23,127.8 -22.9,127.7 -22.7,127.7 -22.6,127.7 -22.5,127.7 -22.3,127.6 -22.2,127.6 -22.1,127.6 -22,127.6 -22,127.6 -22,127.7 -22,127.8 -22,127.8 -22,127.9 -22,128 -22,128 -22,128.1 -21.8,127.9 -21.7,127.8 -21.6,127.7 -21.4,127.6 -21.3,127.5 -21.1,127.5 -21,127.5 -20.8,127.5 -20.3,127.5 -19.9,127.6 -19.6,127.8 -19.4,128.1 -19.2,128.4 -19.1,128.8 -19,129.2 -18.9,129.6 -20.1,129.6 -20.1,129.3 -20.1,129.1 -20.2,128.9 -20.3,128.7 -20.4,128.5 -20.6,128.4 -20.8,128.3 -21,128.3 -21.2,128.3 -21.5,128.4 -21.6,128.5 -21.8,128.7 -21.8,128.9 -21.9,129.1 -22,129.3 -22,129.6 -22,129.8 -21.9,130 -21.8,130.3 -21.8,130.5 -21.6,130.6 -21.4,130.8 -21.2,130.8 -21,130.8 -20.8,130.8 -20.5,130.8 -20.4,130.6 -20.3,130.5 -20.2,130.3 "/>
                                        <polygon  fill="#FFFFFF" points="-17.3,129.3 -17,129.3 -16.8,129.2 -16.6,129.2 -16.4,129.8 -16.5,129.8 -16.5,129.8 -16.6,129.8 -16.7,129.8 -16.7,129.8 -16.8,129.8 -16.9,129.8 -16.9,129.8 -17,129.9 -17,129.9 "/>
                                        <polygon  fill="#FFFFFF" points="-17,129.9 -17.1,129.9 -17.2,129.9 -17.2,130 -17.3,130 -17.3,130 -17.4,130 -17.4,130.1 -17.4,130.1 -17.5,130.2 -17.5,130.2 -17.5,130.3 -17.5,130.4 -17.5,130.4 -17.5,130.5 -17.5,130.6 -17.5,130.6 -17.5,130.7 -17.4,130.7 -17.4,130.8 -17.4,130.8 -17.3,130.8 -17.3,130.9 -17.2,130.9 -17.2,130.9 -17.1,130.9 -17,130.9 -17,131 -16.9,131 -16.9,131 -16.7,130.9 -16.6,130.9 -16.5,130.9 -16.3,130.8 -16.3,130.8 -16.2,130.7 -16.1,130.6 -16.1,130.6 -16.1,130.5 -16,130.4 -16,130.4 -16,130.3 -16,130.2 -16,130.1 -16,130.1 -16,130 -16,130 -16,130 -16,129.9 -16,129.9 -16,129.9 -16,129.8 -16,129.8 -16,129.8 -16,129.8 -16,129.7 -16,129.7 -16,129.7 -16,129.7 -16,129.6 -16,129.7 -16,129.7 -16.1,129.7 -16.1,129.7 -16.2,129.7 -16.3,129.7 -16.3,129.8 -16.4,129.8 -16.4,129.8 -16.6,129.2 -16.4,129.1 -16.2,129.1 -16.1,129 -16,128.9 -16,128.7 -16,128.7 -16,128.6 -16,128.5 -16,128.5 -16.1,128.4 -16.1,128.4 -16.1,128.3 -16.2,128.3 -16.2,128.3 -16.3,128.2 -16.3,128.2 -16.4,128.2 -16.5,128.2 -16.5,128.2 -16.6,128.2 -16.7,128.2 -16.7,128.2 -16.8,128.2 -16.9,128.2 -17,128.2 -17,128.3 -17.1,128.3 -17.1,128.3 -17.2,128.3 -17.2,128.4 -17.3,128.4 -17.3,128.5 -17.3,128.5 -17.4,128.6 -17.4,128.7 -17.4,128.7 -17.4,128.8 -17.5,128.8 -17.5,128.8 -17.6,128.8 -17.7,128.8 -17.8,128.8 -17.8,128.8 -17.9,128.8 -18,128.8 -18,128.8 -18.1,128.8 -18.2,128.8 -18.2,128.8 -18.3,128.8 -18.4,128.8 -18.4,128.8 -18.5,128.8 -18.5,128.6 -18.4,128.5 -18.4,128.3 -18.3,128.2 -18.2,128 -18.1,127.9 -18,127.8 -17.9,127.8 -17.7,127.7 -17.6,127.6 -17.4,127.6 -17.3,127.5 -17.1,127.5 -17,127.5 -16.8,127.5 -16.6,127.5 -16.5,127.5 -16.3,127.5 -16.2,127.5 -16,127.5 -15.9,127.5 -15.7,127.6 -15.6,127.6 -15.4,127.7 -15.3,127.8 -15.2,127.8 -15.1,127.9 -15,128 -15,128.1 -14.9,128.3 -14.9,128.4 -14.9,128.6 -14.9,128.7 -14.9,128.9 -14.9,129 -14.9,129.1 -14.9,129.3 -14.9,129.4 -14.9,129.5 -14.9,129.7 -14.9,129.8 -14.9,129.9 -14.9,130 -14.9,130.2 -14.9,130.3 -14.9,130.4 -14.9,130.6 -14.9,130.7 -14.9,130.8 -14.9,130.8 -14.9,130.9 -14.8,131 -14.8,131 -14.8,131.1 -14.8,131.2 -14.8,131.2 -14.8,131.3 -14.8,131.3 -14.8,131.4 -14.8,131.4 -14.8,131.5 -14.8,131.5 -14.7,131.6 -14.7,131.6 -14.8,131.6 -14.9,131.6 -14.9,131.6 -15,131.6 -15.1,131.6 -15.1,131.6 -15.2,131.6 -15.3,131.6 -15.3,131.6 -15.4,131.6 -15.5,131.6 -15.5,131.6 -15.6,131.6 -15.7,131.6 -15.8,131.6 -15.8,131.6 -15.8,131.6 -15.9,131.5 -15.9,131.5 -15.9,131.5 -15.9,131.4 -15.9,131.4 -15.9,131.4 -15.9,131.4 -15.9,131.3 -15.9,131.3 -15.9,131.3 -15.9,131.2 -15.9,131.2 -15.9,131.2 -16,131.3 -16.1,131.3 -16.1,131.4 -16.2,131.4 -16.3,131.5 -16.4,131.5 -16.5,131.6 -16.5,131.6 -16.6,131.6 -16.7,131.6 -16.8,131.6 -16.9,131.7 -17,131.7 -17.1,131.7 -17.2,131.7 -17.2,131.7 -17.4,131.7 -17.5,131.7 -17.7,131.7 -17.8,131.6 -17.9,131.6 -18,131.5 -18.1,131.5 -18.2,131.4 -18.3,131.3 -18.4,131.2 -18.5,131.1 -18.5,131 -18.6,130.9 -18.6,130.8 -18.6,130.6 -18.6,130.5 -18.6,130.2 -18.5,129.9 -18.4,129.7 -18.2,129.6 -18,129.5 -17.8,129.4 -17.5,129.3 -17.3,129.3 "/>
                                        <polygon  fill="#FFFFFF" points="-14.2,127.8 -14.1,127.7 -14,127.7 -13.8,127.7 -13.7,127.7 -13.6,127.6 -13.4,127.6 -13.3,127.6 -13.2,127.6 -13.2,127.7 -13.2,127.8 -13.2,127.8 -13.2,128 -13.2,128 -13.2,128.1 -13.2,128.2 -13.2,128.3 -13.1,128.1 -13,128 -12.8,127.8 -12.7,127.7 -12.5,127.6 -12.3,127.5 -12.1,127.5 -11.9,127.5 -11.9,127.5 -11.8,127.5 -11.8,127.5 -11.8,127.5 -11.7,127.5 -11.7,127.5 -11.7,127.5 -11.7,127.5 -11.7,127.6 -11.7,127.8 -11.7,127.9 -11.7,128 -11.7,128.1 -11.7,128.3 -11.7,128.4 -11.7,128.5 -11.7,128.5 -11.7,128.5 -11.8,128.5 -11.9,128.5 -11.9,128.5 -11.9,128.5 -12,128.5 -12.1,128.5 -12.3,128.5 -12.6,128.6 -12.8,128.7 -12.9,128.9 -13,129.1 -13.1,129.3 -13.1,129.5 -13.1,129.8 -13.1,130 -13.1,130.2 -13.1,130.4 -13.1,130.7 -13.1,130.9 -13.1,131.1 -13.1,131.4 -13.1,131.6 -13.3,131.6 -13.4,131.6 -13.6,131.6 -13.7,131.6 -13.8,131.6 -14,131.6 -14.1,131.6 -14.2,131.6 -14.2,131.1 -14.2,130.6 -14.2,130.1 -14.2,129.7 -14.2,129.2 -14.2,128.7 -14.2,128.2 "/>
                                        <polygon  fill="#FFFFFF" points="-11.2,126.6 -10.1,126.1 -10.1,129 -8.7,127.6 -7.4,127.6 -8.9,129 -7.3,131.6 -8.6,131.6 -9.7,129.8 -10.1,130.2 -10.1,131.6 -11.2,131.6 "/>
                                        <polygon  fill="#FFFFFF" points="-6.6,128.3 -6.7,128.3 -6.9,128.3 -7,128.3 -7.1,128.3 -7.3,128.3 -7.4,128.3 -7.6,128.3 -7.7,128.3 -7.6,128.2 -7.5,128.1 -7.4,128 -7.3,127.9 -7.2,127.8 -7.1,127.8 -7,127.7 -6.9,127.6 -6.9,127.6 -6.8,127.6 -6.8,127.6 -6.8,127.6 -6.7,127.6 -6.7,127.6 -6.6,127.6 -6.6,127.6 -6.6,127.5 -6.6,127.5 -6.6,127.4 -6.6,127.4 -6.6,127.4 -6.6,127.3 -6.6,127.3 -6.6,127.3 -6.6,127 -6.5,126.8 -6.4,126.6 -6.3,126.4 -6.1,126.2 -5.9,126.1 -5.6,126.1 -5.3,126.1 -5.2,126.1 -5.1,126.1 -5,126.1 -5,126.1 -4.9,126.1 -4.8,126.1 -4.7,126.1 -4.7,126.1 -4.7,126.2 -4.7,126.3 -4.7,126.4 -4.7,126.5 -4.7,126.6 -4.7,126.7 -4.7,126.8 -4.7,126.9 -4.7,126.9 -4.8,126.9 -4.8,126.9 -4.9,126.9 -4.9,126.9 -5,126.9 -5,126.9 -5.1,126.9 -5.2,126.9 -5.3,126.9 -5.3,126.9 -5.4,127 -5.5,127 -5.5,127.1 -5.5,127.2 -5.5,127.3 -5.5,127.4 -5.5,127.4 -5.5,127.4 -5.5,127.4 -5.5,127.5 -5.5,127.5 -5.5,127.5 -5.5,127.6 -5.4,127.6 -5.3,127.6 -5.2,127.6 -5.1,127.6 -5,127.6 -4.9,127.6 -4.8,127.6 -4.7,127.6 -4.7,127.7 -4.7,127.8 -4.7,127.8 -4.7,127.9 -4.7,128 -4.7,128.1 -4.7,128.2 -4.7,128.3 -4.8,128.3 -4.9,128.3 -5,128.3 -5.1,128.3 -5.2,128.3 -5.3,128.3 -5.4,128.3 -5.5,128.3 -5.5,128.7 -5.5,129.1 -5.5,129.5 -5.5,129.9 -5.5,130.4 -5.5,130.8 -5.5,131.2 -5.5,131.6 -5.6,131.6 -5.8,131.6 -5.9,131.6 -6.1,131.6 -6.2,131.6 -6.3,131.6 -6.5,131.6 -6.6,131.6 -6.6,131.2 -6.6,130.8 -6.6,130.4 -6.6,129.9 -6.6,129.5 -6.6,129.1 -6.6,128.7 "/>
                                        <polygon  fill="#FFFFFF" points="-0.7,131.6 -0.8,131.6 -0.9,131.6 -1.1,131.6 -1.2,131.6 -1.3,131.6 -1.5,131.6 -1.6,131.6 -1.7,131.6 -1.7,131.5 -1.7,131.4 -1.7,131.4 -1.7,131.3 -1.7,131.2 -1.7,131.2 -1.7,131.1 -1.7,131 -1.7,131 -1.9,131.2 -2,131.3 -2.1,131.4 -2.3,131.5 -2.4,131.6 -2.6,131.6 -2.8,131.7 -3,131.7 -3.4,131.7 -3.7,131.6 -3.9,131.4 -4.1,131.2 -4.3,131 -4.3,130.7 -4.4,130.4 -4.4,130 -4.4,129.7 -4.4,129.4 -4.4,129.1 -4.4,128.8 -4.4,128.5 -4.4,128.2 -4.4,127.9 -4.4,127.6 -4.3,127.6 -4.2,127.6 -4,127.6 -3.9,127.6 -3.7,127.6 -3.6,127.6 -3.4,127.6 -3.3,127.6 -3.3,127.8 -3.3,128.1 -3.3,128.4 -3.3,128.7 -3.3,129 -3.3,129.3 -3.3,129.5 -3.3,129.8 -3.3,130 -3.3,130.3 -3.2,130.4 -3.2,130.6 -3.1,130.7 -2.9,130.8 -2.8,130.8 -2.6,130.8 -2.4,130.8 -2.2,130.8 -2.1,130.7 -2,130.6 -1.9,130.4 -1.8,130.2 -1.8,130 -1.8,129.7 -1.8,129.4 -1.8,129.1 -1.8,128.9 -1.8,128.6 -1.8,128.3 -1.8,128.1 -1.8,127.8 -1.8,127.6 -1.6,127.6 -1.5,127.6 -1.3,127.6 -1.2,127.6 -1.1,127.6 -0.9,127.6 -0.8,127.6 -0.7,127.6 -0.7,128.1 -0.7,128.6 -0.7,129.1 -0.7,129.6 -0.7,130.1 -0.7,130.6 -0.7,131.1 "/>
                                        <polygon  fill="#FFFFFF" points="-0.1,127.6 0.1,127.6 0.2,127.6 0.3,127.6 0.5,127.6 0.6,127.6 0.7,127.6 0.9,127.6 1,127.6 1,127.6 1,127.7 1,127.8 1,127.8 1,127.9 1,128 1,128.1 1,128.1 1,128.1 1.1,128 1.2,127.8 1.4,127.7 1.5,127.6 1.7,127.6 1.9,127.5 2.1,127.5 2.2,127.5 2.6,127.5 2.9,127.6 3.2,127.7 3.4,127.9 3.5,128.1 3.6,128.4 3.7,128.7 3.7,129.1 3.7,129.4 3.7,129.7 3.7,130 3.7,130.3 3.7,130.6 3.7,131 3.7,131.3 3.7,131.6 3.6,131.6 3.4,131.6 3.3,131.6 3.1,131.6 3,131.6 2.9,131.6 2.7,131.6 2.6,131.6 2.6,131.3 2.6,131 2.6,130.7 2.6,130.4 2.6,130.2 2.6,129.9 2.6,129.6 2.6,129.3 2.6,129.1 2.5,128.9 2.5,128.7 2.4,128.6 2.3,128.5 2.2,128.4 2.1,128.3 1.9,128.3 1.7,128.3 1.5,128.4 1.3,128.5 1.2,128.6 1.1,128.7 1.1,128.9 1,129.2 1,129.5 1,129.7 1,130 1,130.2 1,130.5 1,130.8 1,131 1,131.3 1,131.6 0.9,131.6 0.8,131.6 0.6,131.6 0.5,131.6 0.3,131.6 0.2,131.6 0.1,131.6 -0.1,131.6 -0.1,131.1 -0.1,130.6 -0.1,130.1 -0.1,129.6 -0.1,129.1 -0.1,128.6 -0.1,128.1 "/>
                                        <polygon  fill="#FFFFFF" points="-5,120.7 -5,120.8 -5,120.8 -5,120.9 -5.1,121 -5.1,121.1 -5.2,121.1 -5.3,121.2 -5.3,121.2 -5.5,121.2 -5.6,121.1 -5.7,121.1 -5.8,121 -5.9,120.9 -6,120.9 -6.1,120.8 -6.1,120.7 -6.2,120.6 -6.2,120.5 -6.2,120.4 -6.2,120.3 -6.2,120.2 -6.1,120.2 -6.1,120.1 -6,120 -5.9,119.9 -5.7,119.9 -5.6,119.9 -5.5,119.9 -5.4,119.9 -5.4,119.9 -5.3,119.9 -5.4,119.9 -5.5,119.8 -5.7,119.7 -5.9,119.6 -6.1,119.5 -6.4,119.5 -6.7,119.6 -7,119.8 -7.3,120 -7.4,120.2 -7.5,120.4 -7.5,120.7 -7.5,120.9 -7.3,121.2 -7.1,121.4 -6.9,121.7 -6.7,121.9 -6.6,122.1 -6.6,122.3 -6.7,122.5 -6.8,122.6 -7,122.7 -7.2,122.8 -7.4,122.8 -7.6,122.7 -7.7,122.7 -7.8,122.6 -7.9,122.5 -7.9,122.4 -7.9,122.3 -7.9,122.3 -7.9,122.2 -7.9,122.1 -7.8,122 -7.8,122 -7.7,121.9 -7.6,121.9 -7.6,121.9 -7.5,121.9 -7.6,121.8 -7.6,121.8 -7.8,121.8 -7.9,121.8 -8,121.8 -8.1,121.8 -8.3,121.9 -8.4,121.9 -8.5,122 -8.7,122.1 -8.8,122.3 -8.9,122.4 -8.9,122.6 -8.9,122.8 -9,123.1 -9,123.6 -9,124 -9,124.5 -9,124.9 -9,125.4 -9,125.8 -9,126.3 -9,126.7 -8.9,126.7 -8.9,126.6 -8.8,126.6 -8.7,126.4 -8.6,126.3 -8.4,126.1 -8.3,126 -8.1,125.8 -7.9,125.6 -7.8,125.4 -7.6,125.2 -7.5,125.1 -7.3,125 -7.2,124.9 -7,124.9 -6.8,124.9 -6.5,124.9 -6.1,124.8 -5.8,124.7 -5.5,124.6 -5.3,124.5 -5,124.3 -4.8,124 -4.6,123.8 -4.3,123.3 -4.2,122.8 -4.2,122.3 -4.2,121.8 -4.4,121.4 -4.6,121.1 -4.8,120.8 "/>
                                    </g>
                                </g>
                            </g>
                        </g>
                        <g transform="matrix(1, 0, 0, 1, 92.8519, 140.628)" >
                            <g >
                                <g >
                                    <g >
                                        <title >PART U3</title>
                                        <line x2="-80.4"  stroke-width="0.2032" y1="-48.7" stroke="#FFFFFF" y2="-1" fill="none" stroke-linecap="round" x1="-80.4"/>
                                        <line x2="-80.4"  stroke-width="0.2032" y1="-48.7" stroke="#FFFFFF" y2="-48.7" fill="none" stroke-linecap="round" x1="-72.3"/>
                                        <line x2="-72.3"  stroke-width="0.2032" y1="-1" stroke="#FFFFFF" y2="-48.7" fill="none" stroke-linecap="round" x1="-72.3"/>
                                        <line x2="-72.3"  stroke-width="0.2032" y1="-1" stroke="#FFFFFF" y2="-1" fill="none" stroke-linecap="round" x1="-80.4"/>
                                        <circle  stroke-width="0.3048" stroke="#FFFFFF" cx="-79.2" fill="none" cy="-46.7" r="0.3"/>
                                        <rect height="0.6" x="-81.7" width="3.2" y="-44.4"  fill="#999999"/>
                                        <rect height="0.6" x="-74.2" width="3.2" y="-44.4"  fill="#999999"/>
                                        <rect height="0.6" x="-81.7" width="3.2" y="-43.3"  fill="#999999"/>
                                        <rect height="0.6" x="-74.2" width="3.2" y="-43.3"  fill="#999999"/>
                                        <rect height="0.6" x="-81.7" width="3.2" y="-42.1"  fill="#999999"/>
                                        <rect height="0.6" x="-74.2" width="3.2" y="-42.1"  fill="#999999"/>
                                        <rect height="0.6" x="-81.7" width="3.2" y="-41"  fill="#999999"/>
                                        <rect height="0.6" x="-74.2" width="3.2" y="-41"  fill="#999999"/>
                                        <rect height="0.6" x="-81.7" width="3.2" y="-39.9"  fill="#999999"/>
                                        <rect height="0.6" x="-74.2" width="3.2" y="-39.9"  fill="#999999"/>
                                        <rect height="0.6" x="-81.7" width="3.2" y="-38.7"  fill="#999999"/>
                                        <rect height="0.6" x="-74.2" width="3.2" y="-38.7"  fill="#999999"/>
                                        <rect height="0.6" x="-81.7" width="3.2" y="-37.6"  fill="#999999"/>
                                        <rect height="0.6" x="-74.2" width="3.2" y="-37.6"  fill="#999999"/>
                                        <rect height="0.6" x="-81.7" width="3.2" y="-36.5"  fill="#999999"/>
                                        <rect height="0.6" x="-74.2" width="3.2" y="-36.5"  fill="#999999"/>
                                        <rect height="0.6" x="-81.7" width="3.2" y="-35.3"  fill="#999999"/>
                                        <rect height="0.6" x="-74.2" width="3.2" y="-35.3"  fill="#999999"/>
                                        <rect height="0.6" x="-81.7" width="3.2" y="-34.2"  fill="#999999"/>
                                        <rect height="0.6" x="-74.2" width="3.2" y="-34.2"  fill="#999999"/>
                                        <rect height="0.6" x="-81.7" width="3.2" y="-33.1"  fill="#999999"/>
                                        <rect height="0.6" x="-74.2" width="3.2" y="-33.1"  fill="#999999"/>
                                        <rect height="0.6" x="-81.7" width="3.2" y="-31.9"  fill="#999999"/>
                                        <rect height="0.6" x="-74.2" width="3.2" y="-31.9"  fill="#999999"/>
                                        <rect height="0.6" x="-81.7" width="3.2" y="-30.8"  fill="#999999"/>
                                        <rect height="0.6" x="-74.2" width="3.2" y="-30.8"  fill="#999999"/>
                                        <rect height="0.6" x="-81.7" width="3.2" y="-29.7"  fill="#999999"/>
                                        <rect height="0.6" x="-74.2" width="3.2" y="-29.7"  fill="#999999"/>
                                        <rect height="0.6" x="-81.7" width="3.2" y="-28.5"  fill="#999999"/>
                                        <rect height="0.6" x="-74.2" width="3.2" y="-28.5"  fill="#999999"/>
                                        <rect height="0.6" x="-81.7" width="3.2" y="-27.4"  fill="#999999"/>
                                        <rect height="0.6" x="-74.2" width="3.2" y="-27.4"  fill="#999999"/>
                                        <rect height="0.6" x="-81.7" width="3.2" y="-26.3"  fill="#999999"/>
                                        <rect height="0.6" x="-74.2" width="3.2" y="-26.3"  fill="#999999"/>
                                        <rect height="0.6" x="-81.7" width="3.2" y="-25.1"  fill="#999999"/>
                                        <rect height="0.6" x="-74.2" width="3.2" y="-25.1"  fill="#999999"/>
                                        <rect height="0.6" x="-81.7" width="3.2" y="-24"  fill="#999999"/>
                                        <rect height="0.6" x="-74.2" width="3.2" y="-24"  fill="#999999"/>
                                        <rect height="0.6" x="-81.7" width="3.2" y="-22.9"  fill="#999999"/>
                                        <rect height="0.6" x="-74.2" width="3.2" y="-22.9"  fill="#999999"/>
                                        <rect height="0.6" x="-81.7" width="3.2" y="-21.7"  fill="#999999"/>
                                        <rect height="0.6" x="-74.2" width="3.2" y="-21.7"  fill="#999999"/>
                                        <rect height="0.6" x="-81.7" width="3.2" y="-20.6"  fill="#999999"/>
                                        <rect height="0.6" x="-74.2" width="3.2" y="-20.6"  fill="#999999"/>
                                        <rect height="0.6" x="-81.7" width="3.2" y="-19.5"  fill="#999999"/>
                                        <rect height="0.6" x="-74.2" width="3.2" y="-19.5"  fill="#999999"/>
                                        <rect height="0.6" x="-81.7" width="3.2" y="-18.3"  fill="#999999"/>
                                        <rect height="0.6" x="-74.2" width="3.2" y="-18.3"  fill="#999999"/>
                                        <rect height="0.6" x="-81.7" width="3.2" y="-17.2"  fill="#999999"/>
                                        <rect height="0.6" x="-74.2" width="3.2" y="-17.2"  fill="#999999"/>
                                        <rect height="0.6" x="-81.7" width="3.2" y="-16.1"  fill="#999999"/>
                                        <rect height="0.6" x="-74.2" width="3.2" y="-16.1"  fill="#999999"/>
                                        <rect height="0.6" x="-81.7" width="3.2" y="-14.9"  fill="#999999"/>
                                        <rect height="0.6" x="-74.2" width="3.2" y="-14.9"  fill="#999999"/>
                                        <rect height="0.6" x="-81.7" width="3.2" y="-13.8"  fill="#999999"/>
                                        <rect height="0.6" x="-74.2" width="3.2" y="-13.8"  fill="#999999"/>
                                        <rect height="0.6" x="-81.7" width="3.2" y="-12.7"  fill="#999999"/>
                                        <rect height="0.6" x="-74.2" width="3.2" y="-12.7"  fill="#999999"/>
                                        <rect height="0.6" x="-81.7" width="3.2" y="-11.5"  fill="#999999"/>
                                        <rect height="0.6" x="-74.2" width="3.2" y="-11.5"  fill="#999999"/>
                                        <rect height="0.6" x="-81.7" width="3.2" y="-10.4"  fill="#999999"/>
                                        <rect height="0.6" x="-74.2" width="3.2" y="-10.4"  fill="#999999"/>
                                        <rect height="0.6" x="-81.7" width="3.2" y="-9.3"  fill="#999999"/>
                                        <rect height="0.6" x="-74.2" width="3.2" y="-9.3"  fill="#999999"/>
                                        <rect height="0.6" x="-81.7" width="3.2" y="-8.1"  fill="#999999"/>
                                        <rect height="0.6" x="-74.2" width="3.2" y="-8.1"  fill="#999999"/>
                                        <rect height="0.6" x="-81.7" width="3.2" y="-7"  fill="#999999"/>
                                        <rect height="0.6" x="-74.2" width="3.2" y="-7"  fill="#999999"/>
                                        <rect height="0.6" x="-81.7" width="3.2" y="-5.8"  fill="#999999"/>
                                        <rect height="0.6" x="-74.2" width="3.2" y="-5.8"  fill="#999999"/>
                                        <rect height="0.6" x="-81.7" width="3.2" y="-45.5"  fill="#999999"/>
                                        <rect height="0.6" x="-74.2" width="3.2" y="-45.5"  fill="#999999"/>
                                        <rect height="0.6" x="-74.2" width="3.2" y="-4.7"  fill="#999999"/>
                                        <rect height="0.6" x="-81.7" width="3.2" y="-4.7"  fill="#999999"/>
                                    </g>
                                    <rect height="47.7" x="-80.3" width="8" y="-48.7" gorn="0.1.0.0.1.0.2.0.0.1"  id="_x30_.1.9.0.0_1_" fill="#404040"/>
                                    <g gorn="0.1.0.0.1.0.2.0.0.2"  id="_x31_x08_1_">
                                        <rect height="45.7" x="-79.4" width="6.1" y="-47.7" gorn="0.1.0.0.1.0.2.0.0.2.0"  id="_x30_.1.9.0.1"/>
                                        <polygon gorn="0.1.0.0.1.0.2.0.0.2.1"  id="_x30_.1.9.0.2" fill="#2A2A29" points="-72.3,-48.7 -73.3,-47.7 -73.3,-2 -72.3,-1 "/>
                                        <polygon gorn="0.1.0.0.1.0.2.0.0.2.2"  id="_x30_.1.9.0.3" fill="#474747" points="-72.3,-1 -73.3,-2 -79.4,-2 -80.4,-1 "/>
                                        <polygon gorn="0.1.0.0.1.0.2.0.0.2.3"  id="_x30_.1.9.0.4" fill="#595959" points="-80.4,-1 -79.4,-2 -79.4,-47.7 -80.4,-48.7 "/>
                                        <polygon gorn="0.1.0.0.1.0.2.0.0.2.4"  id="_x30_.1.9.0.5" fill="#373737" points="-80.4,-48.7 -79.4,-47.7 -73.3,-47.7 -72.3,-48.7 "/>
                                    </g>
                                    <rect height="0.6" x="-77.9" width="3.2" y="-44.6"  fill="#999999"/>
                                    <rect height="0.6" x="-77.9" width="3.2" y="-43.5"  fill="#999999"/>
                                    <rect height="0.6" x="-77.9" width="3.2" y="-42.3"  fill="#999999"/>
                                    <rect height="0.6" x="-77.9" width="3.2" y="-41.2"  fill="#999999"/>
                                    <rect height="0.6" x="-77.9" width="3.2" y="-40.1"  fill="#999999"/>
                                    <rect height="0.6" x="-77.9" width="3.2" y="-38.9"  fill="#999999"/>
                                    <rect height="0.6" x="-77.9" width="3.2" y="-37.8"  fill="#999999"/>
                                    <rect height="0.6" x="-77.9" width="3.2" y="-36.7"  fill="#999999"/>
                                    <rect height="0.6" x="-77.9" width="3.2" y="-35.5"  fill="#999999"/>
                                    <rect height="0.6" x="-77.9" width="3.2" y="-34.4"  fill="#999999"/>
                                    <rect height="0.6" x="-77.9" width="3.2" y="-33.3"  fill="#999999"/>
                                    <rect height="0.6" x="-77.9" width="3.2" y="-32.1"  fill="#999999"/>
                                    <rect height="0.6" x="-77.9" width="3.2" y="-31"  fill="#999999"/>
                                    <rect height="0.6" x="-77.9" width="3.2" y="-29.9"  fill="#999999"/>
                                    <rect height="0.6" x="-77.9" width="3.2" y="-28.7"  fill="#999999"/>
                                    <rect height="0.6" x="-77.9" width="3.2" y="-27.6"  fill="#999999"/>
                                    <rect height="0.6" x="-77.9" width="3.2" y="-26.5"  fill="#999999"/>
                                    <rect height="0.6" x="-77.9" width="3.2" y="-25.3"  fill="#999999"/>
                                    <rect height="0.6" x="-77.9" width="3.2" y="-24.2"  fill="#999999"/>
                                    <rect height="0.6" x="-77.9" width="3.2" y="-23.1"  fill="#999999"/>
                                    <rect height="0.6" x="-77.9" width="3.2" y="-21.9"  fill="#999999"/>
                                    <rect height="0.6" x="-77.9" width="3.2" y="-20.8"  fill="#999999"/>
                                    <rect height="0.6" x="-77.9" width="3.2" y="-19.7"  fill="#999999"/>
                                    <rect height="0.6" x="-77.9" width="3.2" y="-18.5"  fill="#999999"/>
                                    <rect height="0.6" x="-77.9" width="3.2" y="-17.4"  fill="#999999"/>
                                    <rect height="0.6" x="-77.9" width="3.2" y="-16.3"  fill="#999999"/>
                                    <rect height="0.6" x="-77.9" width="3.2" y="-15.1"  fill="#999999"/>
                                    <rect height="0.6" x="-77.9" width="3.2" y="-14"  fill="#999999"/>
                                    <rect height="0.6" x="-77.9" width="3.2" y="-12.9"  fill="#999999"/>
                                    <rect height="0.6" x="-77.9" width="3.2" y="-11.7"  fill="#999999"/>
                                    <rect height="0.6" x="-77.9" width="3.2" y="-10.6"  fill="#999999"/>
                                    <rect height="0.6" x="-77.9" width="3.2" y="-9.5"  fill="#999999"/>
                                    <rect height="0.6" x="-77.9" width="3.2" y="-8.3"  fill="#999999"/>
                                    <rect height="0.6" x="-77.9" width="3.2" y="-7.2"  fill="#999999"/>
                                    <rect height="0.6" x="-77.9" width="3.2" y="-6"  fill="#999999"/>
                                    <rect height="0.6" x="-77.9" width="3.2" y="-45.7"  fill="#999999"/>
                                    <rect height="0.6" x="-77.9" width="3.2" y="-4.9"  fill="#999999"/>
                                    <rect height="41.9" x="-77.3" width="1.9" y="-45.9" gorn="0.1.0.0.1.0.2.0.0.40"  id="_x30_.1.9.0.0" fill="#404040"/>
                                </g>
                            </g>
                        </g>
                        <g gorn="0.1.0.0.1.0.3"  id="copper1">
                            <g gorn="0.1.0.0.1.0.3.0"  id="copper0">
                                <circle gorn="0.1.0.0.1.0.3.0.0"  id="connector7pin" stroke-width="1.224" stroke="#9A916C" cx="28.8" fill="none" cy="219.2" r="2.1"/>
                                <circle gorn="0.1.0.0.1.0.3.0.1"  id="connector6pin" stroke-width="1.224" stroke="#9A916C" cx="28.8" fill="none" cy="212" r="2.1"/>
                                <circle gorn="0.1.0.0.1.0.3.0.2"  id="connector5pin" stroke-width="1.224" stroke="#9A916C" cx="28.8" fill="none" cy="204.8" r="2.1"/>
                                <circle gorn="0.1.0.0.1.0.3.0.3"  id="connector4pin" stroke-width="1.224" stroke="#9A916C" cx="28.8" fill="none" cy="197.6" r="2.1"/>
                                <circle gorn="0.1.0.0.1.0.3.0.4"  id="connector3pin" stroke-width="1.224" stroke="#9A916C" cx="28.8" fill="none" cy="190.4" r="2.1"/>
                                <circle gorn="0.1.0.0.1.0.3.0.5"  id="connector2pin" stroke-width="1.224" stroke="#9A916C" cx="28.8" fill="none" cy="183.2" r="2.1"/>
                                <circle gorn="0.1.0.0.1.0.3.0.6"  id="connector1pin" stroke-width="1.224" stroke="#9A916C" cx="28.8" fill="none" cy="176" r="2.1"/>
                                <circle gorn="0.1.0.0.1.0.3.0.7"  id="connector0pin" stroke-width="1.224" stroke="#9A916C" cx="28.8" fill="none" cy="168.8" r="2.1"/>
                                <circle gorn="0.1.0.0.1.0.3.0.8"  id="connector18pin" stroke-width="1.224" stroke="#9A916C" cx="57.6" fill="none" cy="219.2" r="2.1"/>
                                <circle gorn="0.1.0.0.1.0.3.0.9"  id="connector17pin" stroke-width="1.224" stroke="#9A916C" cx="57.6" fill="none" cy="212" r="2.1"/>
                                <circle gorn="0.1.0.0.1.0.3.0.10"  id="connector16pin" stroke-width="1.224" stroke="#9A916C" cx="57.6" fill="none" cy="204.8" r="2.1"/>
                                <circle gorn="0.1.0.0.1.0.3.0.11"  id="connector15pin" stroke-width="1.224" stroke="#9A916C" cx="57.6" fill="none" cy="197.6" r="2.1"/>
                                <circle gorn="0.1.0.0.1.0.3.0.12"  id="connector14pin" stroke-width="1.224" stroke="#9A916C" cx="57.6" fill="none" cy="190.4" r="2.1"/>
                                <circle gorn="0.1.0.0.1.0.3.0.13"  id="connector13pin" stroke-width="1.224" stroke="#9A916C" cx="57.6" fill="none" cy="183.2" r="2.1"/>
                                <circle gorn="0.1.0.0.1.0.3.0.14"  id="connector12pin" stroke-width="1.224" stroke="#9A916C" cx="57.6" fill="none" cy="176" r="2.1"/>
                                <circle gorn="0.1.0.0.1.0.3.0.15"  id="connector11pin" stroke-width="1.224" stroke="#9A916C" cx="57.6" fill="none" cy="168.8" r="2.1"/>
                                <circle gorn="0.1.0.0.1.0.3.0.16"  id="connector19pin" stroke-width="1.224" stroke="#9A916C" cx="57.6" fill="none" cy="226.4" r="2.1"/>
                                <circle gorn="0.1.0.0.1.0.3.0.17"  id="connector10pin" stroke-width="1.224" stroke="#9A916C" cx="57.6" fill="none" cy="233.6" r="2.1"/>
                                <circle gorn="0.1.0.0.1.0.3.0.18"  id="connector8pin" stroke-width="1.224" stroke="#9A916C" cx="28.8" fill="none" cy="226.4" r="2.1"/>
                                <circle gorn="0.1.0.0.1.0.3.0.19"  id="connector9pin" stroke-width="1.224" stroke="#9A916C" cx="28.8" fill="none" cy="233.6" r="2.1"/>
                            </g>
                        </g>
                    </g>
                </g>
            </g>
        </g>
    </g>
</svg>
