<?xml version='1.0' encoding='UTF-8' standalone='no'?>
<!-- Created with Fritzing (http://www.fritzing.org/) -->
<svg xmlns="http://www.w3.org/2000/svg" width="0.8in" x="0in" viewBox="0 0 57.6 28.8" y="0in"  gorn="0" version="1.2" height="0.4in" id="svg2">
    <desc >
        <referenceFile >Electret_Microphone_Breakout_breadboard.svg</referenceFile>
    </desc>
    <metadata  id="metadata727">
        <rdf:RDF xmlns:rdf="http://www.w3.org/1999/02/22-rdf-syntax-ns#">
            <cc:Work xmlns:rdf="http://www.w3.org/1999/02/22-rdf-syntax-ns#" xmlns:cc="http://creativecommons.org/ns#" rdf:about="">
                <dc:format xmlns:dc="http://purl.org/dc/elements/1.1/">image/svg+xml</dc:format>
                <dc:type xmlns:rdf="http://www.w3.org/1999/02/22-rdf-syntax-ns#" rdf:resource="http://purl.org/dc/dcmitype/StillImage" xmlns:dc="http://purl.org/dc/elements/1.1/"/>
            </cc:Work>
        </rdf:RDF>
    </metadata>
    <defs  id="defs725"/>
    <desc  id="desc4">Fritzing breadboard generated by brd2svg</desc>
    <path d="m 0.287998,28.8 0,-28.8 57.6,0 0,28.8 -57.6,0 m 5.04,-7.2 a 1.44,1.44 0 1 0 -2.88,0 1.44,1.44 0 0 0 2.88,0 z m 0,-7.2 a 1.44,1.44 0 1 0 -2.88,0 1.44,1.44 0 0 0 2.88,0 z m 0,-7.2 a 1.44,1.44 0 1 0 -2.88,0 1.44,1.44 0 0 0 2.88,0 z"  stroke="none" gorn="0.4" fill="#e6321e" id="path8"/>
    <g  transform="matrix(0,1.8003785,-1.7999986,0,25.572737,-80.6332)">
        <g >
            <g  gorn="0.5.0.0" id="g14">
                <title  id="title16">text:AUD</title>
                <g  transform="translate(50.04,9.9)">
                    <g >
                        <g  gorn="0.5.0.0.1.0.0" id="g18">
                            <g  transform="matrix(0,-1,1,0,0,0)">
                                <g >
                                    <g  gorn="0.5.0.0.1.0.0.0.0.0" id="g20">
                                        <text style="text-anchor:start;font-family:OCRA" stroke-width="0.27000001" x="0" y="0"  stroke="#ffffff" gorn="0.5.0.0.1.0.0.0.0.0.0" font-size="2.13811" fill="#ffffff" id="text22">AUD</text>
                                    </g>
                                </g>
                            </g>
                        </g>
                    </g>
                </g>
            </g>
        </g>
    </g>
    <g  transform="matrix(0,1.8079846,-1.7968642,0,38.347354,-73.818343)">
        <g >
            <g  gorn="0.6.0.0" id="g24">
                <title  id="title26">text:GND</title>
                <g  transform="translate(50.04,17.1)">
                    <g >
                        <g  gorn="0.6.0.0.1.0.0" id="g28">
                            <g  transform="matrix(0,-1,1,0,0,0)">
                                <g >
                                    <g  gorn="0.6.0.0.1.0.0.0.0.0" id="g30">
                                        <text style="text-anchor:start;font-family:OCRA" stroke-width="0.27000001" x="0" y="0"  stroke="#ffffff" gorn="0.6.0.0.1.0.0.0.0.0.0" font-size="2.13811" fill="#ffffff" id="text32">GND</text>
                                    </g>
                                </g>
                            </g>
                        </g>
                    </g>
                </g>
            </g>
        </g>
    </g>
    <g  transform="matrix(0,1.7998706,-1.8006413,0,51.877373,-66.276768)">
        <g >
            <g  gorn="0.7.0.0" id="g34">
                <title  id="title36">text:VCC</title>
                <g  transform="translate(50.04,24.48)">
                    <g >
                        <g  gorn="0.7.0.0.1.0.0" id="g38">
                            <g  transform="matrix(0,-1,1,0,0,0)">
                                <g >
                                    <g  gorn="0.7.0.0.1.0.0.0.0.0" id="g40">
                                        <text style="text-anchor:start;font-family:OCRA" stroke-width="0.27000001" x="0" y="0"  stroke="#ffffff" gorn="0.7.0.0.1.0.0.0.0.0.0" font-size="2.13811" fill="#ffffff" id="text42">VCC</text>
                                    </g>
                                </g>
                            </g>
                        </g>
                    </g>
                </g>
            </g>
        </g>
    </g>
    <g  transform="matrix(-1,0,0,1,57.887998,0)">
        <g >
            <g  gorn="0.8.0.0" id="g44">
                <title  id="title46">text: Electret Mic </title>
                <g  gorn="0.8.0.0.1" id="g94">
                    <title  id="title96">element:JP1</title>
                    <g  gorn="0.8.0.0.1.1" id="g98">
                        <title  id="title100">package:1X03</title>
                        <line style="stroke-linecap:round" stroke-width="0.57599998" y1="10.8" y2="9" x1="52.200001" x2="50.400002"  stroke="#ffffff" gorn="0.8.0.0.1.1.1" id="line102"/>
                        <line style="stroke-linecap:round" stroke-width="0.57599998" y1="9" y2="5.4000001" x1="50.400002" x2="50.400002"  stroke="#ffffff" gorn="0.8.0.0.1.1.2" id="line104"/>
                        <line style="stroke-linecap:round" stroke-width="0.57599998" y1="5.4000001" y2="3.5999999" x1="50.400002" x2="52.200001"  stroke="#ffffff" gorn="0.8.0.0.1.1.3" id="line106"/>
                        <line style="stroke-linecap:round" stroke-width="0.57599998" y1="3.5999999" y2="5.4000001" x1="55.799999" x2="57.599998"  stroke="#ffffff" gorn="0.8.0.0.1.1.4" id="line108"/>
                        <line style="stroke-linecap:round" stroke-width="0.57599998" y1="5.4000001" y2="9" x1="57.599998" x2="57.599998"  stroke="#ffffff" gorn="0.8.0.0.1.1.5" id="line110"/>
                        <line style="stroke-linecap:round" stroke-width="0.57599998" y1="9" y2="10.8" x1="57.599998" x2="55.799999"  stroke="#ffffff" gorn="0.8.0.0.1.1.6" id="line112"/>
                        <line style="stroke-linecap:round" stroke-width="0.57599998" y1="23.4" y2="19.799999" x1="50.400002" x2="50.400002"  stroke="#ffffff" gorn="0.8.0.0.1.1.7" id="line114"/>
                        <line style="stroke-linecap:round" stroke-width="0.57599998" y1="19.799999" y2="18" x1="50.400002" x2="52.200001"  stroke="#ffffff" gorn="0.8.0.0.1.1.8" id="line116"/>
                        <line style="stroke-linecap:round" stroke-width="0.57599998" y1="18" y2="19.799999" x1="55.799999" x2="57.599998"  stroke="#ffffff" gorn="0.8.0.0.1.1.9" id="line118"/>
                        <line style="stroke-linecap:round" stroke-width="0.57599998" y1="18" y2="16.200001" x1="52.200001" x2="50.400002"  stroke="#ffffff" gorn="0.8.0.0.1.1.10" id="line120"/>
                        <line style="stroke-linecap:round" stroke-width="0.57599998" y1="16.200001" y2="12.6" x1="50.400002" x2="50.400002"  stroke="#ffffff" gorn="0.8.0.0.1.1.11" id="line122"/>
                        <line style="stroke-linecap:round" stroke-width="0.57599998" y1="12.6" y2="10.8" x1="50.400002" x2="52.200001"  stroke="#ffffff" gorn="0.8.0.0.1.1.12" id="line124"/>
                        <line style="stroke-linecap:round" stroke-width="0.57599998" y1="10.8" y2="12.6" x1="55.799999" x2="57.599998"  stroke="#ffffff" gorn="0.8.0.0.1.1.13" id="line126"/>
                        <line style="stroke-linecap:round" stroke-width="0.57599998" y1="12.6" y2="16.200001" x1="57.599998" x2="57.599998"  stroke="#ffffff" gorn="0.8.0.0.1.1.14" id="line128"/>
                        <line style="stroke-linecap:round" stroke-width="0.57599998" y1="16.200001" y2="18" x1="57.599998" x2="55.799999"  stroke="#ffffff" gorn="0.8.0.0.1.1.15" id="line130"/>
                        <line style="stroke-linecap:round" stroke-width="0.57599998" y1="25.200001" y2="25.200001" x1="52.200001" x2="55.799999"  stroke="#ffffff" gorn="0.8.0.0.1.1.16" id="line132"/>
                        <line style="stroke-linecap:round" stroke-width="0.57599998" y1="23.4" y2="25.200001" x1="50.400002" x2="52.200001"  stroke="#ffffff" gorn="0.8.0.0.1.1.17" id="line134"/>
                        <line style="stroke-linecap:round" stroke-width="0.57599998" y1="25.200001" y2="23.4" x1="55.799999" x2="57.599998"  stroke="#ffffff" gorn="0.8.0.0.1.1.18" id="line136"/>
                        <line style="stroke-linecap:round" stroke-width="0.57599998" y1="19.799999" y2="23.4" x1="57.599998" x2="57.599998"  stroke="#ffffff" gorn="0.8.0.0.1.1.19" id="line138"/>
                        <line style="stroke-linecap:round" stroke-width="0.57599998" y1="3.5999999" y2="3.5999999" x1="52.200001" x2="55.799999"  stroke="#ffffff" gorn="0.8.0.0.1.1.20" id="line140"/>
                    </g>
                </g>
                <g  gorn="0.8.0.0.2" id="g142">
                    <title  id="title144">element:JP2</title>
                    <g  gorn="0.8.0.0.2.1" id="g146">
                        <title  id="title148">package:MICRO-FIDUCIAL</title>
                    </g>
                </g>
                <g  gorn="0.8.0.0.3" id="g150">
                    <title  id="title152">element:JP3</title>
                    <g  gorn="0.8.0.0.3.1" id="g154">
                        <title  id="title156">package:MICRO-FIDUCIAL</title>
                    </g>
                </g>
                <g  gorn="0.8.0.0.4" id="g172">
                    <title  id="title174">element:MIC</title>
                    <g  gorn="0.8.0.0.4.1" id="g176">
                        <title  id="title178">package:MIC-9.7MM</title>
                    </g>
                </g>
                <g  transform="matrix(0,1,-1,0,38.209891,7.1482398)">
                    <g >
                        <g  gorn="0.8.0.0.5.0.0" id="g230">
                            <title  id="title232">element:U$1</title>
                            <g  gorn="0.8.0.0.5.0.0.1" id="g234">
                                <title  id="title236">package:SFE_LOGO_FLAME_.1</title>
                                <g  gorn="0.8.0.0.5.0.0.1.1" id="g238">
                                    <title  id="title240">polygon</title>
                                    <path style="stroke-linecap:round" d="m 15.4418,2.3811 0.2551,0 m 0,0 0.085,0.02835 m 0,0 0.0567,0.02835 m 0,0 0.085,0.08504 m 0,0 0.0284,0.08504 m 0,0 0,0.08504 m 0,0 -0.0567,0.22677 m 0,0 -0.0567,0.11338 m 0,0 -0.0567,0.08504 m 0,0 -0.085,0.11339 m 0,0 -0.1701,0.17008 m 0,0 -0.1701,0.11338 m 0,0 -0.1134,0.02835 m 0,0 -0.1701,0 m 0,0 -0.085,-0.02835 m 0,0 -0.0567,-0.02835 m 0,0 -0.085,-0.05669 m 0,0 -0.0851,-0.11338 m 0,0 -0.0567,-0.11339 m 0,0 -0.0283,-0.14173 m 0,0 -0.0284,-0.11339 m 0,0 0,-0.17008 m 0,0 0.0284,-0.05669 m 0,0 0,-0.02834 m 0,0 -0.0284,0.02834 m 0,0 -0.085,0.11339 m 0,0 -0.1984,0.39685 m 0,0 -0.0568,0.25511 m 0,0 0,0.28347 m 0,0 0.0568,0.31181 m 0,0 0.17,0.31181 m 0,0 0.1985,0.25512 m 0,0 0.2268,0.14173 m 0,0 0.2551,0.08504 m 0,0 0.2268,0 m 0,0 0.2551,-0.05669 m 0,0 0.2551,-0.14174 m 0,0 0.2268,-0.19842 m 0,0 0.2551,-0.22677 m 0,0 0.1984,-0.19843 m 0,0 0.2268,-0.08504 m 0,0 0.1983,0 m 0,0 0.1702,0.0567 m 0,0 0.1417,0.11338 m 0,0 0.1134,0.17008 m 0,0 0.0566,0.22677 m 0,0 0,0.22677 m 0,0 -0.0283,0.14173 m 0,0 -0.0567,0.14174 m 0,0 -0.1701,0.17007 m 0,0 -0.085,0.0567 m 0,0 -0.085,0.02834 m 0,0 -0.1134,0 m 0,0 -0.085,-0.02834 m 0,0 -0.1701,-0.17008 m 0,0 -0.0284,-0.08504 m 0,0 -0.0566,-0.11339 m 0,0 -0.0284,-0.02834 m 0,0 -0.0567,0.11338 m 0,0 0,0.34016 m 0,0 0.0283,0.17009 m 0,0 0.0284,0.14173 m 0,0 0.0567,0.14173 m 0,0 0.085,0.11339 m 0,0 0.1134,0.14173 m 0,0 0.2834,0.17008 m 0,0 0.1985,0.05669 m 0,0 0.2268,0.02835 m 0,0 3.8834,0 m 0,0 -0.1417,-0.14174 m 0,0 -0.1417,-0.08504 m 0,0 -0.1418,-0.14173 m 0,0 -0.1701,-0.14173 m 0,0 -0.3401,-0.34016 m 0,0 -0.3968,-0.34016 m 0,0 -0.2835,-0.28346 m 0,0 -0.1701,-0.28347 m 0,0 -0.0283,-0.17008 m 0,0 0,-0.53858 m 0,0 -0.0567,-0.34016 m 0,0 -0.0851,-0.31181 m 0,0 -0.1133,-0.28346 m 0,0 -0.1702,-0.28346 m 0,0 -0.1983,-0.22678 m 0,0 -0.2268,-0.22677 m 0,0 -0.2551,-0.19842 m 0,0 -0.5103,-0.28347 m 0,0 -0.5386,-0.14173 m 0,0 -0.4818,-0.02835 m 0,0 -0.4536,0.08504 m 0,0 -0.4252,0.14173 m 0,0 -0.3118,0.19843 m 0,0 -0.2551,0.22677 m 0,0 -0.1417,0.22677 m 5.9782,3.91182 0,-0.05953 m -0.216,0.05953 0,-0.22201 m -0.216,0.22201 0,-0.42379 m -0.216,0.42379 0,-0.6225 m -0.216,0.6225 0,-0.8385 m -0.216,0.8385 0,-1.02534 m -0.216,1.02534 0,-1.2138 m -0.216,1.2138 0,-1.4298 m -0.216,1.4298 0,-1.76769 m -0.216,1.76769 0,-3.23718 m -0.216,3.23718 0,-3.65197 m -0.216,3.65197 0,-3.90922 m -0.216,3.90922 0,-4.12555 m -0.216,4.12555 0,-4.29645 m -0.216,4.29645 0,-4.42803 m -0.216,4.42803 0,-4.54804 m -0.216,4.54804 0,-4.643 m -0.216,4.643 0,-4.69985 m -0.216,4.69184 0,-1.48586 m 0,-0.2931 0,-2.96971 m -0.216,4.7131 0,-1.06534 m 0,-1.08805 0,-2.57671 m -0.216,4.64611 0,-0.86457 m 0,-1.3181 0,-2.47614 m -0.216,4.527 0,-0.79285 m 0,-1.27219 0,-2.43892 m -0.216,4.20066 0,-0.81156 m 0,-0.87853 0,-2.47007 m -0.216,2.66375 0,-2.60524 m -0.216,2.79926 0,-2.72726 m -0.216,2.91705 0,-2.80553 m -0.216,2.94726 0,-1.67442 m 0,-0.66445 0,-0.4622 m -0.216,2.88479 0,-1.50274 m 0,-0.95925 0,-0.23081 m -0.216,2.7253 0,-1.37083 m -0.216,1.35117 0,-1.31262 m -0.216,1.23484 0,-1.28728 m -0.216,1.14628 0,-1.39545 m -0.216,1.10315 0,-1.40022" stroke-width="0.21600001"  stroke="#ffffff" gorn="0.8.0.0.5.0.0.1.1.1" fill="none" id="path242"/>
                                </g>
                            </g>
                        </g>
                    </g>
                </g>
            </g>
        </g>
    </g>
    <g  transform="matrix(-1,0,0,1,57.887998,0)">
        <g >
            <circle d="m 56.052,21.6 c 0,1.133289 -0.918712,2.052 -2.052,2.052 -1.133288,0 -2.052,-0.918711 -2.052,-2.052 0,-1.133288 0.918712,-2.052 2.052,-2.052 1.133288,0 2.052,0.918712 2.052,2.052 z" stroke-width="1.22399998" cx="54" cy="21.6"  stroke="#9a916c" gorn="0.9.0.0" r="2.052" fill="none" connectorname="VCC" id="connector6pin"/>
        </g>
    </g>
    <g  transform="matrix(-1,0,0,1,57.887998,0)">
        <g >
            <circle d="m 56.052,14.4 c 0,1.133288 -0.918712,2.052 -2.052,2.052 -1.133288,0 -2.052,-0.918712 -2.052,-2.052 0,-1.133289 0.918712,-2.052 2.052,-2.052 1.133288,0 2.052,0.918711 2.052,2.052 z" stroke-width="1.22399998" cx="54" cy="14.4"  stroke="#9a916c" gorn="0.10.0.0" r="2.052" fill="none" connectorname="GND" id="connector7pin"/>
        </g>
    </g>
    <g  transform="matrix(-1,0,0,1,57.887998,0)">
        <g >
            <circle d="m 56.052,7.1999998 c 0,1.1332883 -0.918712,2.0520001 -2.052,2.0520001 -1.133288,0 -2.052,-0.9187118 -2.052,-2.0520001 0,-1.1332883 0.918712,-2.052 2.052,-2.052 1.133288,0 2.052,0.9187117 2.052,2.052 z" stroke-width="1.22399998" cx="54" cy="7.1999998"  stroke="#9a916c" gorn="0.11.0.0" r="2.052" fill="none" connectorname="AUD" id="connector8pin"/>
        </g>
    </g>
    <g  transform="translate(30.344508,0.57291125)">
        <g >
            <g  gorn="0.12.0.0" id="mic-9.7mm">
                <g  transform="matrix(-1,0,0,-1,27.557,27.496)">
                    <g >
                        <g  gorn="0.12.0.0.0.0.0" id="g360">
                            <g  transform="translate(132.819,138.532)">
                                <g >
                                    <g  gorn="0.12.0.0.0.0.0.0.0.0" id="g362">
                                        <g  transform="matrix(0,1,-1,0,27.496,0)">
                                            <g >
                                                <g  gorn="0.12.0.0.0.0.0.0.0.0.0.0.0" id="g364">
                                                    <g  gorn="0.12.0.0.0.0.0.0.0.0.0.0.0.0" id="Ebene_1_1_">
                                                        <circle style="fill:#c1c1c1" d="m -111.036,146.506 c 0,7.59281 -6.15519,13.748 -13.748,13.748 -7.59281,0 -13.748,-6.15519 -13.748,-13.748 0,-7.59281 6.15519,-13.748 13.748,-13.748 7.59281,0 13.748,6.15519 13.748,13.748 z" cx="-124.784" cy="146.506"  gorn="0.12.0.0.0.0.0.0.0.0.0.0.0.0.0" r="13.748" id="circle367"/>
                                                        <g  gorn="0.12.0.0.0.0.0.0.0.0.0.0.0.0.1" id="g369">
                                                            <path style="fill:#212121" d="m -124.784,158.988 c -6.883,0 -12.48,-5.601 -12.48,-12.48 0,-6.879 5.6,-12.479 12.48,-12.479 6.88,0 12.479,5.599 12.479,12.479 0,6.88 -5.597,12.48 -12.479,12.48 z"  gorn="0.12.0.0.0.0.0.0.0.0.0.0.0.0.1.0" id="path371"/>
                                                            <path style="fill:#3a3a3a" d="m -124.784,134.175 c 6.811,0 12.33,5.521 12.33,12.331 0,6.811 -5.521,12.331 -12.33,12.331 -6.811,0 -12.331,-5.521 -12.331,-12.331 0,-6.81 5.52,-12.331 12.331,-12.331 m 0,-0.298 c -6.965,0 -12.631,5.666 -12.631,12.63 0,6.965 5.666,12.631 12.631,12.631 6.965,0 12.631,-5.666 12.631,-12.631 0,-6.964 -5.666,-12.63 -12.631,-12.63 l 0,0 z"  gorn="0.12.0.0.0.0.0.0.0.0.0.0.0.0.1.1" id="path373"/>
                                                        </g>
                                                        <g  gorn="0.12.0.0.0.0.0.0.0.0.0.0.0.0.2" id="mess">
                                                            <g  gorn="0.12.0.0.0.0.0.0.0.0.0.0.0.0.2.0" id="g376">
                                                                <path style="fill:#595959" d="m -130.697,157.295 c -0.015,0 -0.03,0.004 -0.046,0.005 0.253,0.14 0.514,0.261 0.775,0.383 -0.156,-0.235 -0.426,-0.388 -0.729,-0.388 z"  gorn="0.12.0.0.0.0.0.0.0.0.0.0.0.0.2.0.0" id="path378"/>
                                                                <path style="fill:#595959" d="m -128.048,157.295 c -0.464,0 -0.84,0.359 -0.873,0.813 0.535,0.19 1.082,0.358 1.648,0.477 0.064,-0.123 0.105,-0.261 0.105,-0.41 0.001,-0.485 -0.393,-0.88 -0.88,-0.88 z"  gorn="0.12.0.0.0.0.0.0.0.0.0.0.0.0.2.0.1" id="path380"/>
                                                                <path style="fill:#595959" d="m -124.518,158.175 c 0,-0.485 -0.394,-0.88 -0.881,-0.88 -0.485,0 -0.88,0.395 -0.88,0.88 0,0.231 0.091,0.44 0.236,0.599 0.402,0.041 0.811,0.062 1.224,0.063 0.182,-0.164 0.301,-0.397 0.301,-0.662 z"  gorn="0.12.0.0.0.0.0.0.0.0.0.0.0.0.2.0.2" id="path382"/>
                                                                <path style="fill:#595959" d="m -131.138,155.534 c 0,-0.487 -0.394,-0.881 -0.881,-0.881 -0.486,0 -0.88,0.394 -0.88,0.881 0,0.102 0.021,0.196 0.052,0.287 0.235,0.204 0.48,0.396 0.731,0.584 0.032,0.002 0.063,0.01 0.097,0.01 0.488,0 0.881,-0.395 0.881,-0.881 z"  gorn="0.12.0.0.0.0.0.0.0.0.0.0.0.0.2.0.3" id="path384"/>
                                                                <circle style="fill:#595959" d="m -128.487,155.534 c 0,0.48656 -0.39443,0.881 -0.881,0.881 -0.48656,0 -0.881,-0.39444 -0.881,-0.881 0,-0.48657 0.39444,-0.881 0.881,-0.881 0.48657,0 0.881,0.39443 0.881,0.881 z" cx="-129.368" cy="155.534"  gorn="0.12.0.0.0.0.0.0.0.0.0.0.0.0.2.0.4" r="0.88099903" id="circle386"/>
                                                                <circle style="fill:#595959" d="m -125.839,155.534 c 0,0.48656 -0.39444,0.881 -0.881,0.881 -0.48656,0 -0.881,-0.39444 -0.881,-0.881 0,-0.48657 0.39444,-0.881 0.881,-0.881 0.48656,0 0.881,0.39443 0.881,0.881 z" cx="-126.72" cy="155.534"  gorn="0.12.0.0.0.0.0.0.0.0.0.0.0.0.2.0.5" r="0.88099903" id="circle388"/>
                                                                <path style="fill:#595959" d="m -135.794,152.036 c 0.192,0.385 0.403,0.758 0.635,1.117 0.025,-0.084 0.044,-0.171 0.044,-0.264 0,-0.414 -0.29,-0.761 -0.679,-0.853 z"  gorn="0.12.0.0.0.0.0.0.0.0.0.0.0.0.2.0.6" id="path390"/>
                                                                <circle style="fill:#595959" d="m -132.467,152.89101 c 0,0.48601 -0.39399,0.87999 -0.88,0.87999 -0.48601,0 -0.88,-0.39398 -0.88,-0.87999 0,-0.48601 0.39399,-0.88 0.88,-0.88 0.48601,0 0.88,0.39399 0.88,0.88 z" cx="-133.347" cy="152.89101"  gorn="0.12.0.0.0.0.0.0.0.0.0.0.0.0.2.0.7" r="0.87999803" id="circle392"/>
                                                                <circle style="fill:#595959" d="m -129.815,152.89101 c 0,0.48656 -0.39444,0.881 -0.881,0.881 -0.48656,0 -0.881,-0.39444 -0.881,-0.881 0,-0.48657 0.39444,-0.881 0.881,-0.881 0.48656,0 0.881,0.39443 0.881,0.881 z" cx="-130.696" cy="152.89101"  gorn="0.12.0.0.0.0.0.0.0.0.0.0.0.0.2.0.8" r="0.88099903" id="circle394"/>
                                                                <circle style="fill:#595959" d="m -127.16701,152.89101 c 0,0.48656 -0.39443,0.881 -0.88099,0.881 -0.48657,0 -0.881,-0.39444 -0.881,-0.881 0,-0.48657 0.39443,-0.881 0.881,-0.881 0.48656,0 0.88099,0.39443 0.88099,0.881 z" cx="-128.048" cy="152.89101"  gorn="0.12.0.0.0.0.0.0.0.0.0.0.0.0.2.0.9" r="0.88099903" id="circle396"/>
                                                                <circle style="fill:#595959" d="m -124.516,152.89101 c 0,0.48656 -0.39444,0.881 -0.881,0.881 -0.48657,0 -0.881,-0.39444 -0.881,-0.881 0,-0.48657 0.39443,-0.881 0.881,-0.881 0.48656,0 0.881,0.39443 0.881,0.881 z" cx="-125.397" cy="152.89101"  gorn="0.12.0.0.0.0.0.0.0.0.0.0.0.0.2.0.10" r="0.88099903" id="circle398"/>
                                                                <path style="fill:#595959" d="m -122.851,157.295 c -0.486,0 -0.88,0.395 -0.88,0.88 0,0.229 0.089,0.438 0.233,0.594 0.496,-0.052 0.979,-0.142 1.457,-0.25 0.045,-0.104 0.069,-0.221 0.069,-0.344 10e-4,-0.485 -0.391,-0.88 -0.879,-0.88 z"  gorn="0.12.0.0.0.0.0.0.0.0.0.0.0.0.2.0.11" id="path400"/>
                                                                <path style="fill:#595959" d="m -120.2,157.295 c -0.486,0 -0.881,0.395 -0.881,0.88 0,0.031 0.006,0.061 0.009,0.09 0.54,-0.17 1.06,-0.387 1.563,-0.627 -0.16,-0.207 -0.41,-0.343 -0.691,-0.343 z"  gorn="0.12.0.0.0.0.0.0.0.0.0.0.0.0.2.0.12" id="path402"/>
                                                                <circle style="fill:#595959" d="m -123.29,155.534 c 0,0.48656 -0.39444,0.881 -0.881,0.881 -0.48656,0 -0.881,-0.39444 -0.881,-0.881 0,-0.48657 0.39444,-0.881 0.881,-0.881 0.48656,0 0.881,0.39443 0.881,0.881 z" cx="-124.171" cy="155.534"  gorn="0.12.0.0.0.0.0.0.0.0.0.0.0.0.2.0.13" r="0.88099903" id="circle404"/>
                                                                <circle style="fill:#595959" d="m -120.64201,155.534 c 0,0.48601 -0.39398,0.87999 -0.87999,0.87999 -0.48601,0 -0.88,-0.39398 -0.88,-0.87999 0,-0.48601 0.39399,-0.88 0.88,-0.88 0.48601,0 0.87999,0.39399 0.87999,0.88 z" cx="-121.522" cy="155.534"  gorn="0.12.0.0.0.0.0.0.0.0.0.0.0.0.2.0.14" r="0.87999803" id="circle406"/>
                                                                <circle style="fill:#595959" d="m -117.991,155.534 c 0,0.48656 -0.39444,0.881 -0.881,0.881 -0.48656,0 -0.881,-0.39444 -0.881,-0.881 0,-0.48657 0.39444,-0.881 0.881,-0.881 0.48656,0 0.881,0.39443 0.881,0.881 z" cx="-118.872" cy="155.534"  gorn="0.12.0.0.0.0.0.0.0.0.0.0.0.0.2.0.15" r="0.88099903" id="circle408"/>
                                                                <path style="fill:#595959" d="m -117.103,155.534 c 0,0.184 0.057,0.354 0.15,0.494 0.447,-0.367 0.856,-0.774 1.248,-1.201 -0.146,-0.108 -0.323,-0.174 -0.521,-0.174 -0.484,0.001 -0.877,0.393 -0.877,0.881 z"  gorn="0.12.0.0.0.0.0.0.0.0.0.0.0.0.2.0.16" id="path410"/>
                                                                <circle style="fill:#595959" d="m -121.971,152.89101 c 0,0.48601 -0.39399,0.87999 -0.88,0.87999 -0.48601,0 -0.88,-0.39398 -0.88,-0.87999 0,-0.48601 0.39399,-0.88 0.88,-0.88 0.48601,0 0.88,0.39399 0.88,0.88 z" cx="-122.851" cy="152.89101"  gorn="0.12.0.0.0.0.0.0.0.0.0.0.0.0.2.0.17" r="0.87999803" id="circle412"/>
                                                                <circle style="fill:#595959" d="m -119.32,152.89101 c 0,0.48601 -0.39399,0.87999 -0.88,0.87999 -0.48601,0 -0.87999,-0.39398 -0.87999,-0.87999 0,-0.48601 0.39398,-0.88 0.87999,-0.88 0.48601,0 0.88,0.39399 0.88,0.88 z" cx="-120.2" cy="152.89101"  gorn="0.12.0.0.0.0.0.0.0.0.0.0.0.0.2.0.18" r="0.87999803" id="circle414"/>
                                                                <circle style="fill:#595959" d="m -116.673,152.89101 c 0,0.48601 -0.39399,0.87999 -0.88,0.87999 -0.48601,0 -0.88,-0.39398 -0.88,-0.87999 0,-0.48601 0.39399,-0.88 0.88,-0.88 0.48601,0 0.88,0.39399 0.88,0.88 z" cx="-117.553" cy="152.89101"  gorn="0.12.0.0.0.0.0.0.0.0.0.0.0.0.2.0.19" r="0.87999803" id="circle416"/>
                                                                <path style="fill:#595959" d="m -114.901,152.011 c -0.486,0 -0.881,0.395 -0.881,0.88 0,0.486 0.395,0.881 0.881,0.881 0.023,0 0.046,-0.006 0.07,-0.007 0.271,-0.374 0.524,-0.76001 0.757,-1.164 -0.12,-0.343 -0.443,-0.59 -0.827,-0.59 z"  gorn="0.12.0.0.0.0.0.0.0.0.0.0.0.0.2.0.20" id="path418"/>
                                                                <path style="fill:#595959" d="m -136.702,149.618 c 0.072,0.28 0.15,0.557 0.242,0.828 0.015,-0.063 0.023,-0.13 0.023,-0.197 0,-0.246 -0.103,-0.469 -0.265,-0.631 z"  gorn="0.12.0.0.0.0.0.0.0.0.0.0.0.0.2.0.21" id="path420"/>
                                                                <circle style="fill:#595959" d="m -133.78701,150.24899 c 0,0.48601 -0.39399,0.88 -0.88,0.88 -0.48601,0 -0.88,-0.39399 -0.88,-0.88 0,-0.48601 0.39399,-0.88 0.88,-0.88 0.48601,0 0.88,0.39399 0.88,0.88 z" cx="-134.66701" cy="150.24899"  gorn="0.12.0.0.0.0.0.0.0.0.0.0.0.0.2.0.22" r="0.87999803" id="circle422"/>
                                                                <circle style="fill:#595959" d="m -131.138,150.24899 c 0,0.48657 -0.39443,0.881 -0.881,0.881 -0.48656,0 -0.881,-0.39443 -0.881,-0.881 0,-0.48656 0.39444,-0.881 0.881,-0.881 0.48657,0 0.881,0.39444 0.881,0.881 z" cx="-132.019" cy="150.24899"  gorn="0.12.0.0.0.0.0.0.0.0.0.0.0.0.2.0.23" r="0.88099903" id="circle424"/>
                                                                <circle style="fill:#595959" d="m -128.487,150.25 c 0,0.48656 -0.39443,0.881 -0.881,0.881 -0.48656,0 -0.881,-0.39444 -0.881,-0.881 0,-0.48656 0.39444,-0.881 0.881,-0.881 0.48657,0 0.881,0.39444 0.881,0.881 z" cx="-129.368" cy="150.25"  gorn="0.12.0.0.0.0.0.0.0.0.0.0.0.0.2.0.24" r="0.88099903" id="circle426"/>
                                                                <circle style="fill:#595959" d="m -125.839,150.25 c 0,0.48656 -0.39444,0.881 -0.881,0.881 -0.48656,0 -0.881,-0.39444 -0.881,-0.881 0,-0.48656 0.39444,-0.881 0.881,-0.881 0.48656,0 0.881,0.39444 0.881,0.881 z" cx="-126.72" cy="150.25"  gorn="0.12.0.0.0.0.0.0.0.0.0.0.0.0.2.0.25" r="0.88099903" id="circle428"/>
                                                                <circle style="fill:#595959" d="m -135.115,147.60699 c 0,0.48601 -0.39399,0.88 -0.88,0.88 -0.486,0 -0.87999,-0.39399 -0.87999,-0.88 0,-0.486 0.39399,-0.87999 0.87999,-0.87999 0.48601,0 0.88,0.39399 0.88,0.87999 z" cx="-135.995" cy="147.60699"  gorn="0.12.0.0.0.0.0.0.0.0.0.0.0.0.2.0.26" r="0.87999803" id="circle430"/>
                                                                <circle style="fill:#595959" d="m -132.467,147.60699 c 0,0.48601 -0.39399,0.88 -0.88,0.88 -0.48601,0 -0.88,-0.39399 -0.88,-0.88 0,-0.486 0.39399,-0.87999 0.88,-0.87999 0.48601,0 0.88,0.39399 0.88,0.87999 z" cx="-133.347" cy="147.60699"  gorn="0.12.0.0.0.0.0.0.0.0.0.0.0.0.2.0.27" r="0.87999803" id="circle432"/>
                                                                <circle style="fill:#595959" d="m -129.81701,147.60699 c 0,0.48601 -0.39399,0.88 -0.88,0.88 -0.48601,0 -0.87999,-0.39399 -0.87999,-0.88 0,-0.486 0.39398,-0.87999 0.87999,-0.87999 0.48601,0 0.88,0.39399 0.88,0.87999 z" cx="-130.69701" cy="147.60699"  gorn="0.12.0.0.0.0.0.0.0.0.0.0.0.0.2.0.28" r="0.87999803" id="circle434"/>
                                                                <circle style="fill:#595959" d="m -127.16701,147.60699 c 0,0.48657 -0.39443,0.881 -0.88099,0.881 -0.48657,0 -0.881,-0.39443 -0.881,-0.881 0,-0.48656 0.39443,-0.88099 0.881,-0.88099 0.48656,0 0.88099,0.39443 0.88099,0.88099 z" cx="-128.048" cy="147.60699"  gorn="0.12.0.0.0.0.0.0.0.0.0.0.0.0.2.0.29" r="0.88099903" id="circle436"/>
                                                                <circle style="fill:#595959" d="m -124.516,147.60699 c 0,0.48657 -0.39444,0.881 -0.881,0.881 -0.48657,0 -0.881,-0.39443 -0.881,-0.881 0,-0.48656 0.39443,-0.88099 0.881,-0.88099 0.48656,0 0.881,0.39443 0.881,0.88099 z" cx="-125.397" cy="147.60699"  gorn="0.12.0.0.0.0.0.0.0.0.0.0.0.0.2.0.30" r="0.88099903" id="circle438"/>
                                                                <path style="fill:#595959" d="m -136.437,144.965 c 0,-0.331 -0.186,-0.617 -0.455,-0.767 -0.099,0.525 -0.158,1.063 -0.188,1.61 0.37,-0.102 0.643,-0.439 0.643,-0.843 z"  gorn="0.12.0.0.0.0.0.0.0.0.0.0.0.0.2.0.31" id="path440"/>
                                                                <circle style="fill:#595959" d="m -133.78701,144.965 c 0,0.48601 -0.39399,0.87999 -0.88,0.87999 -0.48601,0 -0.88,-0.39398 -0.88,-0.87999 0,-0.48601 0.39399,-0.88 0.88,-0.88 0.48601,0 0.88,0.39399 0.88,0.88 z" cx="-134.66701" cy="144.965"  gorn="0.12.0.0.0.0.0.0.0.0.0.0.0.0.2.0.32" r="0.87999803" id="circle442"/>
                                                                <circle style="fill:#595959" d="m -131.138,144.965 c 0,0.48656 -0.39443,0.881 -0.881,0.881 -0.48656,0 -0.881,-0.39444 -0.881,-0.881 0,-0.48657 0.39444,-0.881 0.881,-0.881 0.48657,0 0.881,0.39443 0.881,0.881 z" cx="-132.019" cy="144.965"  gorn="0.12.0.0.0.0.0.0.0.0.0.0.0.0.2.0.33" r="0.88099903" id="circle444"/>
                                                                <circle style="fill:#595959" d="m -128.487,144.965 c 0,0.48656 -0.39443,0.881 -0.881,0.881 -0.48656,0 -0.881,-0.39444 -0.881,-0.881 0,-0.48657 0.39444,-0.881 0.881,-0.881 0.48657,0 0.881,0.39443 0.881,0.881 z" cx="-129.368" cy="144.965"  gorn="0.12.0.0.0.0.0.0.0.0.0.0.0.0.2.0.34" r="0.88099903" id="circle446"/>
                                                                <circle style="fill:#595959" d="m -125.84,144.965 c 0,0.48601 -0.39399,0.87999 -0.88,0.87999 -0.48601,0 -0.88,-0.39398 -0.88,-0.87999 0,-0.48601 0.39399,-0.88 0.88,-0.88 0.48601,0 0.88,0.39399 0.88,0.88 z" cx="-126.72" cy="144.965"  gorn="0.12.0.0.0.0.0.0.0.0.0.0.0.0.2.0.35" r="0.87999803" id="circle448"/>
                                                                <path style="fill:#595959" d="m -135.115,142.323 c 0,-0.486 -0.394,-0.881 -0.882,-0.881 -0.008,0 -0.016,0.003 -0.022,0.004 -0.222,0.49 -0.417,0.998 -0.573,1.521 0.157,0.146 0.366,0.238 0.598,0.238 0.485,-0.001 0.879,-0.396 0.879,-0.882 z"  gorn="0.12.0.0.0.0.0.0.0.0.0.0.0.0.2.0.36" id="path450"/>
                                                                <circle style="fill:#595959" d="m -132.466,142.32201 c 0,0.48656 -0.39444,0.881 -0.881,0.881 -0.48656,0 -0.881,-0.39444 -0.881,-0.881 0,-0.48657 0.39444,-0.881 0.881,-0.881 0.48656,0 0.881,0.39443 0.881,0.881 z" cx="-133.347" cy="142.32201"  gorn="0.12.0.0.0.0.0.0.0.0.0.0.0.0.2.0.37" r="0.88099903" id="circle452"/>
                                                                <circle style="fill:#595959" d="m -129.81601,142.32201 c 0,0.48656 -0.39443,0.881 -0.881,0.881 -0.48656,0 -0.881,-0.39444 -0.881,-0.881 0,-0.48657 0.39444,-0.881 0.881,-0.881 0.48657,0 0.881,0.39443 0.881,0.881 z" cx="-130.69701" cy="142.32201"  gorn="0.12.0.0.0.0.0.0.0.0.0.0.0.0.2.0.38" r="0.88099903" id="circle454"/>
                                                                <circle style="fill:#595959" d="m -127.16701,142.32201 c 0,0.48656 -0.39443,0.881 -0.88099,0.881 -0.48657,0 -0.881,-0.39444 -0.881,-0.881 0,-0.48657 0.39443,-0.881 0.881,-0.881 0.48656,0 0.88099,0.39443 0.88099,0.881 z" cx="-128.048" cy="142.32201"  gorn="0.12.0.0.0.0.0.0.0.0.0.0.0.0.2.0.39" r="0.88099903" id="circle456"/>
                                                                <circle style="fill:#595959" d="m -124.517,142.32201 c 0,0.48656 -0.39444,0.881 -0.881,0.881 -0.48656,0 -0.881,-0.39444 -0.881,-0.881 0,-0.48657 0.39444,-0.881 0.881,-0.881 0.48656,0 0.881,0.39443 0.881,0.881 z" cx="-125.398" cy="142.32201"  gorn="0.12.0.0.0.0.0.0.0.0.0.0.0.0.2.0.40" r="0.88099903" id="circle458"/>
                                                                <circle style="fill:#595959" d="m -121.971,147.60699 c 0,0.48601 -0.39399,0.88 -0.88,0.88 -0.48601,0 -0.88,-0.39399 -0.88,-0.88 0,-0.486 0.39399,-0.87999 0.88,-0.87999 0.48601,0 0.88,0.39399 0.88,0.87999 z" cx="-122.851" cy="147.60699"  gorn="0.12.0.0.0.0.0.0.0.0.0.0.0.0.2.0.41" r="0.87999803" id="circle460"/>
                                                                <circle style="fill:#595959" d="m -119.32,147.60699 c 0,0.48601 -0.39399,0.88 -0.88,0.88 -0.48601,0 -0.87999,-0.39399 -0.87999,-0.88 0,-0.486 0.39398,-0.87999 0.87999,-0.87999 0.48601,0 0.88,0.39399 0.88,0.87999 z" cx="-120.2" cy="147.60699"  gorn="0.12.0.0.0.0.0.0.0.0.0.0.0.0.2.0.42" r="0.87999803" id="circle462"/>
                                                                <circle style="fill:#595959" d="m -116.673,147.60699 c 0,0.48601 -0.39399,0.88 -0.88,0.88 -0.48601,0 -0.88,-0.39399 -0.88,-0.88 0,-0.486 0.39399,-0.87999 0.88,-0.87999 0.48601,0 0.88,0.39399 0.88,0.87999 z" cx="-117.553" cy="147.60699"  gorn="0.12.0.0.0.0.0.0.0.0.0.0.0.0.2.0.43" r="0.87999803" id="circle464"/>
                                                                <circle style="fill:#595959" d="m -114.021,147.60699 c 0,0.48601 -0.39399,0.88 -0.88,0.88 -0.48601,0 -0.88,-0.39399 -0.88,-0.88 0,-0.486 0.39399,-0.87999 0.88,-0.87999 0.48601,0 0.88,0.39399 0.88,0.87999 z" cx="-114.901" cy="147.60699"  gorn="0.12.0.0.0.0.0.0.0.0.0.0.0.0.2.0.44" r="0.87999803" id="circle466"/>
                                                                <path style="fill:#595959" d="m -113.132,147.608 c 0,0.355 0.211,0.661 0.518,0.802 0.083,-0.541 0.137,-1.093 0.146,-1.652 -0.381,0.093 -0.664,0.439 -0.664,0.85 z"  gorn="0.12.0.0.0.0.0.0.0.0.0.0.0.0.2.0.45" id="path468"/>
                                                                <circle style="fill:#595959" d="m -123.291,144.965 c 0,0.48601 -0.39399,0.87999 -0.88,0.87999 -0.48601,0 -0.88,-0.39398 -0.88,-0.87999 0,-0.48601 0.39399,-0.88 0.88,-0.88 0.48601,0 0.88,0.39399 0.88,0.88 z" cx="-124.171" cy="144.965"  gorn="0.12.0.0.0.0.0.0.0.0.0.0.0.0.2.0.46" r="0.87999803" id="circle470"/>
                                                                <circle style="fill:#595959" d="m -120.64201,144.965 c 0,0.48601 -0.39398,0.87999 -0.87999,0.87999 -0.48601,0 -0.88,-0.39398 -0.88,-0.87999 0,-0.48601 0.39399,-0.88 0.88,-0.88 0.48601,0 0.87999,0.39399 0.87999,0.88 z" cx="-121.522" cy="144.965"  gorn="0.12.0.0.0.0.0.0.0.0.0.0.0.0.2.0.47" r="0.87999803" id="circle472"/>
                                                                <circle style="fill:#595959" d="m -117.992,144.965 c 0,0.48601 -0.39399,0.87999 -0.88,0.87999 -0.48601,0 -0.88,-0.39398 -0.88,-0.87999 0,-0.48601 0.39399,-0.88 0.88,-0.88 0.48601,0 0.88,0.39399 0.88,0.88 z" cx="-118.872" cy="144.965"  gorn="0.12.0.0.0.0.0.0.0.0.0.0.0.0.2.0.48" r="0.87999803" id="circle474"/>
                                                                <circle style="fill:#595959" d="m -115.342,144.965 c 0,0.48601 -0.39399,0.87999 -0.88,0.87999 -0.48601,0 -0.88,-0.39398 -0.88,-0.87999 0,-0.48601 0.39399,-0.88 0.88,-0.88 0.48601,0 0.88,0.39399 0.88,0.88 z" cx="-116.222" cy="144.965"  gorn="0.12.0.0.0.0.0.0.0.0.0.0.0.0.2.0.49" r="0.87999803" id="circle476"/>
                                                                <circle style="fill:#595959" d="m -112.692,144.965 c 0,0.48656 -0.39444,0.881 -0.881,0.881 -0.48656,0 -0.881,-0.39444 -0.881,-0.881 0,-0.48657 0.39444,-0.881 0.881,-0.881 0.48656,0 0.881,0.39443 0.881,0.881 z" cx="-113.573" cy="144.965"  gorn="0.12.0.0.0.0.0.0.0.0.0.0.0.0.2.0.50" r="0.88099903" id="circle478"/>
                                                                <circle style="fill:#595959" d="m -121.97,142.32201 c 0,0.48656 -0.39444,0.881 -0.881,0.881 -0.48656,0 -0.881,-0.39444 -0.881,-0.881 0,-0.48657 0.39444,-0.881 0.881,-0.881 0.48656,0 0.881,0.39443 0.881,0.881 z" cx="-122.851" cy="142.32201"  gorn="0.12.0.0.0.0.0.0.0.0.0.0.0.0.2.0.51" r="0.88099903" id="circle480"/>
                                                                <circle style="fill:#595959" d="m -119.319,142.32201 c 0,0.48656 -0.39443,0.881 -0.881,0.881 -0.48656,0 -0.881,-0.39444 -0.881,-0.881 0,-0.48657 0.39444,-0.881 0.881,-0.881 0.48657,0 0.881,0.39443 0.881,0.881 z" cx="-120.2" cy="142.32201"  gorn="0.12.0.0.0.0.0.0.0.0.0.0.0.0.2.0.52" r="0.88099903" id="circle482"/>
                                                                <circle style="fill:#595959" d="m -116.673,142.32201 c 0,0.48601 -0.39399,0.87999 -0.88,0.87999 -0.48601,0 -0.88,-0.39398 -0.88,-0.87999 0,-0.48601 0.39399,-0.88 0.88,-0.88 0.48601,0 0.88,0.39399 0.88,0.88 z" cx="-117.553" cy="142.32201"  gorn="0.12.0.0.0.0.0.0.0.0.0.0.0.0.2.0.53" r="0.87999803" id="circle484"/>
                                                                <circle style="fill:#595959" d="m -114.022,142.32201 c 0,0.48601 -0.39399,0.87999 -0.88,0.87999 -0.48601,0 -0.88,-0.39398 -0.88,-0.87999 0,-0.48601 0.39399,-0.88 0.88,-0.88 0.48601,0 0.88,0.39399 0.88,0.88 z" cx="-114.902" cy="142.32201"  gorn="0.12.0.0.0.0.0.0.0.0.0.0.0.0.2.0.54" r="0.87999803" id="circle486"/>
                                                                <path style="fill:#595959" d="m -134.667,140.561 c 0.485,0 0.879,-0.395 0.879,-0.88 0,-0.403 -0.271,-0.74 -0.642,-0.844 -0.344,0.433 -0.655,0.891 -0.94,1.369 0.16,0.215 0.414,0.355 0.703,0.355 z"  gorn="0.12.0.0.0.0.0.0.0.0.0.0.0.0.2.0.55" id="path488"/>
                                                                <circle style="fill:#595959" d="m -131.138,139.67999 c 0,0.48657 -0.39443,0.881 -0.881,0.881 -0.48656,0 -0.881,-0.39443 -0.881,-0.881 0,-0.48656 0.39444,-0.881 0.881,-0.881 0.48657,0 0.881,0.39444 0.881,0.881 z" cx="-132.019" cy="139.67999"  gorn="0.12.0.0.0.0.0.0.0.0.0.0.0.0.2.0.56" r="0.88099903" id="circle490"/>
                                                                <circle style="fill:#595959" d="m -128.487,139.67999 c 0,0.48657 -0.39443,0.881 -0.881,0.881 -0.48656,0 -0.881,-0.39443 -0.881,-0.881 0,-0.48656 0.39444,-0.881 0.881,-0.881 0.48657,0 0.881,0.39444 0.881,0.881 z" cx="-129.368" cy="139.67999"  gorn="0.12.0.0.0.0.0.0.0.0.0.0.0.0.2.0.57" r="0.88099903" id="circle492"/>
                                                                <circle style="fill:#595959" d="m -125.84,139.67999 c 0,0.48601 -0.39399,0.88 -0.88,0.88 -0.48601,0 -0.88,-0.39399 -0.88,-0.88 0,-0.48601 0.39399,-0.88 0.88,-0.88 0.48601,0 0.88,0.39399 0.88,0.88 z" cx="-126.72" cy="139.67999"  gorn="0.12.0.0.0.0.0.0.0.0.0.0.0.0.2.0.58" r="0.87999803" id="circle494"/>
                                                                <path style="fill:#595959" d="m -132.466,137.039 c 0,-0.055 -0.007,-0.105 -0.017,-0.156 -0.388,0.312 -0.758,0.643 -1.106,0.999 0.077,0.021 0.158,0.037 0.242,0.037 0.488,0 0.881,-0.394 0.881,-0.88 z"  gorn="0.12.0.0.0.0.0.0.0.0.0.0.0.0.2.0.59" id="path496"/>
                                                                <circle style="fill:#595959" d="m -129.81701,137.039 c 0,0.48601 -0.39399,0.88 -0.88,0.88 -0.48601,0 -0.87999,-0.39399 -0.87999,-0.88 0,-0.48601 0.39398,-0.88 0.87999,-0.88 0.48601,0 0.88,0.39399 0.88,0.88 z" cx="-130.69701" cy="137.039"  gorn="0.12.0.0.0.0.0.0.0.0.0.0.0.0.2.0.60" r="0.87999803" id="circle498"/>
                                                                <circle style="fill:#595959" d="m -127.16801,137.039 c 0,0.48601 -0.39398,0.88 -0.87999,0.88 -0.48601,0 -0.88,-0.39399 -0.88,-0.88 0,-0.48601 0.39399,-0.88 0.88,-0.88 0.48601,0 0.87999,0.39399 0.87999,0.88 z" cx="-128.048" cy="137.039"  gorn="0.12.0.0.0.0.0.0.0.0.0.0.0.0.2.0.61" r="0.87999803" id="circle500"/>
                                                                <circle style="fill:#595959" d="m -124.518,137.039 c 0,0.48601 -0.39399,0.88 -0.88,0.88 -0.48601,0 -0.88,-0.39399 -0.88,-0.88 0,-0.48601 0.39399,-0.88 0.88,-0.88 0.48601,0 0.88,0.39399 0.88,0.88 z" cx="-125.398" cy="137.039"  gorn="0.12.0.0.0.0.0.0.0.0.0.0.0.0.2.0.62" r="0.87999803" id="circle502"/>
                                                                <path style="fill:#595959" d="m -128.577,134.775 c -0.389,0.127 -0.766,0.271 -1.135,0.432 0.104,0.045 0.222,0.07 0.344,0.07 0.349,0.001 0.647,-0.206 0.791,-0.502 z"  gorn="0.12.0.0.0.0.0.0.0.0.0.0.0.0.2.0.63" id="path504"/>
                                                                <path style="fill:#595959" d="m -126.72,135.278 c 0.487,0 0.881,-0.396 0.881,-0.882 0,-0.057 -0.006,-0.111 -0.017,-0.167 -0.591,0.053 -1.168,0.147 -1.731,0.279 0.055,0.433 0.42,0.77 0.867,0.77 z"  gorn="0.12.0.0.0.0.0.0.0.0.0.0.0.0.2.0.64" id="path506"/>
                                                                <circle style="fill:#595959" d="m -123.291,139.67999 c 0,0.48601 -0.39399,0.88 -0.88,0.88 -0.48601,0 -0.88,-0.39399 -0.88,-0.88 0,-0.48601 0.39399,-0.88 0.88,-0.88 0.48601,0 0.88,0.39399 0.88,0.88 z" cx="-124.171" cy="139.67999"  gorn="0.12.0.0.0.0.0.0.0.0.0.0.0.0.2.0.65" r="0.87999803" id="circle508"/>
                                                                <circle style="fill:#595959" d="m -120.64201,139.67999 c 0,0.48601 -0.39398,0.88 -0.87999,0.88 -0.48601,0 -0.88,-0.39399 -0.88,-0.88 0,-0.48601 0.39399,-0.88 0.88,-0.88 0.48601,0 0.87999,0.39399 0.87999,0.88 z" cx="-121.522" cy="139.67999"  gorn="0.12.0.0.0.0.0.0.0.0.0.0.0.0.2.0.66" r="0.87999803" id="circle510"/>
                                                                <circle style="fill:#595959" d="m -117.991,139.67999 c 0,0.48657 -0.39444,0.881 -0.881,0.881 -0.48656,0 -0.881,-0.39443 -0.881,-0.881 0,-0.48656 0.39444,-0.881 0.881,-0.881 0.48656,0 0.881,0.39444 0.881,0.881 z" cx="-118.872" cy="139.67999"  gorn="0.12.0.0.0.0.0.0.0.0.0.0.0.0.2.0.67" r="0.88099903" id="circle512"/>
                                                                <circle style="fill:#595959" d="m -115.341,139.67999 c 0,0.48657 -0.39444,0.881 -0.881,0.881 -0.48656,0 -0.881,-0.39443 -0.881,-0.881 0,-0.48656 0.39444,-0.881 0.881,-0.881 0.48656,0 0.881,0.39444 0.881,0.881 z" cx="-116.222" cy="139.67999"  gorn="0.12.0.0.0.0.0.0.0.0.0.0.0.0.2.0.68" r="0.88099903" id="circle514"/>
                                                                <path style="fill:#595959" d="m -114.083,140.396 c -0.114,-0.199 -0.232,-0.396 -0.357,-0.589 0.034,0.243 0.166,0.453 0.357,0.589 z"  gorn="0.12.0.0.0.0.0.0.0.0.0.0.0.0.2.0.69" id="path516"/>
                                                                <circle style="fill:#595959" d="m -121.971,137.039 c 0,0.48601 -0.39399,0.88 -0.88,0.88 -0.48601,0 -0.88,-0.39399 -0.88,-0.88 0,-0.48601 0.39399,-0.88 0.88,-0.88 0.48601,0 0.88,0.39399 0.88,0.88 z" cx="-122.851" cy="137.039"  gorn="0.12.0.0.0.0.0.0.0.0.0.0.0.0.2.0.70" r="0.87999803" id="circle518"/>
                                                                <circle style="fill:#595959" d="m -119.32,137.039 c 0,0.48601 -0.39399,0.88 -0.88,0.88 -0.48601,0 -0.87999,-0.39399 -0.87999,-0.88 0,-0.48601 0.39398,-0.88 0.87999,-0.88 0.48601,0 0.88,0.39399 0.88,0.88 z" cx="-120.2" cy="137.039"  gorn="0.12.0.0.0.0.0.0.0.0.0.0.0.0.2.0.71" r="0.87999803" id="circle520"/>
                                                                <path style="fill:#595959" d="m -118.431,137.039 c 0,0.486 0.395,0.88 0.881,0.88 0.424,0 0.776,-0.3 0.86,-0.699 -0.397,-0.347 -0.81201,-0.674 -1.25,-0.968 -0.289,0.143 -0.491,0.439 -0.491,0.787 z"  gorn="0.12.0.0.0.0.0.0.0.0.0.0.0.0.2.0.72" id="path522"/>
                                                                <path style="fill:#595959" d="m -124.171,135.278 c 0.485,0 0.879,-0.396 0.879,-0.882 0,-0.042 -0.006,-0.083 -0.013,-0.123 -0.485,-0.059 -0.979,-0.097 -1.479,-0.097 -0.082,0 -0.159,0.01 -0.24,0.012 -0.018,0.066 -0.027,0.137 -0.027,0.208 -0.002,0.486 0.393,0.882 0.88,0.882 z"  gorn="0.12.0.0.0.0.0.0.0.0.0.0.0.0.2.0.73" id="path524"/>
                                                                <path style="fill:#595959" d="m -121.521,135.278 c 0.316,0 0.592,-0.17 0.747,-0.422 -0.528,-0.182 -1.069,-0.335 -1.628,-0.444 0.01,0.478 0.399,0.866 0.881,0.866 z"  gorn="0.12.0.0.0.0.0.0.0.0.0.0.0.0.2.0.74" id="path526"/>
                                                                <circle style="fill:#595959" d="m -123.29,150.25 c 0,0.48656 -0.39444,0.881 -0.881,0.881 -0.48656,0 -0.881,-0.39444 -0.881,-0.881 0,-0.48656 0.39444,-0.881 0.881,-0.881 0.48656,0 0.881,0.39444 0.881,0.881 z" cx="-124.171" cy="150.25"  gorn="0.12.0.0.0.0.0.0.0.0.0.0.0.0.2.0.75" r="0.88099903" id="circle528"/>
                                                                <circle style="fill:#595959" d="m -120.64,150.25 c 0,0.48656 -0.39444,0.881 -0.881,0.881 -0.48657,0 -0.881,-0.39444 -0.881,-0.881 0,-0.48656 0.39443,-0.881 0.881,-0.881 0.48656,0 0.881,0.39444 0.881,0.881 z" cx="-121.521" cy="150.25"  gorn="0.12.0.0.0.0.0.0.0.0.0.0.0.0.2.0.76" r="0.88099903" id="circle530"/>
                                                                <circle style="fill:#595959" d="m -117.991,150.25 c 0,0.48656 -0.39444,0.881 -0.881,0.881 -0.48656,0 -0.881,-0.39444 -0.881,-0.881 0,-0.48656 0.39444,-0.881 0.881,-0.881 0.48656,0 0.881,0.39444 0.881,0.881 z" cx="-118.872" cy="150.25"  gorn="0.12.0.0.0.0.0.0.0.0.0.0.0.0.2.0.77" r="0.88099903" id="circle532"/>
                                                                <circle style="fill:#595959" d="m -115.341,150.25 c 0,0.48656 -0.39444,0.881 -0.881,0.881 -0.48656,0 -0.881,-0.39444 -0.881,-0.881 0,-0.48656 0.39444,-0.881 0.881,-0.881 0.48656,0 0.881,0.39444 0.881,0.881 z" cx="-116.222" cy="150.25"  gorn="0.12.0.0.0.0.0.0.0.0.0.0.0.0.2.0.78" r="0.88099903" id="circle534"/>
                                                                <path style="fill:#595959" d="m -113.573,149.368 c -0.486,0 -0.881,0.395 -0.881,0.881 0,0.485 0.395,0.882 0.881,0.882 0.078,0 0.154,-0.015 0.229,-0.034 0.182,-0.451 0.33,-0.917 0.459,-1.395 -0.163,-0.201 -0.409,-0.334 -0.688,-0.334 z"  gorn="0.12.0.0.0.0.0.0.0.0.0.0.0.0.2.0.79" id="path536"/>
                                                            </g>
                                                        </g>
                                                        <circle style="stroke-miterlimit:10" d="m -111.341,146.506 c 0,7.42436 -6.01863,13.443 -13.443,13.443 -7.42436,0 -13.443,-6.01864 -13.443,-13.443 0,-7.42437 6.01864,-13.443 13.443,-13.443 7.42437,0 13.443,6.01863 13.443,13.443 z" stroke-width="0.5" stroke-miterlimit="10" cx="-124.784" cy="146.506"  stroke="#fdfffd" gorn="0.12.0.0.0.0.0.0.0.0.0.0.0.0.3" r="13.443" fill="none" id="circle538"/>
                                                    </g>
                                                    <g  gorn="0.12.0.0.0.0.0.0.0.0.0.0.0.1" id="Ebene_2"/>
                                                </g>
                                            </g>
                                        </g>
                                    </g>
                                </g>
                            </g>
                        </g>
                    </g>
                </g>
            </g>
        </g>
    </g>
</svg>
