<?xml version='1.0' encoding='UTF-8' standalone='no'?>
<!-- Created with Fritzing (http://www.fritzing.org/) -->
<svg xmlns="http://www.w3.org/2000/svg" version="1.2" baseProfile="tiny" width="1.29028in" height="0.780556in"  viewBox="0 0 1290.28 780.556" x="0in" y="0in">
    <desc >
        <referenceFile >SparkFun_Thermocouple_Breakout_breadboard.svg</referenceFile>
    </desc>
    <g id="breadboard" gorn="0.1" >
        <g id="icon" gorn="0.1.0" >
            <path fill="#C62717" d="M1180.56,709.723L1180.56,59.7223C1180.56,26.3889,1152.78,0,1119.45,0l-90.2779,0l-9.72224,9.72223l0,40.2778l-130.556,0L888.89,9.72223L880.557,0L331.945,0c0,0,-8.33335,51.3889,-63.889,51.3889S204.167,0,204.167,0L50.0001,0C22.2223,0,0,22.2222,0,50c0,0,0,0,0,0l0,680.556c0,27.7778,22.2223,50,50.0001,50l152.778,0c0,0,0,-56.9445,63.889,-56.9445s66.6668,56.9445,66.6668,56.9445l547.223,0l9.72224,-9.72223l0,-40.2778l130.556,0l0,40.2778l9.72224,9.72223l80.5557,0C1148.61,780.556,1180.56,748.612,1180.56,709.723L1180.56,709.723M30.5556,140.278c0,-11.1111,8.33335,-19.4445,19.4445,-19.4445S69.4446,129.167,69.4446,140.278c0,0,0,0,0,0c0,11.1111,-8.33335,19.4445,-19.4445,19.4445C38.889,159.722,30.5556,151.389,30.5556,140.278zM30.5556,240.278c0,-11.1111,8.33335,-19.4445,19.4445,-19.4445S69.4446,229.167,69.4446,240.278c0,0,0,0,0,0c0,11.1111,-8.33335,19.4445,-19.4445,19.4445S30.5556,251.389,30.5556,240.278zM30.5556,340.278c0,-11.1111,8.33335,-19.4445,19.4445,-19.4445C61.1112,319.445,69.4446,329.167,69.4446,340.278c0,0,0,0,0,0c0,11.1111,-8.33335,19.4445,-19.4445,19.4445S30.5556,351.389,30.5556,340.278zM30.5556,440.278c0,-11.1111,8.33335,-19.4445,19.4445,-19.4445c11.1111,0,19.4445,8.33334,19.4445,19.4445c0,0,0,0,0,0c0,11.1111,-8.33335,19.4445,-19.4445,19.4445S30.5556,451.389,30.5556,440.278zM30.5556,540.278c0,-11.1111,8.33335,-19.4445,19.4445,-19.4445c11.1111,0,19.4445,8.33334,19.4445,19.4445c0,0,0,0,0,0c0,11.1111,-8.33335,19.4445,-19.4445,19.4445S30.5556,551.389,30.5556,540.278zM30.5556,640.278c0,-11.1111,8.33335,-19.4445,19.4445,-19.4445c11.1111,0,19.4445,8.33334,19.4445,19.4445c0,0,0,0,0,0c0,11.1111,-8.33335,19.4445,-19.4445,19.4445S30.5556,651.389,30.5556,640.278zM534.723,119.445c0,-19.4445,15.2778,-34.7222,34.7223,-34.7222s34.7223,15.2778,34.7223,34.7222s-15.2778,34.7222,-34.7223,34.7222S534.723,138.889,534.723,119.445zM534.723,659.723c0,-19.4445,15.2778,-34.7222,34.7223,-34.7222s34.7223,15.2778,34.7223,34.7222S588.89,694.445,569.445,694.445S534.723,679.167,534.723,659.723zM1065.28,700c0,-19.4445,15.2778,-34.7222,34.7223,-34.7222c19.4445,0,34.7223,15.2778,34.7223,34.7222l0,0c0,19.4445,-15.2778,34.7222,-34.7223,34.7222C1080.56,734.723,1065.28,719.445,1065.28,700zM1065.28,80.5556c0,-19.4445,15.2778,-34.7222,34.7223,-34.7222c19.4445,0,34.7223,15.2778,34.7223,34.7222s-15.2778,34.7222,-34.7223,34.7222C1080.56,115.278,1065.28,100,1065.28,80.5556z" />
            <g id="SILKSCREEN" gorn="0.1.0.1" >
                <g >
                    <g >
                        <g >
                            <g >
                                <path fill="#FFFFFE" d="M1055.56,558.334c5.55557,0,8.33335,-4.16667,8.33335,-11.1111c0,-4.16667,-1.38889,-9.72223,-5.55557,-9.72223c-4.16667,0,-5.55557,5.55556,-6.94446,15.2778c-2.77778,8.33334,-4.16667,15.2778,-12.5,15.2778c-12.5,0,-15.2778,-11.1111,-15.2778,-20.8333s4.16667,-20.8333,15.2778,-20.8333l0,12.5c-4.16667,0,-6.94446,4.16667,-6.94446,9.72223c0,4.16667,0,6.94445,4.16667,6.94445s5.55557,-8.33334,6.94446,-15.2778c2.77778,-8.33334,4.16667,-15.2778,13.8889,-15.2778c12.5,0,18.0556,12.5,18.0556,22.2222c0,12.5,-4.16667,22.2222,-18.0556,23.6111L1055.56,558.334C1056.95,558.334,1055.56,558.334,1055.56,558.334z" />
                                <path fill="#FFFFFE" d="M1022.22,518.056l-2.77778,-12.5l5.55557,0l0,0c-5.55557,-4.16667,-6.94446,-8.33334,-6.94446,-13.8889c0,-15.2778,12.5,-22.2222,26.3889,-22.2222c12.5,0,26.3889,6.94445,26.3889,20.8333c0,5.55556,-2.77778,12.5,-6.94446,13.8889l0,0l36.1112,0l-12.5,12.5L1022.22,518.056L1022.22,518.056zM1045.84,480.556c-8.33335,0,-15.2778,4.16667,-15.2778,12.5c0,9.72223,8.33335,12.5,15.2778,12.5c8.33335,0,15.2778,-4.16667,15.2778,-12.5C1062.5,484.722,1054.17,480.556,1045.84,480.556z" />
                                <path fill="#FFFFFE" d="M1036.11,462.5c-12.5,-1.38889,-16.6667,-12.5,-16.6667,-23.6111c0,-9.72223,2.77778,-20.8333,13.8889,-20.8333l26.3889,0c4.16667,0,9.72224,0,11.1111,-1.38889l0,13.8889c-1.38889,0,-4.16667,1.38889,-4.16667,1.38889c4.16667,4.16667,5.55557,11.1111,5.55557,16.6667c0,9.72223,-4.16667,16.6667,-15.2778,16.6667c-22.2223,0,-11.1111,-33.3334,-20.8334,-33.3334C1027.78,430.556,1027.78,434.722,1027.78,438.889s2.77778,8.33334,6.94446,9.72223L1036.11,462.5C1034.72,462.5,1036.11,462.5,1036.11,462.5zM1045.84,430.556c2.77778,2.77778,2.77778,6.94445,2.77778,12.5c1.38889,4.16667,2.77778,8.33334,6.94446,8.33334c4.16667,0,5.55557,-4.16667,5.55557,-8.33334c0,-11.1111,-8.33335,-11.1111,-12.5,-11.1111L1045.84,430.556L1045.84,430.556z" />
                                <path fill="#FFFFFE" d="M1022.22,409.722l-2.77778,-12.5l9.72224,0l0,0c-5.55557,-2.77778,-11.1111,-9.72223,-11.1111,-15.2778c0,-1.38889,0,-2.77778,0,-4.16667l12.5,0c0,1.38889,0,4.16667,0,4.16667c0,9.72223,6.94446,12.5,15.2778,12.5l22.2223,0l0,12.5L1022.22,409.722L1022.22,409.722z" />
                                <path fill="#FFFFFE" d="M1009.72,372.222l-6.94446,-12.5l37.5001,0l-18.0556,-16.6667l0,-16.6667l18.0556,19.4445l30.5556,-20.8333l0,16.6667l-22.2223,12.5l4.16667,4.16667L1069.45,358.334l0,12.5C1069.45,372.222,1009.72,372.222,1009.72,372.222z" />
                                <path fill="#FFFFFE" d="M1029.17,313.889l0,12.5l-9.72224,-9.72223l0,-4.16667l-4.16667,0c-8.33335,0,-15.2778,-5.55556,-15.2778,-16.6667c0,-2.77778,0,-4.16667,0,-6.94445l11.1111,0c0,1.38889,0,4.16667,0,4.16667c0,4.16667,1.38889,4.16667,5.55557,4.16667l2.77778,0l0,-9.72223l9.72224,0l0,9.72223l40.2778,0l0,12.5L1029.17,313.889C1029.17,312.5,1029.17,313.889,1029.17,313.889z" />
                                <path fill="#FFFFFE" d="M1070.84,240.278l0,12.5l-6.94446,0l0,0c5.55557,4.16667,8.33335,9.72223,8.33335,15.2778c0,13.8889,-8.33335,18.0556,-20.8334,18.0556l-29.1667,0l0,-12.5l29.1667,0c8.33335,0,12.5,-2.77778,12.5,-8.33334c0,-6.94445,-4.16667,-11.1111,-13.8889,-11.1111l-26.3889,0l0,-12.5L1070.84,240.278L1070.84,240.278z" />
                                <path fill="#FFFFFE" d="M1020.84,231.945l0,-12.5L1027.78,219.445l0,0c-5.55557,-4.16667,-8.33335,-9.72223,-8.33335,-15.2778c0,-13.8889,8.33335,-18.0556,20.8334,-18.0556l30.5556,0l0,12.5l-29.1667,0c-8.33335,0,-12.5,2.77778,-12.5,8.33334c0,6.94445,4.16667,11.1111,13.8889,11.1111l26.3889,0l0,12.5L1020.84,231.945L1020.84,231.945z" />
                            </g>
                        </g>
                    </g>
                    <g >
                        <path fill="#FFFFFE" d="M936.113,294.445c0,0,4.16667,-1.38889,5.55557,2.77778c0,2.77778,-2.77778,6.94445,-4.16667,9.72223c-4.16667,2.77778,-5.55557,2.77778,-8.33335,0c-4.16667,-4.16667,-2.77778,-8.33334,-2.77778,-8.33334S916.668,308.334,925.002,319.445c6.94446,9.72223,15.2778,6.94445,23.6112,-2.77778c6.94446,-8.33334,13.8889,-1.38889,13.8889,5.55556c-1.38889,5.55556,-4.16667,6.94445,-6.94446,5.55556c-2.77778,-1.38889,-4.16667,-4.16667,-4.16667,-4.16667s-2.77778,4.16667,0,9.72223c1.38889,4.16667,5.55557,8.33334,15.2778,8.33334l45.8334,0c0,0,-5.55557,-4.16667,-12.5,-11.1111c-6.94446,-5.55556,-12.5,-9.72223,-11.1111,-15.2778c1.38889,-12.5,-4.16667,-20.8333,-12.5,-27.7778C956.946,277.778,937.502,287.5,936.113,294.445z" />
                    </g>
                </g>
                <path fill="#FFFFFF" d="M815.279,326.389L805.557,318.056l-16.6667,12.5l-2.77778,-1.38889c-4.16667,-2.77778,-9.72224,-4.16667,-13.8889,-5.55556l-2.77778,-1.38889l-2.77778,-20.8333l-12.5,0l-2.77778,20.8333l-2.77778,1.38889c-5.55557,1.38889,-9.72224,2.77778,-13.8889,5.55556l-2.77778,1.38889l-16.6667,-12.5l-8.33335,8.33334l12.5,16.6667L716.668,347.222c-2.77778,4.16667,-4.16667,8.33334,-5.55557,13.8889l-1.38889,2.77778l-20.8334,2.77778l0,12.5l20.8334,2.77778l1.38889,2.77778c1.38889,5.55556,2.77778,9.72223,5.55557,13.8889l1.38889,2.77778l-12.5,16.6667l8.33335,8.33334l16.6667,-12.5l2.77778,1.38889c4.16667,2.77778,9.72224,4.16667,13.8889,5.55556l2.77778,1.38889l2.77778,20.8333l12.5,0l2.77778,-20.8333l2.77778,-1.38889c5.55557,-1.38889,9.72224,-2.77778,13.8889,-5.55556l2.77778,-1.38889l16.6667,12.5l8.33335,-8.33334l-12.5,-16.6667l1.38889,-2.77778c1.38889,-1.38889,1.38889,-2.77778,2.77778,-4.16667l-25,-9.72223c-5.55557,8.33334,-15.2778,13.8889,-26.3889,11.1111c-9.72224,-1.38889,-16.6667,-9.72223,-19.4445,-19.4445C733.335,361.111,745.835,347.222,759.724,347.222c8.33335,0,16.6667,4.16667,22.2223,12.5l25,-9.72223C805.557,347.222,805.557,347.222,804.168,344.445l-1.38889,-2.77778L815.279,326.389z" />
                <g transform="matrix(1, 0, 0, 1, 92.4196, 165.417)" >
                    <g >
                        <g >
                            <text fill="#FFFFFF" font-family="OCRA"  font-size="69.4446">GND</text>
                        </g>
                    </g>
                </g>
                <g transform="matrix(1, 0, 0, 1, 142.767, 194.351)" >
                    <g >
                        <g >
                            <text fill="#FFFFFF" font-family="OCRA"  font-size="27.7778">3.0V-3.6V</text>
                        </g>
                    </g>
                </g>
                <g transform="matrix(1, 0, 0, 1, 92.4196, 265.417)" >
                    <g >
                        <g >
                            <text fill="#FFFFFF" font-family="OCRA"  font-size="69.4446">VCC</text>
                        </g>
                    </g>
                </g>
                <g transform="matrix(1, 0, 0, 1, 92.4196, 365.413)" >
                    <g >
                        <g >
                            <text fill="#FFFFFF" font-family="OCRA"  font-size="69.4446">SCK</text>
                        </g>
                    </g>
                </g>
                <g transform="matrix(1, 0, 0, 1, 92.4196, 467.497)" >
                    <g >
                        <g >
                            <text fill="#FFFFFF" font-family="OCRA"  font-size="69.4446">SO</text>
                        </g>
                    </g>
                </g>
                <g transform="matrix(1, 0, 0, 1, 92.4196, 565.424)" >
                    <g >
                        <g >
                            <text fill="#FFFFFF" font-family="OCRA"  font-size="69.4446">NC</text>
                        </g>
                    </g>
                </g>
                <g transform="matrix(1, 0, 0, 1, 92.4196, 665.416)" >
                    <g >
                        <g >
                            <text fill="#FFFFFF" font-family="OCRA"  font-size="69.4446">CS</text>
                        </g>
                    </g>
                </g>
                <g transform="matrix(1, 0, 0, 1, 358.026, 769.788)" >
                    <g >
                        <g >
                            <text fill="#FFFFFF" font-family="OCRA"  font-size="69.4446">MAX31855K</text>
                        </g>
                    </g>
                </g>
                <line fill="none" stroke-width="6.94446" y1="600" y2="600" stroke="#FFFFFF" x1="93.0557" x2="191.667"  stroke-miterlimit="10"/>
            </g>
            <circle fill="none" stroke-width="17" id="connector0pin" cx="50.0001" stroke="#9A916C" r="29.1667" cy="140.278" gorn="0.1.0.2" />
            <circle fill="none" stroke-width="17" id="connector1pin" cx="50.0001" stroke="#9A916C" r="29.1667" cy="240.278" gorn="0.1.0.3" />
            <circle fill="none" stroke-width="17" id="connector2pin" cx="50.0001" stroke="#9A916C" r="29.1667" cy="340.278" gorn="0.1.0.4" />
            <circle fill="none" stroke-width="17" id="connector3pin" cx="50.0001" stroke="#9A916C" r="29.1667" cy="440.278" gorn="0.1.0.5" />
            <circle fill="none" stroke-width="17" id="connector4pin" cx="50.0001" stroke="#9A916C" r="29.1667" cy="540.278" gorn="0.1.0.6" />
            <circle fill="none" stroke-width="17" id="connector5pin" cx="50.0001" stroke="#9A916C" r="29.1667" cy="640.278" gorn="0.1.0.7" />
            <circle fill="none" stroke-width="17.5" id="connector6pin" cx="569.445" stroke="#9A916C" r="44.4445" cy="119.445" gorn="0.1.0.8" />
            <circle fill="none" stroke-width="17.5" id="connector7pin" cx="569.445" stroke="#9A916C" r="44.4445" cy="659.723" gorn="0.1.0.9" />
            <circle fill="none" stroke-width="17.5" id="connector9pin" cx="1100" stroke="#9A916C" r="44.4445" cy="700" gorn="0.1.0.10" />
            <circle fill="none" stroke-width="17.5" id="connector8pin" cx="1100" stroke="#9A916C" r="43.0556" cy="80.5556" gorn="0.1.0.11" />
            <g >
                <g transform="matrix(1, 0, 0, 1, 444.434, 237.153)" >
                    <g >
                        <g >
                            <g id="_x30_603-cap" gorn="0.1.0.12.0.0.0.0" >
                                <rect fill="#AF6C41" width="111.111" height="38.8889"  x="0" y="0"/>
                                <g >
                                    <g >
                                        <path fill="#DCDCDC" d="M94.4446,0L94.4446,0L94.4446,0L94.4446,0L94.4446,0C91.6668,4.16667,91.6668,11.1111,91.6668,15.2778c0,4.16667,0,20.8333,1.38889,23.6111l0,0l0,0l16.6667,0L109.722,0L94.4446,0z" />
                                        <path fill="#DCDCDC" d="M16.6667,1.38889L16.6667,0L0,0l0,40.2778l16.6667,0c1.38889,-4.16667,2.77778,-19.4445,2.77778,-23.6111C19.4445,11.1111,18.0556,5.55556,16.6667,1.38889z" />
                                    </g>
                                </g>
                                <rect fill="#FFFFFF" opacity="0.2" enable-background="new    " width="111.111" height="1.38889"  x="0" y="0"/>
                                <rect opacity="0.2" enable-background="new    " width="111.111" height="1.38889"  x="0" y="37.5"/>
                            </g>
                        </g>
                    </g>
                </g>
                <g transform="matrix(1, 0, 0, 1, 538.043, 369.879)" >
                    <g >
                        <g >
                            <g id="_x30_603-cap_1_" gorn="0.1.0.12.1.0.0.0" >
                                <g transform="matrix(0, -1, 1, 0, 35.4445, 74.8056)" >
                                    <g >
                                        <g >
                                            <g >
                                                <g transform="matrix(-2.54711e-06, -1, 1, -2.54711e-06, 35.632, 74.9931)" >
                                                    <g >
                                                        <g >
                                                            <rect fill="#AF6C41" width="38.889" height="111.111"  x="36.1112" y="-36.1111"/>
                                                        </g>
                                                    </g>
                                                </g>
                                                <g >
                                                    <g >
                                                        <path fill="#DCDCDC" d="M94.4446,0L94.4446,0L94.4446,0L94.4446,0L94.4446,0C91.6668,4.16667,91.6668,11.1111,91.6668,15.2778c0,4.16667,0,20.8333,1.38889,23.6111l0,0l0,0l16.6667,0L109.722,0L94.4446,0z" />
                                                        <path fill="#DCDCDC" d="M16.6667,1.38889L16.6667,0L0,0l0,40.2778l16.6667,0c1.38889,-4.16667,2.77778,-19.4445,2.77778,-23.6111C19.4445,11.1111,18.0556,5.55556,16.6667,1.38889z" />
                                                    </g>
                                                </g>
                                                <g transform="matrix(-2.54711e-06, -1, 1, -2.54711e-06, 54.3265, 56.2986)" >
                                                    <g >
                                                        <g >
                                                            <rect fill="#FFFFFF" opacity="0.2" enable-background="new    " width="1.38889" height="111.111"  x="54.1668" y="-54.1667"/>
                                                        </g>
                                                    </g>
                                                </g>
                                                <g transform="matrix(-2.54711e-06, -1, 1, -2.54711e-06, 16.9375, 93.6876)" >
                                                    <g >
                                                        <g >
                                                            <rect opacity="0.2" enable-background="new    " width="1.38889" height="111.111"  x="54.1668" y="-16.6667"/>
                                                        </g>
                                                    </g>
                                                </g>
                                            </g>
                                        </g>
                                    </g>
                                </g>
                            </g>
                        </g>
                    </g>
                </g>
                <g transform="matrix(1, 0, 0, 1, 341.709, 200.76)" >
                    <g >
                        <g >
                            <g id="_x30_603-res" gorn="0.1.0.12.2.0.0.0" >
                                <g transform="matrix(0, 1, -1, 0, 74.8057, -35.4445)" >
                                    <g >
                                        <g >
                                            <g >
                                                <g >
                                                    <g >
                                                        <g transform="matrix(2.57889e-06, 1, -1, 2.57889e-06, 74.7362, -35.375)" >
                                                            <g >
                                                                <g >
                                                                    <rect fill="#333333" width="38.889" height="111.111"  x="34.7223" y="-36.1111"/>
                                                                </g>
                                                            </g>
                                                        </g>
                                                        <g transform="matrix(2.57889e-06, 1, -1, 2.57889e-06, 55.3751, -54.7361)" >
                                                            <g >
                                                                <g >
                                                                    <rect fill="#FFFFFF" opacity="0.2" enable-background="new    " width="0" height="111.111"  x="54.1668" y="-55.5556"/>
                                                                </g>
                                                            </g>
                                                        </g>
                                                        <g transform="matrix(2.57889e-06, 1, -1, 2.57889e-06, 94.1946, -15.9167)" >
                                                            <g >
                                                                <g >
                                                                    <rect opacity="0.2" enable-background="new    " width="0" height="111.111"  x="54.1668" y="-16.6667"/>
                                                                </g>
                                                            </g>
                                                        </g>
                                                    </g>
                                                    <g >
                                                        <path fill="#DCDCDC" d="M94.4446,0L94.4446,0L94.4446,0L94.4446,0L94.4446,0C91.6668,4.16667,91.6668,11.1111,91.6668,15.2778c0,4.16667,0,19.4445,1.38889,23.6111l0,0l0,0l16.6667,0L109.722,0L94.4446,0z" />
                                                        <path fill="#DCDCDC" d="M16.6667,1.38889L16.6667,0L0,0l0,37.5l16.6667,0c1.38889,-4.16667,2.77778,-19.4445,2.77778,-23.6111C19.4445,9.72223,18.0556,5.55556,16.6667,1.38889z" />
                                                        <path fill="#999999" d="M109.722,40.2778L93.0557,40.2778l0,-1.38889l16.6667,0L109.722,40.2778z" />
                                                        <path fill="#999999" d="M0,40.2778l16.6667,0l0,-1.38889L0,38.8889L0,40.2778z" />
                                                        <g transform="matrix(2.57889e-06, 1, -1, 2.57889e-06, 8.86807, -8.22917)" >
                                                            <g >
                                                                <g >
                                                                    <rect fill="#FFFFFF" opacity="0.5" enable-background="new    " width="0" height="16.6667"  x="8.33335" y="-8.33334"/>
                                                                </g>
                                                            </g>
                                                        </g>
                                                        <g transform="matrix(2.57889e-06, 1, -1, 2.57889e-06, 101.847, -101.208)" >
                                                            <g >
                                                                <g >
                                                                    <rect fill="#FFFFFF" opacity="0.5" enable-background="new    " width="0" height="16.6667"  x="101.389" y="-8.33334"/>
                                                                </g>
                                                            </g>
                                                        </g>
                                                        <line fill="none" y1="38.8889" y2="38.8889" x1="9.72224" x2="9.72224" />
                                                    </g>
                                                </g>
                                            </g>
                                        </g>
                                    </g>
                                </g>
                            </g>
                        </g>
                    </g>
                </g>
                <g transform="matrix(1, 0, 0, 1, 341.709, 200.76)" >
                    <g >
                        <g >
                            <g id="_x30_603-res_1_" gorn="0.1.0.12.3.0.0.0" >
                                <g transform="matrix(0, 1, -1, 0, 74.8057, -35.4445)" >
                                    <g >
                                        <g >
                                            <g >
                                                <g >
                                                    <g >
                                                        <g transform="matrix(2.57889e-06, 1, -1, 2.57889e-06, -82.239, -271.608)" >
                                                            <g >
                                                                <g >
                                                                    <rect fill="#333333" width="38.889" height="111.111"  x="75.0001" y="-231.945"/>
                                                                </g>
                                                            </g>
                                                        </g>
                                                        <g transform="matrix(2.57889e-06, 1, -1, 2.57889e-06, -101.599, -290.97)" >
                                                            <g >
                                                                <g >
                                                                    <rect fill="#FFFFFF" opacity="0.2" enable-background="new    " width="0" height="111.111"  x="94.4446" y="-251.389"/>
                                                                </g>
                                                            </g>
                                                        </g>
                                                        <g transform="matrix(2.57889e-06, 1, -1, 2.57889e-06, -62.7807, -252.15)" >
                                                            <g >
                                                                <g >
                                                                    <rect opacity="0.2" enable-background="new    " width="0" height="111.111"  x="94.4446" y="-212.5"/>
                                                                </g>
                                                            </g>
                                                        </g>
                                                    </g>
                                                    <g >
                                                        <path fill="#DCDCDC" d="M133.334,-197.222L133.334,-197.222L133.334,-197.222L133.334,-197.222L133.334,-197.222c-2.77778,4.16667,-2.77778,11.1111,-2.77778,15.2778c0,4.16667,0,19.4445,1.38889,23.6111l0,0l0,0l16.6667,0l0,-37.5L133.334,-195.833z" />
                                                        <path fill="#DCDCDC" d="M56.9445,-195.833l0,-1.38889L40.2778,-197.222l0,37.5l16.6667,0c1.38889,-4.16667,2.77778,-19.4445,2.77778,-23.6111C59.7223,-186.111,58.3334,-191.667,56.9445,-195.833z" />
                                                        <path fill="#999999" d="M150,-156.945L133.334,-156.945l0,-1.38889l16.6667,0L150,-156.945z" />
                                                        <path fill="#999999" d="M40.2778,-156.945l16.6667,0l0,-1.38889L40.2778,-158.333L40.2778,-156.945z" />
                                                        <g transform="matrix(2.57889e-06, 1, -1, 2.57889e-06, -148.106, -244.463)" >
                                                            <g >
                                                                <g >
                                                                    <rect fill="#FFFFFF" opacity="0.5" enable-background="new    " width="0" height="16.6667"  x="47.2223" y="-204.167"/>
                                                                </g>
                                                            </g>
                                                        </g>
                                                        <g transform="matrix(2.57889e-06, 1, -1, 2.57889e-06, -55.1279, -337.442)" >
                                                            <g >
                                                                <g >
                                                                    <rect fill="#FFFFFF" opacity="0.5" enable-background="new    " width="0" height="16.6667"  x="140.278" y="-204.167"/>
                                                                </g>
                                                            </g>
                                                        </g>
                                                        <line fill="none" y1="-156.945" y2="-156.945" x1="50.0001" x2="50.0001" />
                                                    </g>
                                                </g>
                                            </g>
                                        </g>
                                    </g>
                                </g>
                            </g>
                        </g>
                    </g>
                </g>
                <g transform="matrix(1, 0, 0, 1, 341.709, 200.76)" >
                    <g >
                        <g >
                            <g id="_x30_603-res_2_" gorn="0.1.0.12.4.0.0.0" >
                                <g transform="matrix(0, 1, -1, 0, 74.8057, -35.4445)" >
                                    <g >
                                        <g >
                                            <g >
                                                <g >
                                                    <g >
                                                        <g transform="matrix(2.57889e-06, 1, -1, 2.57889e-06, 177.761, -531.609)" >
                                                            <g >
                                                                <g >
                                                                    <rect fill="#333333" width="38.889" height="111.111"  x="334.723" y="-231.945"/>
                                                                </g>
                                                            </g>
                                                        </g>
                                                        <g transform="matrix(2.57889e-06, 1, -1, 2.57889e-06, 158.4, -550.97)" >
                                                            <g >
                                                                <g >
                                                                    <rect fill="#FFFFFF" opacity="0.2" enable-background="new    " width="0" height="111.111"  x="354.167" y="-251.389"/>
                                                                </g>
                                                            </g>
                                                        </g>
                                                        <g transform="matrix(2.57889e-06, 1, -1, 2.57889e-06, 197.22, -512.15)" >
                                                            <g >
                                                                <g >
                                                                    <rect opacity="0.2" enable-background="new    " width="0" height="111.111"  x="354.167" y="-212.5"/>
                                                                </g>
                                                            </g>
                                                        </g>
                                                    </g>
                                                    <g >
                                                        <path fill="#DCDCDC" d="M394.445,-197.222L394.445,-197.222L394.445,-197.222L394.445,-197.222L394.445,-197.222c-2.77778,4.16667,-2.77778,11.1111,-2.77778,15.2778c0,4.16667,0,19.4445,1.38889,23.6111l0,0l0,0l16.6667,0l0,-37.5L394.445,-195.833z" />
                                                        <path fill="#DCDCDC" d="M316.667,-195.833l0,-1.38889l-16.6667,0l0,37.5l16.6667,0c1.38889,-4.16667,2.77778,-19.4445,2.77778,-23.6111C319.445,-186.111,318.056,-191.667,316.667,-195.833z" />
                                                        <path fill="#999999" d="M409.723,-156.945l-16.6667,0l0,-1.38889l16.6667,0L409.723,-156.945z" />
                                                        <path fill="#999999" d="M300.001,-156.945l16.6667,0l0,-1.38889l-16.6667,0L300.001,-156.945z" />
                                                        <g transform="matrix(2.57889e-06, 1, -1, 2.57889e-06, 111.893, -504.463)" >
                                                            <g >
                                                                <g >
                                                                    <rect fill="#FFFFFF" opacity="0.5" enable-background="new    " width="0" height="16.6667"  x="308.334" y="-204.167"/>
                                                                </g>
                                                            </g>
                                                        </g>
                                                        <g transform="matrix(2.57889e-06, 1, -1, 2.57889e-06, 204.873, -597.442)" >
                                                            <g >
                                                                <g >
                                                                    <rect fill="#FFFFFF" opacity="0.5" enable-background="new    " width="0" height="16.6667"  x="401.39" y="-204.167"/>
                                                                </g>
                                                            </g>
                                                        </g>
                                                        <line fill="none" y1="-156.945" y2="-156.945" x1="309.723" x2="309.723" />
                                                    </g>
                                                </g>
                                            </g>
                                        </g>
                                    </g>
                                </g>
                            </g>
                        </g>
                    </g>
                </g>
                <g >
                    <g transform="matrix(0.5, 0, 0, 0.5, 101.5, 80.5)" >
                        <g >
                            <g >
                                <g >
                                    <g >
                                        <rect fill="#8C8C8C" width="162.5" height="52.7778"  x="350.001" y="441.667"/>
                                        <rect fill="#8C8C8C" width="162.5" height="52.7778"  x="350.001" y="543.056"/>
                                        <rect fill="#8C8C8C" width="162.5" height="52.7778"  x="350.001" y="645.834"/>
                                        <rect fill="#8C8C8C" width="162.5" height="52.7778"  x="350.001" y="747.223"/>
                                        <rect fill="#8C8C8C" width="162.5" height="52.7778"  x="676.39" y="747.223"/>
                                        <rect fill="#8C8C8C" width="162.5" height="52.7778"  x="676.39" y="645.834"/>
                                        <rect fill="#8C8C8C" width="162.5" height="52.7778"  x="676.39" y="543.056"/>
                                        <rect fill="#8C8C8C" width="162.5" height="52.7778"  x="676.39" y="441.667"/>
                                        <rect fill="#303030" width="275" height="395.834"  x="458.334" y="425"/>
                                        <polygon fill="#1F1F1F" points="733.335,425,733.335,820.834,716.668,802.778,716.668,443.056" />
                                        <polygon fill="#1F1F1F" points="458.334,425,458.334,820.834,476.39,802.778,476.39,443.056" />
                                        <polygon points="733.335,425,458.334,425,476.39,443.056,716.668,443.056" />
                                        <polygon fill="#3D3D3D" points="733.335,820.834,458.334,820.834,476.39,802.778,716.668,802.778" />
                                    </g>
                                </g>
                            </g>
                        </g>
                    </g>
                </g>
            </g>
        </g>
    </g>
</svg>
