<?xml version='1.0' encoding='utf-8'?>
<!DOCTYPE svg>
<!-- Generator: Adobe Illustrator 15.1.0, SVG Export Plug-In . SVG Version: 6.00 Build 0)  -->
<svg xmlns="http://www.w3.org/2000/svg" xml:space="preserve" width="0.787403in" height="0.787403in" version="1.1" xmlns:xml="http://www.w3.org/XML/1998/namespace" id="Layer_1"  x="0px" y="0px" enable-background="new 0 0 56.693 56.693" viewBox="0 0 56.693 56.693" gorn="0">
    <desc>
        <referenceFile>LilyPad-Vibe-v16_breadboard.svg</referenceFile>
    </desc>
    <desc >Fritzing breadboard generated by brd2svg</desc>
    <g id="breadboard"  gorn="0.1">
        <g id="icon"  gorn="0.1.0">
            <path fill="#672E58" d="M0,28.346c-0.029,15.655,12.639,28.37,28.294,28.399s28.37-12.638,28.399-28.293c0-0.036,0-0.071,0-0.106c0.029-15.655-12.639-28.37-28.294-28.399S0.029,12.585,0,28.24C0,28.276,0,28.311,0,28.346z M43.653,17.377c0-1.723,1.396-3.118,3.118-3.118c1.723,0,3.118,1.396,3.118,3.118c0,1.722-1.396,3.118-3.118,3.118C45.05,20.495,43.653,19.098,43.653,17.377z M6.803,17.717c-0.001-1.723,1.395-3.119,3.116-3.119c1.723-0.001,3.119,1.395,3.12,3.116c0,0.001,0,0.002,0,0.003c0,1.722-1.396,3.118-3.118,3.118C8.199,20.835,6.803,19.438,6.803,17.717z" />
            <g >
                <title >layer</title>
                <path stroke-width="0.576" fill="none" d="M36.624,14.003c0.131-4.579-3.475-8.397-8.055-8.529c-4.579-0.131-8.397,3.475-8.529,8.054c-0.005,0.168-0.004,0.337,0.001,0.504"  stroke="#FFFFFF"/>
                <path stroke-width="0.576" fill="none" d="M44.873,28.346c4.03-2.156,5.55-7.172,3.394-11.202c-2.156-4.031-7.172-5.551-11.202-3.395c-0.149,0.08-0.297,0.164-0.44,0.253"  stroke="#FFFFFF"/>
                <line stroke-width="0.576" fill="none" stroke-linecap="round"  y1="42.661" y2="47.284" x1="36.624" x2="35.906" stroke="#FFFFFF"/>
                <path stroke-width="0.576" fill="none" stroke-linecap="round" d="M35.981,47.129"  stroke="#FFFFFF"/>
                <path stroke-width="0.576" fill="none" stroke-linecap="round" d="M36.549,45.122"  stroke="#FFFFFF"/>
                <line stroke-width="0.576" fill="none" stroke-linecap="round"  y1="47.066" y2="48.507" x1="35.906" x2="35.906" stroke="#FFFFFF"/>
                <path stroke-width="0.576" fill="none" d="M28.419,56.282c4.215-0.079,7.567-3.561,7.487-7.775"  stroke="#FFFFFF"/>
                <path stroke-width="0.576" fill="none" d="M20.787,47.57c-0.495,4.289,2.581,8.167,6.87,8.662c0.253,0.029,0.507,0.046,0.762,0.05"  stroke="#FFFFFF"/>
                <path stroke-width="0.576" fill="none" d="M20.787,47.57c0.169-1.66-0.053-3.337-0.648-4.896"  stroke="#FFFFFF"/>
                <line stroke-width="0.576" fill="none" stroke-linecap="round"  y1="42.675" y2="42.634" x1="20.138" x2="20.097" stroke="#FFFFFF"/>
                <path stroke-width="0.576" fill="none" d="M36.624,42.661c3.86,2.438,8.967,1.284,11.404-2.577c2.438-3.86,1.283-8.967-2.577-11.404c-0.188-0.118-0.382-0.229-0.578-0.333"  stroke="#FFFFFF"/>
                <path stroke-width="0.576" fill="none" d="M11.848,28.346c-4.035,2.122-5.586,7.113-3.465,11.148c2.122,4.035,7.113,5.586,11.148,3.465c0.192-0.102,0.382-0.21,0.565-0.326"  stroke="#FFFFFF"/>
                <path stroke-width="0.576" fill="none" d="M20.041,14.031c-3.863-2.418-8.956-1.247-11.375,2.616s-1.248,8.955,2.615,11.374c0.186,0.116,0.374,0.225,0.567,0.325"  stroke="#FFFFFF"/>
                <circle stroke-width="0.576" r="28.347" fill="none"  cx="28.346" cy="28.346" stroke="#FFFFFF"/>
                <g >
                    <title >text:-</title>
                    <g transform="matrix(1 0 0 1 8.7957 25.9226)" >
                        <text fill="#FFFFFF"  font-family="'OCRA'" font-size="5.8464">-</text>
                    </g>
                </g>
                <g >
                    <title >text:+</title>
                    <g transform="matrix(1 0 0 1 43.9128 26.6257)" >
                        <text fill="#FFFFFF"  font-family="'OCRA'" font-size="5.8464">+</text>
                    </g>
                </g>
                <g >
                    <title >element:M1</title>
                    <g >
                        <title >package:VIBE-MOTOR-10MM-SMD</title>
                        <circle stroke-width="0.36" r="14.176" fill="none"  cx="28.346" cy="25.827" stroke="#FFFFFF"/>
                    </g>
                </g>
                <g >
                    <title >element:VIBE+</title>
                    <g >
                        <title >package:PETAL-SMALL-2SIDE</title>
                        <g >
                            <title >polygon</title>
                            <path stroke-width="0.576" fill="none" stroke-linecap="round" d="M48.7,24.119l0.902-0.495l0.815-0.627l0.711-0.744l0.588-0.844l0.453-0.924l0.306-0.982l0.151-1.018l-0.005-1.029L52.46,16.44l-0.316-0.979l-0.462-0.919l-0.565-0.859l-0.689-0.764l-0.799-0.648l-0.889-0.52l-0.957-0.377l-1.003-0.227l-1.027-0.07l-1.024,0.088l-1,0.243l-0.951,0.394l-0.879,0.533l1.19,0.23l1.145,0.397l1.077,0.556l0.987,0.704l0.877,0.837l0.749,0.952l0.606,1.05l0.45,1.126l0.286,1.178l0.116,1.206l-0.058,1.211l-0.229,1.19L48.7,24.119"  stroke="#FFFFFF"/>
                        </g>
                        <g >
                            <title >polygon</title>
                            <path stroke-width="0.576" fill="none" stroke-linecap="round" d="M48.7,24.119l0.902-0.495l0.815-0.627l0.711-0.744l0.588-0.844l0.453-0.924l0.306-0.982l0.151-1.018l-0.005-1.029L52.46,16.44l-0.316-0.979l-0.462-0.919l-0.565-0.859l-0.689-0.764l-0.799-0.648l-0.889-0.52l-0.957-0.377l-1.003-0.227l-1.027-0.07l-1.024,0.088l-1,0.243l-0.951,0.394l-0.879,0.533l1.19,0.23l1.145,0.397l1.077,0.556l0.987,0.704l0.877,0.837l0.749,0.952l0.606,1.05l0.45,1.126l0.286,1.178l0.116,1.206l-0.058,1.211l-0.229,1.19L48.7,24.119"  stroke="#FFFFFF"/>
                        </g>
                        <g >
                            <title >polygon</title>
                            <path stroke-width="0.576" fill="none" stroke-linecap="round" d="M41.897,12.335l0.879-0.533l0.951-0.394l1-0.243l1.024-0.088l1.027,0.07l1.003,0.227l0.957,0.377l0.889,0.52l0.799,0.648l0.689,0.764l0.565,0.859l0.462,0.919l0.316,0.979l0.162,1.016l0.005,1.029l-0.151,1.018l-0.306,0.982l-0.453,0.924l-0.588,0.844l-0.711,0.744l-0.815,0.627L48.7,24.119l0.396-1.146l0.229-1.19l0.058-1.211l-0.116-1.206l-0.286-1.178l-0.45-1.126l-0.606-1.05l-0.749-0.952l-0.877-0.837l-0.987-0.704l-1.077-0.556l-1.145-0.397L41.897,12.335"  stroke="#FFFFFF"/>
                        </g>
                        <g >
                            <title >polygon</title>
                            <path stroke-width="0.576" fill="none" stroke-linecap="round" d="M41.897,12.335l0.879-0.533l0.951-0.394l1-0.243l1.024-0.088l1.027,0.07l1.003,0.227l0.957,0.377l0.889,0.52l0.799,0.648l0.689,0.764l0.565,0.859l0.462,0.919l0.316,0.979l0.162,1.016l0.005,1.029l-0.151,1.018l-0.306,0.982l-0.453,0.924l-0.588,0.844l-0.711,0.744l-0.815,0.627L48.7,24.119l0.396-1.146l0.229-1.19l0.058-1.211l-0.116-1.206l-0.286-1.178l-0.45-1.126l-0.606-1.05l-0.749-0.952l-0.877-0.837l-0.987-0.704l-1.077-0.556l-1.145-0.397L41.897,12.335"  stroke="#FFFFFF"/>
                        </g>
                    </g>
                </g>
                <g >
                    <title >element:VIBE-</title>
                    <g >
                        <title >package:PETAL-SMALL-2SIDE</title>
                        <g >
                            <title >polygon</title>
                            <path stroke-width="0.576" fill="none" stroke-linecap="round" d="M14.796,12.676l-0.879-0.534l-0.951-0.394l-1-0.243l-1.024-0.087l-1.026,0.07l-1.004,0.227l-0.957,0.377L7.065,12.61l-0.799,0.648l-0.689,0.764l-0.565,0.859l-0.462,0.92L4.233,16.78l-0.162,1.017l-0.005,1.028l0.151,1.018l0.306,0.982l0.453,0.924l0.588,0.844l0.711,0.744l0.815,0.627l0.902,0.495l-0.396-1.146l-0.229-1.19l-0.058-1.211l0.116-1.207l0.286-1.178l0.45-1.125l0.606-1.05l0.749-0.953l0.877-0.837l0.987-0.703l1.077-0.557l1.145-0.396L14.796,12.676"  stroke="#FFFFFF"/>
                        </g>
                        <g >
                            <title >polygon</title>
                            <path stroke-width="0.576" fill="none" stroke-linecap="round" d="M14.796,12.676l-0.879-0.534l-0.951-0.394l-1-0.243l-1.024-0.087l-1.026,0.07l-1.004,0.227l-0.957,0.377L7.065,12.61l-0.799,0.648l-0.689,0.764l-0.565,0.859l-0.462,0.92L4.233,16.78l-0.162,1.017l-0.005,1.028l0.151,1.018l0.306,0.982l0.453,0.924l0.588,0.844l0.711,0.744l0.815,0.627l0.902,0.495l-0.396-1.146l-0.229-1.19l-0.058-1.211l0.116-1.207l0.286-1.178l0.45-1.125l0.606-1.05l0.749-0.953l0.877-0.837l0.987-0.703l1.077-0.557l1.145-0.396L14.796,12.676"  stroke="#FFFFFF"/>
                        </g>
                        <g >
                            <title >polygon</title>
                            <path stroke-width="0.576" fill="none" stroke-linecap="round" d="M7.993,24.459l-0.902-0.495l-0.815-0.627l-0.711-0.744l-0.588-0.844l-0.453-0.924l-0.306-0.982l-0.151-1.018l0.005-1.028l0.162-1.017l0.316-0.979l0.462-0.92l0.565-0.859l0.689-0.764l0.799-0.648l0.889-0.519l0.957-0.377l1.004-0.227l1.026-0.07l1.024,0.087l1,0.243l0.951,0.394l0.879,0.534l-1.19,0.23l-1.145,0.396l-1.077,0.557l-0.987,0.703l-0.877,0.837L8.77,16.352l-0.606,1.05l-0.45,1.125l-0.286,1.178l-0.116,1.207l0.058,1.211l0.229,1.19L7.993,24.459"  stroke="#FFFFFF"/>
                        </g>
                        <g >
                            <title >polygon</title>
                            <path stroke-width="0.576" fill="none" stroke-linecap="round" d="M7.993,24.459l-0.902-0.495l-0.815-0.627l-0.711-0.744l-0.588-0.844l-0.453-0.924l-0.306-0.982l-0.151-1.018l0.005-1.028l0.162-1.017l0.316-0.979l0.462-0.92l0.565-0.859l0.689-0.764l0.799-0.648l0.889-0.519l0.957-0.377l1.004-0.227l1.026-0.07l1.024,0.087l1,0.243l0.951,0.394l0.879,0.534l-1.19,0.23l-1.145,0.396l-1.077,0.557l-0.987,0.703l-0.877,0.837L8.77,16.352l-0.606,1.05l-0.45,1.125l-0.286,1.178l-0.116,1.207l0.058,1.211l0.229,1.19L7.993,24.459"  stroke="#FFFFFF"/>
                        </g>
                    </g>
                </g>
                <g >
                    <title >element:VIBE1</title>
                    <g >
                        <title >package:PETAL-NOHOLE-2SIDE</title>
                        <g >
                            <title >polygon</title>
                            <path stroke-width="0.576" fill="none" stroke-linecap="round" d="M7.993,32.234l-0.902,0.495l-0.815,0.627L5.564,34.1l-0.588,0.844l-0.453,0.924L4.218,36.85l-0.151,1.018l0.005,1.028l0.162,1.017l0.316,0.979l0.462,0.92l0.565,0.859l0.689,0.764l0.799,0.648l0.889,0.519l0.957,0.378l1.004,0.226l1.026,0.07l1.024-0.087l1-0.243l0.951-0.394l0.879-0.534l-1.19-0.23l-1.145-0.396l-1.077-0.557l-0.987-0.703l-0.877-0.837L8.77,40.341l-0.606-1.05l-0.45-1.125l-0.286-1.178l-0.116-1.207l0.058-1.211l0.229-1.19L7.993,32.234"  stroke="#FFFFFF"/>
                        </g>
                        <g >
                            <title >polygon</title>
                            <path stroke-width="0.576" fill="none" stroke-linecap="round" d="M7.993,32.234l-0.902,0.495l-0.815,0.627L5.564,34.1l-0.588,0.844l-0.453,0.924L4.218,36.85l-0.151,1.018l0.005,1.028l0.162,1.017l0.316,0.979l0.462,0.92l0.565,0.859l0.689,0.764l0.799,0.648l0.889,0.519l0.957,0.378l1.004,0.226l1.026,0.07l1.024-0.087l1-0.243l0.951-0.394l0.879-0.534l-1.19-0.23l-1.145-0.396l-1.077-0.557l-0.987-0.703l-0.877-0.837L8.77,40.341l-0.606-1.05l-0.45-1.125l-0.286-1.178l-0.116-1.207l0.058-1.211l0.229-1.19L7.993,32.234"  stroke="#FFFFFF"/>
                        </g>
                        <g >
                            <title >polygon</title>
                            <path stroke-width="0.576" fill="none" stroke-linecap="round" d="M14.796,44.017l-0.879,0.534l-0.951,0.394l-1,0.243l-1.024,0.087l-1.026-0.07l-1.004-0.226l-0.957-0.378l-0.889-0.519l-0.799-0.648l-0.689-0.764l-0.565-0.859l-0.462-0.92l-0.316-0.979l-0.162-1.017l-0.005-1.028l0.151-1.018l0.306-0.982l0.453-0.924L5.564,34.1l0.711-0.744l0.815-0.627l0.902-0.495L7.597,33.38l-0.229,1.19l-0.058,1.211l0.116,1.207l0.286,1.178l0.45,1.125l0.606,1.05l0.749,0.953l0.877,0.837l0.987,0.703l1.077,0.557l1.145,0.396L14.796,44.017"  stroke="#FFFFFF"/>
                        </g>
                        <g >
                            <title >polygon</title>
                            <path stroke-width="0.576" fill="none" stroke-linecap="round" d="M14.796,44.017l-0.879,0.534l-0.951,0.394l-1,0.243l-1.024,0.087l-1.026-0.07l-1.004-0.226l-0.957-0.378l-0.889-0.519l-0.799-0.648l-0.689-0.764l-0.565-0.859l-0.462-0.92l-0.316-0.979l-0.162-1.017l-0.005-1.028l0.151-1.018l0.306-0.982l0.453-0.924L5.564,34.1l0.711-0.744l0.815-0.627l0.902-0.495L7.597,33.38l-0.229,1.19l-0.058,1.211l0.116,1.207l0.286,1.178l0.45,1.125l0.606,1.05l0.749,0.953l0.877,0.837l0.987,0.703l1.077,0.557l1.145,0.396L14.796,44.017"  stroke="#FFFFFF"/>
                        </g>
                    </g>
                </g>
                <g >
                    <title >element:VIBE3</title>
                    <g >
                        <title >package:PETAL-NOHOLE-2SIDE</title>
                        <g >
                            <title >polygon</title>
                            <path stroke-width="0.576" fill="none" stroke-linecap="round" d="M41.897,44.358l0.879,0.533l0.951,0.394l1,0.243l1.024,0.087l1.027-0.069l1.003-0.227l0.957-0.377l0.889-0.52l0.799-0.648l0.689-0.764l0.565-0.859l0.462-0.919l0.316-0.979l0.162-1.016l0.005-1.029l-0.151-1.018l-0.306-0.982l-0.453-0.924l-0.588-0.844l-0.711-0.744l-0.815-0.627L48.7,32.575l0.396,1.146l0.229,1.19l0.058,1.211l-0.116,1.206l-0.286,1.178l-0.45,1.126l-0.606,1.05l-0.749,0.952l-0.877,0.837l-0.987,0.704l-1.077,0.556l-1.145,0.397L41.897,44.358"  stroke="#FFFFFF"/>
                        </g>
                        <g >
                            <title >polygon</title>
                            <path stroke-width="0.576" fill="none" stroke-linecap="round" d="M41.897,44.358l0.879,0.533l0.951,0.394l1,0.243l1.024,0.087l1.027-0.069l1.003-0.227l0.957-0.377l0.889-0.52l0.799-0.648l0.689-0.764l0.565-0.859l0.462-0.919l0.316-0.979l0.162-1.016l0.005-1.029l-0.151-1.018l-0.306-0.982l-0.453-0.924l-0.588-0.844l-0.711-0.744l-0.815-0.627L48.7,32.575l0.396,1.146l0.229,1.19l0.058,1.211l-0.116,1.206l-0.286,1.178l-0.45,1.126l-0.606,1.05l-0.749,0.952l-0.877,0.837l-0.987,0.704l-1.077,0.556l-1.145,0.397L41.897,44.358"  stroke="#FFFFFF"/>
                        </g>
                        <g >
                            <title >polygon</title>
                            <path stroke-width="0.576" fill="none" stroke-linecap="round" d="M48.7,32.575l0.902,0.494l0.815,0.627l0.711,0.744l0.588,0.844l0.453,0.924l0.306,0.982l0.151,1.018l-0.005,1.029l-0.162,1.016l-0.316,0.979l-0.462,0.919l-0.565,0.859l-0.689,0.764l-0.799,0.648l-0.889,0.52l-0.957,0.377l-1.003,0.227l-1.027,0.069l-1.024-0.087l-1-0.243l-0.951-0.394l-0.879-0.533l1.19-0.23l1.145-0.397l1.077-0.556l0.987-0.704l0.877-0.837l0.749-0.952l0.606-1.05l0.45-1.126l0.286-1.178l0.116-1.206l-0.058-1.211l-0.229-1.19L48.7,32.575"  stroke="#FFFFFF"/>
                        </g>
                        <g >
                            <title >polygon</title>
                            <path stroke-width="0.576" fill="none" stroke-linecap="round" d="M48.7,32.575l0.902,0.494l0.815,0.627l0.711,0.744l0.588,0.844l0.453,0.924l0.306,0.982l0.151,1.018l-0.005,1.029l-0.162,1.016l-0.316,0.979l-0.462,0.919l-0.565,0.859l-0.689,0.764l-0.799,0.648l-0.889,0.52l-0.957,0.377l-1.003,0.227l-1.027,0.069l-1.024-0.087l-1-0.243l-0.951-0.394l-0.879-0.533l1.19-0.23l1.145-0.397l1.077-0.556l0.987-0.704l0.877-0.837l0.749-0.952l0.606-1.05l0.45-1.126l0.286-1.178l0.116-1.206l-0.058-1.211l-0.229-1.19L48.7,32.575"  stroke="#FFFFFF"/>
                        </g>
                    </g>
                </g>
                <g >
                    <title >element:VIBE4</title>
                    <g >
                        <title >package:PETAL-NOHOLE-2SIDE</title>
                        <g >
                            <title >polygon</title>
                            <path stroke-width="0.576" fill="none" stroke-linecap="round" d="M35.149,8.787l0.023-1.028l-0.136-1.02l-0.289-0.987L34.311,4.82l-0.574-0.854L33.04,3.211L32.234,2.57l-0.894-0.51L30.38,1.693l-1.006-0.216l-1.027-0.06l-1.027,0.06l-1.006,0.216L25.352,2.06l-0.894,0.51l-0.806,0.641l-0.697,0.756L22.382,4.82l-0.437,0.932l-0.289,0.987l-0.136,1.02l0.023,1.028l0.794-0.915l0.917-0.793l1.02-0.655l1.104-0.503l1.163-0.341l1.199-0.173h1.213l1.199,0.173l1.163,0.341l1.104,0.503l1.02,0.655l0.917,0.793L35.149,8.787"  stroke="#FFFFFF"/>
                        </g>
                        <g >
                            <title >polygon</title>
                            <path stroke-width="0.576" fill="none" stroke-linecap="round" d="M35.149,8.787l0.023-1.028l-0.136-1.02l-0.289-0.987L34.311,4.82l-0.574-0.854L33.04,3.211L32.234,2.57l-0.894-0.51L30.38,1.693l-1.006-0.216l-1.027-0.06l-1.027,0.06l-1.006,0.216L25.352,2.06l-0.894,0.51l-0.806,0.641l-0.697,0.756L22.382,4.82l-0.437,0.932l-0.289,0.987l-0.136,1.02l0.023,1.028l0.794-0.915l0.917-0.793l1.02-0.655l1.104-0.503l1.163-0.341l1.199-0.173h1.213l1.199,0.173l1.163,0.341l1.104,0.503l1.02,0.655l0.917,0.793L35.149,8.787"  stroke="#FFFFFF"/>
                        </g>
                        <g >
                            <title >polygon</title>
                            <path stroke-width="0.576" fill="none" stroke-linecap="round" d="M21.544,8.787L21.52,7.759l0.136-1.02l0.289-0.987l0.437-0.932l0.574-0.854l0.697-0.756l0.806-0.641l0.894-0.51l0.961-0.367l1.006-0.216l1.027-0.06l1.027,0.06l1.006,0.216l0.961,0.367l0.894,0.51l0.806,0.641l0.697,0.756l0.574,0.854l0.437,0.932l0.289,0.987l0.136,1.02l-0.023,1.028l-0.794-0.915l-0.917-0.793l-1.02-0.655l-1.104-0.503L30.152,5.58l-1.199-0.173H27.74L26.541,5.58l-1.163,0.341l-1.104,0.503l-1.02,0.655l-0.917,0.793L21.544,8.787"  stroke="#FFFFFF"/>
                        </g>
                        <g >
                            <title >polygon</title>
                            <path stroke-width="0.576" fill="none" stroke-linecap="round" d="M21.544,8.787L21.52,7.759l0.136-1.02l0.289-0.987l0.437-0.932l0.574-0.854l0.697-0.756l0.806-0.641l0.894-0.51l0.961-0.367l1.006-0.216l1.027-0.06l1.027,0.06l1.006,0.216l0.961,0.367l0.894,0.51l0.806,0.641l0.697,0.756l0.574,0.854l0.437,0.932l0.289,0.987l0.136,1.02l-0.023,1.028l-0.794-0.915l-0.917-0.793l-1.02-0.655l-1.104-0.503L30.152,5.58l-1.199-0.173H27.74L26.541,5.58l-1.163,0.341l-1.104,0.503l-1.02,0.655l-0.917,0.793L21.544,8.787"  stroke="#FFFFFF"/>
                        </g>
                    </g>
                </g>
                <g transform="translate(432.866,10.5507)" >
                    <g >
                        <g id="breadboard_2_"  gorn="0.1.0.1.23.0.0">
                            <circle r="14.053" fill="#CCCCCC"  cx="-404.365" cy="14.921"/>
                            <path opacity="0.2" d="M-390.311,15.371c0-7.762-6.292-14.056-14.055-14.056c-7.76,0-14.052,6.294-14.052,14.056v-0.45c0-7.761,6.292-14.054,14.052-14.054c7.763,0,14.055,6.292,14.055,14.054V15.371z"  enable-background="new    "/>
                            <rect width="28.108" height="4.771" fill="#CCCCCC"  x="-418.419" y="12.031"/>
                            <circle r="14.053" fill="#E6E6E6"  cx="-404.365" cy="16.031"/>
                            <path opacity="0.3" fill="#FFFFFF" d="M-390.311,15.542c0,7.76-6.292,14.051-14.055,14.051s-14.054-6.291-14.054-14.051v0.489c0,7.761,6.291,14.053,14.054,14.053s14.055-6.292,14.055-14.053V15.542z"  enable-background="new    "/>
                            <path opacity="0.3" fill="#FFFFFF" d="M-418.419,16.518c0-7.76,6.291-14.053,14.054-14.053s14.055,6.293,14.055,14.053v-0.487c0-7.763-6.292-14.055-14.055-14.055s-14.052,6.292-14.052,14.055v0.487H-418.419z"  enable-background="new    "/>
                            <circle r="0.793" fill="#CCCCCC"  cx="-404.385" cy="16.011"/>
                        </g>
                    </g>
                </g>
                <g transform="translate(31.7326,44.547)" >
                    <g id="g3815"  gorn="0.1.0.1.24.0">
                        <g id="_x30_402-res_1_"  gorn="0.1.0.1.24.0.0">
                            <g transform="translate(10.275,83.3789)" >
                                <g id="g3808"  gorn="0.1.0.1.24.0.0.0.0">
                                    <g id="_x30_402-res_2_"  gorn="0.1.0.1.24.0.0.0.0.0">
                                        <g transform="rotate(90,2.835,1.2755)" >
                                            <g id="g3805"  gorn="0.1.0.1.24.0.0.0.0.0.0.0">
                                                <g id="g3803"  gorn="0.1.0.1.24.0.0.0.0.0.0.0.0">
                                                    <g id="g3801"  gorn="0.1.0.1.24.0.0.0.0.0.0.0.0.0">
                                                        <g id="g3775"  gorn="0.1.0.1.24.0.0.0.0.0.0.0.0.0.0">
                                                            <g transform="rotate(89.999852,-79.69147,13.095264)" >
                                                                <g id="g3769"  gorn="0.1.0.1.24.0.0.0.0.0.0.0.0.0.0.0.0">
                                                                    <g transform="matrix(-0.524 0.8517 -0.8517 -0.524 -118.5497 110.6423)" >
                                                                        <rect width="5.699" height="2.601" id="rect3767" fill="#333333"  x="-93.044" y="20.892" gorn="0.1.0.1.24.0.0.0.0.0.0.0.0.0.0.0.0.0.0"/>
                                                                    </g>
                                                                </g>
                                                            </g>
                                                            <g transform="rotate(89.999852,-80.959071,13.095362)" >
                                                                <g id="g3773"  gorn="0.1.0.1.24.0.0.0.0.0.0.0.0.0.0.1.0">
                                                                    <path opacity="0.2" id="polygon3771" d="M-94.017,22.661l2.984-4.854L-94.017,22.661z"  enable-background="new    " gorn="0.1.0.1.24.0.0.0.0.0.0.0.0.0.0.1.0.0"/>
                                                                </g>
                                                            </g>
                                                        </g>
                                                        <g id="g3799"  gorn="0.1.0.1.24.0.0.0.0.0.0.0.0.0.1">
                                                            <path id="path3777" fill="#CCCCCC" d="M-91.14,2.668L-91.14,2.668L-91.14,2.668L-91.14,2.668L-91.14,2.668c0.189-0.117,0.59-0.578,0.693-0.748c0.104-0.17,0.732-1.191,0.753-1.416l-0.767-0.471l-1.361,2.215L-91.14,2.668z"  gorn="0.1.0.1.24.0.0.0.0.0.0.0.0.0.1.0"/>
                                                            <path id="path3779" fill="#CCCCCC" d="M-87.681,4.678L-87.681,4.678l0.714,0.557l1.362-2.213l-0.767-0.473c-0.19,0.117-0.662,0.885-0.767,1.055C-87.326,3.723-87.661,4.453-87.681,4.678z"  gorn="0.1.0.1.24.0.0.0.0.0.0.0.0.0.1.1"/>
                                                            <g transform="rotate(89.999852,-80.954818,10.703309)" >
                                                                <g id="g3783"  gorn="0.1.0.1.24.0.0.0.0.0.0.0.0.0.1.2.0">
                                                                    <path opacity="0.15" id="polygon3781" d="M-89.099,16.196l0.473-0.768L-89.099,16.196z"  enable-background="new    " gorn="0.1.0.1.24.0.0.0.0.0.0.0.0.0.1.2.0.0"/>
                                                                </g>
                                                            </g>
                                                            <g transform="rotate(89.999852,-78.427665,10.703063)" >
                                                                <g id="g3787"  gorn="0.1.0.1.24.0.0.0.0.0.0.0.0.0.1.3.0">
                                                                    <path opacity="0.5" id="polygon3785" fill="#FFFFFF" d="M-84.404,20.023l0.471-0.768L-84.404,20.023z"  enable-background="new    " gorn="0.1.0.1.24.0.0.0.0.0.0.0.0.0.1.3.0.0"/>
                                                                </g>
                                                            </g>
                                                            <g transform="rotate(89.999852,-80.954124,15.486516)" >
                                                                <g id="g3791"  gorn="0.1.0.1.24.0.0.0.0.0.0.0.0.0.1.4.0">
                                                                    <path opacity="0.15" id="polygon3789" d="M-96.4,25.043l0.471-0.765L-96.4,25.043z"  enable-background="new    " gorn="0.1.0.1.24.0.0.0.0.0.0.0.0.0.1.4.0.0"/>
                                                                </g>
                                                            </g>
                                                            <g transform="rotate(89.999852,-78.426971,15.487169)" >
                                                                <g id="g3795"  gorn="0.1.0.1.24.0.0.0.0.0.0.0.0.0.1.5.0">
                                                                    <path opacity="0.5" id="polygon3793" fill="#FFFFFF" d="M-91.707,28.874l0.473-0.766L-91.707,28.874z"  enable-background="new    " gorn="0.1.0.1.24.0.0.0.0.0.0.0.0.0.1.5.0.0"/>
                                                                </g>
                                                            </g>
                                                            <line id="line3797" fill="none"  y1="2.705" y2="2.705" x1="-86.114" x2="-86.114" gorn="0.1.0.1.24.0.0.0.0.0.0.0.0.0.1.6"/>
                                                        </g>
                                                    </g>
                                                </g>
                                            </g>
                                        </g>
                                    </g>
                                </g>
                            </g>
                            <g transform="matrix(3.2654399e-6,1,-1.2641616,2.5830873e-6,-32.733209,0.28710001)" >
                                <g id="g1265"  gorn="0.1.0.1.24.0.0.1.0">
                                    <g id="_x30_.1.2.0.0.8_3_"  gorn="0.1.0.1.24.0.0.1.0.0">
                                        <g transform="matrix(0.8088 -0.5881 0.5881 0.8088 5.3854 -6.7313)" >
                                            <rect width="7.177" height="3.64" id="_x30_.1.2.0.0.8.0_3_" fill="#303030"  x="-11.247" y="-13.468" gorn="0.1.0.1.24.0.0.1.0.0.0.0"/>
                                        </g>
                                    </g>
                                </g>
                            </g>
                        </g>
                    </g>
                </g>
            </g>
            <circle stroke-width="1.44" r="3.838" id="connector6pin" fill="none"  cx="46.771" cy="17.376" stroke="#9A916C" gorn="0.1.0.2"/>
            <circle stroke-width="1.44" r="3.838" id="connector7pin" fill="none"  cx="9.922" cy="17.717" stroke="#9A916C" gorn="0.1.0.3"/>
        </g>
    </g>
</svg>
