<?xml version='1.0' encoding='UTF-8' standalone='no'?>
<!-- Created with Fritzing (http://www.fritzing.org/) -->
<svg xmlns="http://www.w3.org/2000/svg" x="0in" width="1.6in" viewBox="0 0 115.2 64.8" y="0in"  gorn="0" version="1.2" height="0.9in" id="svg2">
    <desc >
        <referenceFile >Serial-7-Segment-Display-Green_breadboard.svg</referenceFile>
    </desc>
    <metadata  id="metadata1077">
        <rdf:RDF xmlns:rdf="http://www.w3.org/1999/02/22-rdf-syntax-ns#">
            <cc:Work xmlns:rdf="http://www.w3.org/1999/02/22-rdf-syntax-ns#" xmlns:cc="http://creativecommons.org/ns#" rdf:about="">
                <dc:format xmlns:dc="http://purl.org/dc/elements/1.1/">image/svg+xml</dc:format>
                <dc:type xmlns:rdf="http://www.w3.org/1999/02/22-rdf-syntax-ns#" rdf:resource="http://purl.org/dc/dcmitype/StillImage" xmlns:dc="http://purl.org/dc/elements/1.1/"/>
                <dc:title xmlns:dc="http://purl.org/dc/elements/1.1/"/>
            </cc:Work>
        </rdf:RDF>
    </metadata>
    <defs  id="defs1075"/>
    <desc  id="desc4">Fritzing breadboard generated by brd2svg</desc>
    <path d="m 115.56,0 -115.2,0 0,64.8 115.2,0 0,-64.8 m -9.72,57.6 a 4.68,4.68 0 1 1 -9.36,0 4.68,4.68 0 1 1 9.36,0 z m 0,-50.4 a 4.68,4.68 0 1 1 -9.36,0 4.68,4.68 0 1 1 9.36,0 z m -86.4,50.4 a 4.68,4.68 0 0 1 -9.36,0 4.68,4.68 0 1 1 9.36,0 z m 0,-50.4 a 4.68,4.68 0 0 1 -9.36,0 4.68,4.68 0 1 1 9.36,0 z M 5.4,3.6 a 1.44,1.44 0 1 1 -2.88,0 1.44,1.44 0 1 1 2.88,0 z m 0,7.2 a 1.44,1.44 0 1 1 -2.88,0 1.44,1.44 0 1 1 2.88,0 z m 108,50.4 a 1.44,1.44 0 0 1 -2.88,0 1.44,1.44 0 1 1 2.88,0 z m 0,-7.2 a 1.44,1.44 0 0 1 -2.88,0 1.44,1.44 0 1 1 2.88,0 z m 0,-50.4 a 1.44,1.44 0 0 1 -2.88,0 1.44,1.44 0 1 1 2.88,0 z m 0,7.2 a 1.44,1.44 0 0 1 -2.88,0 1.44,1.44 0 1 1 2.88,0 z M 5.4,61.2 a 1.44,1.44 0 1 1 -2.88,0 1.44,1.44 0 1 1 2.88,0 z m 0,-7.2 a 1.44,1.44 0 1 1 -2.88,0 1.44,1.44 0 1 1 2.88,0 z m 0,-7.2 a 1.44,1.44 0 1 1 -2.88,0 1.44,1.44 0 1 1 2.88,0 z m 0,-7.2 a 1.44,1.44 0 1 1 -2.88,0 1.44,1.44 0 1 1 2.88,0 z m 0,-7.2 a 1.44,1.44 0 1 1 -2.88,0 1.44,1.44 0 1 1 2.88,0 z m 0,-7.2 a 1.44,1.44 0 1 1 -2.88,0 1.44,1.44 0 1 1 2.88,0 z M 5.4,18 A 1.44,1.44 0 1 1 2.52,18 1.44,1.44 0 1 1 5.4,18 z M 27,3.6 a 1.44,1.44 0 1 1 -2.88,0 1.44,1.44 0 1 1 2.88,0 z m 7.2,0 a 1.44,1.44 0 1 1 -2.88,0 1.44,1.44 0 1 1 2.88,0 z m 7.2,0 a 1.44,1.44 0 1 1 -2.88,0 1.44,1.44 0 1 1 2.88,0 z m 7.2,0 a 1.44,1.44 0 1 1 -2.88,0 1.44,1.44 0 1 1 2.88,0 z m 7.2,0 a 1.44,1.44 0 0 1 -2.88,0 1.44,1.44 0 1 1 2.88,0 z m 7.2,0 a 1.44,1.44 0 0 1 -2.88,0 1.44,1.44 0 1 1 2.88,0 z m 7.2,0 a 1.44,1.44 0 0 1 -2.88,0 1.44,1.44 0 1 1 2.88,0 z m 7.2,0 a 1.44,1.44 0 0 1 -2.88,0 1.44,1.44 0 1 1 2.88,0 z m 7.2,0 a 1.44,1.44 0 1 1 -2.88,0 1.44,1.44 0 1 1 2.88,0 z m 7.2,0 a 1.44,1.44 0 1 1 -2.88,0 1.44,1.44 0 1 1 2.88,0 z"  stroke="none" gorn="0.4" fill="#e6321e" id="path8"/>
    <line style="stroke-linecap:round" stroke-width="0.72000003" y1="16.559999" y2="55.439999" x1="7.5599999" x2="7.5599999"  stroke="#ffffff" gorn="0.5" id="line14"/>
    <line style="stroke-linecap:round" stroke-width="0.72000003" y1="55.439999" y2="57.599998" x1="7.5599999" x2="5.3999963"  stroke="#ffffff" gorn="0.6" id="line16"/>
    <line style="stroke-linecap:round" stroke-width="0.72000003" y1="57.599998" y2="57.599998" x1="5.3999963" x2="0.36000305"  stroke="#ffffff" gorn="0.7" id="line18"/>
    <line style="stroke-linecap:round" stroke-width="0.72000003" y1="14.4" y2="16.559999" x1="5.3999963" x2="7.5599999"  stroke="#ffffff" gorn="0.8" id="line20"/>
    <line style="stroke-linecap:round" stroke-width="0.72000003" y1="14.4" y2="14.4" x1="5.3999963" x2="0.36000305"  stroke="#ffffff" gorn="0.9" id="line22"/>
    <line style="stroke-linecap:round" stroke-width="0.57599998" y1="59.759998" y2="62.639999" x1="106.92" x2="106.92"  stroke="#ffffff" gorn="0.10" id="line24"/>
    <line style="stroke-linecap:round" stroke-width="0.57599998" y1="61.200001" y2="61.200001" x1="108.36" x2="105.48"  stroke="#ffffff" gorn="0.11" id="line26"/>
    <line style="stroke-linecap:round" stroke-width="0.57599998" y1="52.560001" y2="55.439999" x1="106.92" x2="106.92"  stroke="#ffffff" gorn="0.12" id="line28"/>
    <line style="stroke-linecap:round" stroke-width="0.57599998" y1="59.759998" y2="62.639999" x1="9.0000029" x2="9.0000029"  stroke="#ffffff" gorn="0.13" id="line30"/>
    <line style="stroke-linecap:round" stroke-width="0.57599998" y1="61.200001" y2="61.200001" x1="10.439998" x2="7.5599999"  stroke="#ffffff" gorn="0.14" id="line32"/>
    <line style="stroke-linecap:round" stroke-width="0.57599998" y1="52.560001" y2="55.439999" x1="9.0000029" x2="9.0000029"  stroke="#ffffff" gorn="0.15" id="line34"/>
    <g  transform="translate(-18.853204,0)">
        <g >
            <g  gorn="0.16.0.0" id="g42">
                <title  id="title44">text:VCC</title>
                <g  transform="translate(68.4,6.48)">
                    <g >
                        <g  gorn="0.16.0.0.1.0.0" id="g46">
                            <g  transform="matrix(0,-1,1,0,0,0)">
                                <g >
                                    <g  gorn="0.16.0.0.1.0.0.0.0.0" id="g48">
                                        <text style="text-anchor:end;font-family:OCRA" stroke-width="0.324" x="0" y="0"  stroke="#ffffff" gorn="0.16.0.0.1.0.0.0.0.0.0" font-size="2.448" fill="#ffffff" id="text50">VCC</text>
                                    </g>
                                </g>
                            </g>
                        </g>
                    </g>
                </g>
            </g>
        </g>
    </g>
    <g  transform="translate(-33.253204,0)">
        <g >
            <g  gorn="0.17.0.0" id="g52">
                <title  id="title54">text:GND</title>
                <g  transform="translate(75.6,6.48)">
                    <g >
                        <g  gorn="0.17.0.0.1.0.0" id="g56">
                            <g  transform="matrix(0,-1,1,0,0,0)">
                                <g >
                                    <g  gorn="0.17.0.0.1.0.0.0.0.0" id="g58">
                                        <text style="text-anchor:end;font-family:OCRA" stroke-width="0.324" x="0" y="0"  stroke="#ffffff" gorn="0.17.0.0.1.0.0.0.0.0.0" font-size="2.448" fill="#ffffff" id="text60">GND</text>
                                    </g>
                                </g>
                            </g>
                        </g>
                    </g>
                </g>
            </g>
        </g>
    </g>
    <g  transform="translate(67.546796,0)">
        <g >
            <g  gorn="0.18.0.0" id="g62">
                <title  id="title64">text:RX</title>
                <g  transform="translate(25.2,6.48)">
                    <g >
                        <g  gorn="0.18.0.0.1.0.0" id="g66">
                            <g  transform="matrix(0,-1,1,0,0,0)">
                                <g >
                                    <g  gorn="0.18.0.0.1.0.0.0.0.0" id="g68">
                                        <text style="text-anchor:end;font-family:OCRA" stroke-width="0.324" x="0" y="0"  stroke="#ffffff" gorn="0.18.0.0.1.0.0.0.0.0.0" font-size="2.448" fill="#ffffff" id="text70">RX</text>
                                    </g>
                                </g>
                            </g>
                        </g>
                    </g>
                </g>
            </g>
        </g>
    </g>
    <g  transform="translate(53.146796,0)">
        <g >
            <g  gorn="0.19.0.0" id="g72">
                <title  id="title74">text:!SS</title>
                <g  transform="translate(32.4,6.48)">
                    <g >
                        <g  gorn="0.19.0.0.1.0.0" id="g76">
                            <g  transform="matrix(0,-1,1,0,0,0)">
                                <g >
                                    <g  gorn="0.19.0.0.1.0.0.0.0.0" id="g78">
                                        <text style="text-decoration: overline;text-anchor:end;font-family:OCRA" stroke-width="0.324" text-decoration="overline" x="0" y="0"  stroke="#ffffff" gorn="0.19.0.0.1.0.0.0.0.0.0" font-size="2.448" fill="#ffffff" id="text80">SS</text>
                                    </g>
                                </g>
                            </g>
                        </g>
                    </g>
                </g>
            </g>
        </g>
    </g>
    <g  transform="translate(38.746796,0)">
        <g >
            <g  gorn="0.20.0.0" id="g82">
                <title  id="title84">text:SDI</title>
                <g  transform="translate(39.6,6.48)">
                    <g >
                        <g  gorn="0.20.0.0.1.0.0" id="g86">
                            <g  transform="matrix(0,-1,1,0,0,0)">
                                <g >
                                    <g  gorn="0.20.0.0.1.0.0.0.0.0" id="g88">
                                        <text style="text-anchor:end;font-family:OCRA" stroke-width="0.324" x="0" y="0"  stroke="#ffffff" gorn="0.20.0.0.1.0.0.0.0.0.0" font-size="2.448" fill="#ffffff" id="text90">SDI</text>
                                    </g>
                                </g>
                            </g>
                        </g>
                    </g>
                </g>
            </g>
        </g>
    </g>
    <g  transform="translate(9.9467962,0)">
        <g >
            <g  gorn="0.21.0.0" id="g92">
                <title  id="title94">text:SCK</title>
                <g  transform="translate(54,6.48)">
                    <g >
                        <g  gorn="0.21.0.0.1.0.0" id="g96">
                            <g  transform="matrix(0,-1,1,0,0,0)">
                                <g >
                                    <g  gorn="0.21.0.0.1.0.0.0.0.0" id="g98">
                                        <text style="text-anchor:end;font-family:OCRA" stroke-width="0.324" x="0" y="0"  stroke="#ffffff" gorn="0.21.0.0.1.0.0.0.0.0.0" font-size="2.448" fill="#ffffff" id="text100">SCK</text>
                                    </g>
                                </g>
                            </g>
                        </g>
                    </g>
                </g>
            </g>
        </g>
    </g>
    <g  transform="translate(-93.090123,0)">
        <g >
            <g  gorn="0.22.0.0" id="g102">
                <title  id="title104">text:DTR</title>
                <text style="text-anchor:end;font-family:OCRA" stroke-width="0.324" x="107.64" y="18"  stroke="#ffffff" gorn="0.22.0.0.1" font-size="2.448" fill="#ffffff" id="text106">DTR</text>
            </g>
        </g>
    </g>
    <g  transform="translate(-95.301451,0)">
        <g >
            <g  gorn="0.23.0.0" id="g108">
                <title  id="title110">text:TX</title>
                <text style="text-anchor:end;font-family:OCRA" stroke-width="0.324" x="107.64" y="25.200001"  stroke="#ffffff" gorn="0.23.0.0.1" font-size="2.448" fill="#ffffff" id="text112">TX</text>
            </g>
        </g>
    </g>
    <g  transform="translate(-95.301451,0)">
        <g >
            <g  gorn="0.24.0.0" id="g114">
                <title  id="title116">text:RX</title>
                <text style="text-anchor:end;font-family:OCRA" stroke-width="0.324" x="107.64" y="32.400002"  stroke="#ffffff" gorn="0.24.0.0.1" font-size="2.448" fill="#ffffff" id="text118">RX</text>
            </g>
        </g>
    </g>
    <g  transform="translate(-93.090123,0)">
        <g >
            <g  gorn="0.25.0.0" id="g120">
                <title  id="title122">text:VCC</title>
                <text style="text-anchor:end;font-family:OCRA" stroke-width="0.324" x="107.64" y="39.599998"  stroke="#ffffff" gorn="0.25.0.0.1" font-size="2.448" fill="#ffffff" id="text124">VCC</text>
            </g>
        </g>
    </g>
    <g  transform="translate(-93.090123,0)">
        <g >
            <g  gorn="0.26.0.0" id="g126">
                <title  id="title128">text:GND</title>
                <text style="text-anchor:end;font-family:OCRA" stroke-width="0.324" x="107.64" y="46.799999"  stroke="#ffffff" gorn="0.26.0.0.1" font-size="2.448" fill="#ffffff" id="text130">GND</text>
            </g>
        </g>
    </g>
    <g  transform="translate(100.75975,0.11573073)">
        <g >
            <g  gorn="0.27.0.0" id="g132">
                <title  id="title134">text:SCL</title>
                <g  transform="translate(7.92,10.44)">
                    <g >
                        <g  gorn="0.27.0.0.1.0.0" id="g136">
                            <g  transform="matrix(0,-1,1,0,0,0)">
                                <g >
                                    <g  gorn="0.27.0.0.1.0.0.0.0.0" id="g138">
                                        <text style="text-anchor:middle;font-family:OCRA" stroke-width="0.27000001" x="0" y="0"  stroke="#ffffff" gorn="0.27.0.0.1.0.0.0.0.0.0" font-size="2.016" fill="#ffffff" id="text140">SCL</text>
                                    </g>
                                </g>
                            </g>
                        </g>
                    </g>
                </g>
            </g>
        </g>
    </g>
    <g  transform="translate(100.87548,0)">
        <g >
            <g  gorn="0.28.0.0" id="g142">
                <title  id="title144">text:SDA</title>
                <g  transform="translate(7.92,3.6)">
                    <g >
                        <g  gorn="0.28.0.0.1.0.0" id="g146">
                            <g  transform="matrix(0,-1,1,0,0,0)">
                                <g >
                                    <g  gorn="0.28.0.0.1.0.0.0.0.0" id="g148">
                                        <text style="text-anchor:middle;font-family:OCRA" stroke-width="0.27000001" x="0" y="0"  stroke="#ffffff" gorn="0.28.0.0.1.0.0.0.0.0.0" font-size="2.016" fill="#ffffff" id="text150">SDA</text>
                                    </g>
                                </g>
                            </g>
                        </g>
                    </g>
                </g>
            </g>
        </g>
    </g>
    <g  transform="translate(-98.07598,0.3471922)">
        <g >
            <g  gorn="0.29.0.0" id="g152">
                <title  id="title154">text:SCL</title>
                <g  transform="translate(107.28,10.44)">
                    <g >
                        <g  gorn="0.29.0.0.1.0.0" id="g156">
                            <g  transform="matrix(0,-1,1,0,0,0)">
                                <g >
                                    <g  gorn="0.29.0.0.1.0.0.0.0.0" id="g158">
                                        <text style="text-anchor:middle;font-family:OCRA" stroke-width="0.27000001" x="0" y="0"  stroke="#ffffff" gorn="0.29.0.0.1.0.0.0.0.0.0" font-size="2.016" fill="#ffffff" id="text160">SCL</text>
                                    </g>
                                </g>
                            </g>
                        </g>
                    </g>
                </g>
            </g>
        </g>
    </g>
    <g  transform="translate(-98.19171,0)">
        <g >
            <g  gorn="0.30.0.0" id="g162">
                <title  id="title164">text:SDA</title>
                <g  transform="translate(107.28,3.6)">
                    <g >
                        <g  gorn="0.30.0.0.1.0.0" id="g166">
                            <g  transform="matrix(0,-1,1,0,0,0)">
                                <g >
                                    <g  gorn="0.30.0.0.1.0.0.0.0.0" id="g168">
                                        <text style="text-anchor:middle;font-family:OCRA" stroke-width="0.27000001" x="0" y="0"  stroke="#ffffff" gorn="0.30.0.0.1.0.0.0.0.0.0" font-size="2.016" fill="#ffffff" id="text170">SDA</text>
                                    </g>
                                </g>
                            </g>
                        </g>
                    </g>
                </g>
            </g>
        </g>
    </g>
    <g  transform="translate(-47.653204,0)">
        <g >
            <g  gorn="0.31.0.0" id="g172">
                <title  id="title174">text:A6</title>
                <g  transform="translate(82.8,6.48)">
                    <g >
                        <g  gorn="0.31.0.0.1.0.0" id="g176">
                            <g  transform="matrix(0,-1,1,0,0,0)">
                                <g >
                                    <g  gorn="0.31.0.0.1.0.0.0.0.0" id="g178">
                                        <text style="text-anchor:end;font-family:OCRA" stroke-width="0.324" x="0" y="0"  stroke="#ffffff" gorn="0.31.0.0.1.0.0.0.0.0.0" font-size="2.448" fill="#ffffff" id="text180">A6</text>
                                    </g>
                                </g>
                            </g>
                        </g>
                    </g>
                </g>
            </g>
        </g>
    </g>
    <g  transform="translate(-4.4532038,0)">
        <g >
            <g  gorn="0.32.0.0" id="g182">
                <title  id="title184">text:SDO</title>
                <g  transform="translate(61.2,6.48)">
                    <g >
                        <g  gorn="0.32.0.0.1.0.0" id="g186">
                            <g  transform="matrix(0,-1,1,0,0,0)">
                                <g >
                                    <g  gorn="0.32.0.0.1.0.0.0.0.0" id="g188">
                                        <text style="text-anchor:end;font-family:OCRA" stroke-width="0.324" x="0" y="0"  stroke="#ffffff" gorn="0.32.0.0.1.0.0.0.0.0.0" font-size="2.448" fill="#ffffff" id="text190">SDO</text>
                                    </g>
                                </g>
                            </g>
                        </g>
                    </g>
                </g>
            </g>
        </g>
    </g>
    <g  transform="translate(-62.053204,0)">
        <g >
            <g  gorn="0.33.0.0" id="g192">
                <title  id="title194">text:A7</title>
                <g  transform="translate(90,6.48)">
                    <g >
                        <g  gorn="0.33.0.0.1.0.0" id="g196">
                            <g  transform="matrix(0,-1,1,0,0,0)">
                                <g >
                                    <g  gorn="0.33.0.0.1.0.0.0.0.0" id="g198">
                                        <text style="text-anchor:end;font-family:OCRA" stroke-width="0.324" x="0" y="0"  stroke="#ffffff" gorn="0.33.0.0.1.0.0.0.0.0.0" font-size="2.448" fill="#ffffff" id="text200">A7</text>
                                    </g>
                                </g>
                            </g>
                        </g>
                    </g>
                </g>
            </g>
        </g>
    </g>
    <g  transform="translate(24.346796,0)">
        <g >
            <g  gorn="0.34.0.0" id="g202">
                <title  id="title204">text:RST</title>
                <g  transform="translate(46.8,6.48)">
                    <g >
                        <g  gorn="0.34.0.0.1.0.0" id="g206">
                            <g  transform="matrix(0,-1,1,0,0,0)">
                                <g >
                                    <g  gorn="0.34.0.0.1.0.0.0.0.0" id="g208">
                                        <text style="text-anchor:end;font-family:OCRA" stroke-width="0.324" x="0" y="0"  stroke="#ffffff" gorn="0.34.0.0.1.0.0.0.0.0.0" font-size="2.448" fill="#ffffff" id="text210">RST</text>
                                    </g>
                                </g>
                            </g>
                        </g>
                    </g>
                </g>
            </g>
        </g>
    </g>
    <g  transform="matrix(-1,0,0,1,115.56,0)">
        <g >
            <g  gorn="0.35.0.0" id="g262">
                <title  id="title264">element:JP1</title>
                <g  gorn="0.35.0.0.1" id="g266">
                    <title  id="title268">package:STAND-OFF</title>
                </g>
            </g>
        </g>
    </g>
    <g  transform="matrix(-1,0,0,1,115.56,0)">
        <g >
            <g  gorn="0.36.0.0" id="g270">
                <title  id="title272">element:JP2</title>
                <g  gorn="0.36.0.0.1" id="g274">
                    <title  id="title276">package:1X02_NO_SILK</title>
                </g>
            </g>
        </g>
    </g>
    <g  transform="matrix(-1,0,0,1,115.56,0)">
        <g >
            <g  gorn="0.37.0.0" id="g278">
                <title  id="title280">element:JP3</title>
                <g  gorn="0.37.0.0.1" id="g282">
                    <title  id="title284">package:STAND-OFF</title>
                </g>
            </g>
        </g>
    </g>
    <g  transform="matrix(-1,0,0,1,115.56,0)">
        <g >
            <g  gorn="0.38.0.0" id="g286">
                <title  id="title288">element:JP4</title>
                <g  gorn="0.38.0.0.1" id="g290">
                    <title  id="title292">package:STAND-OFF</title>
                </g>
            </g>
        </g>
    </g>
    <g  transform="matrix(-1,0,0,1,115.56,0)">
        <g >
            <g  gorn="0.39.0.0" id="g294">
                <title  id="title296">element:JP5</title>
                <g  gorn="0.39.0.0.1" id="g298">
                    <title  id="title300">package:STAND-OFF</title>
                </g>
            </g>
        </g>
    </g>
    <g  transform="matrix(-1,0,0,1,115.56,0)">
        <g >
            <g  gorn="0.40.0.0" id="g302">
                <title  id="title304">element:JP6</title>
                <g  gorn="0.40.0.0.1" id="g306">
                    <title  id="title308">package:1X02_NO_SILK</title>
                </g>
            </g>
        </g>
    </g>
    <g  transform="matrix(-1,0,0,1,115.56,0)">
        <g >
            <g  gorn="0.41.0.0" id="g310">
                <title  id="title312">element:JP7</title>
                <g  gorn="0.41.0.0.1" id="g314">
                    <title  id="title316">package:1X02_NO_SILK</title>
                </g>
            </g>
        </g>
    </g>
    <g  transform="matrix(-1,0,0,1,115.56,0)">
        <g >
            <g  gorn="0.42.0.0" id="g318">
                <title  id="title320">element:JP8</title>
                <g  gorn="0.42.0.0.1" id="g322">
                    <title  id="title324">package:1X02_NO_SILK</title>
                </g>
            </g>
        </g>
    </g>
    <g  transform="matrix(-1,0,0,1,115.56,0)">
        <g >
            <g  gorn="0.43.0.0" id="g326">
                <title  id="title328">element:JP9</title>
                <g  gorn="0.43.0.0.1" id="g330">
                    <title  id="title332">package:MICRO-FIDUCIAL</title>
                </g>
            </g>
        </g>
    </g>
    <g  transform="matrix(-1,0,0,1,115.56,0)">
        <g >
            <g  gorn="0.44.0.0" id="g334">
                <title  id="title336">element:JP10</title>
                <g  gorn="0.44.0.0.1" id="g338">
                    <title  id="title340">package:MICRO-FIDUCIAL</title>
                </g>
            </g>
        </g>
    </g>
    <g  transform="matrix(-1,0,0,1,115.56,0)">
        <g >
            <g  gorn="0.45.0.0" id="g342">
                <title  id="title344">element:JP11</title>
                <g  gorn="0.45.0.0.1" id="g346">
                    <title  id="title348">package:1X05_NO_SILK</title>
                </g>
            </g>
        </g>
    </g>
    <g  transform="matrix(-1,0,0,1,115.56,0)">
        <g >
            <g  gorn="0.46.0.0" id="g350">
                <title  id="title352">element:JP12</title>
                <g  gorn="0.46.0.0.1" id="g354">
                    <title  id="title356">package:1X10_NO_SILK</title>
                </g>
            </g>
        </g>
    </g>
    <g  transform="matrix(-1,0,0,1,115.56,0)">
        <g >
            <g  gorn="0.47.0.0" id="g358">
                <title  id="title360">element:LED1</title>
                <g  gorn="0.47.0.0.1" id="g362">
                    <title  id="title364">package:7-SEGMENT-4DIGIT-YOUNGSUN</title>
                </g>
            </g>
        </g>
    </g>
    <g  transform="matrix(-1,0,0,1,98.779044,4.9764216)">
        <g >
            <g  gorn="0.48.0.0" id="g456">
                <title  id="title458">element:U$2</title>
                <g  gorn="0.48.0.0.1" id="g460">
                    <title  id="title462">package:SFE-LOGO-FLAME</title>
                    <g  gorn="0.48.0.0.1.1" id="g464">
                        <title  id="title466">polygon</title>
                        <path style="stroke-linecap:round" d="M 73.548,54.3815 73.4112,54.36 m 0,0 -0.2664,-0.0208 m 0,0 -0.2664,0.0208 m 0,0 -0.198,0.0522 m 0,0 -0.1836,0.0909 m 0,0 -0.162,0.126 m 0,0 -0.1332,0.1558 m 0,0 -0.1138,0.2074 m 0,0 -0.0676,0.2264 m 0,0 L 72,55.4545 m 0,0 0,4.2984 m 0,0 1.3824,-1.5554 m 0,0 0.2462,-0.2254 m 0,0 0.2866,-0.1706 m 0,0 0.1058,-0.0381 m 0,0 0.1102,-0.0194 m 0,0 0.648,0 m 0,0 0.3866,-0.0351 m 0,0 0.3737,-0.1044 m 0,0 0.3485,-0.17 m 0,0 0.3283,-0.2317 m 0,0 0.2923,-0.2755 m 0,0 0.2506,-0.3138 m 0,0 0.2686,-0.4764 m 0,0 0.1778,-0.517 m 0,0 0.0821,-0.5407 m 0,0 -0.0173,-0.5465 m 0,0 -0.0583,-0.2947 m 0,0 -0.1015,-0.2829 m 0,0 -0.1426,-0.2648 m 0,0 -0.2563,-0.3224 m 0,0 -0.3197,-0.261 m 0,0 0,0.252 m 0,0 -0.005,0.0411 m 0,0 -0.0166,0.0383 m 0,0 -0.0842,0.1041 m 0,0 -0.1102,0.0759 m 0,0 -0.0576,0.0215 m 0,0 -0.162,0.0174 m 0,0 -0.1606,-0.0296 m 0,0 -0.1454,-0.0743 m 0,0 -0.2592,-0.187 m 0,0 -0.1202,-0.1032 m 0,0 -0.103,-0.1202 m 0,0 -0.0828,-0.1346 m 0,0 -0.0612,-0.146 m 0,0 -0.018,-0.0928 m 0,0 0.0036,-0.0946 m 0,0 0.0475,-0.1561 m 0,0 0.0857,-0.1384 m 0,0 0.1188,-0.1112 m 0,0 0.144,-0.0765 m 0,0 0.1454,-0.0411 m 0,0 0.1498,-0.0167 m 0,0 0.1728,0 m 0,0 0,0 m 0,0 -0.0072,-0.0071 m 0,0 -0.1231,-0.0958 m 0,0 L 75.6,51.9695 m 0,0 -0.1008,-0.043 m 0,0 -0.0648,-0.029 m 0,0 -0.2484,-0.0622 m 0,0 -0.2556,-0.0242 m 0,0 -0.2462,0.0187 m 0,0 -0.2384,0.0657 m 0,0 -0.221,0.11 m 0,0 -0.2203,0.1589 m 0,0 -0.1973,0.1867 m 0,0 -0.1224,0.1711 m 0,0 -0.0756,0.1962 m 0,0 -0.0245,0.2089 m 0,0 0.0281,0.2083 m 0,0 0.0792,0.1949 m 0,0 0.3362,0.4984 m 0,0 0.4126,0.4376 m 0,0 0.1087,0.1273 m 0,0 0.072,0.1512 m 0,0 0.031,0.1646 m 0,0 -0.013,0.1669 m 0,0 -0.0561,0.1579 m 0,0 -0.0944,0.1381 m 0,0 -0.1274,0.109 m 0,0 -0.1598,0.0862 m 0,0 -0.1721,0.0582 m 0,0 -0.1793,0.0286 m 0,0 -0.2095,-0.0105 m 0,0 -0.2009,-0.0612 m 0,0 -0.18,-0.1083 m 0,0 -0.095,-0.1003 m 0,0 -0.0634,-0.1231 m 0,0 -0.0281,-0.1262 m 0,0 0,-0.1292 m 0,0 0.0281,-0.1262 m 0,0 0.0259,-0.0483 m 0,0 0.0389,-0.0381 m 0,0 0.2376,-0.1726 m 0,0 0.0446,-0.0239 m 0,0 0.0497,-0.0099 m 0,0 0.0497,0.0048 M 72,59.688 l 0.0576,0 M 72,59.616 l 0.1217,0 M 72,59.544 l 0.1858,0 M 72,59.472 l 0.2498,0 M 72,59.4 l 0.3139,0 M 72,59.328 l 0.378,0 M 72,59.256 l 0.4421,0 M 72,59.184 l 0.5062,0 M 72,59.112 l 0.5695,0 M 72,59.04 l 0.6336,0 M 72,58.968 l 0.6977,0 M 72,58.896 l 0.7618,0 M 72,58.824 l 0.8258,0 M 72,58.752 l 0.8899,0 M 72,58.68 l 0.954,0 M 72,58.608 l 1.0174,0 M 72,58.536 l 1.0814,0 M 72,58.464 l 1.1455,0 M 72,58.392 l 1.2096,0 M 72,58.32 l 1.2737,0 M 72,58.248 l 1.3378,0 M 72,58.176 l 1.4062,0 M 72,58.104 l 1.4846,0 M 72,58.032 l 1.5631,0 M 72,57.96 l 1.6488,0 M 72,57.888 l 1.7698,0 M 72,57.816 l 1.8907,0 M 72,57.744 l 2.7792,0 M 72,57.672 l 3.2976,0 M 72,57.6 l 3.5489,0 M 72,57.528 l 3.6965,0 M 72,57.456 l 3.8441,0 M 72,57.384 l 3.96,0 M 72,57.312 l 4.0615,0 M 72,57.24 l 4.1638,0 M 72,57.168 l 4.253,0 M 72,57.096 l 4.3294,0 M 72,57.024 l 4.4064,0 M 72,56.952 l 4.4827,0 M 72,56.88 l 4.5468,0 M 72,56.808 l 4.6037,0 M 72,56.736 l 4.6613,0 M 72,56.664 l 4.7189,0 M 72,56.592 l 4.7714,0 M 72,56.52 l 4.8118,0 M 72,56.448 l 4.8528,0 M 72,56.376 l 4.8931,0 M 72,56.304 l 4.9334,0 M 72,56.232 l 4.9745,0 M 72,56.16 l 5.0148,0 M 72,56.088 l 5.0443,0 M 72,56.016 l 5.0695,0 M 72,55.944 l 5.094,0 M 72,55.872 l 5.1192,0 M 72,55.8 l 5.1437,0 M 72,55.728 l 5.1689,0 M 72,55.656 l 5.1934,0 M 72,55.584 l 5.2114,0 M 72,55.512 l 5.2222,0 m -5.2208,-0.072 1.6265,0 m 0.3132,0 3.2919,0 m -5.2258,-0.072 1.4083,0 m 0.7855,0 3.0428,0 m -5.2301,-0.072 1.2823,0 m 1.039,0 2.9196,0 m -5.2352,-0.072 1.1931,0 m 1.2161,0 2.8368,0 m -5.2251,-0.072 1.1131,0 m 1.3493,0 2.7742,0 m -5.215,-0.072 1.0548,0 m 1.4357,0 2.7353,0 m -5.2042,-0.072 1.0087,0 m 1.5005,0 2.6928,0 m -5.1667,-0.072 0.9576,0 m 1.5415,0 2.6655,0 m -5.125,-0.072 0.9151,0 m 1.5667,0 2.6403,0 m -5.0825,-0.072 0.8762,0 m 1.5718,0 2.6323,0 m -5.0213,-0.072 0.8338,0 m 1.5602,0 2.6252,0 m -4.9572,-0.072 0.7941,0 m 1.5279,0 2.633,0 m -4.8708,-0.072 0.7733,0 m 1.4508,0 2.6445,0 m -4.7764,-0.072 0.7797,0 m 1.327,0 2.6625,0 m -4.6245,-0.072 0.7344,0 m 1.193,0 2.6827,0 m -4.3718,-0.072 0.5328,0 m 1.1095,0 2.7151,0 m -2.7763,-0.072 2.7619,0 m -2.8281,-0.072 2.8109,0 m -2.8786,-0.072 2.8526,0 m -2.9203,-0.072 2.8944,0 M 74.1895,54 l 2.9369,0 m -3.0046,-0.072 2.9736,0 m -3.0412,-0.072 3.0031,0 m -3.0593,-0.072 3.0204,0 m -3.0686,-0.072 3.0297,0 m -3.0787,-0.072 1.9613,0 m 0.2563,0 0.81,0 m -3.0758,-0.072 1.8259,0 m 0.5709,0 0.6214,0 m -3.0672,-0.072 1.7669,0 m 0.7538,0 0.4889,0 m -3.0578,-0.072 1.7157,0 m 0.9058,0 0.3787,0 m -3.0485,-0.072 1.6675,0 m 1.0174,0 0.2995,0 m -3.0197,-0.072 1.6186,0 m 1.1016,0 0.2117,0 m -2.9614,-0.072 1.5819,0 m 1.1678,0 0.1238,0 m -2.903,-0.072 1.5509,0 m 1.2283,0 0.0353,0 m -2.8239,-0.072 1.5164,0 m -1.5264,-0.072 1.4846,0 m -1.4926,-0.072 1.4631,0 m -1.4544,-0.072 1.427,0 m -1.4184,-0.072 1.404,0 m -1.3917,-0.072 1.3939,0 m -1.3659,-0.072 1.3796,0 m -1.3522,-0.072 1.3738,0 m -1.3349,-0.072 1.3665,0 m -1.3147,-0.072 1.3601,0 m -1.3061,-0.072 1.3673,0 m -1.2917,-0.072 1.3687,0 M 73.967,52.2 l 1.4256,0 m -1.3377,-0.072 1.8115,0 m -1.7114,-0.072 1.6192,0 m -1.5062,-0.072 1.3651,0 m -1.2204,-0.072 1.0541,0 m -0.8194,-0.072 0.5573,0" stroke-width="0.072"  stroke="#ffffff" gorn="0.48.0.0.1.1.1" fill="none" id="path468"/>
                    </g>
                </g>
            </g>
        </g>
    </g>
    <g  transform="matrix(-1,0,0,1,115.56,0)">
        <g >
            <circle d="m 113.652,3.5999999 c 0,1.1332883 -0.91871,2.0520001 -2.052,2.0520001 -1.13329,0 -2.052,-0.9187118 -2.052,-2.0520001 0,-1.1332883 0.91871,-2.052 2.052,-2.052 1.13329,0 2.052,0.9187117 2.052,2.052 z" stroke-width="1.22399998" cx="111.6" cy="3.5999999"  stroke="#9a916c" gorn="0.49.0.0" r="2.052" fill="none" id="connector38pin" connectorname="SDA"/>
        </g>
    </g>
    <g  transform="matrix(-1,0,0,1,115.56,0)">
        <g >
            <circle d="m 113.652,10.8 c 0,1.133289 -0.91871,2.052 -2.052,2.052 -1.13329,0 -2.052,-0.918711 -2.052,-2.052 0,-1.1332881 0.91871,-2.0519999 2.052,-2.0519999 1.13329,0 2.052,0.9187118 2.052,2.0519999 z" stroke-width="1.22399998" cx="111.6" cy="10.8"  stroke="#9a916c" gorn="0.50.0.0" r="2.052" fill="none" id="connector39pin" connectorname="SCL"/>
        </g>
    </g>
    <g  transform="matrix(-1,0,0,1,115.56,0)">
        <g >
            <circle d="m 5.652,61.200001 c 0,1.133288 -0.9187118,2.052 -2.0520001,2.052 -1.1332883,0 -2.052,-0.918712 -2.052,-2.052 0,-1.133289 0.9187117,-2.052 2.052,-2.052 1.1332883,0 2.0520001,0.918711 2.0520001,2.052 z" stroke-width="1.22399998" cx="3.5999999" cy="61.200001"  stroke="#9a916c" gorn="0.51.0.0" r="2.052" fill="none" id="connector40pin" connectorname="VCC"/>
        </g>
    </g>
    <g  transform="matrix(-1,0,0,1,115.56,0)">
        <g >
            <circle d="m 5.652,54 c 0,1.133288 -0.9187118,2.052 -2.0520001,2.052 -1.1332883,0 -2.052,-0.918712 -2.052,-2.052 0,-1.133288 0.9187117,-2.052 2.052,-2.052 C 4.7332882,51.948 5.652,52.866712 5.652,54 z" stroke-width="1.22399998" cx="3.5999999" cy="54"  stroke="#9a916c" gorn="0.52.0.0" r="2.052" fill="none" id="connector41pin" connectorname="GND"/>
        </g>
    </g>
    <g  transform="matrix(-1,0,0,1,115.56,0)">
        <g >
            <circle d="M 5.652,3.5999999 C 5.652,4.7332882 4.7332882,5.652 3.5999999,5.652 c -1.1332883,0 -2.052,-0.9187118 -2.052,-2.0520001 0,-1.1332883 0.9187117,-2.052 2.052,-2.052 1.1332883,0 2.0520001,0.9187117 2.0520001,2.052 z" stroke-width="1.22399998" cx="3.5999999" cy="3.5999999"  stroke="#9a916c" gorn="0.53.0.0" r="2.052" fill="none" id="connector42pin" connectorname="SDA"/>
        </g>
    </g>
    <g  transform="matrix(-1,0,0,1,115.56,0)">
        <g >
            <circle d="m 5.652,10.8 c 0,1.133289 -0.9187118,2.052 -2.0520001,2.052 -1.1332883,0 -2.052,-0.918711 -2.052,-2.052 0,-1.1332881 0.9187117,-2.0519999 2.052,-2.0519999 C 4.7332882,8.7480001 5.652,9.6667119 5.652,10.8 z" stroke-width="1.22399998" cx="3.5999999" cy="10.8"  stroke="#9a916c" gorn="0.54.0.0" r="2.052" fill="none" id="connector43pin" connectorname="SCL"/>
        </g>
    </g>
    <g  transform="matrix(-1,0,0,1,115.56,0)">
        <g >
            <circle d="m 113.652,61.200001 c 0,1.133288 -0.91871,2.052 -2.052,2.052 -1.13329,0 -2.052,-0.918712 -2.052,-2.052 0,-1.133289 0.91871,-2.052 2.052,-2.052 1.13329,0 2.052,0.918711 2.052,2.052 z" stroke-width="1.22399998" cx="111.6" cy="61.200001"  stroke="#9a916c" gorn="0.55.0.0" r="2.052" fill="none" id="connector44pin" connectorname="VCC"/>
        </g>
    </g>
    <g  transform="matrix(-1,0,0,1,115.56,0)">
        <g >
            <circle d="m 113.652,54 c 0,1.133288 -0.91871,2.052 -2.052,2.052 -1.13329,0 -2.052,-0.918712 -2.052,-2.052 0,-1.133288 0.91871,-2.052 2.052,-2.052 1.13329,0 2.052,0.918712 2.052,2.052 z" stroke-width="1.22399998" cx="111.6" cy="54"  stroke="#9a916c" gorn="0.56.0.0" r="2.052" fill="none" id="connector45pin" connectorname="GND"/>
        </g>
    </g>
    <g  transform="matrix(-1,0,0,1,115.56,0)">
        <g >
            <circle d="m 113.652,46.799999 c 0,1.133289 -0.91871,2.052 -2.052,2.052 -1.13329,0 -2.052,-0.918711 -2.052,-2.052 0,-1.133288 0.91871,-2.052 2.052,-2.052 1.13329,0 2.052,0.918712 2.052,2.052 z" stroke-width="1.22399998" cx="111.6" cy="46.799999"  stroke="#9a916c" gorn="0.57.0.0" r="2.052" fill="none" id="connector48pin" connectorname="GND"/>
        </g>
    </g>
    <g  transform="matrix(-1,0,0,1,115.56,0)">
        <g >
            <circle d="m 113.652,39.599998 c 0,1.133289 -0.91871,2.052001 -2.052,2.052001 -1.13329,0 -2.052,-0.918712 -2.052,-2.052001 0,-1.133288 0.91871,-2.052 2.052,-2.052 1.13329,0 2.052,0.918712 2.052,2.052 z" stroke-width="1.22399998" cx="111.6" cy="39.599998"  stroke="#9a916c" gorn="0.58.0.0" r="2.052" fill="none" id="connector49pin" connectorname="VCC"/>
        </g>
    </g>
    <g  transform="matrix(-1,0,0,1,115.56,0)">
        <g >
            <circle d="m 113.652,32.400002 c 0,1.133288 -0.91871,2.052 -2.052,2.052 -1.13329,0 -2.052,-0.918712 -2.052,-2.052 0,-1.133289 0.91871,-2.052001 2.052,-2.052001 1.13329,0 2.052,0.918712 2.052,2.052001 z" stroke-width="1.22399998" cx="111.6" cy="32.400002"  stroke="#9a916c" gorn="0.59.0.0" r="2.052" fill="none" id="connector50pin" connectorname="RX"/>
        </g>
    </g>
    <g  transform="matrix(-1,0,0,1,115.56,0)">
        <g >
            <circle d="m 113.652,25.200001 c 0,1.133288 -0.91871,2.052 -2.052,2.052 -1.13329,0 -2.052,-0.918712 -2.052,-2.052 0,-1.133289 0.91871,-2.052 2.052,-2.052 1.13329,0 2.052,0.918711 2.052,2.052 z" stroke-width="1.22399998" cx="111.6" cy="25.200001"  stroke="#9a916c" gorn="0.60.0.0" r="2.052" fill="none" id="connector51pin" connectorname="TX"/>
        </g>
    </g>
    <g  transform="matrix(-1,0,0,1,115.56,0)">
        <g >
            <circle d="m 113.652,18 c 0,1.133288 -0.91871,2.052 -2.052,2.052 -1.13329,0 -2.052,-0.918712 -2.052,-2.052 0,-1.133288 0.91871,-2.052 2.052,-2.052 1.13329,0 2.052,0.918712 2.052,2.052 z" stroke-width="1.22399998" cx="111.6" cy="18"  stroke="#9a916c" gorn="0.61.0.0" r="2.052" fill="none" id="connector52pin" connectorname="5"/>
        </g>
    </g>
    <g  transform="matrix(-1,0,0,1,115.56,0)">
        <g >
            <circle d="M 92.052,3.5999999 C 92.052,4.7332882 91.133288,5.652 90,5.652 c -1.133288,0 -2.052,-0.9187118 -2.052,-2.0520001 0,-1.1332883 0.918712,-2.052 2.052,-2.052 1.133288,0 2.052,0.9187117 2.052,2.052 z" stroke-width="1.22399998" cx="90" cy="3.5999999"  stroke="#9a916c" gorn="0.62.0.0" r="2.052" fill="none" id="connector53pin" connectorname="ADC7"/>
        </g>
    </g>
    <g  transform="matrix(-1,0,0,1,115.56,0)">
        <g >
            <circle d="m 84.852003,3.5999999 c 0,1.1332883 -0.918712,2.0520001 -2.052,2.0520001 -1.133288,0 -2.052,-0.9187118 -2.052,-2.0520001 0,-1.1332883 0.918712,-2.052 2.052,-2.052 1.133288,0 2.052,0.9187117 2.052,2.052 z" stroke-width="1.22399998" cx="82.800003" cy="3.5999999"  stroke="#9a916c" gorn="0.63.0.0" r="2.052" fill="none" id="connector54pin" connectorname="ADC6"/>
        </g>
    </g>
    <g  transform="matrix(-1,0,0,1,115.56,0)">
        <g >
            <circle d="m 77.651999,3.5999999 c 0,1.1332883 -0.918712,2.0520001 -2.052001,2.0520001 -1.133288,0 -2.052,-0.9187118 -2.052,-2.0520001 0,-1.1332883 0.918712,-2.052 2.052,-2.052 1.133289,0 2.052001,0.9187117 2.052001,2.052 z" stroke-width="1.22399998" cx="75.599998" cy="3.5999999"  stroke="#9a916c" gorn="0.64.0.0" r="2.052" fill="none" id="connector55pin" connectorname="GND"/>
        </g>
    </g>
    <g  transform="matrix(-1,0,0,1,115.56,0)">
        <g >
            <circle d="m 70.452002,3.5999999 c 0,1.1332883 -0.918712,2.0520001 -2.052,2.0520001 -1.133289,0 -2.052001,-0.9187118 -2.052001,-2.0520001 0,-1.1332883 0.918712,-2.052 2.052001,-2.052 1.133288,0 2.052,0.9187117 2.052,2.052 z" stroke-width="1.22399998" cx="68.400002" cy="3.5999999"  stroke="#9a916c" gorn="0.65.0.0" r="2.052" fill="none" id="connector56pin" connectorname="VCC"/>
        </g>
    </g>
    <g  transform="matrix(-1,0,0,1,115.56,0)">
        <g >
            <circle d="m 63.252001,3.5999999 c 0,1.1332883 -0.918712,2.0520001 -2.052,2.0520001 -1.133289,0 -2.052,-0.9187118 -2.052,-2.0520001 0,-1.1332883 0.918711,-2.052 2.052,-2.052 1.133288,0 2.052,0.9187117 2.052,2.052 z" stroke-width="1.22399998" cx="61.200001" cy="3.5999999"  stroke="#9a916c" gorn="0.66.0.0" r="2.052" fill="none" id="connector57pin" connectorname="MISO"/>
        </g>
    </g>
    <g  transform="matrix(-1,0,0,1,115.56,0)">
        <g >
            <circle d="M 56.052,3.5999999 C 56.052,4.7332882 55.133288,5.652 54,5.652 c -1.133288,0 -2.052,-0.9187118 -2.052,-2.0520001 0,-1.1332883 0.918712,-2.052 2.052,-2.052 1.133288,0 2.052,0.9187117 2.052,2.052 z" stroke-width="1.22399998" cx="54" cy="3.5999999"  stroke="#9a916c" gorn="0.67.0.0" r="2.052" fill="none" id="connector58pin" connectorname="SCK"/>
        </g>
    </g>
    <g  transform="matrix(-1,0,0,1,115.56,0)">
        <g >
            <circle d="m 48.851999,3.5999999 c 0,1.1332883 -0.918711,2.0520001 -2.052,2.0520001 -1.133288,0 -2.052,-0.9187118 -2.052,-2.0520001 0,-1.1332883 0.918712,-2.052 2.052,-2.052 1.133289,0 2.052,0.9187117 2.052,2.052 z" stroke-width="1.22399998" cx="46.799999" cy="3.5999999"  stroke="#9a916c" gorn="0.68.0.0" r="2.052" fill="none" id="connector59pin" connectorname="RESET"/>
        </g>
    </g>
    <g  transform="matrix(-1,0,0,1,115.56,0)">
        <g >
            <circle d="m 41.651999,3.5999999 c 0,1.1332883 -0.918712,2.0520001 -2.052001,2.0520001 -1.133288,0 -2.052,-0.9187118 -2.052,-2.0520001 0,-1.1332883 0.918712,-2.052 2.052,-2.052 1.133289,0 2.052001,0.9187117 2.052001,2.052 z" stroke-width="1.22399998" cx="39.599998" cy="3.5999999"  stroke="#9a916c" gorn="0.69.0.0" r="2.052" fill="none" id="connector60pin" connectorname="MOSI"/>
        </g>
    </g>
    <g  transform="matrix(-1,0,0,1,115.56,0)">
        <g >
            <circle d="m 34.452002,3.5999999 c 0,1.1332883 -0.918712,2.0520001 -2.052,2.0520001 -1.133289,0 -2.052001,-0.9187118 -2.052001,-2.0520001 0,-1.1332883 0.918712,-2.052 2.052001,-2.052 1.133288,0 2.052,0.9187117 2.052,2.052 z" stroke-width="1.22399998" cx="32.400002" cy="3.5999999"  stroke="#9a916c" gorn="0.70.0.0" r="2.052" fill="none" id="connector61pin" connectorname="!SS"/>
        </g>
    </g>
    <g  transform="matrix(-1,0,0,1,115.56,0)">
        <g >
            <circle d="m 27.252001,3.5999999 c 0,1.1332883 -0.918712,2.0520001 -2.052,2.0520001 -1.133289,0 -2.052,-0.9187118 -2.052,-2.0520001 0,-1.1332883 0.918711,-2.052 2.052,-2.052 1.133288,0 2.052,0.9187117 2.052,2.052 z" stroke-width="1.22399998" cx="25.200001" cy="3.5999999"  stroke="#9a916c" gorn="0.71.0.0" r="2.052" fill="none" id="connector62pin" connectorname="RX"/>
        </g>
    </g>
    <g  transform="matrix(0.55909238,0,0,0.55909238,0.45441272,2.9440785)">
        <g >
            <g  gorn="0.72.0.0" id="_x3C_Group_x3E__1_">
                <circle d="m 60.520999,79.336998 c 0,1.93631 -1.569689,3.506 -3.506,3.506 -1.93631,0 -3.506,-1.56969 -3.506,-3.506 0,-1.93631 1.56969,-3.506 3.506,-3.506 1.936311,0 3.506,1.56969 3.506,3.506 z" stroke-width="0.48980001" cx="57.014999" cy="79.336998"  gorn="0.72.0.0.0" stroke="#9a916c" r="3.506" fill="none" id="connector0pin_1_"/>
                <circle d="m 73.333004,79.336998 c 0,1.93631 -1.56969,3.506 -3.506001,3.506 -1.93631,0 -3.506,-1.56969 -3.506,-3.506 0,-1.93631 1.56969,-3.506 3.506,-3.506 1.936311,0 3.506001,1.56969 3.506001,3.506 z" stroke-width="0.48980001" cx="69.827003" cy="79.336998"  gorn="0.72.0.0.1" stroke="#9a916c" r="3.506" fill="none" id="connector1pin_1_"/>
                <circle d="m 86.145,79.336998 c 0,1.93631 -1.56969,3.506 -3.506,3.506 -1.93631,0 -3.506,-1.56969 -3.506,-3.506 0,-1.93631 1.56969,-3.506 3.506,-3.506 1.93631,0 3.506,1.56969 3.506,3.506 z" stroke-width="0.48980001" cx="82.639" cy="79.336998"  gorn="0.72.0.0.2" stroke="#9a916c" r="3.506" fill="none" id="connector2pin_1_"/>
                <circle d="m 98.958004,79.336998 c 0,1.93631 -1.56969,3.506 -3.506001,3.506 -1.93631,0 -3.506,-1.56969 -3.506,-3.506 0,-1.93631 1.56969,-3.506 3.506,-3.506 1.936311,0 3.506001,1.56969 3.506001,3.506 z" stroke-width="0.48980001" cx="95.452003" cy="79.336998"  gorn="0.72.0.0.3" stroke="#9a916c" r="3.506" fill="none" id="connector3pin_1_"/>
                <circle d="m 111.77,79.336998 c 0,1.93631 -1.56969,3.506 -3.506,3.506 -1.93631,0 -3.506,-1.56969 -3.506,-3.506 0,-1.93631 1.56969,-3.506 3.506,-3.506 1.93631,0 3.506,1.56969 3.506,3.506 z" stroke-width="0.48980001" cx="108.264" cy="79.336998"  gorn="0.72.0.0.4" stroke="#9a916c" r="3.506" fill="none" id="connector4pin_1_"/>
                <circle d="m 124.582,79.336998 c 0,1.93631 -1.56969,3.506 -3.506,3.506 -1.93631,0 -3.506,-1.56969 -3.506,-3.506 0,-1.93631 1.56969,-3.506 3.506,-3.506 1.93631,0 3.506,1.56969 3.506,3.506 z" stroke-width="0.48980001" cx="121.076" cy="79.336998"  gorn="0.72.0.0.5" stroke="#9a916c" r="3.506" fill="none" id="connector5pin_1_"/>
                <circle d="m 137.39501,79.336998 c 0,1.93631 -1.56969,3.506 -3.506,3.506 -1.93631,0 -3.506,-1.56969 -3.506,-3.506 0,-1.93631 1.56969,-3.506 3.506,-3.506 1.93631,0 3.506,1.56969 3.506,3.506 z" stroke-width="0.48980001" cx="133.88901" cy="79.336998"  gorn="0.72.0.0.6" stroke="#9a916c" r="3.506" fill="none" id="connector6pin_1_"/>
                <circle d="m 150.207,79.336998 c 0,1.93631 -1.56969,3.506 -3.506,3.506 -1.93631,0 -3.506,-1.56969 -3.506,-3.506 0,-1.93631 1.56969,-3.506 3.506,-3.506 1.93631,0 3.506,1.56969 3.506,3.506 z" stroke-width="0.48980001" cx="146.701" cy="79.336998"  gorn="0.72.0.0.7" stroke="#9a916c" r="3.506" fill="none" id="connector7pin_1_"/>
                <circle d="m 150.207,28.087 c 0,1.93631 -1.56969,3.506 -3.506,3.506 -1.93631,0 -3.506,-1.56969 -3.506,-3.506 0,-1.93631 1.56969,-3.506 3.506,-3.506 1.93631,0 3.506,1.56969 3.506,3.506 z" stroke-width="0.48980001" cx="146.701" cy="28.087"  gorn="0.72.0.0.8" stroke="#9a916c" r="3.506" fill="none" id="connector8pin_1_"/>
                <circle d="m 124.582,28.087 c 0,1.93631 -1.56969,3.506 -3.506,3.506 -1.93631,0 -3.506,-1.56969 -3.506,-3.506 0,-1.93631 1.56969,-3.506 3.506,-3.506 1.93631,0 3.506,1.56969 3.506,3.506 z" stroke-width="0.48980001" cx="121.076" cy="28.087"  gorn="0.72.0.0.9" stroke="#9a916c" r="3.506" fill="none" id="connector9pin_1_"/>
                <circle d="m 98.958004,28.087 c 0,1.93631 -1.56969,3.506 -3.506001,3.506 -1.93631,0 -3.506,-1.56969 -3.506,-3.506 0,-1.93631 1.56969,-3.506 3.506,-3.506 1.936311,0 3.506001,1.56969 3.506001,3.506 z" stroke-width="0.48980001" cx="95.452003" cy="28.087"  gorn="0.72.0.0.10" stroke="#9a916c" r="3.506" fill="none" id="connector10pin_1_"/>
                <circle d="m 86.145,28.087 c 0,1.93631 -1.56969,3.506 -3.506,3.506 -1.93631,0 -3.506,-1.56969 -3.506,-3.506 0,-1.93631 1.56969,-3.506 3.506,-3.506 1.93631,0 3.506,1.56969 3.506,3.506 z" stroke-width="0.48980001" cx="82.639" cy="28.087"  gorn="0.72.0.0.11" stroke="#9a916c" r="3.506" fill="none" id="connector11pin_1_"/>
                <circle d="m 73.333004,28.087 c 0,1.93631 -1.56969,3.506 -3.506001,3.506 -1.93631,0 -3.506,-1.56969 -3.506,-3.506 0,-1.93631 1.56969,-3.506 3.506,-3.506 1.936311,0 3.506001,1.56969 3.506001,3.506 z" stroke-width="0.48980001" cx="69.827003" cy="28.087"  gorn="0.72.0.0.12" stroke="#9a916c" r="3.506" fill="none" id="connector12pin_1_"/>
                <circle d="m 60.520999,28.087 c 0,1.93631 -1.569689,3.506 -3.506,3.506 -1.93631,0 -3.506,-1.56969 -3.506,-3.506 0,-1.93631 1.56969,-3.506 3.506,-3.506 1.936311,0 3.506,1.56969 3.506,3.506 z" stroke-width="0.48980001" cx="57.014999" cy="28.087"  gorn="0.72.0.0.13" stroke="#9a916c" r="3.506" fill="none" id="connector13pin_1_"/>
                <polygon style="fill:#323232"  gorn="0.72.0.0.14" points="0,84.186 0,20.913 201.732,20.912 203.716,22.692 203.716,86.511 1.779,86.512 " id="polygon160"/>
                <polygon style="fill:#646464"  gorn="0.72.0.0.15" points="15.818,28.598 17.293,27.125 39.433,27.125 40.909,28.598 37.955,33.027 18.765,33.027 " id="polygon162"/>
                <polygon style="fill:#26dd26"  gorn="0.72.0.0.16" points="37.955,34.501 42.386,30.073 43.861,33.027 40.909,49.267 37.955,52.216 35.006,49.267 " id="polygon164"/>
                <polygon style="fill:#26dd26"  gorn="0.72.0.0.17" points="33.529,58.123 37.955,53.691 39.433,56.641 36.481,72.881 33.529,75.833 30.577,72.881 " id="polygon166"/>
                <polygon style="fill:#646464"  gorn="0.72.0.0.18" points="32.052,77.308 30.577,78.785 8.435,78.785 6.958,77.304 9.91,72.881 29.102,72.881 " id="polygon168"/>
                <polygon style="fill:#26dd26"  gorn="0.72.0.0.19" points="9.91,71.402 5.481,75.833 4.007,72.881 6.958,56.641 9.91,53.691 12.86,56.641 " id="polygon170"/>
                <polygon style="fill:#26dd26"  gorn="0.72.0.0.20" points="14.337,47.79 9.91,52.216 8.435,49.267 11.389,33.027 14.337,30.073 17.293,33.027 " id="polygon172"/>
                <polyline style="fill:#26dd26"  gorn="0.72.0.0.21" points="11.389,52.216 14.337,49.267 33.529,49.267 36.481,52.216 33.529,55.168 14.337,55.168 " id="polyline174"/>
                <circle d="m 43.388,75.825996 c 0,1.718158 -1.392842,3.111 -3.111,3.111 -1.718157,0 -3.111,-1.392842 -3.111,-3.111 0,-1.718157 1.392843,-3.111 3.111,-3.111 1.718158,0 3.111,1.392843 3.111,3.111 z" style="fill:#646464" cx="40.277" cy="75.825996"  gorn="0.72.0.0.22" r="3.1110001" id="circle176"/>
                <polygon style="fill:#26dd26"  gorn="0.72.0.0.23" points="67.046,28.598 68.521,27.125 90.661,27.125 92.136,28.598 89.183,33.027 69.993,33.027 " id="polygon178"/>
                <polygon style="fill:#26dd26"  gorn="0.72.0.0.24" points="89.183,34.501 93.613,30.073 95.089,33.027 92.137,49.267 89.183,52.215 86.234,49.267 " id="polygon180"/>
                <polygon style="fill:#26dd26"  gorn="0.72.0.0.25" points="84.757,58.123 89.183,53.691 90.661,56.641 87.709,72.881 84.757,75.833 81.805,72.881 " id="polygon182"/>
                <polygon style="fill:#646464"  gorn="0.72.0.0.26" points="83.28,77.308 81.805,78.785 59.663,78.785 58.186,77.304 61.138,72.881 80.33,72.881 " id="polygon184"/>
                <polygon style="fill:#26dd26"  gorn="0.72.0.0.27" points="61.138,71.402 56.709,75.833 55.235,72.881 58.186,56.641 61.138,53.691 64.088,56.641 " id="polygon186"/>
                <polygon style="fill:#26dd26"  gorn="0.72.0.0.28" points="65.565,47.79 61.138,52.215 59.663,49.267 62.617,33.027 65.565,30.073 68.521,33.027 " id="polygon188"/>
                <polyline style="fill:#26dd26"  gorn="0.72.0.0.29" points="62.617,52.215 65.565,49.267 84.757,49.267 87.709,52.215 84.757,55.168 65.565,55.168 " id="polyline190"/>
                <circle d="m 94.615997,75.825996 c 0,1.718158 -1.392842,3.111 -3.111,3.111 -1.718158,0 -3.111,-1.392842 -3.111,-3.111 0,-1.718157 1.392842,-3.111 3.111,-3.111 1.718158,0 3.111,1.392843 3.111,3.111 z" style="fill:#646464" cx="91.504997" cy="75.825996"  gorn="0.72.0.0.30" r="3.1110001" id="circle192"/>
                <circle d="m 102.088,64.167999 c 0,1.718158 -1.39284,3.111 -3.111003,3.111 -1.718158,0 -3.111,-1.392842 -3.111,-3.111 0,-1.718158 1.392842,-3.111 3.111,-3.111 1.718163,0 3.111003,1.392842 3.111003,3.111 z" style="fill:#646464" cx="98.976997" cy="64.167999"  gorn="0.72.0.0.31" r="3.1110001" id="circle194"/>
                <circle d="m 105.574,41.144001 c 0,1.718158 -1.39284,3.111 -3.111,3.111 -1.71816,0 -3.111003,-1.392842 -3.111003,-3.111 0,-1.718158 1.392843,-3.111 3.111003,-3.111 1.71816,0 3.111,1.392842 3.111,3.111 z" style="fill:#646464" cx="102.463" cy="41.144001"  gorn="0.72.0.0.32" r="3.1110001" id="circle196"/>
                <circle d="m 159.106,29.813999 c 0,1.718158 -1.39285,3.111 -3.111,3.111 -1.71816,0 -3.111,-1.392842 -3.111,-3.111 0,-1.718158 1.39284,-3.111 3.111,-3.111 1.71815,0 3.111,1.392842 3.111,3.111 z" style="fill:#646464" cx="155.995" cy="29.813999"  gorn="0.72.0.0.33" r="3.1110001" id="circle198"/>
                <polygon style="fill:#646464"  gorn="0.72.0.0.34" points="118.293,28.598 119.768,27.125 141.911,27.125 143.386,28.598 140.432,33.027 121.242,33.027 " id="polygon200"/>
                <polygon style="fill:#646464"  gorn="0.72.0.0.35" points="140.432,34.501 144.861,30.073 146.338,33.027 143.386,49.267 140.432,52.215 137.483,49.267 " id="polygon202"/>
                <polygon style="fill:#646464"  gorn="0.72.0.0.36" points="136.004,58.123 140.432,53.691 141.911,56.641 138.958,72.881 136.005,75.833 133.054,72.881 " id="polygon204"/>
                <polygon style="fill:#26dd26"  gorn="0.72.0.0.37" points="134.528,77.308 133.054,78.785 110.912,78.785 109.435,77.304 112.387,72.881 131.577,72.881 " id="polygon206"/>
                <polygon style="fill:#26dd26"  gorn="0.72.0.0.38" points="112.387,71.402 107.958,75.833 106.485,72.881 109.435,56.641 112.387,53.691 115.338,56.641 " id="polygon208"/>
                <polygon style="fill:#26dd26"  gorn="0.72.0.0.39" points="116.814,47.79 112.387,52.215 110.912,49.267 113.866,33.027 116.814,30.073 119.768,33.027 " id="polygon210"/>
                <polyline style="fill:#646464"  gorn="0.72.0.0.40" points="113.866,52.215 116.814,49.267 136.004,49.267 138.958,52.215 136.004,55.168 116.814,55.168 " id="polyline212"/>
                <circle d="m 145.865,75.825996 c 0,1.718158 -1.39284,3.111 -3.111,3.111 -1.71816,0 -3.111,-1.392842 -3.111,-3.111 0,-1.718157 1.39284,-3.111 3.111,-3.111 1.71816,0 3.111,1.392843 3.111,3.111 z" style="fill:#646464" cx="142.754" cy="75.825996"  gorn="0.72.0.0.41" r="3.1110001" id="circle214"/>
                <polygon style="fill:#26dd26"  gorn="0.72.0.0.42" points="169.676,28.598 171.151,27.125 193.293,27.125 194.769,28.598 191.815,33.027 172.625,33.027 " id="polygon216"/>
                <polygon style="fill:#26dd26"  gorn="0.72.0.0.43" points="191.815,34.501 196.244,30.073 197.721,33.027 194.769,49.267 191.815,52.215 188.866,49.267 " id="polygon218"/>
                <polygon style="fill:#26dd26"  gorn="0.72.0.0.44" points="187.387,58.123 191.815,53.691 193.293,56.641 190.341,72.881 187.387,75.833 184.437,72.881 " id="polygon220"/>
                <polygon style="fill:#26dd26"  gorn="0.72.0.0.45" points="185.91,77.308 184.437,78.785 162.295,78.785 160.818,77.304 163.77,72.881 182.96,72.881 " id="polygon222"/>
                <polygon style="fill:#26dd26"  gorn="0.72.0.0.46" points="163.77,71.402 159.341,75.833 157.867,72.881 160.818,56.641 163.77,53.691 166.72,56.641 " id="polygon224"/>
                <polygon style="fill:#26dd26"  gorn="0.72.0.0.47" points="168.197,47.79 163.77,52.215 162.295,49.267 165.249,33.027 168.197,30.073 171.151,33.027 " id="polygon226"/>
                <polyline style="fill:#646464"  gorn="0.72.0.0.48" points="165.249,52.215 168.197,49.267 187.387,49.267 190.341,52.215 187.387,55.168 168.197,55.168 " id="polyline228"/>
                <circle d="m 197.24799,75.825996 c 0,1.718158 -1.39284,3.111 -3.111,3.111 -1.71815,0 -3.111,-1.392842 -3.111,-3.111 0,-1.718157 1.39285,-3.111 3.111,-3.111 1.71816,0 3.111,1.392843 3.111,3.111 z" style="fill:#646464" cx="194.13699" cy="75.825996"  gorn="0.72.0.0.49" r="3.1110001" id="circle230"/>
                <polygon style="fill:#c7c7c7"  gorn="0.72.0.0.50" points="203.716,86.511 201.936,84.186 0,84.186 1.779,86.512 " id="polygon232"/>
                <polygon style="fill:#aaaaaa"  gorn="0.72.0.0.51" points="201.732,20.912 201.732,84.186 203.716,86.511 203.716,22.692 " id="polygon234"/>
            </g>
        </g>
    </g>
</svg>
