<?xml version='1.0' encoding='utf-8'?>
<!DOCTYPE svg>
<!-- Generator: Adobe Illustrator 17.1.0, SVG Export Plug-In . SVG Version: 6.00 Build 0)  -->
<svg xmlns="http://www.w3.org/2000/svg" id="Layer_1" height="0.7in" xmlns:xml="http://www.w3.org/XML/1998/namespace" x="0px" y="0px" width="0.5in" version="1.1" enable-background="new 0 0 36 50.4"  gorn="0" xml:space="preserve" viewBox="0 0 36 50.4">
    <desc >
        <referenceFile >TXB0104_breakout_breadboard.svg</referenceFile>
    </desc>
    <desc >Fritzing breadboard generated by brd2svg</desc>
    <g id="breadboard"  gorn="0.2">
        <g id="icon"  gorn="0.2.0">
            <path d="M0,50.4h35.9L36,0H0V50.4 M2.2,46.8c0-0.8,0.6-1.4,1.4-1.4C4.4,45.4,5,46,5,46.8c0,0,0,0,0,0c0,0.8-0.6,1.4-1.4,1.4S2.2,47.6,2.2,46.8z M2.2,39.6c0-0.8,0.6-1.4,1.4-1.4c0.8,0,1.4,0.6,1.4,1.4c0,0,0,0,0,0C5,40.4,4.4,41,3.6,41S2.2,40.4,2.2,39.6z M2.2,32.4c0-0.8,0.6-1.4,1.4-1.4C4.4,31,5,31.6,5,32.4c0,0,0,0,0,0c0,0.8-0.6,1.4-1.4,1.4S2.2,33.2,2.2,32.4z M2.2,25.2c0-0.8,0.6-1.4,1.4-1.4c0.8,0,1.4,0.6,1.4,1.4c0,0,0,0,0,0c0,0.8-0.6,1.4-1.4,1.4S2.2,26,2.2,25.2C2.2,25.2,2.2,25.2,2.2,25.2z M2.2,18c0-0.8,0.6-1.4,1.4-1.4C4.4,16.6,5,17.2,5,18c0,0,0,0,0,0c0,0.8-0.6,1.4-1.4,1.4S2.2,18.8,2.2,18z M2.2,10.8c0-0.8,0.6-1.4,1.4-1.4S5,10,5,10.8c0,0,0,0,0,0c0,0.8-0.6,1.4-1.4,1.4S2.2,11.6,2.2,10.8z M2.2,3.6c0-0.8,0.6-1.4,1.4-1.4C4.4,2.2,5,2.8,5,3.6c0,0,0,0,0,0C5,4.4,4.4,5,3.6,5S2.2,4.4,2.2,3.6z M31,46.8c0-0.8,0.6-1.4,1.4-1.4c0.8,0,1.4,0.6,1.4,1.4s-0.6,1.4-1.4,1.4C31.6,48.2,31,47.6,31,46.8z M31,39.6c0-0.8,0.6-1.4,1.4-1.4c0.8,0,1.4,0.6,1.4,1.4S33.2,41,32.4,41C31.6,41,31,40.4,31,39.6z M31,32.4c0-0.8,0.6-1.4,1.4-1.4c0.8,0,1.4,0.6,1.4,1.4c0,0.8-0.6,1.4-1.4,1.4C31.6,33.8,31,33.2,31,32.4z M31,25.2c0-0.8,0.6-1.4,1.4-1.4c0.8,0,1.4,0.6,1.4,1.4s-0.6,1.4-1.4,1.4C31.6,26.6,31,26,31,25.2z M31,18c0-0.8,0.6-1.4,1.4-1.4c0.8,0,1.4,0.6,1.4,1.4s-0.6,1.4-1.4,1.4C31.6,19.4,31,18.8,31,18z M31,10.8c0-0.8,0.6-1.4,1.4-1.4c0.8,0,1.4,0.6,1.4,1.4s-0.6,1.4-1.4,1.4C31.6,12.2,31,11.6,31,10.8z M31,3.6c0-0.8,0.6-1.4,1.4-1.4c0.8,0,1.4,0.6,1.4,1.4S33.2,5,32.4,5C31.6,5,31,4.4,31,3.6z" fill="#C62717" />
            <g >
                <title >layer 21</title>
                <g >
                    <title >text:OE</title>
                    <g transform="matrix(1 0 0 1 15.5907 9.8406)" >
                        <g >
                            <text font-family="OCRA" fill="#FFFFFF"  font-size="3.3408">OE</text>
                        </g>
                    </g>
                </g>
                <g >
                    <title >element:C1</title>
                    <g >
                        <title >package:0603-CAP</title>
                        <line fill="none" y1="7.2" y2="7.2" stroke-linecap="round" stroke-width="1.584" x1="10.7" x2="10.9"  stroke="#FFFFFF"/>
                    </g>
                </g>
                <g >
                    <title >element:C2</title>
                    <g >
                        <title >package:0603-CAP</title>
                        <line fill="none" y1="7.2" y2="7.2" stroke-linecap="round" stroke-width="1.584" x1="25.1" x2="25.3"  stroke="#FFFFFF"/>
                    </g>
                </g>
                <g >
                    <title >element:FID1</title>
                    <g >
                        <title >package:MICRO-FIDUCIAL</title>
                    </g>
                </g>
                <g >
                    <title >element:FID2</title>
                    <g >
                        <title >package:MICRO-FIDUCIAL</title>
                    </g>
                </g>
                <g >
                    <title >element:FRAME1</title>
                    <g >
                        <title >package:CREATIVE_COMMONS</title>
                    </g>
                </g>
                <g >
                    <title >element:JP1</title>
                    <g >
                        <title >package:1X07</title>
                        <line fill="none" y1="5.4" y2="1.8" stroke-linecap="round" stroke-width="0.576" x1="0" x2="0"  stroke="#FFFFFF"/>
                        <line fill="none" y1="1.8" y2="0" stroke-linecap="round" stroke-width="0.576" x1="0" x2="1.8"  stroke="#FFFFFF"/>
                        <line fill="none" y1="0" y2="1.8" stroke-linecap="round" stroke-width="0.576" x1="5.4" x2="7.2"  stroke="#FFFFFF"/>
                        <line fill="none" y1="14.4" y2="12.6" stroke-linecap="round" stroke-width="0.576" x1="1.8" x2="0"  stroke="#FFFFFF"/>
                        <line fill="none" y1="12.6" y2="9" stroke-linecap="round" stroke-width="0.576" x1="0" x2="0"  stroke="#FFFFFF"/>
                        <line fill="none" y1="9" y2="7.2" stroke-linecap="round" stroke-width="0.576" x1="0" x2="1.8"  stroke="#FFFFFF"/>
                        <line fill="none" y1="7.2" y2="9" stroke-linecap="round" stroke-width="0.576" x1="5.4" x2="7.2"  stroke="#FFFFFF"/>
                        <line fill="none" y1="9" y2="12.6" stroke-linecap="round" stroke-width="0.576" x1="7.2" x2="7.2"  stroke="#FFFFFF"/>
                        <line fill="none" y1="12.6" y2="14.4" stroke-linecap="round" stroke-width="0.576" x1="7.2" x2="5.4"  stroke="#FFFFFF"/>
                        <line fill="none" y1="5.4" y2="7.2" stroke-linecap="round" stroke-width="0.576" x1="0" x2="1.8"  stroke="#FFFFFF"/>
                        <line fill="none" y1="7.2" y2="5.4" stroke-linecap="round" stroke-width="0.576" x1="5.4" x2="7.2"  stroke="#FFFFFF"/>
                        <line fill="none" y1="1.8" y2="5.4" stroke-linecap="round" stroke-width="0.576" x1="7.2" x2="7.2"  stroke="#FFFFFF"/>
                        <line fill="none" y1="27" y2="23.4" stroke-linecap="round" stroke-width="0.576" x1="0" x2="0"  stroke="#FFFFFF"/>
                        <line fill="none" y1="23.4" y2="21.6" stroke-linecap="round" stroke-width="0.576" x1="0" x2="1.8"  stroke="#FFFFFF"/>
                        <line fill="none" y1="21.6" y2="23.4" stroke-linecap="round" stroke-width="0.576" x1="5.4" x2="7.2"  stroke="#FFFFFF"/>
                        <line fill="none" y1="21.6" y2="19.8" stroke-linecap="round" stroke-width="0.576" x1="1.8" x2="0"  stroke="#FFFFFF"/>
                        <line fill="none" y1="19.8" y2="16.2" stroke-linecap="round" stroke-width="0.576" x1="0" x2="0"  stroke="#FFFFFF"/>
                        <line fill="none" y1="16.2" y2="14.4" stroke-linecap="round" stroke-width="0.576" x1="0" x2="1.8"  stroke="#FFFFFF"/>
                        <line fill="none" y1="14.4" y2="16.2" stroke-linecap="round" stroke-width="0.576" x1="5.4" x2="7.2"  stroke="#FFFFFF"/>
                        <line fill="none" y1="16.2" y2="19.8" stroke-linecap="round" stroke-width="0.576" x1="7.2" x2="7.2"  stroke="#FFFFFF"/>
                        <line fill="none" y1="19.8" y2="21.6" stroke-linecap="round" stroke-width="0.576" x1="7.2" x2="5.4"  stroke="#FFFFFF"/>
                        <line fill="none" y1="36" y2="34.2" stroke-linecap="round" stroke-width="0.576" x1="1.8" x2="0"  stroke="#FFFFFF"/>
                        <line fill="none" y1="34.2" y2="30.6" stroke-linecap="round" stroke-width="0.576" x1="0" x2="0"  stroke="#FFFFFF"/>
                        <line fill="none" y1="30.6" y2="28.8" stroke-linecap="round" stroke-width="0.576" x1="0" x2="1.8"  stroke="#FFFFFF"/>
                        <line fill="none" y1="28.8" y2="30.6" stroke-linecap="round" stroke-width="0.576" x1="5.4" x2="7.2"  stroke="#FFFFFF"/>
                        <line fill="none" y1="30.6" y2="34.2" stroke-linecap="round" stroke-width="0.576" x1="7.2" x2="7.2"  stroke="#FFFFFF"/>
                        <line fill="none" y1="34.2" y2="36" stroke-linecap="round" stroke-width="0.576" x1="7.2" x2="5.4"  stroke="#FFFFFF"/>
                        <line fill="none" y1="27" y2="28.8" stroke-linecap="round" stroke-width="0.576" x1="0" x2="1.8"  stroke="#FFFFFF"/>
                        <line fill="none" y1="28.8" y2="27" stroke-linecap="round" stroke-width="0.576" x1="5.4" x2="7.2"  stroke="#FFFFFF"/>
                        <line fill="none" y1="23.4" y2="27" stroke-linecap="round" stroke-width="0.576" x1="7.2" x2="7.2"  stroke="#FFFFFF"/>
                        <line fill="none" y1="48.6" y2="45" stroke-linecap="round" stroke-width="0.576" x1="0" x2="0"  stroke="#FFFFFF"/>
                        <line fill="none" y1="45" y2="43.2" stroke-linecap="round" stroke-width="0.576" x1="0" x2="1.8"  stroke="#FFFFFF"/>
                        <line fill="none" y1="43.2" y2="45" stroke-linecap="round" stroke-width="0.576" x1="5.4" x2="7.2"  stroke="#FFFFFF"/>
                        <line fill="none" y1="43.2" y2="41.4" stroke-linecap="round" stroke-width="0.576" x1="1.8" x2="0"  stroke="#FFFFFF"/>
                        <line fill="none" y1="41.4" y2="37.8" stroke-linecap="round" stroke-width="0.576" x1="0" x2="0"  stroke="#FFFFFF"/>
                        <line fill="none" y1="37.8" y2="36" stroke-linecap="round" stroke-width="0.576" x1="0" x2="1.8"  stroke="#FFFFFF"/>
                        <line fill="none" y1="36" y2="37.8" stroke-linecap="round" stroke-width="0.576" x1="5.4" x2="7.2"  stroke="#FFFFFF"/>
                        <line fill="none" y1="37.8" y2="41.4" stroke-linecap="round" stroke-width="0.576" x1="7.2" x2="7.2"  stroke="#FFFFFF"/>
                        <line fill="none" y1="41.4" y2="43.2" stroke-linecap="round" stroke-width="0.576" x1="7.2" x2="5.4"  stroke="#FFFFFF"/>
                        <line fill="none" y1="50.4" y2="50.4" stroke-linecap="round" stroke-width="0.576" x1="1.8" x2="5.4"  stroke="#FFFFFF"/>
                        <line fill="none" y1="48.6" y2="50.4" stroke-linecap="round" stroke-width="0.576" x1="0" x2="1.8"  stroke="#FFFFFF"/>
                        <line fill="none" y1="50.4" y2="48.6" stroke-linecap="round" stroke-width="0.576" x1="5.4" x2="7.2"  stroke="#FFFFFF"/>
                        <line fill="none" y1="45" y2="48.6" stroke-linecap="round" stroke-width="0.576" x1="7.2" x2="7.2"  stroke="#FFFFFF"/>
                        <line fill="none" y1="0" y2="0" stroke-linecap="round" stroke-width="0.576" x1="1.8" x2="5.4"  stroke="#FFFFFF"/>
                    </g>
                </g>
                <g >
                    <title >element:JP2</title>
                    <g >
                        <title >package:1X07</title>
                        <line fill="none" y1="5.4" y2="1.8" stroke-linecap="round" stroke-width="0.576" x1="28.8" x2="28.8"  stroke="#FFFFFF"/>
                        <line fill="none" y1="1.8" y2="0" stroke-linecap="round" stroke-width="0.576" x1="28.8" x2="30.6"  stroke="#FFFFFF"/>
                        <line fill="none" y1="0" y2="1.8" stroke-linecap="round" stroke-width="0.576" x1="34.2" x2="36"  stroke="#FFFFFF"/>
                        <line fill="none" y1="14.4" y2="12.6" stroke-linecap="round" stroke-width="0.576" x1="30.6" x2="28.8"  stroke="#FFFFFF"/>
                        <line fill="none" y1="12.6" y2="9" stroke-linecap="round" stroke-width="0.576" x1="28.8" x2="28.8"  stroke="#FFFFFF"/>
                        <line fill="none" y1="9" y2="7.2" stroke-linecap="round" stroke-width="0.576" x1="28.8" x2="30.6"  stroke="#FFFFFF"/>
                        <line fill="none" y1="7.2" y2="9" stroke-linecap="round" stroke-width="0.576" x1="34.2" x2="36"  stroke="#FFFFFF"/>
                        <line fill="none" y1="9" y2="12.6" stroke-linecap="round" stroke-width="0.576" x1="36" x2="36"  stroke="#FFFFFF"/>
                        <line fill="none" y1="12.6" y2="14.4" stroke-linecap="round" stroke-width="0.576" x1="36" x2="34.2"  stroke="#FFFFFF"/>
                        <line fill="none" y1="5.4" y2="7.2" stroke-linecap="round" stroke-width="0.576" x1="28.8" x2="30.6"  stroke="#FFFFFF"/>
                        <line fill="none" y1="7.2" y2="5.4" stroke-linecap="round" stroke-width="0.576" x1="34.2" x2="36"  stroke="#FFFFFF"/>
                        <line fill="none" y1="1.8" y2="5.4" stroke-linecap="round" stroke-width="0.576" x1="36" x2="36"  stroke="#FFFFFF"/>
                        <line fill="none" y1="27" y2="23.4" stroke-linecap="round" stroke-width="0.576" x1="28.8" x2="28.8"  stroke="#FFFFFF"/>
                        <line fill="none" y1="23.4" y2="21.6" stroke-linecap="round" stroke-width="0.576" x1="28.8" x2="30.6"  stroke="#FFFFFF"/>
                        <line fill="none" y1="21.6" y2="23.4" stroke-linecap="round" stroke-width="0.576" x1="34.2" x2="36"  stroke="#FFFFFF"/>
                        <line fill="none" y1="21.6" y2="19.8" stroke-linecap="round" stroke-width="0.576" x1="30.6" x2="28.8"  stroke="#FFFFFF"/>
                        <line fill="none" y1="19.8" y2="16.2" stroke-linecap="round" stroke-width="0.576" x1="28.8" x2="28.8"  stroke="#FFFFFF"/>
                        <line fill="none" y1="16.2" y2="14.4" stroke-linecap="round" stroke-width="0.576" x1="28.8" x2="30.6"  stroke="#FFFFFF"/>
                        <line fill="none" y1="14.4" y2="16.2" stroke-linecap="round" stroke-width="0.576" x1="34.2" x2="36"  stroke="#FFFFFF"/>
                        <line fill="none" y1="16.2" y2="19.8" stroke-linecap="round" stroke-width="0.576" x1="36" x2="36"  stroke="#FFFFFF"/>
                        <line fill="none" y1="19.8" y2="21.6" stroke-linecap="round" stroke-width="0.576" x1="36" x2="34.2"  stroke="#FFFFFF"/>
                        <line fill="none" y1="36" y2="34.2" stroke-linecap="round" stroke-width="0.576" x1="30.6" x2="28.8"  stroke="#FFFFFF"/>
                        <line fill="none" y1="34.2" y2="30.6" stroke-linecap="round" stroke-width="0.576" x1="28.8" x2="28.8"  stroke="#FFFFFF"/>
                        <line fill="none" y1="30.6" y2="28.8" stroke-linecap="round" stroke-width="0.576" x1="28.8" x2="30.6"  stroke="#FFFFFF"/>
                        <line fill="none" y1="28.8" y2="30.6" stroke-linecap="round" stroke-width="0.576" x1="34.2" x2="36"  stroke="#FFFFFF"/>
                        <line fill="none" y1="30.6" y2="34.2" stroke-linecap="round" stroke-width="0.576" x1="36" x2="36"  stroke="#FFFFFF"/>
                        <line fill="none" y1="34.2" y2="36" stroke-linecap="round" stroke-width="0.576" x1="36" x2="34.2"  stroke="#FFFFFF"/>
                        <line fill="none" y1="27" y2="28.8" stroke-linecap="round" stroke-width="0.576" x1="28.8" x2="30.6"  stroke="#FFFFFF"/>
                        <line fill="none" y1="28.8" y2="27" stroke-linecap="round" stroke-width="0.576" x1="34.2" x2="36"  stroke="#FFFFFF"/>
                        <line fill="none" y1="23.4" y2="27" stroke-linecap="round" stroke-width="0.576" x1="36" x2="36"  stroke="#FFFFFF"/>
                        <line fill="none" y1="48.6" y2="45" stroke-linecap="round" stroke-width="0.576" x1="28.8" x2="28.8"  stroke="#FFFFFF"/>
                        <line fill="none" y1="45" y2="43.2" stroke-linecap="round" stroke-width="0.576" x1="28.8" x2="30.6"  stroke="#FFFFFF"/>
                        <line fill="none" y1="43.2" y2="45" stroke-linecap="round" stroke-width="0.576" x1="34.2" x2="36"  stroke="#FFFFFF"/>
                        <line fill="none" y1="43.2" y2="41.4" stroke-linecap="round" stroke-width="0.576" x1="30.6" x2="28.8"  stroke="#FFFFFF"/>
                        <line fill="none" y1="41.4" y2="37.8" stroke-linecap="round" stroke-width="0.576" x1="28.8" x2="28.8"  stroke="#FFFFFF"/>
                        <line fill="none" y1="37.8" y2="36" stroke-linecap="round" stroke-width="0.576" x1="28.8" x2="30.6"  stroke="#FFFFFF"/>
                        <line fill="none" y1="36" y2="37.8" stroke-linecap="round" stroke-width="0.576" x1="34.2" x2="36"  stroke="#FFFFFF"/>
                        <line fill="none" y1="37.8" y2="41.4" stroke-linecap="round" stroke-width="0.576" x1="36" x2="36"  stroke="#FFFFFF"/>
                        <line fill="none" y1="41.4" y2="43.2" stroke-linecap="round" stroke-width="0.576" x1="36" x2="34.2"  stroke="#FFFFFF"/>
                        <line fill="none" y1="50.4" y2="50.4" stroke-linecap="round" stroke-width="0.576" x1="30.6" x2="34.2"  stroke="#FFFFFF"/>
                        <line fill="none" y1="48.6" y2="50.4" stroke-linecap="round" stroke-width="0.576" x1="28.8" x2="30.6"  stroke="#FFFFFF"/>
                        <line fill="none" y1="50.4" y2="48.6" stroke-linecap="round" stroke-width="0.576" x1="34.2" x2="36"  stroke="#FFFFFF"/>
                        <line fill="none" y1="45" y2="48.6" stroke-linecap="round" stroke-width="0.576" x1="36" x2="36"  stroke="#FFFFFF"/>
                        <line fill="none" y1="0" y2="0" stroke-linecap="round" stroke-width="0.576" x1="30.6" x2="34.2"  stroke="#FFFFFF"/>
                    </g>
                </g>
                <g >
                    <title >element:SJ1</title>
                    <g >
                        <title >package:SJ_2S-NOTRACE</title>
                        <line fill="none" y1="5.9" y2="1.3" stroke-linecap="round" stroke-width="0.576" x1="15.2" x2="15.2"  stroke="#FFFFFF"/>
                        <path d="M20,6.4c0.4,0.1,0.8-0.2,0.9-0.6c0,0,0,0,0,0" fill="none" stroke-width="0.576"  stroke="#FFFFFF"/>
                        <path d="M20.8,1.3c-0.1-0.4-0.5-0.6-0.8-0.6c0,0,0,0,0,0" fill="none" stroke-width="0.576"  stroke="#FFFFFF"/>
                        <path d="M16,0.8c-0.4-0.1-0.8,0.2-0.9,0.6c0,0,0,0,0,0" fill="none" stroke-width="0.576"  stroke="#FFFFFF"/>
                        <path d="M15.2,5.9c0.1,0.4,0.5,0.6,0.8,0.6c0,0,0,0,0,0" fill="none" stroke-width="0.576"  stroke="#FFFFFF"/>
                        <line fill="none" y1="1.3" y2="5.9" stroke-linecap="round" stroke-width="0.576" x1="20.8" x2="20.8"  stroke="#FFFFFF"/>
                    </g>
                </g>
                <g >
                    <title >element:U1</title>
                    <g >
                        <title >package:SO14</title>
                        <line fill="none" y1="37.2" y2="13.2" stroke-linecap="round" stroke-width="0.576" x1="23.5" x2="23.5"  stroke="#FFFFFF"/>
                        <path d="M12.5,37.5c0.1,0.5,0.6,0.9,1.1,0.8" fill="none" stroke-width="0.576"  stroke="#FFFFFF"/>
                        <path d="M23.5,13.2c-0.1-0.7-0.7-1.2-1.4-1.1c0,0,0,0,0,0" fill="none" stroke-width="0.576"  stroke="#FFFFFF"/>
                        <path d="M22.4,38.3c0.6,0,1.1-0.5,1.1-1.1c0,0,0,0,0,0" fill="none" stroke-width="0.576"  stroke="#FFFFFF"/>
                        <path d="M13.3,12.1c-0.5,0.1-0.9,0.6-0.8,1.1c0,0,0,0,0,0" fill="none" stroke-width="0.576"  stroke="#FFFFFF"/>
                        <line fill="none" y1="13.2" y2="37.5" stroke-linecap="round" stroke-width="0.576" x1="12.5" x2="12.5"  stroke="#FFFFFF"/>
                        <line fill="none" y1="38.3" y2="38.3" stroke-linecap="round" stroke-width="0.576" x1="13.6" x2="22.4"  stroke="#FFFFFF"/>
                        <path d="M16.1,12.2c0,1,0.8,1.8,1.8,1.8c1,0,1.8-0.8,1.8-1.8" fill="none" stroke-width="0.576"  stroke="#FFFFFF"/>
                        <line fill="none" y1="12.1" y2="12.1" stroke-linecap="round" stroke-width="0.576" x1="22.1" x2="19.7"  stroke="#FFFFFF"/>
                        <line fill="none" y1="12.1" y2="12.1" stroke-linecap="round" stroke-width="0.576" x1="13.3" x2="16.1"  stroke="#FFFFFF"/>
                    </g>
                </g>
                <path d="M26,40.8c0,0,0.1,0.5-0.2,0.5c-0.2,0-0.6-0.2-0.9-0.4c-0.2-0.3-0.2-0.5,0-0.8c0.3-0.3,0.8-0.2,0.8-0.2s-0.9-0.8-1.9-0.1c-0.8,0.6-0.6,1.4,0.2,2.1c0.7,0.6,0.1,1.3-0.6,1.2c-0.5-0.1-0.7-0.4-0.6-0.7c0.1-0.2,0.4-0.3,0.4-0.3s-0.4-0.2-0.9,0c-0.4,0.2-0.8,0.5-0.7,1.4v4c0,0,0.4-0.5,0.9-1.1c0.6-0.6,0.8-1,1.4-1c1.1,0.1,1.9-0.4,2.4-1.2C27.5,42.7,26.7,41,26,40.8z" fill="#FFFFFF" />
                <path d="M17.1,44.7v-1.1l-1.2-0.2c-0.1-0.3-0.2-0.6-0.3-0.8l0.7-1l-0.7-0.7l-1,0.7c-0.3-0.2-0.5-0.3-0.8-0.3l-0.2-1.2h-1.1l-0.2,1.2c-0.3,0.1-0.6,0.2-0.8,0.3l-1-0.7l-0.7,0.7l0.7,1c-0.2,0.3-0.3,0.5-0.3,0.8l-1.2,0.2v1.1l1.2,0.2c0.1,0.3,0.2,0.6,0.3,0.8l-0.7,1l0.7,0.7l1-0.7c0.2,0.1,0.3,0.2,0.5,0.2l0.7-1.8c-0.4-0.2-0.7-0.6-0.7-1c0-0.6,0.5-1.1,1.1-1.1s1.1,0.5,1.1,1.1c0,0.5-0.3,0.9-0.7,1l0.7,1.8c0.2-0.1,0.3-0.1,0.5-0.2l1,0.7l0.7-0.7l-0.7-1c0.2-0.3,0.3-0.5,0.3-0.8C15.9,44.9,17.1,44.7,17.1,44.7z" id="path83576" fill="#FFFFFF"  gorn="0.2.0.1.12"/>
            </g>
            <rect height="5.7" fill="#8E8D8D" x="15.2" y="0.8" width="5.7" />
            <rect height="26.2" fill="#FFFFFF" x="12.5" y="12.1" width="11"  fill-opacity="0.15"/>
            <circle id="connector13pin" fill="none" cx="3.6" cy="46.8" stroke-width="1.224"  gorn="0.2.0.4" stroke="#9A916C" r="2.1"/>
            <circle id="connector5pin" fill="none" cx="3.6" cy="39.6" stroke-width="1.224"  gorn="0.2.0.5" stroke="#9A916C" r="2.1"/>
            <circle id="connector4pin" fill="none" cx="3.6" cy="32.4" stroke-width="1.224"  gorn="0.2.0.6" stroke="#9A916C" r="2.1"/>
            <circle id="connector3pin" fill="none" cx="3.6" cy="25.2" stroke-width="1.224"  gorn="0.2.0.7" stroke="#9A916C" r="2.1"/>
            <circle id="connector2pin" fill="none" cx="3.6" cy="18" stroke-width="1.224"  gorn="0.2.0.8" stroke="#9A916C" r="2.1"/>
            <circle id="connector1pin" fill="none" cx="3.6" cy="10.8" stroke-width="1.224"  gorn="0.2.0.9" stroke="#9A916C" r="2.1"/>
            <circle id="connector0pin" fill="none" cx="3.6" cy="3.6" stroke-width="1.224"  gorn="0.2.0.10" stroke="#9A916C" r="2.1"/>
            <circle id="connector12pin" fill="none" cx="32.4" cy="46.8" stroke-width="1.224"  gorn="0.2.0.11" stroke="#9A916C" r="2.1"/>
            <circle id="connector11pin" fill="none" cx="32.4" cy="39.6" stroke-width="1.224"  gorn="0.2.0.12" stroke="#9A916C" r="2.1"/>
            <circle id="connector10pin" fill="none" cx="32.4" cy="32.4" stroke-width="1.224"  gorn="0.2.0.13" stroke="#9A916C" r="2.1"/>
            <circle id="connector9pin" fill="none" cx="32.4" cy="25.2" stroke-width="1.224"  gorn="0.2.0.14" stroke="#9A916C" r="2.1"/>
            <circle id="connector8pin" fill="none" cx="32.4" cy="18" stroke-width="1.224"  gorn="0.2.0.15" stroke="#9A916C" r="2.1"/>
            <circle id="connector7pin" fill="none" cx="32.4" cy="10.8" stroke-width="1.224"  gorn="0.2.0.16" stroke="#9A916C" r="2.1"/>
            <circle id="connector6pin" fill="none" cx="32.4" cy="3.6" stroke-width="1.224"  gorn="0.2.0.17" stroke="#9A916C" r="2.1"/>
        </g>
        <g transform="matrix(1, 0, 0, 1, 7.32298, 5.81475)" >
            <g >
                <g id="_x30_603-cap"  gorn="0.2.1.0.0">
                    <g transform="matrix(0, 1, -1, 0, 5.386, -2.552)" >
                        <g >
                            <g >
                                <g transform="matrix(2.578893e-06 1 -1 2.578893e-06 5.3995 -2.5655)" >
                                    <g >
                                        <rect height="8" fill="#AF6C41" x="2.6" y="-2.6" width="2.8" />
                                    </g>
                                </g>
                                <g >
                                    <g >
                                        <path d="M6.8,0L6.8,0L6.8,0L6.8,0L6.8,0C6.6,0.3,6.6,0.8,6.6,1.1c0,0.3,0,1.5,0.1,1.7l0,0l0,0h1.2V0H6.8z" fill="#DCDCDC" />
                                        <path d="M1.2,0.1V0H0v2.9h1.2c0.1-0.3,0.2-1.4,0.2-1.7C1.4,0.8,1.3,0.4,1.2,0.1z" fill="#DCDCDC" />
                                    </g>
                                </g>
                                <g transform="matrix(2.578893e-06 1 -1 2.578893e-06 4.0535 -3.9115)" >
                                    <g >
                                        <rect height="8" fill="#FFFFFF" x="3.9" y="-3.9" width="0.1" opacity="0.2" enable-background="new    " />
                                    </g>
                                </g>
                                <g transform="matrix(2.578893e-06 1 -1 2.578893e-06 6.7455 -1.2195)" >
                                    <g >
                                        <rect height="8" x="3.9" y="-1.2" width="0.1" opacity="0.2" enable-background="new    " />
                                    </g>
                                </g>
                            </g>
                        </g>
                    </g>
                </g>
            </g>
        </g>
        <g transform="matrix(1, 0, 0, 1, 21.723, 5.81475)" >
            <g >
                <g id="_x30_603-cap_1_"  gorn="0.2.2.0.0">
                    <g transform="matrix(0, 1, -1, 0, 5.386, -2.552)" >
                        <g >
                            <g >
                                <g transform="matrix(2.578893e-06 1 -1 2.578893e-06 5.3995 -2.5655)" >
                                    <g >
                                        <rect height="8" fill="#AF6C41" x="2.6" y="-2.6" width="2.8" />
                                    </g>
                                </g>
                                <g >
                                    <g >
                                        <path d="M6.8,0L6.8,0L6.8,0L6.8,0L6.8,0C6.6,0.3,6.6,0.8,6.6,1.1c0,0.3,0,1.5,0.1,1.7l0,0l0,0h1.2V0H6.8z" fill="#DCDCDC" />
                                        <path d="M1.2,0.1V0H0v2.9h1.2c0.1-0.3,0.2-1.4,0.2-1.7C1.4,0.8,1.3,0.4,1.2,0.1z" fill="#DCDCDC" />
                                    </g>
                                </g>
                                <g transform="matrix(2.578893e-06 1 -1 2.578893e-06 4.0535 -3.9115)" >
                                    <g >
                                        <rect height="8" fill="#FFFFFF" x="3.9" y="-3.9" width="0.1" opacity="0.2" enable-background="new    " />
                                    </g>
                                </g>
                                <g transform="matrix(2.578893e-06 1 -1 2.578893e-06 6.7455 -1.2195)" >
                                    <g >
                                        <rect height="8" x="3.9" y="-1.2" width="0.1" opacity="0.2" enable-background="new    " />
                                    </g>
                                </g>
                            </g>
                        </g>
                    </g>
                </g>
            </g>
        </g>
    </g>
    <g transform="matrix(1, 0, 0, 1, 14.184, 10.008)" >
        <g >
            <g >
                <rect height="25.2" fill="#333333" x="-1" y="2.7" width="9.7" />
                <g >
                    <g transform="matrix(0.5, 0, 0, 0.5, 7.308, 5.796)" >
                        <g >
                            <g >
                                <g >
                                    <rect height="3.8" fill="#8C8C8C" x="-24.7" y="-5.4" width="11.7" />
                                    <rect height="3.8" fill="#8C8C8C" x="-24.7" y="1.9" width="11.7" />
                                    <rect height="3.8" fill="#8C8C8C" x="-24.7" y="9.3" width="11.7" />
                                    <rect height="3.8" fill="#8C8C8C" x="-24.7" y="16.6" width="11.7" />
                                    <rect height="3.8" fill="#8C8C8C" x="-24.7" y="24" width="11.7" />
                                    <rect height="3.8" fill="#8C8C8C" x="-24.7" y="31.3" width="11.7" />
                                    <rect height="3.8" fill="#8C8C8C" x="-24.7" y="38.6" width="11.7" />
                                    <rect height="3.8" fill="#8C8C8C" x="-1.2" y="38.6" width="11.7" />
                                    <rect height="3.8" fill="#8C8C8C" x="-1.2" y="31.3" width="11.7" />
                                    <rect height="3.8" fill="#8C8C8C" x="-1.2" y="24" width="11.7" />
                                    <rect height="3.8" fill="#8C8C8C" x="-1.2" y="16.6" width="11.7" />
                                    <rect height="3.8" fill="#8C8C8C" x="-1.2" y="9.3" width="11.7" />
                                    <rect height="3.8" fill="#8C8C8C" x="-1.2" y="1.9" width="11.7" />
                                    <rect height="3.8" fill="#8C8C8C" x="-1.2" y="-5.4" width="11.7" />
                                    <rect height="51.4" fill="#303030" x="-17" y="-6.7" width="19.8" />
                                    <polygon fill="#1F1F1F"  points="2.8,-6.7 2.8,44.8 1.6,43.5 1.6,-5.4 "/>
                                    <polygon fill="#1F1F1F"  points="-17,-6.7 -17,44.8 -15.6,43.5 -15.6,-5.4 "/>
                                    <polygon  points="2.8,-6.7 -17,-6.7 -15.6,-5.4 1.6,-5.4 "/>
                                    <polygon fill="#3D3D3D"  points="2.8,44.8 -17,44.8 -15.6,43.5 1.6,43.5 "/>
                                </g>
                            </g>
                        </g>
                    </g>
                </g>
            </g>
        </g>
    </g>
</svg>
