<?xml version='1.0' encoding='UTF-8' standalone='no'?>
<!-- Created with Fritzing (http://www.fritzing.org/) -->
<svg xmlns="http://www.w3.org/2000/svg" viewBox="0 0 57.599818 57.599998" gorn="0" id="svg2" x="0in" y="0in" width="71.999771" version="1.2" height="71.999771" >
    <desc>
        <referenceFile>SparkFun_Micro-OLED_Breakout_breadboard.svg</referenceFile>
    </desc>
    <metadata id="metadata378" >
        <rdf:RDF xmlns:rdf="http://www.w3.org/1999/02/22-rdf-syntax-ns#">
            <cc:Work xmlns:cc="http://creativecommons.org/ns#" rdf:about="" xmlns:rdf="http://www.w3.org/1999/02/22-rdf-syntax-ns#">
                <dc:format xmlns:dc="http://purl.org/dc/elements/1.1/">image/svg+xml</dc:format>
                <dc:type rdf:resource="http://purl.org/dc/dcmitype/StillImage" xmlns:dc="http://purl.org/dc/elements/1.1/" xmlns:rdf="http://www.w3.org/1999/02/22-rdf-syntax-ns#"/>
            </cc:Work>
        </rdf:RDF>
    </metadata>
    <defs id="defs376" />
    <desc id="desc4" >Fritzing breadboard generated by brd2svg</desc>
    <path gorn="0.3" d="m -9.1818467e-5,57.6 0,-57.6 L 57.599908,0 l 0,57.6 -57.599999818467,0 M 51.080208,47.0778 a 1.13386,1.13386 0 1 0 2.26772,0 1.13386,1.13386 0 1 0 -2.26772,0 z m -47.4802998,0 a 1.13386,1.13386 0 0 0 2.26772,0 1.13386,1.13386 0 1 0 -2.26772,0 z M 52.559908,3.6 a 1.44,1.44 0 0 0 2.88,0 1.44,1.44 0 1 0 -2.88,0 z m -7.2,0 a 1.44,1.44 0 0 0 2.88,0 1.44,1.44 0 1 0 -2.88,0 z m -7.2,0 a 1.44,1.44 0 0 0 2.88,0 1.44,1.44 0 1 0 -2.88,0 z m -7.2,0 a 1.44,1.44 0 0 0 2.88,0 1.44,1.44 0 1 0 -2.88,0 z m -7.2,0 a 1.44,1.44 0 1 0 2.88,0 1.44,1.44 0 1 0 -2.88,0 z m -7.2,0 a 1.44,1.44 0 1 0 2.88,0 1.44,1.44 0 1 0 -2.88,0 z m -7.1999998,0 a 1.44,1.44 0 1 0 2.8799998,0 1.44,1.44 0 1 0 -2.8799998,0 z m -7.2,0 a 1.44,1.44 0 0 0 2.88,0 1.44,1.44 0 1 0 -2.88,0 z m 0,50.4 a 1.44,1.44 0 0 0 2.88,0 1.44,1.44 0 1 0 -2.88,0 z m 7.2,0 a 1.44,1.44 0 1 0 2.8799998,0 1.44,1.44 0 1 0 -2.8799998,0 z m 7.1999998,0 a 1.44,1.44 0 1 0 2.88,0 1.44,1.44 0 1 0 -2.88,0 z m 7.2,0 a 1.44,1.44 0 1 0 2.88,0 1.44,1.44 0 1 0 -2.88,0 z m 7.2,0 a 1.44,1.44 0 0 0 2.88,0 1.44,1.44 0 1 0 -2.88,0 z m 7.2,0 a 1.44,1.44 0 0 0 2.88,0 1.44,1.44 0 1 0 -2.88,0 z m 7.2,0 a 1.44,1.44 0 0 0 2.88,0 1.44,1.44 0 1 0 -2.88,0 z m 7.2,0 a 1.44,1.44 0 0 0 2.88,0 1.44,1.44 0 1 0 -2.88,0 z" id="path8" style="fill:#e6321e;stroke:none" />
    <g transform="translate(-1.0800918,3.20001)" >
        <g gorn="0.4.0" id="g14" >
            <title id="title16" >text:CS</title>
            <text gorn="0.4.0.1" id="text18" style="font-size:2.92319989px;text-anchor:middle;fill:#ffffff;stroke:#ffffff;stroke-width:0.27000001;font-family:OCRA" x="4.8600001" font-size="2.9232" y="6.8400002" >CS</text>
        </g>
    </g>
    <g transform="translate(-1.0800918,3.20001)" >
        <g gorn="0.5.0" id="g20" >
            <title id="title22" >text:RST</title>
            <text gorn="0.5.0.1" id="text24" style="font-size:2.92319989px;text-anchor:middle;fill:#ffffff;stroke:#ffffff;stroke-width:0.27000001;font-family:OCRA" x="12.06" font-size="2.9232" y="6.8400002" >RST</text>
        </g>
    </g>
    <g transform="translate(-1.0800918,3.20001)" >
        <g gorn="0.6.0" id="g26" >
            <title id="title28" >text:D/C</title>
            <text gorn="0.6.0.1" id="text30" style="font-size:2.92319989px;text-anchor:middle;fill:#ffffff;stroke:#ffffff;stroke-width:0.27000001;font-family:OCRA" x="19.26" font-size="2.9232" y="6.8400002" >D/C</text>
        </g>
    </g>
    <g transform="translate(-1.0800918,3.20001)" >
        <g gorn="0.7.0" id="g32" >
            <title id="title34" >text:D2</title>
            <text gorn="0.7.0.1" id="text36" style="font-size:2.92319989px;text-anchor:middle;fill:#ffffff;stroke:#ffffff;stroke-width:0.27000001;font-family:OCRA" x="26.459999" font-size="2.9232" y="6.8400002" >D2</text>
        </g>
    </g>
    <g transform="translate(-1.0800918,3.20001)" >
        <g gorn="0.8.0" id="g38" >
            <title id="title40" >text:VDD</title>
            <text gorn="0.8.0.1" id="text42" style="font-size:2.92319989px;text-anchor:middle;fill:#ffffff;stroke:#ffffff;stroke-width:0.27000001;font-family:OCRA" x="48.060001" font-size="2.9232" y="6.8400002" >VDD</text>
        </g>
    </g>
    <g transform="translate(-1.0800918,3.20001)" >
        <g gorn="0.9.0" id="g44" >
            <title id="title46" >text:GND</title>
            <text gorn="0.9.0.1" id="text48" style="font-size:2.92319989px;text-anchor:middle;fill:#ffffff;stroke:#ffffff;stroke-width:0.27000001;font-family:OCRA" x="55.259998" font-size="2.9232" y="6.8400002" >GND</text>
        </g>
    </g>
    <g transform="translate(-1.0800918,0)" >
        <g gorn="0.10.0" id="g50" >
            <title id="title52" >text:D3</title>
            <text gorn="0.10.0.1" id="text54" style="font-size:2.92319989px;text-anchor:middle;fill:#ffffff;stroke:#ffffff;stroke-width:0.27000001;font-family:OCRA" x="26.639999" font-size="2.9232" y="50.759998" >D3</text>
        </g>
    </g>
    <g transform="translate(-1.0800918,0)" >
        <g gorn="0.11.0" id="g56" >
            <title id="title58" >text:D4</title>
            <text gorn="0.11.0.1" id="text60" style="font-size:2.92319989px;text-anchor:middle;fill:#ffffff;stroke:#ffffff;stroke-width:0.27000001;font-family:OCRA" x="33.84" font-size="2.9232" y="50.759998" >D4</text>
        </g>
    </g>
    <g transform="translate(-1.0800918,0)" >
        <g gorn="0.12.0" id="g62" >
            <title id="title64" >text:D5</title>
            <text gorn="0.12.0.1" id="text66" style="font-size:2.92319989px;text-anchor:middle;fill:#ffffff;stroke:#ffffff;stroke-width:0.27000001;font-family:OCRA" x="41.040001" font-size="2.9232" y="50.759998" >D5</text>
        </g>
    </g>
    <g transform="translate(-1.0800918,0)" >
        <g gorn="0.13.0" id="g68" >
            <title id="title70" >text:D6</title>
            <text gorn="0.13.0.1" id="text72" style="font-size:2.92319989px;text-anchor:middle;fill:#ffffff;stroke:#ffffff;stroke-width:0.27000001;font-family:OCRA" x="48.240002" font-size="2.9232" y="50.759998" >D6</text>
        </g>
    </g>
    <g transform="translate(-1.0800918,0)" >
        <g gorn="0.14.0" id="g74" >
            <title id="title76" >text:D7</title>
            <text gorn="0.14.0.1" id="text78" style="font-size:2.92319989px;text-anchor:middle;fill:#ffffff;stroke:#ffffff;stroke-width:0.27000001;font-family:OCRA" x="55.439999" font-size="2.9232" y="50.759998" >D7</text>
        </g>
    </g>
    <g transform="translate(-1.0800918,3.20001)" >
        <g gorn="0.15.0" id="g80" >
            <title id="title82" >text:D0</title>
            <text gorn="0.15.0.1" id="text84" style="font-size:2.92319989px;text-anchor:middle;fill:#ffffff;stroke:#ffffff;stroke-width:0.27000001;font-family:OCRA" x="33.66" font-size="2.9232" y="6.8400002" >D0</text>
        </g>
    </g>
    <g transform="translate(-1.0800918,3.20001)" >
        <g gorn="0.16.0" id="g86" >
            <title id="title88" >text:SCK</title>
            <text gorn="0.16.0.1" id="text90" style="font-size:2.92319989px;text-anchor:middle;fill:#ffffff;stroke:#ffffff;stroke-width:0.27000001;font-family:OCRA" x="33.84" font-size="2.9232" y="9.7200003" >SCK</text>
        </g>
    </g>
    <g transform="translate(-1.0800918,3.20001)" >
        <g gorn="0.17.0" id="g92" >
            <title id="title94" >text:D1</title>
            <text gorn="0.17.0.1" id="text96" style="font-size:2.92319989px;text-anchor:middle;fill:#ffffff;stroke:#ffffff;stroke-width:0.27000001;font-family:OCRA" x="40.860001" font-size="2.9232" y="6.8400002" >D1</text>
        </g>
    </g>
    <g transform="translate(-1.0800918,3.20001)" >
        <g gorn="0.18.0" id="g98" >
            <title id="title100" >text:SDI</title>
            <text gorn="0.18.0.1" id="text102" style="font-size:2.92319989px;text-anchor:middle;fill:#ffffff;stroke:#ffffff;stroke-width:0.27000001;font-family:OCRA" x="41.220001" font-size="2.9232" y="9.7200003" >SDI</text>
        </g>
    </g>
    <g transform="translate(-1.0800918,0)" >
        <g gorn="0.19.0" id="g110" >
            <title id="title112" >text:VB</title>
            <text gorn="0.19.0.1" id="text114" style="font-size:2.92319989px;text-anchor:middle;fill:#ffffff;stroke:#ffffff;stroke-width:0.27000001;font-family:OCRA" x="5.04" font-size="2.9232" y="50.759998" >VB</text>
        </g>
    </g>
    <g transform="translate(-1.0800918,0)" >
        <g gorn="0.20.0" id="g116" >
            <title id="title118" >text:WR</title>
            <text gorn="0.20.0.1" id="text120" style="font-size:2.92319989px;text-anchor:middle;fill:#ffffff;stroke:#ffffff;stroke-width:0.27000001;font-family:OCRA" x="12.24" font-size="2.9232" y="50.759998" >WR</text>
        </g>
    </g>
    <g transform="translate(-1.0800918,0)" >
        <g gorn="0.21.0" id="g122" >
            <title id="title124" >text:RD</title>
            <text gorn="0.21.0.1" id="text126" style="font-size:2.92319989px;text-anchor:middle;fill:#ffffff;stroke:#ffffff;stroke-width:0.27000001;font-family:OCRA" x="19.440001" font-size="2.9232" y="50.759998" >RD</text>
        </g>
    </g>
    <g transform="translate(-1.0800918,3.20001)" >
        <g gorn="0.22.0" id="g128" >
            <title id="title130" >text:SDO</title>
            <text gorn="0.22.0.1" id="text132" style="font-size:2.92319989px;text-anchor:middle;fill:#ffffff;stroke:#ffffff;stroke-width:0.27000001;font-family:OCRA" x="26.459999" font-size="2.9232" y="9.7200003" >SDO</text>
        </g>
    </g>
    <g transform="translate(-1.0800918,0)" >
        <g gorn="0.23.0" id="g134" >
            <title id="title136" >text:E</title>
            <text gorn="0.23.0.1" id="text138" style="font-size:2.92319989px;text-anchor:middle;fill:#ffffff;stroke:#ffffff;stroke-width:0.27000001;font-family:OCRA" x="18.360001" font-size="2.9232" y="47.880001" >E</text>
        </g>
    </g>
    <g transform="translate(-1.0800918,0)" >
        <g gorn="0.24.0" id="g140" >
            <title id="title142" >text:R/W</title>
            <text gorn="0.24.0.1" id="text144" style="font-size:2.92319989px;text-anchor:middle;fill:#ffffff;stroke:#ffffff;stroke-width:0.27000001;font-family:OCRA" x="12.24" font-size="2.9232" y="47.880001" >R/W</text>
        </g>
    </g>
    <g transform="translate(-1.0800918,0)" >
        <g gorn="0.25.0" id="g146" >
            <title id="title148" >element:C1</title>
            <g gorn="0.25.0.1" id="g150" >
                <title id="title152" >package:0603</title>
            </g>
        </g>
    </g>
    <g transform="translate(-1.0800918,0)" >
        <g gorn="0.26.0" id="g154" >
            <title id="title156" >element:C2</title>
            <g gorn="0.26.0.1" id="g158" >
                <title id="title160" >package:0603</title>
            </g>
        </g>
    </g>
    <g transform="translate(-1.0800918,0)" >
        <g gorn="0.27.0" id="g162" >
            <title id="title164" >element:C3</title>
            <g gorn="0.27.0.1" id="g166" >
                <title id="title168" >package:0603</title>
            </g>
        </g>
    </g>
    <g transform="translate(-1.0800918,0)" >
        <g gorn="0.28.0" id="g170" >
            <title id="title172" >element:C4</title>
            <g gorn="0.28.0.1" id="g174" >
                <title id="title176" >package:0603</title>
            </g>
        </g>
    </g>
    <g transform="translate(-1.0800918,0)" >
        <g gorn="0.29.0" id="g178" >
            <title id="title180" >element:C5</title>
            <g gorn="0.29.0.1" id="g182" >
                <title id="title184" >package:0603</title>
            </g>
        </g>
    </g>
    <g transform="translate(-1.0800918,0)" >
        <g gorn="0.30.0" id="g186" >
            <title id="title188" >element:C6</title>
            <g gorn="0.30.0.1" id="g190" >
                <title id="title192" >package:0603</title>
            </g>
        </g>
    </g>
    <g transform="translate(-1.0800918,0)" >
        <g gorn="0.31.0" id="g194" >
            <title id="title196" >element:FID1</title>
            <g gorn="0.31.0.1" id="g198" >
                <title id="title200" >package:FIDUCIAL-1X2</title>
            </g>
        </g>
    </g>
    <g transform="translate(-1.0800918,0)" >
        <g gorn="0.32.0" id="g202" >
            <title id="title204" >element:FID2</title>
            <g gorn="0.32.0.1" id="g206" >
                <title id="title208" >package:FIDUCIAL-1X2</title>
            </g>
        </g>
    </g>
    <g transform="translate(-1.0800918,0)" >
        <g gorn="0.33.0" id="g210" >
            <title id="title212" >element:FRAME1</title>
            <g gorn="0.33.0.1" id="g214" >
                <title id="title216" >package:CREATIVE_COMMONS</title>
            </g>
        </g>
    </g>
    <g transform="translate(-1.0800918,0)" >
        <g gorn="0.34.0" id="g218" >
            <title id="title220" >element:JP1</title>
            <g gorn="0.34.0.1" id="g222" >
                <title id="title224" >package:1X08_PIN1_NO_SILK</title>
            </g>
        </g>
    </g>
    <g transform="translate(-1.0800918,0)" >
        <g gorn="0.35.0" id="g226" >
            <title id="title228" >element:JP2</title>
            <g gorn="0.35.0.1" id="g230" >
                <title id="title232" >package:1X08_PIN1_NO_SILK</title>
            </g>
        </g>
    </g>
    <g transform="matrix(0.61013171,0,0,0.57266434,-1.9022942,13.850435)" >
        <g gorn="0.36.0" id="g234" >
            <title id="title236" >element:LOGO1</title>
            <g gorn="0.36.0.1" id="g238" >
                <title id="title240" >package:SFE_LOGO_FLAME_.1</title>
                <g gorn="0.36.0.1.1" id="g242" >
                    <title id="title244" >polygon</title>
                    <path gorn="0.36.0.1.1.1" d="m 7.33889,17.7818 0,0.2551 m 0,0 -0.02837,0.085 m 0,0 -0.0283,0.0567 m 0,0 -0.08506,0.085 m 0,0 -0.08504,0.0284 m 0,0 -0.08504,0 m 0,0 -0.22677,-0.0567 m 0,0 -0.11338,-0.0567 m 0,0 -0.08504,-0.0567 m 0,0 -0.11339,-0.085 m 0,0 -0.17008,-0.1701 m 0,0 -0.11338,-0.1701 m 0,0 -0.02835,-0.1134 m 0,0 0,-0.1701 m 0,0 0.02835,-0.085 m 0,0 0.02835,-0.0567 m 0,0 0.05669,-0.085 m 0,0 0.11338,-0.0851 m 0,0 0.11339,-0.0567 m 0,0 0.14173,-0.0283 m 0,0 0.11339,-0.0284 m 0,0 0.17008,0 m 0,0 0.05669,0.0284 m 0,0 0.02834,0 m 0,0 -0.02834,-0.0284 m 0,0 -0.11339,-0.085 m 0,0 -0.39685,-0.1984 m 0,0 -0.25511,-0.0568 m 0,0 -0.28347,0 m 0,0 -0.31181,0.0568 m 0,0 -0.31181,0.17 m 0,0 -0.25512,0.1985 m 0,0 -0.14173,0.2268 m 0,0 -0.08504,0.2551 m 0,0 0,0.2268 m 0,0 0.05669,0.2551 m 0,0 0.14174,0.2551 m 0,0 0.19842,0.2268 m 0,0 0.22677,0.2551 m 0,0 0.19843,0.1984 m 0,0 0.08504,0.2268 m 0,0 0,0.1983 m 0,0 -0.0567,0.1702 m 0,0 -0.11338,0.1417 m 0,0 -0.17008,0.1134 m 0,0 -0.22677,0.0566 m 0,0 -0.22677,0 m 0,0 -0.14173,-0.0283 m 0,0 -0.14174,-0.0567 m 0,0 -0.17007,-0.1701 m 0,0 -0.0567,-0.085 m 0,0 -0.02834,-0.085 m 0,0 0,-0.1134 m 0,0 0.02834,-0.085 m 0,0 0.17008,-0.1701 m 0,0 0.08504,-0.0284 m 0,0 0.11339,-0.0566 m 0,0 0.02834,-0.0284 m 0,0 -0.11338,-0.0567 m 0,0 -0.34016,0 m 0,0 -0.17009,0.0283 m 0,0 -0.14173,0.0284 m 0,0 -0.14173,0.0567 m 0,0 -0.11339,0.085 m 0,0 -0.14173,0.1134 m 0,0 -0.17008,0.2834 m 0,0 -0.05669,0.1985 m 0,0 -0.02835,0.2268 m 0,0 0,3.8834 m 0,0 0.14174,-0.1417 m 0,0 0.08504,-0.1417 m 0,0 0.14173,-0.1418 m 0,0 0.14173,-0.1701 m 0,0 0.34016,-0.3401 m 0,0 0.34016,-0.3968 m 0,0 0.28346,-0.2835 m 0,0 0.28347,-0.1701 m 0,0 0.17008,-0.0283 m 0,0 0.53858,0 m 0,0 0.34016,-0.0567 m 0,0 0.31181,-0.0851 m 0,0 0.28346,-0.1133 m 0,0 0.28346,-0.1702 m 0,0 0.22677,-0.1983 m 0,0 0.2268,-0.2268 m 0,0 0.19843,-0.2551 m 0,0 0.28346,-0.5103 m 0,0 0.1417,-0.5386 m 0,0 0.02837,-0.4818 m 0,0 -0.08503,-0.4536 m 0,0 -0.14177,-0.4252 m 0,0 -0.19843,-0.3118 m 0,0 -0.22673,-0.2551 m 0,0 -0.2268,-0.1417 m -3.91181,5.9782 0.05953,0 m -0.05953,-0.216 0.22201,0 m -0.22201,-0.216 0.42379,0 m -0.42379,-0.216 0.6225,0 m -0.6225,-0.216 0.8385,0 m -0.8385,-0.216 1.02534,0 m -1.02534,-0.216 1.2138,0 m -1.2138,-0.216 1.4298,0 m -1.4298,-0.216 1.76769,0 m -1.76769,-0.216 3.23718,0 M 3.42708,21.6 l 3.65197,0 m -3.65197,-0.216 3.90922,0 m -3.90922,-0.216 4.12558,0 m -4.12558,-0.216 4.29643,0 m -4.29643,-0.216 4.42805,0 m -4.42805,-0.216 4.54807,0 m -4.54807,-0.216 4.64304,0 m -4.64304,-0.216 4.69985,0 m -4.69184,-0.216 1.48586,0 m 0.2931,0 2.96969,0 m -4.71308,-0.216 1.06534,0 m 1.08805,0 2.57668,0 m -4.64608,-0.216 0.86457,0 m 1.3181,0 2.47615,0 m -4.52701,-0.216 0.79285,0 m 1.27219,0 2.43893,0 m -4.20067,-0.216 0.81156,0 m 0.87853,0 2.47005,0 m -2.66373,-0.216 2.60526,0 m -2.79928,-0.216 2.72728,0 m -2.91707,-0.216 2.80554,0 m -2.94727,-0.216 1.67442,0 m 0.66445,0 0.46217,0 m -2.88476,-0.216 1.50274,0 m 0.95924,0 0.23083,0 m -2.72531,-0.216 1.37083,0 m -1.35117,-0.216 1.31262,0 m -1.23484,-0.216 1.28728,0 m -1.14628,-0.216 1.39545,0 m -1.10315,-0.216 1.40022,0" id="path246" style="fill:none;stroke:#ffffff;stroke-width:0.36541966;stroke-linecap:round" />
                </g>
            </g>
        </g>
    </g>
    <g transform="matrix(0.3983979,0,0,0.3675416,34.452196,17.635071)" >
        <g gorn="0.37.0" id="g248" >
            <title id="title250" >element:LOGO3</title>
            <g gorn="0.37.0.1" id="g252" >
                <title id="title254" >package:OSHW-LOGO-S</title>
                <g gorn="0.37.0.1.1" id="g256" >
                    <title id="title258" >polygon</title>
                    <path gorn="0.37.0.1.1.1" d="m 54.0388,21.2409 0.4304,-0.2217 m 0,0 1.0686,0.8713 m 0,0 0.7327,-0.7327 m 0,0 -0.8713,-1.0686 m 0,0 0.2217,-0.4305 m 0,0 0.1476,-0.4611 m 0,0 1.3717,-0.1394 m 0,0 0,-1.0364 m 0,0 -1.3717,-0.1394 m 0,0 -0.1476,-0.4611 m 0,0 -0.2217,-0.4305 m 0,0 0.8713,-1.0686 m 0,0 -0.7327,-0.7327 m 0,0 -1.0686,0.8713 m 0,0 -0.4305,-0.2217 m 0,0 -0.4611,-0.1476 m 0,0 -0.1394,-1.3717 m 0,0 -1.0364,0 m 0,0 -0.1394,1.3717 m 0,0 -0.4611,0.1476 m 0,0 -0.4305,0.2217 m 0,0 -1.0686,-0.8713 m 0,0 -0.7327,0.7327 m 0,0 0.8713,1.0686 m 0,0 -0.2217,0.4305 m 0,0 -0.1476,0.4611 m 0,0 -1.3717,0.1394 m 0,0 0,1.0364 m 0,0 1.3717,0.1394 m 0,0 0.1476,0.4611 m 0,0 0.2217,0.4305 m 0,0 -0.8713,1.0686 m 0,0 0.7327,0.7327 m 0,0 1.0686,-0.8713 m 0,0 0.4304,0.2217 m 0,0 0.6103,-1.4732 m 0,0 -0.2726,-0.1526 m 0,0 -0.2294,-0.212 m 0,0 -0.1735,-0.2598 m 0,0 -0.1082,-0.2931 m 0,0 -0.0367,-0.3102 m 0,0 0.0382,-0.3158 m 0,0 0.1121,-0.2976 m 0,0 0.1795,-0.2625 m 0,0 0.2369,-0.2123 m 0,0 0.2805,-0.1499 m 0,0 0.3081,-0.0789 m 0,0 0.3181,-0.0035 m 0,0 0.3097,0.0722 m 0,0 0.2837,0.1438 m 0,0 0.2414,0.2071 m 0,0 0.1853,0.2585 m 0,0 0.1185,0.2952 m 0,0 0.045,0.3148 m 0,0 -0.0311,0.3165 m 0,0 -0.1055,0.3001 m 0,0 -0.1737,0.2664 m 0,0 -0.2321,0.2175 m 0,0 -0.2772,0.1561 m 0,0 0.6103,1.4732 m -4.1108,0.2755 0.8331,0 m 4.3178,0 0.8331,0 m -6.2882,-0.4252 1.6588,0 m 0.228,0 0.3526,0 m 2.1136,0 0.3526,0 m 0.228,0 1.6588,0 m -6.2458,-0.4252 2.0689,0 m 1.7614,0 2.0689,0 m -5.5524,-0.4252 1.8983,0 m 1.409,0 1.8984,0 m -5.223,-0.4252 2.0917,0 m 1.0568,0 2.0917,0 m -5.4069,-0.4252 1.7679,0 m 2.0391,0 1.7666,0 m -7.007,-0.4252 2.9704,0 m 2.4984,0 2.9716,0 m -8.4404,-0.4252 2.8913,0 m 2.6542,0 2.8949,0 m -8.4404,-0.4252 2.9706,0 m 2.5,0 2.9698,0 m -7.007,-0.4252 1.7703,0 m 2.0295,0 1.7738,0 m -5.4069,-0.4252 2.2848,0 m 0.6723,0 2.2831,0 m -5.223,-0.4252 5.2057,0 m -5.5524,-0.4252 5.8992,0 m -6.2458,-0.4252 1.6588,0 m 0.2281,0 2.8187,0 m 0.228,0 1.6588,0 m -6.2882,-0.4252 0.8331,0 m 1.5143,0 1.2892,0 m 1.5143,0 0.8331,0 m -3.5934,-0.4252 1.2028,0 m -1.1595,-0.4252 1.1162,0" id="path260" style="fill:none;stroke:#ffffff;stroke-width:1.11116469;stroke-linecap:round" />
                </g>
            </g>
        </g>
    </g>
    <g transform="translate(-1.0800918,0)" >
        <g gorn="0.38.0" id="g262" >
            <title id="title264" >element:LOGO4</title>
            <g gorn="0.38.0.1" id="g266" >
                <title id="title268" >package:SFE_LOGO_FLAME_.1</title>
            </g>
        </g>
    </g>
    <g transform="translate(-1.0800918,0)" >
        <g gorn="0.39.0" id="g270" >
            <title id="title272" >element:OLED1</title>
            <g gorn="0.39.0.1" id="g274" >
                <title id="title276" >package:OLED-0.66-64X48</title>
            </g>
        </g>
    </g>
    <g transform="translate(-1.0800918,0)" >
        <g gorn="0.40.0" id="g278" >
            <title id="title280" >element:R1</title>
            <g gorn="0.40.0.1" id="g282" >
                <title id="title284" >package:0603</title>
            </g>
        </g>
    </g>
    <g transform="translate(-1.0800918,0)" >
        <g gorn="0.41.0" id="g286" >
            <title id="title288" >element:R2</title>
            <g gorn="0.41.0.1" id="g290" >
                <title id="title292" >package:0603-RES</title>
            </g>
        </g>
    </g>
    <g transform="translate(-1.0800918,0)" >
        <g gorn="0.42.0" id="g294" >
            <title id="title296" >element:SJ1</title>
            <g gorn="0.42.0.1" id="g298" >
                <title id="title300" >package:SMT-JUMPER_3_2-NC_PASTE_SILK</title>
            </g>
        </g>
    </g>
    <g transform="translate(-1.0800918,0)" >
        <g gorn="0.43.0" id="g302" >
            <title id="title304" >element:SJ2</title>
            <g gorn="0.43.0.1" id="g306" >
                <title id="title308" >package:SMT-JUMPER_3_2-NC_PASTE_SILK</title>
            </g>
        </g>
    </g>
    <g transform="translate(-1.0800918,0)" >
        <g gorn="0.44.0" id="g310" >
            <title id="title312" >element:SJ3</title>
            <g gorn="0.44.0.1" id="g314" >
                <title id="title316" >package:SMT-JUMPER_2_NC_TRACE_NO-SILK</title>
            </g>
        </g>
    </g>
    <g transform="translate(-1.0800918,0)" >
        <g gorn="0.45.0" id="g318" >
            <title id="title320" >element:SJ4</title>
            <g gorn="0.45.0.1" id="g322" >
                <title id="title324" >package:SMT-JUMPER_3_NO_SILK</title>
            </g>
        </g>
    </g>
    <g transform="translate(-1.0800918,0)" >
        <g gorn="0.46.0" id="g326" >
            <title id="title328" >element:SJ5</title>
            <g gorn="0.46.0.1" id="g330" >
                <title id="title332" >package:SMT-JUMPER_2_NO_NO-SILK</title>
            </g>
        </g>
    </g>
    <g transform="translate(-1.0800918,0)" >
        <g gorn="0.47.0" id="g334" >
            <title id="title336" >element:TP1</title>
            <g gorn="0.47.0.1" id="g338" >
                <title id="title340" >package:PAD.03X.05</title>
            </g>
        </g>
    </g>
    <g transform="translate(-1.0800918,0)" >
        <g gorn="0.48.0" id="g342" >
            <title id="title344" >element:TP2</title>
            <g gorn="0.48.0.1" id="g346" >
                <title id="title348" >package:PAD.03X.05</title>
            </g>
        </g>
    </g>
    <g transform="translate(-1.0800918,0)" >
        <circle r="2.052" gorn="0.49.0" connectorname="GND" id="connector14pin" style="fill:none;stroke:#9a916c;stroke-width:1.22399998" cx="55.080002" cy="3.5999999" />
    </g>
    <rect gorn="0.50" id="rect355" x="51.947906" style="fill:none;stroke:#9a916c;stroke-width:1.22399998" y="1.548" width="4.1040001" height="4.1040001" />
    <g transform="translate(-1.0800918,0)" >
        <circle r="2.052" gorn="0.51.0" connectorname="VDD" id="connector15pin" style="fill:none;stroke:#9a916c;stroke-width:1.22399998" cx="47.880001" cy="3.5999999" />
    </g>
    <g transform="translate(-1.0800918,0)" >
        <circle r="2.052" gorn="0.52.0" connectorname="D1/MOSI" id="connector16pin" style="fill:none;stroke:#9a916c;stroke-width:1.22399998" cx="40.68" cy="3.5999999" />
    </g>
    <g transform="translate(-1.0800918,0)" >
        <circle r="2.052" gorn="0.53.0" connectorname="D0/SCK" id="connector17pin" style="fill:none;stroke:#9a916c;stroke-width:1.22399998" cx="33.48" cy="3.5999999" />
    </g>
    <g transform="translate(-1.0800918,0)" >
        <circle r="2.052" gorn="0.54.0" connectorname="D2" id="connector18pin" style="fill:none;stroke:#9a916c;stroke-width:1.22399998" cx="26.280001" cy="3.5999999" />
    </g>
    <g transform="translate(-1.0800918,0)" >
        <circle r="2.052" gorn="0.55.0" connectorname="D/C" id="connector19pin" style="fill:none;stroke:#9a916c;stroke-width:1.22399998" cx="19.08" cy="3.5999999" />
    </g>
    <g transform="translate(-1.0800918,0)" >
        <circle r="2.052" gorn="0.56.0" connectorname="RESET" id="connector20pin" style="fill:none;stroke:#9a916c;stroke-width:1.22399998" cx="11.88" cy="3.5999999" />
    </g>
    <g transform="translate(-1.0800918,0)" >
        <circle r="2.052" gorn="0.57.0" connectorname="CS" id="connector21pin" style="fill:none;stroke:#9a916c;stroke-width:1.22399998" cx="4.6799998" cy="3.5999999" />
    </g>
    <g transform="translate(-1.0800918,0)" >
        <circle r="2.052" gorn="0.58.0" connectorname="VBAT" id="connector22pin" style="fill:none;stroke:#9a916c;stroke-width:1.22399998" cx="4.6799998" cy="54" />
    </g>
    <rect gorn="0.59" id="rect365" x="1.5479082" style="fill:none;stroke:#9a916c;stroke-width:1.22399998" y="51.948002" width="4.1040001" height="4.1040001" />
    <g transform="translate(-1.0800918,0)" >
        <circle r="2.052" gorn="0.60.0" connectorname="WR/RW" id="connector23pin" style="fill:none;stroke:#9a916c;stroke-width:1.22399998" cx="11.88" cy="54" />
    </g>
    <g transform="translate(-1.0800918,0)" >
        <circle r="2.052" gorn="0.61.0" connectorname="RD/E" id="connector24pin" style="fill:none;stroke:#9a916c;stroke-width:1.22399998" cx="19.08" cy="54" />
    </g>
    <g transform="translate(-1.0800918,0)" >
        <circle r="2.052" gorn="0.62.0" connectorname="D3" id="connector25pin" style="fill:none;stroke:#9a916c;stroke-width:1.22399998" cx="26.280001" cy="54" />
    </g>
    <g transform="translate(-1.0800918,0)" >
        <circle r="2.052" gorn="0.63.0" connectorname="D4" id="connector26pin" style="fill:none;stroke:#9a916c;stroke-width:1.22399998" cx="33.48" cy="54" />
    </g>
    <g transform="translate(-1.0800918,0)" >
        <circle r="2.052" gorn="0.64.0" connectorname="D5" id="connector27pin" style="fill:none;stroke:#9a916c;stroke-width:1.22399998" cx="40.68" cy="54" />
    </g>
    <g transform="translate(-1.0800918,0)" >
        <circle r="2.052" gorn="0.65.0" connectorname="D6" id="connector28pin" style="fill:none;stroke:#9a916c;stroke-width:1.22399998" cx="47.880001" cy="54" />
    </g>
    <g transform="translate(-1.0800918,0)" >
        <circle r="2.052" gorn="0.66.0" connectorname="D7" id="connector29pin" style="fill:none;stroke:#9a916c;stroke-width:1.22399998" cx="55.080002" cy="54" />
    </g>
    <g transform="matrix(0.72647356,0,0,0.59783756,-322.48791,-357.9029)" >
        <g gorn="0.67.0" id="g5705" >
            <g transform="matrix(0.68571486,0,0,0.55392727,448.42839,615.87426)" >
                <g gorn="0.67.0.0.0" id="Ebene_1" style="stroke-width:0" />
            </g>
            <g transform="matrix(0.88645498,0,0,0.55392727,439.17281,615.87426)" >
                <g gorn="0.67.0.1.0" id="Ebene_3" style="fill:#d4aa00;fill-opacity:1;stroke-width:0" >
                    <polygon gorn="0.67.0.1.0.0" id="polygon1615" style="fill:#d4aa00;fill-opacity:1;stroke-width:0" points="15.782,116.054 15.782,111.018 84.0139,111.018 84.0139,116.054 61.761,116.054 58.481,114.063 41.314,114.063 38.035,116.054 " />
                </g>
            </g>
            <g transform="matrix(0.62343572,0,0,0.55392727,451.85261,615.87426)" >
                <g gorn="0.67.0.2.0" id="g1620" style="fill:#aa8800;stroke-width:0" >
                    <polygon gorn="0.67.0.2.0.0" id="polygon1622" style="fill:#aa8800;stroke-width:0" points="0,112.041 0.06,89.7667 100.8,89.8272 100.74,112.041 " />
                    <g gorn="0.67.0.2.0.1" id="g1624" style="fill:#aa8800;stroke-width:0" >
                        <path gorn="0.67.0.2.0.1.0" d="m 100.681,89.8862 0,22.095 -100.561,-2e-4 0,-22.0948 100.561,0 m 0.119,-0.1195 -100.8,0 0,22.3333 100.8,0 0,-22.3333 0,0 z" id="path1626" style="fill:#aa8800;stroke-width:0" />
                    </g>
                </g>
            </g>
            <g transform="matrix(0.68571486,0,0,0.55392727,448.42839,615.87426)" >
                <g gorn="0.67.0.3.0" id="g1628" style="stroke-width:0" >
                    <rect gorn="0.67.0.3.0.0" id="rect1630" x="0.125" style="stroke-width:0" y="0.125" width="100.55" height="97.3498" />
                    <g gorn="0.67.0.3.0.1" id="g1632" style="stroke-width:0" >
                        <path gorn="0.67.0.3.0.1.0" d="m 100.55,0.25 0,97.0999 -100.3,-1e-4 0,-97.0998 100.3,0 M 100.8,0 0,0 l 0,97.6003 100.8,0 0,-97.6003 0,0 z" id="path1634" style="fill:#c9c9c9;stroke-width:0" />
                    </g>
                </g>
            </g>
            <g transform="matrix(0.68571486,0,0,0.68757183,448.42839,615.87426)" >
                <g gorn="0.67.0.4.0" id="g1644" style="stroke-width:0" >
                    <rect gorn="0.67.0.4.0.0" id="rect1646" x="0" style="fill:#ffffff;stroke-width:0" y="0" width="7.8799701" height="1.072" />
                    <rect gorn="0.67.0.4.0.1" id="rect1648" x="0" style="fill:#ffffff;stroke-width:0" y="13.409" width="1.072" height="7.8799701" />
                    <rect gorn="0.67.0.4.0.2" id="rect1650" x="0" style="fill:#ffffff;stroke-width:0" y="70.408997" width="1.072" height="7.8799701" />
                </g>
            </g>
            <g transform="matrix(0.68571486,0,0,0.68757183,448.42839,615.87426)" >
                <g gorn="0.67.0.5.0" id="g1652" style="stroke-width:0" >
                    <rect gorn="0.67.0.5.0.0" id="rect1654" x="92.920303" style="fill:#ffffff;stroke-width:0" y="0" width="7.8799701" height="1.072" />
                    <rect gorn="0.67.0.5.0.1" id="rect1656" x="99.727898" style="fill:#ffffff;stroke-width:0" y="13.409" width="1.072" height="7.8799701" />
                    <rect gorn="0.67.0.5.0.2" id="rect1658" x="99.727898" style="fill:#ffffff;stroke-width:0" y="70.408997" width="1.072" height="7.8799701" />
                </g>
            </g>
            <rect gorn="0.67.0.6" id="rect1660" x="448.42838" style="fill:#ffffff;stroke-width:0" y="677.96948" width="2.9965739" height="2.1902285" />
            <rect gorn="0.67.0.7" id="rect1662" x="459.25034" style="fill:#ffffff;stroke-width:0" y="679.22803" width="2.9965739" height="2.1902285" />
            <rect gorn="0.67.0.8" id="rect1664" x="471.38611" style="fill:#ffffff;stroke-width:0" y="679.22803" width="2.9965739" height="2.1902285" />
            <rect gorn="0.67.0.9" id="rect1666" x="514.55206" style="fill:#ffffff;stroke-width:0" y="677.96948" width="2.9965739" height="2.1902285" />
            <rect gorn="0.67.0.10" id="rect1676" x="455.77823" style="fill:#1a1a1a;stroke-width:0" y="669.52551" width="54.985714" height="5.4710603" />
        </g>
    </g>
</svg>
