<?xml version='1.0' encoding='utf-8'?>
<!DOCTYPE svg>
<!-- Generator: Adobe Illustrator 17.1.0, SVG Export Plug-In . SVG Version: 6.00 Build 0)  -->
<svg xmlns="http://www.w3.org/2000/svg" version="1.1" x="0px" xmlns:xml="http://www.w3.org/XML/1998/namespace" y="0px" width="1.09861in" gorn="0" viewBox="0 0 79.1 68.3"  xml:space="preserve" id="Layer_1" height="0.948611in" enable-background="new -7.9 -14.7 79.1 68.3">
    <desc >
        <referenceFile >track_ball_breadboard.svg</referenceFile>
    </desc>
    <g  transform="translate(7.9,14.7)">
        <g >
            <g >
                <desc >Fritzing breadboard generated by brd2svg</desc>
                <g gorn="0.1.0.0.1"  id="breadboard">
                    <g gorn="0.1.0.0.1.0"  id="icon">
                        <path  fill="#A81D16" d="M71.2-14.7H-7.9v68.3h79.1V-14.7z M54.7-11.1c0,0.8-0.6,1.4-1.4,1.4c-0.8,0-1.4-0.6-1.4-1.4l0,0c0-0.8,0.6-1.4,1.4-1.4C54.1-12.5,54.7-11.9,54.7-11.1z M47.5-11.1c0,0.8-0.6,1.4-1.4,1.4s-1.4-0.6-1.4-1.4s0.6-1.4,1.4-1.4S47.5-11.9,47.5-11.1z M40.3-11.1c0,0.8-0.6,1.4-1.4,1.4s-1.4-0.6-1.4-1.4l0,0c0-0.8,0.6-1.4,1.4-1.4S40.3-11.9,40.3-11.1z M69.1-11.1c0,0.8-0.6,1.4-1.4,1.4s-1.4-0.6-1.4-1.4l0,0c0-0.8,0.6-1.4,1.4-1.4S69.1-11.9,69.1-11.1z M61.9-11.1c0,0.8-0.6,1.4-1.4,1.4s-1.4-0.6-1.4-1.4s0.6-1.4,1.4-1.4S61.9-11.9,61.9-11.1z M33.1-11.1c0,0.8-0.6,1.4-1.4,1.4c-0.8,0-1.4-0.6-1.4-1.4l0,0c0-0.8,0.6-1.4,1.4-1.4C32.5-12.5,33.1-11.9,33.1-11.1z M25.9-11.1c0,0.8-0.6,1.4-1.4,1.4c-0.8,0-1.4-0.6-1.4-1.4s0.6-1.4,1.4-1.4C25.3-12.5,25.9-11.9,25.9-11.1z M18.7-11.1c0,0.8-0.6,1.4-1.4,1.4c-0.8,0-1.4-0.6-1.4-1.4s0.6-1.4,1.4-1.4S18.7-11.9,18.7-11.1z M11.5-11.1c0,0.8-0.6,1.4-1.4,1.4c-0.8,0-1.4-0.6-1.4-1.4s0.6-1.4,1.4-1.4S11.5-11.9,11.5-11.1z M4.3-11.1c0,0.8-0.6,1.4-1.4,1.4c-0.8,0-1.4-0.6-1.4-1.4s0.6-1.4,1.4-1.4C3.7-12.5,4.3-11.9,4.3-11.1z M-2.9-11.1c0,0.8-0.6,1.4-1.4,1.4c-0.8,0-1.4-0.6-1.4-1.4s0.6-1.4,1.4-1.4C-3.5-12.5-2.9-11.9-2.9-11.1z"/>
                        <g >
                            <g >
                                <title >text:GND</title>
                                <g  transform="matrix(1, 0, 0, 1, 55.08, 31.68)">
                                    <g >
                                        <g >
                                            <g  transform="rotate(270)">
                                                <g >
                                                    <g >
                                                        <g  transform="matrix(1 0 0 1 30.2484 -50.8043)">
                                                            <g >
                                                                <text  font-family="OCRA" fill="#FFFFFF" font-size="4">GND</text>
                                                            </g>
                                                        </g>
                                                    </g>
                                                </g>
                                            </g>
                                        </g>
                                    </g>
                                </g>
                                <g  transform="matrix(1, 0, 0, 1, 55.08, 31.68)">
                                    <g >
                                        <g >
                                            <g  transform="rotate(270)">
                                                <g >
                                                    <g >
                                                        <g  transform="matrix(1 0 0 1 30.2484 -57.9254)">
                                                            <g >
                                                                <text  font-family="OCRA" fill="#FFFFFF" font-size="4">VCC</text>
                                                            </g>
                                                        </g>
                                                    </g>
                                                </g>
                                            </g>
                                        </g>
                                    </g>
                                </g>
                                <g  transform="matrix(1, 0, 0, 1, 55.08, 31.68)">
                                    <g >
                                        <g >
                                            <g  transform="rotate(270)">
                                                <g >
                                                    <g >
                                                        <g  transform="matrix(1 0 0 1 30.2484 -44.2164)">
                                                            <g >
                                                                <text  font-family="OCRA" fill="#FFFFFF" font-size="4">BTN</text>
                                                            </g>
                                                        </g>
                                                    </g>
                                                </g>
                                            </g>
                                        </g>
                                    </g>
                                </g>
                                <g  transform="matrix(1, 0, 0, 1, 55.08, 31.68)">
                                    <g >
                                        <g >
                                            <g  transform="rotate(270)">
                                                <g >
                                                    <g >
                                                        <g  transform="matrix(1 0 0 1 30.2484 -36.2379)">
                                                            <g >
                                                                <text  font-family="OCRA" fill="#FFFFFF" font-size="4">LFT</text>
                                                            </g>
                                                        </g>
                                                    </g>
                                                </g>
                                            </g>
                                        </g>
                                    </g>
                                </g>
                                <g  transform="matrix(1, 0, 0, 1, 55.08, 31.68)">
                                    <g >
                                        <g >
                                            <g  transform="rotate(270)">
                                                <g >
                                                    <g >
                                                        <g  transform="matrix(1 0 0 1 30.2484 -29.191)">
                                                            <g >
                                                                <text  font-family="OCRA" fill="#FFFFFF" font-size="4">RHT</text>
                                                            </g>
                                                        </g>
                                                    </g>
                                                </g>
                                            </g>
                                        </g>
                                    </g>
                                </g>
                                <g  transform="matrix(1, 0, 0, 1, 55.08, 31.68)">
                                    <g >
                                        <g >
                                            <g  transform="rotate(270)">
                                                <g >
                                                    <g >
                                                        <g  transform="matrix(1 0 0 1 33.1087 -22.0524)">
                                                            <g >
                                                                <text  font-family="OCRA" fill="#FFFFFF" font-size="4">UP</text>
                                                            </g>
                                                        </g>
                                                    </g>
                                                </g>
                                            </g>
                                        </g>
                                    </g>
                                </g>
                                <g  transform="matrix(1, 0, 0, 1, 55.08, 31.68)">
                                    <g >
                                        <g >
                                            <g  transform="rotate(270)">
                                                <g >
                                                    <g >
                                                        <g  transform="matrix(1 0 0 1 30.2484 -15.1149)">
                                                            <g >
                                                                <text  font-family="OCRA" fill="#FFFFFF" font-size="4">DWN</text>
                                                            </g>
                                                        </g>
                                                    </g>
                                                </g>
                                            </g>
                                        </g>
                                    </g>
                                </g>
                                <g  transform="matrix(1, 0, 0, 1, 55.08, 31.68)">
                                    <g >
                                        <g >
                                            <g  transform="rotate(270)">
                                                <g >
                                                    <g >
                                                        <g  transform="matrix(1 0 0 1 30.2484 -7.4254)">
                                                            <g >
                                                                <text  font-family="OCRA" fill="#FFFFFF" font-size="4">WHT</text>
                                                            </g>
                                                        </g>
                                                    </g>
                                                </g>
                                            </g>
                                        </g>
                                    </g>
                                </g>
                                <g  transform="matrix(1, 0, 0, 1, 55.08, 31.68)">
                                    <g >
                                        <g >
                                            <g  transform="rotate(270)">
                                                <g >
                                                    <g >
                                                        <g  transform="matrix(1 0 0 1 30.2484 3.477479e-02)">
                                                            <g >
                                                                <text  font-family="OCRA" fill="#FFFFFF" font-size="4">GRN</text>
                                                            </g>
                                                        </g>
                                                    </g>
                                                </g>
                                            </g>
                                        </g>
                                    </g>
                                </g>
                                <g  transform="matrix(1, 0, 0, 1, 55.08, 31.68)">
                                    <g >
                                        <g >
                                            <g  transform="rotate(270)">
                                                <g >
                                                    <g >
                                                        <g  transform="matrix(1 0 0 1 30.2484 6.8598)">
                                                            <g >
                                                                <text  font-family="OCRA" fill="#FFFFFF" font-size="4">RED</text>
                                                            </g>
                                                        </g>
                                                    </g>
                                                </g>
                                            </g>
                                        </g>
                                    </g>
                                </g>
                                <g  transform="matrix(1, 0, 0, 1, 55.08, 31.68)">
                                    <g >
                                        <g >
                                            <g  transform="rotate(270)">
                                                <g >
                                                    <g >
                                                        <g  transform="matrix(1 0 0 1 30.2484 14.0786)">
                                                            <g >
                                                                <text  font-family="OCRA" fill="#FFFFFF" font-size="4">BLU</text>
                                                            </g>
                                                        </g>
                                                    </g>
                                                </g>
                                            </g>
                                        </g>
                                    </g>
                                </g>
                            </g>
                            <g >
                                <title >element:JP1</title>
                                <g >
                                    <title >package:1X09</title>
                                    <line y1="-7.5" stroke-linecap="round" y2="-7.5" stroke-width="0.576" x1="11.9" x2="8.3"  fill="none" stroke="#FFFFFF"/>
                                    <line y1="-7.5" stroke-linecap="round" y2="-9.3" stroke-width="0.576" x1="8.3" x2="6.5"  fill="none" stroke="#FFFFFF"/>
                                    <line y1="-12.9" stroke-linecap="round" y2="-14.4" stroke-width="0.576" x1="6.5" x2="8.4"  fill="none" stroke="#FFFFFF"/>
                                    <line y1="-9.3" stroke-linecap="round" y2="-7.5" stroke-width="0.576" x1="20.9" x2="19.1"  fill="none" stroke="#FFFFFF"/>
                                    <line y1="-7.5" stroke-linecap="round" y2="-7.5" stroke-width="0.576" x1="19.1" x2="15.5"  fill="none" stroke="#FFFFFF"/>
                                    <line y1="-7.5" stroke-linecap="round" y2="-9.3" stroke-width="0.576" x1="15.5" x2="13.7"  fill="none" stroke="#FFFFFF"/>
                                    <line y1="-12.9" stroke-linecap="round" y2="-14.4" stroke-width="0.576" x1="13.7" x2="15.6"  fill="none" stroke="#FFFFFF"/>
                                    <line y1="-14.4" stroke-linecap="round" y2="-14.4" stroke-width="0.576" x1="15.6" x2="19.2"  fill="none" stroke="#FFFFFF"/>
                                    <line y1="-14.4" stroke-linecap="round" y2="-12.9" stroke-width="0.576" x1="19.2" x2="20.9"  fill="none" stroke="#FFFFFF"/>
                                    <line y1="-7.5" stroke-linecap="round" y2="-9.3" stroke-width="0.576" x1="11.9" x2="13.7"  fill="none" stroke="#FFFFFF"/>
                                    <line y1="-12.9" stroke-linecap="round" y2="-14.4" stroke-width="0.576" x1="13.7" x2="12"  fill="none" stroke="#FFFFFF"/>
                                    <line y1="-14.4" stroke-linecap="round" y2="-14.4" stroke-width="0.576" x1="8.4" x2="12"  fill="none" stroke="#FFFFFF"/>
                                    <line y1="-7.5" stroke-linecap="round" y2="-7.5" stroke-width="0.576" x1="33.5" x2="29.9"  fill="none" stroke="#FFFFFF"/>
                                    <line y1="-7.5" stroke-linecap="round" y2="-9.3" stroke-width="0.576" x1="29.9" x2="28.1"  fill="none" stroke="#FFFFFF"/>
                                    <line y1="-12.9" stroke-linecap="round" y2="-14.4" stroke-width="0.576" x1="28.1" x2="30"  fill="none" stroke="#FFFFFF"/>
                                    <line y1="-9.3" stroke-linecap="round" y2="-7.5" stroke-width="0.576" x1="28.1" x2="26.3"  fill="none" stroke="#FFFFFF"/>
                                    <line y1="-7.5" stroke-linecap="round" y2="-7.5" stroke-width="0.576" x1="26.3" x2="22.7"  fill="none" stroke="#FFFFFF"/>
                                    <line y1="-7.5" stroke-linecap="round" y2="-9.3" stroke-width="0.576" x1="22.7" x2="20.9"  fill="none" stroke="#FFFFFF"/>
                                    <line y1="-12.9" stroke-linecap="round" y2="-14.4" stroke-width="0.576" x1="20.9" x2="22.8"  fill="none" stroke="#FFFFFF"/>
                                    <line y1="-14.4" stroke-linecap="round" y2="-14.4" stroke-width="0.576" x1="22.8" x2="26.4"  fill="none" stroke="#FFFFFF"/>
                                    <line y1="-14.4" stroke-linecap="round" y2="-12.9" stroke-width="0.576" x1="26.4" x2="28.1"  fill="none" stroke="#FFFFFF"/>
                                    <line y1="-9.3" stroke-linecap="round" y2="-7.5" stroke-width="0.576" x1="42.5" x2="40.7"  fill="none" stroke="#FFFFFF"/>
                                    <line y1="-7.5" stroke-linecap="round" y2="-7.5" stroke-width="0.576" x1="40.7" x2="37.1"  fill="none" stroke="#FFFFFF"/>
                                    <line y1="-7.5" stroke-linecap="round" y2="-9.3" stroke-width="0.576" x1="37.1" x2="35.3"  fill="none" stroke="#FFFFFF"/>
                                    <line y1="-12.9" stroke-linecap="round" y2="-14.4" stroke-width="0.576" x1="35.3" x2="37.2"  fill="none" stroke="#FFFFFF"/>
                                    <line y1="-14.4" stroke-linecap="round" y2="-14.4" stroke-width="0.576" x1="37.2" x2="40.8"  fill="none" stroke="#FFFFFF"/>
                                    <line y1="-14.4" stroke-linecap="round" y2="-12.9" stroke-width="0.576" x1="40.8" x2="42.5"  fill="none" stroke="#FFFFFF"/>
                                    <line y1="-7.5" stroke-linecap="round" y2="-9.3" stroke-width="0.576" x1="33.5" x2="35.3"  fill="none" stroke="#FFFFFF"/>
                                    <line y1="-12.9" stroke-linecap="round" y2="-14.4" stroke-width="0.576" x1="35.3" x2="33.6"  fill="none" stroke="#FFFFFF"/>
                                    <line y1="-14.4" stroke-linecap="round" y2="-14.4" stroke-width="0.576" x1="30" x2="33.6"  fill="none" stroke="#FFFFFF"/>
                                    <line y1="-7.5" stroke-linecap="round" y2="-7.5" stroke-width="0.576" x1="69.2" x2="65.9"  fill="none" stroke="#FFFFFF"/>
                                    <line y1="-7.5" stroke-linecap="round" y2="-9.3" stroke-width="0.576" x1="65.9" x2="64.1"  fill="none" stroke="#FFFFFF"/>
                                    <line y1="-12.9" stroke-linecap="round" y2="-14.4" stroke-width="0.576" x1="64.1" x2="66"  fill="none" stroke="#FFFFFF"/>
                                    <line y1="-9.3" stroke-linecap="round" y2="-7.5" stroke-width="0.576" x1="64.1" x2="62.3"  fill="none" stroke="#FFFFFF"/>
                                    <line y1="-7.5" stroke-linecap="round" y2="-7.5" stroke-width="0.576" x1="62.3" x2="58.7"  fill="none" stroke="#FFFFFF"/>
                                    <line y1="-7.5" stroke-linecap="round" y2="-9.3" stroke-width="0.576" x1="58.7" x2="56.9"  fill="none" stroke="#FFFFFF"/>
                                    <line y1="-12.9" stroke-linecap="round" y2="-14.4" stroke-width="0.576" x1="56.9" x2="58.8"  fill="none" stroke="#FFFFFF"/>
                                    <line y1="-14.4" stroke-linecap="round" y2="-14.4" stroke-width="0.576" x1="58.8" x2="62.4"  fill="none" stroke="#FFFFFF"/>
                                    <line y1="-14.4" stroke-linecap="round" y2="-12.9" stroke-width="0.576" x1="62.4" x2="64.1"  fill="none" stroke="#FFFFFF"/>
                                    <line y1="-9.3" stroke-linecap="round" y2="-7.5" stroke-width="0.576" x1="56.9" x2="55.1"  fill="none" stroke="#FFFFFF"/>
                                    <line y1="-7.5" stroke-linecap="round" y2="-7.5" stroke-width="0.576" x1="55.1" x2="51.5"  fill="none" stroke="#FFFFFF"/>
                                    <line y1="-7.5" stroke-linecap="round" y2="-9.3" stroke-width="0.576" x1="51.5" x2="49.7"  fill="none" stroke="#FFFFFF"/>
                                    <line y1="-12.9" stroke-linecap="round" y2="-14.4" stroke-width="0.576" x1="49.7" x2="51.6"  fill="none" stroke="#FFFFFF"/>
                                    <line y1="-14.4" stroke-linecap="round" y2="-14.4" stroke-width="0.576" x1="51.6" x2="55.2"  fill="none" stroke="#FFFFFF"/>
                                    <line y1="-14.4" stroke-linecap="round" y2="-12.9" stroke-width="0.576" x1="55.2" x2="56.9"  fill="none" stroke="#FFFFFF"/>
                                    <line y1="-9.3" stroke-linecap="round" y2="-7.5" stroke-width="0.576" x1="49.7" x2="47.9"  fill="none" stroke="#FFFFFF"/>
                                    <line y1="-7.5" stroke-linecap="round" y2="-7.5" stroke-width="0.576" x1="47.9" x2="44.3"  fill="none" stroke="#FFFFFF"/>
                                    <line y1="-7.5" stroke-linecap="round" y2="-9.3" stroke-width="0.576" x1="44.3" x2="42.5"  fill="none" stroke="#FFFFFF"/>
                                    <line y1="-12.9" stroke-linecap="round" y2="-14.4" stroke-width="0.576" x1="42.5" x2="44.4"  fill="none" stroke="#FFFFFF"/>
                                    <line y1="-14.4" stroke-linecap="round" y2="-14.4" stroke-width="0.576" x1="44.4" x2="48"  fill="none" stroke="#FFFFFF"/>
                                    <line y1="-14.4" stroke-linecap="round" y2="-12.9" stroke-width="0.576" x1="48" x2="49.7"  fill="none" stroke="#FFFFFF"/>
                                    <line y1="-9.3" stroke-linecap="round" y2="-12.9" stroke-width="0.576" x1="71" x2="71"  fill="none" stroke="#FFFFFF"/>
                                    <line y1="-7.5" stroke-linecap="round" y2="-9.3" stroke-width="0.576" x1="69.2" x2="71"  fill="none" stroke="#FFFFFF"/>
                                    <line y1="-12.9" stroke-linecap="round" y2="-14.4" stroke-width="0.576" x1="71" x2="69.3"  fill="none" stroke="#FFFFFF"/>
                                    <line y1="-14.4" stroke-linecap="round" y2="-14.4" stroke-width="0.576" x1="66" x2="69.3"  fill="none" stroke="#FFFFFF"/>
                                    <line y1="-7.5" stroke-linecap="round" y2="-7.5" stroke-width="0.576" x1="4.7" x2="1.1"  fill="none" stroke="#FFFFFF"/>
                                    <line y1="-7.5" stroke-linecap="round" y2="-9.3" stroke-width="0.576" x1="1.1" x2="-0.7"  fill="none" stroke="#FFFFFF"/>
                                    <line y1="-12.9" stroke-linecap="round" y2="-14.4" stroke-width="0.576" x1="-0.7" x2="1.2"  fill="none" stroke="#FFFFFF"/>
                                    <line y1="-7.5" stroke-linecap="round" y2="-9.3" stroke-width="0.576" x1="4.7" x2="6.5"  fill="none" stroke="#FFFFFF"/>
                                    <line y1="-12.9" stroke-linecap="round" y2="-14.4" stroke-width="0.576" x1="6.5" x2="4.8"  fill="none" stroke="#FFFFFF"/>
                                    <line y1="-14.4" stroke-linecap="round" y2="-14.4" stroke-width="0.576" x1="1.2" x2="4.8"  fill="none" stroke="#FFFFFF"/>
                                    <line y1="-7.5" stroke-linecap="round" y2="-7.5" stroke-width="0.576" x1="-2.5" x2="-6.1"  fill="none" stroke="#FFFFFF"/>
                                    <line y1="-7.5" stroke-linecap="round" y2="-9.3" stroke-width="0.576" x1="-6.1" x2="-7.6"  fill="none" stroke="#FFFFFF"/>
                                    <line y1="-12.9" stroke-linecap="round" y2="-14.4" stroke-width="0.576" x1="-7.6" x2="-6"  fill="none" stroke="#FFFFFF"/>
                                    <line y1="-7.5" stroke-linecap="round" y2="-9.3" stroke-width="0.576" x1="-2.5" x2="-0.7"  fill="none" stroke="#FFFFFF"/>
                                    <line y1="-12.9" stroke-linecap="round" y2="-14.4" stroke-width="0.576" x1="-0.7" x2="-2.4"  fill="none" stroke="#FFFFFF"/>
                                    <line y1="-14.4" stroke-linecap="round" y2="-14.4" stroke-width="0.576" x1="-6" x2="-2.4"  fill="none" stroke="#FFFFFF"/>
                                    <line y1="-9.3" stroke-linecap="round" y2="-12.9" stroke-width="0.576" x1="-7.6" x2="-7.6"  fill="none" stroke="#FFFFFF"/>
                                </g>
                            </g>
                            <path  fill="#FFFFFF" d="M50.2,8.6c0,0-0.5,0.1-0.6-0.3c0-0.3,0.2-0.7,0.5-0.9c0.3-0.3,0.6-0.2,0.8,0c0.3,0.3,0.2,0.8,0.2,0.8s0.8-0.9,0.1-1.9c-0.6-0.9-1.4-0.6-2.1,0.2c-0.6,0.7-1.3,0.1-1.3-0.6c0.1-0.5,0.5-0.7,0.7-0.6c0.2,0.1,0.3,0.5,0.3,0.5s0.2-0.4,0-0.9c-0.2-0.4-0.5-0.8-1.4-0.7h-4.1c0,0,0.5,0.4,1.1,1c0.6,0.6,1,0.8,1,1.4c-0.1,1.1,0.4,1.9,1.2,2.5C48.3,10.2,50,9.3,50.2,8.6z"/>
                        </g>
                        <rect x="-7.8" y="-0.3" width="79"  fill="#C62717" height="54"/>
                        <g  transform="matrix(1, 0, 0, 1, 55.08, 31.68)">
                            <g >
                                <g >
                                    <g  transform="matrix(1 0 0 1 -54.3494 -1.2894)">
                                        <g >
                                            <text  font-family="OCRA" fill="#FFFFFF" font-size="6">LEFT</text>
                                        </g>
                                    </g>
                                    <g  transform="matrix(1 0 0 1 -8.616 -1.2895)">
                                        <g >
                                            <text  font-family="OCRA" fill="#FFFFFF" font-size="6">RIGHT</text>
                                        </g>
                                    </g>
                                    <g  transform="matrix(1 0 0 1 -31.8611 15.273)">
                                        <g >
                                            <text  font-family="OCRA" fill="#FFFFFF" font-size="6">DOWN</text>
                                        </g>
                                    </g>
                                    <g  transform="matrix(1 0 0 1 -27.616 -17.9144)">
                                        <g >
                                            <text  font-family="OCRA" fill="#FFFFFF" font-size="6">UP</text>
                                        </g>
                                    </g>
                                    <circle cx="-23.3" cy="-3.2" stroke-width="0.5"  fill="#A81D16" stroke="#F9F9F9" r="11.2"/>
                                    <circle cx="-23.2" cy="-3.3" stroke-width="0.5"  fill="none" stroke="#FFFFFF" r="12.6"/>
                                    <circle cx="-23.2" cy="-3.2"  fill="#ADA8A8" r="10.1"/>
                                    <circle cx="-23.2" cy="-3.2" stroke-width="1" stroke-miterlimit="10"  fill="none" stroke="#DDD3D3" r="10.1"/>
                                    <path  fill="#FFFFFF" d="M-45.1-27.8c0,0,0.1,0.5-0.2,0.5c-0.2,0-0.6-0.2-0.9-0.4c-0.2-0.3-0.2-0.5,0-0.8c0.3-0.3,0.8-0.2,0.8-0.2s-0.9-0.8-1.9-0.1c-0.8,0.6-0.6,1.4,0.2,2.1c0.7,0.6,0.1,1.3-0.6,1.2c-0.5-0.1-0.7-0.4-0.6-0.7c0.1-0.2,0.4-0.3,0.4-0.3s-0.4-0.2-0.9,0c-0.4,0.2-0.8,0.5-0.7,1.4v4c0,0,0.4-0.5,0.9-1.1c0.6-0.6,0.8-1,1.4-1c1.1,0.1,1.9-0.4,2.4-1.2C-43.6-25.9-44.4-27.6-45.1-27.8z"/>
                                    <path  fill="#FFFFFF" d="M3.1-23.7v-1.2l-1.3-0.2c-0.1-0.3-0.2-0.7-0.5-1l0.8-1.1l-0.9-0.9l-1.1,0.8c-0.3-0.2-0.7-0.3-1-0.5l-0.2-1.3h-1.2l-0.2,1.3c-0.3,0.1-0.7,0.2-1,0.5l-1.1-0.8l-0.9,0.9l0.8,1.1c-0.2,0.3-0.3,0.7-0.5,1l-1.2,0.2v1.2l1.3,0.2c0.1,0.3,0.2,0.7,0.5,1l-0.8,1.1l0.9,0.9l1.1-0.8c0.2,0.1,0.3,0.2,0.5,0.3l0.8-2.1C-2.6-23.3-3-23.8-3-24.3c0-0.8,0.5-1.3,1.3-1.3s1.3,0.5,1.3,1.3c0,0.5-0.3,1-0.9,1.2l0.8,2.1c0.2-0.1,0.5-0.2,0.5-0.3l1.1,0.8L2-21.4l-0.8-1.1c0.2-0.3,0.3-0.7,0.5-1L3.1-23.7z"/>
                                </g>
                            </g>
                        </g>
                        <g >
                            <g >
                                <circle cx="-0.6" cy="46.5" stroke-width="0.25" stroke-miterlimit="10"  fill="#F1F1F1" stroke="#919396" r="4.3"/>
                                <path  fill="#FFFFFF" d="M2.2,47.5c0,0.9-0.8,1.7-1.7,1.7h-2c-0.9,0-1.7-0.8-1.7-1.7v-2c0-0.9,0.8-1.7,1.7-1.7h2c0.9,0,1.7,0.8,1.7,1.7V47.5z"/>
                                <path stroke-width="0.1" stroke-miterlimit="10"  fill="#919396" stroke="#D0D1D2" d="M0.2,47.4v1.1c0,0.4-0.3,0.7-0.7,0.7l0,0c-0.4,0-0.7-0.3-0.7-0.7v-1.3l-0.2,0h-1.1c-0.4,0-0.7-0.3-0.7-0.7l0,0c0-0.4,0.3-0.7,0.7-0.7h1l0.3,0v-1.3c0-0.4,0.3-0.7,0.7-0.7l0,0c0.4,0,0.7,0.3,0.7,0.7v1.1l0,0.2h1.3c0.4,0,0.7,0.3,0.7,0.7l0,0c0,0.4-0.3,0.7-0.7,0.7H0.2L0.2,47.4z"/>
                            </g>
                            <g >
                                <circle cx="64.2" cy="46.5" stroke-width="0.25" stroke-miterlimit="10"  fill="#F1F1F1" stroke="#919396" r="4.3"/>
                                <path  fill="#FFFFFF" d="M67,47.5c0,0.9-0.8,1.7-1.7,1.7h-2c-0.9,0-1.7-0.8-1.7-1.7v-2c0-0.9,0.8-1.7,1.7-1.7h2c0.9,0,1.7,0.8,1.7,1.7V47.5z"/>
                                <path stroke-width="0.1" stroke-miterlimit="10"  fill="#919396" stroke="#D0D1D2" d="M65,47.4v1.1c0,0.4-0.3,0.7-0.7,0.7l0,0c-0.4,0-0.7-0.3-0.7-0.7v-1.3l-0.2,0h-1.1c-0.4,0-0.7-0.3-0.7-0.7l0,0c0-0.4,0.3-0.7,0.7-0.7h1l0.3,0v-1.3c0-0.4,0.3-0.7,0.7-0.7l0,0c0.4,0,0.7,0.3,0.7,0.7v1.1l0,0.2h1.3c0.4,0,0.7,0.3,0.7,0.7l0,0c0,0.4-0.3,0.7-0.7,0.7H65L65,47.4z"/>
                            </g>
                            <g >
                                <circle cx="64.2" cy="6.9" stroke-width="0.25" stroke-miterlimit="10"  fill="#F1F1F1" stroke="#919396" r="4.3"/>
                                <path  fill="#FFFFFF" d="M67,7.9c0,0.9-0.8,1.7-1.7,1.7h-2c-0.9,0-1.7-0.8-1.7-1.7v-2c0-0.9,0.8-1.7,1.7-1.7h2c0.9,0,1.7,0.8,1.7,1.7V7.9z"/>
                                <path stroke-width="0.1" stroke-miterlimit="10"  fill="#919396" stroke="#D0D1D2" d="M65,7.8v1.1c0,0.4-0.3,0.7-0.7,0.7l0,0c-0.4,0-0.7-0.3-0.7-0.7V7.6l-0.2,0h-1.1c-0.4,0-0.7-0.3-0.7-0.7l0,0c0-0.4,0.3-0.7,0.7-0.7h1l0.3,0V4.9c0-0.4,0.3-0.7,0.7-0.7l0,0c0.4,0,0.7,0.3,0.7,0.7V6l0,0.2h1.3c0.4,0,0.7,0.3,0.7,0.7l0,0c0,0.4-0.3,0.7-0.7,0.7H65L65,7.8z"/>
                            </g>
                            <g >
                                <circle cx="-0.6" cy="6.9" stroke-width="0.25" stroke-miterlimit="10"  fill="#F1F1F1" stroke="#919396" r="4.3"/>
                                <path  fill="#FFFFFF" d="M2.2,7.9c0,0.9-0.8,1.7-1.7,1.7h-2c-0.9,0-1.7-0.8-1.7-1.7v-2c0-0.9,0.8-1.7,1.7-1.7h2c0.9,0,1.7,0.8,1.7,1.7V7.9z"/>
                                <path stroke-width="0.1" stroke-miterlimit="10"  fill="#919396" stroke="#D0D1D2" d="M0.2,7.8v1.1c0,0.4-0.3,0.7-0.7,0.7l0,0c-0.4,0-0.7-0.3-0.7-0.7V7.6l-0.2,0h-1.1c-0.4,0-0.7-0.3-0.7-0.7l0,0c0-0.4,0.3-0.7,0.7-0.7h1l0.3,0V4.9c0-0.4,0.3-0.7,0.7-0.7l0,0c0.4,0,0.7,0.3,0.7,0.7V6l0,0.2h1.3c0.4,0,0.7,0.3,0.7,0.7l0,0c0,0.4-0.3,0.7-0.7,0.7H0.2L0.2,7.8z"/>
                            </g>
                        </g>
                        <circle cx="53.3" cy="-11.1" stroke-width="1.224" gorn="0.1.0.0.1.0.5"  fill="none" stroke="#9A916C" r="2.1" id="connector8pin"/>
                        <circle cx="60.4" cy="-11.1" stroke-width="1.224" gorn="0.1.0.0.1.0.6"  fill="none" stroke="#9A916C" r="2.1" id="connector9pin"/>
                        <circle cx="67.7" cy="-11.1" stroke-width="1.224" gorn="0.1.0.0.1.0.7"  fill="none" stroke="#9A916C" r="2.1" id="connector11pin"/>
                        <circle cx="46.1" cy="-11.1" stroke-width="1.224" gorn="0.1.0.0.1.0.8"  fill="none" stroke="#9A916C" r="2.1" id="connector7pin"/>
                        <circle cx="38.9" cy="-11.1" stroke-width="1.224" gorn="0.1.0.0.1.0.9"  fill="none" stroke="#9A916C" r="2.1" id="connector6pin"/>
                        <circle cx="31.7" cy="-11.1" stroke-width="1.224" gorn="0.1.0.0.1.0.10"  fill="none" stroke="#9A916C" r="2.1" id="connector5pin"/>
                        <circle cx="24.5" cy="-11.1" stroke-width="1.224" gorn="0.1.0.0.1.0.11"  fill="none" stroke="#9A916C" r="2.1" id="connector4pin"/>
                        <circle cx="17.3" cy="-11.1" stroke-width="1.224" gorn="0.1.0.0.1.0.12"  fill="none" stroke="#9A916C" r="2.1" id="connector3pin"/>
                        <circle cx="10.1" cy="-11.1" stroke-width="1.224" gorn="0.1.0.0.1.0.13"  fill="none" stroke="#9A916C" r="2.1" id="connector2pin"/>
                        <circle cx="2.9" cy="-11.1" stroke-width="1.224" gorn="0.1.0.0.1.0.14"  fill="none" stroke="#9A916C" r="2.1" id="connector1pin"/>
                        <circle cx="-4.3" cy="-11.1" stroke-width="1.224" gorn="0.1.0.0.1.0.15"  fill="none" stroke="#9A916C" r="2.1" id="connector0pin"/>
                    </g>
                </g>
            </g>
        </g>
    </g>
</svg>
