<?xml version='1.0' encoding='UTF-8' standalone='no'?>
<!-- Generator: Adobe Illustrator 16.0.0, SVG Export Plug-In . SVG Version: 6.00 Build 0)  -->
<svg xmlns="http://www.w3.org/2000/svg" gorn="0" height="177.18794"  xml:space="preserve" x="0px" viewBox="0 0 354.79025 177.18795" y="0px" id="Ebene_1" xmlns:xml="http://www.w3.org/XML/1998/namespace" enable-background="new 0 0 124.223 166.93" version="1.1" width="354.79025">
    <desc  id="desc3">
        <referenceFile  id="referenceFile5">heating_pad5x10_breadboard.svg</referenceFile>
    </desc>
    <metadata  id="metadata33">
        <rdf:RDF xmlns:rdf="http://www.w3.org/1999/02/22-rdf-syntax-ns#">
            <cc:Work rdf:about="" xmlns:cc="http://creativecommons.org/ns#" xmlns:rdf="http://www.w3.org/1999/02/22-rdf-syntax-ns#">
                <dc:format xmlns:dc="http://purl.org/dc/elements/1.1/">image/svg+xml</dc:format>
                <dc:type rdf:resource="http://purl.org/dc/dcmitype/StillImage" xmlns:dc="http://purl.org/dc/elements/1.1/" xmlns:rdf="http://www.w3.org/1999/02/22-rdf-syntax-ns#"/>
                <dc:title xmlns:dc="http://purl.org/dc/elements/1.1/"/>
            </cc:Work>
        </rdf:RDF>
    </metadata>
    <defs  id="defs31"/>
    <g  transform="matrix(0.97682863,-0.21402298,0.21402298,0.97682863,125.26354,16.03866)">
        <g >
            <g >
                <g gorn="0.3.0.0.0"  id="path112_1_">
                    <path gorn="0.3.0.0.0.0" d="m 55.211,17.243 c 0,-3.708 0,-13.549 15.072,-13.549 9.58,0 16.554,4.077 23.293,8.021 5.933,3.473 11.534,6.749 18.388,6.749 h 12.264 v 2.617 h -12.264 c -7.561,0 -13.463,-3.453 -19.713,-7.107 C 85.808,10.202 79.152,6.307 70.283,6.307 57.837,6.304 57.837,13.42 57.837,17.243 h -2.626 z"  id="path8"/>
                </g>
            </g>
        </g>
    </g>
    <g  transform="matrix(0.97682863,-0.21402298,0.21402298,0.97682863,125.26354,16.03866)">
        <g >
            <g >
                <g gorn="0.4.0.0.0"  id="path114_1_">
                    <path gorn="0.4.0.0.0.0" d="m 42.949,17.214 c 0,-4.807 4.914,-17.271 27.322,-17.271 9.739,0 16.18,3.229 22.402,6.359 5.825,2.922 11.323,5.687 19.288,5.687 h 12.255 v 2.617 h -12.255 c -8.584,0 -14.62,-3.032 -20.46,-5.965 C 85.55,5.656 79.395,2.56 70.272,2.56 50.109,2.559 45.574,13.415 45.574,17.218 h -2.625 v -0.004 z"  id="path11" style="fill:#ff0000"/>
                </g>
            </g>
        </g>
    </g>
    <g  transform="matrix(1.0009045,0,0,0.98564269,0.01831466,2.1480015)">
        <g >
            <g >
                <g gorn="0.5.0.0.0"  id="g28">
                    <g gorn="0.5.0.0.0.0"  id="g30">
                        <g gorn="0.5.0.0.0.0.0"  id="breadboard">
                            <path gorn="0.5.0.0.0.0.0.0" d="m 268.03057,18.388305 c 3.40802,0 5.79392,1.142243 5.79392,2.143428 l 0,154.491247 c 0,1.41799 -1.96958,2.14237 -5.79392,2.14237 l -262.236649,0 C 2.7275644,177.16535 4.640001e-8,176.27234 4.640001e-8,175.02298 l 0,-154.499731 C 4.640001e-8,19.359794 2.2710563,18.383002 5.793921,18.383002 l 262.236649,0.0053 0,0 z"  id="path4_1_" style="fill:#d2d2d2"/>
                            <rect height="2.7818966" gorn="0.5.0.0.0.0.0.1"  x="319.00446" y="19.639788" id="rect34" style="fill:none" width="35.294685"/>
                            <rect height="2.7797756"  x="319.00446" y="12.764058" style="fill:none" width="35.294685"/>
                            <rect height="0.0055595501"  x="336.18701" y="12.7613" fill="none" stroke="none" width="0.070589401"/>
                            <path gorn="0.5.0.0.0.0.0.4" d="m 0.32063611,134.57138 0,-40.817058 c 0,-1.34794 2.93713819,-2.478997 7.49321429,-2.478997 l 339.1442696,0.0046 0,0 c 4.40756,0 7.49322,1.31976 7.49322,2.478998 l 0,40.808477 -354.13070389,0 0,0.003 z"  id="path4_2_-7" style="fill:#ffc900"/>
                            <path gorn="0.5.0.0.0.0.0.5" d="m 321.0507,97.16084 0,2.60877 c 0,0.12378 -2.37532,0.22764 -6.05995,0.22764 l -274.275061,-4.2e-4 0,0 c -3.564513,0 -6.059969,-0.12119 -6.059969,-0.22764 l 0,-2.60765 286.39498,0 0,-6.4e-4 z"  id="path4_3_-3-5-2-3" enable-background="new    " style="opacity:0.36000001;fill:#1d1d1d"/>
                            <path gorn="0.5.0.0.0.0.0.6" d="m 321.51027,107.27136 0,2.60877 c 0,0.12378 -2.37532,0.22764 -6.05995,0.22764 l -274.275061,-4.2e-4 0,0 c -3.564513,0 -6.059969,-0.12119 -6.059969,-0.22764 l 0,-2.60765 286.39498,0 0,-6.4e-4 z"  id="path4_3_-3-5-2-6" enable-background="new    " style="opacity:0.36000001;fill:#1d1d1d"/>
                            <g gorn="0.5.0.0.0.0.0.7"  id="g4026">
                                <path gorn="0.5.0.0.0.0.0.7.0" d="m 0.63879061,176.56866 0,-40.81706 c 0,-1.34796 2.93346789,-2.479 7.48386599,-2.479 l 338.7206234,0.005 0,0 c 4.40207,0 7.48386,1.31976 7.48386,2.479 l 0,40.80848 -353.68834939,0 0,0.003 z"  id="path4_2_-6-5" style="fill:#ffc900"/>
                                <g gorn="0.5.0.0.0.0.0.7.1"  id="g4018">
                                    <path gorn="0.5.0.0.0.0.0.7.1.0" d="m 0.00287117,55.857472 0,-35.326799 c 0,-1.166636 2.93713383,-2.14555 7.49321863,-2.14555 l 339.1442602,0.0042 0,0 c 4.40756,0 7.49322,1.142243 7.49322,2.14555 l 0,35.319375 -354.13069883,0 0,0.0032 z"  id="path4_2_" style="fill:#ffc900"/>
                                    <path gorn="0.5.0.0.0.0.0.7.1.1" d="m 0.32063556,92.205736 0,-35.3268 c 0,-1.16664 2.93713484,-2.14555 7.49321874,-2.14555 l 339.1442657,0.004 0,0 c 4.40756,0 7.49322,1.14224 7.49322,2.14555 l 0,35.31937 -354.13070444,0 0,0.003 z"  id="path4_2_-6" style="fill:#ffc900"/>
                                    <path gorn="0.5.0.0.0.0.0.7.1.2" d="m 2.6988532,23.774982 c 0,-1.898435 3.1874895,-4.30913 6.9889229,-4.30913 l 17.4684459,0 c -3.799502,0 -9.71692,2.418119 -9.71692,4.30913 l 0,147.975048 c 0,1.89738 5.917418,4.29959 9.71692,4.29959 l -17.4684459,0 c -3.8014334,0 -6.9889229,-2.40221 -6.9889229,-4.29959 l 0,-147.975048 0,0 z"  id="path22_1_" enable-background="new    " style="opacity:0.35"/>
                                    <path gorn="0.5.0.0.0.0.0.7.1.3" d="m 320.13156,50.974151 0,2.60877 c 0,0.12378 -2.37532,0.22764 -6.05995,0.22764 l -274.275059,-4.2e-4 0,0 c -3.564513,0 -6.059969,-0.12119 -6.059969,-0.22764 l 0,-2.60765 286.394978,0 0,-6.4e-4 z"  id="path4_3_-3-5-2" enable-background="new    " style="opacity:0.36000001;fill:#1d1d1d"/>
                                    <path gorn="0.5.0.0.0.0.0.7.1.4" d="m 321.51027,62.233592 0,2.60877 c 0,0.12378 -2.37532,0.22764 -6.05995,0.22764 l -274.275061,-4.2e-4 0,0 c -3.564513,0 -6.059969,-0.12119 -6.059969,-0.22764 l 0,-2.60765 286.39498,0 0,-6.4e-4 z"  id="path4_3_-3-5-2-7" enable-background="new    " style="opacity:0.36000001;fill:#1d1d1d"/>
                                    <path gorn="0.5.0.0.0.0.0.7.1.5" d="m 321.96984,86.131181 0,2.60877 c 0,0.12378 -2.37532,0.22764 -6.05995,0.22764 l -274.275063,-4.2e-4 0,0 c -3.564513,0 -6.059969,-0.12119 -6.059969,-0.22764 l 0,-2.60765 286.394982,0 0,-6.4e-4 z"  id="path4_3_-3-5-2-9" enable-background="new    " style="opacity:0.36000001;fill:#1d1d1d"/>
                                </g>
                                <path gorn="0.5.0.0.0.0.0.7.2" d="m 320.59113,118.76058 0,2.60877 c 0,0.12378 -2.37532,0.22764 -6.05995,0.22764 l -274.27506,-4.2e-4 0,0 c -3.564513,0 -6.059969,-0.12119 -6.059969,-0.22764 l 0,-2.60765 286.394979,0 0,-6.4e-4 z"  id="path4_3_-3-5-2-06" enable-background="new    " style="opacity:0.36000001;fill:#1d1d1d"/>
                                <path gorn="0.5.0.0.0.0.0.7.3" d="m 322.42941,143.11774 0,2.60877 c 0,0.12378 -2.37532,0.22764 -6.05995,0.22764 l -274.275064,-4.2e-4 0,0 c -3.564513,0 -6.059969,-0.12119 -6.059969,-0.22764 l 0,-2.60765 286.394983,0 0,-6.4e-4 z"  id="path4_3_-3-5-2-61" enable-background="new    " style="opacity:0.36000001;fill:#1d1d1d"/>
                            </g>
                            <g  transform="matrix(0.99679015,0,0,0.99804035,0.11052177,0.65110768)">
                                <g >
                                    <g >
                                        <g gorn="0.5.0.0.0.0.0.8.0.0.0"  id="g52">
                                            <g gorn="0.5.0.0.0.0.0.8.0.0.0.0"  id="g54">
                                                <g gorn="0.5.0.0.0.0.0.8.0.0.0.0.0"  id="g56">
                                                    <g gorn="0.5.0.0.0.0.0.8.0.0.0.0.0.0"  id="g3974">
                                                        <path gorn="0.5.0.0.0.0.0.8.0.0.0.0.0.0.0" d="m 34.812901,176.17435 c -3.661868,0 -8.316494,-4.73735 -8.316494,-10.40207 l 0,-25.96642 c 0,5.62165 4.654626,14.43599 8.316494,14.43599 l 285.579339,0 c 3.65983,0 8.30012,-8.81434 8.30012,-14.43599 l 0,25.96642 c 0,5.66472 -4.64029,10.40207 -8.30012,10.40207 l -285.579339,0 0,0 z"  id="path22_2_" enable-background="new    " style="opacity:0.35;fill:#ffffff"/>
                                                        <path gorn="0.5.0.0.0.0.0.8.0.0.0.0.0.0.1" d="m 355.34248,177.28597 -24.58845,0 c -1.16664,0 -2.14555,-1.31951 -2.14555,-3.36635 l 0.004,-152.361667 0,0 c 0,-1.980111 1.14224,-3.366354 2.14555,-3.366354 l 24.57784,0 0,159.094371 0.006,0 z"  id="path4_3_-3" enable-background="new    " style="opacity:0.36000001;fill:#1d1d1d"/>
                                                        <path gorn="0.5.0.0.0.0.0.8.0.0.0.0.0.0.2" d="m 26.604759,177.28597 -24.588449,0 c -1.16663997,0 -2.14554997,-1.31951 -2.14554997,-3.36635 l 0.004,-152.361667 0,0 c 0,-1.980111 1.14223997,-3.366354 2.14554997,-3.366354 l 24.577839,0 0,159.094371 0.006,0 z"  id="path4_3_-3-5" enable-background="new    " style="opacity:0.36000001;fill:#1d1d1d"/>
                                                        <path gorn="0.5.0.0.0.0.0.8.0.0.0.0.0.0.3" d="m 352.65548,171.78083 c 0,1.87168 -2.89643,4.24841 -6.35074,4.24841 l -15.87334,0 c 3.45256,0 8.82963,-2.38405 8.82963,-4.24841 l 0,-145.890055 c 0,-1.870645 -5.37707,-4.239008 -8.82963,-4.239008 l 15.87334,0 c 3.45431,0 6.35074,2.368363 6.35074,4.239008 l 0,145.890055 0,0 z"  id="path22_1_-6" enable-background="new    " style="opacity:0.35"/>
                                                        <path gorn="0.5.0.0.0.0.0.8.0.0.0.0.0.0.4" d="m 319.34302,18.660846 c 3.63505,0 8.25558,4.73735 8.25558,10.40207 l 0,25.96642 c 0,-5.62165 -4.62053,-14.43599 -8.25558,-14.43599 l -283.487642,0 c -3.633025,0 -8.239327,8.81434 -8.239327,14.43599 l 0,-25.96642 c 0,-5.66472 4.606302,-10.40207 8.239327,-10.40207 l 283.487642,0 0,0 z"  id="path22_2_-2" enable-background="new    " style="opacity:0.35;fill:#ffffff"/>
                                                        <path gorn="0.5.0.0.0.0.0.8.0.0.0.0.0.0.5" d="m 321.0507,73.722817 0,2.60877 c 0,0.12378 -2.37532,0.22764 -6.05995,0.22764 l -274.27506,-4.2e-4 0,0 c -3.564513,0 -6.059969,-0.12119 -6.059969,-0.22764 l 0,-2.60765 286.394979,0 0,-6.4e-4 z"  id="path4_3_-3-5-2-0" enable-background="new    " style="opacity:0.36000001;fill:#1d1d1d"/>
                                                        <path gorn="0.5.0.0.0.0.0.8.0.0.0.0.0.0.6" d="m 320.59113,130.70938 0,2.60877 c 0,0.12378 -2.37532,0.22764 -6.05995,0.22764 l -274.27506,-4.2e-4 0,0 c -3.564513,0 -6.059969,-0.12119 -6.059969,-0.22764 l 0,-2.60765 286.394979,0 0,-6.4e-4 z"  id="path4_3_-3-5-2-2" enable-background="new    " style="opacity:0.36000001;fill:#1d1d1d"/>
                                                        <path gorn="0.5.0.0.0.0.0.8.0.0.0.0.0.0.7" d="m 319.67199,135.76463 0,2.60877 c 0,0.12378 -2.37532,0.22764 -6.05995,0.22764 l -274.275058,-4.2e-4 0,0 c -3.564513,0 -6.059969,-0.12119 -6.059969,-0.22764 l 0,-2.60765 286.394977,0 0,-6.4e-4 z"  id="path4_3_-3-5-2-61-8" enable-background="new    " style="opacity:0.36000001;fill:#ffdc59;fill-opacity:1"/>
                                                        <path gorn="0.5.0.0.0.0.0.8.0.0.0.0.0.0.8" d="m 321.51027,124.27541 0,2.60877 c 0,0.12378 -2.37532,0.22764 -6.05995,0.22764 l -274.275062,-4.2e-4 0,0 c -3.564513,0 -6.059969,-0.12119 -6.059969,-0.22764 l 0,-2.60765 286.394981,0 0,-6.4e-4 z"  id="path4_3_-3-5-2-61-8-7" enable-background="new    " style="opacity:0.36000001;fill:#ffdc59;fill-opacity:1"/>
                                                        <path gorn="0.5.0.0.0.0.0.8.0.0.0.0.0.0.9" d="m 319.672,113.24576 0,2.60877 c 0,0.12378 -2.37532,0.22764 -6.05995,0.22764 l -274.275068,-4.2e-4 0,0 c -3.564513,0 -6.059969,-0.12119 -6.059969,-0.22764 l 0,-2.60765 286.394987,0 0,-6.4e-4 z"  id="path4_3_-3-5-2-61-8-9" enable-background="new    " style="opacity:0.36000001;fill:#ffdc59;fill-opacity:1"/>
                                                        <path gorn="0.5.0.0.0.0.0.8.0.0.0.0.0.0.10" d="m 320.59113,102.2161 0,2.60877 c 0,0.12378 -2.37532,0.22764 -6.05995,0.22764 l -274.275059,-4.2e-4 0,0 c -3.564513,0 -6.059969,-0.12119 -6.059969,-0.22764 l 0,-2.60765 286.394978,0 0,-6.4e-4 z"  id="path4_3_-3-5-2-61-8-2" enable-background="new    " style="opacity:0.36000001;fill:#ffdc59;fill-opacity:1"/>
                                                        <path gorn="0.5.0.0.0.0.0.8.0.0.0.0.0.0.11" d="m 321.0507,90.726871 0,2.60877 c 0,0.12378 -2.37532,0.22764 -6.05995,0.22764 l -274.275061,-4.2e-4 0,0 c -3.564513,0 -6.059969,-0.12119 -6.059969,-0.22764 l 0,-2.60765 286.39498,0 0,-6.4e-4 z"  id="path4_3_-3-5-2-61-8-0" enable-background="new    " style="opacity:0.36000001;fill:#ffdc59;fill-opacity:1"/>
                                                        <path gorn="0.5.0.0.0.0.0.8.0.0.0.0.0.0.12" d="m 322.88897,78.318507 0,2.60877 c 0,0.12378 -2.37532,0.22764 -6.05995,0.22764 l -274.275054,-4.2e-4 0,0 c -3.564513,0 -6.059969,-0.12119 -6.059969,-0.22764 l 0,-2.60765 286.394973,0 0,-6.4e-4 z"  id="path4_3_-3-5-2-61-8-23" enable-background="new    " style="opacity:0.36000001;fill:#ffdc59;fill-opacity:1"/>
                                                        <path gorn="0.5.0.0.0.0.0.8.0.0.0.0.0.0.13" d="m 318.29329,67.74842 0,2.60877 c 0,0.12378 -2.37532,0.22764 -6.05995,0.22764 l -274.275065,-4.2e-4 0,0 c -3.564513,0 -6.059969,-0.12119 -6.059969,-0.22764 l 0,-2.60765 286.394984,0 0,-6.4e-4 z"  id="path4_3_-3-5-2-61-8-75" enable-background="new    " style="opacity:0.36000001;fill:#ffdc59;fill-opacity:1"/>
                                                        <path gorn="0.5.0.0.0.0.0.8.0.0.0.0.0.0.14" d="m 320.13156,56.718763 0,2.60877 c 0,0.12378 -2.37532,0.22764 -6.05995,0.22764 l -274.275059,-4.2e-4 0,0 c -3.564513,0 -6.059969,-0.12119 -6.059969,-0.22764 l 0,-2.60765 286.394978,0 0,-6.4e-4 z"  id="path4_3_-3-5-2-61-8-75-9" enable-background="new    " style="opacity:0.36000001;fill:#ffdc59;fill-opacity:1"/>
                                                        <path gorn="0.5.0.0.0.0.0.8.0.0.0.0.0.0.15" d="m 321.51027,44.769969 0,2.60877 c 0,0.12378 -2.37532,0.22764 -6.05995,0.22764 l -274.275062,-4.2e-4 0,0 c -3.564512,0 -6.059968,-0.12119 -6.059968,-0.22764 l 0,-2.60765 286.39498,0 0,-6.4e-4 z"  id="path4_3_-3-5-2-61-8-75-2" enable-background="new    " style="opacity:0.36000001;fill:#ffdc59;fill-opacity:1"/>
                                                        <path gorn="0.5.0.0.0.0.0.8.0.0.0.0.0.0.16" d="m 39.943011,42.699672 2.60877,0 c 0.12378,0 0.22764,0.888791 0.22764,2.267504 l -4.2e-4,102.628044 0,0 c 0,1.33376 -0.12119,2.26751 -0.22764,2.26751 l -2.60765,0 0,-107.163058 -6.4e-4,0 z"  id="path4_3_-3-5-2-61-8-75-28" enable-background="new    " style="opacity:0.36000001;fill:#ffdc59;fill-opacity:1"/>
                                                        <path gorn="0.5.0.0.0.0.0.8.0.0.0.0.0.0.17" d="m 51.432232,41.780529 2.60877,0 c 0.12378,0 0.22764,0.888791 0.22764,2.267504 l -4.2e-4,102.628047 0,0 c 0,1.33376 -0.12119,2.26751 -0.22764,2.26751 l -2.60765,0 0,-107.163061 -6.4e-4,0 z"  id="path4_3_-3-5-2-61-8-75-28-9" enable-background="new    " style="opacity:0.36000001;fill:#ffdc59;fill-opacity:1"/>
                                                        <path gorn="0.5.0.0.0.0.0.8.0.0.0.0.0.0.18" d="m 63.381027,43.159236 2.60877,0 c 0.12378,0 0.22764,0.888791 0.22764,2.267504 l -4.2e-4,102.62805 0,0 c 0,1.33376 -0.12119,2.26751 -0.22764,2.26751 l -2.60765,0 0,-107.163064 -6.4e-4,0 z"  id="path4_3_-3-5-2-61-8-75-28-7" enable-background="new    " style="opacity:0.36000001;fill:#ffdc59;fill-opacity:1"/>
                                                        <path gorn="0.5.0.0.0.0.0.8.0.0.0.0.0.0.19" d="m 75.329821,43.159236 2.60877,0 c 0.12378,0 0.22764,0.888791 0.22764,2.267504 l -4.2e-4,102.62805 0,0 c 0,1.33376 -0.12119,2.26751 -0.22764,2.26751 l -2.60765,0 0,-107.163064 -6.4e-4,0 z"  id="path4_3_-3-5-2-61-8-75-28-3" enable-background="new    " style="opacity:0.36000001;fill:#ffdc59;fill-opacity:1"/>
                                                        <path gorn="0.5.0.0.0.0.0.8.0.0.0.0.0.0.20" d="m 86.359477,44.078374 2.608771,0 c 0.12378,0 0.22764,0.888791 0.22764,2.267504 l -4.2e-4,102.628052 0,0 c 0,1.33376 -0.12119,2.26751 -0.22764,2.26751 l -2.607651,0 0,-107.163066 -6.4e-4,0 z"  id="path4_3_-3-5-2-61-8-75-28-6" enable-background="new    " style="opacity:0.36000001;fill:#ffdc59;fill-opacity:1"/>
                                                        <path gorn="0.5.0.0.0.0.0.8.0.0.0.0.0.0.21" d="m 97.848701,45.457081 2.608769,0 c 0.12378,0 0.22764,0.888791 0.22764,2.267504 l -4.2e-4,102.628045 0,0 c 0,1.33376 -0.12119,2.26751 -0.22764,2.26751 l -2.607649,0 0,-107.163059 -6.4e-4,0 z"  id="path4_3_-3-5-2-61-8-75-28-1" enable-background="new    " style="opacity:0.36000001;fill:#ffdc59;fill-opacity:1"/>
                                                        <path gorn="0.5.0.0.0.0.0.8.0.0.0.0.0.0.22" d="m 110.25707,44.078374 2.60877,0 c 0.12378,0 0.22764,0.888791 0.22764,2.267504 l -4.2e-4,102.628052 0,0 c 0,1.33376 -0.12119,2.26751 -0.22764,2.26751 l -2.60765,0 0,-107.163066 -6.4e-4,0 z"  id="path4_3_-3-5-2-61-8-75-28-2" enable-background="new    " style="opacity:0.36000001;fill:#ffdc59;fill-opacity:1"/>
                                                        <path gorn="0.5.0.0.0.0.0.8.0.0.0.0.0.0.23" d="m 121.28672,44.997512 2.60877,0 c 0.12378,0 0.22764,0.888791 0.22764,2.267504 l -4.2e-4,102.628044 0,0 c 0,1.33376 -0.12119,2.26751 -0.22764,2.26751 l -2.60765,0 0,-107.163058 -6.4e-4,0 z"  id="path4_3_-3-5-2-61-8-75-28-93" enable-background="new    " style="opacity:0.36000001;fill:#ffdc59;fill-opacity:1"/>
                                                        <path gorn="0.5.0.0.0.0.0.8.0.0.0.0.0.0.24" d="m 131.39724,44.078374 2.60877,0 c 0.12378,0 0.22764,0.888791 0.22764,2.267504 l -4.2e-4,102.628042 0,0 c 0,1.33376 -0.12119,2.26751 -0.22764,2.26751 l -2.60765,0 0,-107.163056 -6.4e-4,0 z"  id="path4_3_-3-5-2-61-8-75-28-19" enable-background="new    " style="opacity:0.36000001;fill:#ffdc59;fill-opacity:1"/>
                                                        <path gorn="0.5.0.0.0.0.0.8.0.0.0.0.0.0.25" d="m 141.04819,44.537943 2.60877,0 c 0.12378,0 0.22764,0.888791 0.22764,2.267504 l -4.2e-4,102.628043 0,0 c 0,1.33376 -0.12119,2.26751 -0.22764,2.26751 l -2.60765,0 0,-107.163057 -6.4e-4,0 z"  id="path4_3_-3-5-2-61-8-75-28-4" enable-background="new    " style="opacity:0.36000001;fill:#ffdc59;fill-opacity:1"/>
                                                        <path gorn="0.5.0.0.0.0.0.8.0.0.0.0.0.0.26" d="m 152.99699,44.537943 2.60877,0 c 0.12378,0 0.22764,0.888791 0.22764,2.267504 l -4.2e-4,102.628053 0,0 c 0,1.33376 -0.12119,2.26751 -0.22764,2.26751 l -2.60765,0 0,-107.163067 -6.4e-4,0 z"  id="path4_3_-3-5-2-61-8-75-28-78" enable-background="new    " style="opacity:0.36000001;fill:#ffdc59;fill-opacity:1"/>
                                                        <path gorn="0.5.0.0.0.0.0.8.0.0.0.0.0.0.27" d="m 163.56707,44.997512 2.60877,0 c 0.12378,0 0.22764,0.888791 0.22764,2.267504 l -4.2e-4,102.628044 0,0 c 0,1.33376 -0.12119,2.26751 -0.22764,2.26751 l -2.60765,0 0,-107.163058 -6.4e-4,0 z"  id="path4_3_-3-5-2-61-8-75-28-45" enable-background="new    " style="opacity:0.36000001;fill:#ffdc59;fill-opacity:1"/>
                                                        <path gorn="0.5.0.0.0.0.0.8.0.0.0.0.0.0.28" d="m 175.97543,44.997512 2.60877,0 c 0.12378,0 0.22764,0.888791 0.22764,2.267504 l -4.2e-4,102.628044 0,0 c 0,1.33376 -0.12119,2.26751 -0.22764,2.26751 l -2.60765,0 0,-107.163058 -6.4e-4,0 z"  id="path4_3_-3-5-2-61-8-75-28-0" enable-background="new    " style="opacity:0.36000001;fill:#ffdc59;fill-opacity:1"/>
                                                        <path gorn="0.5.0.0.0.0.0.8.0.0.0.0.0.0.29" d="m 186.54553,45.457081 2.60877,0 c 0.12378,0 0.22764,0.888791 0.22764,2.267504 l -4.2e-4,102.628045 0,0 c 0,1.33376 -0.12119,2.26751 -0.22764,2.26751 l -2.60765,0 0,-107.163059 -6.4e-4,0 z"  id="path4_3_-3-5-2-61-8-75-28-36" enable-background="new    " style="opacity:0.36000001;fill:#ffdc59;fill-opacity:1"/>
                                                        <path gorn="0.5.0.0.0.0.0.8.0.0.0.0.0.0.30" d="m 197.11561,44.997512 2.60877,0 c 0.12378,0 0.22764,0.888791 0.22764,2.267504 l -4.2e-4,102.628044 0,0 c 0,1.33376 -0.12119,2.26751 -0.22764,2.26751 l -2.60765,0 0,-107.163058 -6.4e-4,0 z"  id="path4_3_-3-5-2-61-8-75-28-10" enable-background="new    " style="opacity:0.36000001;fill:#ffdc59;fill-opacity:1"/>
                                                        <path gorn="0.5.0.0.0.0.0.8.0.0.0.0.0.0.31" d="m 207.22613,43.159236 2.60877,0 c 0.12378,0 0.22764,0.888791 0.22764,2.267504 l -4.2e-4,102.62804 0,0 c 0,1.33376 -0.12119,2.26751 -0.22764,2.26751 l -2.60765,0 0,-107.163054 -6.4e-4,0 z"  id="path4_3_-3-5-2-61-8-75-28-63" enable-background="new    " style="opacity:0.36000001;fill:#ffdc59;fill-opacity:1"/>
                                                        <path gorn="0.5.0.0.0.0.0.8.0.0.0.0.0.0.32" d="m 217.33665,45.457081 2.60877,0 c 0.12378,0 0.22764,0.888791 0.22764,2.267504 l -4.2e-4,102.628045 0,0 c 0,1.33376 -0.12119,2.26751 -0.22764,2.26751 l -2.60765,0 0,-107.163059 -6.4e-4,0 z"  id="path4_3_-3-5-2-61-8-75-28-20" enable-background="new    " style="opacity:0.36000001;fill:#ffdc59;fill-opacity:1"/>
                                                        <path gorn="0.5.0.0.0.0.0.8.0.0.0.0.0.0.33" d="m 228.82588,44.078374 2.60877,0 c 0.12378,0 0.22764,0.888791 0.22764,2.267504 l -4.2e-4,102.628052 0,0 c 0,1.33376 -0.12119,2.26751 -0.22764,2.26751 l -2.60765,0 0,-107.163066 -6.4e-4,0 z"  id="path4_3_-3-5-2-61-8-75-28-61" enable-background="new    " style="opacity:0.36000001;fill:#ffdc59;fill-opacity:1"/>
                                                        <path gorn="0.5.0.0.0.0.0.8.0.0.0.0.0.0.34" d="m 239.39596,45.457081 2.60877,0 c 0.12378,0 0.22764,0.888791 0.22764,2.267504 l -4.2e-4,102.628045 0,0 c 0,1.33376 -0.12119,2.26751 -0.22764,2.26751 l -2.60765,0 0,-107.163059 -6.4e-4,0 z"  id="path4_3_-3-5-2-61-8-75-28-5" enable-background="new    " style="opacity:0.36000001;fill:#ffdc59;fill-opacity:1"/>
                                                        <path gorn="0.5.0.0.0.0.0.8.0.0.0.0.0.0.35" d="m 250.88519,44.537943 2.60877,0 c 0.12378,0 0.22764,0.888791 0.22764,2.267504 l -4.2e-4,102.628043 0,0 c 0,1.33376 -0.12119,2.26751 -0.22764,2.26751 l -2.60765,0 0,-107.163057 -6.4e-4,0 z"  id="path4_3_-3-5-2-61-8-75-28-54" enable-background="new    " style="opacity:0.36000001;fill:#ffdc59;fill-opacity:1"/>
                                                        <path gorn="0.5.0.0.0.0.0.8.0.0.0.0.0.0.36" d="m 261.45528,45.457081 2.60877,0 c 0.12378,0 0.22764,0.888791 0.22764,2.267504 l -4.2e-4,102.628045 0,0 c 0,1.33376 -0.12119,2.26751 -0.22764,2.26751 l -2.60765,0 0,-107.163059 -6.4e-4,0 z"  id="path4_3_-3-5-2-61-8-75-28-76" enable-background="new    " style="opacity:0.36000001;fill:#ffdc59;fill-opacity:1"/>
                                                        <path gorn="0.5.0.0.0.0.0.8.0.0.0.0.0.0.37" d="m 272.48493,45.457081 2.60877,0 c 0.12378,0 0.22764,0.888791 0.22764,2.267504 l -4.2e-4,102.628045 0,0 c 0,1.33376 -0.12119,2.26751 -0.22764,2.26751 l -2.60765,0 0,-107.163059 -6.4e-4,0 z"  id="path4_3_-3-5-2-61-8-75-28-56" enable-background="new    " style="opacity:0.36000001;fill:#ffdc59;fill-opacity:1"/>
                                                        <path gorn="0.5.0.0.0.0.0.8.0.0.0.0.0.0.38" d="m 283.05502,44.537943 2.60877,0 c 0.12378,0 0.22764,0.888791 0.22764,2.267504 l -4.2e-4,102.628043 0,0 c 0,1.33376 -0.12119,2.26751 -0.22764,2.26751 l -2.60765,0 0,-107.163057 -6.4e-4,0 z"  id="path4_3_-3-5-2-61-8-75-28-937" enable-background="new    " style="opacity:0.36000001;fill:#ffdc59;fill-opacity:1"/>
                                                        <path gorn="0.5.0.0.0.0.0.8.0.0.0.0.0.0.39" d="m 293.62511,44.997512 2.60877,0 c 0.12378,0 0.22764,0.888791 0.22764,2.267504 l -4.2e-4,102.628044 0,0 c 0,1.33376 -0.12119,2.26751 -0.22764,2.26751 l -2.60765,0 0,-107.163058 -6.4e-4,0 z"  id="path4_3_-3-5-2-61-8-75-28-452" enable-background="new    " style="opacity:0.36000001;fill:#ffdc59;fill-opacity:1"/>
                                                        <path gorn="0.5.0.0.0.0.0.8.0.0.0.0.0.0.40" d="m 302.81649,44.078374 2.60877,0 c 0.12378,0 0.22764,0.888791 0.22764,2.267504 l -4.2e-4,102.628042 0,0 c 0,1.33376 -0.12119,2.26751 -0.22764,2.26751 l -2.60765,0 0,-107.163056 -6.4e-4,0 z"  id="path4_3_-3-5-2-61-8-75-28-547" enable-background="new    " style="opacity:0.36000001;fill:#ffdc59;fill-opacity:1"/>
                                                        <path gorn="0.5.0.0.0.0.0.8.0.0.0.0.0.0.41" d="m 312.00787,43.618805 2.60877,0 c 0.12378,0 0.22764,0.888791 0.22764,2.267504 l -4.2e-4,102.628051 0,0 c 0,1.33376 -0.12119,2.26751 -0.22764,2.26751 l -2.60765,0 0,-107.163065 -6.4e-4,0 z"  id="path4_3_-3-5-2-61-8-75-28-44" enable-background="new    " style="opacity:0.36000001;fill:#ffdc59;fill-opacity:1"/>
                                                    </g>
                                                </g>
                                            </g>
                                        </g>
                                    </g>
                                </g>
                            </g>
                        </g>
                    </g>
                </g>
            </g>
        </g>
    </g>
    <g  transform="matrix(0.97682863,-0.21402298,0.21402298,0.97682863,0,0)">
        <g >
            <g >
                <rect height="2.6229999" gorn="0.6.0.0.0"  x="230.85236" y="60.937298" id="connector1pin" style="fill:none" width="12.293"/>
            </g>
        </g>
    </g>
    <g  transform="matrix(0.97682863,-0.21402298,0.21402298,0.97682863,0,0)">
        <g >
            <g >
                <rect height="2.6210001" gorn="0.7.0.0.0"  x="230.85236" y="54.454296" id="connector0pin" style="fill:none" width="12.293"/>
            </g>
        </g>
    </g>
</svg>
