<?xml version='1.0' encoding='UTF-8' standalone='no'?>
<!-- Created with Fritzing (http://www.fritzing.org/) -->
<svg xmlns="http://www.w3.org/2000/svg" width="54.360004" x="0in" viewBox="0 0 43.488 43.244214" y="0in"  gorn="0" version="1.2" height="54.055271" id="svg2">
    <desc >
        <referenceFile >SparkFun_Si7021_Breakout_breadboard.svg</referenceFile>
    </desc>
    <metadata  id="metadata394">
        <rdf:RDF xmlns:rdf="http://www.w3.org/1999/02/22-rdf-syntax-ns#">
            <cc:Work xmlns:rdf="http://www.w3.org/1999/02/22-rdf-syntax-ns#" xmlns:cc="http://creativecommons.org/ns#" rdf:about="">
                <dc:format xmlns:dc="http://purl.org/dc/elements/1.1/">image/svg+xml</dc:format>
                <dc:type xmlns:rdf="http://www.w3.org/1999/02/22-rdf-syntax-ns#" rdf:resource="http://purl.org/dc/dcmitype/StillImage" xmlns:dc="http://purl.org/dc/elements/1.1/"/>
            </cc:Work>
        </rdf:RDF>
    </metadata>
    <defs  id="defs392"/>
    <desc  id="desc4">Fritzing breadboard generated by brd2svg</desc>
    <path d="m 43.488,43.2 0,-43.2 -43.20000021,0 0,43.2 43.20000021,0 m -11.88,-36 a 4.68,4.68 0 1 1 9.36,0 4.68,4.68 0 0 1 -9.36,0 z m 0,28.8 a 4.68,4.68 0 1 1 9.36,0 4.68,4.68 0 0 1 -9.36,0 z M 2.4479998,10.8 a 1.44,1.44 0 1 1 2.88,0 1.44,1.44 0 0 1 -2.88,0 z m 0,7.2 a 1.44,1.44 0 1 1 2.88,0 1.44,1.44 0 0 1 -2.88,0 z m 0,7.2 a 1.44,1.44 0 1 1 2.88,0 1.44,1.44 0 0 1 -2.88,0 z m 0,7.2 a 1.44,1.44 0 1 1 2.88,0 1.44,1.44 0 0 1 -2.88,0 z"  stroke="none" gorn="0.4" fill="#e6321e" id="path8"/>
    <g  transform="translate(-0.44831249,3.1474061)">
        <g >
            <g  gorn="0.5.0.0" id="g14">
                <title  id="title16">text:+</title>
                <g  transform="translate(10.9008,16.2)">
                    <g >
                        <g  gorn="0.5.0.0.1.0.0" id="g18">
                            <g  transform="matrix(0,-1,1,0,0,0)">
                                <g >
                                    <g  gorn="0.5.0.0.1.0.0.0.0.0" id="g20">
                                        <text style="text-anchor:start;font-family:OCRA" stroke-width="0.324" x="0" y="0"  stroke="#ffffff" gorn="0.5.0.0.1.0.0.0.0.0.0" font-size="2.67264" fill="#ffffff" id="text22">+</text>
                                    </g>
                                </g>
                            </g>
                        </g>
                    </g>
                </g>
            </g>
        </g>
    </g>
    <g  transform="translate(-1.0268435,3.0948123)">
        <g >
            <g  gorn="0.6.0.0" id="g24">
                <title  id="title26">text:-</title>
                <g  transform="translate(10.9008,9)">
                    <g >
                        <g  gorn="0.6.0.0.1.0.0" id="g28">
                            <g  transform="matrix(0,-1,1,0,0,0)">
                                <g >
                                    <g  gorn="0.6.0.0.1.0.0.0.0.0" id="g30">
                                        <text style="text-anchor:start;font-family:OCRA" stroke-width="0.324" x="0" y="0"  stroke="#ffffff" gorn="0.6.0.0.1.0.0.0.0.0.0" font-size="2.67264" fill="#ffffff" id="text32">-</text>
                                    </g>
                                </g>
                            </g>
                        </g>
                    </g>
                </g>
            </g>
        </g>
    </g>
    <g  transform="matrix(-1,0,0,-1,40.118094,46.971046)">
        <g >
            <g  gorn="0.7.0.0" id="g34">
                <title  id="title36">text:PU</title>
                <g  transform="translate(19.872,23.472)">
                    <g >
                        <g  gorn="0.7.0.0.1.0.0" id="g38">
                            <g  transform="matrix(0,1,-1,0,0,0)">
                                <g >
                                    <g  gorn="0.7.0.0.1.0.0.0.0.0" id="g40">
                                        <text style="text-anchor:start;font-family:OCRA" stroke-width="0.27000001" x="0" y="0"  stroke="#ffffff" gorn="0.7.0.0.1.0.0.0.0.0.0" font-size="2.13811" fill="#ffffff" id="text42">PU</text>
                                    </g>
                                </g>
                            </g>
                        </g>
                    </g>
                </g>
            </g>
        </g>
    </g>
    <g  transform="translate(-23.168806,3.365999)">
        <g >
            <g  gorn="0.8.0.0" id="g44">
                <title  id="title46">text:Humidity &amp; 
Temp Sensor</title>
                <text style="text-anchor:start;font-family:OCRA" stroke-width="0.27000001" x="23.976" y="39.176601"  stroke="#ffffff" gorn="0.8.0.0.1" font-size="2.13811" fill="#ffffff" id="text48">Humidity &amp; Temp Sensor</text>
            </g>
        </g>
    </g>
    <g  transform="translate(-17.962026,-1.4726246)">
        <g >
            <g  gorn="0.9.0.0" id="g50">
                <title  id="title52">text:Si7021</title>
                <text style="text-anchor:start;font-family:OCRA" stroke-width="0.34560001" x="29.52" y="5.6160002"  stroke="#ffffff" gorn="0.9.0.0.1" font-size="3.3408" fill="#ffffff" id="text54">Si7021</text>
            </g>
        </g>
    </g>
    <g  transform="matrix(-1,0,0,-1,21.11178,68.78952)">
        <g >
            <g  gorn="0.10.0.0" id="g56">
                <title  id="title58">text:CL</title>
                <g  transform="translate(10.44,34.2)">
                    <g >
                        <g  gorn="0.10.0.0.1.0.0" id="g60">
                            <g  transform="matrix(0,1,-1,0,0,0)">
                                <g >
                                    <g  gorn="0.10.0.0.1.0.0.0.0.0" id="g62">
                                        <text style="text-anchor:start;font-family:OCRA" stroke-width="0.27000001" x="0" y="0"  stroke="#ffffff" gorn="0.10.0.0.1.0.0.0.0.0.0" font-size="2.33856" fill="#ffffff" id="text64">CL</text>
                                    </g>
                                </g>
                            </g>
                        </g>
                    </g>
                </g>
            </g>
        </g>
    </g>
    <g  transform="matrix(-1,0,0,-1,20.826623,54.295495)">
        <g >
            <g  gorn="0.11.0.0" id="g66">
                <title  id="title68">text:DA</title>
                <g  transform="translate(10.44,27)">
                    <g >
                        <g  gorn="0.11.0.0.1.0.0" id="g70">
                            <g  transform="matrix(0,1,-1,0,0,0)">
                                <g >
                                    <g  gorn="0.11.0.0.1.0.0.0.0.0" id="g72">
                                        <text style="text-anchor:start;font-family:OCRA" stroke-width="0.27000001" x="0" y="0"  stroke="#ffffff" gorn="0.11.0.0.1.0.0.0.0.0.0" font-size="2.33856" fill="#ffffff" id="text74">DA</text>
                                    </g>
                                </g>
                            </g>
                        </g>
                    </g>
                </g>
            </g>
        </g>
    </g>
    <g  transform="translate(0.28799979,0)">
        <g >
            <g  gorn="0.12.0.0" id="g76">
                <title  id="title78">element:C2</title>
                <g  gorn="0.12.0.0.1" id="g80">
                    <title  id="title82">package:0603-CAP</title>
                    <line style="stroke-linecap:round" stroke-width="1.08000004" y1="21.6" y2="21.6" x1="21.5208" x2="21.679199"  stroke="#ffffff" gorn="0.12.0.0.1.1" id="line84"/>
                </g>
            </g>
        </g>
    </g>
    <g  transform="translate(0.28799979,0)">
        <g >
            <g  gorn="0.13.0.0" id="g86">
                <title  id="title88">element:JP1</title>
                <g  gorn="0.13.0.0.1" id="g90">
                    <title  id="title92">package:1X04</title>
                    <line style="stroke-linecap:round" stroke-width="0.57599998" y1="30.6" y2="34.200001" x1="7.1999998" x2="7.1999998"  stroke="#ffffff" gorn="0.13.0.0.1.1" id="line94"/>
                    <line style="stroke-linecap:round" stroke-width="0.57599998" y1="34.200001" y2="36" x1="7.1999998" x2="5.4000001"  stroke="#ffffff" gorn="0.13.0.0.1.2" id="line96"/>
                    <line style="stroke-linecap:round" stroke-width="0.57599998" y1="36" y2="34.200001" x1="1.8" x2="0"  stroke="#ffffff" gorn="0.13.0.0.1.3" id="line98"/>
                    <line style="stroke-linecap:round" stroke-width="0.57599998" y1="21.6" y2="23.4" x1="5.4000001" x2="7.1999998"  stroke="#ffffff" gorn="0.13.0.0.1.4" id="line100"/>
                    <line style="stroke-linecap:round" stroke-width="0.57599998" y1="23.4" y2="27" x1="7.1999998" x2="7.1999998"  stroke="#ffffff" gorn="0.13.0.0.1.5" id="line102"/>
                    <line style="stroke-linecap:round" stroke-width="0.57599998" y1="27" y2="28.799999" x1="7.1999998" x2="5.4000001"  stroke="#ffffff" gorn="0.13.0.0.1.6" id="line104"/>
                    <line style="stroke-linecap:round" stroke-width="0.57599998" y1="28.799999" y2="27" x1="1.8" x2="0"  stroke="#ffffff" gorn="0.13.0.0.1.7" id="line106"/>
                    <line style="stroke-linecap:round" stroke-width="0.57599998" y1="27" y2="23.4" x1="0" x2="0"  stroke="#ffffff" gorn="0.13.0.0.1.8" id="line108"/>
                    <line style="stroke-linecap:round" stroke-width="0.57599998" y1="23.4" y2="21.6" x1="0" x2="1.8"  stroke="#ffffff" gorn="0.13.0.0.1.9" id="line110"/>
                    <line style="stroke-linecap:round" stroke-width="0.57599998" y1="30.6" y2="28.799999" x1="7.1999998" x2="5.4000001"  stroke="#ffffff" gorn="0.13.0.0.1.10" id="line112"/>
                    <line style="stroke-linecap:round" stroke-width="0.57599998" y1="28.799999" y2="30.6" x1="1.8" x2="0"  stroke="#ffffff" gorn="0.13.0.0.1.11" id="line114"/>
                    <line style="stroke-linecap:round" stroke-width="0.57599998" y1="34.200001" y2="30.6" x1="0" x2="0"  stroke="#ffffff" gorn="0.13.0.0.1.12" id="line116"/>
                    <line style="stroke-linecap:round" stroke-width="0.57599998" y1="9" y2="12.6" x1="7.1999998" x2="7.1999998"  stroke="#ffffff" gorn="0.13.0.0.1.13" id="line118"/>
                    <line style="stroke-linecap:round" stroke-width="0.57599998" y1="12.6" y2="14.4" x1="7.1999998" x2="5.4000001"  stroke="#ffffff" gorn="0.13.0.0.1.14" id="line120"/>
                    <line style="stroke-linecap:round" stroke-width="0.57599998" y1="14.4" y2="12.6" x1="1.8" x2="0"  stroke="#ffffff" gorn="0.13.0.0.1.15" id="line122"/>
                    <line style="stroke-linecap:round" stroke-width="0.57599998" y1="14.4" y2="16.200001" x1="5.4000001" x2="7.1999998"  stroke="#ffffff" gorn="0.13.0.0.1.16" id="line124"/>
                    <line style="stroke-linecap:round" stroke-width="0.57599998" y1="16.200001" y2="19.799999" x1="7.1999998" x2="7.1999998"  stroke="#ffffff" gorn="0.13.0.0.1.17" id="line126"/>
                    <line style="stroke-linecap:round" stroke-width="0.57599998" y1="19.799999" y2="21.6" x1="7.1999998" x2="5.4000001"  stroke="#ffffff" gorn="0.13.0.0.1.18" id="line128"/>
                    <line style="stroke-linecap:round" stroke-width="0.57599998" y1="21.6" y2="19.799999" x1="1.8" x2="0"  stroke="#ffffff" gorn="0.13.0.0.1.19" id="line130"/>
                    <line style="stroke-linecap:round" stroke-width="0.57599998" y1="19.799999" y2="16.200001" x1="0" x2="0"  stroke="#ffffff" gorn="0.13.0.0.1.20" id="line132"/>
                    <line style="stroke-linecap:round" stroke-width="0.57599998" y1="16.200001" y2="14.4" x1="0" x2="1.8"  stroke="#ffffff" gorn="0.13.0.0.1.21" id="line134"/>
                    <line style="stroke-linecap:round" stroke-width="0.57599998" y1="7.1999998" y2="7.1999998" x1="5.4000001" x2="1.8"  stroke="#ffffff" gorn="0.13.0.0.1.22" id="line136"/>
                    <line style="stroke-linecap:round" stroke-width="0.57599998" y1="9" y2="7.1999998" x1="7.1999998" x2="5.4000001"  stroke="#ffffff" gorn="0.13.0.0.1.23" id="line138"/>
                    <line style="stroke-linecap:round" stroke-width="0.57599998" y1="7.1999998" y2="9" x1="1.8" x2="0"  stroke="#ffffff" gorn="0.13.0.0.1.24" id="line140"/>
                    <line style="stroke-linecap:round" stroke-width="0.57599998" y1="12.6" y2="9" x1="0" x2="0"  stroke="#ffffff" gorn="0.13.0.0.1.25" id="line142"/>
                    <line style="stroke-linecap:round" stroke-width="0.57599998" y1="36" y2="36" x1="5.4000001" x2="1.8"  stroke="#ffffff" gorn="0.13.0.0.1.26" id="line144"/>
                </g>
            </g>
        </g>
    </g>
    <g  transform="translate(0.28799979,0)">
        <g >
            <g  gorn="0.14.0.0" id="g146">
                <title  id="title148">element:JP3</title>
                <g  gorn="0.14.0.0.1" id="g150">
                    <title  id="title152">package:MICRO-FIDUCIAL</title>
                </g>
            </g>
        </g>
    </g>
    <g  transform="translate(0.28799979,0)">
        <g >
            <g  gorn="0.15.0.0" id="g154">
                <title  id="title156">element:JP4</title>
                <g  gorn="0.15.0.0.1" id="g158">
                    <title  id="title160">package:MICRO-FIDUCIAL</title>
                </g>
            </g>
        </g>
    </g>
    <g  transform="translate(0.28799979,0)">
        <g >
            <g  gorn="0.16.0.0" id="g162">
                <title  id="title164">element:LOGO2</title>
                <g  gorn="0.16.0.0.1" id="g166">
                    <title  id="title168">package:OSHW-LOGO-S</title>
                </g>
            </g>
        </g>
    </g>
    <g  transform="translate(0.28799979,0)">
        <g >
            <g  gorn="0.17.0.0" id="g170">
                <title  id="title172">element:LOGO3</title>
                <g  gorn="0.17.0.0.1" id="g174">
                    <title  id="title176">package:SFE_LOGO_FLAME_.1</title>
                    <g  gorn="0.17.0.0.1.1" id="g178">
                        <title  id="title180">polygon</title>
                        <path style="stroke-linecap:round" d="m 39.0189,18.5018 0,0.2551 m 0,0 -0.0284,0.085 m 0,0 -0.0283,0.0567 m 0,0 -0.085,0.085 m 0,0 -0.085,0.0284 m 0,0 -0.0851,0 m 0,0 -0.2268,-0.0567 m 0,0 -0.1134,-0.0567 m 0,0 -0.085,-0.0567 m 0,0 -0.1134,-0.085 m 0,0 -0.1701,-0.1701 m 0,0 -0.1134,-0.1701 m 0,0 -0.0283,-0.1134 m 0,0 0,-0.1701 m 0,0 0.0283,-0.085 m 0,0 0.0284,-0.0567 m 0,0 0.0567,-0.085 m 0,0 0.1134,-0.0851 m 0,0 0.1134,-0.0567 m 0,0 0.1417,-0.0283 m 0,0 0.1134,-0.0284 m 0,0 0.17,0 m 0,0 0.0568,0.0284 m 0,0 0.0283,0 m 0,0 -0.0283,-0.0284 m 0,0 -0.1134,-0.085 m 0,0 -0.3969,-0.1984 m 0,0 -0.2551,-0.0568 m 0,0 -0.2835,0 m 0,0 -0.3118,0.0568 m 0,0 -0.3118,0.17 m 0,0 -0.2551,0.1985 m 0,0 -0.1417,0.2268 m 0,0 -0.0851,0.2551 m 0,0 0,0.2268 m 0,0 0.0567,0.2551 m 0,0 0.1417,0.2551 m 0,0 0.1984,0.2268 m 0,0 0.2268,0.2551 m 0,0 0.1985,0.1984 m 0,0 0.085,0.2268 m 0,0 0,0.1983 m 0,0 -0.0567,0.1702 m 0,0 -0.1134,0.1417 m 0,0 -0.1701,0.1134 m 0,0 -0.2267,0.0566 m 0,0 -0.2268,0 m 0,0 -0.1417,-0.0283 m 0,0 -0.1418,-0.0567 m 0,0 -0.1701,-0.1701 m 0,0 -0.0566,-0.085 m 0,0 -0.0284,-0.085 m 0,0 0,-0.1134 m 0,0 0.0284,-0.085 m 0,0 0.17,-0.1701 m 0,0 0.0851,-0.0284 m 0,0 0.1134,-0.0566 m 0,0 0.0283,-0.0284 m 0,0 -0.1134,-0.0567 m 0,0 -0.3402,0 m 0,0 -0.17,0.0283 m 0,0 -0.1417,0.0284 m 0,0 -0.1418,0.0567 m 0,0 -0.1134,0.085 m 0,0 -0.1417,0.1134 m 0,0 -0.17,0.2834 m 0,0 -0.0568,0.1985 m 0,0 -0.0283,0.2268 m 0,0 0,3.8834 m 0,0 0.1417,-0.1417 m 0,0 0.0851,-0.1417 m 0,0 0.1417,-0.1418 m 0,0 0.1417,-0.1701 m 0,0 0.3401,-0.3401 m 0,0 0.3402,-0.3968 m 0,0 0.2835,-0.2835 m 0,0 0.2835,-0.1701 m 0,0 0.17,-0.0283 m 0,0 0.5386,0 m 0,0 0.3402,-0.0567 m 0,0 0.3118,-0.0851 m 0,0 0.2835,-0.1133 m 0,0 0.2835,-0.1702 m 0,0 0.2267,-0.1983 m 0,0 0.2268,-0.2268 m 0,0 0.1984,-0.2551 m 0,0 0.2835,-0.5103 m 0,0 0.1417,-0.5386 m 0,0 0.0283,-0.4818 m 0,0 -0.085,-0.4536 m 0,0 -0.1418,-0.4252 m 0,0 -0.1984,-0.3118 m 0,0 -0.2267,-0.2551 m 0,0 -0.2268,-0.1417 m -3.9118,5.9782 0.0595,0 m -0.0595,-0.216 0.222,0 m -0.222,-0.216 0.4237,0 m -0.4237,-0.216 0.6225,0 m -0.6225,-0.216 0.8385,0 m -0.8385,-0.216 1.0253,0 m -1.0253,-0.216 1.2138,0 m -1.2138,-0.216 1.4298,0 m -1.4298,-0.216 1.7677,0 m -1.7677,-0.216 3.2371,0 m -3.2371,-0.216 3.6519,0 m -3.6519,-0.216 3.9092,0 m -3.9092,-0.216 4.1256,0 m -4.1256,-0.216 4.2964,0 m -4.2964,-0.216 4.428,0 m -4.428,-0.216 4.5481,0 m -4.5481,-0.216 4.643,0 m -4.643,-0.216 4.6998,0 m -4.6918,-0.216 1.4858,0 m 0.2931,0 2.9697,0 m -4.713,-0.216 1.0653,0 m 1.0881,0 2.5766,0 m -4.6461,-0.216 0.8646,0 m 1.3181,0 2.4762,0 m -4.527,-0.216 0.7928,0 m 1.2722,0 2.4389,0 m -4.2007,-0.216 0.8116,0 m 0.8786,0 2.47,0 m -2.6637,-0.216 2.6052,0 m -2.7993,-0.216 2.7273,0 m -2.917,-0.216 2.8055,0 m -2.9472,-0.216 1.6744,0 m 0.6644,0 0.4622,0 m -2.8848,-0.216 1.5027,0 m 0.9593,0 0.2308,0 m -2.7253,-0.216 1.3709,0 m -1.3513,-0.216 1.3127,0 M 36.6219,18 l 1.2873,0 m -1.1464,-0.216 1.3955,0 m -1.1031,-0.216 1.4001,0" stroke-width="0.21600001"  stroke="#ffffff" gorn="0.17.0.0.1.1.1" fill="none" id="path182"/>
                    </g>
                </g>
            </g>
        </g>
    </g>
    <g  transform="translate(0.28799979,0)">
        <g >
            <g  gorn="0.18.0.0" id="g184">
                <title  id="title186">element:LOGO4</title>
                <g  gorn="0.18.0.0.1" id="g188">
                    <title  id="title190">package:SFE_LOGO_NAME_.1</title>
                </g>
            </g>
        </g>
    </g>
    <g  transform="translate(0.28799979,0)">
        <g >
            <g  gorn="0.19.0.0" id="g192">
                <title  id="title194">element:R1</title>
                <g  gorn="0.19.0.0.1" id="g196">
                    <title  id="title198">package:0603-RES</title>
                    <rect x="13.86" width="1.08" y="11.88"  stroke="none" gorn="0.19.0.0.1.1" height="2.1600001" fill="#ffffff" id="rect200"/>
                </g>
            </g>
        </g>
    </g>
    <g  transform="translate(0.28799979,0)">
        <g >
            <g  gorn="0.20.0.0" id="g202">
                <title  id="title204">element:R2</title>
                <g  gorn="0.20.0.0.1" id="g206">
                    <title  id="title208">package:0603-RES</title>
                    <rect x="13.86" width="1.08" y="33.48"  stroke="none" gorn="0.20.0.0.1.1" height="2.1600001" fill="#ffffff" id="rect210"/>
                </g>
            </g>
        </g>
    </g>
    <g  transform="translate(0.28799979,0)">
        <g >
            <g  gorn="0.21.0.0" id="g212">
                <title  id="title214">element:SJ1</title>
                <g  gorn="0.21.0.0.1" id="g216">
                    <title  id="title218">package:SJ_3_PASTE1&amp;2&amp;3</title>
                    <line style="stroke-linecap:round" stroke-width="0.43200001" y1="18" y2="25.200001" x1="17.280001" x2="17.280001"  stroke="#ffffff" gorn="0.21.0.0.1.1" id="line220"/>
                    <path d="M 12.24,17.28 A 0.72,0.72 0 0 0 11.52,18" stroke-width="0.43200001"  stroke="#ffffff" gorn="0.21.0.0.1.2" fill="none" id="path222"/>
                    <path d="m 11.52,25.2 a 0.72,0.72 0 0 0 0.72,0.72" stroke-width="0.43200001"  stroke="#ffffff" gorn="0.21.0.0.1.3" fill="none" id="path224"/>
                    <path d="M 16.56,25.92 A 0.72,0.72 0 0 0 17.28,25.2" stroke-width="0.43200001"  stroke="#ffffff" gorn="0.21.0.0.1.4" fill="none" id="path226"/>
                    <path d="M 17.28,18 A 0.72,0.72 0 0 0 16.56,17.28" stroke-width="0.43200001"  stroke="#ffffff" gorn="0.21.0.0.1.5" fill="none" id="path228"/>
                    <line style="stroke-linecap:round" stroke-width="0.43200001" y1="17.280001" y2="17.280001" x1="16.559999" x2="12.24"  stroke="#ffffff" gorn="0.21.0.0.1.6" id="line230"/>
                    <line style="stroke-linecap:round" stroke-width="0.43200001" y1="25.92" y2="25.92" x1="16.559999" x2="12.24"  stroke="#ffffff" gorn="0.21.0.0.1.7" id="line232"/>
                    <line style="stroke-linecap:round" stroke-width="0.43200001" y1="25.200001" y2="18" x1="11.52" x2="11.52"  stroke="#ffffff" gorn="0.21.0.0.1.8" id="line234"/>
                </g>
            </g>
        </g>
    </g>
    <g  transform="translate(0.28799979,0)">
        <g >
            <g  gorn="0.22.0.0" id="g236">
                <title  id="title238">element:STANDOFF1</title>
                <g  gorn="0.22.0.0.1" id="g240">
                    <title  id="title242">package:STAND-OFF</title>
                </g>
            </g>
        </g>
    </g>
    <g  transform="translate(0.28799979,0)">
        <g >
            <g  gorn="0.23.0.0" id="g244">
                <title  id="title246">element:STANDOFF2</title>
                <g  gorn="0.23.0.0.1" id="g248">
                    <title  id="title250">package:STAND-OFF</title>
                </g>
            </g>
        </g>
    </g>
    <g  transform="translate(0.28799979,0)">
        <g >
            <g  gorn="0.24.0.0" id="g252">
                <title  id="title254">element:U1</title>
                <g  gorn="0.24.0.0.1" id="g256">
                    <title  id="title258">package:SI7021</title>
                    <line style="stroke-linecap:round" stroke-width="0.36000001" y1="25.848" y2="25.848" x1="32.759998" x2="33.048"  stroke="#ffffff" gorn="0.24.0.0.1.1" id="line260"/>
                    <line style="stroke-linecap:round" stroke-width="0.36000001" y1="25.848" y2="17.351999" x1="33.048" x2="33.048"  stroke="#ffffff" gorn="0.24.0.0.1.2" id="line262"/>
                    <line style="stroke-linecap:round" stroke-width="0.36000001" y1="17.351999" y2="17.351999" x1="33.048" x2="32.759998"  stroke="#ffffff" gorn="0.24.0.0.1.3" id="line264"/>
                    <line style="stroke-linecap:round" stroke-width="0.36000001" y1="25.848" y2="25.848" x1="24.84" x2="24.552"  stroke="#ffffff" gorn="0.24.0.0.1.4" id="line266"/>
                    <line style="stroke-linecap:round" stroke-width="0.36000001" y1="25.848" y2="17.351999" x1="24.552" x2="24.552"  stroke="#ffffff" gorn="0.24.0.0.1.5" id="line268"/>
                    <line style="stroke-linecap:round" stroke-width="0.36000001" y1="17.351999" y2="17.351999" x1="24.552" x2="24.84"  stroke="#ffffff" gorn="0.24.0.0.1.6" id="line270"/>
                    <circle d="m 34.151358,16.559999 c 0,0.251488 -0.203871,0.455359 -0.455359,0.455359 -0.251488,0 -0.455359,-0.203871 -0.455359,-0.455359 0,-0.251487 0.203871,-0.455359 0.455359,-0.455359 0.251488,0 0.455359,0.203872 0.455359,0.455359 z" stroke-width="0.36000001" cx="33.695999" cy="16.559999"  stroke="#ffffff" gorn="0.24.0.0.1.7" r="0.45535901" fill="none" id="circle272"/>
                </g>
            </g>
        </g>
    </g>
    <rect width="1.08" x="14.148" fill-opacity="0.15" y="9.7200003"  stroke="none" gorn="0.25" height="2.1600001" fill="#ffffff" id="rect274"/>
    <rect width="1.08" x="14.148" fill-opacity="0.15" y="31.32"  stroke="none" gorn="0.26" height="2.1600001" fill="#ffffff" id="rect276"/>
    <rect width="9.5993299" x="24.84" fill-opacity="0.15" y="16.1047"  stroke="none" gorn="0.27" height="9.74333" fill="#ffffff" id="rect278"/>
    <g  transform="translate(0.28799979,0)">
        <g >
            <circle d="m 5.652,10.8 c 0,1.133289 -0.9187118,2.052 -2.0520001,2.052 -1.1332883,0 -2.052,-0.918711 -2.052,-2.052 0,-1.1332881 0.9187117,-2.0519999 2.052,-2.0519999 C 4.7332882,8.7480001 5.652,9.6667119 5.652,10.8 z" stroke-width="1.22399998" cx="3.5999999" cy="10.8"  stroke="#9a916c" gorn="0.28.0.0" r="2.052" fill="none" connectorname="GND" id="connector2pin"/>
        </g>
    </g>
    <rect stroke-width="1.22399998" width="4.1040001" x="1.8359997" y="8.7480001"  stroke="#9a916c" gorn="0.29" height="4.1040001" fill="none" id="rect281"/>
    <g  transform="translate(0.28799979,0)">
        <g >
            <circle d="m 5.652,18 c 0,1.133288 -0.9187118,2.052 -2.0520001,2.052 -1.1332883,0 -2.052,-0.918712 -2.052,-2.052 0,-1.133288 0.9187117,-2.052 2.052,-2.052 C 4.7332882,15.948 5.652,16.866712 5.652,18 z" stroke-width="1.22399998" cx="3.5999999" cy="18"  stroke="#9a916c" gorn="0.30.0.0" r="2.052" fill="none" connectorname="3.3V" id="connector3pin"/>
        </g>
    </g>
    <g  transform="translate(0.28799979,0)">
        <g >
            <circle d="m 5.652,25.200001 c 0,1.133288 -0.9187118,2.052 -2.0520001,2.052 -1.1332883,0 -2.052,-0.918712 -2.052,-2.052 0,-1.133289 0.9187117,-2.052 2.052,-2.052 1.1332883,0 2.0520001,0.918711 2.0520001,2.052 z" stroke-width="1.22399998" cx="3.5999999" cy="25.200001"  stroke="#9a916c" gorn="0.31.0.0" r="2.052" fill="none" connectorname="SDA" id="connector4pin"/>
        </g>
    </g>
    <g  transform="translate(0.28799979,0)">
        <g >
            <circle d="m 5.652,32.400002 c 0,1.133288 -0.9187118,2.052 -2.0520001,2.052 -1.1332883,0 -2.052,-0.918712 -2.052,-2.052 0,-1.133289 0.9187117,-2.052001 2.052,-2.052001 1.1332883,0 2.0520001,0.918712 2.0520001,2.052001 z" stroke-width="1.22399998" cx="3.5999999" cy="32.400002"  stroke="#9a916c" gorn="0.32.0.0" r="2.052" fill="none" connectorname="SCL" id="connector5pin"/>
        </g>
    </g>
    <g  transform="matrix(0,-1,1,0,12.77902,14.76897)">
        <g >
            <g  gorn="0.33.0.0" id="g332">
                <g  gorn="0.33.0.0.0" id="g334">
                    <g  gorn="0.33.0.0.0.0" id="g336">
                        <rect style="fill:#333333" width="7.9660101" x="-0.018999999" y="0"  gorn="0.33.0.0.0.0.0" height="2.8340001" id="rect338"/>
                        <rect style="opacity:0.2;fill:#ffffff" width="7.9660101" x="-0.018999999" y="0" enable-background="new    "  gorn="0.33.0.0.0.0.1" height="0.046" id="rect340"/>
                        <rect style="opacity:0.2" width="7.9660101" x="-0.018999999" y="2.802" enable-background="new    "  gorn="0.33.0.0.0.0.2" height="0.032000002" id="rect342"/>
                    </g>
                    <g  gorn="0.33.0.0.0.1" id="g344">
                        <path d="m 6.79,0 0,0 0,0 -0.093,0 0,0 c -0.08,0.251 -0.135,0.796003 -0.135,1.075 0,0.291 0.048,1.41 0.135,1.673 l 0,0 0,0 1.223,0 L 7.92,0 6.79,0 z" style="fill:#dcdcdc"  gorn="0.33.0.0.0.1.0" id="path346"/>
                        <path d="m 1.226,0.104 0,-0.104 -1.222,0 0,2.748 1.223,0 C 1.315,2.485 1.42,1.371 1.42,1.076 1.42,0.730001 1.345,0.405 1.226,0.104 z" style="fill:#dcdcdc"  gorn="0.33.0.0.0.1.1" id="path348"/>
                        <path d="m 7.92698,2.854 -1.22298,0 -0.007,-0.106 1.223,0 0.00698,0.106 z" style="fill:#999999"  gorn="0.33.0.0.0.1.2" id="path350"/>
                        <path d="m 0.01,2.855 1.223,0 -0.007,-0.107 -1.222,0 0.006,0.107 z" style="fill:#999999"  gorn="0.33.0.0.0.1.3" id="path352"/>
                        <rect style="opacity:0.5;fill:#ffffff" width="1.223" x="0.0040000002" y="0" enable-background="new    "  gorn="0.33.0.0.0.1.4" height="0.046" id="rect354"/>
                        <rect style="opacity:0.5;fill:#ffffff" width="1.224" x="6.698" y="0" enable-background="new    "  gorn="0.33.0.0.0.1.5" height="0.046" id="rect356"/>
                        <line style="fill:none" y1="2.8340001" y2="2.8340001" x1="0.74299699" x2="0.74299699"  gorn="0.33.0.0.0.1.6" id="line358"/>
                    </g>
                </g>
            </g>
        </g>
    </g>
    <g  transform="matrix(0,1,-1,0,16.597,28.431)">
        <g >
            <g  gorn="0.34.0.0" id="g362">
                <g  gorn="0.34.0.0.0" id="g364">
                    <g  gorn="0.34.0.0.0.0" id="g366">
                        <rect style="fill:#333333" width="7.9660101" x="-0.018999999" y="0"  gorn="0.34.0.0.0.0.0" height="2.8340001" id="rect368"/>
                        <rect style="opacity:0.2;fill:#ffffff" width="7.9660101" x="-0.018999999" y="0" enable-background="new    "  gorn="0.34.0.0.0.0.1" height="0.046" id="rect370"/>
                        <rect style="opacity:0.2" width="7.9660101" x="-0.018999999" y="2.802" enable-background="new    "  gorn="0.34.0.0.0.0.2" height="0.032000002" id="rect372"/>
                    </g>
                    <g  gorn="0.34.0.0.0.1" id="g374">
                        <path d="m 6.79,0 0,0 0,0 -0.093,0 0,0 c -0.08,0.251 -0.135,0.796003 -0.135,1.075 0,0.291 0.048,1.41 0.135,1.673 l 0,0 0,0 1.223,0 L 7.92,0 6.79,0 z" style="fill:#dcdcdc"  gorn="0.34.0.0.0.1.0" id="path376"/>
                        <path d="m 1.226,0.104 0,-0.104 -1.222,0 0,2.748 1.223,0 C 1.315,2.485 1.42,1.371 1.42,1.076 1.42,0.730001 1.345,0.405 1.226,0.104 z" style="fill:#dcdcdc"  gorn="0.34.0.0.0.1.1" id="path378"/>
                        <path d="m 7.92698,2.854 -1.22298,0 -0.007,-0.106 1.223,0 0.00698,0.106 z" style="fill:#999999"  gorn="0.34.0.0.0.1.2" id="path380"/>
                        <path d="m 0.01,2.855 1.223,0 -0.007,-0.107 -1.222,0 0.006,0.107 z" style="fill:#999999"  gorn="0.34.0.0.0.1.3" id="path382"/>
                        <rect style="opacity:0.5;fill:#ffffff" width="1.223" x="0.0040000002" y="0" enable-background="new    "  gorn="0.34.0.0.0.1.4" height="0.046" id="rect384"/>
                        <rect style="opacity:0.5;fill:#ffffff" width="1.224" x="6.698" y="0" enable-background="new    "  gorn="0.34.0.0.0.1.5" height="0.046" id="rect386"/>
                        <line style="fill:none" y1="2.8340001" y2="2.8340001" x1="0.74299699" x2="0.74299699"  gorn="0.34.0.0.0.1.6" id="line388"/>
                    </g>
                </g>
            </g>
        </g>
    </g>
    <g  transform="matrix(0,-0.79999996,0.79999996,0,20.939934,24.507007)">
        <g >
            <g  gorn="0.35.0.0" id="g3929">
                <rect style="fill:#af6c41" width="7.9650002" x="0" y="0"  gorn="0.35.0.0.0" height="2.8340001" id="rect3909"/>
                <g  gorn="0.35.0.0.1" id="g3911">
                    <g  gorn="0.35.0.0.1.0" id="g3913">
                        <path d="m 6.807,0 0,0 0,0 H 6.713 l 0,0 C 6.635,0.26 6.578,0.826 6.578,1.116 c 0,0.301 0.049,1.463 0.135,1.735 l 0,0 0,0 H 7.938 V 0 H 6.807 z" style="fill:#dcdcdc"  gorn="0.35.0.0.1.0.0" id="path3915"/>
                        <path d="M 1.222,0.108 V 0 H 0 V 2.852 H 1.223 C 1.311,2.58 1.416,1.423 1.416,1.117 1.416,0.757 1.341,0.42 1.222,0.108 z" style="fill:#dcdcdc"  gorn="0.35.0.0.1.0.1" id="path3917"/>
                    </g>
                </g>
                <rect style="opacity:0.2;fill:#ffffff" width="7.9650002" x="0" y="0"  gorn="0.35.0.0.2" height="0.142" id="rect3919"/>
                <rect style="opacity:0.2" width="7.9650002" x="0" y="2.6919999"  gorn="0.35.0.0.3" height="0.142" id="rect3921"/>
            </g>
        </g>
    </g>
    <g  transform="matrix(0.79999998,0,0,0.79999998,24.821521,17.32028)">
        <g >
            <g  gorn="0.36.0.0" id="g209625">
                <rect style="fill:#303030" width="10.629921" x="1.0530866e-007" y="0.029317377"  gorn="0.36.0.0.0" height="10.629921" id="rect209423"/>
                <g  transform="matrix(0.55505704,0,0,1,-1.2403743e-8,-4.1797614)">
                    <g >
                        <polygon style="fill:#1f1f1f"  gorn="0.36.0.0.1.0.0" points="0.719,14.118 18.437,14.118 19.161,14.839 0,14.839 " id="polygon209425"/>
                    </g>
                </g>
                <g  transform="matrix(0.55505704,0,0,1.0720345,-1.240374e-8,-5.2486809)">
                    <g >
                        <polygon style="fill:#1f1f1f"  gorn="0.36.0.0.2.0.0" points="0.719,5.619 18.437,5.619 19.161,4.896 0,4.896 " id="polygon209427"/>
                    </g>
                </g>
                <g  transform="matrix(0.68270609,0,0,1.0720345,-2.4458832,-5.2486809)">
                    <g >
                        <polygon  gorn="0.36.0.0.3.0.0" points="18.437,14.118 19.161,14.839 19.161,4.896 18.437,5.619 " id="polygon209429"/>
                    </g>
                </g>
                <g  transform="matrix(1,0,0,1.0720345,-1.240374e-8,-5.2486809)">
                    <g >
                        <polygon style="fill:#3d3d3d"  gorn="0.36.0.0.4.0.0" points="0.719,5.619 0.719,14.118 0,14.839 0,4.896 " id="polygon209431"/>
                    </g>
                </g>
                <path d="M 9.5976388,9.1616256 C 9.3221854,9.3238606 1.7425315,9.3742986 1.4944072,9.1764576 1.2462829,8.9786176 1.2220208,1.4398056 1.344126,1.1552977 1.4662252,0.87078979 6.6635773,0.94148119 6.9871662,0.96348649 7.3107551,0.98549219 9.705589,2.8497634 9.7834739,3.1478713 9.8613576,3.4459792 9.8730928,8.9993906 9.5976388,9.1616256 z" style="fill-rule:nonzero;stroke-miterlimit:4;" stroke-width="0" fill-opacity="1" stroke-opacity="1"  stroke="#000000" gorn="0.36.0.0.5" fill="#e6e6e6" id="path209562"/>
                <path d="M 9.1345916,9.1041556 C 8.8754968,9.2610136 1.7459805,9.3097796 1.5125928,9.1184956 1.2792041,8.9272106 1.2563832,1.6382489 1.371236,1.3631701 1.4860846,1.0880913 6.3747778,1.1564399 6.6791489,1.1777157 6.983521,1.1989926 9.236131,3.0014781 9.3093904,3.2897062 9.3826493,3.5779344 9.3936871,8.9472956 9.1345916,9.1041546 z" style="fill-rule:nonzero;stroke-miterlimit:4;" stroke-width="0" fill-opacity="1" stroke-opacity="1"  stroke="#000000" gorn="0.36.0.0.6" fill="#f9f9f9" id="path209562-1"/>
                <path d="m 1.7082148,9.0288396 c -0.01223,0.150586 -0.34875,0.197402 -0.3597662,0.01377 -0.011016,-0.183634 -0.012093,-7.1811054 -0.00667,-7.4451837 0.00542,-0.264078 0.2361723,-0.1984627 0.250539,-0.1780378 0.014367,0.020426 0.1206921,1.7508287 0.1241501,2.0275303 0.00346,0.2767018 0.00398,5.4313382 -0.00825,5.5819242 z" style="fill-rule:nonzero;stroke-miterlimit:4;" stroke-width="0" fill-opacity="1" stroke-opacity="1"  stroke="#000000" gorn="0.36.0.0.7" fill="#ffffff" id="path209562-1-5"/>
            </g>
        </g>
    </g>
    <g  transform="matrix(0,-0.79999994,0.79999994,0,12.865018,24.411382)">
        <g >
            <g  gorn="0.37.0.0" id="g230352">
                <g  transform="translate(0.00882799,-13.977628)">
                    <g >
                        <g  gorn="0.37.0.0.0.0.0" id="silkscreen"/>
                    </g>
                </g>
                <g  transform="matrix(0.44454112,0,0,0.25435564,0.0039244,-0.19988892)">
                    <g >
                        <g style="fill:#999999"  gorn="0.37.0.0.1.0.0" id="g230311">
                            <g  transform="translate(-5.7273138,-0.38776924)">
                                <g >
                                    <g style="fill:#999999"  gorn="0.37.0.0.1.0.0.0.0.0" id="g230172-2-6">
                                        <path style="fill:#999999" d="m 11.343001,2.4172097 0.02229,15.5742413 c 0,0 -0.300154,0.878891 2.259637,0.873926 2.968898,-0.0058 2.504783,-0.784292 2.504783,-0.784292 l -1e-6,-15.6638753 c 0,-1.3290001 -1.071116,-1.1735413 -2.392856,-1.1735413 -1.32174,0 -2.395752,-0.1554573 -2.39385,1.1735413 z"  gorn="0.37.0.0.1.0.0.0.0.0.0" id="path230174-7-1"/>
                                    </g>
                                </g>
                            </g>
                            <g  transform="translate(0.03161086,-0.42980804)">
                                <g >
                                    <g style="fill:#999999"  gorn="0.37.0.0.1.0.0.1.0.0" id="g230172-2-6-3">
                                        <path style="fill:#999999" d="m 11.343001,2.4172097 0.02229,15.5742413 c 0,0 -0.300154,0.878891 2.259637,0.873926 2.968898,-0.0058 2.504783,-0.784292 2.504783,-0.784292 l -1e-6,-15.6638753 c 0,-1.3290001 -1.071116,-1.1735413 -2.392856,-1.1735413 -1.32174,0 -2.395752,-0.1554573 -2.39385,1.1735413 z"  gorn="0.37.0.0.1.0.0.1.0.0.0" id="path230174-7-1-2"/>
                                    </g>
                                </g>
                            </g>
                            <g  transform="translate(-11.351826,-0.4522164)">
                                <g >
                                    <g style="fill:#999999"  gorn="0.37.0.0.1.0.0.2.0.0" id="g230172-2-6-6">
                                        <path style="fill:#999999" d="m 11.343001,2.4172097 0.02229,15.5742413 c 0,0 -0.300154,0.878891 2.259637,0.873926 2.968898,-0.0058 2.504783,-0.784292 2.504783,-0.784292 l -1e-6,-15.6638753 c 0,-1.3290001 -1.071116,-1.1735413 -2.392856,-1.1735413 -1.32174,0 -2.395752,-0.1554573 -2.39385,1.1735413 z"  gorn="0.37.0.0.1.0.0.2.0.0.0" id="path230174-7-1-8"/>
                                    </g>
                                </g>
                            </g>
                        </g>
                    </g>
                </g>
            </g>
        </g>
    </g>
    <rect style="fill-rule:nonzero;stroke-miterlimit:4;stroke-dasharray:none" stroke-width="0" width="2.787468" x="13.29758" fill-opacity="1" y="19.53282" stroke-opacity="1"  stroke="#000000" gorn="0.38" height="3.9971237" fill="#cccccc" id="rect230362"/>
</svg>
