<?xml version='1.0' encoding='utf-8'?>
<!DOCTYPE svg>
<!-- Generator: Adobe Illustrator 17.1.0, SVG Export Plug-In . SVG Version: 6.00 Build 0)  -->
<svg xmlns="http://www.w3.org/2000/svg" id="Layer_1" viewBox="0 0 64.8 172.9" gorn="0" width="0.9in" height="2.40139in" xml:space="preserve" enable-background="new 0 0 64.8 172.9"  xmlns:xml="http://www.w3.org/XML/1998/namespace" version="1.1" x="0px" y="0px">
    <desc >
        <referenceFile >SparkFun_Soil_Moisture_Sensor_breadboard.svg</referenceFile>
    </desc>
    <desc >Fritzing breadboard generated by brd2svg</desc>
    <g id="breadboard" gorn="0.2" >
        <g id="icon" gorn="0.2.0" >
            <path d="M7.2,0.1C3.2,0.1,0,3.3,0,7.3v144l7.2,21.6h7.2l7.2-21.6V46.9c0-2,1.6-3.6,3.6-3.6h14.4c2,0,3.6,1.6,3.6,3.6l0,0v104.4l7.2,21.6h7.2l7.2-21.6V7.3c0-4-3.2-7.2-7.2-7.2H7.2 M2.5,7.3c0-2.6,2.1-4.7,4.7-4.7s4.7,2.1,4.7,4.7c0,0,0,0,0,0c0,2.6-2.1,4.7-4.7,4.7S2.5,9.8,2.5,7.3C2.5,7.3,2.5,7.3,2.5,7.3z M52.9,7.3c0-2.6,2.1-4.7,4.7-4.7s4.7,2.1,4.7,4.7s-2.1,4.7-4.7,4.7S52.9,9.8,52.9,7.3z M23.8,18.1c0-0.8,0.6-1.4,1.4-1.4c0.8,0,1.4,0.6,1.4,1.4c0,0,0,0,0,0c0,0.8-0.6,1.4-1.4,1.4S23.8,18.8,23.8,18.1z M31,18.1c0-0.8,0.6-1.4,1.4-1.4c0.8,0,1.4,0.6,1.4,1.4s-0.6,1.4-1.4,1.4C31.6,19.5,31,18.8,31,18.1z M38.2,18.1c0-0.8,0.6-1.4,1.4-1.4c0.8,0,1.4,0.6,1.4,1.4s-0.6,1.4-1.4,1.4C38.8,19.5,38.2,18.8,38.2,18.1z M40.6,10.2c0-0.9,0.8-1.7,1.7-1.7S44,9.3,44,10.2s-0.8,1.7-1.7,1.7S40.6,11.1,40.6,10.2L40.6,10.2z M30.6,10.2c0-0.9,0.8-1.7,1.7-1.7S34,9.3,34,10.2l0,0c0,0.9-0.8,1.7-1.7,1.7C31.4,11.9,30.6,11.1,30.6,10.2C30.6,10.2,30.6,10.2,30.6,10.2z M20.7,10.2c0-0.9,0.8-1.7,1.7-1.7s1.7,0.8,1.7,1.7s-0.8,1.7-1.7,1.7S20.7,11.1,20.7,10.2L20.7,10.2z" fill="#EC1C24" />
            <path d="M7.2,0.1 M43.2,46.9L43.2,46.9v104.4l7.2,21.6h7.2l7.2-21.6l0-104.4L43.2,46.9z M0,151.3l7.2,21.6h7.2l7.2-21.6V46.9L0,46.8V151.3z" fill="#E3CEC3" />
            <g transform="matrix(-4.37114e-08, -1, 1, -4.37114e-08, 163.219, 138.997)" >
                <g >
                    <g id="silkscreen" gorn="0.2.0.2.0.0" >
                        <g transform="matrix(0 1 -1 0 133.6008 -146.0663)" >
                            <g >
                                <text id="_x30_.1.0.2.2.1.0_37_" font-size="4" gorn="0.2.0.2.0.0.0.0.0" fill="#FFFFFF"  font-family="OCRA">VCC GND SIG</text>
                            </g>
                        </g>
                        <g transform="matrix(0 1 -1 0 97.2256 -159.0663)" >
                            <g >
                                <text id="_x30_.1.0.2.2.1.0_36_" font-size="4" gorn="0.2.0.2.0.0.1.0.0" fill="#FFFFFF"  font-family="OCRA">Soil Moisture Sensor</text>
                            </g>
                        </g>
                        <path d="M120.8-103c0,0-0.8,0.2-1-0.4c0-0.4,0.4-1.2,0.8-1.6c0.6-0.4,1-0.4,1.4,0c0.6,0.6,0.4,1.4,0.4,1.4s1.6-1.8,0.2-3.6c-1.2-1.6-2.6-1.2-4,0.4c-1.2,1.4-2.4,0.2-2.4-1c0.2-1,0.8-1.2,1.2-1s0.6,0.8,0.6,0.8s0.4-0.8,0-1.6c-0.2-0.8-1-1.4-2.6-1.4h-7.6c0,0,1,0.8,2,1.8c1.2,1,2,1.6,1.8,2.6c-0.2,2,0.8,3.6,2.2,4.6C117.2-100.2,120.4-101.8,120.8-103z" fill="#FFFFFE" />
                    </g>
                </g>
            </g>
            <rect width="7.9" height="2.3" fill="#333333"  x="28.4" y="30.5"/>
            <circle stroke="#9A916C" gorn="0.2.0.4" stroke-width="1.224" cx="25.2" r="2.1" cy="18.1" fill="none" />
            <rect stroke="#9A916C" id="connector3pin" gorn="0.2.0.5" stroke-width="1.224" width="4.1" height="4.1" fill="none"  x="23.1" y="16"/>
            <circle stroke="#9A916C" id="connector4pin" gorn="0.2.0.6" stroke-width="1.224" cx="32.4" r="2.1" cy="18.1" fill="none" />
            <circle stroke="#9A916C" id="connector5pin" gorn="0.2.0.7" stroke-width="1.224" cx="39.6" r="2.1" cy="18.1" fill="none" />
            <circle stroke="#9A916C" gorn="0.2.0.8" stroke-width="1.7192" cx="42.3" r="2.6" cy="10.2" fill="none" />
            <rect stroke="#9A916C" id="connector2pin" gorn="0.2.0.9" stroke-width="1.7192" width="5.1" height="5.1" fill="none"  x="39.7" y="7.6"/>
            <circle stroke="#9A916C" id="connector1pin" gorn="0.2.0.10" stroke-width="1.7192" cx="32.3" r="2.6" cy="10.2" fill="none" />
            <circle stroke="#9A916C" id="connector0pin" gorn="0.2.0.11" stroke-width="1.7192" cx="22.4" r="2.6" cy="10.2" fill="none" />
        </g>
        <g transform="matrix(1, 0, 0, 1, 35.139, 31.004)" >
            <g >
                <g id="_x30_603-res" gorn="0.2.1.0.0" >
                    <g transform="matrix(0, -1, 1, 0, 2.552, 5.386)" >
                        <g >
                            <g >
                                <g >
                                    <g >
                                        <g transform="matrix(-2.547107e-06 -1 1 -2.547107e-06 2.5469 5.3811)" >
                                            <g >
                                                <rect width="2.8" height="8" fill="#333333"  x="2.5" y="-2.6"/>
                                            </g>
                                        </g>
                                        <g transform="matrix(-2.547107e-06 -1 1 -2.547107e-06 3.9409 3.9871)" >
                                            <g >
                                                <rect width="0" height="8" enable-background="new    " opacity="0.2" fill="#FFFFFF"  x="3.9" y="-4"/>
                                            </g>
                                        </g>
                                        <g transform="matrix(-2.547107e-06 -1 1 -2.547107e-06 1.1459 6.7821)" >
                                            <g >
                                                <rect width="0" height="8" enable-background="new    " opacity="0.2"  x="3.9" y="-1.2"/>
                                            </g>
                                        </g>
                                    </g>
                                    <g >
                                        <path d="M6.8,0L6.8,0L6.8,0L6.8,0L6.8,0C6.6,0.3,6.6,0.8,6.6,1.1c0,0.3,0,1.4,0.1,1.7l0,0l0,0l1.2,0V0H6.8z" fill="#DCDCDC" />
                                        <path d="M1.2,0.1V0H0v2.7h1.2c0.1-0.3,0.2-1.4,0.2-1.7C1.4,0.7,1.3,0.4,1.2,0.1z" fill="#DCDCDC" />
                                        <path d="M7.9,2.9H6.7l0-0.1h1.2L7.9,2.9z" fill="#999999" />
                                        <path d="M0,2.9h1.2l0-0.1H0L0,2.9z" fill="#999999" />
                                        <g transform="matrix(-2.547107e-06 -1 1 -2.547107e-06 0.5924 0.6386)" >
                                            <g >
                                                <rect width="0" height="1.2" enable-background="new    " opacity="0.5" fill="#FFFFFF"  x="0.6" y="-0.6"/>
                                            </g>
                                        </g>
                                        <g transform="matrix(-2.547107e-06 -1 1 -2.547107e-06 7.287 7.3331)" >
                                            <g >
                                                <rect width="0" height="1.2" enable-background="new    " opacity="0.5" fill="#FFFFFF"  x="7.3" y="-0.6"/>
                                            </g>
                                        </g>
                                        <line y1="2.8" y2="2.8" x1="0.7" x2="0.7" fill="none" />
                                    </g>
                                </g>
                            </g>
                        </g>
                    </g>
                </g>
            </g>
        </g>
        <g transform="matrix(1, 0, 0, 1, 21.723, 31.0675)" >
            <g >
                <g id="_x30_603-res_1_" gorn="0.2.2.0.0" >
                    <g transform="matrix(0, 1, -1, 0, 5.386, -2.552)" >
                        <g >
                            <g >
                                <g >
                                    <g >
                                        <g transform="matrix(2.578893e-06 1 -1 2.578893e-06 5.3809 -2.5471)" >
                                            <g >
                                                <rect width="2.8" height="8" fill="#333333"  x="2.5" y="-2.6"/>
                                            </g>
                                        </g>
                                        <g transform="matrix(2.578893e-06 1 -1 2.578893e-06 3.9869 -3.9411)" >
                                            <g >
                                                <rect width="0" height="8" enable-background="new    " opacity="0.2" fill="#FFFFFF"  x="3.9" y="-4"/>
                                            </g>
                                        </g>
                                        <g transform="matrix(2.578893e-06 1 -1 2.578893e-06 6.7819 -1.1461)" >
                                            <g >
                                                <rect width="0" height="8" enable-background="new    " opacity="0.2"  x="3.9" y="-1.2"/>
                                            </g>
                                        </g>
                                    </g>
                                    <g >
                                        <path d="M6.8,0L6.8,0L6.8,0L6.8,0L6.8,0C6.6,0.3,6.6,0.8,6.6,1.1c0,0.3,0,1.4,0.1,1.7l0,0l0,0l1.2,0V0H6.8z" fill="#DCDCDC" />
                                        <path d="M1.2,0.1V0H0v2.7h1.2c0.1-0.3,0.2-1.4,0.2-1.7C1.4,0.7,1.3,0.4,1.2,0.1z" fill="#DCDCDC" />
                                        <path d="M7.9,2.9H6.7l0-0.1h1.2L7.9,2.9z" fill="#999999" />
                                        <path d="M0,2.9h1.2l0-0.1H0L0,2.9z" fill="#999999" />
                                        <g transform="matrix(2.578893e-06 1 -1 2.578893e-06 0.6384 -0.5926)" >
                                            <g >
                                                <rect width="0" height="1.2" enable-background="new    " opacity="0.5" fill="#FFFFFF"  x="0.6" y="-0.6"/>
                                            </g>
                                        </g>
                                        <g transform="matrix(2.578893e-06 1 -1 2.578893e-06 7.3329 -7.2871)" >
                                            <g >
                                                <rect width="0" height="1.2" enable-background="new    " opacity="0.5" fill="#FFFFFF"  x="7.3" y="-0.6"/>
                                            </g>
                                        </g>
                                        <line y1="2.8" y2="2.8" x1="0.7" x2="0.7" fill="none" />
                                    </g>
                                </g>
                            </g>
                        </g>
                    </g>
                </g>
            </g>
        </g>
    </g>
</svg>
