<?xml version='1.0' encoding='UTF-8' standalone='no'?>
<!-- Created with Fritzing (http://www.fritzing.org/) -->
<svg xmlns="http://www.w3.org/2000/svg" gorn="0" height="0.5in"  x="0in" viewBox="0 0 64.8 36" y="0in" id="svg2" version="1.2" width="0.9in">
    <desc >
        <referenceFile >SparkFun_LIS3DH-Breakout_breadboard.svg</referenceFile>
    </desc>
    <metadata  id="metadata374">
        <rdf:RDF xmlns:rdf="http://www.w3.org/1999/02/22-rdf-syntax-ns#">
            <cc:Work rdf:about="" xmlns:cc="http://creativecommons.org/ns#" xmlns:rdf="http://www.w3.org/1999/02/22-rdf-syntax-ns#">
                <dc:format xmlns:dc="http://purl.org/dc/elements/1.1/">image/svg+xml</dc:format>
                <dc:type rdf:resource="http://purl.org/dc/dcmitype/StillImage" xmlns:dc="http://purl.org/dc/elements/1.1/" xmlns:rdf="http://www.w3.org/1999/02/22-rdf-syntax-ns#"/>
            </cc:Work>
        </rdf:RDF>
    </metadata>
    <defs  id="defs372"/>
    <desc  id="desc4">Fritzing breadboard generated by brd2svg</desc>
    <g gorn="0.4"  id="g4173">
        <path gorn="0.4.0" d="M 0,36 0,0 64.8,0 64.8,36 0,36 M 2.52,18 a 4.68,4.68 0 0 0 9.36,0 4.68,4.68 0 1 0 -9.36,0 z m 50.4,0 a 4.68,4.68 0 0 0 9.36,0 4.68,4.68 0 1 0 -9.36,0 z M 52.56,3.6 a 1.44,1.44 0 0 0 2.88,0 1.44,1.44 0 1 0 -2.88,0 z m -7.2,0 a 1.44,1.44 0 0 0 2.88,0 1.44,1.44 0 1 0 -2.88,0 z m -7.2,0 a 1.44,1.44 0 0 0 2.88,0 1.44,1.44 0 1 0 -2.88,0 z m -7.2,0 a 1.44,1.44 0 1 0 2.88,0 1.44,1.44 0 1 0 -2.88,0 z m -7.2,0 a 1.44,1.44 0 1 0 2.88,0 1.44,1.44 0 1 0 -2.88,0 z m -7.2,0 a 1.44,1.44 0 1 0 2.88,0 1.44,1.44 0 1 0 -2.88,0 z m 36,28.8 a 1.44,1.44 0 0 0 2.88,0 1.44,1.44 0 1 0 -2.88,0 z m -7.2,0 a 1.44,1.44 0 0 0 2.88,0 1.44,1.44 0 1 0 -2.88,0 z m -7.2,0 a 1.44,1.44 0 0 0 2.88,0 1.44,1.44 0 1 0 -2.88,0 z m -7.2,0 a 1.44,1.44 0 1 0 2.88,0 1.44,1.44 0 1 0 -2.88,0 z m -7.2,0 a 1.44,1.44 0 1 0 2.88,0 1.44,1.44 0 1 0 -2.88,0 z m -7.2,0 a 1.44,1.44 0 1 0 2.88,0 1.44,1.44 0 1 0 -2.88,0 z"  fill="#e6321e" id="path8" stroke="none"/>
        <line gorn="0.4.1"  id="line14" y1="3.1500001" y2="6.3899999" style="stroke-linecap:round" x1="5.4450002" stroke-width="0.72000003" stroke="#ffffff" x2="5.4450002"/>
        <line gorn="0.4.2"  id="line16" y1="3.1500001" y2="3.8699999" style="stroke-linecap:round" x1="5.4450002" stroke-width="0.72000003" stroke="#ffffff" x2="4.7249999"/>
        <line gorn="0.4.3"  id="line18" y1="3.1500001" y2="3.8699999" style="stroke-linecap:round" x1="5.4450002" stroke-width="0.72000003" stroke="#ffffff" x2="6.165"/>
        <line gorn="0.4.4"  id="line20" y1="3.9419999" y2="3.9419999" style="stroke-linecap:round" x1="4.6529999" stroke-width="0.72000003" stroke="#ffffff" x2="6.237"/>
        <line gorn="0.4.5"  id="line22" y1="8.901" y2="8.901" style="stroke-linecap:round" x1="11.322" stroke-width="0.72000003" stroke="#ffffff" x2="8.0819998"/>
        <line gorn="0.4.6"  id="line24" y1="8.901" y2="8.1809998" style="stroke-linecap:round" x1="11.322" stroke-width="0.72000003" stroke="#ffffff" x2="10.602"/>
        <line gorn="0.4.7"  id="line26" y1="8.901" y2="9.6210003" style="stroke-linecap:round" x1="11.322" stroke-width="0.72000003" stroke="#ffffff" x2="10.602"/>
        <line gorn="0.4.8"  id="line28" y1="8.1090002" y2="9.6929998" style="stroke-linecap:round" x1="10.53" stroke-width="0.72000003" stroke="#ffffff" x2="10.53"/>
        <line gorn="0.4.9"  id="line30" y1="7.0560002" y2="6.1199999" style="stroke-linecap:round" x1="22.32" stroke-width="0.43200001" stroke="#ffffff" x2="23.256001"/>
        <line gorn="0.4.10"  id="line32" y1="6.9120002" y2="5.7600002" style="stroke-linecap:round" x1="50.112" stroke-width="0.43200001" stroke="#ffffff" x2="48.959999"/>
        <line gorn="0.4.11"  id="line34" y1="10.944" y2="7.0560002" style="stroke-linecap:round" x1="22.32" stroke-width="0.43200001" stroke="#ffffff" x2="22.32"/>
        <line gorn="0.4.12"  id="line36" y1="7.4879999" y2="6.9120002" style="stroke-linecap:round" x1="50.112" stroke-width="0.43200001" stroke="#ffffff" x2="50.112"/>
        <circle r="0.36000001" gorn="0.4.13"  fill="none" id="circle38" cx="5.5079999" cy="8.9099998" stroke-width="0.72000003" stroke="#ffffff"/>
        <circle r="1.512" gorn="0.4.14"  fill="none" id="circle40" cx="5.5079999" cy="8.9099998" stroke-width="0.72000003" stroke="#ffffff"/>
        <g  transform="translate(-1.6,6.4)">
            <g >
                <g >
                    <g gorn="0.4.15.0.0.0"  id="g42">
                        <title  id="title44">text:VCC</title>
                        <g  transform="translate(52.7846,7.344)">
                            <g >
                                <g >
                                    <g gorn="0.4.15.0.0.0.1.0.0.0"  id="g46">
                                        <g  transform="matrix(0,-1,1,0,0,0)">
                                            <g >
                                                <g >
                                                    <g gorn="0.4.15.0.0.0.1.0.0.0.0.0.0.0"  id="g48">
                                                        <text gorn="0.4.15.0.0.0.1.0.0.0.0.0.0.0.0" font-size="2.13811"  x="0" y="0" fill="#ffffff" id="text50" style="text-anchor:start;font-family:OCRA" stroke-width="0.27000001" stroke="#ffffff">VCC</text>
                                                    </g>
                                                </g>
                                            </g>
                                        </g>
                                    </g>
                                </g>
                            </g>
                        </g>
                    </g>
                </g>
            </g>
        </g>
        <g  transform="translate(-0.80014399,11.2)">
            <g >
                <g >
                    <g gorn="0.4.16.0.0.0"  id="g52">
                        <title  id="title54">text:SDA
SDI</title>
                        <g  transform="translate(40.3286,6.12)">
                            <g >
                                <g >
                                    <g gorn="0.4.16.0.0.0.1.0.0.0"  id="g56">
                                        <g  transform="matrix(0,-1,1,0,0,0)">
                                            <g >
                                                <g >
                                                    <g gorn="0.4.16.0.0.0.1.0.0.0.0.0.0.0"  id="g58">
                                                        <text gorn="0.4.16.0.0.0.1.0.0.0.0.0.0.0.0" font-size="2.13811"  x="4.8000002" y="0" fill="#ffffff" id="text60" style="text-anchor:start;font-family:OCRA" stroke-width="0.27000001" stroke="#ffffff">SDA</text>
                                                    </g>
                                                </g>
                                            </g>
                                        </g>
                                    </g>
                                </g>
                            </g>
                        </g>
                    </g>
                </g>
            </g>
        </g>
        <g  transform="translate(-1.6,6.4)">
            <g >
                <g >
                    <g gorn="0.4.17.0.0.0"  id="g62">
                        <title  id="title64">text:SCL</title>
                        <g  transform="translate(35.0726,6.12)">
                            <g >
                                <g >
                                    <g gorn="0.4.17.0.0.0.1.0.0.0"  id="g66">
                                        <g  transform="matrix(0,-1,1,0,0,0)">
                                            <g >
                                                <g >
                                                    <g gorn="0.4.17.0.0.0.1.0.0.0.0.0.0.0"  id="g68">
                                                        <text gorn="0.4.17.0.0.0.1.0.0.0.0.0.0.0.0" font-size="2.13811"  x="0" y="0" fill="#ffffff" id="text70" style="text-anchor:start;font-family:OCRA" stroke-width="0.27000001" stroke="#ffffff">SCL</text>
                                                    </g>
                                                </g>
                                            </g>
                                        </g>
                                    </g>
                                </g>
                            </g>
                        </g>
                    </g>
                </g>
            </g>
        </g>
        <g gorn="0.4.18"  id="g72">
            <title  id="title74">text:A1</title>
            <g  transform="translate(46.8,29.52)">
                <g >
                    <g >
                        <g gorn="0.4.18.1.0.0.0"  id="g76">
                            <g  transform="matrix(0,-1,1,0,0,0)">
                                <g >
                                    <g >
                                        <g gorn="0.4.18.1.0.0.0.0.0.0.0"  id="g78">
                                            <text gorn="0.4.18.1.0.0.0.0.0.0.0.0" font-size="2.13811"  x="0" y="0" fill="#ffffff" id="text80" style="text-anchor:start;font-family:OCRA" stroke-width="0.27000001" stroke="#ffffff">A1</text>
                                        </g>
                                    </g>
                                </g>
                            </g>
                        </g>
                    </g>
                </g>
            </g>
        </g>
        <g gorn="0.4.19"  id="g82">
            <title  id="title84">text:I1</title>
            <g  transform="translate(25.2,29.52)">
                <g >
                    <g >
                        <g gorn="0.4.19.1.0.0.0"  id="g86">
                            <g  transform="matrix(0,-1,1,0,0,0)">
                                <g >
                                    <g >
                                        <g gorn="0.4.19.1.0.0.0.0.0.0.0"  id="g88">
                                            <text gorn="0.4.19.1.0.0.0.0.0.0.0.0" font-size="2.13811"  x="0" y="0" fill="#ffffff" id="text90" style="text-anchor:start;font-family:OCRA" stroke-width="0.27000001" stroke="#ffffff">I1</text>
                                        </g>
                                    </g>
                                </g>
                            </g>
                        </g>
                    </g>
                </g>
            </g>
        </g>
        <g  transform="translate(-1.6,6.4)">
            <g >
                <g >
                    <g gorn="0.4.20.0.0.0"  id="g92">
                        <title  id="title94">text:GND</title>
                        <g  transform="translate(56.6726,6.48)">
                            <g >
                                <g >
                                    <g gorn="0.4.20.0.0.0.1.0.0.0"  id="g96">
                                        <g  transform="matrix(0,-1,1,0,0,0)">
                                            <g >
                                                <g >
                                                    <g gorn="0.4.20.0.0.0.1.0.0.0.0.0.0.0"  id="g98">
                                                        <text gorn="0.4.20.0.0.0.1.0.0.0.0.0.0.0.0" font-size="2.13811"  x="0" y="0" fill="#ffffff" id="text100" style="text-anchor:start;font-family:OCRA" stroke-width="0.27000001" stroke="#ffffff">GND</text>
                                                    </g>
                                                </g>
                                            </g>
                                        </g>
                                    </g>
                                </g>
                            </g>
                        </g>
                    </g>
                </g>
            </g>
        </g>
        <g  transform="matrix(0.8546895,0,0,0.8670814,11.022623,-3.7202703)">
            <g >
                <g >
                    <g gorn="0.4.21.0.0.0"  id="g102">
                        <title  id="title104">text:LIS3DH</title>
                        <g  transform="translate(3.24,32.4)">
                            <g >
                                <g >
                                    <g gorn="0.4.21.0.0.0.1.0.0.0"  id="g106">
                                        <g  transform="matrix(-0.8660254,0.5,-0.5,-0.8660254,0,0)">
                                            <g >
                                                <g >
                                                    <g gorn="0.4.21.0.0.0.1.0.0.0.0.0.0.0"  id="g108">
                                                        <text gorn="0.4.21.0.0.0.1.0.0.0.0.0.0.0.0" font-size="3.3408"  x="0" y="0" fill="#ffffff" id="text110" style="text-anchor:start;font-family:OCRA" stroke-width="0.45163971" stroke="#ffffff">LIS3DH</text>
                                                    </g>
                                                </g>
                                            </g>
                                        </g>
                                    </g>
                                </g>
                            </g>
                        </g>
                    </g>
                </g>
            </g>
        </g>
        <g gorn="0.4.22"  id="g112">
            <title  id="title114">text:A2</title>
            <g  transform="translate(39.6,29.52)">
                <g >
                    <g >
                        <g gorn="0.4.22.1.0.0.0"  id="g116">
                            <g  transform="matrix(0,-1,1,0,0,0)">
                                <g >
                                    <g >
                                        <g gorn="0.4.22.1.0.0.0.0.0.0.0"  id="g118">
                                            <text gorn="0.4.22.1.0.0.0.0.0.0.0.0" font-size="2.13811"  x="0" y="0" fill="#ffffff" id="text120" style="text-anchor:start;font-family:OCRA" stroke-width="0.27000001" stroke="#ffffff">A2</text>
                                        </g>
                                    </g>
                                </g>
                            </g>
                        </g>
                    </g>
                </g>
            </g>
        </g>
        <g gorn="0.4.23"  id="g122">
            <title  id="title124">text:I2</title>
            <g  transform="translate(18,29.52)">
                <g >
                    <g >
                        <g gorn="0.4.23.1.0.0.0"  id="g126">
                            <g  transform="matrix(0,-1,1,0,0,0)">
                                <g >
                                    <g >
                                        <g gorn="0.4.23.1.0.0.0.0.0.0.0"  id="g128">
                                            <text gorn="0.4.23.1.0.0.0.0.0.0.0.0" font-size="2.13811"  x="0" y="0" fill="#ffffff" id="text130" style="text-anchor:start;font-family:OCRA" stroke-width="0.27000001" stroke="#ffffff">I2</text>
                                        </g>
                                    </g>
                                </g>
                            </g>
                        </g>
                    </g>
                </g>
            </g>
        </g>
        <g gorn="0.4.24"  id="g132">
            <title  id="title134">text:A3</title>
            <g  transform="translate(32.4,29.52)">
                <g >
                    <g >
                        <g gorn="0.4.24.1.0.0.0"  id="g136">
                            <g  transform="matrix(0,-1,1,0,0,0)">
                                <g >
                                    <g >
                                        <g gorn="0.4.24.1.0.0.0.0.0.0.0"  id="g138">
                                            <text gorn="0.4.24.1.0.0.0.0.0.0.0.0" font-size="2.13811"  x="0" y="0" fill="#ffffff" id="text140" style="text-anchor:start;font-family:OCRA" stroke-width="0.27000001" stroke="#ffffff">A3</text>
                                        </g>
                                    </g>
                                </g>
                            </g>
                        </g>
                    </g>
                </g>
            </g>
        </g>
        <g  transform="translate(0,3.8398259)">
            <g >
                <g >
                    <g gorn="0.4.25.0.0.0"  id="g142">
                        <title  id="title144">text:!CS</title>
                        <g  transform="translate(19.2326,6.48)">
                            <g >
                                <g >
                                    <g gorn="0.4.25.0.0.0.1.0.0.0"  id="g146">
                                        <g  transform="matrix(0,-1,1,0,0,0)">
                                            <g >
                                                <g >
                                                    <g gorn="0.4.25.0.0.0.1.0.0.0.0.0.0.0"  id="g148">
                                                        <text text-decoration="overline" gorn="0.4.25.0.0.0.1.0.0.0.0.0.0.0.0" font-size="2.13811"  x="0" y="0" fill="#ffffff" id="text150" style="text-decoration: overline;text-anchor:start;font-family:OCRA" stroke-width="0.27000001" stroke="#ffffff">CS</text>
                                                    </g>
                                                </g>
                                            </g>
                                        </g>
                                    </g>
                                </g>
                            </g>
                        </g>
                    </g>
                </g>
            </g>
        </g>
        <g  transform="translate(0,4.8)">
            <g >
                <g >
                    <g gorn="0.4.26.0.0.0"  id="g152">
                        <title  id="title154">text:SDO</title>
                        <g  transform="translate(24.9926,10.944)">
                            <g >
                                <g >
                                    <g gorn="0.4.26.0.0.0.1.0.0.0"  id="g156">
                                        <g  transform="matrix(0,-1,1,0,0,0)">
                                            <g >
                                                <g >
                                                    <g gorn="0.4.26.0.0.0.1.0.0.0.0.0.0.0"  id="g158">
                                                        <text gorn="0.4.26.0.0.0.1.0.0.0.0.0.0.0.0" font-size="2.13811"  x="0" y="0" fill="#ffffff" id="text160" style="text-anchor:start;font-family:OCRA" stroke-width="0.27000001" stroke="#ffffff">SDO</text>
                                                    </g>
                                                </g>
                                            </g>
                                        </g>
                                    </g>
                                </g>
                            </g>
                        </g>
                    </g>
                </g>
            </g>
        </g>
        <g gorn="0.4.27"  id="g162">
            <title  id="title164">text:Y</title>
            <text gorn="0.4.27.1" font-size="2.67264"  x="6.237" y="4.8239999" fill="#ffffff" id="text166" style="text-anchor:start;font-family:OCRA" stroke-width="0.324" stroke="#ffffff">Y</text>
        </g>
        <g gorn="0.4.28"  id="g168">
            <title  id="title170">text:X</title>
            <text gorn="0.4.28.1" font-size="2.67264"  x="11.007" y="7.8299999" fill="#ffffff" id="text172" style="text-anchor:start;font-family:OCRA" stroke-width="0.324" stroke="#ffffff">X</text>
        </g>
        <g gorn="0.4.29"  id="g174">
            <title  id="title176">text:Z</title>
            <text gorn="0.4.29.1" font-size="2.67264"  x="1.341" y="11.565" fill="#ffffff" id="text178" style="text-anchor:start;font-family:OCRA" stroke-width="0.324" stroke="#ffffff">Z</text>
        </g>
        <g gorn="0.4.30"  id="g180">
            <title  id="title182">text:GND</title>
            <g  transform="translate(54,29.52)">
                <g >
                    <g >
                        <g gorn="0.4.30.1.0.0.0"  id="g184">
                            <g  transform="matrix(0,-1,1,0,0,0)">
                                <g >
                                    <g >
                                        <g gorn="0.4.30.1.0.0.0.0.0.0.0"  id="g186">
                                            <text gorn="0.4.30.1.0.0.0.0.0.0.0.0" font-size="2.13811"  x="0" y="0" fill="#ffffff" id="text188" style="text-anchor:start;font-family:OCRA" stroke-width="0.27000001" stroke="#ffffff">GND</text>
                                        </g>
                                    </g>
                                </g>
                            </g>
                        </g>
                    </g>
                </g>
            </g>
        </g>
        <g gorn="0.4.31"  id="g190">
            <title  id="title192">element:C1</title>
            <g gorn="0.4.31.1"  id="g194">
                <title  id="title196">package:0402</title>
            </g>
        </g>
        <g gorn="0.4.32"  id="g198">
            <title  id="title200">element:C2</title>
            <g gorn="0.4.32.1"  id="g202">
                <title  id="title204">package:0603</title>
            </g>
        </g>
        <g gorn="0.4.33"  id="g206">
            <title  id="title208">element:J1</title>
            <g gorn="0.4.33.1"  id="g210">
                <title  id="title212">package:1X06_NO_SILK</title>
            </g>
        </g>
        <g gorn="0.4.34"  id="g214">
            <title  id="title216">element:J2</title>
            <g gorn="0.4.34.1"  id="g218">
                <title  id="title220">package:1X06_NO_SILK</title>
            </g>
        </g>
        <g gorn="0.4.35"  id="g222">
            <title  id="title224">element:JP2</title>
            <g gorn="0.4.35.1"  id="g226">
                <title  id="title228">package:MICRO-FIDUCIAL</title>
            </g>
        </g>
        <g gorn="0.4.36"  id="g230">
            <title  id="title232">element:JP3</title>
            <g gorn="0.4.36.1"  id="g234">
                <title  id="title236">package:STAND-OFF</title>
            </g>
        </g>
        <g gorn="0.4.37"  id="g238">
            <title  id="title240">element:JP4</title>
            <g gorn="0.4.37.1"  id="g242">
                <title  id="title244">package:STAND-OFF</title>
            </g>
        </g>
        <g gorn="0.4.38"  id="g246">
            <title  id="title248">element:JP6</title>
            <g gorn="0.4.38.1"  id="g250">
                <title  id="title252">package:MICRO-FIDUCIAL</title>
            </g>
        </g>
        <g gorn="0.4.39"  id="g254">
            <title  id="title256">element:LOGO1</title>
            <g gorn="0.4.39.1"  id="g258">
                <title  id="title260">package:SFE_LOGO_FLAME_.1</title>
                <g gorn="0.4.39.1.1"  id="g262">
                    <title  id="title264">polygon</title>
                    <path gorn="0.4.39.1.1.1" d="m 62.4189,3.02173 0,0.25512 m 0,0 -0.0284,0.08504 m 0,0 -0.0283,0.05669 m 0,0 -0.085,0.08504 m 0,0 -0.085,0.02835 m 0,0 -0.0851,0 m 0,0 -0.2268,-0.0567 m 0,0 -0.1134,-0.05669 m 0,0 -0.085,-0.05669 m 0,0 -0.1134,-0.08504 m 0,0 -0.1701,-0.17008 m 0,0 -0.1134,-0.17008 m 0,0 -0.0283,-0.11338 m 0,0 0,-0.17008 m 0,0 0.0283,-0.08504 m 0,0 0.0284,-0.05669 m 0,0 0.0567,-0.08504 m 0,0 0.1134,-0.08504 m 0,0 0.1134,-0.05669 m 0,0 0.1417,-0.02835 m 0,0 0.1134,-0.02835 m 0,0 0.17,0 m 0,0 0.0568,0.02835 m 0,0 0.0283,0 m 0,0 -0.0283,-0.02835 m 0,0 -0.1134,-0.08504 m 0,0 -0.3969,-0.19842 m 0,0 -0.2551,-0.05669 m 0,0 -0.2835,0 m 0,0 -0.3118,0.05669 m 0,0 -0.3118,0.17008 m 0,0 -0.2551,0.19842 m 0,0 -0.1417,0.22677 m 0,0 -0.0851,0.25512 m 0,0 0,0.22677 m 0,0 0.0567,0.25512 m 0,0 0.1417,0.25512 m 0,0 0.1984,0.22677 m 0,0 0.2268,0.25512 m 0,0 0.1985,0.19842 m 0,0 0.085,0.22677 m 0,0 0,0.19843 m 0,0 -0.0567,0.17008 m 0,0 -0.1134,0.14173 m 0,0 -0.1701,0.11339 m 0,0 -0.2267,0.05669 m 0,0 -0.2268,0 m 0,0 -0.1417,-0.02834 m 0,0 -0.1418,-0.0567 m 0,0 -0.1701,-0.17007 m 0,0 -0.0566,-0.08504 m 0,0 -0.0284,-0.08505 m 0,0 0,-0.11339 m 0,0 0.0284,-0.08504 m 0,0 0.17,-0.17007 m 0,0 0.0851,-0.02835 m 0,0 0.1134,-0.05669 m 0,0 0.0283,-0.02835 m 0,0 -0.1134,-0.05669 m 0,0 -0.3402,0 m 0,0 -0.17,0.02834 m 0,0 -0.1417,0.02835 m 0,0 -0.1418,0.05669 m 0,0 -0.1134,0.08504 m 0,0 -0.1417,0.11339 m 0,0 -0.17,0.28347 m 0,0 -0.0568,0.19842 m 0,0 -0.0283,0.22678 m 0,0 0,3.88347 m 0,0 0.1417,-0.14176 m 0,0 0.0851,-0.1417 m 0,0 0.1417,-0.14177 m 0,0 0.1417,-0.17006 m 0,0 0.3401,-0.34013 m 0,0 0.3402,-0.39686 m 0,0 0.2835,-0.28347 m 0,0 0.2835,-0.17006 m 0,0 0.17,-0.02837 m 0,0 0.5386,0 m 0,0 0.3402,-0.0567 m 0,0 0.3118,-0.08504 m 0,0 0.2835,-0.11338 m 0,0 0.2835,-0.17008 m 0,0 0.2267,-0.19843 m 0,0 0.2268,-0.22677 m 0,0 0.1984,-0.25512 m 0,0 0.2835,-0.51023 m 0,0 0.1417,-0.53858 m 0,0 0.0283,-0.4819 m 0,0 -0.085,-0.45354 m 0,0 -0.1418,-0.4252 m 0,0 -0.1984,-0.31181 m 0,0 -0.2267,-0.25512 m 0,0 -0.2268,-0.14173 M 58.5071,9 58.5666,9 m -0.0595,-0.216 0.222,0 m -0.222,-0.216 0.4237,0 m -0.4237,-0.216 0.6225,0 m -0.6225,-0.216 0.8385,0 m -0.8385,-0.216 1.0253,0 m -1.0253,-0.216 1.2138,0 m -1.2138,-0.216 1.4298,0 m -1.4298,-0.216 1.7677,0 m -1.7677,-0.216 3.2371,0 m -3.2371,-0.216 3.6519,0 m -3.6519,-0.216 3.9092,0 m -3.9092,-0.216 4.1256,0 m -4.1256,-0.216 4.2964,0 m -4.2964,-0.216 4.428,0 m -4.428,-0.216 4.5481,0 m -4.5481,-0.216 4.643,0 m -4.643,-0.216 4.6998,0 m -4.6918,-0.216 1.4858,0 m 0.2931,0 2.9697,0 m -4.713,-0.216 1.0653,0 m 1.0881,0 2.5766,0 m -4.6461,-0.216 0.8646,0 m 1.3181,0 2.4762,0 m -4.527,-0.216 0.7928,0 m 1.2722,0 2.4389,0 m -4.2007,-0.216 0.8116,0 m 0.8786,0 2.47,0 m -2.6637,-0.216 2.6052,0 m -2.7993,-0.216 2.7273,0 m -2.917,-0.216 2.8055,0 m -2.9472,-0.216 1.6744,0 m 0.6644,0 0.4622,0 m -2.8848,-0.216 1.5027,0 m 0.9593,0 0.2308,0 m -2.7253,-0.216 1.3709,0 m -1.3513,-0.216 1.3127,0 m -1.2348,-0.216 1.2873,0 m -1.1464,-0.216 1.3955,0 m -1.1031,-0.216 1.4001,0"  fill="none" id="path266" style="stroke-linecap:round" stroke-width="0.21600001" stroke="#ffffff"/>
                </g>
            </g>
        </g>
        <g gorn="0.4.40"  id="g268">
            <title  id="title270">element:LOGO2</title>
            <g gorn="0.4.40.1"  id="g272">
                <title  id="title274">package:SFE_LOGO_FLAME_.1</title>
            </g>
        </g>
        <g gorn="0.4.41"  id="g276">
            <title  id="title278">element:R1</title>
            <g gorn="0.4.41.1"  id="g280">
                <title  id="title282">package:0603</title>
            </g>
        </g>
        <g gorn="0.4.42"  id="g284">
            <title  id="title286">element:R2</title>
            <g gorn="0.4.42.1"  id="g288">
                <title  id="title290">package:0603</title>
            </g>
        </g>
        <g gorn="0.4.43"  id="g292">
            <title  id="title294">element:R3</title>
            <g gorn="0.4.43.1"  id="g296">
                <title  id="title298">package:0603</title>
            </g>
        </g>
        <g gorn="0.4.44"  id="g300">
            <title  id="title302">element:R4</title>
            <g gorn="0.4.44.1"  id="g304">
                <title  id="title306">package:0603</title>
            </g>
        </g>
        <g gorn="0.4.45"  id="g308">
            <title  id="title310">element:SJ1</title>
            <g gorn="0.4.45.1"  id="g312">
                <title  id="title314">package:SJ_2S-NO</title>
            </g>
        </g>
        <g gorn="0.4.46"  id="g316">
            <title  id="title318">element:SJ2</title>
            <g gorn="0.4.46.1"  id="g320">
                <title  id="title322">package:PAD-JUMPER-3-3OF3_NC_BY_TRACE_YES_SILK_FULL_BOX</title>
            </g>
        </g>
        <g gorn="0.4.47"  id="g324">
            <title  id="title326">element:U$1</title>
            <g gorn="0.4.47.1"  id="g328">
                <title  id="title330">package:OSHW-LOGO-S</title>
            </g>
        </g>
        <g gorn="0.4.48"  id="g332">
            <title  id="title334">element:U1</title>
            <g gorn="0.4.48.1"  id="g336">
                <title  id="title338">package:LGA-16-3X3</title>
                <line gorn="0.4.48.1.1"  id="line340" y1="21.881701" y2="22.8897" style="stroke-linecap:round" x1="37.297699" stroke-width="0.57599998" stroke="#ffffff" x2="36.2897"/>
                <line gorn="0.4.48.1.2"  id="line342" y1="22.676001" y2="22.676001" style="stroke-linecap:round" x1="29.236" stroke-width="0.57599998" stroke="#ffffff" x2="27.796"/>
                <line gorn="0.4.48.1.3"  id="line344" y1="22.676001" y2="21.881701" style="stroke-linecap:round" x1="27.796" stroke-width="0.57599998" stroke="#ffffff" x2="27.796"/>
                <line gorn="0.4.48.1.4"  id="line346" y1="14.1103" y2="13.316" style="stroke-linecap:round" x1="27.796" stroke-width="0.57599998" stroke="#ffffff" x2="27.796"/>
                <line gorn="0.4.48.1.5"  id="line348" y1="13.316" y2="13.316" style="stroke-linecap:round" x1="29.236" stroke-width="0.57599998" stroke="#ffffff" x2="27.796"/>
                <line gorn="0.4.48.1.6"  id="line350" y1="13.316" y2="13.316" style="stroke-linecap:round" x1="37.012001" stroke-width="0.57599998" stroke="#ffffff" x2="35.571999"/>
                <line gorn="0.4.48.1.7"  id="line352" y1="14.1103" y2="13.316" style="stroke-linecap:round" x1="37.012001" stroke-width="0.57599998" stroke="#ffffff" x2="37.012001"/>
                <circle r="0.72000003" gorn="0.4.48.1.8"  fill="none" id="circle354" cx="37.439999" cy="23.040001" stroke-width="0" stroke="#ffffff"/>
            </g>
        </g>
        <rect fill-opacity="0.15" gorn="0.4.49" height="10.444"  x="27.796" y="13.316" fill="#ffffff" id="rect356" stroke="none" width="10.364"/>
        <circle r="2.052" gorn="0.4.50"  connectorname="GND" fill="none" id="connector4pin" cx="54" cy="3.5999999" stroke-width="1.22399998" stroke="#9a916c"/>
        <circle r="2.052" gorn="0.4.51"  connectorname="VCC" fill="none" id="connector5pin" cx="46.799999" cy="3.5999999" stroke-width="1.22399998" stroke="#9a916c"/>
        <circle r="2.052" gorn="0.4.52"  connectorname="SDA" fill="none" id="connector6pin" cx="39.599998" cy="3.5999999" stroke-width="1.22399998" stroke="#9a916c"/>
        <circle r="2.052" gorn="0.4.53"  connectorname="SCL" fill="none" id="connector7pin" cx="32.400002" cy="3.5999999" stroke-width="1.22399998" stroke="#9a916c"/>
        <circle r="2.052" gorn="0.4.54"  connectorname="SA0" fill="none" id="connector8pin" cx="25.200001" cy="3.5999999" stroke-width="1.22399998" stroke="#9a916c"/>
        <circle r="2.052" gorn="0.4.55"  connectorname="!CS" fill="none" id="connector9pin" cx="18" cy="3.5999999" stroke-width="1.22399998" stroke="#9a916c"/>
        <circle r="2.052" gorn="0.4.56"  connectorname="GND" fill="none" id="connector10pin" cx="54" cy="32.400002" stroke-width="1.22399998" stroke="#9a916c"/>
        <circle r="2.052" gorn="0.4.57"  connectorname="ADC1" fill="none" id="connector11pin" cx="46.799999" cy="32.400002" stroke-width="1.22399998" stroke="#9a916c"/>
        <circle r="2.052" gorn="0.4.58"  connectorname="ADC2" fill="none" id="connector12pin" cx="39.599998" cy="32.400002" stroke-width="1.22399998" stroke="#9a916c"/>
        <circle r="2.052" gorn="0.4.59"  connectorname="ADC3" fill="none" id="connector13pin" cx="32.400002" cy="32.400002" stroke-width="1.22399998" stroke="#9a916c"/>
        <circle r="2.052" gorn="0.4.60"  connectorname="INT1" fill="none" id="connector14pin" cx="25.200001" cy="32.400002" stroke-width="1.22399998" stroke="#9a916c"/>
        <circle r="2.052" gorn="0.4.61"  connectorname="INT2" fill="none" id="connector15pin" cx="18" cy="32.400002" stroke-width="1.22399998" stroke="#9a916c"/>
        <g  transform="translate(1.731056,6.399826)">
            <g >
                <g >
                    <g gorn="0.4.62.0.0.0"  id="g52-1">
                        <title  id="title54-7">text:SDA
SDI</title>
                        <g  transform="translate(40.3286,6.12)">
                            <g >
                                <g >
                                    <g gorn="0.4.62.0.0.0.1.0.0.0"  id="g56-4">
                                        <g  transform="matrix(0,-1,1,0,0,0)">
                                            <g >
                                                <g >
                                                    <g gorn="0.4.62.0.0.0.1.0.0.0.0.0.0.0"  id="g58-0">
                                                        <text gorn="0.4.62.0.0.0.1.0.0.0.0.0.0.0.0" font-size="2.13811"  x="0" y="0" fill="#ffffff" id="text60-9" style="text-anchor:start;font-family:OCRA" stroke-width="0.27000001" stroke="#ffffff">SDI</text>
                                                    </g>
                                                </g>
                                            </g>
                                        </g>
                                    </g>
                                </g>
                            </g>
                        </g>
                    </g>
                </g>
            </g>
        </g>
        <g  transform="matrix(0,-0.68540795,0.52620311,0,-281.13923,268.4602)">
            <g >
                <g >
                    <g gorn="0.4.63.0.0.0"  id="layer1">
                        <g  transform="matrix(0,1.25,-1.25,0,378.92723,615.9786)">
                            <g >
                                <g >
                                    <g gorn="0.4.63.0.0.0.0.0.0.0"  id="g329">
                                        <g gorn="0.4.63.0.0.0.0.0.0.0.0"  id="g331">
                                            <g gorn="0.4.63.0.0.0.0.0.0.0.0.0"  id="g333">
                                                <rect gorn="0.4.63.0.0.0.0.0.0.0.0.0.0" height="2.8340001"  x="-0.018999999" y="0" id="rect335" style="fill:#333333" width="7.9660101"/>
                                                <rect gorn="0.4.63.0.0.0.0.0.0.0.0.0.1" height="0.046"  x="-0.018999999" y="0" id="rect337" enable-background="new    " style="opacity:0.2;fill:#ffffff" width="7.9660101"/>
                                                <rect gorn="0.4.63.0.0.0.0.0.0.0.0.0.2" height="0.032000002"  x="-0.018999999" y="2.802" id="rect339" enable-background="new    " style="opacity:0.2" width="7.9660101"/>
                                            </g>
                                            <g gorn="0.4.63.0.0.0.0.0.0.0.0.1"  id="g341">
                                                <path gorn="0.4.63.0.0.0.0.0.0.0.0.1.0" d="m 6.79,0 0,0 0,0 -0.093,0 0,0 c -0.08,0.251 -0.135,0.796003 -0.135,1.075 0,0.291 0.048,1.41 0.135,1.673 l 0,0 0,0 1.223,0 L 7.92,0 6.79,0 z"  id="path343" style="fill:#dcdcdc"/>
                                                <path gorn="0.4.63.0.0.0.0.0.0.0.0.1.1" d="m 1.226,0.104 0,-0.104 -1.222,0 0,2.748 1.223,0 C 1.315,2.485 1.42,1.371 1.42,1.076 1.42,0.730001 1.345,0.405 1.226,0.104 z"  id="path345" style="fill:#dcdcdc"/>
                                                <path gorn="0.4.63.0.0.0.0.0.0.0.0.1.2" d="m 7.92698,2.854 -1.22298,0 -0.007,-0.106 1.223,0 0.00698,0.106 z"  id="path347" style="fill:#999999"/>
                                                <path gorn="0.4.63.0.0.0.0.0.0.0.0.1.3" d="m 0.01,2.855 1.223,0 -0.007,-0.107 -1.222,0 0.006,0.107 z"  id="path349" style="fill:#999999"/>
                                                <rect gorn="0.4.63.0.0.0.0.0.0.0.0.1.4" height="0.046"  x="0.0040000002" y="0" id="rect351" enable-background="new    " style="opacity:0.5;fill:#ffffff" width="1.223"/>
                                                <rect gorn="0.4.63.0.0.0.0.0.0.0.0.1.5" height="0.046"  x="6.698" y="0" id="rect353" enable-background="new    " style="opacity:0.5;fill:#ffffff" width="1.224"/>
                                                <line gorn="0.4.63.0.0.0.0.0.0.0.0.1.6"  id="line355" y1="2.8340001" y2="2.8340001" style="fill:none" x1="0.74299699" x2="0.74299699"/>
                                            </g>
                                        </g>
                                    </g>
                                </g>
                            </g>
                        </g>
                    </g>
                </g>
            </g>
        </g>
        <g  transform="matrix(0,-0.68540795,0.52620311,0,-281.31416,274.45814)">
            <g >
                <g >
                    <g gorn="0.4.64.0.0.0"  id="layer1-4">
                        <g  transform="matrix(0,1.25,-1.25,0,378.92723,615.9786)">
                            <g >
                                <g >
                                    <g gorn="0.4.64.0.0.0.0.0.0.0"  id="g329-8">
                                        <g gorn="0.4.64.0.0.0.0.0.0.0.0"  id="g331-8">
                                            <g gorn="0.4.64.0.0.0.0.0.0.0.0.0"  id="g333-2">
                                                <rect gorn="0.4.64.0.0.0.0.0.0.0.0.0.0" height="2.8340001"  x="-0.018999999" y="0" id="rect335-4" style="fill:#333333" width="7.9660101"/>
                                                <rect gorn="0.4.64.0.0.0.0.0.0.0.0.0.1" height="0.046"  x="-0.018999999" y="0" id="rect337-5" enable-background="new    " style="opacity:0.2;fill:#ffffff" width="7.9660101"/>
                                                <rect gorn="0.4.64.0.0.0.0.0.0.0.0.0.2" height="0.032000002"  x="-0.018999999" y="2.802" id="rect339-5" enable-background="new    " style="opacity:0.2" width="7.9660101"/>
                                            </g>
                                            <g gorn="0.4.64.0.0.0.0.0.0.0.0.1"  id="g341-1">
                                                <path gorn="0.4.64.0.0.0.0.0.0.0.0.1.0" d="m 6.79,0 0,0 0,0 -0.093,0 0,0 c -0.08,0.251 -0.135,0.796003 -0.135,1.075 0,0.291 0.048,1.41 0.135,1.673 l 0,0 0,0 1.223,0 L 7.92,0 6.79,0 z"  id="path343-7" style="fill:#dcdcdc"/>
                                                <path gorn="0.4.64.0.0.0.0.0.0.0.0.1.1" d="m 1.226,0.104 0,-0.104 -1.222,0 0,2.748 1.223,0 C 1.315,2.485 1.42,1.371 1.42,1.076 1.42,0.730001 1.345,0.405 1.226,0.104 z"  id="path345-1" style="fill:#dcdcdc"/>
                                                <path gorn="0.4.64.0.0.0.0.0.0.0.0.1.2" d="m 7.92698,2.854 -1.22298,0 -0.007,-0.106 1.223,0 0.00698,0.106 z"  id="path347-1" style="fill:#999999"/>
                                                <path gorn="0.4.64.0.0.0.0.0.0.0.0.1.3" d="m 0.01,2.855 1.223,0 -0.007,-0.107 -1.222,0 0.006,0.107 z"  id="path349-5" style="fill:#999999"/>
                                                <rect gorn="0.4.64.0.0.0.0.0.0.0.0.1.4" height="0.046"  x="0.0040000002" y="0" id="rect351-2" enable-background="new    " style="opacity:0.5;fill:#ffffff" width="1.223"/>
                                                <rect gorn="0.4.64.0.0.0.0.0.0.0.0.1.5" height="0.046"  x="6.698" y="0" id="rect353-7" enable-background="new    " style="opacity:0.5;fill:#ffffff" width="1.224"/>
                                                <line gorn="0.4.64.0.0.0.0.0.0.0.0.1.6"  id="line355-6" y1="2.8340001" y2="2.8340001" style="fill:none" x1="0.74299699" x2="0.74299699"/>
                                            </g>
                                        </g>
                                    </g>
                                </g>
                            </g>
                        </g>
                    </g>
                </g>
            </g>
        </g>
        <g  transform="matrix(0.68540795,0,0,0.52620311,-240.36658,-312.54789)">
            <g >
                <g >
                    <g gorn="0.4.65.0.0.0"  id="layer1-4-1">
                        <g  transform="matrix(0,1.25,-1.25,0,378.92723,615.9786)">
                            <g >
                                <g >
                                    <g gorn="0.4.65.0.0.0.0.0.0.0"  id="g329-8-4">
                                        <g gorn="0.4.65.0.0.0.0.0.0.0.0"  id="g331-8-2">
                                            <g gorn="0.4.65.0.0.0.0.0.0.0.0.0"  id="g333-2-3">
                                                <rect gorn="0.4.65.0.0.0.0.0.0.0.0.0.0" height="2.8340001"  x="-0.018999999" y="0" id="rect335-4-2" style="fill:#333333" width="7.9660101"/>
                                                <rect gorn="0.4.65.0.0.0.0.0.0.0.0.0.1" height="0.046"  x="-0.018999999" y="0" id="rect337-5-2" enable-background="new    " style="opacity:0.2;fill:#ffffff" width="7.9660101"/>
                                                <rect gorn="0.4.65.0.0.0.0.0.0.0.0.0.2" height="0.032000002"  x="-0.018999999" y="2.802" id="rect339-5-1" enable-background="new    " style="opacity:0.2" width="7.9660101"/>
                                            </g>
                                            <g gorn="0.4.65.0.0.0.0.0.0.0.0.1"  id="g341-1-6">
                                                <path gorn="0.4.65.0.0.0.0.0.0.0.0.1.0" d="m 6.79,0 0,0 0,0 -0.093,0 0,0 c -0.08,0.251 -0.135,0.796003 -0.135,1.075 0,0.291 0.048,1.41 0.135,1.673 l 0,0 0,0 1.223,0 L 7.92,0 6.79,0 z"  id="path343-7-8" style="fill:#dcdcdc"/>
                                                <path gorn="0.4.65.0.0.0.0.0.0.0.0.1.1" d="m 1.226,0.104 0,-0.104 -1.222,0 0,2.748 1.223,0 C 1.315,2.485 1.42,1.371 1.42,1.076 1.42,0.730001 1.345,0.405 1.226,0.104 z"  id="path345-1-5" style="fill:#dcdcdc"/>
                                                <path gorn="0.4.65.0.0.0.0.0.0.0.0.1.2" d="m 7.92698,2.854 -1.22298,0 -0.007,-0.106 1.223,0 0.00698,0.106 z"  id="path347-1-7" style="fill:#999999"/>
                                                <path gorn="0.4.65.0.0.0.0.0.0.0.0.1.3" d="m 0.01,2.855 1.223,0 -0.007,-0.107 -1.222,0 0.006,0.107 z"  id="path349-5-6" style="fill:#999999"/>
                                                <rect gorn="0.4.65.0.0.0.0.0.0.0.0.1.4" height="0.046"  x="0.0040000002" y="0" id="rect351-2-1" enable-background="new    " style="opacity:0.5;fill:#ffffff" width="1.223"/>
                                                <rect gorn="0.4.65.0.0.0.0.0.0.0.0.1.5" height="0.046"  x="6.698" y="0" id="rect353-7-8" enable-background="new    " style="opacity:0.5;fill:#ffffff" width="1.224"/>
                                                <line gorn="0.4.65.0.0.0.0.0.0.0.0.1.6"  id="line355-6-9" y1="2.8340001" y2="2.8340001" style="fill:none" x1="0.74299699" x2="0.74299699"/>
                                            </g>
                                        </g>
                                    </g>
                                </g>
                            </g>
                        </g>
                    </g>
                </g>
            </g>
        </g>
        <g  transform="matrix(0,-0.68540795,0.52620311,0,-301.04148,266.89256)">
            <g >
                <g >
                    <g gorn="0.4.66.0.0.0"  id="layer1-4-2">
                        <g  transform="matrix(0,1.25,-1.25,0,378.92723,615.9786)">
                            <g >
                                <g >
                                    <g gorn="0.4.66.0.0.0.0.0.0.0"  id="g329-8-7">
                                        <g gorn="0.4.66.0.0.0.0.0.0.0.0"  id="g331-8-9">
                                            <g gorn="0.4.66.0.0.0.0.0.0.0.0.0"  id="g333-2-5">
                                                <rect gorn="0.4.66.0.0.0.0.0.0.0.0.0.0" height="2.8340001"  x="-0.018999999" y="0" id="rect335-4-4" style="fill:#333333" width="7.9660101"/>
                                                <rect gorn="0.4.66.0.0.0.0.0.0.0.0.0.1" height="0.046"  x="-0.018999999" y="0" id="rect337-5-3" enable-background="new    " style="opacity:0.2;fill:#ffffff" width="7.9660101"/>
                                                <rect gorn="0.4.66.0.0.0.0.0.0.0.0.0.2" height="0.032000002"  x="-0.018999999" y="2.802" id="rect339-5-12" enable-background="new    " style="opacity:0.2" width="7.9660101"/>
                                            </g>
                                            <g gorn="0.4.66.0.0.0.0.0.0.0.0.1"  id="g341-1-3">
                                                <path gorn="0.4.66.0.0.0.0.0.0.0.0.1.0" d="m 6.79,0 0,0 0,0 -0.093,0 0,0 c -0.08,0.251 -0.135,0.796003 -0.135,1.075 0,0.291 0.048,1.41 0.135,1.673 l 0,0 0,0 1.223,0 L 7.92,0 6.79,0 z"  id="path343-7-3" style="fill:#dcdcdc"/>
                                                <path gorn="0.4.66.0.0.0.0.0.0.0.0.1.1" d="m 1.226,0.104 0,-0.104 -1.222,0 0,2.748 1.223,0 C 1.315,2.485 1.42,1.371 1.42,1.076 1.42,0.730001 1.345,0.405 1.226,0.104 z"  id="path345-1-4" style="fill:#dcdcdc"/>
                                                <path gorn="0.4.66.0.0.0.0.0.0.0.0.1.2" d="m 7.92698,2.854 -1.22298,0 -0.007,-0.106 1.223,0 0.00698,0.106 z"  id="path347-1-1" style="fill:#999999"/>
                                                <path gorn="0.4.66.0.0.0.0.0.0.0.0.1.3" d="m 0.01,2.855 1.223,0 -0.007,-0.107 -1.222,0 0.006,0.107 z"  id="path349-5-1" style="fill:#999999"/>
                                                <rect gorn="0.4.66.0.0.0.0.0.0.0.0.1.4" height="0.046"  x="0.0040000002" y="0" id="rect351-2-3" enable-background="new    " style="opacity:0.5;fill:#ffffff" width="1.223"/>
                                                <rect gorn="0.4.66.0.0.0.0.0.0.0.0.1.5" height="0.046"  x="6.698" y="0" id="rect353-7-87" enable-background="new    " style="opacity:0.5;fill:#ffffff" width="1.224"/>
                                                <line gorn="0.4.66.0.0.0.0.0.0.0.0.1.6"  id="line355-6-4" y1="2.8340001" y2="2.8340001" style="fill:none" x1="0.74299699" x2="0.74299699"/>
                                            </g>
                                        </g>
                                    </g>
                                </g>
                            </g>
                        </g>
                    </g>
                </g>
            </g>
        </g>
        <rect gorn="0.4.67" height="9.5421762"  x="27.672155" y="13.279462" id="rect4135" style="fill:#333333;fill-opacity:1;fill-rule:nonzero" width="9.8829679"/>
        <line gorn="0.4.68"  id="line34-7" y1="10.434975" y2="6.5469747" style="stroke-linecap:round" x1="16.5856" stroke-width="0.43200001" stroke="#ffffff" x2="16.5856"/>
    </g>
</svg>
