<?xml version='1.0' encoding='utf-8'?>
<!DOCTYPE svg>
<!-- Generator: Adobe Illustrator 17.1.0, SVG Export Plug-In . SVG Version: 6.00 Build 0)  -->
<svg xmlns="http://www.w3.org/2000/svg" xml:space="preserve" x="0px"  y="0px" xmlns:xml="http://www.w3.org/XML/1998/namespace" enable-background="new 0 0 67.7 72" gorn="0" version="1.1" id="Layer_1" height="1in" width="0.940278in" viewBox="0 0 67.7 72">
    <desc >
        <referenceFile >SparkFun_LSM303C_6_DOF_IMU_Breakout_breadboard.svg</referenceFile>
    </desc>
    <desc >Fritzing breadboard generated by brd2svg</desc>
    <g  gorn="0.2" id="breadboard">
        <g  gorn="0.2.0" id="icon">
            <path d="M0,72V0h67.7v72H0 M2.5,7.2c0,2.6,2.1,4.7,4.7,4.7c2.6,0,4.7-2.1,4.7-4.7c0,0,0,0,0,0c0-2.6-2.1-4.7-4.7-4.7C4.6,2.5,2.5,4.6,2.5,7.2C2.5,7.2,2.5,7.2,2.5,7.2z M2.5,64.8c0,2.6,2.1,4.7,4.7,4.7s4.7-2.1,4.7-4.7c0,0,0,0,0,0c0-2.6-2.1-4.7-4.7-4.7C4.6,60.1,2.5,62.2,2.5,64.8C2.5,64.8,2.5,64.8,2.5,64.8z M62.6,3.6c0,0.8,0.6,1.4,1.4,1.4s1.4-0.6,1.4-1.4c0,0,0,0,0,0c0-0.8-0.6-1.4-1.4-1.4C63.3,2.2,62.6,2.8,62.6,3.6C62.6,3.6,62.6,3.6,62.6,3.6z M62.6,10.8c0,0.8,0.6,1.4,1.4,1.4c0.8,0,1.4-0.6,1.4-1.4c0,0,0,0,0,0c0-0.8-0.6-1.4-1.4-1.4C63.3,9.4,62.6,10,62.6,10.8z M62.6,18c0,0.8,0.6,1.4,1.4,1.4s1.4-0.6,1.4-1.4c0,0,0,0,0,0c0-0.8-0.6-1.4-1.4-1.4C63.3,16.6,62.6,17.2,62.6,18z M62.6,25.2c0,0.8,0.6,1.4,1.4,1.4s1.4-0.6,1.4-1.4c0,0,0,0,0,0c0-0.8-0.6-1.4-1.4-1.4C63.3,23.8,62.6,24.4,62.6,25.2z M62.6,32.4c0,0.8,0.6,1.4,1.4,1.4s1.4-0.6,1.4-1.4c0,0,0,0,0,0c0-0.8-0.6-1.4-1.4-1.4C63.3,31,62.6,31.6,62.6,32.4z M62.6,39.6c0,0.8,0.6,1.4,1.4,1.4s1.4-0.6,1.4-1.4c0,0,0,0,0,0c0-0.8-0.6-1.4-1.4-1.4C63.3,38.2,62.6,38.8,62.6,39.6z M62.6,46.8c0,0.8,0.6,1.4,1.4,1.4s1.4-0.6,1.4-1.4c0,0,0,0,0,0c0-0.8-0.6-1.4-1.4-1.4C63.3,45.4,62.6,46,62.6,46.8z M62.6,54c0,0.8,0.6,1.4,1.4,1.4s1.4-0.6,1.4-1.4c0,0,0,0,0,0c0-0.8-0.6-1.4-1.4-1.4C63.3,52.6,62.6,53.2,62.6,54z M62.6,61.2c0,0.8,0.6,1.4,1.4,1.4s1.4-0.6,1.4-1.4c0,0,0,0,0,0c0-0.8-0.6-1.4-1.4-1.4C63.3,59.8,62.6,60.4,62.6,61.2C62.6,61.2,62.6,61.2,62.6,61.2z M62.6,68.4c0,0.8,0.6,1.4,1.4,1.4s1.4-0.6,1.4-1.4c0,0,0,0,0,0c0-0.8-0.6-1.4-1.4-1.4C63.3,67,62.6,67.6,62.6,68.4C62.6,68.4,62.6,68.4,62.6,68.4z"  fill="#C62717"/>
            <rect x="35.2"  y="48.6" height="2.2" fill-opacity="0.15" fill="#FFFFFF" width="1.3"/>
            <rect x="11.6"  y="33.1" height="2.2" fill-opacity="0.15" fill="#FFFFFF" width="1.3"/>
            <rect x="5.8"  y="39.2" height="2.2" fill-opacity="0.15" fill="#FFFFFF" width="1.3"/>
            <rect x="5.8"  y="50.8" height="2.2" fill-opacity="0.15" fill="#FFFFFF" width="1.3"/>
            <rect x="15.6"  y="54.4" height="2.2" fill-opacity="0.15" fill="#FFFFFF" width="1.3"/>
            <rect x="21.9"  y="42.7" height="6.4" fill="#303030" width="6.4"/>
            <rect x="43.8"  y="45.6" height="9.1" fill="#303030" width="4.5"/>
            <circle  stroke="#9A916C" gorn="0.2.0.8" id="connector10pin" stroke-width="1.224" cx="64.1" fill="none" cy="3.6" r="2.1"/>
            <rect x="62"  y="1.5" stroke="#9A916C" gorn="0.2.0.9" stroke-width="1.224" id="connector0pin" height="4.1" fill="none" width="4.1"/>
            <circle  stroke="#9A916C" gorn="0.2.0.10" id="connector1pin" stroke-width="1.224" cx="64.1" fill="none" cy="10.8" r="2.1"/>
            <circle  stroke="#9A916C" gorn="0.2.0.11" id="connector2pin" stroke-width="1.224" cx="64.1" fill="none" cy="18" r="2.1"/>
            <circle  stroke="#9A916C" gorn="0.2.0.12" id="connector3pin" stroke-width="1.224" cx="64.1" fill="none" cy="25.2" r="2.1"/>
            <circle  stroke="#9A916C" gorn="0.2.0.13" id="connector4pin" stroke-width="1.224" cx="64.1" fill="none" cy="32.4" r="2.1"/>
            <circle  stroke="#9A916C" gorn="0.2.0.14" id="connector5pin" stroke-width="1.224" cx="64.1" fill="none" cy="39.6" r="2.1"/>
            <circle  stroke="#9A916C" gorn="0.2.0.15" id="connector6pin" stroke-width="1.224" cx="64.1" fill="none" cy="46.8" r="2.1"/>
            <circle  stroke="#9A916C" gorn="0.2.0.16" id="connector7pin" stroke-width="1.224" cx="64.1" fill="none" cy="54" r="2.1"/>
            <circle  stroke="#9A916C" gorn="0.2.0.17" id="connector8pin" stroke-width="1.224" cx="64.1" fill="none" cy="61.2" r="2.1"/>
            <circle  stroke="#9A916C" gorn="0.2.0.18" id="connector9pin" stroke-width="1.224" cx="64.1" fill="none" cy="68.4" r="2.1"/>
        </g>
        <g transform="matrix(1, 0, 0, 1, 33.4511, 25.7653)" >
            <g >
                <g >
                    <g  gorn="0.2.1.0.0.0" id="eia3216">
                        <g transform="matrix(0, -1, 1, 0, 3.5475, 9.7915)" >
                            <g >
                                <g >
                                    <g >
                                        <g transform="matrix(-2.547107e-06 -1 1 -2.547107e-06 3.547 9.792)" >
                                            <g >
                                                <g >
                                                    <rect x="3.5"  y="-3.5" height="13.3" fill="#333333" width="6.2"/>
                                                </g>
                                            </g>
                                        </g>
                                        <path d="M2.1,0H0v6.2h2.1V0z"  fill="#CCCCCC"/>
                                        <path d="M13.3,6.2h-2.1"  fill="#D1C690"/>
                                        <line  y1="6.2" y2="6.2" fill="none" x1="1.3" x2="1.3"/>
                                        <g transform="matrix(-2.547107e-06 -1 1 -2.547107e-06 0.507 12.834)" >
                                            <g >
                                                <g >
                                                    <rect x="6.6"  y="-0.5" opacity="0.1" enable-background="new    " height="13.3" width="0.1"/>
                                                </g>
                                            </g>
                                        </g>
                                        <g transform="matrix(-2.547107e-06 -1 1 -2.547107e-06 6.5855 6.7525)" >
                                            <g >
                                                <g >
                                                    <rect x="6.6"  y="-6.6" opacity="0.2" enable-background="new    " height="13.3" fill="#FFFFFF" width="0.1"/>
                                                </g>
                                            </g>
                                        </g>
                                        <g transform="matrix(1 0 0 1 3.6916 4.3911)" >
                                            <g >
                                                <g >
                                                    <text  font-family="DroidSans" fill="#CCCCCC" font-size="3.4824">C106</text>
                                                </g>
                                            </g>
                                        </g>
                                    </g>
                                </g>
                            </g>
                        </g>
                    </g>
                </g>
            </g>
        </g>
        <g transform="matrix(1, 0, 0, 1, 30.003, 39.2947)" >
            <g >
                <g >
                    <g  gorn="0.2.2.0.0.0" id="_x30_603-cap">
                        <g transform="matrix(0, 1, -1, 0, 5.386, -2.552)" >
                            <g >
                                <g >
                                    <g >
                                        <g transform="matrix(2.578893e-06 1 -1 2.578893e-06 5.3995 -2.5655)" >
                                            <g >
                                                <g >
                                                    <rect x="2.6"  y="-2.6" height="8" fill="#AF6C41" width="2.8"/>
                                                </g>
                                            </g>
                                        </g>
                                        <g >
                                            <g >
                                                <path d="M6.8,0L6.8,0L6.8,0L6.8,0L6.8,0C6.6,0.3,6.6,0.8,6.6,1.1c0,0.3,0,1.5,0.1,1.7l0,0l0,0h1.2V0H6.8z"  fill="#DCDCDC"/>
                                                <path d="M1.2,0.1V0H0v2.9h1.2c0.1-0.3,0.2-1.4,0.2-1.7C1.4,0.8,1.3,0.4,1.2,0.1z"  fill="#DCDCDC"/>
                                            </g>
                                        </g>
                                        <g transform="matrix(2.578893e-06 1 -1 2.578893e-06 4.0535 -3.9115)" >
                                            <g >
                                                <g >
                                                    <rect x="3.9"  y="-3.9" opacity="0.2" enable-background="new    " height="8" fill="#FFFFFF" width="0.1"/>
                                                </g>
                                            </g>
                                        </g>
                                        <g transform="matrix(2.578893e-06 1 -1 2.578893e-06 6.7455 -1.2195)" >
                                            <g >
                                                <g >
                                                    <rect x="3.9"  y="-1.2" opacity="0.2" enable-background="new    " height="8" width="0.1"/>
                                                </g>
                                            </g>
                                        </g>
                                    </g>
                                </g>
                            </g>
                        </g>
                    </g>
                </g>
            </g>
        </g>
        <g transform="matrix(1, 0, 0, 1, 23.163, 32.4547)" >
            <g >
                <g >
                    <g  gorn="0.2.3.0.0.0" id="_x30_603-cap_1_">
                        <g transform="matrix(0, 1, -1, 0, 5.386, -2.552)" >
                            <g >
                                <g >
                                    <g >
                                        <g transform="matrix(2.578893e-06 1 -1 2.578893e-06 5.3995 -2.5655)" >
                                            <g >
                                                <g >
                                                    <rect x="2.6"  y="-2.6" height="8" fill="#AF6C41" width="2.8"/>
                                                </g>
                                            </g>
                                        </g>
                                        <g >
                                            <g >
                                                <path d="M6.8,0L6.8,0L6.8,0L6.8,0L6.8,0C6.6,0.3,6.6,0.8,6.6,1.1c0,0.3,0,1.5,0.1,1.7l0,0l0,0h1.2V0H6.8z"  fill="#DCDCDC"/>
                                                <path d="M1.2,0.1V0H0v2.9h1.2c0.1-0.3,0.2-1.4,0.2-1.7C1.4,0.8,1.3,0.4,1.2,0.1z"  fill="#DCDCDC"/>
                                            </g>
                                        </g>
                                        <g transform="matrix(2.578893e-06 1 -1 2.578893e-06 4.0535 -3.9115)" >
                                            <g >
                                                <g >
                                                    <rect x="3.9"  y="-3.9" opacity="0.2" enable-background="new    " height="8" fill="#FFFFFF" width="0.1"/>
                                                </g>
                                            </g>
                                        </g>
                                        <g transform="matrix(2.578893e-06 1 -1 2.578893e-06 6.7455 -1.2195)" >
                                            <g >
                                                <g >
                                                    <rect x="3.9"  y="-1.2" opacity="0.2" enable-background="new    " height="8" width="0.1"/>
                                                </g>
                                            </g>
                                        </g>
                                    </g>
                                </g>
                            </g>
                        </g>
                    </g>
                </g>
            </g>
        </g>
        <g transform="matrix(1, 0, 0, 1, 21.9828, 53.531)" >
            <g >
                <g >
                    <g  gorn="0.2.4.0.0.0" id="_x30_603-cap_2_">
                        <g transform="matrix(-1, 0, 0, -1, 7.938, 2.834)" >
                            <g >
                                <g >
                                    <g >
                                        <rect x="0"  y="0" height="2.8" fill="#AF6C41" width="8"/>
                                        <g >
                                            <g >
                                                <path d="M6.8,0L6.8,0L6.8,0L6.8,0L6.8,0C6.6,0.3,6.6,0.8,6.6,1.1c0,0.3,0,1.5,0.1,1.7l0,0l0,0h1.2V0H6.8z"  fill="#DCDCDC"/>
                                                <path d="M1.2,0.1V0H0v2.9h1.2c0.1-0.3,0.2-1.4,0.2-1.7C1.4,0.8,1.3,0.4,1.2,0.1z"  fill="#DCDCDC"/>
                                            </g>
                                        </g>
                                        <rect x="0"  y="0" opacity="0.2" enable-background="new    " height="0.1" fill="#FFFFFF" width="8"/>
                                        <rect x="0"  y="2.7" opacity="0.2" enable-background="new    " height="0.1" width="8"/>
                                    </g>
                                </g>
                            </g>
                        </g>
                    </g>
                </g>
            </g>
        </g>
        <g transform="matrix(1, 0, 0, 1, 32.379, 48.2947)" >
            <g >
                <g >
                    <g  gorn="0.2.5.0.0.0" id="_x30_603-res">
                        <g transform="matrix(0, 1, -1, 0, 5.386, -2.552)" >
                            <g >
                                <g >
                                    <g >
                                        <g >
                                            <g >
                                                <g transform="matrix(2.578893e-06 1 -1 2.578893e-06 5.381 -2.547)" >
                                                    <g >
                                                        <g >
                                                            <rect x="2.5"  y="-2.6" height="8" fill="#333333" width="2.8"/>
                                                        </g>
                                                    </g>
                                                </g>
                                                <g transform="matrix(2.578893e-06 1 -1 2.578893e-06 3.987 -3.941)" >
                                                    <g >
                                                        <g >
                                                            <rect x="3.9"  y="-4" opacity="0.2" enable-background="new    " height="8" fill="#FFFFFF" width="0"/>
                                                        </g>
                                                    </g>
                                                </g>
                                                <g transform="matrix(2.578893e-06 1 -1 2.578893e-06 6.782 -1.146)" >
                                                    <g >
                                                        <g >
                                                            <rect x="3.9"  y="-1.2" opacity="0.2" enable-background="new    " height="8" width="0"/>
                                                        </g>
                                                    </g>
                                                </g>
                                            </g>
                                            <g >
                                                <path d="M6.8,0L6.8,0L6.8,0L6.8,0L6.8,0C6.6,0.3,6.6,0.8,6.6,1.1c0,0.3,0,1.4,0.1,1.7l0,0l0,0l1.2,0V0H6.8z"  fill="#DCDCDC"/>
                                                <path d="M1.2,0.1V0H0v2.7h1.2c0.1-0.3,0.2-1.4,0.2-1.7C1.4,0.7,1.3,0.4,1.2,0.1z"  fill="#DCDCDC"/>
                                                <path d="M7.9,2.9H6.7l0-0.1h1.2L7.9,2.9z"  fill="#999999"/>
                                                <path d="M0,2.9h1.2l0-0.1H0L0,2.9z"  fill="#999999"/>
                                                <g transform="matrix(2.578893e-06 1 -1 2.578893e-06 0.6385 -0.5925)" >
                                                    <g >
                                                        <g >
                                                            <rect x="0.6"  y="-0.6" opacity="0.5" enable-background="new    " height="1.2" fill="#FFFFFF" width="0"/>
                                                        </g>
                                                    </g>
                                                </g>
                                                <g transform="matrix(2.578893e-06 1 -1 2.578893e-06 7.333 -7.287)" >
                                                    <g >
                                                        <g >
                                                            <rect x="7.3"  y="-0.6" opacity="0.5" enable-background="new    " height="1.2" fill="#FFFFFF" width="0"/>
                                                        </g>
                                                    </g>
                                                </g>
                                                <line  y1="2.8" y2="2.8" fill="none" x1="0.7" x2="0.7"/>
                                            </g>
                                        </g>
                                    </g>
                                </g>
                            </g>
                        </g>
                    </g>
                </g>
            </g>
        </g>
        <g transform="matrix(1, 0, 0, 1, 7.77902, 32.7513)" >
            <g >
                <g >
                    <g  gorn="0.2.6.0.0.0" id="_x30_603-res_1_">
                        <g transform="matrix(0, -1, 1, 0, 2.552, 5.386)" >
                            <g >
                                <g >
                                    <g >
                                        <g >
                                            <g >
                                                <g transform="matrix(-2.547107e-06 -1 1 -2.547107e-06 2.547 5.381)" >
                                                    <g >
                                                        <g >
                                                            <rect x="2.5"  y="-2.6" height="8" fill="#333333" width="2.8"/>
                                                        </g>
                                                    </g>
                                                </g>
                                                <g transform="matrix(-2.547107e-06 -1 1 -2.547107e-06 3.941 3.987)" >
                                                    <g >
                                                        <g >
                                                            <rect x="3.9"  y="-4" opacity="0.2" enable-background="new    " height="8" fill="#FFFFFF" width="0"/>
                                                        </g>
                                                    </g>
                                                </g>
                                                <g transform="matrix(-2.547107e-06 -1 1 -2.547107e-06 1.146 6.782)" >
                                                    <g >
                                                        <g >
                                                            <rect x="3.9"  y="-1.2" opacity="0.2" enable-background="new    " height="8" width="0"/>
                                                        </g>
                                                    </g>
                                                </g>
                                            </g>
                                            <g >
                                                <path d="M6.8,0L6.8,0L6.8,0L6.8,0L6.8,0C6.6,0.3,6.6,0.8,6.6,1.1c0,0.3,0,1.4,0.1,1.7l0,0l0,0l1.2,0V0H6.8z"  fill="#DCDCDC"/>
                                                <path d="M1.2,0.1V0H0v2.7h1.2c0.1-0.3,0.2-1.4,0.2-1.7C1.4,0.7,1.3,0.4,1.2,0.1z"  fill="#DCDCDC"/>
                                                <path d="M7.9,2.9H6.7l0-0.1h1.2L7.9,2.9z"  fill="#999999"/>
                                                <path d="M0,2.9h1.2l0-0.1H0L0,2.9z"  fill="#999999"/>
                                                <g transform="matrix(-2.547107e-06 -1 1 -2.547107e-06 0.5925 0.6385)" >
                                                    <g >
                                                        <g >
                                                            <rect x="0.6"  y="-0.6" opacity="0.5" enable-background="new    " height="1.2" fill="#FFFFFF" width="0"/>
                                                        </g>
                                                    </g>
                                                </g>
                                                <g transform="matrix(-2.547107e-06 -1 1 -2.547107e-06 7.287 7.333)" >
                                                    <g >
                                                        <g >
                                                            <rect x="7.3"  y="-0.6" opacity="0.5" enable-background="new    " height="1.2" fill="#FFFFFF" width="0"/>
                                                        </g>
                                                    </g>
                                                </g>
                                                <line  y1="2.8" y2="2.8" fill="none" x1="0.7" x2="0.7"/>
                                            </g>
                                        </g>
                                    </g>
                                </g>
                            </g>
                        </g>
                    </g>
                </g>
            </g>
        </g>
        <g transform="matrix(1, 0, 0, 1, 3.003, 38.9347)" >
            <g >
                <g >
                    <g  gorn="0.2.7.0.0.0" id="_x30_603-res_2_">
                        <g transform="matrix(0, 1, -1, 0, 5.386, -2.552)" >
                            <g >
                                <g >
                                    <g >
                                        <g >
                                            <g >
                                                <g transform="matrix(2.578893e-06 1 -1 2.578893e-06 5.381 -2.547)" >
                                                    <g >
                                                        <g >
                                                            <rect x="2.5"  y="-2.6" height="8" fill="#333333" width="2.8"/>
                                                        </g>
                                                    </g>
                                                </g>
                                                <g transform="matrix(2.578893e-06 1 -1 2.578893e-06 3.987 -3.941)" >
                                                    <g >
                                                        <g >
                                                            <rect x="3.9"  y="-4" opacity="0.2" enable-background="new    " height="8" fill="#FFFFFF" width="0"/>
                                                        </g>
                                                    </g>
                                                </g>
                                                <g transform="matrix(2.578893e-06 1 -1 2.578893e-06 6.782 -1.146)" >
                                                    <g >
                                                        <g >
                                                            <rect x="3.9"  y="-1.2" opacity="0.2" enable-background="new    " height="8" width="0"/>
                                                        </g>
                                                    </g>
                                                </g>
                                            </g>
                                            <g >
                                                <path d="M6.8,0L6.8,0L6.8,0L6.8,0L6.8,0C6.6,0.3,6.6,0.8,6.6,1.1c0,0.3,0,1.4,0.1,1.7l0,0l0,0l1.2,0V0H6.8z"  fill="#DCDCDC"/>
                                                <path d="M1.2,0.1V0H0v2.7h1.2c0.1-0.3,0.2-1.4,0.2-1.7C1.4,0.7,1.3,0.4,1.2,0.1z"  fill="#DCDCDC"/>
                                                <path d="M7.9,2.9H6.7l0-0.1h1.2L7.9,2.9z"  fill="#999999"/>
                                                <path d="M0,2.9h1.2l0-0.1H0L0,2.9z"  fill="#999999"/>
                                                <g transform="matrix(2.578893e-06 1 -1 2.578893e-06 0.6385 -0.5925)" >
                                                    <g >
                                                        <g >
                                                            <rect x="0.6"  y="-0.6" opacity="0.5" enable-background="new    " height="1.2" fill="#FFFFFF" width="0"/>
                                                        </g>
                                                    </g>
                                                </g>
                                                <g transform="matrix(2.578893e-06 1 -1 2.578893e-06 7.333 -7.287)" >
                                                    <g >
                                                        <g >
                                                            <rect x="7.3"  y="-0.6" opacity="0.5" enable-background="new    " height="1.2" fill="#FFFFFF" width="0"/>
                                                        </g>
                                                    </g>
                                                </g>
                                                <line  y1="2.8" y2="2.8" fill="none" x1="0.7" x2="0.7"/>
                                            </g>
                                        </g>
                                    </g>
                                </g>
                            </g>
                        </g>
                    </g>
                </g>
            </g>
        </g>
        <g transform="matrix(1, 0, 0, 1, 2.019, 50.3913)" >
            <g >
                <g >
                    <g  gorn="0.2.8.0.0.0" id="_x30_603-res_3_">
                        <g transform="matrix(0, -1, 1, 0, 2.552, 5.386)" >
                            <g >
                                <g >
                                    <g >
                                        <g >
                                            <g >
                                                <g transform="matrix(-2.547107e-06 -1 1 -2.547107e-06 2.547 5.381)" >
                                                    <g >
                                                        <g >
                                                            <rect x="2.5"  y="-2.6" height="8" fill="#333333" width="2.8"/>
                                                        </g>
                                                    </g>
                                                </g>
                                                <g transform="matrix(-2.547107e-06 -1 1 -2.547107e-06 3.941 3.987)" >
                                                    <g >
                                                        <g >
                                                            <rect x="3.9"  y="-4" opacity="0.2" enable-background="new    " height="8" fill="#FFFFFF" width="0"/>
                                                        </g>
                                                    </g>
                                                </g>
                                                <g transform="matrix(-2.547107e-06 -1 1 -2.547107e-06 1.146 6.782)" >
                                                    <g >
                                                        <g >
                                                            <rect x="3.9"  y="-1.2" opacity="0.2" enable-background="new    " height="8" width="0"/>
                                                        </g>
                                                    </g>
                                                </g>
                                            </g>
                                            <g >
                                                <path d="M6.8,0L6.8,0L6.8,0L6.8,0L6.8,0C6.6,0.3,6.6,0.8,6.6,1.1c0,0.3,0,1.4,0.1,1.7l0,0l0,0l1.2,0V0H6.8z"  fill="#DCDCDC"/>
                                                <path d="M1.2,0.1V0H0v2.7h1.2c0.1-0.3,0.2-1.4,0.2-1.7C1.4,0.7,1.3,0.4,1.2,0.1z"  fill="#DCDCDC"/>
                                                <path d="M7.9,2.9H6.7l0-0.1h1.2L7.9,2.9z"  fill="#999999"/>
                                                <path d="M0,2.9h1.2l0-0.1H0L0,2.9z"  fill="#999999"/>
                                                <g transform="matrix(-2.547107e-06 -1 1 -2.547107e-06 0.5925 0.6385)" >
                                                    <g >
                                                        <g >
                                                            <rect x="0.6"  y="-0.6" opacity="0.5" enable-background="new    " height="1.2" fill="#FFFFFF" width="0"/>
                                                        </g>
                                                    </g>
                                                </g>
                                                <g transform="matrix(-2.547107e-06 -1 1 -2.547107e-06 7.287 7.333)" >
                                                    <g >
                                                        <g >
                                                            <rect x="7.3"  y="-0.6" opacity="0.5" enable-background="new    " height="1.2" fill="#FFFFFF" width="0"/>
                                                        </g>
                                                    </g>
                                                </g>
                                                <line  y1="2.8" y2="2.8" fill="none" x1="0.7" x2="0.7"/>
                                            </g>
                                        </g>
                                    </g>
                                </g>
                            </g>
                        </g>
                    </g>
                </g>
            </g>
        </g>
        <g transform="matrix(1, 0, 0, 1, 12.2628, 53.531)" >
            <g >
                <g >
                    <g  gorn="0.2.9.0.0.0" id="_x30_603-res_4_">
                        <g transform="matrix(-1, 0, 0, -1, 7.938, 2.834)" >
                            <g >
                                <g >
                                    <g >
                                        <g >
                                            <g >
                                                <rect x="0"  y="0" height="2.8" fill="#333333" width="8"/>
                                                <rect x="0"  y="0" opacity="0.2" enable-background="new    " height="0" fill="#FFFFFF" width="8"/>
                                                <rect x="0"  y="2.8" opacity="0.2" enable-background="new    " height="0" width="8"/>
                                            </g>
                                            <g >
                                                <path d="M6.8,0L6.8,0L6.8,0L6.8,0L6.8,0C6.6,0.3,6.6,0.8,6.6,1.1c0,0.3,0,1.4,0.1,1.7l0,0l0,0l1.2,0V0H6.8z"  fill="#DCDCDC"/>
                                                <path d="M1.2,0.1V0H0v2.7h1.2c0.1-0.3,0.2-1.4,0.2-1.7C1.4,0.7,1.3,0.4,1.2,0.1z"  fill="#DCDCDC"/>
                                                <path d="M7.9,2.9H6.7l0-0.1h1.2L7.9,2.9z"  fill="#999999"/>
                                                <path d="M0,2.9h1.2l0-0.1H0L0,2.9z"  fill="#999999"/>
                                                <rect x="0"  y="0" opacity="0.5" enable-background="new    " height="0" fill="#FFFFFF" width="1.2"/>
                                                <rect x="6.7"  y="0" opacity="0.5" enable-background="new    " height="0" fill="#FFFFFF" width="1.2"/>
                                                <line  y1="2.8" y2="2.8" fill="none" x1="0.7" x2="0.7"/>
                                            </g>
                                        </g>
                                    </g>
                                </g>
                            </g>
                        </g>
                    </g>
                </g>
            </g>
        </g>
    </g>
    <g >
        <path d="M15.8,11.7v3 M15.8,14.7h2 M21.1,12.2l-0.5-0.5 M20.6,11.7h-1 M19.6,11.7l-0.5,0.5 M19.1,12.2v0.5 M19.1,12.7l0.5,0.5 M19.6,13.2h1 M20.6,13.2l0.5,0.5 M21.1,13.7v0.5 M21.1,14.2l-0.5,0.5 M20.6,14.7h-1 M19.6,14.7l-0.5-0.5 M22.4,14.7v-3 M22.4,11.7l1,1 M23.4,12.7l1-1 M24.4,11.7v3 M25.7,12.2l0.5-0.5 M26.2,11.7h1 M27.2,11.7l0.5,0.5 M27.7,12.2v0.5 M27.7,12.7l-0.5,0.5 M27.2,13.2h-0.5 M27.2,13.2l0.5,0.5 M27.7,13.7v0.5 M27.7,14.2l-0.5,0.5 M27.2,14.7h-1 M26.2,14.7l-0.5-0.5 M29,14.2v-2 M29,12.2l0.5-0.5 M29.5,11.7h1 M30.6,11.7l0.5,0.5 M31.1,12.2v2 M31.1,14.2l-0.5,0.5 M30.6,14.7h-1 M29.5,14.7L29,14.2 M29,14.2l2-2 M32.4,12.2l0.5-0.5 M32.9,11.7h1 M33.9,11.7l0.5,0.5 M34.4,12.2v0.5 M34.4,12.7l-0.5,0.5 M33.9,13.2h-0.5 M33.9,13.2l0.5,0.5 M34.4,13.7v0.5 M34.4,14.2l-0.5,0.5 M33.9,14.7h-1 M32.9,14.7l-0.5-0.5 M37.7,12.2l-0.5-0.5 M37.2,11.7h-1 M36.2,11.7l-0.5,0.5 M35.7,12.2v2 M35.7,14.2l0.5,0.5 M36.2,14.7h1 M37.2,14.7l0.5-0.5 M12.5,20.1v-3 M12.5,17.1H14 M14,17.1l0.5,0.5 M14.5,17.6v0.5 M14.5,18.1L14,18.6 M14,18.6l0.5,0.5 M14.5,19.1v0.5 M14.5,19.6L14,20.1 M14,20.1h-1.5 M12.5,18.6H14 M15.8,20.1v-2 M15.8,19.1l1-1 M16.8,18.1h0.5 M20.1,20.1h-1 M19.1,20.1l-0.5-0.5 M18.5,19.6v-1 M18.5,18.6l0.5-0.5 M19.1,18.1h1 M20.1,18.1l0.5,0.5 M20.6,18.6v0.5 M20.6,19.1h-2 M22.4,18.1h1 M23.4,18.1l0.5,0.5 M23.9,18.6v1.5 M23.9,20.1h-1.5 M22.4,20.1l-0.5-0.5 M21.9,19.6l0.5-0.5 M22.4,19.1h1.5 M25.2,20.1v-3 M26.7,20.1l-1.5-1 M25.2,19.1l1.5-1 M28.4,20.1h1 M29.5,20.1l0.5-0.5 M30,19.6v-1 M30,18.6l-0.5-0.5 M29.5,18.1h-1 M28.4,18.1l-0.5,0.5 M27.9,18.6v1 M27.9,19.6l0.5,0.5 M31.3,18.1v1.5 M31.3,19.6l0.5,0.5 M31.8,20.1h1.5 M33.3,20.1v-2 M35.1,17.6v2 M35.1,19.6l0.5,0.5 M34.6,18.1h1"  stroke="#FFFFFF" stroke-width="0.5" stroke-linecap="round" fill="none"/>
        <path d="M49.8,43.5h10.6"  stroke="#FFFFFF" stroke-width="0.25" stroke-linecap="round" fill="none"/>
        <path d="M47.7,60.1h12.7"  stroke="#FFFFFF" stroke-width="0.25" stroke-linecap="round" fill="none"/>
        <path d="M28.2,21.4l-2,3 M26.2,21.4l2,3"  stroke="#FFFFFF" stroke-width="0.5" stroke-linecap="round" fill="none"/>
        <path d="M20.4,29.9v0.5 M20.4,30.4l-1,1 M19.4,31.4l-1-1 M18.4,30.4v-0.5 M19.4,31.4v1.5"  stroke="#FFFFFF" stroke-width="0.5" stroke-linecap="round" fill="none"/>
        <path d="M23.9,26.8h2 M25.9,26.8v0.5 M25.9,27.3l-2,2 M23.9,29.3v0.5 M23.9,29.8h2"  stroke="#FFFFFF" stroke-width="0.5" stroke-linecap="round" fill="none"/>
        <g transform="matrix(1 0 0 1 44.364 58.87)" >
            <g >
                <g >
                    <text  font-family="Droid Sans" fill="#FFFFFF" font-size="2.5344">SJ2</text>
                </g>
            </g>
        </g>
        <circle  stroke="#FFFFFF" stroke-width="0.5" cx="22.3" fill="none" cy="25.5" r="1.4"/>
        <line  stroke="#FFFFFF" stroke-width="0.5" stroke-linecap="round" y1="29.6" y2="22.9" fill="none" x1="19.5" x2="19.5"/>
        <line  stroke="#FFFFFF" stroke-width="0.5" stroke-linecap="round" y1="22.9" y2="22.9" fill="none" x1="19.5" x2="26"/>
        <line  stroke="#FFFFFF" stroke-width="0.5" stroke-linecap="round" y1="22.1" y2="22.9" fill="none" x1="25.3" x2="26"/>
        <line  stroke="#FFFFFF" stroke-width="0.5" stroke-linecap="round" y1="22.9" y2="23.6" fill="none" x1="26" x2="25.3"/>
        <line  stroke="#FFFFFF" stroke-width="0.5" stroke-linecap="round" y1="29.6" y2="28.8" fill="none" x1="19.5" x2="18.7"/>
        <line  stroke="#FFFFFF" stroke-width="0.5" stroke-linecap="round" y1="29.6" y2="28.8" fill="none" x1="19.5" x2="20.2"/>
        <line  stroke="#FFFFFF" stroke-width="0.25" stroke-linecap="round" y1="52.8" y2="54" fill="none" x1="54.2" x2="53"/>
        <line  stroke="#FFFFFF" stroke-width="0.25" stroke-linecap="round" y1="54" y2="52.9" fill="none" x1="53" x2="52.6"/>
        <line  stroke="#FFFFFF" stroke-width="0.25" stroke-linecap="round" y1="52.9" y2="52.8" fill="none" x1="52.6" x2="54.2"/>
        <path d="M54.2,52.8c-1.7,0.5-3.3,2.1-3.7,3.8"  stroke="#FFFFFF" stroke-width="0.25" stroke-linecap="round" fill="none"/>
        <g >
            <title >PART SJ2</title>
            <line  stroke="#FFFFFF" stroke-width="0.2032" stroke-linecap="round" y1="52.2" y2="47.5" fill="none" x1="55.3" x2="55.3"/>
            <path d="M60.3,52.9c0.4,0,0.7-0.3,0.7-0.7"  stroke="#FFFFFF" stroke-width="0.2032" stroke-linecap="round" fill="none"/>
            <path d="M61.1,47.5c0-0.4-0.3-0.7-0.7-0.7"  stroke="#FFFFFF" stroke-width="0.2032" stroke-linecap="round" fill="none"/>
            <path d="M56,46.8c-0.4,0-0.7,0.3-0.7,0.7"  stroke="#FFFFFF" stroke-width="0.2032" stroke-linecap="round" fill="none"/>
            <path d="M55.3,52.2c0,0.4,0.3,0.7,0.7,0.7"  stroke="#FFFFFF" stroke-width="0.2032" stroke-linecap="round" fill="none"/>
            <line  stroke="#FFFFFF" stroke-width="0.2032" stroke-linecap="round" y1="47.5" y2="52.2" fill="none" x1="61.1" x2="61.1"/>
            <rect x="56.4"  y="47.5" height="1.8" fill="#CCCCCC" width="3.6"/>
            <rect x="56.4"  y="50.4" height="1.8" fill="#CCCCCC" width="3.6"/>
        </g>
        <g >
            <g >
                <g >
                    <path d="M15.2,7c0,0.5,0.4,0.7,0.9,0.7c0.3,0,0.8-0.1,0.8-0.5c0-0.3-0.5-0.5-1.3-0.6c-0.7-0.2-1.3-0.4-1.3-1.1c0-1.1,0.9-1.3,1.8-1.3c0.9,0,1.7,0.3,1.8,1.3h-1.1c0-0.4-0.4-0.6-0.8-0.6c-0.3,0-0.6,0-0.6,0.4s0.7,0.5,1.3,0.6C17.4,6.1,18,6.3,18,7.1c0,1.1-1,1.5-1.9,1.5c-1,0-1.9-0.4-2-1.5h1.1C15.2,7.1,15.2,7,15.2,7z"  fill="#FFFFFE"/>
                    <path d="M18.5,4.3l1.1-0.2v0.5l0,0C19.9,4.1,20.3,4,20.8,4c1.3,0,1.9,1.1,1.9,2.2s-0.6,2.2-1.8,2.2c-0.5,0-1-0.2-1.2-0.6l0,0v3l-1.1-1V4.3H18.5z M21.7,6.2c0-0.7-0.3-1.3-1-1.3c-0.8,0-1,0.7-1,1.3c0,0.7,0.3,1.3,1,1.3C21.4,7.6,21.7,6.9,21.7,6.2z"  fill="#FFFFFE"/>
                    <path d="M23.3,5.4c0.1-1.1,1-1.4,2-1.4c0.8,0,1.8,0.2,1.8,1.2v2.2c0,0.4,0,0.8,0.1,0.9H26c0-0.1-0.1-0.3-0.1-0.4c-0.4,0.4-0.9,0.5-1.4,0.5c-0.8,0-1.4-0.4-1.4-1.3c0-1.9,2.8-0.9,2.8-1.8c0-0.5-0.3-0.6-0.7-0.6s-0.7,0.2-0.8,0.6h-1.1C23.3,5.3,23.3,5.4,23.3,5.4z M25.9,6.3c-0.2,0.2-0.6,0.2-1,0.2c-0.4,0.1-0.7,0.2-0.7,0.6c0,0.4,0.3,0.5,0.7,0.5c0.9,0,0.9-0.7,0.9-1V6.3H25.9z"  fill="#FFFFFE"/>
                    <path d="M27.7,4.3l1.1-0.2v0.8l0,0C29,4.4,29.6,4,30.1,4c0.1,0,0.2,0,0.3,0v1.1c-0.1,0-0.3,0-0.4,0c-0.8,0-1.1,0.6-1.1,1.3v1.9h-1.1v-4H27.7z"  fill="#FFFFFE"/>
                    <path d="M30.8,3.2l1.1-0.6v3.1l1.4-1.5h1.4l-1.6,1.5l1.7,2.6h-1.4l-1.1-1.9l-0.4,0.4v1.5h-1.1C30.8,8.2,30.8,3.2,30.8,3.2z"  fill="#FFFFFE"/>
                    <path d="M35.8,4.9h-1.1l0.8-0.8h0.3V3.8c0-0.7,0.5-1.3,1.4-1.3c0.2,0,0.4,0,0.6,0v0.9c-0.1,0-0.3,0-0.4,0c-0.3,0-0.4,0.1-0.4,0.5v0.2h0.8v0.8H37v3.4h-1.1V4.9C35.9,4.9,35.8,4.9,35.8,4.9z"  fill="#FFFFFE"/>
                    <path d="M42,8.3h-1.1V7.7l0,0c-0.3,0.5-0.8,0.7-1.3,0.7c-1.2,0-1.5-0.7-1.5-1.7V4.2h1.1v2.4c0,0.7,0.2,1,0.7,1c0.6,0,0.9-0.3,0.9-1.2V4.2h1.1v4.1H42z"  fill="#FFFFFE"/>
                    <path d="M42.7,4.2h1.1v0.6l0,0c0.3-0.5,0.8-0.7,1.3-0.7c1.2,0,1.5,0.7,1.5,1.7v2.6h-1.1V6c0-0.7-0.2-1-0.7-1c-0.6,0-0.9,0.3-0.9,1.2v2.2h-1.1V4.2H42.7z"  fill="#FFFFFE"/>
                </g>
            </g>
        </g>
    </g>
    <g transform="matrix(1 0 0 1 53.9859 4.2108)" >
        <g >
            <g >
                <text  font-family="OCRA" fill="#FFFFFF" font-size="3">GND</text>
            </g>
        </g>
    </g>
    <g transform="matrix(1 0 0 1 47.5504 11.5122)" >
        <g >
            <g >
                <text  font-family="OCRA" fill="#FFFFFF" font-size="3">VDD_IO</text>
            </g>
        </g>
    </g>
    <g transform="matrix(1 0 0 1 36.8258 18.8134)" >
        <g >
            <g >
                <text  font-family="OCRA" fill="#FFFFFF" font-size="3">SDA/SDI/SDO</text>
            </g>
        </g>
    </g>
    <g transform="matrix(1 0 0 1 43.2609 26.1146)" >
        <g >
            <g >
                <text  font-family="OCRA" fill="#FFFFFF" font-size="3">SCL/SCLK</text>
            </g>
        </g>
    </g>
    <g transform="matrix(1 0 0 1 47.5504 33.4158)" >
        <g >
            <g >
                <text  font-family="OCRA" fill="#FFFFFF" font-size="3">INT_XL</text>
            </g>
        </g>
    </g>
    <g transform="matrix(1 0 0 1 51.841 40.7165)" >
        <g >
            <g >
                <text  font-family="OCRA" fill="#FFFFFF" font-size="3">DRDY</text>
            </g>
        </g>
    </g>
    <g transform="matrix(1 0 0 1 49.6955 46.0185)" >
        <g >
            <g >
                <text  font-family="OCRA" fill="#FFFFFF" font-size="3">CS_XL</text>
            </g>
        </g>
    </g>
    <g transform="matrix(1 0 0 1 53.986 55.3193)" >
        <g >
            <g >
                <text  font-family="OCRA" fill="#FFFFFF" font-size="3">VDD</text>
            </g>
        </g>
    </g>
    <g transform="matrix(1 0 0 1 47.5504 62.6209)" >
        <g >
            <g >
                <text  font-family="OCRA" fill="#FFFFFF" font-size="3">CS_MAG</text>
            </g>
        </g>
    </g>
    <g transform="matrix(1 0 0 1 45.4059 69.9221)" >
        <g >
            <g >
                <text  font-family="OCRA" fill="#FFFFFF" font-size="3">INT_MAG</text>
            </g>
        </g>
    </g>
</svg>
