<?xml version='1.0' encoding='UTF-8' standalone='no'?>
<!-- Created with Fritzing (http://www.fritzing.org/) -->
<svg xmlns="http://www.w3.org/2000/svg" viewBox="0 0 50.4 43.2" width="0.7in" height="0.6in"  id="svg440" x="0in" y="0in" version="1.2" gorn="0">
    <desc>
        <referenceFile>SparkFun_VL6180_Breakout_breadboard.svg</referenceFile>
    </desc>
    <metadata  id="metadata446">
        <rdf:RDF xmlns:rdf="http://www.w3.org/1999/02/22-rdf-syntax-ns#">
            <cc:Work xmlns:cc="http://creativecommons.org/ns#" xmlns:rdf="http://www.w3.org/1999/02/22-rdf-syntax-ns#" rdf:about="">
                <dc:format xmlns:dc="http://purl.org/dc/elements/1.1/">image/svg+xml</dc:format>
                <dc:type xmlns:dc="http://purl.org/dc/elements/1.1/" xmlns:rdf="http://www.w3.org/1999/02/22-rdf-syntax-ns#" rdf:resource="http://purl.org/dc/dcmitype/StillImage"/>
            </cc:Work>
        </rdf:RDF>
    </metadata>
    <defs  id="defs444"/>
    <desc  id="desc2">Fritzing breadboard generated by brd2svg</desc>
    <g  id="breadboard" gorn="0.3">
        <g  id="icon" gorn="0.3.0">
            <path d="M 0,43.2 H 50.4 V 0 H 0 V 43.2 M 2.52,14.4 a 4.68,4.68 0 1 1 9.36,0 4.68,4.68 0 1 1 -9.36,0 z m 36,0 a 4.68,4.68 0 1 1 9.36,0 4.68,4.68 0 1 1 -9.36,0 z m 3.24,25.2 a 1.44,1.44 0 1 1 2.88,0 1.44,1.44 0 1 1 -2.88,0 z m -7.2,0 a 1.44,1.44 0 1 1 2.88,0 1.44,1.44 0 1 1 -2.88,0 z m -7.2,0 a 1.44,1.44 0 1 1 2.88,0 1.44,1.44 0 1 1 -2.88,0 z m -7.2,0 a 1.44,1.44 0 1 1 2.88,0 1.44,1.44 0 1 1 -2.88,0 z m -7.2,0 a 1.44,1.44 0 1 1 2.88,0 1.44,1.44 0 1 1 -2.88,0 z m -7.2,0 a 1.44,1.44 0 1 1 2.88,0 1.44,1.44 0 1 1 -2.88,0 z"  id="path4" gorn="0.3.0.0" style="fill:#e6321e;stroke:none;stroke-width:0"/>
            <g  id="g238" gorn="0.3.0.1">
                <title  id="title6">layer 21</title>
                <g  id="g12" gorn="0.3.0.1.1">
                    <title  id="title8">text:GND</title>
                    <text  id="text10" x="40.200001" y="35.279999" gorn="0.3.0.1.1.1" font-size="2.67264" style="font-size:2.67264009px;font-family:OCRA;text-anchor:start;fill:#ffffff;stroke:none;stroke-width:0">GND</text>
                </g>
                <g  id="g18" gorn="0.3.0.1.2">
                    <title  id="title14">text:2.8v</title>
                    <text  id="text16" x="32.450844" y="35.279999" gorn="0.3.0.1.2.1" font-size="2.67264" style="font-size:2.67264009px;font-family:OCRA;text-anchor:start;fill:#ffffff;stroke:none;stroke-width:0">2.8v</text>
                </g>
                <g  id="g24" gorn="0.3.0.1.3">
                    <title  id="title20">text:SDA</title>
                    <text  id="text22" x="25.799999" y="35.279999" gorn="0.3.0.1.3.1" font-size="2.67264" style="font-size:2.67264009px;font-family:OCRA;text-anchor:start;fill:#ffffff;stroke:none;stroke-width:0">SDA</text>
                </g>
                <g  id="g30" gorn="0.3.0.1.4">
                    <title  id="title26">text:SCL</title>
                    <text  id="text28" x="18.6" y="35.279999" gorn="0.3.0.1.4.1" font-size="2.67264" style="font-size:2.67264009px;font-family:OCRA;text-anchor:start;fill:#ffffff;stroke:none;stroke-width:0">SCL</text>
                </g>
                <g  id="g36" gorn="0.3.0.1.5">
                    <title  id="title32">text:IO0</title>
                    <text  id="text34" x="11.4" y="35.279999" gorn="0.3.0.1.5.1" font-size="2.67264" style="font-size:2.67264009px;font-family:OCRA;text-anchor:start;fill:#ffffff;stroke:none;stroke-width:0">IO0</text>
                </g>
                <g  id="g42" gorn="0.3.0.1.6">
                    <title  id="title38">text:IO1</title>
                    <text  id="text40" x="4.1999998" y="35.279999" gorn="0.3.0.1.6.1" font-size="2.67264" style="font-size:2.67264009px;font-family:OCRA;text-anchor:start;fill:#ffffff;stroke:none;stroke-width:0">IO1</text>
                </g>
                <g  id="g52" gorn="0.3.0.1.7">
                    <title  id="title44">text:PU EN</title>
                    <g transform="translate(48.7526,27.36)" >
                        <g  id="g50" gorn="0.3.0.1.7.1.0">
                            <g transform="rotate(-90)" >
                                <g  id="g48" gorn="0.3.0.1.7.1.0.0.0">
                                    <text  id="text46" x="4.5" y="-1.5" gorn="0.3.0.1.7.1.0.0.0.0" font-size="2.67264" style="font-size:2.67264009px;font-family:OCRA;text-anchor:end;fill:#ffffff;stroke:none;stroke-width:0">PU EN</text>
                                </g>
                            </g>
                        </g>
                    </g>
                </g>
                <g  id="g58" gorn="0.3.0.1.8">
                    <title  id="title54">text:VL6180 Time of Flight</title>
                    <text  id="text56" x="5.7000008" y="4.3200002" gorn="0.3.0.1.8.1" font-size="2.67264" style="font-size:2.67264009px;font-family:OCRA;text-anchor:start;fill:#ffffff;stroke:none;stroke-width:0">VL6180 Time of Flight</text>
                </g>
                <g  id="g64" gorn="0.3.0.1.9">
                    <title  id="title60">text:Range Finder</title>
                    <text  id="text62" x="13.200001" y="7.1999998" gorn="0.3.0.1.9.1" font-size="2.67264" style="font-size:2.67264009px;font-family:OCRA;text-anchor:start;fill:#ffffff;stroke:none;stroke-width:0">Range Finder</text>
                </g>
                <g  id="g74" gorn="0.3.0.1.10">
                    <title  id="title66">element:C1</title>
                    <g  id="g72" gorn="0.3.0.1.10.1">
                        <title  id="title68">package:0603-CAP</title>
                        <line  id="line70" gorn="0.3.0.1.10.1.1" y1="11.7935" y2="11.9665" x1="30.24" x2="30.24" style="stroke:#ffffff;stroke-width:1.58399999;stroke-linecap:round"/>
                    </g>
                </g>
                <g  id="g84" gorn="0.3.0.1.11">
                    <title  id="title76">element:C2</title>
                    <g  id="g82" gorn="0.3.0.1.11.1">
                        <title  id="title78">package:0603-CAP</title>
                        <line  id="line80" gorn="0.3.0.1.11.1.1" y1="11.9665" y2="11.7935" x1="20.16" x2="20.16" style="stroke:#ffffff;stroke-width:1.58399999;stroke-linecap:round"/>
                    </g>
                </g>
                <g  id="g92" gorn="0.3.0.1.12">
                    <title  id="title86">element:FID1</title>
                    <g  id="g90" gorn="0.3.0.1.12.1">
                        <title  id="title88">package:FIDUCIAL-1X2</title>
                    </g>
                </g>
                <g  id="g100" gorn="0.3.0.1.13">
                    <title  id="title94">element:FID2</title>
                    <g  id="g98" gorn="0.3.0.1.13.1">
                        <title  id="title96">package:FIDUCIAL-1X2</title>
                    </g>
                </g>
                <g  id="g108" gorn="0.3.0.1.14">
                    <title  id="title102">element:JP1</title>
                    <g  id="g106" gorn="0.3.0.1.14.1">
                        <title  id="title104">package:1X06</title>
                    </g>
                </g>
                <g  id="g116" gorn="0.3.0.1.15">
                    <title  id="title110">element:LOGO1</title>
                    <g  id="g114" gorn="0.3.0.1.15.1">
                        <title  id="title112">package:SFE_LOGO_NAME_FLAME_.1</title>
                    </g>
                </g>
                <g  id="g124" gorn="0.3.0.1.16">
                    <title  id="title118">element:LOGO2</title>
                    <g  id="g122" gorn="0.3.0.1.16.1">
                        <title  id="title120">package:OSHW-LOGO-S</title>
                    </g>
                </g>
                <g  id="g134" gorn="0.3.0.1.17">
                    <title  id="title126">element:R1</title>
                    <g  id="g132" gorn="0.3.0.1.17.1">
                        <title  id="title128">package:0603-RES</title>
                    </g>
                </g>
                <g  id="g144" gorn="0.3.0.1.18">
                    <title  id="title136">element:R2</title>
                    <g  id="g142" gorn="0.3.0.1.18.1">
                        <title  id="title138">package:0603-RES</title>
                    </g>
                </g>
                <g  id="g154" gorn="0.3.0.1.19">
                    <title  id="title146">element:R3</title>
                    <g  id="g152" gorn="0.3.0.1.19.1">
                        <title  id="title148">package:0603-RES</title>
                    </g>
                </g>
                <g  id="g164" gorn="0.3.0.1.20">
                    <title  id="title156">element:R4</title>
                    <g  id="g162" gorn="0.3.0.1.20.1">
                        <title  id="title158">package:0603-RES</title>
                    </g>
                </g>
                <g  id="g188" gorn="0.3.0.1.21">
                    <title  id="title166">element:SJ1</title>
                    <g  id="g186" gorn="0.3.0.1.21.1">
                        <title  id="title168">package:PAD-JUMPER-3-NC_BY_PASTE_YES_SILK_FULL_BOX</title>
                        <line  id="line170" gorn="0.3.0.1.21.1.1" y1="24.48" y2="31.68" x1="43.560001" x2="43.560001" style="stroke:#ffffff;stroke-width:0.43200001;stroke-linecap:round"/>
                        <path d="M 38.52,23.76 A 0.72,0.72 0 0 0 37.8,24.48"  id="path172" gorn="0.3.0.1.21.1.2" style="fill:none;stroke:#ffffff;stroke-width:0.43200001"/>
                        <path d="m 37.8,31.68 a 0.72,0.72 0 0 0 0.72,0.72"  id="path174" gorn="0.3.0.1.21.1.3" style="fill:none;stroke:#ffffff;stroke-width:0.43200001"/>
                        <path d="m 42.84,32.4 a 0.72,0.72 0 0 0 0.72,-0.72"  id="path176" gorn="0.3.0.1.21.1.4" style="fill:none;stroke:#ffffff;stroke-width:0.43200001"/>
                        <path d="M 43.56,24.48 A 0.72,0.72 0 0 0 42.84,23.76"  id="path178" gorn="0.3.0.1.21.1.5" style="fill:none;stroke:#ffffff;stroke-width:0.43200001"/>
                        <line  id="line180" gorn="0.3.0.1.21.1.6" y1="23.76" y2="23.76" x1="42.84" x2="38.52" style="stroke:#ffffff;stroke-width:0.43200001;stroke-linecap:round"/>
                        <line  id="line182" gorn="0.3.0.1.21.1.7" y1="32.400002" y2="32.400002" x1="42.84" x2="38.52" style="stroke:#ffffff;stroke-width:0.43200001;stroke-linecap:round"/>
                        <line  id="line184" gorn="0.3.0.1.21.1.8" y1="31.68" y2="24.48" x1="37.799999" x2="37.799999" style="stroke:#ffffff;stroke-width:0.43200001;stroke-linecap:round"/>
                    </g>
                </g>
                <g  id="g196" gorn="0.3.0.1.22">
                    <title  id="title190">element:STANDOFF1</title>
                    <g  id="g194" gorn="0.3.0.1.22.1">
                        <title  id="title192">package:STAND-OFF</title>
                    </g>
                </g>
                <g  id="g204" gorn="0.3.0.1.23">
                    <title  id="title198">element:STANDOFF2</title>
                    <g  id="g202" gorn="0.3.0.1.23.1">
                        <title  id="title200">package:STAND-OFF</title>
                    </g>
                </g>
                <g  id="g218" gorn="0.3.0.1.24">
                    <title  id="title206">element:U$2</title>
                    <g  id="g216" gorn="0.3.0.1.24.1">
                        <title  id="title208">package:SFE_LOGO_FLAME_.1</title>
                        <g  id="g214" gorn="0.3.0.1.24.1.1">
                            <title  id="title210">polygon</title>
                            <path d="m 36.8589,16.7301 v 0.2268 m 0,0 -0.0284,0.085 m 0,0 -0.0283,0.0567 m 0,0 -0.085,0.085 m 0,0 -0.085,0.0284 m 0,0 h -0.0851 m 0,0 -0.1134,-0.0284 m 0,0 -0.1134,-0.0283 m 0,0 -0.1134,-0.0567 m 0,0 -0.085,-0.0567 m 0,0 -0.1134,-0.085 m 0,0 -0.085,-0.0851 m 0,0 -0.0851,-0.085 m 0,0 -0.0566,-0.085 m 0,0 -0.0568,-0.0851 m 0,0 -0.0283,-0.1134 m 0,0 v -0.1701 m 0,0 0.0283,-0.085 m 0,0 0.0284,-0.0567 m 0,0 0.0567,-0.085 m 0,0 0.1134,-0.0851 m 0,0 0.1134,-0.0567 m 0,0 0.1417,-0.0283 m 0,0 0.1134,-0.0284 m 0,0 h 0.17 m 0,0 0.0568,0.0284 m 0,0 h 0.0283 m 0,0 -0.0283,-0.0284 m 0,0 -0.1134,-0.085 m 0,0 -0.1701,-0.085 m 0,0 -0.2268,-0.1134 m 0,0 -0.2551,-0.0568 m 0,0 h -0.2835 m 0,0 -0.3118,0.0568 m 0,0 -0.3118,0.17 m 0,0 -0.2551,0.1985 m 0,0 -0.1417,0.2268 m 0,0 -0.0851,0.2551 m 0,0 v 0.2268 m 0,0 0.0567,0.2551 m 0,0 0.1417,0.2551 m 0,0 0.1984,0.2268 m 0,0 0.2268,0.2551 m 0,0 0.1985,0.1984 m 0,0 0.085,0.2268 m 0,0 v 0.1983 m 0,0 -0.0567,0.1702 m 0,0 -0.1134,0.1417 m 0,0 -0.1701,0.1134 m 0,0 -0.2267,0.0566 m 0,0 h -0.2268 m 0,0 -0.1417,-0.0283 m 0,0 -0.1418,-0.0567 m 0,0 -0.085,-0.085 m 0,0 -0.0851,-0.0851 m 0,0 -0.0566,-0.085 m 0,0 -0.0284,-0.085 m 0,0 v -0.1134 m 0,0 0.0284,-0.085 m 0,0 0.0566,-0.0567 m 0,0 0.0567,-0.0567 m 0,0 0.0567,-0.0567 m 0,0 0.0851,-0.0284 m 0,0 0.0566,-0.0283 m 0,0 0.0568,-0.0283 m 0,0 0.0283,-0.0284 m 0,0 -0.0567,-0.0284 m 0,0 -0.0567,-0.0283 m 0,0 h -0.3402 m 0,0 -0.17,0.0283 m 0,0 -0.1417,0.0284 m 0,0 -0.1418,0.0567 m 0,0 -0.1134,0.085 m 0,0 -0.1417,0.1134 m 0,0 -0.085,0.1418 m 0,0 -0.085,0.1416 m 0,0 -0.0568,0.1985 m 0,0 -0.0283,0.2268 m 0,0 v 3.9117 m 0,0 v -0.0283 m 0,0 0.0567,-0.0567 m 0,0 0.085,-0.085 m 0,0 0.0851,-0.1417 m 0,0 0.1417,-0.1418 m 0,0 0.1417,-0.1701 m 0,0 0.1701,-0.17 m 0,0 0.17,-0.1701 m 0,0 0.1702,-0.1984 m 0,0 0.17,-0.1984 m 0,0 0.1417,-0.1418 m 0,0 0.1418,-0.1417 m 0,0 0.1417,-0.085 m 0,0 0.1418,-0.0851 m 0,0 0.17,-0.0283 m 0,0 h 0.5386 m 0,0 0.3402,-0.0567 m 0,0 0.3118,-0.0851 m 0,0 0.2835,-0.1133 m 0,0 0.2835,-0.1702 m 0,0 0.2267,-0.1983 m 0,0 0.2268,-0.2268 m 0,0 0.1984,-0.2551 m 0,0 0.2835,-0.5103 m 0,0 0.1417,-0.5386 m 0,0 0.0283,-0.4818 m 0,0 -0.085,-0.4536 m 0,0 -0.1418,-0.4252 m 0,0 -0.1984,-0.3118 m 0,0 -0.2267,-0.2551 m 0,0 -0.2268,-0.1417 m 0,0 v 0.0283 m -3.9118,5.9527 h 0.0567 m -0.0567,-0.0567 h 0.1134 m -0.1134,-0.0566 h 0.1587 m -0.1587,-0.0568 h 0.1928 m -0.1928,-0.0566 h 0.2268 m -0.2268,-0.0568 h 0.2834 m -0.2834,-0.0566 h 0.3402 M 32.9471,22.286 h 0.3921 m -0.3921,-0.0567 h 0.4394 m -0.4394,-0.0567 h 0.4866 m -0.4866,-0.0567 h 0.5386 m -0.5386,-0.0567 h 0.5953 m -0.5953,-0.0566 h 0.652 m -0.652,-0.0568 h 0.7087 m -0.7087,-0.0566 h 0.7653 m -0.7653,-0.0568 h 0.8221 m -0.8221,-0.0566 h 0.8747 m -0.8747,-0.0567 h 0.9233 m -0.9233,-0.0567 h 0.9719 m -0.9719,-0.0567 h 1.0205 M 32.9471,21.549 h 1.069 m -1.069,-0.0567 h 1.1176 m -1.1176,-0.0567 h 1.1662 m -1.1662,-0.0567 h 1.2189 m -1.2189,-0.0567 h 1.2756 m -1.2756,-0.0567 h 1.3322 m -1.3322,-0.0567 h 1.389 m -1.389,-0.0566 h 1.4456 m -1.4456,-0.0568 h 1.5212 m -1.5212,-0.0566 h 1.6157 M 32.9471,20.982 h 1.7102 m -1.7102,-0.0566 h 2.4661 m -2.4661,-0.0567 h 2.8063 M 32.9471,20.812 h 3.0142 m -3.0142,-0.0567 h 3.189 m -3.189,-0.0567 h 3.3307 m -3.3307,-0.0567 h 3.4488 m -3.4488,-0.0567 h 3.5433 m -3.5433,-0.0567 h 3.6378 m -3.6378,-0.0567 h 3.7174 m -3.7174,-0.0567 h 3.7822 m -3.7822,-0.0567 h 3.847 m -3.847,-0.0566 h 3.9118 M 32.9471,20.245 h 3.9685 m -3.9685,-0.0566 h 4.0252 M 32.9471,20.1316 H 37.029 M 32.9471,20.075 h 4.1386 m -4.1386,-0.0568 h 4.1827 m -4.1827,-0.0566 h 4.2268 m -4.2268,-0.0567 h 4.2709 m -4.2709,-0.0567 h 4.3149 m -4.3149,-0.0567 h 4.3527 m -4.3527,-0.0567 h 4.3843 m -4.3843,-0.0567 h 4.4157 m -4.4157,-0.0567 h 4.4473 m -4.4473,-0.0567 h 4.4787 M 32.9471,19.508 h 4.5103 m -4.5103,-0.0567 h 4.5417 m -4.5417,-0.0567 h 4.5732 M 32.9471,19.338 h 4.6047 m -4.6047,-0.0568 h 4.6279 m -4.6279,-0.0566 h 4.6428 m -4.6428,-0.0568 h 4.6578 m -4.6578,-0.0566 h 4.6727 m -4.6727,-0.0567 h 4.6876 m -4.6876,-0.0567 h 4.7025 m -4.7025,-0.0567 h 4.7174 m -4.7174,-0.0567 h 4.7324 m -4.7288,-0.0567 h 4.7437 M 32.9577,18.771 h 1.3784 m 0.4819,0 h 2.8913 m -4.7445,-0.0567 h 1.2295 m 0.7796,0 h 2.7387 m -4.7407,-0.0567 h 1.1657 m 0.9213,0 h 2.6571 m -4.7324,-0.0567 h 1.0973 m 1.0432,0 h 2.5952 m -4.7195,-0.0567 h 1.0244 m 1.1453,0 h 2.5531 M 33.016,18.4876 h 0.9704 m 1.2284,0 h 2.5112 m -4.6938,-0.0568 h 0.926 m 1.2755,0 h 2.4956 m -4.6632,-0.0566 h 0.8731 m 1.3134,0 h 2.48 m -4.6325,-0.0568 h 0.8391 m 1.3323,0 h 2.4645 m -4.6018,-0.0566 h 0.805 m 1.3323,0 h 2.4608 m -4.5641,-0.0567 h 0.7899 m 1.3134,0 h 2.4502 m -4.5195,-0.0567 h 0.7937 m 1.2756,0 h 2.4396 m -4.438,-0.0567 h 0.7795 m 1.2082,0 h 2.4396 M 33.3439,18.034 h 0.7654 m 1.1303,0 h 2.4502 m -4.2703,-0.0567 h 0.8032 m 0.9957,0 h 2.4608 m -4.151,-0.0566 h 0.8079 m 0.861,0 h 2.4714 m -3.9277,-0.0568 h 0.5669 m 0.8504,0 h 2.4998 m -2.5565,-0.0566 h 2.5418 m -2.5985,-0.0568 h 2.5795 M 34.988,17.6939 h 2.6174 m -2.6678,-0.0567 h 2.6488 m -2.6992,-0.0567 h 2.6804 m -2.7308,-0.0567 h 2.7118 m -2.7622,-0.0567 h 2.7434 m -2.7933,-0.0567 h 2.7743 m -2.8239,-0.0567 h 2.7879 M 34.6373,17.297 h 2.8014 m -2.8511,-0.0567 h 2.815 m -2.8555,-0.0567 h 1.8866 m 0.2835,0 h 0.6494 m -2.851,-0.0567 h 1.748 m 0.5103,0 h 0.5566 m -2.8464,-0.0566 h 1.6803 m 0.652,0 h 0.4708 m -2.8346,-0.0568 h 1.6315 m 0.7559,0 h 0.3969 m -2.8158,-0.0566 h 1.5874 m 0.8504,0 h 0.3276 m -2.778,-0.0568 h 1.5433 m 0.9071,0 h 0.2772 m -2.7402,-0.0566 h 1.4992 m 0.9638,0 h 0.2268 m -2.7024,-0.0567 h 1.4551 m 1.0205,0 h 0.1361 m -2.6243,-0.0567 h 1.4299 m 1.0583,0 h 0.0453 m -2.5398,-0.0567 h 1.3984 M 34.3644,16.6167 H 35.725 M 34.3644,16.56 h 1.3464 m -1.3464,-0.0567 h 1.3323 m -1.3228,-0.0567 h 1.3228 m -1.304,-0.0567 h 1.304 m -1.285,-0.0567 h 1.285 m -1.2662,-0.0567 h 1.2851 m -1.2661,-0.0566 h 1.2897 m -1.2543,-0.0568 h 1.2874 m -1.252,-0.0566 h 1.2898 m -1.2543,-0.0568 h 1.3299 m -1.2945,-0.0566 h 1.3889 M 34.664,15.9364 h 1.5146 m 0.3402,0 h 0.0283 M 34.737,15.8797 h 1.744 M 34.8098,15.823 h 1.5956 m -1.5071,-0.0567 h 1.3937 m -1.2898,-0.0567 h 1.1764 m -1.0725,-0.0567 h 0.9591 M 35.314,15.5962 h 0.5669"  id="path212" gorn="0.3.0.1.24.1.1.1" style="fill:none;stroke:#ffffff;stroke-width:0.0566929;stroke-linecap:round"/>
                        </g>
                    </g>
                </g>
                <g  id="g236" gorn="0.3.0.1.25">
                    <title  id="title220">element:U1</title>
                    <g  id="g234" gorn="0.3.0.1.25.1">
                        <title  id="title222">package:VL6180</title>
                        <line  id="line224" gorn="0.3.0.1.25.1.1" y1="15.4715" y2="15.4715" x1="18.3969" x2="32.003101" style="stroke:#ffffff;stroke-width:0.57599998;stroke-linecap:round"/>
                        <line  id="line226" gorn="0.3.0.1.25.1.2" y1="15.4715" y2="23.408501" x1="32.003101" x2="32.003101" style="stroke:#ffffff;stroke-width:0.57599998;stroke-linecap:round"/>
                        <line  id="line228" gorn="0.3.0.1.25.1.3" y1="23.408501" y2="23.408501" x1="32.003101" x2="18.3969" style="stroke:#ffffff;stroke-width:0.57599998;stroke-linecap:round"/>
                        <line  id="line230" gorn="0.3.0.1.25.1.4" y1="23.408501" y2="15.4715" x1="18.3969" x2="18.3969" style="stroke:#ffffff;stroke-width:0.57599998;stroke-linecap:round"/>
                        <circle r="0.36000001"  id="circle232" gorn="0.3.0.1.25.1.5" cx="19.799999" cy="20.52" style="fill:none;stroke:#ffffff;stroke-width:0.57599998"/>
                    </g>
                </g>
            </g>
            <circle r="2.052" connectorname="GND"  id="connector6pin" gorn="0.3.0.2" cx="43.200001" cy="39.599998" style="fill:none;stroke:#9a916c;stroke-width:1.22399998"/>
            <circle r="2.052" connectorname="2.8V"  id="connector7pin" gorn="0.3.0.3" cx="36" cy="39.599998" style="fill:none;stroke:#9a916c;stroke-width:1.22399998"/>
            <circle r="2.052" connectorname="SDA"  id="connector8pin" gorn="0.3.0.4" cx="28.799999" cy="39.599998" style="fill:none;stroke:#9a916c;stroke-width:1.22399998"/>
            <circle r="2.052" connectorname="SCL"  id="connector9pin" gorn="0.3.0.5" cx="21.6" cy="39.599998" style="fill:none;stroke:#9a916c;stroke-width:1.22399998"/>
            <circle r="2.052" connectorname="GPIO0"  id="connector10pin" gorn="0.3.0.6" cx="14.4" cy="39.599998" style="fill:none;stroke:#9a916c;stroke-width:1.22399998"/>
            <circle r="2.052" connectorname="GPIO1"  id="connector11pin" gorn="0.3.0.7" cx="7.1999998" cy="39.599998" style="fill:none;stroke:#9a916c;stroke-width:1.22399998"/>
        </g>
        <g transform="translate(10.923,26.663)" >
            <g  id="0603-res" gorn="0.3.1.0">
                <g transform="rotate(90,3.969,1.417)" >
                    <g  id="g350" gorn="0.3.1.0.0.0">
                        <g  id="g348" gorn="0.3.1.0.0.0.0">
                            <g  id="g330" gorn="0.3.1.0.0.0.0.0">
                                <rect width="7.9660101" height="2.8340001"  id="rect324" x="-0.018999999" y="0" gorn="0.3.1.0.0.0.0.0.0" style="fill:#333333"/>
                                <rect enable-background="new    " width="7.9660101" height="0.046"  id="rect326" x="-0.018999999" y="0" gorn="0.3.1.0.0.0.0.0.1" style="opacity:0.2;fill:#ffffff"/>
                                <rect enable-background="new    " width="7.9660101" height="0.032000002"  id="rect328" x="-0.018999999" y="2.802" gorn="0.3.1.0.0.0.0.0.2" style="opacity:0.2"/>
                            </g>
                            <g  id="g346" gorn="0.3.1.0.0.0.0.1">
                                <path d="M 6.79,0 V 0 0 H 6.697 v 0 c -0.08,0.251 -0.135,0.796003 -0.135,1.075 0,0.291 0.048,1.41 0.135,1.673 v 0 0 H 7.92 V 0 Z"  id="path332" gorn="0.3.1.0.0.0.0.1.0" style="fill:#dcdcdc"/>
                                <path d="M 1.226,0.104 V 0 H 0.004 V 2.748 H 1.227 C 1.315,2.485 1.42,1.371 1.42,1.076 1.42,0.730001 1.345,0.405 1.226,0.104 Z"  id="path334" gorn="0.3.1.0.0.0.0.1.1" style="fill:#dcdcdc"/>
                                <path d="M 7.92698,2.854 H 6.704 L 6.697,2.748 H 7.92 Z"  id="path336" gorn="0.3.1.0.0.0.0.1.2" style="fill:#999999"/>
                                <path d="M 0.01,2.855 H 1.233 L 1.226,2.748 H 0.004 Z"  id="path338" gorn="0.3.1.0.0.0.0.1.3" style="fill:#999999"/>
                                <rect enable-background="new    " width="1.223" height="0.046"  id="rect340" x="0.0040000002" y="0" gorn="0.3.1.0.0.0.0.1.4" style="opacity:0.5;fill:#ffffff"/>
                                <rect enable-background="new    " width="1.224" height="0.046"  id="rect342" x="6.698" y="0" gorn="0.3.1.0.0.0.0.1.5" style="opacity:0.5;fill:#ffffff"/>
                                <line  id="line344" gorn="0.3.1.0.0.0.0.1.6" y1="2.8340001" y2="2.8340001" x1="0.74299699" x2="0.74299699" style="fill:none"/>
                            </g>
                        </g>
                    </g>
                </g>
            </g>
        </g>
        <g transform="translate(29.151,30.035)" >
            <g  id="g379" gorn="0.3.2.0">
                <g  id="g377" gorn="0.3.2.0.0">
                    <g  id="g359" gorn="0.3.2.0.0.0">
                        <rect width="7.9660101" height="2.8340001"  id="rect353" x="-0.018999999" y="0" gorn="0.3.2.0.0.0.0" style="fill:#333333"/>
                        <rect enable-background="new    " width="7.9660101" height="0.046"  id="rect355" x="-0.018999999" y="0" gorn="0.3.2.0.0.0.1" style="opacity:0.2;fill:#ffffff"/>
                        <rect enable-background="new    " width="7.9660101" height="0.032000002"  id="rect357" x="-0.018999999" y="2.802" gorn="0.3.2.0.0.0.2" style="opacity:0.2"/>
                    </g>
                    <g  id="g375" gorn="0.3.2.0.0.1">
                        <path d="M 6.79,0 V 0 0 H 6.697 v 0 c -0.08,0.251 -0.135,0.796003 -0.135,1.075 0,0.291 0.048,1.41 0.135,1.673 v 0 0 H 7.92 V 0 Z"  id="path361" gorn="0.3.2.0.0.1.0" style="fill:#dcdcdc"/>
                        <path d="M 1.226,0.104 V 0 H 0.004 V 2.748 H 1.227 C 1.315,2.485 1.42,1.371 1.42,1.076 1.42,0.730001 1.345,0.405 1.226,0.104 Z"  id="path363" gorn="0.3.2.0.0.1.1" style="fill:#dcdcdc"/>
                        <path d="M 7.92698,2.854 H 6.704 L 6.697,2.748 H 7.92 Z"  id="path365" gorn="0.3.2.0.0.1.2" style="fill:#999999"/>
                        <path d="M 0.01,2.855 H 1.233 L 1.226,2.748 H 0.004 Z"  id="path367" gorn="0.3.2.0.0.1.3" style="fill:#999999"/>
                        <rect enable-background="new    " width="1.223" height="0.046"  id="rect369" x="0.0040000002" y="0" gorn="0.3.2.0.0.1.4" style="opacity:0.5;fill:#ffffff"/>
                        <rect enable-background="new    " width="1.224" height="0.046"  id="rect371" x="6.698" y="0" gorn="0.3.2.0.0.1.5" style="opacity:0.5;fill:#ffffff"/>
                        <line  id="line373" gorn="0.3.2.0.0.1.6" y1="2.8340001" y2="2.8340001" x1="0.74299699" x2="0.74299699" style="fill:none"/>
                    </g>
                </g>
            </g>
        </g>
        <g transform="translate(29.151,25.715)" >
            <g  id="g407" gorn="0.3.3.0">
                <g  id="g405" gorn="0.3.3.0.0">
                    <g  id="g387" gorn="0.3.3.0.0.0">
                        <rect width="7.9660101" height="2.8340001"  id="rect381" x="-0.018999999" y="0" gorn="0.3.3.0.0.0.0" style="fill:#333333"/>
                        <rect enable-background="new    " width="7.9660101" height="0.046"  id="rect383" x="-0.018999999" y="0" gorn="0.3.3.0.0.0.1" style="opacity:0.2;fill:#ffffff"/>
                        <rect enable-background="new    " width="7.9660101" height="0.032000002"  id="rect385" x="-0.018999999" y="2.802" gorn="0.3.3.0.0.0.2" style="opacity:0.2"/>
                        <rect width="13.606201" height="7.9370003"  id="rect381-8" x="-10.7541" y="-10.2435" gorn="0.3.3.0.0.0.3" style="fill:#333333;stroke-width:2.18713832"/>
                    </g>
                    <g  id="g403" gorn="0.3.3.0.0.1">
                        <path d="M 6.79,0 V 0 0 H 6.697 v 0 c -0.08,0.251 -0.135,0.796003 -0.135,1.075 0,0.291 0.048,1.41 0.135,1.673 v 0 0 H 7.92 V 0 Z"  id="path389" gorn="0.3.3.0.0.1.0" style="fill:#dcdcdc"/>
                        <path d="M 1.226,0.104 V 0 H 0.004 V 2.748 H 1.227 C 1.315,2.485 1.42,1.371 1.42,1.076 1.42,0.730001 1.345,0.405 1.226,0.104 Z"  id="path391" gorn="0.3.3.0.0.1.1" style="fill:#dcdcdc"/>
                        <path d="M 7.92698,2.854 H 6.704 L 6.697,2.748 H 7.92 Z"  id="path393" gorn="0.3.3.0.0.1.2" style="fill:#999999"/>
                        <path d="M 0.01,2.855 H 1.233 L 1.226,2.748 H 0.004 Z"  id="path395" gorn="0.3.3.0.0.1.3" style="fill:#999999"/>
                        <rect enable-background="new    " width="1.223" height="0.046"  id="rect397" x="0.0040000002" y="0" gorn="0.3.3.0.0.1.4" style="opacity:0.5;fill:#ffffff"/>
                        <rect enable-background="new    " width="1.224" height="0.046"  id="rect399" x="6.698" y="0" gorn="0.3.3.0.0.1.5" style="opacity:0.5;fill:#ffffff"/>
                        <line  id="line401" gorn="0.3.3.0.0.1.6" y1="2.8340001" y2="2.8340001" x1="0.74299699" x2="0.74299699" style="fill:none"/>
                    </g>
                </g>
            </g>
        </g>
        <g transform="translate(3.723,26.663)" >
            <g  id="g437" gorn="0.3.4.0">
                <g transform="rotate(90,3.969,1.417)" >
                    <g  id="g435" gorn="0.3.4.0.0.0">
                        <g  id="g433" gorn="0.3.4.0.0.0.0">
                            <g  id="g415" gorn="0.3.4.0.0.0.0.0">
                                <rect width="7.9660101" height="2.8340001"  id="rect409" x="-0.018999999" y="0" gorn="0.3.4.0.0.0.0.0.0" style="fill:#333333"/>
                                <rect enable-background="new    " width="7.9660101" height="0.046"  id="rect411" x="-0.018999999" y="0" gorn="0.3.4.0.0.0.0.0.1" style="opacity:0.2;fill:#ffffff"/>
                                <rect enable-background="new    " width="7.9660101" height="0.032000002"  id="rect413" x="-0.018999999" y="2.802" gorn="0.3.4.0.0.0.0.0.2" style="opacity:0.2"/>
                            </g>
                            <g  id="g431" gorn="0.3.4.0.0.0.0.1">
                                <path d="M 6.79,0 V 0 0 H 6.697 v 0 c -0.08,0.251 -0.135,0.796003 -0.135,1.075 0,0.291 0.048,1.41 0.135,1.673 v 0 0 H 7.92 V 0 Z"  id="path417" gorn="0.3.4.0.0.0.0.1.0" style="fill:#dcdcdc"/>
                                <path d="M 1.226,0.104 V 0 H 0.004 V 2.748 H 1.227 C 1.315,2.485 1.42,1.371 1.42,1.076 1.42,0.730001 1.345,0.405 1.226,0.104 Z"  id="path419" gorn="0.3.4.0.0.0.0.1.1" style="fill:#dcdcdc"/>
                                <path d="M 7.92698,2.854 H 6.704 L 6.697,2.748 H 7.92 Z"  id="path421" gorn="0.3.4.0.0.0.0.1.2" style="fill:#999999"/>
                                <path d="M 0.01,2.855 H 1.233 L 1.226,2.748 H 0.004 Z"  id="path423" gorn="0.3.4.0.0.0.0.1.3" style="fill:#999999"/>
                                <rect enable-background="new    " width="1.223" height="0.046"  id="rect425" x="0.0040000002" y="0" gorn="0.3.4.0.0.0.0.1.4" style="opacity:0.5;fill:#ffffff"/>
                                <rect enable-background="new    " width="1.224" height="0.046"  id="rect427" x="6.698" y="0" gorn="0.3.4.0.0.0.0.1.5" style="opacity:0.5;fill:#ffffff"/>
                                <line  id="line429" gorn="0.3.4.0.0.0.0.1.6" y1="2.8340001" y2="2.8340001" x1="0.74299699" x2="0.74299699" style="fill:none"/>
                            </g>
                        </g>
                    </g>
                </g>
            </g>
        </g>
        <g transform="matrix(1.1539265,0,0,0.98880683,29.690253,91.73057)" >
            <g  id="g2233-9-1-41-6-6-63" gorn="0.3.5.0">
                <g  id="_x30_402-res_12_-3-7-24-6-1-3" gorn="0.3.5.0.0">
                    <g transform="rotate(90,2.835,1.2755)" >
                        <g  id="g2230-2-7-3-3-2-9" gorn="0.3.5.0.0.0.0">
                            <g  id="g2228-7-3-7-6-9-28" gorn="0.3.5.0.0.0.0.0">
                                <g  id="g2226-9-5-1-8-5-9" gorn="0.3.5.0.0.0.0.0.0">
                                    <g  id="g2200-1-0-2-0-3-0" gorn="0.3.5.0.0.0.0.0.0.0" style="fill:#a05a2c">
                                        <g transform="rotate(-90.000146,-79.442066,13.100432)" >
                                            <g  id="g2194-2-6-99-0-7-5" gorn="0.3.5.0.0.0.0.0.0.0.0.0" style="fill:#a05a2c">
                                                <g transform="rotate(-89.999982,-79.44906,13.101065)" >
                                                    <rect width="2.6010001" height="5.6999998"  id="rect2192-5-7-2-0-8-4-6" x="-80.749001" y="10.251" gorn="0.3.5.0.0.0.0.0.0.0.0.0.0.0" style="fill:#a05a2c"/>
                                                </g>
                                            </g>
                                        </g>
                                        <g transform="rotate(-90.000146,-80.709714,13.100481)" >
                                            <g  id="g2198-0-2-5-7-2-6" gorn="0.3.5.0.0.0.0.0.0.0.1.0" style="fill:#a05a2c">
                                                <polygon enable-background="new    " points="-77.799,13.102 -83.499,13.102 "  id="rect2196-3-6-9-5-6-8-2" gorn="0.3.5.0.0.0.0.0.0.0.1.0.0" style="opacity:0.2;fill:#a05a2c"/>
                                            </g>
                                        </g>
                                    </g>
                                    <g  id="g2224-8-40-4-9-3-8" gorn="0.3.5.0.0.0.0.0.0.1">
                                        <path d="m -78.199,15.099 v 0 0 0 0 c -0.2,-0.1 -0.8,-0.2 -1,-0.2 -0.2,0 -1.4,0 -1.6,0.1 v 0.9 h 2.6 z"  id="path2202-6-9-6-6-0-5" gorn="0.3.5.0.0.0.0.0.0.1.0" style="fill:#cccccc"/>
                                        <path d="m -78.199,11.199 v 0 l 0.1,-0.9 h -2.6 v 0.9 c 0.2,0.1 1.1,0.1 1.3,0.1 0.2,0 1,-0.1 1.2,-0.1 z"  id="path2204-2-8-06-4-2-5" gorn="0.3.5.0.0.0.0.0.0.1.1" style="fill:#cccccc"/>
                                        <g transform="rotate(-90.000146,-80.705461,10.708534)" >
                                            <g  id="g2208-8-37-6-4-2-2" gorn="0.3.5.0.0.0.0.0.0.1.2.0">
                                                <polygon enable-background="new    " points="-81.099,10.702 -80.199,10.702 "  id="rect2206-8-3-9-2-7-7-1" gorn="0.3.5.0.0.0.0.0.0.1.2.0.0" style="opacity:0.15"/>
                                            </g>
                                        </g>
                                        <g transform="rotate(-90.000146,-78.178264,10.708237)" >
                                            <g  id="g2212-8-2-1-5-3-75" gorn="0.3.5.0.0.0.0.0.0.1.3.0">
                                                <polygon enable-background="new    " points="-78.599,10.701 -77.699,10.701 "  id="rect2210-0-2-5-2-9-7-3" gorn="0.3.5.0.0.0.0.0.0.1.3.0.0" style="opacity:0.5;fill:#ffffff"/>
                                            </g>
                                        </g>
                                        <g transform="rotate(-90.000146,-80.704767,15.491727)" >
                                            <g  id="g2216-6-9-6-8-1-9" gorn="0.3.5.0.0.0.0.0.0.1.4.0">
                                                <polygon enable-background="new    " points="-81.099,15.502 -80.199,15.502 "  id="rect2214-2-8-0-6-2-6-9" gorn="0.3.5.0.0.0.0.0.0.1.4.0.0" style="opacity:0.15"/>
                                            </g>
                                        </g>
                                        <g transform="rotate(-90.000146,-78.17757,15.492331)" >
                                            <g  id="g2220-1-8-4-2-8-8" gorn="0.3.5.0.0.0.0.0.0.1.5.0">
                                                <polygon enable-background="new    " points="-78.599,15.501 -77.699,15.501 "  id="rect2218-6-4-7-1-4-1-1" gorn="0.3.5.0.0.0.0.0.0.1.5.0.0" style="opacity:0.5;fill:#ffffff"/>
                                            </g>
                                        </g>
                                        <line  id="line2222-1-6-95-3-8-7" gorn="0.3.5.0.0.0.0.0.0.1.6" y1="10.799" y2="10.799" x1="-80.698997" x2="-80.698997" style="fill:none"/>
                                    </g>
                                </g>
                            </g>
                        </g>
                    </g>
                </g>
            </g>
        </g>
        <g transform="matrix(1.1539265,0,0,0.98880683,40.764088,91.8166)" >
            <g  id="g2233-9-1-41-6-6-63-6" gorn="0.3.6.0">
                <g  id="_x30_402-res_12_-3-7-24-6-1-3-1" gorn="0.3.6.0.0">
                    <g transform="rotate(90,2.835,1.2755)" >
                        <g  id="g2230-2-7-3-3-2-9-1" gorn="0.3.6.0.0.0.0">
                            <g  id="g2228-7-3-7-6-9-28-5" gorn="0.3.6.0.0.0.0.0">
                                <g  id="g2226-9-5-1-8-5-9-6" gorn="0.3.6.0.0.0.0.0.0">
                                    <g  id="g2200-1-0-2-0-3-0-8" gorn="0.3.6.0.0.0.0.0.0.0" style="fill:#a05a2c">
                                        <g transform="rotate(-90.000146,-79.442066,13.100432)" >
                                            <g  id="g2194-2-6-99-0-7-5-0" gorn="0.3.6.0.0.0.0.0.0.0.0.0" style="fill:#a05a2c">
                                                <g transform="rotate(-89.999982,-79.44906,13.101065)" >
                                                    <rect width="2.6010001" height="5.6999998"  id="rect2192-5-7-2-0-8-4-6-9" x="-80.749001" y="10.251" gorn="0.3.6.0.0.0.0.0.0.0.0.0.0.0" style="fill:#a05a2c"/>
                                                </g>
                                            </g>
                                        </g>
                                        <g transform="rotate(-90.000146,-80.709714,13.100481)" >
                                            <g  id="g2198-0-2-5-7-2-6-5" gorn="0.3.6.0.0.0.0.0.0.0.1.0" style="fill:#a05a2c">
                                                <polygon enable-background="new    " points="-77.799,13.102 -83.499,13.102 "  id="rect2196-3-6-9-5-6-8-2-6" gorn="0.3.6.0.0.0.0.0.0.0.1.0.0" style="opacity:0.2;fill:#a05a2c"/>
                                            </g>
                                        </g>
                                    </g>
                                    <g  id="g2224-8-40-4-9-3-8-3" gorn="0.3.6.0.0.0.0.0.0.1">
                                        <path d="m -78.199,15.099 v 0 0 0 0 c -0.2,-0.1 -0.8,-0.2 -1,-0.2 -0.2,0 -1.4,0 -1.6,0.1 v 0.9 h 2.6 z"  id="path2202-6-9-6-6-0-5-5" gorn="0.3.6.0.0.0.0.0.0.1.0" style="fill:#cccccc"/>
                                        <path d="m -78.199,11.199 v 0 l 0.1,-0.9 h -2.6 v 0.9 c 0.2,0.1 1.1,0.1 1.3,0.1 0.2,0 1,-0.1 1.2,-0.1 z"  id="path2204-2-8-06-4-2-5-9" gorn="0.3.6.0.0.0.0.0.0.1.1" style="fill:#cccccc"/>
                                        <g transform="rotate(-90.000146,-80.705461,10.708534)" >
                                            <g  id="g2208-8-37-6-4-2-2-8" gorn="0.3.6.0.0.0.0.0.0.1.2.0">
                                                <polygon enable-background="new    " points="-81.099,10.702 -80.199,10.702 "  id="rect2206-8-3-9-2-7-7-1-5" gorn="0.3.6.0.0.0.0.0.0.1.2.0.0" style="opacity:0.15"/>
                                            </g>
                                        </g>
                                        <g transform="rotate(-90.000146,-78.178264,10.708237)" >
                                            <g  id="g2212-8-2-1-5-3-75-8" gorn="0.3.6.0.0.0.0.0.0.1.3.0">
                                                <polygon enable-background="new    " points="-78.599,10.701 -77.699,10.701 "  id="rect2210-0-2-5-2-9-7-3-2" gorn="0.3.6.0.0.0.0.0.0.1.3.0.0" style="opacity:0.5;fill:#ffffff"/>
                                            </g>
                                        </g>
                                        <g transform="rotate(-90.000146,-80.704767,15.491727)" >
                                            <g  id="g2216-6-9-6-8-1-9-8" gorn="0.3.6.0.0.0.0.0.0.1.4.0">
                                                <polygon enable-background="new    " points="-81.099,15.502 -80.199,15.502 "  id="rect2214-2-8-0-6-2-6-9-2" gorn="0.3.6.0.0.0.0.0.0.1.4.0.0" style="opacity:0.15"/>
                                            </g>
                                        </g>
                                        <g transform="rotate(-90.000146,-78.17757,15.492331)" >
                                            <g  id="g2220-1-8-4-2-8-8-9" gorn="0.3.6.0.0.0.0.0.0.1.5.0">
                                                <polygon enable-background="new    " points="-78.599,15.501 -77.699,15.501 "  id="rect2218-6-4-7-1-4-1-1-3" gorn="0.3.6.0.0.0.0.0.0.1.5.0.0" style="opacity:0.5;fill:#ffffff"/>
                                            </g>
                                        </g>
                                        <line  id="line2222-1-6-95-3-8-7-5" gorn="0.3.6.0.0.0.0.0.0.1.6" y1="10.799" y2="10.799" x1="-80.698997" x2="-80.698997" style="fill:none"/>
                                    </g>
                                </g>
                            </g>
                        </g>
                    </g>
                </g>
            </g>
        </g>
        <g transform="matrix(-1,4.3020852e-6,-1.5931558e-6,-1,0,0)" >
            <rect width="2.2732499" height="4.6291075"  id="rect23475" x="-41.829849" y="-30.27545" gorn="0.3.7.0" style="fill:#7f7f7f;stroke-width:0.96142733"/>
        </g>
        <g  id="g25330" gorn="0.3.8">
            <g transform="rotate(179.99986)" >
                <rect width="3.6060543" height="1.6427306"  id="rect23473" x="-42.472206" y="-31.037546" gorn="0.3.8.0.0" style="fill:#8c8c8c;stroke-width:0.95558792"/>
            </g>
            <g transform="rotate(179.99986)" >
                <rect width="3.6060541" height="1.6427306"  id="rect23473-6" x="-42.472206" y="-28.909414" gorn="0.3.8.1.0" style="fill:#8c8c8c;stroke-width:0.95558792"/>
            </g>
            <g transform="rotate(179.99986)" >
                <rect width="3.6060541" height="1.6427306"  id="rect23473-6-0" x="-42.472206" y="-26.781282" gorn="0.3.8.2.0" style="fill:#8c8c8c;stroke-width:0.95558792"/>
            </g>
        </g>
    </g>
</svg>
