<?xml version='1.0' encoding='UTF-8' standalone='no'?>
<!-- Created with Fritzing (http://www.fritzing.org/) -->
<svg xmlns="http://www.w3.org/2000/svg" viewBox="0 0 39.890907 72.581819" y="0in" id="svg432"  width="0.55404037in" x="0in" version="1.2" height="1.0080808in" gorn="0">
    <desc >
        <referenceFile >SparkFun_MAX3232_Breakout_0_breadboard.svg</referenceFile>
    </desc>
    <metadata id="metadata438" >
        <rdf:RDF xmlns:rdf="http://www.w3.org/1999/02/22-rdf-syntax-ns#">
            <cc:Work rdf:about="" xmlns:cc="http://creativecommons.org/ns#" xmlns:rdf="http://www.w3.org/1999/02/22-rdf-syntax-ns#">
                <dc:format xmlns:dc="http://purl.org/dc/elements/1.1/">image/svg+xml</dc:format>
                <dc:type xmlns:dc="http://purl.org/dc/elements/1.1/" xmlns:rdf="http://www.w3.org/1999/02/22-rdf-syntax-ns#" rdf:resource="http://purl.org/dc/dcmitype/StillImage"/>
                <dc:title xmlns:dc="http://purl.org/dc/elements/1.1/"/>
            </cc:Work>
        </rdf:RDF>
    </metadata>
    <defs id="defs436" />
    <desc id="desc2" >Fritzing breadboard generated by brd2svg</desc>
    <g  transform="rotate(-90,36.145454,36.145454)">
        <g >
            <g id="breadboard"  gorn="0.4.0.0">
                <g id="icon"  gorn="0.4.0.0.0">
                    <path id="path4"  fill="#e6321e" d="M 0,39.6 V 0 H 72 V 39.6 H 0 M 66.96,36 a 1.44,1.44 0 1 0 2.88,0 1.44,1.44 0 1 0 -2.88,0 z m -7.2,0 a 1.44,1.44 0 1 0 2.88,0 1.44,1.44 0 1 0 -2.88,0 z m -7.2,0 a 1.44,1.44 0 1 0 2.88,0 1.44,1.44 0 1 0 -2.88,0 z m -7.2,0 a 1.44,1.44 0 1 0 2.88,0 1.44,1.44 0 1 0 -2.88,0 z m -7.2,0 a 1.44,1.44 0 1 0 2.88,0 1.44,1.44 0 1 0 -2.88,0 z m -7.2,0 a 1.44,1.44 0 1 0 2.88,0 1.44,1.44 0 1 0 -2.88,0 z m -7.2,0 a 1.44,1.44 0 1 0 2.88,0 1.44,1.44 0 1 0 -2.88,0 z m -7.2,0 a 1.44,1.44 0 1 0 2.88,0 1.44,1.44 0 1 0 -2.88,0 z m -7.2,0 a 1.44,1.44 0 1 0 2.88,0 1.44,1.44 0 1 0 -2.88,0 z m -7.2,0 a 1.44,1.44 0 1 0 2.88,0 1.44,1.44 0 1 0 -2.88,0 z" stroke="none" stroke-width="0" gorn="0.4.0.0.0.0"/>
                    <g id="g272"  gorn="0.4.0.0.0.1">
                        <title id="title6" >layer 21</title>
                        <g id="g16"  gorn="0.4.0.0.0.1.1">
                            <title id="title8" >text:MAX3232</title>
                            <g  transform="translate(2.16,1.8)">
                                <g >
                                    <g id="g14"  gorn="0.4.0.0.0.1.1.1.0.0">
                                        <g  transform="rotate(90)">
                                            <g >
                                                <g id="g12"  gorn="0.4.0.0.0.1.1.1.0.0.0.0.0">
                                                    <text y="0" id="text10" style="font-family:OCRA;text-anchor:start;"  fill="#ffffff" x="0" font-size="4.40986" stroke="none" stroke-width="0" gorn="0.4.0.0.0.1.1.1.0.0.0.0.0.0">MAX3232</text>
                                                </g>
                                            </g>
                                        </g>
                                    </g>
                                </g>
                            </g>
                        </g>
                        <g id="g74"  gorn="0.4.0.0.0.1.2">
                            <title id="title68" >element:FID1</title>
                            <g id="g72"  gorn="0.4.0.0.0.1.2.1">
                                <title id="title70" >package:FIDUCIAL-1X2</title>
                            </g>
                        </g>
                        <g id="g82"  gorn="0.4.0.0.0.1.3">
                            <title id="title76" >element:FID2</title>
                            <g id="g80"  gorn="0.4.0.0.0.1.3.1">
                                <title id="title78" >package:FIDUCIAL-1X2</title>
                            </g>
                        </g>
                        <g id="g214"  gorn="0.4.0.0.0.1.4">
                            <title id="title84" >element:JP2</title>
                            <g id="g212"  gorn="0.4.0.0.0.1.4.1">
                                <title id="title86" >package:1X10</title>
                                <line x2="23.4" id="line88" style="stroke-linecap:round"  x1="27" y2="39.599998" y1="39.599998" stroke="#ffffff" stroke-width="0.57599998" gorn="0.4.0.0.0.1.4.1.1"/>
                                <line x2="21.6" id="line90" style="stroke-linecap:round"  x1="23.4" y2="37.799999" y1="39.599998" stroke="#ffffff" stroke-width="0.57599998" gorn="0.4.0.0.0.1.4.1.2"/>
                                <line x2="23.4" id="line92" style="stroke-linecap:round"  x1="21.6" y2="32.400002" y1="34.200001" stroke="#ffffff" stroke-width="0.57599998" gorn="0.4.0.0.0.1.4.1.3"/>
                                <line x2="34.200001" id="line94" style="stroke-linecap:round"  x1="36" y2="39.599998" y1="37.799999" stroke="#ffffff" stroke-width="0.57599998" gorn="0.4.0.0.0.1.4.1.4"/>
                                <line x2="30.6" id="line96" style="stroke-linecap:round"  x1="34.200001" y2="39.599998" y1="39.599998" stroke="#ffffff" stroke-width="0.57599998" gorn="0.4.0.0.0.1.4.1.5"/>
                                <line x2="28.799999" id="line98" style="stroke-linecap:round"  x1="30.6" y2="37.799999" y1="39.599998" stroke="#ffffff" stroke-width="0.57599998" gorn="0.4.0.0.0.1.4.1.6"/>
                                <line x2="30.6" id="line100" style="stroke-linecap:round"  x1="28.799999" y2="32.400002" y1="34.200001" stroke="#ffffff" stroke-width="0.57599998" gorn="0.4.0.0.0.1.4.1.7"/>
                                <line x2="34.200001" id="line102" style="stroke-linecap:round"  x1="30.6" y2="32.400002" y1="32.400002" stroke="#ffffff" stroke-width="0.57599998" gorn="0.4.0.0.0.1.4.1.8"/>
                                <line x2="36" id="line104" style="stroke-linecap:round"  x1="34.200001" y2="34.200001" y1="32.400002" stroke="#ffffff" stroke-width="0.57599998" gorn="0.4.0.0.0.1.4.1.9"/>
                                <line x2="28.799999" id="line106" style="stroke-linecap:round"  x1="27" y2="37.799999" y1="39.599998" stroke="#ffffff" stroke-width="0.57599998" gorn="0.4.0.0.0.1.4.1.10"/>
                                <line x2="27" id="line108" style="stroke-linecap:round"  x1="28.799999" y2="32.400002" y1="34.200001" stroke="#ffffff" stroke-width="0.57599998" gorn="0.4.0.0.0.1.4.1.11"/>
                                <line x2="27" id="line110" style="stroke-linecap:round"  x1="23.4" y2="32.400002" y1="32.400002" stroke="#ffffff" stroke-width="0.57599998" gorn="0.4.0.0.0.1.4.1.12"/>
                                <line x2="45" id="line112" style="stroke-linecap:round"  x1="48.599998" y2="39.599998" y1="39.599998" stroke="#ffffff" stroke-width="0.57599998" gorn="0.4.0.0.0.1.4.1.13"/>
                                <line x2="43.200001" id="line114" style="stroke-linecap:round"  x1="45" y2="37.799999" y1="39.599998" stroke="#ffffff" stroke-width="0.57599998" gorn="0.4.0.0.0.1.4.1.14"/>
                                <line x2="45" id="line116" style="stroke-linecap:round"  x1="43.200001" y2="32.400002" y1="34.200001" stroke="#ffffff" stroke-width="0.57599998" gorn="0.4.0.0.0.1.4.1.15"/>
                                <line x2="41.400002" id="line118" style="stroke-linecap:round"  x1="43.200001" y2="39.599998" y1="37.799999" stroke="#ffffff" stroke-width="0.57599998" gorn="0.4.0.0.0.1.4.1.16"/>
                                <line x2="37.799999" id="line120" style="stroke-linecap:round"  x1="41.400002" y2="39.599998" y1="39.599998" stroke="#ffffff" stroke-width="0.57599998" gorn="0.4.0.0.0.1.4.1.17"/>
                                <line x2="36" id="line122" style="stroke-linecap:round"  x1="37.799999" y2="37.799999" y1="39.599998" stroke="#ffffff" stroke-width="0.57599998" gorn="0.4.0.0.0.1.4.1.18"/>
                                <line x2="37.799999" id="line124" style="stroke-linecap:round"  x1="36" y2="32.400002" y1="34.200001" stroke="#ffffff" stroke-width="0.57599998" gorn="0.4.0.0.0.1.4.1.19"/>
                                <line x2="41.400002" id="line126" style="stroke-linecap:round"  x1="37.799999" y2="32.400002" y1="32.400002" stroke="#ffffff" stroke-width="0.57599998" gorn="0.4.0.0.0.1.4.1.20"/>
                                <line x2="43.200001" id="line128" style="stroke-linecap:round"  x1="41.400002" y2="34.200001" y1="32.400002" stroke="#ffffff" stroke-width="0.57599998" gorn="0.4.0.0.0.1.4.1.21"/>
                                <line x2="55.799999" id="line130" style="stroke-linecap:round"  x1="57.599998" y2="39.599998" y1="37.799999" stroke="#ffffff" stroke-width="0.57599998" gorn="0.4.0.0.0.1.4.1.22"/>
                                <line x2="52.200001" id="line132" style="stroke-linecap:round"  x1="55.799999" y2="39.599998" y1="39.599998" stroke="#ffffff" stroke-width="0.57599998" gorn="0.4.0.0.0.1.4.1.23"/>
                                <line x2="50.400002" id="line134" style="stroke-linecap:round"  x1="52.200001" y2="37.799999" y1="39.599998" stroke="#ffffff" stroke-width="0.57599998" gorn="0.4.0.0.0.1.4.1.24"/>
                                <line x2="52.200001" id="line136" style="stroke-linecap:round"  x1="50.400002" y2="32.400002" y1="34.200001" stroke="#ffffff" stroke-width="0.57599998" gorn="0.4.0.0.0.1.4.1.25"/>
                                <line x2="55.799999" id="line138" style="stroke-linecap:round"  x1="52.200001" y2="32.400002" y1="32.400002" stroke="#ffffff" stroke-width="0.57599998" gorn="0.4.0.0.0.1.4.1.26"/>
                                <line x2="57.599998" id="line140" style="stroke-linecap:round"  x1="55.799999" y2="34.200001" y1="32.400002" stroke="#ffffff" stroke-width="0.57599998" gorn="0.4.0.0.0.1.4.1.27"/>
                                <line x2="50.400002" id="line142" style="stroke-linecap:round"  x1="48.599998" y2="37.799999" y1="39.599998" stroke="#ffffff" stroke-width="0.57599998" gorn="0.4.0.0.0.1.4.1.28"/>
                                <line x2="48.599998" id="line144" style="stroke-linecap:round"  x1="50.400002" y2="32.400002" y1="34.200001" stroke="#ffffff" stroke-width="0.57599998" gorn="0.4.0.0.0.1.4.1.29"/>
                                <line x2="48.599998" id="line146" style="stroke-linecap:round"  x1="45" y2="32.400002" y1="32.400002" stroke="#ffffff" stroke-width="0.57599998" gorn="0.4.0.0.0.1.4.1.30"/>
                                <line x2="66.599998" id="line148" style="stroke-linecap:round"  x1="70.199997" y2="39.599998" y1="39.599998" stroke="#ffffff" stroke-width="0.57599998" gorn="0.4.0.0.0.1.4.1.31"/>
                                <line x2="64.800003" id="line150" style="stroke-linecap:round"  x1="66.599998" y2="37.799999" y1="39.599998" stroke="#ffffff" stroke-width="0.57599998" gorn="0.4.0.0.0.1.4.1.32"/>
                                <line x2="66.599998" id="line152" style="stroke-linecap:round"  x1="64.800003" y2="32.400002" y1="34.200001" stroke="#ffffff" stroke-width="0.57599998" gorn="0.4.0.0.0.1.4.1.33"/>
                                <line x2="63" id="line154" style="stroke-linecap:round"  x1="64.800003" y2="39.599998" y1="37.799999" stroke="#ffffff" stroke-width="0.57599998" gorn="0.4.0.0.0.1.4.1.34"/>
                                <line x2="59.400002" id="line156" style="stroke-linecap:round"  x1="63" y2="39.599998" y1="39.599998" stroke="#ffffff" stroke-width="0.57599998" gorn="0.4.0.0.0.1.4.1.35"/>
                                <line x2="57.599998" id="line158" style="stroke-linecap:round"  x1="59.400002" y2="37.799999" y1="39.599998" stroke="#ffffff" stroke-width="0.57599998" gorn="0.4.0.0.0.1.4.1.36"/>
                                <line x2="59.400002" id="line160" style="stroke-linecap:round"  x1="57.599998" y2="32.400002" y1="34.200001" stroke="#ffffff" stroke-width="0.57599998" gorn="0.4.0.0.0.1.4.1.37"/>
                                <line x2="63" id="line162" style="stroke-linecap:round"  x1="59.400002" y2="32.400002" y1="32.400002" stroke="#ffffff" stroke-width="0.57599998" gorn="0.4.0.0.0.1.4.1.38"/>
                                <line x2="64.800003" id="line164" style="stroke-linecap:round"  x1="63" y2="34.200001" y1="32.400002" stroke="#ffffff" stroke-width="0.57599998" gorn="0.4.0.0.0.1.4.1.39"/>
                                <line x2="72" id="line166" style="stroke-linecap:round"  x1="72" y2="34.200001" y1="37.799999" stroke="#ffffff" stroke-width="0.57599998" gorn="0.4.0.0.0.1.4.1.40"/>
                                <line x2="72" id="line168" style="stroke-linecap:round"  x1="70.199997" y2="37.799999" y1="39.599998" stroke="#ffffff" stroke-width="0.57599998" gorn="0.4.0.0.0.1.4.1.41"/>
                                <line x2="70.199997" id="line170" style="stroke-linecap:round"  x1="72" y2="32.400002" y1="34.200001" stroke="#ffffff" stroke-width="0.57599998" gorn="0.4.0.0.0.1.4.1.42"/>
                                <line x2="70.199997" id="line172" style="stroke-linecap:round"  x1="66.599998" y2="32.400002" y1="32.400002" stroke="#ffffff" stroke-width="0.57599998" gorn="0.4.0.0.0.1.4.1.43"/>
                                <line x2="16.200001" id="line174" style="stroke-linecap:round"  x1="19.799999" y2="39.599998" y1="39.599998" stroke="#ffffff" stroke-width="0.57599998" gorn="0.4.0.0.0.1.4.1.44"/>
                                <line x2="14.4" id="line176" style="stroke-linecap:round"  x1="16.200001" y2="37.799999" y1="39.599998" stroke="#ffffff" stroke-width="0.57599998" gorn="0.4.0.0.0.1.4.1.45"/>
                                <line x2="16.200001" id="line178" style="stroke-linecap:round"  x1="14.4" y2="32.400002" y1="34.200001" stroke="#ffffff" stroke-width="0.57599998" gorn="0.4.0.0.0.1.4.1.46"/>
                                <line x2="21.6" id="line180" style="stroke-linecap:round"  x1="19.799999" y2="37.799999" y1="39.599998" stroke="#ffffff" stroke-width="0.57599998" gorn="0.4.0.0.0.1.4.1.47"/>
                                <line x2="19.799999" id="line182" style="stroke-linecap:round"  x1="21.6" y2="32.400002" y1="34.200001" stroke="#ffffff" stroke-width="0.57599998" gorn="0.4.0.0.0.1.4.1.48"/>
                                <line x2="19.799999" id="line184" style="stroke-linecap:round"  x1="16.200001" y2="32.400002" y1="32.400002" stroke="#ffffff" stroke-width="0.57599998" gorn="0.4.0.0.0.1.4.1.49"/>
                                <line x2="9" id="line186" style="stroke-linecap:round"  x1="12.6" y2="39.599998" y1="39.599998" stroke="#ffffff" stroke-width="0.57599998" gorn="0.4.0.0.0.1.4.1.50"/>
                                <line x2="7.1999998" id="line188" style="stroke-linecap:round"  x1="9" y2="37.799999" y1="39.599998" stroke="#ffffff" stroke-width="0.57599998" gorn="0.4.0.0.0.1.4.1.51"/>
                                <line x2="9" id="line190" style="stroke-linecap:round"  x1="7.1999998" y2="32.400002" y1="34.200001" stroke="#ffffff" stroke-width="0.57599998" gorn="0.4.0.0.0.1.4.1.52"/>
                                <line x2="14.4" id="line192" style="stroke-linecap:round"  x1="12.6" y2="37.799999" y1="39.599998" stroke="#ffffff" stroke-width="0.57599998" gorn="0.4.0.0.0.1.4.1.53"/>
                                <line x2="12.6" id="line194" style="stroke-linecap:round"  x1="14.4" y2="32.400002" y1="34.200001" stroke="#ffffff" stroke-width="0.57599998" gorn="0.4.0.0.0.1.4.1.54"/>
                                <line x2="12.6" id="line196" style="stroke-linecap:round"  x1="9" y2="32.400002" y1="32.400002" stroke="#ffffff" stroke-width="0.57599998" gorn="0.4.0.0.0.1.4.1.55"/>
                                <line x2="1.8" id="line198" style="stroke-linecap:round"  x1="5.4000001" y2="39.599998" y1="39.599998" stroke="#ffffff" stroke-width="0.57599998" gorn="0.4.0.0.0.1.4.1.56"/>
                                <line x2="0" id="line200" style="stroke-linecap:round"  x1="1.8" y2="37.799999" y1="39.599998" stroke="#ffffff" stroke-width="0.57599998" gorn="0.4.0.0.0.1.4.1.57"/>
                                <line x2="0" id="line202" style="stroke-linecap:round"  x1="0" y2="34.200001" y1="37.799999" stroke="#ffffff" stroke-width="0.57599998" gorn="0.4.0.0.0.1.4.1.58"/>
                                <line x2="1.8" id="line204" style="stroke-linecap:round"  x1="0" y2="32.400002" y1="34.200001" stroke="#ffffff" stroke-width="0.57599998" gorn="0.4.0.0.0.1.4.1.59"/>
                                <line x2="7.1999998" id="line206" style="stroke-linecap:round"  x1="5.4000001" y2="37.799999" y1="39.599998" stroke="#ffffff" stroke-width="0.57599998" gorn="0.4.0.0.0.1.4.1.60"/>
                                <line x2="5.4000001" id="line208" style="stroke-linecap:round"  x1="7.1999998" y2="32.400002" y1="34.200001" stroke="#ffffff" stroke-width="0.57599998" gorn="0.4.0.0.0.1.4.1.61"/>
                                <line x2="5.4000001" id="line210" style="stroke-linecap:round"  x1="1.8" y2="32.400002" y1="32.400002" stroke="#ffffff" stroke-width="0.57599998" gorn="0.4.0.0.0.1.4.1.62"/>
                            </g>
                        </g>
                        <g id="g228"  gorn="0.4.0.0.0.1.5">
                            <title id="title216" >element:LOGO1</title>
                            <g id="g226"  gorn="0.4.0.0.0.1.5.1">
                                <title id="title218" >package:SFE_LOGO_FLAME_.1</title>
                                <g id="g224"  gorn="0.4.0.0.0.1.5.1.1">
                                    <title id="title220" >polygon</title>
                                    <path id="path222" style="stroke-linecap:round"  fill="none" d="m 16.2171,6.2589 h -0.2268 m 0,0 -0.085,-0.02835 m 0,0 -0.0567,-0.02835 m 0,0 -0.0851,-0.08504 m 0,0 -0.0283,-0.08504 m 0,0 V 5.94708 m 0,0 0.0283,-0.11338 m 0,0 0.0284,-0.11339 m 0,0 0.0567,-0.11338 m 0,0 0.0567,-0.08504 m 0,0 0.085,-0.11339 m 0,0 0.0851,-0.08504 m 0,0 0.085,-0.08504 m 0,0 0.085,-0.05669 m 0,0 0.0851,-0.05669 m 0,0 0.1134,-0.02835 m 0,0 h 0.1701 m 0,0 0.085,0.02835 m 0,0 0.0567,0.02835 m 0,0 0.085,0.05669 m 0,0 0.0851,0.11338 m 0,0 0.0567,0.11339 m 0,0 0.0283,0.14173 m 0,0 0.0284,0.11339 m 0,0 v 0.17008 m 0,0 -0.0284,0.05669 m 0,0 v 0.02834 m 0,0 0.0284,-0.02834 m 0,0 0.085,-0.11339 m 0,0 0.085,-0.17008 m 0,0 0.1134,-0.22677 m 0,0 0.0567,-0.25511 m 0,0 V 4.86992 m 0,0 -0.0567,-0.31181 m 0,0 -0.17,-0.31181 m 0,0 -0.1985,-0.25512 m 0,0 -0.2268,-0.14173 m 0,0 -0.2551,-0.08504 m 0,0 h -0.2268 m 0,0 -0.2551,0.05669 m 0,0 -0.2551,0.14174 m 0,0 -0.2268,0.19842 m 0,0 -0.2551,0.22677 m 0,0 -0.1984,0.19843 m 0,0 -0.2268,0.08504 m 0,0 h -0.1984 m 0,0 -0.1701,-0.0567 m 0,0 -0.1417,-0.11338 m 0,0 -0.1134,-0.17008 m 0,0 -0.0566,-0.22677 m 0,0 V 3.8778 m 0,0 0.0283,-0.14173 m 0,0 0.0567,-0.14174 m 0,0 0.085,-0.08504 m 0,0 0.0851,-0.08503 m 0,0 0.085,-0.0567 m 0,0 0.085,-0.02834 m 0,0 h 0.1134 m 0,0 0.085,0.02834 m 0,0 0.0567,0.0567 m 0,0 0.0567,0.05669 m 0,0 0.0567,0.05669 m 0,0 0.0284,0.08504 m 0,0 0.0283,0.05669 m 0,0 0.0283,0.0567 m 0,0 0.0284,0.02834 m 0,0 0.0284,-0.05669 m 0,0 0.0283,-0.05669 m 0,0 V 3.31087 m 0,0 -0.0283,-0.17009 m 0,0 -0.0284,-0.14173 m 0,0 -0.0567,-0.14173 m 0,0 -0.0851,-0.11339 m 0,0 -0.1133,-0.14173 m 0,0 -0.1418,-0.08504 m 0,0 -0.1416,-0.08504 m 0,0 -0.1985,-0.05669 m 0,0 -0.2268,-0.02835 m 0,0 h -3.9118 m 0,0 h 0.0284 m 0,0 0.0567,0.0567 m 0,0 0.085,0.08504 m 0,0 0.1417,0.08504 m 0,0 0.1418,0.14173 m 0,0 0.1701,0.14173 m 0,0 0.17,0.17008 m 0,0 0.1701,0.17008 m 0,0 0.1984,0.17008 m 0,0 0.1984,0.17008 m 0,0 0.1418,0.14173 m 0,0 0.1417,0.14173 m 0,0 0.085,0.14174 m 0,0 0.0851,0.14173 m 0,0 0.0283,0.17008 m 0,0 v 0.53858 m 0,0 0.0567,0.34016 m 0,0 0.085,0.31181 m 0,0 0.1134,0.28346 m 0,0 0.1701,0.28346 m 0,0 0.1984,0.22678 m 0,0 0.2268,0.22677 m 0,0 0.2551,0.19842 m 0,0 0.5103,0.28347 m 0,0 0.5386,0.14173 m 0,0 0.4818,0.02835 m 0,0 0.4536,-0.08504 m 0,0 0.4252,-0.14173 m 0,0 0.3118,-0.19843 m 0,0 0.2551,-0.22677 m 0,0 0.1417,-0.22677 m 0,0 H 16.2171 M 10.236,2.34708 v 0.02835 m 0.0284,-0.02835 v 0.0567 m 0.0283,-0.0567 V 2.43212 M 10.3211,2.34708 V 2.46047 M 10.3494,2.34708 V 2.48882 M 10.3777,2.34708 V 2.50582 M 10.4061,2.34708 V 2.52284 M 10.4345,2.34708 V 2.53984 M 10.4628,2.34708 V 2.55685 M 10.4911,2.34708 V 2.57386 M 10.5195,2.34708 V 2.6022 M 10.5479,2.34708 V 2.63055 M 10.5762,2.34708 V 2.6589 M 10.6045,2.34708 V 2.68724 M 10.6329,2.34708 V 2.71559 M 10.6612,2.34708 V 2.7392 M 10.6896,2.34708 V 2.76283 M 10.7179,2.34708 V 2.78646 M 10.7462,2.34708 V 2.81007 M 10.7746,2.34708 V 2.8337 M 10.803,2.34708 V 2.85732 M 10.8313,2.34708 V 2.88567 M 10.8596,2.34708 V 2.91401 M 10.888,2.34708 V 2.94236 M 10.9164,2.34708 V 2.97071 M 10.9446,2.34708 V 2.99905 M 10.973,2.34708 V 3.0274 M 11.0014,2.34708 V 3.05574 M 11.0297,2.34708 V 3.08409 M 11.058,2.34708 v 0.76536 m 0.0284,-0.76536 v 0.7937 m 0.0284,-0.7937 v 0.82205 m 0.0283,-0.82205 v 0.8504 m 0.0283,-0.8504 V 3.22177 M 11.1998,2.34708 V 3.24607 M 11.2281,2.34708 V 3.27037 M 11.2565,2.34708 V 3.29466 M 11.2848,2.34708 V 3.31896 M 11.3131,2.34708 V 3.34326 M 11.3415,2.34708 V 3.36756 M 11.3699,2.34708 V 3.39185 M 11.3982,2.34708 V 3.41615 M 11.4265,2.34708 V 3.44045 M 11.4549,2.34708 V 3.46474 M 11.4833,2.34708 V 3.48904 M 11.5116,2.34708 V 3.51334 M 11.5399,2.34708 V 3.53764 M 11.5683,2.34708 V 3.56599 M 11.5966,2.34708 V 3.59433 M 11.625,2.34708 v 1.2756 m 0.0283,-1.2756 V 3.65103 M 11.6817,2.34708 V 3.67937 M 11.71,2.34708 V 3.70772 M 11.7384,2.34708 V 3.73607 M 11.7667,2.34708 V 3.76441 M 11.795,2.34708 V 3.79276 M 11.8234,2.34708 V 3.8211 m 0.0284,-1.47402 v 1.52126 m 0.0283,-1.52126 v 1.5685 m 0.0283,-1.5685 v 1.61576 m 0.0284,-1.61576 v 1.663 m 0.0284,-1.663 V 4.05732 M 11.9935,2.34708 V 4.10457 M 12.0218,2.34708 V 4.81323 M 12.0502,2.34708 V 4.98331 M 12.0785,2.34708 V 5.15339 M 12.1069,2.34708 V 5.25732 M 12.1352,2.34708 V 5.36126 M 12.1635,2.34708 V 5.4652 M 12.1919,2.34708 V 5.53607 M 12.2203,2.34708 V 5.60693 M 12.2486,2.34708 V 5.6778 M 12.2769,2.34708 V 5.74866 M 12.3053,2.34708 V 5.7959 M 12.3337,2.34708 V 5.84315 M 12.362,2.34708 v 3.54331 m 0.0283,-3.54331 v 3.59056 m 0.0284,-3.59056 v 3.6378 M 12.447,2.34708 V 6.03212 M 12.4754,2.34708 V 6.06452 M 12.5037,2.34708 V 6.09692 M 12.5321,2.34708 V 6.12931 M 12.5604,2.34708 V 6.1617 M 12.5888,2.34708 V 6.1941 M 12.6171,2.34708 V 6.2265 M 12.6454,2.34708 V 6.2589 m 0.0284,-3.91182 v 3.94016 m 0.0284,-3.94016 v 3.96851 m 0.0283,-3.96851 v 3.99685 m 0.0283,-3.99685 v 4.0252 m 0.0284,-4.0252 V 6.40063 M 12.8156,2.34708 V 6.42897 M 12.8439,2.34708 V 6.45732 M 12.8722,2.34708 V 6.48567 M 12.9006,2.34708 V 6.50771 M 12.9289,2.34708 V 6.52976 M 12.9573,2.34708 V 6.55181 M 12.9856,2.34708 V 6.57385 M 13.014,2.34708 V 6.5959 M 13.0423,2.34708 V 6.61795 M 13.0707,2.34708 V 6.64 M 13.099,2.34708 v 4.31496 m 0.0283,-4.31496 v 4.33701 m 0.0284,-4.33701 v 4.35276 m 0.0284,-4.35276 v 4.3685 m 0.0283,-4.3685 v 4.38426 m 0.0283,-4.38426 v 4.4 m 0.0284,-4.4 v 4.41575 m 0.0284,-4.41575 v 4.4315 m 0.0283,-4.4315 v 4.44725 m 0.0283,-4.44725 v 4.463 m 0.0284,-4.463 V 6.82583 M 13.4108,2.34708 V 6.84157 M 13.4392,2.34708 V 6.85732 M 13.4675,2.34708 V 6.87307 M 13.4958,2.34708 V 6.88882 M 13.5242,2.34708 V 6.90456 M 13.5526,2.34708 V 6.92031 M 13.5809,2.34708 V 6.93606 M 13.6092,2.34708 V 6.95181 M 13.6376,2.34708 V 6.96756 M 13.666,2.34708 V 6.97501 M 13.6943,2.34708 V 6.98247 M 13.7226,2.34708 V 6.98993 M 13.751,2.34708 V 6.99739 M 13.7793,2.34708 V 7.00485 M 13.8077,2.34708 V 7.01231 M 13.836,2.34708 V 7.01977 M 13.8644,2.34708 V 7.02723 M 13.8927,2.34708 V 7.03469 M 13.9211,2.34708 V 7.04215 M 13.9494,2.34708 V 7.04961 M 13.9777,2.34708 V 7.05707 M 14.0061,2.34708 V 7.06453 M 14.0345,2.34708 V 7.07199 M 14.0628,2.34708 V 7.07945 M 14.0911,2.34708 V 7.08691 M 14.1195,2.35063 V 7.09436 M 14.1479,2.35418 V 3.8778 m 0,0.22677 v 2.99725 m 0.0283,-4.7441 v 1.37835 m 0,0.48188 V 7.10929 M 14.2045,2.36126 V 3.6652 m 0,0.66614 V 7.11096 M 14.2329,2.3648 v 1.22953 m 0,0.77953 v 2.73876 m 0.0283,-4.74427 v 1.19764 m 0,0.85039 v 2.6979 m 0.0284,-4.74239 v 1.16575 m 0,0.92126 v 2.65705 m 0.0283,-4.74052 v 1.13386 m 0,0.99213 v 2.6162 m 0.0283,-4.73408 v 1.09741 m 0,1.04314 V 7.1193 M 14.3746,2.39164 V 3.4526 m 0,1.09417 V 7.12096 M 14.403,2.39973 v 1.02453 m 0,1.14519 v 2.55317 m 0.0283,-4.71478 v 0.99752 m 0,1.18676 V 7.1243 m 0.0283,-4.70837 v 0.97053 m 0,1.22834 V 7.12596 M 14.488,2.42403 v 0.94353 m 0,1.2567 v 2.50337 m 0.0284,-4.69551 v 0.926 m 0,1.27558 v 2.4956 m 0.0282,-4.68017 v 0.89953 m 0,1.29449 V 7.13097 M 14.573,2.46614 v 0.87308 m 0,1.31338 v 2.48003 m 0.0284,-4.64948 v 0.85607 m 0,1.32283 V 7.1343 m 0.0283,-4.63414 v 0.83906 m 0,1.33228 v 2.46446 m 0.0283,-4.6188 v 0.82206 m 0,1.33228 v 2.46614 m 0.0284,-4.60346 v 0.80504 m 0,1.33228 v 2.46082 m 0.0284,-4.58114 v 0.79748 m 0,1.32284 v 2.45551 m 0.0283,-4.55882 v 0.78992 m 0,1.31339 V 7.12169 M 14.7714,2.5852 v 0.78236 m 0,1.30394 V 7.11638 M 14.7998,2.6022 v 0.79371 m 0,1.27559 v 2.43957 m 0.0283,-4.47343 v 0.78662 m 0,1.24724 V 7.10574 M 14.8565,2.67307 V 3.4526 m 0,1.20827 V 7.10043 M 14.8848,2.7085 v 0.77245 m 0,1.16929 v 2.44488 m 0.0283,-4.35119 v 0.76536 m 0,1.13032 V 7.0898 m 0.0284,-4.30807 v 0.75591 m 0,1.09133 v 2.45552 m 0.0284,-4.26496 v 0.80315 m 0,0.99567 v 2.46082 m 0.0283,-4.22185 v 0.82205 m 0,0.92835 v 2.46614 m 0.0283,-4.14567 v 0.80788 m 0,0.86101 v 2.47146 m 0.0284,-4.06949 v 0.76536 m 0,0.82205 v 2.47677 m 0.0284,-3.92245 v 0.56694 m 0,0.85039 V 7.05792 M 15.1116,4.52976 V 7.0526 M 15.1399,4.50142 V 7.04316 M 15.1683,4.47307 V 7.0337 M 15.1966,4.44473 V 7.02426 M 15.225,4.41638 V 7.01481 M 15.2533,4.38803 V 7.00536 M 15.2817,4.36283 V 6.99591 M 15.31,4.33764 V 6.98646 M 15.3384,4.31243 V 6.97701 M 15.3667,4.28724 V 6.96756 M 15.395,4.26204 V 6.95812 M 15.4234,4.23685 V 6.94866 M 15.4518,4.21165 V 6.93922 M 15.4801,4.18645 V 6.92977 M 15.5084,4.16126 V 6.92032 M 15.5368,4.13646 V 6.91087 M 15.5652,4.11165 V 6.89283 M 15.5935,4.08685 V 6.8748 m 0.0283,-2.81275 v 2.7947 m 0.0284,-2.81951 v 2.80148 m 0.0283,-2.82628 v 2.80824 m 0.0284,-2.83304 v 2.815 m 0.0283,-2.8398 v 1.98424 m 0,0.08504 V 6.7846 M 15.7635,3.94708 V 5.8337 m 0,0.28346 v 0.64941 m 0.0284,-2.83523 v 1.78897 m 0,0.4252 v 0.60301 m 0.0284,-2.83294 v 1.74804 m 0,0.51024 v 0.55663 m 0.0283,-2.83065 v 1.70709 m 0,0.59527 v 0.51024 m 0.0283,-2.82835 v 1.68032 m 0,0.65197 v 0.47086 m 0.0284,-2.8189 v 1.65355 m 0,0.70866 v 0.4315 M 15.9337,3.85259 V 5.4841 m 0,0.7559 V 6.63685 M 15.962,3.83684 V 5.4463 m 0,0.80316 v 0.3622 M 15.9903,3.8211 v 1.5874 m 0,0.8504 V 6.58646 M 16.0187,3.8148 v 1.56536 m 0,0.87874 V 6.56127 M 16.047,3.8085 v 1.54331 m 0,0.90709 V 6.53607 M 16.0754,3.8022 v 1.52126 m 0,0.93544 V 6.51087 M 16.1037,3.7959 v 1.49922 m 0,0.96378 V 6.48567 M 16.1321,3.7896 v 1.47717 m 0,0.99213 V 6.44031 M 16.1604,3.7833 v 1.45512 m 0,1.02048 V 6.39496 M 16.1888,3.777 v 1.44253 m 0,1.03937 V 6.34961 M 16.2171,3.7707 v 1.42994 m 0,1.05826 V 6.30426 M 16.2454,3.76441 V 5.18173 M 16.2738,3.76441 V 5.16284 M 16.3022,3.76441 V 5.14395 M 16.3305,3.76441 V 5.12504 M 16.3588,3.76441 V 5.11795 M 16.3872,3.76441 V 5.11087 M 16.4156,3.76441 V 5.10378 M 16.4439,3.76441 V 5.09669 M 16.4722,3.76441 V 5.09669 M 16.5006,3.77386 V 5.09669 M 16.5289,3.78331 V 5.09669 M 16.5573,3.79276 V 5.09669 M 16.5856,3.8022 V 5.09669 M 16.614,3.81166 V 5.09669 M 16.6423,3.8211 V 5.10614 M 16.6707,3.83055 V 5.11559 M 16.699,3.84 v 1.28504 m 0.0283,-1.27559 v 1.28977 m 0.0284,-1.27206 v 1.28623 m 0.0284,-1.26851 v 1.2874 M 16.8124,3.9026 v 1.28858 m 0.0283,-1.27087 v 1.28977 m 0.0284,-1.27205 v 1.30984 m 0.0284,-1.29213 v 1.32992 m 0.0283,-1.3122 v 1.35 m 0.0283,-1.33228 v 1.38898 m 0.0284,-1.35253 v 1.40922 m 0.0283,-1.37277 v 1.5145 m 0,0.34016 v 0.02834 m 0.0284,-1.84656 v 1.81822 m 0.0283,-1.78177 v 1.74398 m 0.0283,-1.70753 v 1.66973 m 0.0284,-1.6333 v 1.5955 M 17.1526,4.2463 v 1.50236 m 0.0283,-1.45039 v 1.3937 M 17.2092,4.35024 V 5.63527 M 17.2376,4.4022 V 5.57858 M 17.266,4.45418 V 5.52189 M 17.2943,4.50615 V 5.4652 M 17.3226,4.55811 V 5.4085 M 17.351,4.71401 v 0.56694" stroke="#ffffff" stroke-width="0.0283465" gorn="0.4.0.0.0.1.5.1.1.1"/>
                                </g>
                            </g>
                        </g>
                        <g id="g242"  gorn="0.4.0.0.0.1.6">
                            <title id="title230" >element:U$1</title>
                            <g id="g240"  gorn="0.4.0.0.0.1.6.1">
                                <title id="title232" >package:OSHW-LOGO-S</title>
                                <g id="g238"  gorn="0.4.0.0.0.1.6.1.1">
                                    <title id="title234" >polygon</title>
                                    <path id="path236" style="stroke-linecap:round"  fill="none" d="m 61.7247,6.67004 0.2217,0.4303 m 0,0 -0.8713,1.06864 m 0,0 0.7327,0.73274 m 0,0 1.0686,-0.87134 m 0,0 0.4305,0.22168 m 0,0 0.4611,0.14768 m 0,0 0.1394,1.37167 m 0,0 h 1.0364 m 0,0 0.1394,-1.37167 m 0,0 0.4611,-0.14768 m 0,0 0.4305,-0.22168 m 0,0 1.0686,0.87134 m 0,0 0.7328,-0.73274 m 0,0 -0.8714,-1.06864 m 0,0 0.2217,-0.43041 m 0,0 0.1476,-0.46109 m 0,0 1.3717,-0.13946 m 0,0 V 5.03303 m 0,0 -1.3717,-0.13946 m 0,0 -0.1476,-0.4611 m 0,0 -0.2217,-0.4304 m 0,0 0.8714,-1.06866 m 0,0 -0.7328,-0.73276 m 0,0 -1.0686,0.87137 m 0,0 -0.4305,-0.22171 m 0,0 -0.4611,-0.14765 m 0,0 -0.1394,-1.37168 m 0,0 h -1.0364 m 0,0 -0.1394,1.37168 m 0,0 -0.4611,0.14765 m 0,0 -0.4305,0.22171 m 0,0 -1.0686,-0.87137 m 0,0 -0.7327,0.73276 m 0,0 0.8713,1.06866 m 0,0 -0.2217,0.4303 m 0,0 1.4732,0.61029 m 0,0 0.1526,-0.27257 m 0,0 0.212,-0.2294 m 0,0 0.2598,-0.17357 m 0,0 0.2931,-0.10811 m 0,0 0.3102,-0.03669 m 0,0 0.3158,0.03814 m 0,0 0.2976,0.11209 m 0,0 0.2625,0.17961 m 0,0 0.2123,0.23686 m 0,0 0.1499,0.28051 m 0,0 0.0789,0.30811 m 0,0 0.0035,0.31804 m 0,0 -0.0722,0.30975 m 0,0 -0.1438,0.2837 m 0,0 -0.2071,0.24141 m 0,0 -0.2585,0.18527 m 0,0 -0.2952,0.11853 m 0,0 -0.3148,0.04499 m 0,0 -0.3165,-0.03114 m 0,0 -0.3001,-0.10547 m 0,0 -0.2664,-0.17376 m 0,0 -0.2175,-0.23209 m 0,0 -0.1561,-0.27713 m 0,0 -1.4732,0.6103 M 61.4492,2.55923 v 0.83306 m 0,4.31783 v 0.83304 m 0.4252,-6.28819 v 1.65879 m 0,0.22806 v 0.35255 m 0,2.11366 v 0.35254 m 0,0.22807 v 1.65879 m 0.4253,-6.24575 v 2.06883 m 0,1.76137 v 2.06887 m 0.4251,-5.55238 v 1.8983 m 0,1.40906 V 8.15407 M 63.15,2.93111 v 2.0917 m 0,1.05677 v 2.0917 m 0.4252,-5.4069 v 1.76785 m 0,2.03918 v 1.76662 m 0.4252,-7.00705 v 2.97044 m 0,2.49843 v 2.97156 m 0.4252,-8.44043 v 2.89134 m 0,2.65418 v 2.89491 m 0.4252,-8.44043 v 2.97068 m 0,2.49996 V 9.77141 M 65.276,2.76439 V 4.5347 m 0,2.02952 v 1.77381 m 0.4252,-5.40692 v 2.28481 m 0,0.67223 V 8.17128 M 66.1264,2.94836 V 8.154 m 0.4252,-5.55234 v 5.89909 m 0.4252,-6.24579 v 1.65881 m 0,0.22807 v 2.81873 m 0,0.22808 V 8.84743 M 67.402,2.55923 V 3.3923 m 0,1.51427 v 1.28927 m 0,1.51428 V 8.54316 M 67.8272,4.9498 v 1.20282 m 0.4252,-1.15959 v 1.11635" stroke="#ffffff" stroke-width="0.42519701" gorn="0.4.0.0.0.1.6.1.1.1"/>
                                </g>
                            </g>
                        </g>
                        <g id="g270"  gorn="0.4.0.0.0.1.7">
                            <title id="title244" >element:U1</title>
                            <g id="g268"  gorn="0.4.0.0.0.1.7.1">
                                <title id="title246" >package:SO016</title>
                                <line x2="49.824001" id="line248" style="stroke-linecap:round"  x1="22.176001" y2="23.517099" y1="23.517099" stroke="#ffffff" stroke-width="0.57599998" gorn="0.4.0.0.0.1.7.1.1"/>
                                <path id="path250"  fill="none" d="m 21.8925,12.4829 a 0.948917,0.948917 0 0 0 -0.7965,1.08" stroke="#ffffff" stroke-width="0.57599998" gorn="0.4.0.0.0.1.7.1.2"/>
                                <path id="path252"  fill="none" d="m 49.824,23.5171 a 1.22967,1.22967 0 0 0 1.08,-1.3635" stroke="#ffffff" stroke-width="0.57599998" gorn="0.4.0.0.0.1.7.1.3"/>
                                <path id="path254"  fill="none" d="m 21.096,22.4371 a 1.07972,1.07972 0 0 0 1.08,1.08" stroke="#ffffff" stroke-width="0.57599998" gorn="0.4.0.0.0.1.7.1.4"/>
                                <path id="path256"  fill="none" d="m 50.904,13.2795 a 0.948413,0.948413 0 0 0 -1.08,-0.7966" stroke="#ffffff" stroke-width="0.57599998" gorn="0.4.0.0.0.1.7.1.5"/>
                                <line x2="21.8925" id="line258" style="stroke-linecap:round"  x1="49.824001" y2="12.4829" y1="12.4829" stroke="#ffffff" stroke-width="0.57599998" gorn="0.4.0.0.0.1.7.1.6"/>
                                <line x2="21.096001" id="line260" style="stroke-linecap:round"  x1="21.096001" y2="22.437099" y1="13.5629" stroke="#ffffff" stroke-width="0.57599998" gorn="0.4.0.0.0.1.7.1.7"/>
                                <path id="path262"  fill="none" d="m 50.76,16.128 a 1.8,1.8 0 1 0 0,3.6" stroke="#ffffff" stroke-width="0.57599998" gorn="0.4.0.0.0.1.7.1.8"/>
                                <line x2="50.903999" id="line264" style="stroke-linecap:round"  x1="50.903999" y2="19.728001" y1="22.117599" stroke="#ffffff" stroke-width="0.57599998" gorn="0.4.0.0.0.1.7.1.9"/>
                                <line x2="50.903999" id="line266" style="stroke-linecap:round"  x1="50.903999" y2="16.128" y1="13.2795" stroke="#ffffff" stroke-width="0.57599998" gorn="0.4.0.0.0.1.7.1.10"/>
                            </g>
                        </g>
                    </g>
                    <g  transform="rotate(90)">
                        <g >
                            <rect id="rect1245" y="-24.379095" style="opacity:1;fill-rule:evenodd;stroke-linecap:round;stroke-linejoin:miter;stroke-miterlimit:4;stroke-dasharray:none;stroke-dashoffset:0;paint-order:normal" stroke-opacity="1"  width="18.65097" fill="#7f7f7f" x="8.9405651" fill-opacity="1" height="1.6127588" stroke="none" stroke-width="4.27570581" gorn="0.4.0.0.0.2.0.0"/>
                        </g>
                    </g>
                    <g  transform="rotate(90)">
                        <g >
                            <rect y="-27.989794" id="rect1266" style="opacity:1;fill-rule:evenodd;stroke-linecap:round;stroke-linejoin:miter;stroke-miterlimit:4;stroke-dasharray:none;stroke-dashoffset:0;paint-order:normal" stroke-opacity="1"  width="18.65097" fill="#7f7f7f" x="8.9405651" fill-opacity="1" height="1.6127588" stroke="none" stroke-width="4.27570581" gorn="0.4.0.0.0.3.0.0"/>
                        </g>
                    </g>
                    <g  transform="rotate(90)">
                        <g >
                            <rect id="rect1268" y="-31.600491" style="opacity:1;fill-rule:evenodd;stroke-linecap:round;stroke-linejoin:miter;stroke-miterlimit:4;stroke-dasharray:none;stroke-dashoffset:0;paint-order:normal" stroke-opacity="1"  width="18.65097" fill="#7f7f7f" x="8.9405651" fill-opacity="1" height="1.6127588" stroke="none" stroke-width="4.27570581" gorn="0.4.0.0.0.4.0.0"/>
                        </g>
                    </g>
                    <g  transform="rotate(90)">
                        <g >
                            <rect y="-35.211185" id="rect1270" style="opacity:1;fill-rule:evenodd;stroke-linecap:round;stroke-linejoin:miter;stroke-miterlimit:4;stroke-dasharray:none;stroke-dashoffset:0;paint-order:normal" stroke-opacity="1"  width="18.65097" fill="#7f7f7f" x="8.9405651" fill-opacity="1" height="1.6127588" stroke="none" stroke-width="4.27570581" gorn="0.4.0.0.0.5.0.0"/>
                        </g>
                    </g>
                    <g  transform="rotate(90)">
                        <g >
                            <rect id="rect1272" y="-38.82188" style="opacity:1;fill-rule:evenodd;stroke-linecap:round;stroke-linejoin:miter;stroke-miterlimit:4;stroke-dasharray:none;stroke-dashoffset:0;paint-order:normal" stroke-opacity="1"  width="18.65097" fill="#7f7f7f" x="8.9405651" fill-opacity="1" height="1.6127588" stroke="none" stroke-width="4.27570581" gorn="0.4.0.0.0.6.0.0"/>
                        </g>
                    </g>
                    <g  transform="rotate(90)">
                        <g >
                            <rect y="-42.432579" id="rect1274" style="opacity:1;fill-rule:evenodd;stroke-linecap:round;stroke-linejoin:miter;stroke-miterlimit:4;stroke-dasharray:none;stroke-dashoffset:0;paint-order:normal" stroke-opacity="1"  width="18.65097" fill="#7f7f7f" x="8.9405651" fill-opacity="1" height="1.6127588" stroke="none" stroke-width="4.27570581" gorn="0.4.0.0.0.7.0.0"/>
                        </g>
                    </g>
                    <g  transform="rotate(90)">
                        <g >
                            <rect id="rect1276" y="-46.043274" style="opacity:1;fill-rule:evenodd;stroke-linecap:round;stroke-linejoin:miter;stroke-miterlimit:4;stroke-dasharray:none;stroke-dashoffset:0;paint-order:normal" stroke-opacity="1"  width="18.65097" fill="#7f7f7f" x="8.9405651" fill-opacity="1" height="1.6127588" stroke="none" stroke-width="4.27570581" gorn="0.4.0.0.0.8.0.0"/>
                        </g>
                    </g>
                    <g  transform="rotate(90)">
                        <g >
                            <rect y="-49.653973" id="rect1278" style="opacity:1;fill-rule:evenodd;stroke-linecap:round;stroke-linejoin:miter;stroke-miterlimit:4;stroke-dasharray:none;stroke-dashoffset:0;paint-order:normal" stroke-opacity="1"  width="18.65097" fill="#7f7f7f" x="8.9405651" fill-opacity="1" height="1.6127588" stroke="none" stroke-width="4.27570581" gorn="0.4.0.0.0.9.0.0"/>
                        </g>
                    </g>
                    <rect y="12.4722" id="rect274"  width="29.8269" fill="#333333" x="21.0853" fill-opacity="1" height="11.0449" stroke="none" stroke-width="0" gorn="0.4.0.0.0.10"/>
                    <circle connectorname="T1OUT" id="connector12pin"  cx="68.400002" fill="none" r="2.052" cy="36" stroke="#9a916c" stroke-width="1.22399998" gorn="0.4.0.0.0.11"/>
                    <circle connectorname="T2OUT" id="connector13pin"  cx="61.200001" fill="none" r="2.052" cy="36" stroke="#9a916c" stroke-width="1.22399998" gorn="0.4.0.0.0.12"/>
                    <circle connectorname="R1IN" id="connector14pin"  cx="54" fill="none" r="2.052" cy="36" stroke="#9a916c" stroke-width="1.22399998" gorn="0.4.0.0.0.13"/>
                    <circle connectorname="R2IN" id="connector15pin"  cx="46.799999" fill="none" r="2.052" cy="36" stroke="#9a916c" stroke-width="1.22399998" gorn="0.4.0.0.0.14"/>
                    <circle connectorname="VCC" id="connector16pin"  cx="39.599998" fill="none" r="2.052" cy="36" stroke="#9a916c" stroke-width="1.22399998" gorn="0.4.0.0.0.15"/>
                    <circle connectorname="GND" id="connector17pin"  cx="32.400002" fill="none" r="2.052" cy="36" stroke="#9a916c" stroke-width="1.22399998" gorn="0.4.0.0.0.16"/>
                    <circle connectorname="T1IN" id="connector18pin"  cx="25.200001" fill="none" r="2.052" cy="36" stroke="#9a916c" stroke-width="1.22399998" gorn="0.4.0.0.0.17"/>
                    <circle connectorname="T2IN" id="connector19pin"  cx="18" fill="none" r="2.052" cy="36" stroke="#9a916c" stroke-width="1.22399998" gorn="0.4.0.0.0.18"/>
                    <circle connectorname="R1OUT" id="connector20pin"  cx="10.8" fill="none" r="2.052" cy="36" stroke="#9a916c" stroke-width="1.22399998" gorn="0.4.0.0.0.19"/>
                    <circle connectorname="R2OUT" id="connector21pin"  cx="3.5999999" fill="none" r="2.052" cy="36" stroke="#9a916c" stroke-width="1.22399998" gorn="0.4.0.0.0.20"/>
                </g>
                <g  transform="translate(45.9725,1.884)">
                    <g >
                        <g id="0603-cap"  gorn="0.4.0.0.1.0.0">
                            <g  transform="rotate(180,2.2675,1.134)">
                                <g >
                                    <g id="g291"  gorn="0.4.0.0.1.0.0.0.0.0">
                                        <path id="path287" style="fill:#dcdcdc"  d="M 4.245,2.268 H 0.29 C 0.13,2.268 0,2.138 0,1.977 V 0.29 C 0,0.13 0.13,0 0.29,0 h 3.955 c 0.16,0 0.29,0.13 0.29,0.29 v 1.687 c 0,0.161 -0.13,0.291 -0.29,0.291 z" gorn="0.4.0.0.1.0.0.0.0.0.0"/>
                                        <rect y="0" id="rect289" style="fill:#6e554b"  width="2.2679999" x="1.1339999" height="2.2679999" gorn="0.4.0.0.1.0.0.0.0.0.1"/>
                                    </g>
                                </g>
                            </g>
                        </g>
                    </g>
                </g>
                <g  transform="translate(35.5325,1.884)">
                    <g >
                        <g id="g300"  gorn="0.4.0.0.2.0.0">
                            <g  transform="rotate(180,2.2675,1.134)">
                                <g >
                                    <g id="g298"  gorn="0.4.0.0.2.0.0.0.0.0">
                                        <path id="path294" style="fill:#dcdcdc"  d="M 4.245,2.268 H 0.29 C 0.13,2.268 0,2.138 0,1.977 V 0.29 C 0,0.13 0.13,0 0.29,0 h 3.955 c 0.16,0 0.29,0.13 0.29,0.29 v 1.687 c 0,0.161 -0.13,0.291 -0.29,0.291 z" gorn="0.4.0.0.2.0.0.0.0.0.0"/>
                                        <rect y="0" id="rect296" style="fill:#6e554b"  width="2.2679999" x="1.1339999" height="2.2679999" gorn="0.4.0.0.2.0.0.0.0.0.1"/>
                                    </g>
                                </g>
                            </g>
                        </g>
                    </g>
                </g>
                <g  transform="translate(56.2961,11.8548)">
                    <g >
                        <g id="g308"  gorn="0.4.0.0.3.0.0">
                            <g  transform="rotate(90,2.2675,1.134)">
                                <g >
                                    <g id="g306"  gorn="0.4.0.0.3.0.0.0.0.0">
                                        <path id="path302" style="fill:#dcdcdc"  d="M 4.245,2.268 H 0.29 C 0.13,2.268 0,2.138 0,1.977 V 0.29 C 0,0.13 0.13,0 0.29,0 h 3.955 c 0.16,0 0.29,0.13 0.29,0.29 v 1.687 c 0,0.161 -0.13,0.291 -0.29,0.291 z" gorn="0.4.0.0.3.0.0.0.0.0.0"/>
                                        <rect y="0" id="rect304" style="fill:#6e554b"  width="2.2679999" x="1.1339999" height="2.2679999" gorn="0.4.0.0.3.0.0.0.0.0.1"/>
                                    </g>
                                </g>
                            </g>
                        </g>
                    </g>
                </g>
                <g  transform="translate(25.8125,1.884)">
                    <g >
                        <g id="g316" style="display:inline"  gorn="0.4.0.0.4.0.0">
                            <g  transform="rotate(180,2.2675,1.134)">
                                <g >
                                    <g id="g314"  gorn="0.4.0.0.4.0.0.0.0.0">
                                        <path id="path310" style="fill:#dcdcdc"  d="M 4.245,2.268 H 0.29 C 0.13,2.268 0,2.138 0,1.977 V 0.29 C 0,0.13 0.13,0 0.29,0 h 3.955 c 0.16,0 0.29,0.13 0.29,0.29 v 1.687 c 0,0.161 -0.13,0.291 -0.29,0.291 z" gorn="0.4.0.0.4.0.0.0.0.0.0"/>
                                        <rect y="0" id="rect312" style="fill:#6e554b"  width="2.2679999" x="1.1339999" height="2.2679999" gorn="0.4.0.0.4.0.0.0.0.0.1"/>
                                    </g>
                                </g>
                            </g>
                        </g>
                    </g>
                </g>
                <g  transform="translate(56.2889,22.3956)">
                    <g >
                        <g id="g324" style="display:inline"  gorn="0.4.0.0.5.0.0">
                            <g  transform="rotate(90,2.2675,1.134)">
                                <g >
                                    <g id="g322"  gorn="0.4.0.0.5.0.0.0.0.0">
                                        <path id="path318" style="fill:#dcdcdc"  d="M 4.245,2.268 H 0.29 C 0.13,2.268 0,2.138 0,1.977 V 0.29 C 0,0.13 0.13,0 0.29,0 h 3.955 c 0.16,0 0.29,0.13 0.29,0.29 v 1.687 c 0,0.161 -0.13,0.291 -0.29,0.291 z" gorn="0.4.0.0.5.0.0.0.0.0.0"/>
                                        <rect y="0" id="rect320" style="fill:#6e554b"  width="2.2679999" x="1.1339999" height="2.2679999" gorn="0.4.0.0.5.0.0.0.0.0.1"/>
                                    </g>
                                </g>
                            </g>
                        </g>
                    </g>
                </g>
            </g>
        </g>
    </g>
</svg>
