<?xml version='1.0' encoding='UTF-8' standalone='no'?>
<!-- Created with Fritzing (http://www.fritzing.org/) -->
<svg xmlns="http://www.w3.org/2000/svg" version="1.2"  id="svg356" x="0in" height="0.40000001in" width="0.55000001in" viewBox="0 0 39.6 28.8" y="0in" gorn="0">
    <desc  id="desc2">
        <referenceFile >SparkFun_Analog_MEMS_Microphone_Breakout_SPH8878LR5H-1_breadboard.svg</referenceFile>
    </desc>
    <metadata  id="metadata362">
        <rdf:RDF xmlns:rdf="http://www.w3.org/1999/02/22-rdf-syntax-ns#">
            <cc:Work xmlns:cc="http://creativecommons.org/ns#" xmlns:rdf="http://www.w3.org/1999/02/22-rdf-syntax-ns#" rdf:about="">
                <dc:format xmlns:dc="http://purl.org/dc/elements/1.1/">image/svg+xml</dc:format>
                <dc:type rdf:resource="http://purl.org/dc/dcmitype/StillImage" xmlns:dc="http://purl.org/dc/elements/1.1/" xmlns:rdf="http://www.w3.org/1999/02/22-rdf-syntax-ns#"/>
                <dc:title xmlns:dc="http://purl.org/dc/elements/1.1/"/>
            </cc:Work>
        </rdf:RDF>
    </metadata>
    <defs  id="defs360"/>
    <desc  id="desc6">Fritzing breadboard generated by brd2svg</desc>
    <g  id="breadboard" gorn="0.4">
        <g  id="icon" gorn="0.4.0">
            <path d="M 0,28.8 H 39.6 V 0 H 0 V 28.8 M 5.92441,18 a 1.27559,1.27559 0 1 1 2.55118,0 1.27559,1.27559 0 1 1 -2.55118,0 z M 34.56,21.6 a 1.44,1.44 0 1 1 2.88,0 1.44,1.44 0 1 1 -2.88,0 z m 0,-7.2 a 1.44,1.44 0 1 1 2.88,0 1.44,1.44 0 1 1 -2.88,0 z m 0,-7.2 a 1.44,1.44 0 1 1 2.88,0 1.44,1.44 0 1 1 -2.88,0 z m -27.9,0 a 0.54,0.54 0 1 1 1.08,0 0.54,0.54 0 1 1 -1.08,0 z"  id="path4" stroke-width="0" stroke="none" gorn="0.4.0.0" fill="#e6321e"/>
            <g  id="g288" style="display:inline" gorn="0.4.0.1">
                <title  id="title6">layer 21</title>
                <g  id="g14" gorn="0.4.0.1.1">
                    <title  id="title8">element:C1</title>
                    <g  id="g12" gorn="0.4.0.1.1.1">
                        <title  id="title10">package:0603</title>
                    </g>
                </g>
                <g  id="g22" gorn="0.4.0.1.2">
                    <title  id="title16">element:C2</title>
                    <g  id="g20" gorn="0.4.0.1.2.1">
                        <title  id="title18">package:0603</title>
                    </g>
                </g>
                <g  id="g30" gorn="0.4.0.1.3">
                    <title  id="title24">element:C3</title>
                    <g  id="g28" gorn="0.4.0.1.3.1">
                        <title  id="title26">package:0603</title>
                    </g>
                </g>
                <g  id="g38" gorn="0.4.0.1.4">
                    <title  id="title32">element:C4</title>
                    <g  id="g36" gorn="0.4.0.1.4.1">
                        <title  id="title34">package:0603</title>
                    </g>
                </g>
                <g  id="g46" gorn="0.4.0.1.5">
                    <title  id="title40">element:FD1</title>
                    <g  id="g44" gorn="0.4.0.1.5.1">
                        <title  id="title42">package:FIDUCIAL-MICRO</title>
                    </g>
                </g>
                <g  id="g54" gorn="0.4.0.1.6">
                    <title  id="title48">element:FD2</title>
                    <g  id="g52" gorn="0.4.0.1.6.1">
                        <title  id="title50">package:FIDUCIAL-MICRO</title>
                    </g>
                </g>
                <g  id="g62" gorn="0.4.0.1.7">
                    <title  id="title56">element:FD3</title>
                    <g  id="g60" gorn="0.4.0.1.7.1">
                        <title  id="title58">package:FIDUCIAL-MICRO</title>
                    </g>
                </g>
                <g  id="g70" gorn="0.4.0.1.8">
                    <title  id="title64">element:FD4</title>
                    <g  id="g68" gorn="0.4.0.1.8.1">
                        <title  id="title66">package:FIDUCIAL-MICRO</title>
                    </g>
                </g>
                <g  id="g78" gorn="0.4.0.1.9">
                    <title  id="title72">element:JP1</title>
                    <g  id="g76" gorn="0.4.0.1.9.1">
                        <title  id="title74">package:1X03_NO_SILK</title>
                    </g>
                </g>
                <g  id="g86" gorn="0.4.0.1.10">
                    <title  id="title80">element:LOGO1</title>
                    <g  id="g84" gorn="0.4.0.1.10.1">
                        <title  id="title82">package:SFE_LOGO_FLAME_.1</title>
                    </g>
                </g>
                <g  id="g94" gorn="0.4.0.1.11">
                    <title  id="title88">element:LOGO2</title>
                    <g  id="g92" gorn="0.4.0.1.11.1">
                        <title  id="title90">package:OSHW-LOGO-MINI</title>
                    </g>
                </g>
                <g  id="g108" gorn="0.4.0.1.12">
                    <title  id="title96">element:LOGO3</title>
                    <g  id="g106" gorn="0.4.0.1.12.1">
                        <title  id="title98">package:SFE_LOGO_FLAME_.1</title>
                        <g  id="g104" gorn="0.4.0.1.12.1.1">
                            <title  id="title100">polygon</title>
                            <path d="m 2.94973,23.3331 h 0.25512 m 0,0 0.08504,0.0284 m 0,0 0.05669,0.0283 m 0,0 0.08504,0.085 m 0,0 0.02835,0.085 m 0,0 v 0.0851 m 0,0 -0.0567,0.2268 m 0,0 -0.05669,0.1134 m 0,0 -0.05669,0.085 m 0,0 -0.08504,0.1134 m 0,0 -0.17008,0.1701 m 0,0 -0.17008,0.1134 m 0,0 -0.11338,0.0283 m 0,0 H 2.58123 m 0,0 -0.08504,-0.0283 m 0,0 -0.05669,-0.0284 m 0,0 -0.08504,-0.0567 m 0,0 -0.08504,-0.1134 m 0,0 -0.05669,-0.1134 m 0,0 -0.02835,-0.1417 m 0,0 L 2.15603,23.9 m 0,0 v -0.17 m 0,0 0.02835,-0.0568 m 0,0 v -0.0283 m 0,0 -0.02835,0.0283 m 0,0 -0.08504,0.1134 m 0,0 -0.19842,0.3969 m 0,0 -0.05669,0.2551 m 0,0 v 0.2835 m 0,0 0.05669,0.3118 m 0,0 0.17008,0.3118 m 0,0 0.19842,0.2551 m 0,0 0.22677,0.1417 m 0,0 0.25512,0.0851 m 0,0 h 0.22677 m 0,0 0.25512,-0.0567 m 0,0 0.25512,-0.1417 m 0,0 0.22677,-0.1984 m 0,0 0.25512,-0.2268 m 0,0 0.19842,-0.1985 m 0,0 0.22677,-0.085 m 0,0 h 0.19843 m 0,0 0.17008,0.0567 m 0,0 0.14173,0.1134 m 0,0 0.11339,0.1701 m 0,0 0.05669,0.2267 m 0,0 v 0.2268 m 0,0 -0.02834,0.1417 m 0,0 -0.0567,0.1418 m 0,0 -0.17007,0.1701 m 0,0 -0.08504,0.0566 m 0,0 -0.08505,0.0284 m 0,0 H 4.50878 m 0,0 -0.08504,-0.0284 m 0,0 -0.17007,-0.17 m 0,0 -0.02835,-0.0851 m 0,0 -0.05669,-0.1134 m 0,0 -0.02835,-0.0283 m 0,0 -0.05669,0.1134 m 0,0 v 0.3402 m 0,0 0.02834,0.17 m 0,0 0.02835,0.1417 m 0,0 0.05669,0.1418 m 0,0 0.08504,0.1134 m 0,0 0.11339,0.1417 m 0,0 0.28347,0.17 m 0,0 0.19842,0.0568 m 0,0 0.22678,0.0283 m 0,0 h 3.88347 m 0,0 -0.14176,-0.1417 m 0,0 -0.1417,-0.0851 m 0,0 -0.14177,-0.1417 m 0,0 -0.17006,-0.1417 m 0,0 -0.34013,-0.3401 m 0,0 -0.39686,-0.3402 m 0,0 -0.28347,-0.2835 m 0,0 -0.17006,-0.2835 m 0,0 -0.02838,-0.17 m 0,0 v -0.5386 m 0,0 -0.05669,-0.3402 m 0,0 -0.08504,-0.3118 m 0,0 -0.11338,-0.2835 m 0,0 -0.17008,-0.2835 m 0,0 -0.19843,-0.2267 m 0,0 -0.22677,-0.2268 m 0,0 -0.25512,-0.1984 m 0,0 -0.51023,-0.2835 m 0,0 -0.53858,-0.1417 m 0,0 -0.4819,-0.0283 m 0,0 -0.45354,0.085 m 0,0 -0.4252,0.1418 m 0,0 -0.31181,0.1984 m 0,0 -0.25512,0.2267 m 0,0 -0.14173,0.2268 M 8.784,27.2449 V 27.0661 M 8.568,27.2449 V 26.8821 M 8.352,27.2449 V 26.6944 M 8.136,27.2449 V 26.4784 M 7.92,27.2449 V 26.2813 M 7.704,27.2449 V 26.0962 M 7.488,27.2449 V 25.8871 M 7.272,27.2449 V 25.6046 M 7.056,27.2449 V 24.2162 M 6.84,27.2449 v -3.532 m -0.216,3.532 V 23.418 m -0.216,3.8269 v -4.0536 m -0.216,4.0536 v -4.2404 m -0.216,4.2404 v -4.388 m -0.216,4.388 v -4.508 m -0.216,4.508 v -4.624 m -0.216,4.624 V 22.564 M 5.112,27.2449 V 22.5072 M 4.896,27.2189 V 26.064 m 0,-0.9454 V 22.4754 M 4.68,27.1602 v -0.9267 m 0,-1.2748 V 22.4628 M 4.464,27.031 v -0.7931 m 0,-1.3174 v -2.4524 m -0.216,4.3346 v -0.7653 m 0,-1.0723 V 22.5086 M 4.032,25.1138 V 22.5566 M 3.816,25.3158 V 22.6286 M 3.6,25.5066 v -2.7883 m -0.216,2.9531 v -1.7611 m 0,-0.4831 v -0.5714 m -0.216,2.9233 v -1.5587 m 0,-0.8873 v -0.2948 m -0.216,2.7888 v -1.4184 m 0,-1.0756 V 23.3294 M 2.736,25.8276 V 24.4953 M 2.52,25.7599 v -1.285 M 2.304,25.6401 V 24.3146 M 2.088,25.404 v -1.64 M 1.872,25.0308 V 24.186"  id="path102" style="stroke-linecap:round" stroke-width="0.21600001" stroke="#ffffff" gorn="0.4.0.1.12.1.1.1" fill="none"/>
                        </g>
                    </g>
                </g>
                <g  id="g116" gorn="0.4.0.1.13">
                    <title  id="title110">element:OUT-</title>
                    <g  id="g114" gorn="0.4.0.1.13.1">
                        <title  id="title112">package:TP_15TH</title>
                    </g>
                </g>
                <g  id="g124" gorn="0.4.0.1.14">
                    <title  id="title118">element:R1</title>
                    <g  id="g122" gorn="0.4.0.1.14.1">
                        <title  id="title120">package:0603</title>
                    </g>
                </g>
                <g  id="g132" gorn="0.4.0.1.15">
                    <title  id="title126">element:R2</title>
                    <g  id="g130" gorn="0.4.0.1.15.1">
                        <title  id="title128">package:0603</title>
                    </g>
                </g>
                <g  id="g140" gorn="0.4.0.1.16">
                    <title  id="title134">element:R3</title>
                    <g  id="g138" gorn="0.4.0.1.16.1">
                        <title  id="title136">package:0603</title>
                    </g>
                </g>
                <g  id="g148" gorn="0.4.0.1.17">
                    <title  id="title142">element:R4</title>
                    <g  id="g146" gorn="0.4.0.1.17.1">
                        <title  id="title144">package:0603</title>
                    </g>
                </g>
                <g  id="g156" gorn="0.4.0.1.18">
                    <title  id="title150">element:U$2</title>
                    <g  id="g154" gorn="0.4.0.1.18.1">
                        <title  id="title152">package:MEMS_MIC0</title>
                    </g>
                </g>
                <g  id="g164" gorn="0.4.0.1.19">
                    <title  id="title158">element:U$3</title>
                    <g  id="g162" gorn="0.4.0.1.19.1">
                        <title  id="title160">package:#GND#0</title>
                    </g>
                </g>
                <g  id="g172" gorn="0.4.0.1.20">
                    <title  id="title166">element:U$4</title>
                    <g  id="g170" gorn="0.4.0.1.20.1">
                        <title  id="title168">package:#VCC#0</title>
                    </g>
                </g>
                <g  id="g180" gorn="0.4.0.1.21">
                    <title  id="title174">element:U$5</title>
                    <g  id="g178" gorn="0.4.0.1.21.1">
                        <title  id="title176">package:#AUD#0</title>
                    </g>
                </g>
                <g  id="g236" gorn="0.4.0.1.22">
                    <title  id="title182">element:U$7</title>
                    <g  id="g1201" gorn="0.4.0.1.22.1">
                        <g  id="g234" gorn="0.4.0.1.22.1.0">
                            <title  id="title184">package:MEMS_MIC0</title>
                            <g  id="g190" gorn="0.4.0.1.22.1.0.1">
                                <title  id="title186">polygon</title>
                                <path d="m 13.8926,24.3609 -0.17,-0.1133 m 0,0 -0.2835,-0.0284 m 0,0 -0.2268,0.085 m 0,0 -0.4535,0.5386 m 0,0 -0.5103,0.7087 m 0,0 -0.1984,0.1134 m 0,0 -0.8504,-1.1622 m 0,0 -0.1417,-0.1985 m 0,0 -0.2268,-0.085 m 0,0 h -0.2835 m 0,0 -0.1984,0.1134 m 0,0 -0.0284,0.1984 m 0,0 v 2.8914 m 0,0 0.1418,0.1417 m 0,0 0.3118,0.0283 m 0,0 0.2267,-0.0566 m 0,0 0.0851,-0.1701 m 0,0 v -1.7008 m 0,0 0.0567,0.0567 m 0,0 0.652,0.8504 m 0,0 0.17,0.1417 m 0,0 h 0.2551 m 0,0 0.1985,-0.1134 m 0,0 0.1134,-0.17 m 0,0 0.5953,-0.7938 m 0,0 v 1.7008 m 0,0 0.085,0.1985 m 0,0 0.2268,0.0566 m 0,0 h 0.2551 m 0,0 0.17,-0.1133 m 0,0 0.0567,-0.2268 m 0,0 v -2.693 m 0,0 -0.0283,-0.1984 m -0.4535,3.2315 h 0.2551 m -3.2315,-0.0283 h 0.4251 m 2.4379,0 h 0.411 m -3.3024,-0.0283 h 0.5669 m 2.2111,0 h 0.5669 M 10.406,27.5074 h 0.6094 m 2.1847,0 h 0.6217 m -3.4442,-0.0283 h 0.652 m 2.1584,0 h 0.6762 m -3.5149,-0.0284 h 0.6945 m 2.1321,0 h 0.6954 m -3.5504,-0.0283 h 0.7371 m 2.1057,0 h 0.7147 M 10.3209,27.394 h 0.7513 m 2.0793,0 h 0.734 m -3.5646,-0.0283 h 0.7654 m 2.0531,0 h 0.7532 m -3.5717,-0.0284 h 0.7654 m 2.041,0 h 0.7724 M 10.3209,27.309 h 0.7654 m 2.041,0 h 0.7795 m -3.5859,-0.0283 h 0.7654 m 2.041,0 h 0.7866 m -3.593,-0.0284 h 0.7654 m 2.041,0 h 0.7936 m -3.6,-0.0284 h 0.7654 m 2.041,0 h 0.7936 m -3.6,-0.0283 h 0.7654 m 2.041,0 h 0.7936 m -3.6,-0.0283 h 0.7654 m 2.041,0 h 0.7936 m -3.6,-0.0284 h 0.7654 m 2.041,0 h 0.7936 m -3.6,-0.0284 h 0.7654 m 2.041,0 h 0.7936 m -3.6,-0.0283 h 0.7654 m 2.041,0 h 0.7936 m -3.6,-0.0283 h 0.7654 m 2.041,0 h 0.7936 m -3.6,-0.0284 h 0.7654 m 2.041,0 h 0.7936 m -3.6,-0.0283 h 0.7654 m 2.041,0 h 0.7936 m -3.6,-0.0284 h 0.7654 m 2.041,0 h 0.7936 m -3.6,-0.0283 h 0.7654 m 2.041,0 h 0.7936 m -3.6,-0.0283 h 0.7654 m 2.041,0 h 0.7936 m -3.6,-0.0284 h 0.7654 m 2.041,0 h 0.7936 m -3.6,-0.0284 h 0.7654 m 2.041,0 h 0.7936 m -3.6,-0.0283 h 0.7654 m 2.041,0 h 0.7936 m -3.6,-0.0283 h 0.7654 m 2.041,0 h 0.7936 m -3.6,-0.0284 h 0.7654 m 2.041,0 h 0.7936 m -3.6,-0.0284 h 0.7654 m 2.041,0 h 0.7936 m -3.6,-0.0283 h 0.7654 m 0.8787,0 h 0.2551 m 0.9072,0 h 0.7936 m -3.6,-0.0283 h 0.7654 m 0.8447,0 h 0.3387 m 0.8576,0 h 0.7936 m -3.6,-0.0284 h 0.7654 m 0.8107,0 h 0.4223 m 0.808,0 h 0.7936 m -3.6,-0.0283 h 0.7654 m 0.7767,0 h 0.506 m 0.7583,0 h 0.7936 m -3.6,-0.0284 h 0.7654 m 0.7427,0 h 0.5896 m 0.7087,0 h 0.7936 m -3.6,-0.0283 h 0.7654 m 0.7087,0 h 0.6425 m 0.6898,0 h 0.7936 m -3.6,-0.0284 h 0.7654 m 0.6869,0 h 0.6832 m 0.6709,0 h 0.7936 m -3.6,-0.0283 h 0.7654 m 0.6652,0 h 0.7238 m 0.652,0 h 0.7936 m -3.6,-0.0284 h 0.7654 m 0.6434,0 h 0.7645 m 0.6331,0 h 0.7936 m -3.6,-0.0283 h 0.7654 m 0.6217,0 h 0.8051 m 0.6142,0 h 0.7936 m -3.6,-0.0283 h 0.7654 m 0.6,0 h 0.8457 m 0.5953,0 h 0.7936 m -3.6,-0.0284 h 0.7654 m 0.5783,0 h 0.8886 m 0.5741,0 h 0.7936 m -3.6,-0.0284 h 0.7654 m 0.5565,0 h 0.9317 m 0.5528,0 h 0.7936 m -3.6,-0.0283 h 0.7654 m 0.5348,0 h 0.9747 m 0.5315,0 h 0.7936 m -3.6,-0.0283 h 0.7654 m 0.513,0 h 1.0177 m 0.5103,0 h 0.7936 m -3.6,-0.0284 h 0.7654 m 0.4913,0 h 1.0606 m 0.4891,0 h 0.7936 m -3.6,-0.0284 h 0.7654 m 0.4696,0 h 1.1036 m 0.4678,0 h 0.7936 m -3.6,-0.0283 h 0.7654 m 0.4479,0 h 1.1466 m 0.4465,0 h 0.7936 m -3.6,-0.0283 h 0.7654 m 0.4261,0 h 1.1896 m 0.4253,0 h 0.7936 m -3.6,-0.0284 h 0.7654 m 0.4044,0 h 1.2326 m 0.404,0 h 0.7936 m -3.6,-0.0283 h 0.7654 m 0.3827,0 h 1.2756 m 0.3827,0 h 0.7936 m -3.6,-0.0284 h 0.7654 m 0.3609,0 h 1.3186 m 0.3615,0 h 0.7936 m -3.6,-0.0283 h 0.7654 m 0.3392,0 h 1.3616 m 0.3402,0 h 0.7936 m -3.6,-0.0283 h 0.7654 m 0.3175,0 h 1.4046 m 0.3189,0 h 0.7936 m -3.6,-0.0284 h 0.7654 m 0.2957,0 h 1.4476 m 0.2977,0 h 0.7936 m -3.6,-0.0284 h 0.7654 m 0.274,0 h 1.4905 m 0.2765,0 h 0.7936 m -3.6,-0.0283 h 0.7654 m 0.2523,0 h 1.5336 m 0.2551,0 h 0.7936 m -3.6,-0.0283 h 0.7654 m 0.2305,0 h 1.5766 m 0.2339,0 h 0.7936 m -3.6,-0.0284 h 0.7654 m 0.2088,0 h 1.6195 m 0.2127,0 h 0.7936 m -3.6,-0.0284 h 0.7654 m 0.1871,0 h 1.6625 m 0.1914,0 h 0.7936 m -3.6,-0.0283 h 0.7654 m 0.1654,0 h 1.7055 m 0.1701,0 h 0.7936 m -3.6,-0.0283 h 0.7654 m 0.1436,0 h 1.7485 m 0.1489,0 h 0.7936 m -3.6,-0.0284 h 0.7654 m 0.1219,0 h 1.7915 m 0.1276,0 h 0.7936 m -3.6,-0.0284 h 0.7654 m 0.1001,0 h 1.8345 m 0.1064,0 h 0.7936 m -3.6,-0.0283 h 0.7654 m 0.0785,0 h 1.8774 m 0.0851,0 h 0.7936 m -3.6,-0.0283 h 0.7654 m 0.0567,0 h 1.9205 m 0.0638,0 h 0.7936 m -3.6,-0.0284 h 0.7654 m 0.0283,0 h 1.9701 m 0.0426,0 h 0.7936 m -3.6,-0.0283 h 1.7292 m 0,0 h 1.0559 m 0.0213,0 h 0.7936 m -3.6,-0.0284 h 1.7084 m 0.0704,0 h 1.8212 m -3.6,-0.0283 h 1.6877 m 0.1407,0 h 1.7716 m -3.6,-0.0283 h 1.667 m 0.211,0 h 1.722 m -3.6,-0.0284 h 1.6462 m 0.2814,0 h 1.6724 m -3.6,-0.0284 h 1.6255 m 0.3225,0 h 1.652 m -3.6,-0.0283 h 1.6047 m 0.3637,0 h 1.6316 m -3.6,-0.0283 h 1.584 m 0.4049,0 h 1.6111 m -3.6,-0.0284 h 1.5633 m 0.4459,0 h 1.5908 m -3.6,-0.0284 h 1.5425 m 0.4871,0 h 1.5704 m -3.6,-0.0283 h 1.5218 m 0.5283,0 h 1.5499 m -3.6,-0.0283 h 1.501 m 0.5694,0 h 1.5296 m -3.6,-0.0284 h 1.4803 m 0.6106,0 h 1.5091 m -3.6,-0.0283 h 1.4595 m 0.6518,0 h 1.4887 m -3.6,-0.0284 h 1.4388 m 0.6929,0 h 1.4683 m -3.6,-0.0283 h 1.4181 m 0.734,0 h 1.4479 m -3.6,-0.0284 h 1.3973 m 0.7752,0 h 1.4275 m -3.6,-0.0283 h 1.3766 m 0.8163,0 h 1.4071 m -3.6,-0.0284 h 1.3558 m 0.8576,0 h 1.3866 m -3.6,-0.0283 h 1.3351 m 0.8986,0 h 1.3663 m -3.6,-0.0283 h 1.3144 m 0.9398,0 h 1.3458 m -3.6,-0.0284 h 1.2936 m 0.981,0 h 1.3254 m -3.6,-0.0284 h 1.2729 m 1.022,0 h 1.3051 m -3.6,-0.0283 h 1.2522 m 1.0632,0 h 1.2846 m -3.6,-0.0283 h 1.2314 m 1.1044,0 h 1.2642 m -3.6,-0.0284 h 1.2106 m 1.1456,0 h 1.2438 m -3.6,-0.0284 h 1.1899 m 1.1867,0 h 1.2234 m -3.6,-0.0283 H 11.49 m 1.2279,0 h 1.203 m -3.6,-0.0283 h 1.1484 m 1.269,0 h 1.1826 m -3.6,-0.0284 h 1.1277 m 1.3102,0 h 1.1621 m -3.6,-0.0283 h 1.1069 m 1.3548,0 h 1.1383 m -3.6,-0.0284 h 1.0862 m 1.3994,0 h 1.1144 m -3.6,-0.0283 h 1.0655 m 1.4439,0 h 1.0906 m -3.6,-0.0283 h 1.0447 m 1.4886,0 h 1.0667 m -3.6,-0.0284 h 1.024 m 1.5332,0 h 1.0428 m -3.6,-0.0284 h 1.0033 m 1.5778,0 h 1.0189 m -3.6,-0.0283 h 0.9825 m 1.6225,0 h 0.995 m -3.6,-0.0283 h 0.9617 m 1.6671,0 h 0.9712 m -3.6,-0.0284 h 0.941 m 1.7117,0 h 0.9473 m -3.6,-0.0284 h 0.9202 m 1.7563,0 h 0.9235 m -3.6,-0.0283 h 0.8995 m 1.8009,0 h 0.8956 M 10.325,24.5027 h 0.8747 m 1.8455,0 h 0.8676 M 10.329,24.4743 h 0.8504 m 1.8897,0 h 0.8397 M 10.3331,24.446 h 0.8261 m 1.9337,0 h 0.8119 m -3.5677,-0.0284 h 0.8019 m 1.9778,0 h 0.7839 m -3.5595,-0.0283 h 0.7775 m 2.0219,0 h 0.756 m -3.5514,-0.0284 h 0.7532 m 2.0662,0 h 0.728 m -3.5433,-0.0283 h 0.7289 m 2.1102,0 h 0.6617 m -3.4512,-0.0284 h 0.6591 m 2.1543,0 h 0.5953 m -3.3591,-0.0283 h 0.5339 m 2.3055,0 h 0.4771 m -3.2669,-0.0283 h 0.4087 m 2.4567,0 h 0.3591"  id="path188" style="stroke-linecap:round" stroke-width="0.0283465" stroke="#ffffff" gorn="0.4.0.1.22.1.0.1.1" fill="none"/>
                            </g>
                            <g  id="g196" gorn="0.4.0.1.22.1.0.2">
                                <title  id="title192">polygon</title>
                                <path d="m 15.48,26.7704 v -0.4535 m 0,0 h 0.9922 m 0,0 0.1983,-0.0568 m 0,0 0.1134,-0.1983 m 0,0 v -0.3119 m 0,0 -0.1134,-0.17 m 0,0 -0.1983,-0.0568 m 0,0 h -0.9638 m 0,0 -0.0284,-0.2267 m 0,0 v -0.2268 m 0,0 0.1984,-0.0284 m 0,0 h 1.1906 m 0,0 0.2551,-0.0283 m 0,0 0.1417,-0.1417 m 0,0 0.0284,-0.2835 m 0,0 -0.0568,-0.2551 m 0,0 -0.17,-0.1134 m 0,0 h -2.1827 m 0,0 -0.1701,0.1134 m 0,0 -0.0566,0.2267 m 0,0 v 2.6646 m 0,0 0.0283,0.2268 m 0,0 0.1417,0.1134 m 0,0 0.2835,0.0283 m 0,0 h 1.9276 m 0,0 0.1701,-0.085 m 0,0 0.085,-0.2267 m 0,0 -0.0284,-0.3119 m 0,0 -0.1134,-0.1417 m 0,0 -0.2267,-0.0567 m 0,0 H 15.48 m -0.3685,0.822 h 1.9276 M 14.828,27.5641 h 2.2678 m -2.3032,-0.0283 h 2.3598 m -2.3952,-0.0284 h 2.452 m -2.4874,-0.0283 h 2.4979 m -2.5334,-0.0284 h 2.5441 M 14.6827,27.4224 H 17.241 M 14.6792,27.394 h 2.5724 m -2.5759,-0.0283 h 2.5866 m -2.5901,-0.0284 h 2.6007 M 14.6686,27.309 h 2.6149 M 14.665,27.2807 h 2.6292 m -2.6327,-0.0284 h 2.6301 M 14.658,27.2239 h 2.631 m -2.631,-0.0283 h 2.6285 M 14.658,27.1673 h 2.6259 M 14.658,27.1389 h 2.6233 M 14.658,27.1105 h 2.6207 M 14.658,27.0822 h 2.6181 M 14.658,27.0539 h 2.6156 M 14.658,27.0255 h 2.613 m -2.613,-0.0283 h 2.6104 M 14.658,26.9688 h 2.6078 M 14.658,26.9405 h 2.5851 M 14.658,26.9122 h 2.5625 M 14.658,26.8838 h 2.5398 M 14.658,26.8554 h 2.5171 M 14.658,26.8271 h 2.4944 M 14.658,26.7988 h 2.3811 M 14.658,26.7704 H 15.48 M 14.658,26.742 H 15.48 M 14.658,26.7137 H 15.48 M 14.658,26.6854 H 15.48 M 14.658,26.657 H 15.48 M 14.658,26.6287 H 15.48 M 14.658,26.6003 H 15.48 M 14.658,26.572 h 0.822 m -0.822,-0.0284 h 0.822 m -0.822,-0.0283 h 0.822 m -0.822,-0.0284 h 0.822 m -0.822,-0.0283 h 0.822 m -0.822,-0.0283 h 0.822 m -0.822,-0.0284 h 0.822 m -0.822,-0.0284 h 0.822 m -0.822,-0.0283 h 0.822 m -0.822,-0.0283 h 1.8142 M 14.658,26.2885 h 1.9133 M 14.658,26.2601 h 2.0125 M 14.658,26.2318 h 2.0287 M 14.658,26.2035 h 2.0449 M 14.658,26.1751 h 2.0611 M 14.658,26.1468 h 2.0773 M 14.658,26.1184 h 2.0935 M 14.658,26.0901 h 2.1097 M 14.658,26.0618 h 2.1259 M 14.658,26.0334 h 2.1259 M 14.658,26.005 h 2.1259 M 14.658,25.9767 h 2.1259 M 14.658,25.9484 h 2.1259 M 14.658,25.92 h 2.1259 M 14.658,25.8916 h 2.1259 M 14.658,25.8633 h 2.1259 M 14.658,25.835 h 2.1259 M 14.658,25.8066 h 2.1259 M 14.658,25.7782 h 2.1259 M 14.658,25.7499 h 2.1259 M 14.658,25.7216 h 2.1071 M 14.658,25.6932 h 2.0881 M 14.658,25.6649 h 2.0693 M 14.658,25.6365 h 2.0503 M 14.658,25.6082 h 2.0315 M 14.658,25.5799 h 2.0125 M 14.658,25.5515 h 1.9133 M 14.658,25.5231 h 0.8504 M 14.658,25.4948 h 0.8468 M 14.658,25.4665 h 0.8432 M 14.658,25.4381 h 0.8397 M 14.658,25.4097 h 0.8362 M 14.658,25.3814 h 0.8327 M 14.658,25.3531 h 0.8291 M 14.658,25.3247 h 0.8255 M 14.658,25.2964 H 15.48 M 14.658,25.268 H 15.48 M 14.658,25.2397 H 15.48 M 14.658,25.2113 H 15.48 M 14.658,25.183 H 15.48 M 14.658,25.1546 H 15.48 M 14.658,25.1263 H 15.48 M 14.658,25.098 h 0.822 m -0.822,-0.0284 h 0.822 m -0.822,-0.0284 h 2.211 m -2.211,-0.0283 h 2.4661 M 14.658,24.9846 h 2.4944 M 14.658,24.9562 h 2.5228 M 14.658,24.9278 h 2.5512 M 14.658,24.8995 h 2.5794 M 14.658,24.8712 h 2.6078 M 14.658,24.8428 h 2.6107 M 14.658,24.8145 h 2.6135 M 14.658,24.7861 h 2.6163 M 14.658,24.7578 h 2.6192 M 14.658,24.7295 h 2.622 m -2.622,-0.0284 h 2.6248 M 14.658,24.6727 h 2.6277 M 14.658,24.6444 h 2.6305 M 14.658,24.6161 h 2.6333 M 14.658,24.5877 h 2.6362 M 14.658,24.5593 h 2.6298 M 14.665,24.531 h 2.6166 m -2.6094,-0.0283 h 2.603 m -2.596,-0.0284 H 17.269 M 14.6863,24.446 h 2.5763 m -2.5692,-0.0284 h 2.563 m -2.5559,-0.0283 h 2.5496 m -2.5425,-0.0284 h 2.5362 m -2.5292,-0.0283 h 2.5228 m -2.4802,-0.0284 h 2.4378 m -2.3953,-0.0283 h 2.3527 m -2.3102,-0.0283 h 2.2677"  id="path194" style="stroke-linecap:round" stroke-width="0.0283465" stroke="#ffffff" gorn="0.4.0.1.22.1.0.2.1" fill="none"/>
                            </g>
                            <g  id="g202" gorn="0.4.0.1.22.1.0.3">
                                <title  id="title198">polygon</title>
                                <path d="m 21.5745,24.3609 -0.1418,-0.1133 m 0,0 -0.3118,-0.0284 m 0,0 -0.1983,0.085 m 0,0 -0.4536,0.5386 m 0,0 -0.5386,0.7087 m 0,0 -0.1701,0.1134 m 0,0 -0.8504,-1.1622 m 0,0 -0.17,-0.1985 m 0,0 -0.1985,-0.085 m 0,0 H 18.258 m 0,0 -0.1985,0.1134 m 0,0 -0.0567,0.1984 m 0,0 v 2.6646 m 0,0 0.0284,0.2268 m 0,0 0.1417,0.1417 m 0,0 0.2835,0.0283 m 0,0 0.2551,-0.0566 m 0,0 0.085,-0.1701 m 0,0 v -1.7008 m 0,0 0.0567,0.0567 m 0,0 0.6237,0.8504 m 0,0 0.1984,0.1417 m 0,0 h 0.2267 m 0,0 0.2268,-0.1134 m 0,0 0.1134,-0.17 m 0,0 0.567,-0.7938 m 0,0 v 1.4457 m 0,0 0.0282,0.2551 m 0,0 0.0852,0.1985 m 0,0 0.2267,0.0566 m 0,0 h 0.2551 m 0,0 0.1701,-0.1133 m 0,0 0.0567,-0.2268 m 0,0 v -2.693 m 0,0 -0.0567,-0.1984 m -0.4252,3.2315 h 0.2551 m -3.2315,-0.0283 h 0.411 m 2.452,0 h 0.411 m -3.3023,-0.0283 h 0.5669 m 2.2111,0 h 0.5669 m -3.3733,-0.0284 h 0.6095 m 2.1847,0 h 0.6216 m -3.4442,-0.0283 h 0.6521 m 2.1583,0 h 0.6763 m -3.515,-0.0284 h 0.6945 m 2.132,0 h 0.6956 m -3.5504,-0.0283 h 0.737 m 2.1058,0 h 0.7147 M 18.0276,27.394 h 0.7548 m 2.0794,0 h 0.734 m -3.5717,-0.0283 h 0.7724 m 2.0531,0 h 0.7532 m -3.5823,-0.0284 h 0.776 m 2.0409,0 h 0.7725 M 18.017,27.309 h 0.7795 m 2.0379,0 h 0.7826 m -3.6035,-0.0283 h 0.783 m 2.0347,0 h 0.7929 m -3.6142,-0.0284 h 0.7866 m 2.0315,0 h 0.8032 m -3.6248,-0.0284 h 0.7901 m 2.0283,0 h 0.8064 m -3.6284,-0.0283 h 0.7937 m 2.0253,0 h 0.8094 m -3.6284,-0.0283 h 0.7937 m 2.0221,0 h 0.8126 m -3.6284,-0.0284 h 0.7937 m 2.0189,0 h 0.8158 m -3.6284,-0.0284 h 0.7937 m 2.0157,0 h 0.819 m -3.6284,-0.0283 h 0.7937 m 2.0127,0 h 0.822 m -3.6284,-0.0283 h 0.7937 m 2.0127,0 h 0.822 m -3.6284,-0.0284 h 0.7937 m 2.0127,0 h 0.822 m -3.6284,-0.0283 h 0.7937 m 2.0127,0 h 0.822 m -3.6284,-0.0284 h 0.7937 m 2.0127,0 h 0.822 m -3.6284,-0.0283 h 0.7937 m 2.0127,0 h 0.822 m -3.6284,-0.0283 h 0.7937 m 2.0127,0 h 0.822 m -3.6284,-0.0284 h 0.7937 m 2.0127,0 h 0.822 m -3.6284,-0.0284 h 0.7937 m 2.0127,0 h 0.822 m -3.6284,-0.0283 h 0.7937 m 2.0127,0 h 0.822 m -3.6284,-0.0283 h 0.7937 m 2.0127,0 h 0.822 m -3.6284,-0.0284 h 0.7937 m 2.0127,0 h 0.822 M 18.0028,26.742 h 0.7937 m 2.0127,0 h 0.822 m -3.6284,-0.0283 h 0.7937 m 0.8788,0 h 0.2267 m 0.9072,0 h 0.822 m -3.6284,-0.0283 h 0.7937 m 0.8391,0 h 0.3232 m 0.8504,0 h 0.822 M 18.0028,26.657 h 0.7937 m 0.7994,0 h 0.4195 m 0.7938,0 h 0.822 m -3.6284,-0.0283 h 0.7937 m 0.7597,0 h 0.516 m 0.737,0 h 0.822 m -3.6284,-0.0284 h 0.7937 m 0.72,0 h 0.6123 m 0.6804,0 h 0.822 M 18.0028,26.572 h 0.7937 m 0.6804,0 h 0.6708 m 0.6615,0 h 0.822 m -3.6284,-0.0284 h 0.7937 m 0.6596,0 h 0.7105 m 0.6426,0 h 0.822 m -3.6284,-0.0283 h 0.7937 m 0.6387,0 h 0.7503 m 0.6237,0 h 0.822 m -3.6284,-0.0284 h 0.7937 m 0.618,0 h 0.7899 m 0.6048,0 h 0.822 m -3.6284,-0.0283 h 0.7937 m 0.5972,0 h 0.8296 m 0.5859,0 h 0.822 m -3.6284,-0.0283 h 0.7937 m 0.5764,0 h 0.8693 m 0.567,0 h 0.822 m -3.6284,-0.0284 h 0.7937 m 0.5557,0 h 0.9103 m 0.5467,0 h 0.822 m -3.6284,-0.0284 h 0.7937 m 0.5349,0 h 0.9513 m 0.5265,0 h 0.822 m -3.6284,-0.0283 h 0.7937 m 0.514,0 h 0.9924 m 0.5063,0 h 0.822 m -3.6284,-0.0283 h 0.7937 m 0.4932,0 h 1.0335 m 0.486,0 h 0.822 m -3.6284,-0.0284 h 0.7937 m 0.4725,0 h 1.0745 m 0.4657,0 h 0.822 m -3.6284,-0.0284 h 0.7937 m 0.4517,0 h 1.1155 m 0.4455,0 h 0.822 m -3.6284,-0.0283 h 0.7937 m 0.4309,0 h 1.1565 m 0.4253,0 h 0.822 m -3.6284,-0.0283 h 0.7937 m 0.4101,0 h 1.1976 m 0.405,0 h 0.822 m -3.6284,-0.0284 h 0.7937 m 0.3893,0 h 1.2387 m 0.3847,0 h 0.822 m -3.6284,-0.0283 h 0.7937 m 0.3685,0 h 1.2797 m 0.3645,0 h 0.822 m -3.6284,-0.0284 h 0.7937 m 0.3477,0 h 1.3207 m 0.3443,0 h 0.822 m -3.6284,-0.0283 h 0.7937 m 0.327,0 h 1.3617 m 0.324,0 h 0.822 m -3.6284,-0.0283 h 0.7937 m 0.3062,0 h 1.4027 m 0.3038,0 h 0.822 m -3.6284,-0.0284 h 0.7937 m 0.2854,0 h 1.4438 m 0.2835,0 h 0.822 M 18.0028,26.005 h 0.7937 m 0.2646,0 h 1.4848 m 0.2633,0 h 0.822 m -3.6284,-0.0283 h 0.7937 m 0.2438,0 h 1.5259 m 0.243,0 h 0.822 m -3.6284,-0.0283 h 0.7937 m 0.223,0 h 1.5669 m 0.2228,0 h 0.822 M 18.0028,25.92 h 0.7937 m 0.2022,0 h 1.6079 m 0.2026,0 h 0.822 m -3.6284,-0.0284 h 0.7937 m 0.1815,0 h 1.6489 m 0.1823,0 h 0.822 m -3.6284,-0.0283 h 0.7937 m 0.1607,0 h 1.69 m 0.162,0 h 0.822 M 18.0028,25.835 h 0.7937 m 0.1399,0 h 1.731 m 0.1418,0 h 0.822 m -3.6284,-0.0284 h 0.7937 m 0.1191,0 h 1.772 m 0.1216,0 h 0.822 m -3.6284,-0.0284 h 0.7937 m 0.0983,0 h 1.8131 m 0.1013,0 h 0.822 m -3.6284,-0.0283 h 0.7937 m 0.0775,0 h 1.8542 m 0.081,0 h 0.822 m -3.6284,-0.0283 h 0.7937 m 0.0567,0 h 1.8952 m 0.0608,0 h 0.822 m -3.6284,-0.0284 h 0.7937 m 0.0284,0 h 1.9437 m 0.0406,0 h 0.822 m -3.6284,-0.0283 h 1.7575 m 0,0 h 1.0285 m 0.0204,0 h 0.822 m -3.6284,-0.0284 h 1.7368 m 0.0632,0 h 1.8284 m -3.6284,-0.0283 h 1.7161 m 0.1265,0 h 1.7858 m -3.6284,-0.0283 h 1.6953 m 0.1897,0 h 1.7434 m -3.6284,-0.0284 h 1.6746 m 0.253,0 h 1.7008 m -3.6284,-0.0284 h 1.6538 m 0.2953,0 h 1.6793 m -3.6284,-0.0283 h 1.633 m 0.3376,0 h 1.6578 m -3.6284,-0.0283 h 1.6123 m 0.3799,0 h 1.6362 m -3.6284,-0.0284 h 1.5916 m 0.4222,0 h 1.6146 m -3.6284,-0.0284 h 1.5708 m 0.4645,0 h 1.5931 m -3.6284,-0.0283 h 1.5501 m 0.5067,0 h 1.5716 m -3.6284,-0.0283 h 1.5294 m 0.549,0 h 1.55 m -3.6284,-0.0284 h 1.5086 m 0.5914,0 h 1.5284 m -3.6284,-0.0283 h 1.4879 m 0.6336,0 h 1.5069 M 18.0028,25.268 H 19.47 m 0.6758,0 h 1.4854 m -3.6284,-0.0283 h 1.4464 m 0.7181,0 h 1.4639 m -3.6284,-0.0284 h 1.4257 m 0.7604,0 h 1.4423 M 18.0028,25.183 h 1.4049 m 0.8028,0 h 1.4207 m -3.6284,-0.0284 h 1.3842 m 0.845,0 h 1.3992 m -3.6284,-0.0283 h 1.3635 m 0.8872,0 h 1.3777 M 18.0028,25.098 h 1.3427 m 0.9296,0 h 1.3561 m -3.6284,-0.0284 h 1.3219 m 0.972,0 h 1.3345 m -3.6284,-0.0284 h 1.3012 m 1.0142,0 h 1.313 m -3.6284,-0.0283 h 1.2805 m 1.0564,0 h 1.2915 m -3.6284,-0.0283 h 1.2597 m 1.0987,0 h 1.27 m -3.6284,-0.0284 h 1.239 m 1.141,0 h 1.2484 m -3.6284,-0.0284 h 1.2182 m 1.1834,0 h 1.2268 m -3.6284,-0.0283 h 1.1975 m 1.2256,0 h 1.2053 m -3.6284,-0.0283 h 1.1768 m 1.2678,0 h 1.1838 m -3.6284,-0.0284 h 1.156 m 1.3102,0 h 1.1622 m -3.6284,-0.0283 h 1.1353 m 1.3548,0 h 1.1383 m -3.6284,-0.0284 h 1.1146 m 1.3993,0 h 1.1145 m -3.6284,-0.0283 h 1.0938 m 1.444,0 h 1.0906 m -3.6284,-0.0283 h 1.073 m 1.4886,0 h 1.0668 m -3.6284,-0.0284 h 1.0523 m 1.5332,0 h 1.0429 m -3.6284,-0.0284 h 1.0316 m 1.5778,0 h 1.019 m -3.6284,-0.0283 h 1.0108 m 1.6225,0 h 0.9951 m -3.6284,-0.0283 h 0.9901 m 1.6671,0 h 0.9712 m -3.6284,-0.0284 h 0.9693 m 1.7117,0 h 0.9474 m -3.6284,-0.0284 h 0.9486 m 1.7563,0 h 0.9235 M 18.0028,24.531 h 0.9279 m 1.8008,0 h 0.8916 m -3.6122,-0.0283 h 0.899 m 1.8455,0 h 0.8596 m -3.596,-0.0284 h 0.8666 m 1.8937,0 h 0.8276 M 18.0271,24.446 h 0.8342 m 1.9419,0 h 0.7956 m -3.5636,-0.0284 h 0.8018 m 1.9901,0 h 0.7636 m -3.5474,-0.0283 h 0.7694 m 2.0382,0 h 0.7317 m -3.5312,-0.0284 h 0.7371 m 2.0863,0 h 0.6997 m -3.515,-0.0283 h 0.7046 m 2.1345,0 h 0.6405 m -3.4299,-0.0284 h 0.6307 m 2.1827,0 h 0.581 m -3.3448,-0.0283 h 0.5149 m 2.3149,0 h 0.4796 m -3.2598,-0.0283 h 0.3991 m 2.4473,0 h 0.3779"  id="path200" style="stroke-linecap:round" stroke-width="0.0283465" stroke="#ffffff" gorn="0.4.0.1.22.1.0.3.1" fill="none"/>
                            </g>
                            <g  id="g208" gorn="0.4.0.1.22.1.0.4">
                                <title  id="title204">polygon</title>
                                <path d="m 22.3965,27.0822 0.1417,0.1417 m 0,0 0.1985,0.1701 m 0,0 0.2268,0.1134 m 0,0 0.2268,0.0567 m 0,0 0.2267,0.0283 m 0,0 h 0.2552 m 0,0 0.2267,-0.0566 m 0,0 0.2268,-0.0851 m 0,0 0.1984,-0.1134 m 0,0 0.1701,-0.1417 m 0,0 0.1417,-0.2268 m 0,0 0.0567,-0.1984 m 0,0 0.0283,-0.2551 m 0,0 v -0.2552 m 0,0 -0.085,-0.2267 m 0,0 -0.1417,-0.1984 m 0,0 -0.1701,-0.1418 m 0,0 -0.1984,-0.085 m 0,0 -0.2552,-0.0851 m 0,0 -0.4535,-0.1134 m 0,0 -0.1984,-0.1133 m 0,0 -0.0567,-0.2268 m 0,0 0.1417,-0.1701 m 0,0 0.2268,-0.0283 m 0,0 0.2268,0.085 m 0,0 0.1984,0.1418 m 0,0 0.1984,0.0283 m 0,0 0.1984,-0.1417 m 0,0 0.1702,-0.2268 m 0,0 v -0.1701 m 0,0 -0.1702,-0.1984 m 0,0 -0.17,-0.1134 m 0,0 -0.2551,-0.0851 m 0,0 -0.2268,-0.0566 m 0,0 h -0.5102 m 0,0 -0.2268,0.085 m 0,0 -0.1985,0.085 m 0,0 -0.17,0.1701 m 0,0 -0.1418,0.1984 m 0,0 -0.085,0.1985 m 0,0 -0.0283,0.2551 m 0,0 0.0283,0.2268 m 0,0 0.0567,0.2268 m 0,0 0.1417,0.1983 m 0,0 0.1701,0.1702 m 0,0 0.2268,0.085 m 0,0 0.2268,0.085 m 0,0 0.2267,0.0851 m 0,0 0.2268,0.0283 m 0,0 0.1984,0.1134 m 0,0 0.0567,0.2268 m 0,0 -0.085,0.17 m 0,0 -0.2268,0.0851 m 0,0 -0.2551,-0.0283 m 0,0 -0.1985,-0.1418 m 0,0 -0.2267,-0.1701 m 0,0 -0.1701,-0.085 m 0,0 -0.2268,0.0567 m 0,0 -0.17,0.2268 m 0,0 -0.0568,0.17 m 0,0 0.1134,0.2268 m 1.0205,0.5102 h 0.2552 m -0.4819,-0.0283 h 0.5952 m -0.7086,-0.0283 h 0.822 m -0.9354,-0.0284 h 1.011 m -1.0677,-0.0283 h 1.1433 m -1.2,-0.0284 h 1.2756 m -1.3323,-0.0283 h 1.3819 M 22.7367,27.394 h 1.4882 m -1.5213,-0.0283 h 1.5709 m -1.6039,-0.0284 h 1.6535 M 22.6374,27.309 h 1.7207 m -1.7537,-0.0283 h 1.7878 m -1.8208,-0.0284 h 1.8547 m -1.8879,-0.0284 h 1.9219 m -1.9502,-0.0283 h 1.9843 m -2.0126,-0.0283 h 2.0303 m -2.0587,-0.0284 h 2.0764 m -2.1047,-0.0284 h 2.1224 m -2.1508,-0.0283 h 2.1685 m -2.1826,-0.0283 h 2.2003 m -2.2145,-0.0284 h 2.2323 M 22.354,26.9972 h 2.2642 m -2.2783,-0.0284 h 2.296 m -2.3102,-0.0283 h 2.3183 m -2.3325,-0.0283 h 2.3406 m -2.3548,-0.0284 h 2.3629 m -2.3771,-0.0284 h 2.3852 m -2.3757,-0.0283 h 1.2945 m 0,0 h 1.0893 m -2.3743,-0.0283 h 1.0299 m 0.3307,0 h 1.0218 m -2.373,-0.0284 h 0.9808 m 0.446,0 h 0.9543 M 22.3209,26.742 h 0.9317 m 0.5613,0 h 0.8818 m -2.3653,-0.0283 h 0.8825 m 0.6151,0 h 0.8709 m -2.359,-0.0283 h 0.8333 m 0.669,0 H 24.702 M 22.3611,26.657 h 0.7724 m 0.7229,0 h 0.8488 m -2.3228,-0.0283 h 0.7133 m 0.7748,0 h 0.8378 m -2.3047,-0.0284 h 0.6543 m 0.8268,0 h 0.8268 M 22.4249,26.572 h 0.5952 m 0.8788,0 h 0.8157 m -2.2685,-0.0284 h 0.5363 m 0.9094,0 h 0.826 m -2.2504,-0.0283 h 0.4772 m 0.9401,0 h 0.8362 m -2.2322,-0.0284 h 0.4181 m 0.9708,0 h 0.8433 m -2.211,-0.0283 h 0.3402 m 1.0204,0 h 0.8504 m -2.0976,-0.0283 h 0.1701 m 1.0701,0 h 0.8574 m -0.8645,-0.0284 h 0.8645 m -0.8716,-0.0284 h 0.8716 m -0.8787,-0.0283 h 0.8787 m -0.9283,-0.0283 h 0.9283 M 23.743,26.2885 h 0.9779 m -1.0275,-0.0284 h 1.0275 m -1.0771,-0.0283 h 1.0665 M 23.417,26.2035 h 1.2827 m -1.3583,-0.0284 h 1.3477 m -1.4233,-0.0283 h 1.4126 m -1.4881,-0.0284 h 1.4775 m -1.5531,-0.0283 h 1.5425 m -1.6181,-0.0283 h 1.6074 m -1.683,-0.0284 h 1.6724 m -1.748,-0.0284 h 1.7277 m -1.8033,-0.0283 h 1.7831 m -1.8587,-0.0283 h 1.8385 M 22.7084,25.92 H 24.555 M 22.68,25.8916 h 1.8546 m -1.883,-0.0283 h 1.8628 M 22.6233,25.835 h 1.8709 M 22.595,25.8066 h 1.8651 m -1.8935,-0.0284 h 1.8595 m -1.8797,-0.0283 h 1.8458 m -1.8661,-0.0283 h 1.832 m -1.8523,-0.0284 h 1.8183 m -1.8385,-0.0283 h 1.7724 m -1.7926,-0.0284 h 1.7264 m -1.7467,-0.0283 h 1.6806 m -1.7008,-0.0283 h 1.6158 m -1.6229,-0.0284 h 1.5378 m -1.5449,-0.0284 h 1.4598 m -1.4669,-0.0283 h 1.3536 m -1.3607,-0.0283 h 1.2473 m -1.2543,-0.0284 h 1.1409 m -1.148,-0.0284 h 1.0346 m -1.0417,-0.0283 h 0.9921 m -0.9992,-0.0283 h 0.9496 m -0.9532,-0.0284 h 0.9036 m -0.9071,-0.0283 h 0.8575 m -0.861,-0.0284 h 0.8539 M 22.354,25.2397 h 0.8504 m -0.8539,-0.0284 h 0.8468 M 22.3469,25.183 h 0.8434 m -0.8469,-0.0284 h 0.8397 m -0.8432,-0.0283 h 0.8362 M 22.343,25.098 h 0.826 m 0.7866,0 h 0.2381 m -1.8476,-0.0284 h 0.8158 m 0.754,0 h 0.3175 m -1.8841,-0.0284 h 0.8362 m 0.6907,0 h 0.3969 m -1.9206,-0.0283 h 0.8566 m 0.6274,0 h 0.4762 m -1.9571,-0.0283 h 0.8771 m 0.5642,0 h 0.5555 m -1.9937,-0.0284 h 0.8977 m 0.5008,0 h 0.6165 M 22.3619,24.9278 H 23.28 m 0.4016,0 h 0.7134 m -2.0299,-0.0283 h 0.9385 m 0.3024,0 h 0.8102 m -2.048,-0.0283 h 2.0692 m -2.0571,-0.0284 h 2.0785 M 22.3925,24.8145 H 24.48 m -2.0753,-0.0284 h 2.0965 m -2.0844,-0.0283 h 2.1058 m -2.0937,-0.0283 h 2.0937 m -2.0815,-0.0284 h 2.0815 m -2.0694,-0.0284 h 2.0694 m -2.0491,-0.0283 h 2.0491 m -2.0289,-0.0283 h 2.0289 M 22.514,24.5877 h 2.0086 m -1.9884,-0.0284 h 1.964 M 22.5545,24.531 h 1.9195 m -1.8993,-0.0283 h 1.8749 M 22.595,24.4743 h 1.8304 M 22.6233,24.446 h 1.7777 m -1.7494,-0.0284 h 1.7252 M 22.68,24.3893 h 1.6724 m -1.644,-0.0284 h 1.6015 m -1.5732,-0.0283 h 1.5307 M 22.765,24.3042 h 1.4599 m -1.3937,-0.0283 h 1.3512 m -1.2851,-0.0283 h 1.2 m -1.1338,-0.0284 h 1.0488 m -0.9732,-0.0284 h 0.8882 m -0.8126,-0.0282 h 0.6992"  id="path206" style="stroke-linecap:round" stroke-width="0.0283465" stroke="#ffffff" gorn="0.4.0.1.22.1.0.4.1" fill="none"/>
                            </g>
                            <g  id="g214" gorn="0.4.0.1.22.1.0.5">
                                <title  id="title210">polygon</title>
                                <path d="m 30.3052,24.3609 -0.1417,-0.1133 m 0,0 -0.3119,-0.0284 m 0,0 -0.2267,0.085 m 0,0 -0.4536,0.5386 m 0,0 -0.5102,0.7087 m 0,0 -0.1984,0.1134 m 0,0 -0.8504,-1.1622 m 0,0 -0.1418,-0.1985 m 0,0 -0.2267,-0.085 m 0,0 h -0.2835 m 0,0 -0.17,0.1134 m 0,0 -0.0568,0.1984 m 0,0 v 2.8914 m 0,0 0.1418,0.1417 m 0,0 0.3118,0.0283 m 0,0 0.2268,-0.0566 m 0,0 0.1134,-0.1701 m 0,0 v -1.7008 m 0,0 0.0566,0.0567 m 0,0 0.6237,0.8504 m 0,0 0.17,0.1417 m 0,0 h 0.2551 m 0,0 0.1985,-0.1134 m 0,0 0.1134,-0.17 m 0,0 0.5953,-0.7938 m 0,0 v 1.7008 m 0,0 0.085,0.1985 m 0,0 0.2267,0.0566 m 0,0 h 0.2552 m 0,0 0.1701,-0.1133 m 0,0 0.0566,-0.2268 m 0,0 0.0284,-2.693 m 0,0 -0.0567,-0.1984 m -0.4536,3.2315 h 0.2552 m -3.2315,-0.0283 h 0.4252 m 2.4377,0 h 0.4111 m -3.3024,-0.0283 h 0.567 m 2.211,0 h 0.5669 m -3.3732,-0.0284 h 0.6141 m 2.18,0 h 0.6216 m -3.444,-0.0283 h 0.6614 m 2.1489,0 h 0.6763 m -3.515,-0.0284 h 0.7086 m 2.1179,0 h 0.6955 m -3.5504,-0.0283 h 0.756 m 2.0868,0 H 30.291 M 26.7335,27.394 h 0.7748 m 2.0558,0 h 0.734 m -3.5646,-0.0283 h 0.7938 m 2.0247,0 h 0.7532 m -3.5717,-0.0284 h 0.7938 m 2.0126,0 h 0.7724 M 26.7335,27.309 h 0.7938 m 2.0126,0 h 0.7794 m -3.5858,-0.0283 h 0.7938 m 2.0126,0 h 0.7866 m -3.593,-0.0284 h 0.7938 m 2.0126,0 h 0.7936 m -3.6,-0.0284 h 0.7938 m 2.0126,0 h 0.7939 m -3.6003,-0.0283 h 0.7938 m 2.0126,0 h 0.7942 m -3.6006,-0.0283 h 0.7938 m 2.0126,0 h 0.7946 m -3.601,-0.0284 h 0.7938 m 2.0126,0 h 0.7949 m -3.6013,-0.0284 h 0.7938 m 2.0126,0 h 0.7951 m -3.6015,-0.0283 h 0.7938 m 2.0126,0 h 0.7954 m -3.6018,-0.0283 h 0.7938 m 2.0126,0 h 0.7957 m -3.6021,-0.0284 h 0.7938 m 2.0126,0 h 0.796 m -3.6024,-0.0283 h 0.7938 m 2.0126,0 h 0.7963 m -3.6027,-0.0284 h 0.7938 m 2.0126,0 h 0.7967 m -3.6031,-0.0283 h 0.7938 m 2.0126,0 h 0.7969 m -3.6033,-0.0283 h 0.7938 m 2.0126,0 h 0.7972 m -3.6036,-0.0284 h 0.7938 m 2.0126,0 h 0.7975 m -3.6039,-0.0284 h 0.7938 m 2.0126,0 h 0.7978 m -3.6042,-0.0283 h 0.7938 m 2.0126,0 h 0.7981 m -3.6045,-0.0283 h 0.7938 m 2.0126,0 h 0.7984 m -3.6048,-0.0284 h 0.7938 m 2.0126,0 h 0.7987 M 26.7335,26.742 h 0.7938 m 2.0126,0 h 0.799 m -3.6054,-0.0283 h 0.7938 m 0.8503,0 h 0.2551 m 0.9072,0 h 0.7993 m -3.6057,-0.0283 h 0.7938 m 0.8163,0 h 0.3388 m 0.8575,0 h 0.7996 m -3.606,-0.0284 h 0.7938 m 0.7823,0 h 0.4224 m 0.8079,0 h 0.7999 m -3.6063,-0.0283 h 0.7938 m 0.7483,0 h 0.506 m 0.7583,0 h 0.8002 m -3.6066,-0.0284 h 0.7938 m 0.7143,0 h 0.5896 m 0.7087,0 h 0.8005 M 26.7335,26.572 h 0.7938 m 0.6803,0 H 28.85 m 0.6899,0 h 0.8008 m -3.6072,-0.0284 h 0.7938 m 0.6595,0 h 0.6822 m 0.6709,0 h 0.8011 m -3.6075,-0.0283 h 0.7938 m 0.6387,0 h 0.7218 m 0.6521,0 h 0.8014 m -3.6078,-0.0284 h 0.7938 m 0.6179,0 h 0.7616 m 0.6331,0 h 0.8017 m -3.6081,-0.0283 h 0.7938 m 0.5971,0 h 0.8012 m 0.6143,0 h 0.802 m -3.6084,-0.0283 h 0.7938 m 0.5763,0 h 0.841 m 0.5953,0 h 0.8023 m -3.6087,-0.0284 h 0.7938 m 0.5555,0 h 0.883 m 0.5741,0 h 0.8026 m -3.609,-0.0284 h 0.7938 m 0.5348,0 h 0.925 m 0.5528,0 h 0.8029 m -3.6093,-0.0283 h 0.7938 m 0.514,0 h 0.9671 m 0.5315,0 h 0.8032 m -3.6096,-0.0283 h 0.7938 m 0.4932,0 h 1.0091 m 0.5103,0 h 0.8035 m -3.6099,-0.0284 h 0.7938 m 0.4723,0 h 1.0512 m 0.4891,0 h 0.8038 m -3.6102,-0.0284 h 0.7938 m 0.4516,0 h 1.0933 m 0.4677,0 h 0.8041 m -3.6105,-0.0283 h 0.7938 m 0.4308,0 h 1.1353 m 0.4465,0 h 0.8044 m -3.6108,-0.0283 h 0.7938 m 0.41,0 h 1.1773 m 0.4253,0 h 0.8047 m -3.6111,-0.0284 h 0.7938 m 0.3893,0 h 1.2193 m 0.404,0 h 0.805 m -3.6114,-0.0283 h 0.7938 m 0.3685,0 h 1.2614 m 0.3827,0 h 0.8053 m -3.6117,-0.0284 h 0.7938 m 0.3476,0 h 1.3035 m 0.3615,0 h 0.8056 m -3.612,-0.0283 h 0.7938 m 0.3268,0 h 1.3456 m 0.3402,0 h 0.8059 m -3.6123,-0.0283 h 0.7938 m 0.3061,0 h 1.3875 m 0.319,0 h 0.8062 m -3.6126,-0.0284 h 0.7938 m 0.2853,0 h 1.4296 m 0.2977,0 h 0.8064 M 26.7335,26.005 h 0.7938 m 0.2645,0 h 1.4717 m 0.2764,0 h 0.8068 m -3.6132,-0.0283 h 0.7938 m 0.2437,0 h 1.5137 m 0.2552,0 h 0.8071 m -3.6135,-0.0283 h 0.7938 m 0.2229,0 h 1.5558 m 0.2339,0 h 0.8074 M 26.7335,25.92 h 0.7938 m 0.2021,0 h 1.5979 m 0.2126,0 h 0.8077 m -3.6141,-0.0284 h 0.7938 m 0.1814,0 h 1.6398 m 0.1914,0 h 0.808 m -3.6144,-0.0283 h 0.7938 m 0.1606,0 h 1.6818 m 0.1702,0 h 0.8082 M 26.7335,25.835 h 0.7938 m 0.1398,0 h 1.7239 m 0.1489,0 h 0.8085 m -3.6149,-0.0284 h 0.7938 m 0.119,0 h 1.766 m 0.1276,0 h 0.8088 m -3.6152,-0.0284 h 0.7938 m 0.0982,0 h 1.808 m 0.1064,0 h 0.8092 m -3.6156,-0.0283 h 0.7938 m 0.0774,0 h 1.8501 m 0.0851,0 h 0.8095 m -3.6159,-0.0283 h 0.7938 m 0.0566,0 h 1.8922 m 0.0638,0 h 0.8098 m -3.6162,-0.0284 h 0.7938 m 0.0283,0 h 1.9417 m 0.0426,0 h 0.81 m -3.6164,-0.0283 h 1.7292 m 0,0 h 1.0559 m 0.0213,0 h 0.8103 m -3.6167,-0.0284 h 1.7084 m 0.0704,0 h 1.8382 m -3.617,-0.0283 h 1.6877 m 0.1407,0 h 1.7889 m -3.6173,-0.0283 h 1.667 m 0.211,0 h 1.7397 m -3.6177,-0.0284 h 1.6462 m 0.2814,0 h 1.6904 m -3.618,-0.0284 h 1.6255 m 0.3225,0 h 1.6702 m -3.6182,-0.0283 h 1.6048 m 0.3636,0 h 1.6501 m -3.6185,-0.0283 h 1.584 m 0.4048,0 h 1.63 m -3.6188,-0.0284 h 1.5632 m 0.4461,0 h 1.6098 m -3.6191,-0.0284 h 1.5425 m 0.4871,0 h 1.5899 m -3.6195,-0.0283 h 1.5217 m 0.5284,0 h 1.5697 m -3.6198,-0.0283 h 1.501 m 0.5695,0 h 1.5495 m -3.62,-0.0284 h 1.4803 m 0.6106,0 h 1.5294 m -3.6203,-0.0283 h 1.4595 m 0.6518,0 h 1.5093 M 26.7335,25.268 h 1.4388 m 0.6929,0 h 1.4892 m -3.6209,-0.0283 h 1.4181 m 0.734,0 h 1.4691 m -3.6212,-0.0284 h 1.3973 m 0.7752,0 h 1.4491 M 26.7335,25.183 h 1.3766 m 0.8163,0 h 1.4289 m -3.6218,-0.0284 h 1.3559 m 0.8574,0 h 1.4088 m -3.6221,-0.0283 h 1.3351 m 0.8987,0 h 1.3886 M 26.7335,25.098 h 1.3144 m 0.9397,0 h 1.3686 m -3.6227,-0.0284 h 1.2937 m 0.9809,0 h 1.3484 m -3.623,-0.0284 h 1.2728 m 1.0222,0 h 1.3283 m -3.6233,-0.0283 h 1.2521 m 1.0633,0 h 1.3082 m -3.6236,-0.0283 h 1.2314 m 1.1044,0 h 1.2881 m -3.6239,-0.0284 h 1.2106 m 1.1456,0 h 1.268 m -3.6242,-0.0284 h 1.1899 m 1.1867,0 h 1.2479 m -3.6245,-0.0283 h 1.1692 m 1.2279,0 h 1.2277 m -3.6248,-0.0283 h 1.1484 m 1.269,0 h 1.2077 m -3.6251,-0.0284 h 1.1277 m 1.3101,0 h 1.1876 m -3.6254,-0.0283 h 1.107 m 1.3547,0 h 1.164 m -3.6257,-0.0284 h 1.0862 m 1.3994,0 h 1.1404 m -3.626,-0.0283 h 1.0655 m 1.4439,0 h 1.1169 m -3.6263,-0.0283 h 1.0447 m 1.4886,0 h 1.0933 m -3.6266,-0.0284 h 1.024 m 1.5332,0 h 1.0697 m -3.6269,-0.0284 h 1.0032 m 1.5779,0 h 1.0461 m -3.6272,-0.0283 h 0.9825 m 1.6224,0 h 1.0226 m -3.6275,-0.0283 h 0.9617 m 1.6671,0 h 0.999 m -3.6278,-0.0284 h 0.941 m 1.7117,0 h 0.9754 m -3.6281,-0.0284 h 0.9203 m 1.7563,0 h 0.9518 M 26.7335,24.531 h 0.8995 m 1.801,0 h 0.9198 m -3.6121,-0.0283 h 0.8706 m 1.8455,0 h 0.8879 m -3.596,-0.0284 h 0.8424 m 1.8896,0 h 0.8559 M 26.7579,24.446 h 0.8139 m 1.9337,0 h 0.824 m -3.5636,-0.0284 h 0.7856 m 1.9779,0 h 0.792 m -3.5473,-0.0283 h 0.7572 m 2.022,0 h 0.76 m -3.5312,-0.0284 h 0.729 m 2.0661,0 h 0.728 m -3.5149,-0.0283 h 0.7005 m 2.1102,0 h 0.6687 m -3.437,-0.0284 h 0.6378 m 2.1544,0 h 0.6094 m -3.359,-0.0283 h 0.5197 m 2.3055,0 h 0.4984 m -3.2811,-0.0283 h 0.4016 m 2.4566,0 h 0.3875"  id="path212" style="stroke-linecap:round" stroke-width="0.0283465" stroke="#ffffff" gorn="0.4.0.1.22.1.0.5.1" fill="none"/>
                            </g>
                            <g  id="g220" gorn="0.4.0.1.22.1.0.6">
                                <title  id="title216">polygon</title>
                                <path d="m 31.0705,25.7499 v 1.4457 m 0,0 0.0284,0.2268 m 0,0 0.1418,0.1417 m 0,0 0.3117,0.0283 m 0,0 0.2268,-0.0566 m 0,0 0.085,-0.1985 m 0,0 v -1.9276 m 0,0 -0.1134,-0.1984 m 0,0 -0.2267,-0.0283 m 0,0 -0.3118,0.0283 m 0,0 -0.1418,0.1418 m 0,0 v 0.2268 m 0,0 v 0.17 m 0.1702,1.8142 h 0.4251 m -0.4535,-0.0283 h 0.5669 m -0.5953,-0.0284 h 0.6075 m -0.6358,-0.0283 h 0.6479 m -0.6762,-0.0284 h 0.6883 m -0.7167,-0.0283 h 0.7289 M 31.0954,27.394 H 31.84 m -0.7482,-0.0283 h 0.7603 m -0.7639,-0.0284 h 0.776 M 31.0847,27.309 h 0.7795 m -0.783,-0.0283 h 0.783 m -0.7866,-0.0284 h 0.7866 m -0.7901,-0.0284 h 0.7901 m -0.7937,-0.0283 h 0.7937 m -0.7937,-0.0283 h 0.7937 m -0.7937,-0.0284 h 0.7937 m -0.7937,-0.0284 h 0.7937 m -0.7937,-0.0283 h 0.7937 m -0.7937,-0.0283 h 0.7937 m -0.7937,-0.0284 h 0.7937 m -0.7937,-0.0283 h 0.7937 m -0.7937,-0.0284 h 0.7937 m -0.7937,-0.0283 h 0.7937 m -0.7937,-0.0283 h 0.7937 m -0.7937,-0.0284 h 0.7937 m -0.7937,-0.0284 h 0.7937 m -0.7937,-0.0283 h 0.7937 m -0.7937,-0.0283 h 0.7937 m -0.7937,-0.0284 h 0.7937 M 31.0705,26.742 h 0.7937 m -0.7937,-0.0283 h 0.7937 m -0.7937,-0.0283 h 0.7937 M 31.0705,26.657 h 0.7937 m -0.7937,-0.0283 h 0.7937 m -0.7937,-0.0284 h 0.7937 M 31.0705,26.572 h 0.7937 m -0.7937,-0.0284 h 0.7937 m -0.7937,-0.0283 h 0.7937 m -0.7937,-0.0284 h 0.7937 m -0.7937,-0.0283 h 0.7937 m -0.7937,-0.0283 h 0.7937 m -0.7937,-0.0284 h 0.7937 m -0.7937,-0.0284 h 0.7937 m -0.7937,-0.0283 h 0.7937 m -0.7937,-0.0283 h 0.7937 m -0.7937,-0.0284 h 0.7937 m -0.7937,-0.0284 h 0.7937 m -0.7937,-0.0283 h 0.7937 m -0.7937,-0.0283 h 0.7937 m -0.7937,-0.0284 h 0.7937 m -0.7937,-0.0283 h 0.7937 m -0.7937,-0.0284 h 0.7937 m -0.7937,-0.0283 h 0.7937 m -0.7937,-0.0283 h 0.7937 m -0.7937,-0.0284 h 0.7937 M 31.0705,26.005 h 0.7937 m -0.7937,-0.0283 h 0.7937 m -0.7937,-0.0283 h 0.7937 M 31.0705,25.92 h 0.7937 m -0.7937,-0.0284 h 0.7937 m -0.7937,-0.0283 h 0.7937 M 31.0705,25.835 h 0.7937 m -0.7937,-0.0284 h 0.7937 m -0.7937,-0.0284 h 0.7937 m -0.7937,-0.0283 h 0.7937 m -0.7937,-0.0283 h 0.7937 m -0.7937,-0.0284 h 0.7937 m -0.7937,-0.0283 h 0.7937 m -0.7937,-0.0284 h 0.7937 m -0.7937,-0.0283 h 0.7937 m -0.7937,-0.0283 h 0.7937 m -0.7937,-0.0284 h 0.7937 m -0.7937,-0.0284 h 0.7937 m -0.7937,-0.0283 h 0.7937 m -0.7937,-0.0283 h 0.7937 m -0.7937,-0.0284 h 0.7937 m -0.7937,-0.0284 h 0.7937 m -0.7937,-0.0283 h 0.7775 m -0.7775,-0.0283 h 0.7613 m -0.7329,-0.0284 h 0.7167 m -0.6883,-0.0283 h 0.6721 M 31.1556,25.268 h 0.6276 m -0.5993,-0.0283 h 0.5831 m -0.5547,-0.0284 h 0.5385"  id="path218" style="stroke-linecap:round" stroke-width="0.0283465" stroke="#ffffff" gorn="0.4.0.1.22.1.0.6.1" fill="none"/>
                            </g>
                            <g  id="g226" gorn="0.4.0.1.22.1.0.7">
                                <title  id="title222">polygon</title>
                                <path d="m 31.7792,24.7861 0.085,-0.1984 m 0,0 v -0.2835 m 0,0 -0.085,-0.17 m 0,0 -0.2268,-0.085 m 0,0 -0.3117,0.0282 m 0,0 -0.1418,0.1134 m 0,0 -0.0284,0.2268 m 0,0 v 0.2268 m 0,0 0.1702,0.1701 m 0,0 0.2551,0.0283 m 0,0 0.2268,-0.0283 m 0,0 0.0566,-0.0284 m -0.5385,0.0284 h 0.4819 m -0.5103,-0.0284 h 0.5669 m -0.5953,-0.0283 h 0.6075 m -0.6358,-0.0283 h 0.6479 m -0.6762,-0.0284 h 0.6883 m -0.7167,-0.0284 h 0.7289 M 31.0705,24.6444 H 31.84 m -0.7695,-0.0283 h 0.7816 m -0.7816,-0.0284 h 0.7937 m -0.7937,-0.0284 h 0.7937 M 31.0705,24.531 h 0.7937 m -0.7937,-0.0283 h 0.7937 m -0.7937,-0.0284 h 0.7937 M 31.0705,24.446 h 0.7937 m -0.7937,-0.0284 h 0.7937 m -0.7901,-0.0283 h 0.7901 m -0.7866,-0.0284 h 0.7866 m -0.783,-0.0283 h 0.783 m -0.7795,-0.0284 h 0.7795 m -0.776,-0.0283 h 0.7619 m -0.7583,-0.0283 h 0.7441 m -0.7405,-0.0284 h 0.7264 m -0.7229,-0.0284 h 0.7087 m -0.6733,-0.0282 h 0.6591 m -0.6237,-0.0284 h 0.6095 m -0.574,-0.0284 h 0.4984 m -0.4629,-0.0284 h 0.3873"  id="path224" style="stroke-linecap:round" stroke-width="0.0283465" stroke="#ffffff" gorn="0.4.0.1.22.1.0.7.1" fill="none"/>
                            </g>
                            <g  id="g232" gorn="0.4.0.1.22.1.0.8">
                                <title  id="title228">polygon</title>
                                <path d="m 33.3099,26.572 0.0283,-0.2551 m 0,0 0.0568,-0.2268 m 0,0 0.1984,-0.1134 m 0,0 0.2551,-0.0283 m 0,0 0.2268,0.1134 m 0,0 0.1984,0.085 m 0,0 0.1701,-0.1418 m 0,0 0.1701,-0.2268 m 0,0 0.0283,-0.2267 m 0,0 -0.1417,-0.1701 m 0,0 -0.1985,-0.1417 m 0,0 -0.2551,-0.0851 m 0,0 -0.2268,-0.0283 m 0,0 h -0.2267 m 0,0 -0.2552,0.0567 m 0,0 -0.1983,0.1134 m 0,0 -0.2268,0.1417 m 0,0 -0.1418,0.1701 m 0,0 -0.1417,0.1984 m 0,0 -0.085,0.2268 m 0,0 -0.0284,0.2551 m 0,0 v 0.2268 m 0,0 0.0567,0.2267 m 0,0 0.1134,0.2268 m 0,0 0.1417,0.1985 m 0,0 0.1701,0.17 m 0,0 0.2268,0.1418 m 0,0 0.1984,0.085 m 0,0 0.2268,0.0283 m 0,0 h 0.2551 m 0,0 0.2551,-0.0566 m 0,0 0.1985,-0.0851 m 0,0 0.1984,-0.17 m 0,0 0.085,-0.1985 m 0,0 -0.085,-0.2268 m 0,0 -0.1984,-0.1984 m 0,0 -0.1701,-0.0567 m 0,0 -0.2268,0.1134 m 0,0 -0.2268,0.0567 m 0,0 -0.2267,-0.0567 m 0,0 -0.1985,-0.1417 m 0.3402,1.0204 h 0.2551 m -0.4819,-0.0283 h 0.6094 m -0.6755,-0.0283 h 0.8031 M 33.291,27.5074 h 0.9354 m -1.0015,-0.0283 h 1.0677 m -1.1131,-0.0284 h 1.1793 m -1.2246,-0.0283 h 1.2576 m -1.303,-0.0284 h 1.3361 M 33.0435,27.3657 H 34.458 M 32.9981,27.3373 H 34.491 M 32.9697,27.309 h 1.5544 m -1.5827,-0.0283 h 1.6158 m -1.6441,-0.0284 h 1.6562 m -1.6846,-0.0284 h 1.6968 m -1.7251,-0.0283 h 1.7372 M 32.828,27.1673 h 1.7777 m -1.7979,-0.0284 h 1.8101 m -1.8304,-0.0284 h 1.8426 m -1.8628,-0.0283 h 1.8749 M 32.747,27.0539 h 1.8846 m -1.9048,-0.0284 h 1.8941 m -1.9143,-0.0283 h 1.9037 m -1.924,-0.0284 h 1.9134 m -1.9275,-0.0283 h 1.9169 M 32.658,26.9122 h 1.9204 m -1.9346,-0.0284 h 1.924 m -1.9382,-0.0284 h 1.9276 m -1.9418,-0.0283 h 1.9134 m -1.9276,-0.0283 h 1.8993 m -1.9134,-0.0284 h 1.148 m 0,0 h 0.7371 M 32.5729,26.742 h 1.0489 m 0.2267,0 h 0.5953 m -1.878,-0.0283 h 0.9426 m 0.4535,0 h 0.4535 m -1.8566,-0.0283 h 0.9099 m 0.5499,0 h 0.3685 M 32.5516,26.657 h 0.8774 m 0.6463,0 h 0.2835 m -1.8142,-0.0283 h 0.8447 m 0.7427,0 h 0.1417 m -1.7363,-0.0284 h 0.8122 M 32.5304,26.572 h 0.7795 m -0.7866,-0.0284 h 0.7897 m -0.7968,-0.0283 h 0.8 m -0.8,-0.0284 h 0.8032 m -0.8032,-0.0283 h 0.8063 m -0.8063,-0.0283 h 0.8094 m -0.8094,-0.0284 h 0.8126 m -0.8126,-0.0284 h 0.8158 m -0.8158,-0.0283 h 0.8189 m -0.8189,-0.0283 h 0.822 m -0.822,-0.0284 h 0.8292 m -0.826,-0.0284 h 0.833 m -0.8299,-0.0283 h 0.837 m -0.8339,-0.0283 h 0.841 m -0.8378,-0.0284 h 0.8449 M 32.532,26.1468 h 0.8488 m -0.8457,-0.0284 h 0.8527 m 0.8198,0 h 0.1001 m -1.7695,-0.0283 h 0.8568 m 0.7464,0 h 0.2004 m -1.8004,-0.0283 h 0.9032 m 0.6307,0 h 0.3005 m -1.8312,-0.0284 h 0.9496 m 0.5244,0 h 0.3911 M 32.5552,26.005 h 0.9886 m 0.4181,0 h 0.4819 m -1.878,-0.0283 h 1.0276 m 0.3118,0 h 0.5598 m -1.8885,-0.0283 h 1.9098 M 32.5871,25.92 h 1.9205 m -1.9099,-0.0284 h 1.9311 m -1.9204,-0.0283 h 1.9417 M 32.619,25.835 h 1.9523 m -1.9417,-0.0284 h 1.963 m -1.9428,-0.0284 h 1.9641 m -1.9438,-0.0283 h 1.9473 m -1.927,-0.0283 h 1.9305 m -1.9103,-0.0284 h 1.9139 m -1.8937,-0.0283 h 1.8972 m -1.8769,-0.0284 h 1.8805 m -1.8603,-0.0283 h 1.8638 M 32.795,25.5799 h 1.8437 m -1.8201,-0.0284 h 1.8236 m -1.8,-0.0284 h 1.7764 m -1.7528,-0.0283 h 1.7292 m -1.7055,-0.0283 h 1.6818 m -1.6582,-0.0284 h 1.6346 m -1.5893,-0.0284 h 1.5657 m -1.5203,-0.0283 h 1.4967 m -1.4513,-0.0283 h 1.4116 m -1.3663,-0.0284 h 1.3266 m -1.2812,-0.0283 h 1.2415 M 33.1895,25.268 h 1.1523 M 33.2391,25.2397 H 34.302 M 33.2887,25.2113 H 34.217 M 33.3382,25.183 h 0.7938 m -0.6662,-0.0284 h 0.5811"  id="path230" style="stroke-linecap:round" stroke-width="0.0283465" stroke="#ffffff" gorn="0.4.0.1.22.1.0.8.1" fill="none"/>
                            </g>
                        </g>
                    </g>
                </g>
                <g  id="g244" gorn="0.4.0.1.23">
                    <title  id="title238">element:U$9</title>
                    <g  id="g242" gorn="0.4.0.1.23.1">
                        <title  id="title240">package:SPH8878LR5H#10</title>
                    </g>
                </g>
                <g  id="g260" gorn="0.4.0.1.24">
                    <title  id="title246">element:U1</title>
                    <g  id="g258" gorn="0.4.0.1.24.1">
                        <title  id="title248">package:SOT23-5</title>
                        <line x1="17.5748" y1="11.736" x2="20.009199" y2="11.736"  id="line250" style="stroke-linecap:round" stroke-width="0.57599998" stroke="#ffffff" gorn="0.4.0.1.24.1.1"/>
                        <line x1="20.009199" y1="18.936001" x2="17.5748" y2="18.936001"  id="line252" style="stroke-linecap:round" stroke-width="0.57599998" stroke="#ffffff" gorn="0.4.0.1.24.1.2"/>
                        <line x1="16.782801" y1="16.0968" x2="16.782801" y2="14.5752"  id="line254" style="stroke-linecap:round" stroke-width="0.57599998" stroke="#ffffff" gorn="0.4.0.1.24.1.3"/>
                        <circle cy="19.872"  id="circle256" r="0.36000001" cx="21.672001" stroke-width="0" stroke="#ffffff" gorn="0.4.0.1.24.1.4" fill="none"/>
                    </g>
                </g>
                <g  id="g286" gorn="0.4.0.1.25">
                    <title  id="title262">element:U3</title>
                    <g  id="g284" gorn="0.4.0.1.25.1">
                        <title  id="title264">package:SPH8878LR5H-1</title>
                        <line x1="2.89134" y1="19.559099" x2="2.89134" y2="21.514999"  id="line266" style="stroke-linecap:round" stroke-width="0.72000003" stroke="#ffffff" gorn="0.4.0.1.25.1.1"/>
                        <line x1="2.89134" y1="21.514999" x2="4.9606299" y2="21.514999"  id="line268" style="stroke-linecap:round" stroke-width="0.72000003" stroke="#ffffff" gorn="0.4.0.1.25.1.2"/>
                        <line x1="9.5527401" y1="21.514999" x2="11.5087" y2="21.514999"  id="line270" style="stroke-linecap:round" stroke-width="0.72000003" stroke="#ffffff" gorn="0.4.0.1.25.1.3"/>
                        <line x1="11.5087" y1="21.514999" x2="11.5087" y2="19.4457"  id="line272" style="stroke-linecap:round" stroke-width="0.72000003" stroke="#ffffff" gorn="0.4.0.1.25.1.4"/>
                        <line x1="11.5087" y1="12.1323" x2="11.5087" y2="10.1764"  id="line274" style="stroke-linecap:round" stroke-width="0.72000003" stroke="#ffffff" gorn="0.4.0.1.25.1.5"/>
                        <line x1="11.5087" y1="10.1764" x2="9.4393396" y2="10.1764"  id="line276" style="stroke-linecap:round" stroke-width="0.72000003" stroke="#ffffff" gorn="0.4.0.1.25.1.6"/>
                        <line x1="4.84724" y1="10.1764" x2="2.89134" y2="10.1764"  id="line278" style="stroke-linecap:round" stroke-width="0.72000003" stroke="#ffffff" gorn="0.4.0.1.25.1.7"/>
                        <line x1="2.89134" y1="10.1764" x2="2.89134" y2="12.2457"  id="line280" style="stroke-linecap:round" stroke-width="0.72000003" stroke="#ffffff" gorn="0.4.0.1.25.1.8"/>
                        <circle cy="9.4138603"  id="circle282" r="0.36000001" cx="1.89071" stroke-width="0.72000003" stroke="#ffffff" gorn="0.4.0.1.25.1.9" fill="none"/>
                    </g>
                </g>
            </g>
            <g  transform="rotate(180,45.465515,18.278431)">
                <g >
                    <g  id="g1054" gorn="0.4.0.2.0.0">
                        <rect  x="68.491028" id="rect2513" height="1.125" width="3.7499998" style="display:inline;" stroke-width="0.83685791" gorn="0.4.0.2.0.0.0" y="23.010038" fill="#dcdcdc"/>
                        <rect  x="68.464966" id="rect2515" height="1.125" width="3.7499998" style="display:inline;" stroke-width="0.83685791" gorn="0.4.0.2.0.0.1" y="20.60968" fill="#dcdcdc"/>
                        <rect  x="68.458969" id="rect2517" height="1.125" width="3.7499998" style="display:inline;" stroke-width="0.83685553" gorn="0.4.0.2.0.0.2" y="18.243788" fill="#dcdcdc"/>
                        <rect  id="rect2519" x="71.791023" width="3.7499998" height="1.125" style="display:inline;" stroke-width="0.83685791" y="23.010038" gorn="0.4.0.2.0.0.3" fill="#dcdcdc"/>
                        <rect  id="rect2521" x="71.758972" width="3.7499998" height="1.125" style="display:inline;" stroke-width="0.83685553" y="18.243788" gorn="0.4.0.2.0.0.4" fill="#dcdcdc"/>
                        <g  transform="scale(-1)">
                            <g >
                                <rect fill-opacity="1"  x="-74.01796" id="rect2525" height="6.911202" width="4.0814619" style="display:inline;" stroke-width="0" stroke="none" gorn="0.4.0.2.0.0.5.0.0" y="-24.689499" fill="#333333"/>
                            </g>
                        </g>
                    </g>
                </g>
            </g>
            <circle connectorname="VCC" cy="21.6"  id="connector12pin" r="2.052" cx="36" stroke-width="1.22399998" stroke="#9a916c" gorn="0.4.0.3" fill="none"/>
            <circle connectorname="GND" cy="14.4"  id="connector13pin" r="2.052" cx="36" stroke-width="1.22399998" stroke="#9a916c" gorn="0.4.0.4" fill="none"/>
            <circle connectorname="AUD" cy="7.1999998"  id="connector14pin" r="2.052" cx="36" stroke-width="1.22399998" stroke="#9a916c" gorn="0.4.0.5" fill="none"/>
            <circle connectorname="1" cy="7.1999998"  id="connector15pin" r="0.72000003" cx="7.1999998" stroke-width="0.36000001" stroke="#9a916c" gorn="0.4.0.6" fill="none"/>
        </g>
        <g  transform="translate(4.2845,2.076)">
            <g >
                <g  id="g161" gorn="0.4.1.0.0">
                    <g  id="0603-cap" gorn="0.4.1.0.0.0">
                        <path d="M 4.245,2.268 H 0.29 C 0.13,2.268 0,2.138 0,1.977 V 0.29 C 0,0.13 0.13,0 0.29,0 h 3.955 c 0.16,0 0.29,0.13 0.29,0.29 v 1.687 c 0,0.161 -0.13,0.291 -0.29,0.291 z"  id="path297" style="fill:#dcdcdc" gorn="0.4.1.0.0.0.0"/>
                        <rect  id="rect299" x="1.1339999" height="2.2679999" width="2.2679999" style="fill:#6e554b" y="0" gorn="0.4.1.0.0.0.1"/>
                    </g>
                </g>
            </g>
        </g>
        <g  transform="translate(24.2705,7.74043)">
            <g >
                <g  id="g169" gorn="0.4.2.0.0">
                    <g  id="g308" gorn="0.4.2.0.0.0">
                        <g  transform="rotate(90,2.2675,1.134)">
                            <g >
                                <g  id="g166" gorn="0.4.2.0.0.0.0.0.0">
                                    <g  id="g306" gorn="0.4.2.0.0.0.0.0.0.0">
                                        <path d="M 4.245,2.268 H 0.29 C 0.13,2.268 0,2.138 0,1.977 V 0.29 C 0,0.13 0.13,0 0.29,0 h 3.955 c 0.16,0 0.29,0.13 0.29,0.29 v 1.687 c 0,0.161 -0.13,0.291 -0.29,0.291 z"  id="path302" style="fill:#dcdcdc" gorn="0.4.2.0.0.0.0.0.0.0.0"/>
                                        <rect  id="rect304" x="1.1339999" height="2.2679999" width="2.2679999" style="fill:#6e554b" y="0" gorn="0.4.2.0.0.0.0.0.0.0.1"/>
                                    </g>
                                </g>
                            </g>
                        </g>
                    </g>
                </g>
            </g>
        </g>
        <g  transform="translate(17.8925,2.076)">
            <g >
                <g  id="g174" gorn="0.4.3.0.0">
                    <g  id="g314" gorn="0.4.3.0.0.0">
                        <path d="M 4.245,2.268 H 0.29 C 0.13,2.268 0,2.138 0,1.977 V 0.29 C 0,0.13 0.13,0 0.29,0 h 3.955 c 0.16,0 0.29,0.13 0.29,0.29 v 1.687 c 0,0.161 -0.13,0.291 -0.29,0.291 z"  id="path310" style="fill:#dcdcdc" gorn="0.4.3.0.0.0.0"/>
                        <rect  id="rect312" x="1.1339999" height="2.2679999" width="2.2679999" style="fill:#f2f2f2" y="0" gorn="0.4.3.0.0.0.1"/>
                    </g>
                </g>
            </g>
        </g>
        <g  transform="translate(17.3834,21.216)">
            <g >
                <g  id="g182" gorn="0.4.4.0.0">
                    <g  id="g322" gorn="0.4.4.0.0.0">
                        <g  transform="rotate(180,2.2675,1.134)">
                            <g >
                                <g  id="g179" gorn="0.4.4.0.0.0.0.0.0">
                                    <g  id="g320" gorn="0.4.4.0.0.0.0.0.0.0">
                                        <path d="M 4.245,2.268 H 0.29 C 0.13,2.268 0,2.138 0,1.977 V 0.29 C 0,0.13 0.13,0 0.29,0 h 3.955 c 0.16,0 0.29,0.13 0.29,0.29 v 1.687 c 0,0.161 -0.13,0.291 -0.29,0.291 z"  id="path316" style="fill:#dcdcdc" gorn="0.4.4.0.0.0.0.0.0.0.0"/>
                                        <rect  id="rect318" x="1.1339999" height="2.2679999" width="2.2679999" style="fill:#6e554b" y="0" gorn="0.4.4.0.0.0.0.0.0.0.1"/>
                                    </g>
                                </g>
                            </g>
                        </g>
                    </g>
                </g>
            </g>
        </g>
        <g  transform="translate(28.4705,17.874)">
            <g >
                <g  id="g191" gorn="0.4.5.0.0">
                    <g  id="0603-res" gorn="0.4.5.0.0.0">
                        <g  transform="rotate(-90,2.2675,1.134)">
                            <g >
                                <g  id="g187" gorn="0.4.5.0.0.0.0.0.0">
                                    <g  id="g328" gorn="0.4.5.0.0.0.0.0.0.0">
                                        <path d="M 4.245,2.268 H 0.29 C 0.13,2.268 0,2.138 0,1.977 V 0.29 C 0,0.13 0.13,0 0.29,0 h 3.955 c 0.16,0 0.29,0.13 0.29,0.29 v 1.687 c 0,0.161 -0.13,0.291 -0.29,0.291 z"  id="path324" style="fill:#dcdcdc" gorn="0.4.5.0.0.0.0.0.0.0.0"/>
                                        <rect  id="rect326" x="1.1339999" height="2.2679999" width="2.2679999" style="fill:#333333" y="0" gorn="0.4.5.0.0.0.0.0.0.0.1"/>
                                    </g>
                                </g>
                            </g>
                        </g>
                    </g>
                </g>
            </g>
        </g>
        <g  transform="translate(28.4705,7.74043)">
            <g >
                <g  id="g200" gorn="0.4.6.0.0">
                    <g  id="g337" gorn="0.4.6.0.0.0">
                        <g  transform="rotate(-90,2.2675,1.134)">
                            <g >
                                <g  id="g197" gorn="0.4.6.0.0.0.0.0.0">
                                    <g  id="g335" gorn="0.4.6.0.0.0.0.0.0.0">
                                        <path d="M 4.245,2.268 H 0.29 C 0.13,2.268 0,2.138 0,1.977 V 0.29 C 0,0.13 0.13,0 0.29,0 h 3.955 c 0.16,0 0.29,0.13 0.29,0.29 v 1.687 c 0,0.161 -0.13,0.291 -0.29,0.291 z"  id="path331" style="fill:#dcdcdc" gorn="0.4.6.0.0.0.0.0.0.0.0"/>
                                        <rect  id="rect333" x="1.1339999" height="2.2679999" width="2.2679999" style="fill:#333333" y="0" gorn="0.4.6.0.0.0.0.0.0.0.1"/>
                                    </g>
                                </g>
                            </g>
                        </g>
                    </g>
                </g>
            </g>
        </g>
        <g  transform="translate(10.8785,4.914)">
            <g >
                <g  id="g209" gorn="0.4.7.0.0">
                    <g  id="g345" gorn="0.4.7.0.0.0">
                        <g  transform="rotate(90,2.2675,1.134)">
                            <g >
                                <g  id="g205" gorn="0.4.7.0.0.0.0.0.0">
                                    <g  id="g343" gorn="0.4.7.0.0.0.0.0.0.0">
                                        <path d="M 4.245,2.268 H 0.29 C 0.13,2.268 0,2.138 0,1.977 V 0.29 C 0,0.13 0.13,0 0.29,0 h 3.955 c 0.16,0 0.29,0.13 0.29,0.29 v 1.687 c 0,0.161 -0.13,0.291 -0.29,0.291 z"  id="path339" style="fill:#dcdcdc" gorn="0.4.7.0.0.0.0.0.0.0.0"/>
                                        <rect  id="rect341" x="1.1339999" height="2.2679999" width="2.2679999" style="fill:#333333" y="0" gorn="0.4.7.0.0.0.0.0.0.0.1"/>
                                    </g>
                                </g>
                            </g>
                        </g>
                    </g>
                </g>
            </g>
        </g>
        <g  transform="translate(17.8925,7.182)">
            <g >
                <g  id="g218" gorn="0.4.8.0.0">
                    <g  id="g353" gorn="0.4.8.0.0.0">
                        <g  transform="rotate(180,2.2675,1.134)">
                            <g >
                                <g  id="g215" gorn="0.4.8.0.0.0.0.0.0">
                                    <g  id="g351" gorn="0.4.8.0.0.0.0.0.0.0">
                                        <path d="M 4.245,2.268 H 0.29 C 0.13,2.268 0,2.138 0,1.977 V 0.29 C 0,0.13 0.13,0 0.29,0 h 3.955 c 0.16,0 0.29,0.13 0.29,0.29 v 1.687 c 0,0.161 -0.13,0.291 -0.29,0.291 z"  id="path347" style="fill:#dcdcdc" gorn="0.4.8.0.0.0.0.0.0.0.0"/>
                                        <rect  id="rect349" x="1.1339999" height="2.2679999" width="2.2679999" style="fill:#333333" y="0" gorn="0.4.8.0.0.0.0.0.0.0.1"/>
                                    </g>
                                </g>
                            </g>
                        </g>
                    </g>
                </g>
            </g>
        </g>
        <g  transform="matrix(0.26872251,0,0,0.35350408,2.6792408,0.2591608)">
            <g >
                <g  id="g221" gorn="0.4.9.0.0">
                    <rect fill-opacity="1"  id="rect1056" x="2.0872512" stroke-opacity="1" width="29.331051" height="30.052879" ry="1.9113873" style="display:inline;opacity:1;fill-rule:evenodd;stroke-linecap:round;stroke-linejoin:round;stroke-miterlimit:4;stroke-dasharray:none;stroke-dashoffset:0;paint-order:normal" stroke-width="2.43339157" stroke="none" y="29.035637" fill="#e6e6e6" gorn="0.4.9.0.0.0"/>
                    <rect fill-opacity="1"  x="3.5534203" id="rect4749" stroke-opacity="1" height="27.931076" width="26.539457" ry="1.9113873" style="opacity:1;fill-rule:evenodd;stroke-linecap:round;stroke-linejoin:round;stroke-miterlimit:4;stroke-dasharray:none;stroke-dashoffset:0;paint-order:normal" stroke-width="2.43339157" stroke="none" y="30.178919" fill="#eac894" gorn="0.4.9.0.0.1"/>
                </g>
            </g>
        </g>
    </g>
</svg>
